<svg id="Gooloos" xmlns="http://www.w3.org/2000/svg" width="150" height="150" viewBox="0 0 150 150"><path d="M77.4009,143.5926c-.0925-.2681-.1855-.5451-.28-.8291a2.1871,2.1871,0,0,0-4.1545,0c-.0946.284-.1877.561-.28.8291C61.9944,174.5978,21.8507,73,75.0845,73c52.5419,0,13.6036,103.3243,2.3164,70.5926Z" style="fill:#99223c;fill-rule:evenodd"/><path d="M77.4009,143.5926c-.0925-.2681-.1855-.5451-.28-.8291a2.1871,2.1871,0,0,0-4.1545,0c-.0946.284-.1877.561-.28.8291-5.2345,15.1783-23.5865-16.8451-23.9417-42.509-.6937-50.1313,80.229-22.5107,36.9785,48.2255-3.2162,1.719-6.24.3215-8.3221-5.7165Z" style="fill:#ce564d;fill-rule:evenodd"/><path d="M73.6588,116.9043s3.1213-1.2324,2.63,0A1.35,1.35,0,0,1,73.6588,116.9043Z" style="fill:#99223c;fill-rule:evenodd"/><ellipse cx="90.0032" cy="106.6242" rx="8.5144" ry="8.0862" style="fill:#fff"/><ellipse cx="59.9969" cy="106.6242" rx="8.5144" ry="8.0862" style="fill:#fff"/><ellipse cx="60.8815" cy="106.6242" rx="6.2746" ry="5.959" style="fill:#001a2b"/><path d="M60.8815,113.083a6.4663,6.4663,0,1,1,6.7744-6.459A6.63,6.63,0,0,1,60.8815,113.083Zm0-11.918a5.4676,5.4676,0,1,0,5.7744,5.459A5.63,5.63,0,0,0,60.8815,101.165Z" style="fill:#001a2b"/><ellipse cx="89.0513" cy="106.6242" rx="6.2746" ry="5.959" style="fill:#001a2b"/><path d="M89.0514,113.083a6.4663,6.4663,0,1,1,6.7744-6.459A6.63,6.63,0,0,1,89.0514,113.083Zm0-11.918a5.4676,5.4676,0,1,0,5.7744,5.459A5.63,5.63,0,0,0,89.0514,101.165Z" style="fill:#001a2b"/><path d="M58.3828,101.5461a1.89,1.89,0,0,1,1.57,2.2048,1.9792,1.9792,0,0,1-2.3216,1.4917,1.89,1.89,0,0,1-1.5705-2.2049A1.9792,1.9792,0,0,1,58.3828,101.5461Z" style="fill:#fff"/><path d="M86.5521,101.5461a1.89,1.89,0,0,1,1.5705,2.2048,1.9792,1.9792,0,0,1-2.3215,1.4917,1.89,1.89,0,0,1-1.5706-2.2049A1.9792,1.9792,0,0,1,86.5521,101.5461Z" style="fill:#fff"/></svg>