<svg id="Gooloos" xmlns="http://www.w3.org/2000/svg" width="150" height="150" viewBox="0 0 150 150"><path d="M94.335,80.4373s-.67.14-1.8.36c-3.55.69-11.56,2.2-17,2.74-.4.04-.79.08-1.16.11a22.8886,22.8886,0,0,1-2.49.09c-4.13-.12-16.22-3.3-16.22-3.3s1.83-18.43,6.78-20.72l1.27.53.41.17.1.04s.47-.74,1.15-1.72a25.5181,25.5181,0,0,1,3.67-4.33c1.36-1.11,8.25,2.58,12.63,5.13,1.85,1.07,3.26,1.94,3.6,2.16a.4768.4768,0,0,1,.08.04l1.69-1.1a2.7194,2.7194,0,0,1,.62.3C92.235,63.7973,94.335,80.4373,94.335,80.4373Z" style="fill:#eeeeed"/><polygon points="87.065 60.677 85.355 61.737 73.815 68.927 77.625 66.517 77.725 66.457 85.275 61.697 86.195 61.117 87.015 60.597 87.045 60.637 87.065 60.677" style="fill:#b7b7b6"/><polygon points="77.745 66.467 77.645 66.527 77.625 66.517 63.715 60.337 62.425 59.767 62.445 59.717 62.465 59.677 63.715 60.237 64.125 60.417 64.225 60.457 77.725 66.457 77.745 66.467" style="fill:#b7b7b6"/><path d="M94.335,80.4373s-.67.14-1.8.36c-3.55.69-11.56,2.2-17,2.74-.4.04-.79.08-1.16.11-.02-3.34-.07-13.55.01-14.28.11-.87,12.68-8.31,12.68-8.31s.23-.05.6-.12C92.235,63.7973,94.335,80.4373,94.335,80.4373Z" style="fill:#c2ccd3"/><path d="M78.535,65.9473l-.79.52-.02-.01-14.01-6.12v-.1l.41.18.1.04s.47-.74,1.15-1.72a5.3341,5.3341,0,0,0,2.57,2.2C70.985,62.3373,78.315,65.8373,78.535,65.9473Z" style="fill:#b7bec4"/></svg>