<svg id="Gooloos" xmlns="http://www.w3.org/2000/svg" width="150" height="150" viewBox="0 0 150 150"><path d="M84.5116,84.91c-1.25.08-2.43.15-3.55.2l-.66.03c-.44.02-.87.04-1.29.05-.21.01-.42.02-.63.02h-.01c-2.39.08-4.62.08-6.98.01-.33-.01-.67-.02-1.01-.03-.33-.01-.67-.02-1.02-.04-.16,0-.33-.01-.5-.02-.53-.02-1.07-.05-1.62-.08-.22-.02-.45-.03-.68-.04-.92-.05-1.87-.12-2.88-.19-.44-.03-.9-.06-1.36-.1l-.42-.03c-.41-.03-.83-.06-1.26-.1-.08-.01-.17-.01-.26-.02-.41-.03-.84-.07-1.28-.1-1.56-.13-3.24-.27-5.08-.43-.34-.03-.69-.06-1.04-.09-1.05-.09-2.16-.19-3.32-.29a26.7862,26.7862,0,0,1,18.74-15.59,28.0427,28.0427,0,0,1,5.7-.76c.32-.01.65-.02.97-.02a28.2873,28.2873,0,0,1,6.62.77,6.507,6.507,0,0,1-3.64,4.34C82.5917,76.2,84.2417,82.73,84.5116,84.91Z" style="fill:#d8ccb2"/><path d="M84.5116,84.91c.25,2.04-1.43,7.83-2.22,10.43-9.98,1.23-15.69.11-33.42-3.36-2.17-.43,0-8.39,0-8.39.27.02.53.05.79.07,1.16.1,2.27.2,3.32.29.35.03.7.06,1.04.09,1.84.16,3.52.3,5.08.43.44.03.87.07,1.28.1.09.01.18.01.26.02.43.04.85.07,1.26.1l.42.03c.46.04.92.07,1.36.1,1.01.07,1.96.14,2.88.19.23.01.46.02.68.04.55.03,1.09.06,1.62.08.17.01.34.02.5.02.61.03,1.2.05,1.79.07h.24l6.98-.01h.19c.15,0,.3-.01.45-.02.42-.01.85-.03,1.29-.05l.66-.03C82.0816,85.06,83.2616,84.99,84.5116,84.91Z" style="fill:#7a446b"/><rect x="85.1416" y="86.04" width="0.16" height="7.9099" style="fill:#7c6b45"/><rect x="90.1117" y="85.3999" width="0.15" height="7.9102" style="fill:#7c6b45"/><rect x="95.1517" y="85.0601" width="0.16" height="7.3099" style="fill:#7c6b45"/><rect x="99.8317" y="84.53" width="0.1599" height="6.8199" style="fill:#7c6b45"/><rect x="74.5873" y="86.2284" width="0.1588" height="8.6649" style="fill:#1b131e"/><rect x="69.5858" y="86.0401" width="0.1191" height="8.6649" style="fill:#1b131e"/><rect x="64.624" y="86.0401" width="0.1191" height="7.9114" style="fill:#1b131e"/><rect x="59.6622" y="85.3996" width="0.1191" height="7.9114" style="fill:#1b131e"/><rect x="54.6211" y="85.0605" width="0.1191" height="7.3086" style="fill:#1b131e"/><rect x="49.9372" y="84.5331" width="0.1588" height="6.8189" style="fill:#1b131e"/><rect x="80.2238" y="86.0401" width="0.1191" height="8.6649" style="fill:#1b131e"/><rect x="85.1416" y="86.04" width="0.16" height="7.9099" style="fill:#1b131e"/><rect x="90.1117" y="85.3999" width="0.15" height="7.9102" style="fill:#1b131e"/><rect x="95.1517" y="85.0601" width="0.16" height="7.3099" style="fill:#1b131e"/><rect x="99.8317" y="84.53" width="0.1599" height="6.8199" style="fill:#1b131e"/><path d="M101.1318,83.59c-.22.02-.44.04-.65.05-1.2.11-2.35.2-3.44.29-.51.05-1.01.09-1.5.13-.57.05-1.13.09-1.68.14-.49.04-.96.08-1.43.12-.86.07-1.69.13-2.48.19-.38.03-.75.06-1.12.09-1,.08-1.95.15-2.86.21-.5.03-.98.07-1.46.1.25,2.04-1.43,7.83-2.22,10.43,4.74-.59,10.44-1.71,18.84-3.36C103.2917,91.55,101.1318,83.59,101.1318,83.59Zm-15.83,10.36h-.16V86.04h.16Zm4.96-.64h-.15V85.4h.15Zm5.05-.94h-.16V85.06h.16Zm4.68-1.02h-.16V84.53h.16Z" style="fill:#492c4c"/><rect x="85.1416" y="86.04" width="0.16" height="7.9099" style="fill:#140d16"/><rect x="90.1117" y="85.3999" width="0.15" height="7.9102" style="fill:#140d16"/><rect x="95.1517" y="85.0601" width="0.16" height="7.3099" style="fill:#140d16"/><path d="M100.4816,83.64c-1.2.11-2.35.2-3.44.29-.51.05-1.01.09-1.5.13-.57.05-1.13.09-1.68.14-.49.04-.96.08-1.43.12-.86.07-1.69.13-2.48.19-.38.03-.75.06-1.12.09-1,.08-1.95.15-2.86.21-.5.03-.98.07-1.46.1-.27-2.18-1.92-8.71-6.46-12.51a6.507,6.507,0,0,0,3.64-4.34A26.8116,26.8116,0,0,1,100.4816,83.64Z" style="fill:#baa899"/><path d="M81.8717,66.59a5.921,5.921,0,0,1-.18,1.47,6.507,6.507,0,0,1-3.64,4.34,11.8525,11.8525,0,0,0-3.46-2.06c-1.81-.69-1.71-1.78-.49-3.03a25.5085,25.5085,0,0,1,6.73-4.14A6.1551,6.1551,0,0,1,81.8717,66.59Z" style="fill:#4c412c"/><rect x="99.8317" y="84.53" width="0.1599" height="6.8199" style="fill:#140d16"/><path d="M81.8717,66.59a5.921,5.921,0,0,1-.18,1.47,6.507,6.507,0,0,1-3.64,4.34,7.0234,7.0234,0,0,1-3.01.67,6.7415,6.7415,0,0,1-1.11-.09,6.65,6.65,0,0,1-5.53-4.91,5.6121,5.6121,0,0,1-.19-1.48,6.6579,6.6579,0,0,1,6.83-6.49,6.783,6.783,0,0,1,1.76.22h.01a6.7285,6.7285,0,0,1,4.02,2.85A6.1551,6.1551,0,0,1,81.8717,66.59Z" style="fill:#7a446b"/><path d="M81.8717,66.59a5.921,5.921,0,0,1-.18,1.47,6.507,6.507,0,0,1-3.64,4.34,7.0234,7.0234,0,0,1-3.01.67,6.7415,6.7415,0,0,1-1.11-.09,5.2728,5.2728,0,0,0,3.61-1.85c1.56-2.22,3.24-6.09-.73-10.81a6.7285,6.7285,0,0,1,4.02,2.85A6.1551,6.1551,0,0,1,81.8717,66.59Z" style="fill:#633a66"/></svg>