<svg id="Gooloos" xmlns="http://www.w3.org/2000/svg" width="150" height="150" viewBox="0 0 150 150"><path d="M90.9516,96.62c-4.94.41-10.32.63-15.95.63-24.05,0-43.54-4.06-43.54-9.06,0-3.12,7.56-5.87,19.07-7.5.28-.04.56-.08.84-.11a180.1349,180.1349,0,0,1,23.63-1.45c3.3,0,6.51.08,9.6.22,1.48.07,2.94.15,4.36.26.21.01.41.02.62.04l.42.03q-.03.6151-.09,1.17c-.05.44-.1.85-.17,1.24-.11.74-.25,1.39-.39,1.95a15.5972,15.5972,0,0,1-.67,2.12c.31.08.61.17.89.25.31.09.61.19.89.28.15-.01.3-.03.45-.05a2.0935,2.0935,0,0,0,.08.23h.01a21.4041,21.4041,0,0,1,2.24.88C99.8916,90.85,95.6617,94.28,90.9516,96.62Z" style="fill:#3a2826"/><path d="M90.0016,79.68q-.03.6151-.09,1.17h-38.54V78.92a23.0556,23.0556,0,0,1,.24-3.35,23.6313,23.6313,0,0,1,23.39-20.28c.14,0,.29,0,.43.01,9.72,6.13,13.27,13.25,14.27,19.1.07.4.13.79.17,1.17.02.17.04.33.05.49v.01q-.06.33-.12.66a20.4987,20.4987,0,0,0-.22,2.92Z" style="fill:#3a2826"/><path d="M118.5417,88.19c0,3.83-11.44,7.11-27.59,8.43,4.71-2.34,8.94-5.77,2.29-8.87a2.1719,2.1719,0,0,0,.54-.73c.88.2,1.76.38,2.64.57a1.0472,1.0472,0,0,0,1.26-.86c.05-.33.1-.65.14-.98v-.01l.24-.03a2.2659,2.2659,0,0,0,1.69-2.6c-.1-.8-.19-1.61-.29-2.42C110.9816,82.32,118.5417,85.07,118.5417,88.19Z" style="fill:#281a20"/><path d="M98.3916,75.57c-.46.08-.93.16-1.4.22-.11-.4-.24-.79-.38-1.18a1.0649,1.0649,0,0,0-1.39-.63c-.84.35-1.67.69-2.51,1.02a2.2161,2.2161,0,0,0-1.81-.94,1.41,1.41,0,0,0-.2.01,2.2373,2.2373,0,0,0-1,.33c-1-5.85-4.55-12.97-14.27-19.1a23.61,23.61,0,0,1,22.96,20.27Z" style="fill:#281a20"/><path d="M90.9117,86.64a2.0935,2.0935,0,0,0,.08.23c-.17-.06-.35-.12-.53-.18C90.6117,86.68,90.7616,86.66,90.9117,86.64Z" style="fill:#cc6060"/><path d="M90.4616,86.69l-.81.09c-1.29.13-2.58.24-3.88.32a148.6326,148.6326,0,0,1-33.83-1.39,2.2412,2.2412,0,0,1-1.71-2.46c0-.05.01-.09.01-.14.1-.8.2-1.61.29-2.42.21-1.73.42-3.46.62-5.19.15.03.31.05.46.07a141.922,141.922,0,0,0,33.11,1.6c1.15-.07,2.31-.16,3.46-.28.18-.01.35-.03.53-.05.36-.03.72-.06,1.09-.11a20.4987,20.4987,0,0,0-.22,2.92l.42.03q-.03.6151-.09,1.17c-.05.44-.1.85-.17,1.24-.02.16-.05.31-.08.46v.01c-.09.55-.2,1.04-.31,1.48a15.5972,15.5972,0,0,1-.67,2.12c.31.08.61.17.89.25C89.8818,86.5,90.1817,86.6,90.4616,86.69Z" style="fill:#b25b59"/><path d="M92.6517,86.45c.44-.05.88-.1,1.32-.17a2.8428,2.8428,0,0,1-.19.74c-.39-.08-.79-.16-1.19-.25C92.6117,86.66,92.6318,86.56,92.6517,86.45Z" style="fill:#a54646"/><path d="M98.6318,80.58v.27h-.7l-.03-.37C98.1517,80.51,98.3916,80.54,98.6318,80.58Z" style="fill:#a54646"/><path d="M98.6318,80.58v.27h-.7l-.03-.37C98.1517,80.51,98.3916,80.54,98.6318,80.58Z" style="fill:#b25b59"/><path d="M93.9716,86.28a2.8428,2.8428,0,0,1-.19.74c-.39-.08-.79-.16-1.19-.25.02-.11.04-.21.06-.32C93.0917,86.4,93.5317,86.35,93.9716,86.28Z" style="fill:#cc6060"/><path d="M98.0116,82.74a25.1728,25.1728,0,0,1-.19,3v.01c-.04.33-.09.65-.14.98a1.0472,1.0472,0,0,1-1.26.86c-.88-.19-1.76-.37-2.64-.57a2.8428,2.8428,0,0,0,.19-.74,2.4107,2.4107,0,0,0,0-.38l-.44-5.05-.08-.87-.32-3.63-.02-.27a2.2463,2.2463,0,0,0-.4-1.08c.84-.33,1.67-.67,2.51-1.02a1.0649,1.0649,0,0,1,1.39.63c.14.39.27.78.38,1.18a23.4791,23.4791,0,0,1,.91,4.68v.01l.03.37C97.9816,81.48,98.0116,82.11,98.0116,82.74Z" style="fill:#873a4b"/><path d="M99.7516,83.11c-.1-.8-.19-1.61-.29-2.42-.2-1.73-.41-3.46-.62-5.19-.15.03-.3.05-.45.07-.46.08-.93.16-1.4.22a23.4791,23.4791,0,0,1,.91,4.68v.01l.03.37c.05.63.08,1.26.08,1.89a25.1728,25.1728,0,0,1-.19,3l.24-.03A2.2659,2.2659,0,0,0,99.7516,83.11Z" style="fill:#964d59"/><path d="M90.4616,86.69l-.81.09c-1.29.13-2.58.24-3.88.32a148.6326,148.6326,0,0,1-33.83-1.39,2.2412,2.2412,0,0,1-1.71-2.46,6.1428,6.1428,0,0,0,3.51,1.42c6.97,1.02,28.95,5.59,30.98-7.5,1.15-.07,2.31-.16,3.46-.28.53,1.65,1.04,3.7,1.48,5.66v.01c-.09.55-.2,1.04-.31,1.48a15.5972,15.5972,0,0,1-.67,2.12c.31.08.61.17.89.25C89.8818,86.5,90.1817,86.6,90.4616,86.69Z" style="fill:#964d59"/><path d="M91.0016,86.87h-.01a2.0935,2.0935,0,0,1-.08-.23c-.15.02-.3.04-.45.05-.28-.09-.58-.19-.89-.28a.5.5,0,0,1-.02-.12l-.2-2.25c.14-.56.28-1.21.39-1.95-.06-.41-.1-.82-.12-1.24-.03-.4-.04-.8-.04-1.2a20.4987,20.4987,0,0,1,.22-2.92q.06-.33.12-.66v-.01c-.01-.16-.03-.32-.05-.49-.33-.07-.67-.14-1-.21-.9-.19-1.8-.38-2.7-.58a1.056,1.056,0,0,0-1.25.86c-.08.51-.15,1.02-.2,1.53a19.7739,19.7739,0,0,0-.12,2.18c-.02.5-.01,1,.02,1.5a24.2627,24.2627,0,0,0,1.15,6.25c.07.22.14.44.22.66a1.0424,1.0424,0,0,0,1.38.63c.85-.34,1.7-.69,2.56-1.04.36-.14.72-.29,1.08-.44A.06.06,0,0,1,91.0016,86.87Z" style="fill:#934141"/><path d="M90.2316,74.16c2.29,5.02,1.73,14.14,1.73,14.14a2.2225,2.2225,0,0,1-2.03-.95,2.16,2.16,0,0,1-.28-.57,1.5261,1.5261,0,0,1-.08-.37.5.5,0,0,1-.02-.12l-.2-2.25-.28-3.19-.11-1.24-.25-2.77-.03-.37a2.3078,2.3078,0,0,1,.19-1.11,2.2758,2.2758,0,0,1,.83-.96A2.3328,2.3328,0,0,1,90.2316,74.16Z" style="fill:#cc6060"/><path d="M93.5317,80.85l-.08-.87-.32-3.63-.02-.27a2.2463,2.2463,0,0,0-.4-1.08,2.2161,2.2161,0,0,0-1.81-.94,1.41,1.41,0,0,0-.2.01,1.8642,1.8642,0,0,0-.47.09c2.29,5.02,1.73,14.14,1.73,14.14a2.2084,2.2084,0,0,0,1.82-1.28,2.8428,2.8428,0,0,0,.19-.74,2.4107,2.4107,0,0,0,0-.38Z" style="fill:#aa575b"/></svg>