<svg id="Gooloos" xmlns="http://www.w3.org/2000/svg" width="150" height="150" viewBox="0 0 150 150"><path d="M15.3029,86.6649s13.54,7.1168,22.64,10.1372c15.0971,5.0112,42.4832,1.4768,62.47.245a71.599,71.599,0,0,0,34.2848-11.5345Z" style="fill:#603730"/><path d="M103.7516,93.33c-13.73-3.61-21.12-1.34-40.78,3.63-18.26,4.62-47.67-10.3-47.67-10.3,18.15.3,35.55-10.23,38.26-11.95.24-.15.37-.23.37-.23h31.02a15.2991,15.2991,0,0,1-1.4,2.88c-.13.2-.21.31-.21.31A83.8015,83.8015,0,0,1,103.7516,93.33Z" style="fill:#bc8a58"/><path d="M84.9516,74.48a15.2991,15.2991,0,0,1-1.4,2.88,68.3733,68.3733,0,0,1-9.08.63,70.7132,70.7132,0,0,1-20.91-3.28c-.1-.03-.15-.05-.15-.05,0-6.25,2.79-15.93,21.06-15.93a39.7032,39.7032,0,0,1,8.76.86A16.9,16.9,0,0,1,84.9516,74.48Z" style="fill:#bc8a58"/><path d="M83.2316,59.59a16.9,16.9,0,0,1,1.72,14.89,15.2991,15.2991,0,0,1-1.4,2.88,69.3839,69.3839,0,0,0,11.87-2.66.8049.8049,0,0,1,.11-.04C95.5317,69.53,94.3217,62.09,83.2316,59.59Z" style="fill:#9e6b57"/><path d="M134.7016,85.51s-19.53,11.05-29.45,8.23c-.51-.14-1.01-.28-1.5-.41a83.8015,83.8015,0,0,0-20.41-15.66s.08-.11.21-.31a69.3839,69.3839,0,0,0,11.87-2.66C98.3417,76.3,116.5917,85.81,134.7016,85.51Z" style="fill:#9e6b57"/><path d="M95.8517,75.77a111.2251,111.2251,0,0,1-11.3,2.46,66.4977,66.4977,0,0,1-10.08.91c-9.46,0-21.05-3.23-21.54-3.37a1.1538,1.1538,0,0,1,.63-2.22c.11.03,11.77,3.29,20.91,3.29a63.1675,63.1675,0,0,0,9.57-.87,108.68,108.68,0,0,0,11.17-2.42,1.1552,1.1552,0,0,1,.64,2.22Z" style="fill:#7f5b3b"/><path d="M95.8517,75.77a111.2251,111.2251,0,0,1-11.3,2.46,1.5627,1.5627,0,0,0-.51-2.26,108.68,108.68,0,0,0,11.17-2.42,1.1552,1.1552,0,0,1,.64,2.22Z" style="fill:#684130"/></svg>