<svg id="Gooloos" xmlns="http://www.w3.org/2000/svg" width="150" height="150" viewBox="0 0 150 150"><path d="M73.8462,91.4449s-29.3918,10.03-49.1682-.1558C13.0686,85.3094,22.89,79.0408,22.89,79.0408s34.6843-.574,43.5148,8.9348C68.7488,90.5,73.8462,91.4449,73.8462,91.4449Z" style="fill:#25635e"/><path d="M98.4465,74.4666v.0373l-7.4357.6616L74.9375,76.6,52.3882,74.3921a16.9823,16.9823,0,0,1,17.0238-16.94l12.0946.0279c.205,0,.4006,0,.6057.0186A16.9684,16.9684,0,0,1,98.4465,74.4666Z" style="fill:#3b8c82"/><path d="M98.4465,74.4666v.0373l-7.4357.6616c.0466-4.4074-1.2486-11.7033-8.8985-17.6668A16.9684,16.9684,0,0,1,98.4465,74.4666Z" style="fill:#2d7a76"/><path d="M52.3794,79.3676s17.2692.9179,23.0319.9317c5.7586.0139,23.02-.82,23.02-.82l.0121-4.9773s-17.27.8345-23.032.8206c-5.76-.014-23.02-.9317-23.02-.9317Z" style="fill:#b2dfdb"/><path d="M94.8778,97.0625c-1.4816-.0745-2.9165-.1584-4.3049-.2795-.0093.0093-.0093.0093-.0186,0C50.72,93.5683,46.3036,73.9076,20.4185,81.2594c10.1565-11.4331,55.1806-2.255,73.5834-2.2736,8.2-.0093,26.6025-3.811,32.7617,2.0034C132.9133,86.7942,138.7557,99.15,94.8778,97.0625Z" style="fill:#3b8c82"/><path d="M94.8778,97.0625c-1.4816-.0745-2.9165-.1584-4.3049-.2795,6.7554-1.0623,20.3037-3.8949,20.1825-9.3366-.1584-7.2492-16.7535-8.4606-16.7535-8.4606,8.2-.0093,26.6025-3.811,32.7617,2.0034C132.9133,86.7942,138.7557,99.15,94.8778,97.0625Z" style="fill:#2d7a76"/></svg>