<svg id="Gooloos" xmlns="http://www.w3.org/2000/svg" width="150" height="150" viewBox="0 0 150 150"><path d="M92.18,76.69a42.96,42.96,0,0,0-8.14-.54l-1.08.03c-1.44.04-2.88.13-4.31.24-.35.02-.7.05-1.05.07,0,.01-.01.01-.02.01h-.07c-.84.06-1.68.13-2.51.19-.2.02-.41.03-.61.05-.38.02-.76.05-1.13.08-.58.04-1.15.07-1.73.1s-1.15.06-1.72.07c-.56.02-1.13.03-1.69.03-4.72,0-9.27-.65-13.57-3.05A4.7019,4.7019,0,0,1,53,72.69c3.54-6.55,11.21-11.18,20.22-11.54.38-.01.76-.02,1.14-.02A25.2736,25.2736,0,0,1,92.54,68.4a27.4552,27.4552,0,0,1,1.45,6.47C94.44,75.33,93.08,76.69,92.18,76.69Z" style="fill:#ffc55f"/><path d="M102.02,83.25a2.2113,2.2113,0,0,0-.05.25,66.7018,66.7018,0,0,0-17.53-2.9,79.161,79.161,0,0,0-8.58.17,56.7068,56.7068,0,0,1,9.08.72,44.2842,44.2842,0,0,1,16.29,5.78c-.19.95-.37,1.89-.56,2.83a12.9846,12.9846,0,0,1-12.12,2.91q-4.29-.54-8.58-1.07c-.77-.1-1.53-.19-2.3-.29-8.61,0-17.68,4.53-25.84.45-.45-.45.46-3.63,1.36-3.63,10.23-1.77,20.01.81,30.22.9.2.01.41.01.61.01.45,0,2.26-1.36,1.81-1.81-.23-.15-.46-.3-.69-.44-10.69-6.55-22.21-.49-33.31-1.38-2.18-.27-3.71-2.69-4.08-5.36a3.8956,3.8956,0,0,1,2.66-1.52c.2-.03.41-.05.61-.07a189.3558,189.3558,0,0,1,30.47-1.34q8.115.285,16.19,1.29c.35.04.69.08,1.04.12A3.721,3.721,0,0,1,102.02,83.25Z" style="fill:#c67055"/><path d="M98.72,78.87c-.35-.04-.69-.08-1.04-.12q-8.07-1.005-16.19-1.29a12.01,12.01,0,0,1,2.95,3.14c.2125.0075.4246.0227.637.0321a78.2276,78.2276,0,0,0-9.2193.1343A54.8451,54.8451,0,0,1,91.13,82.8685,50.0077,50.0077,0,0,0,84.94,81.49a7.024,7.024,0,0,1,.76,3.86,4.8032,4.8032,0,0,1-.56,1.78l-.0014.0024c-10.6861-6.5459-22.2128-.4923-33.3057-1.38-2.1864-.2733-3.7117-2.6892-4.0832-5.359a3.57,3.57,0,0,0-.6425,2.8546q.9457,4.8243,1.8917,9.6486a4.0537,4.0537,0,0,0,4.3086,3.3184,166.8128,166.8128,0,0,1,42.5076,0,4.0538,4.0538,0,0,0,4.3087-3.3184q.2742-1.3986.5484-2.7975a14.21,14.21,0,0,1-1.2118.9655,14.1485,14.1485,0,0,0,1.21-.9649c.19-.94.37-1.88.56-2.83l-.0028-.0016q.37-1.8848.7391-3.7695l.0037.0011a2.2113,2.2113,0,0,1,.05-.25A3.721,3.721,0,0,0,98.72,78.87Zm-.3985,3.6225q-1.1328-.2786-2.276-.5153Q97.1887,82.2135,98.3215,82.4925Zm-9.6354-1.6162c-.8071-.0759-1.6156-.1357-2.4249-.1845Q87.475,80.7647,88.6861,80.8763Zm6.585.9419c-.815-.1583-1.634-.2978-2.455-.4253C93.6371,81.52,94.4559,81.66,95.2711,81.8182Zm-3.5336-.5827q-1.0068-.14-2.0176-.2488Q90.7308,81.0968,91.7375,81.2355ZM91.63,83.0186q.7117.2164,1.4142.4556Q92.3411,83.236,91.63,83.0186Zm-39.7969,9.08c-.4533-.4533.4533-3.6264,1.36-3.6264,10.2231-1.778,20.0113.7962,30.2174.8973l0,0a18.9813,18.9813,0,0,1-3.4306,2.5641l-2.3085-.2885C69.0582,91.6456,59.9923,96.1786,51.8329,92.0989ZM92.51,93.4225a12.7523,12.7523,0,0,0,2.77-.3934A12.72,12.72,0,0,1,92.51,93.4225ZM99.6485,86.36c.3071.1689.6086.3466.91.5238C100.257,86.7069,99.9557,86.5287,99.6485,86.36ZM93.6,83.6633c.599.2124,1.194.4341,1.7812.6717C94.7941,84.0977,94.2,83.8752,93.6,83.6633Zm2.2406.8679c.4358.1824.8688.37,1.297.5666C96.71,84.9012,96.2767,84.7134,95.8409,84.5312Zm2.0411.9207q.4926.2388.9771.491Q98.3741,85.6912,97.882,85.4519Zm1.3352-2.7326c.9043.2363,1.8047.4863,2.6966.7643C101.0221,83.205,100.1213,82.9561,99.2172,82.7193Z" style="fill:#8c5850"/><path d="M97.26,76.54a18.78,18.78,0,0,0-4.72-8.14,25.2736,25.2736,0,0,0-18.18-7.27c-.38,0-.76.01-1.14.02,4.41,1.35,10.52,4.93,10.97,8.52.4,3.17-4.29,5.75-6.59,6.82,0,.01-.01.01-.02.01h-.07c-.84.06-1.68.13-2.51.19-.2.02-.41.03-.61.05-.38.02-.76.05-1.13.08-.58.04-1.15.07-1.73.1s-1.15.06-1.72.07c-.56.02-1.13.03-1.69.03-4.72,0-9.27-.65-13.57-3.05A4.7019,4.7019,0,0,1,53,72.69a17.207,17.207,0,0,0-1.98,6.11,189.0392,189.0392,0,0,1,28.13-1.41q7.635.18,15.25.99c1.09.11,2.19.23,3.28.37A17.9588,17.9588,0,0,0,97.26,76.54Z" style="fill:#d39c5f"/><path d="M82.0757,86.83a5.0246,5.0246,0,0,0,3.612-1.8233l-1.6714-.4412c.0189.05.0645.2607.0392.0884-.0227-.1551-.01-.0566-.0089-.0194.0025.0922-.0463.1017.021-.0946-.0183.0535-.0272.1141-.0425.1689-.0285.1016-.0672.0331.0334-.076a.5387.5387,0,0,0-.0572.1033c-.0168.0319-.0821.1022.0111-.0041.102-.1165.0116-.0161-.0147.0123-.043.0465-.0914.0862-.1364.13-.0927.0906.1625-.1066.0511-.04-.0272.0162-.0528.0359-.08.0528-.0722.0456-.147.0869-.2233.1253-.0568.0285-.12.05-.175.0818.2287-.1331.0446-.02-.03.0078-.0689.0261-.14.0465-.2088.0725-.0442.0167-.1262.0061.0111.0033a.32.32,0,0,1,.3219.0963.4308.4308,0,0,1,.346.2331.606.606,0,0,1,.0724.2289c.0184.1649.0091.07.0076.0323-.0071-.1762-.04.2326.0083.02.0212-.0932-.0387.1092-.0455.1116.0069-.0024.0594-.1016.0582-.0962-.0006.0024-.14.1585-.0691.09.0276-.0265.0518-.0571.0793-.084s.0583-.0511.086-.078c.0736-.0713-.0891.0682-.0877.0676a1.5508,1.5508,0,0,0,.1811-.1134c.0578-.0325.1176-.06.1765-.09.1187-.0608-.1838.0623-.0558.0255.0421-.0121.0833-.0291.1252-.0419.0737-.0225.1484-.0418.2238-.0574.0324-.0067.0652-.0112.0975-.0179.1334-.0277-.2055.0135-.0694.0113.066-.001.1317-.0084.1978-.0085.0441,0,.0881.0009.132.0033.0383.0021.18.0186.0019-.0046-.1843-.0241.0223.0106.0713.0253.025.0075.05.0179.0746.0249.1033.0287-.1372-.0465-.12-.05.026-.0054.232.1538.0664.0306-.1218-.0907-.0568-.0409-.03-.0131q-.1464-.2061-.0853-.1077.038.0663-.0193-.0557c-.0629-.1517-.0251-.0657-.0185-.0291-.002-.0108-.0141-.2684-.0239-.1157-.0013.021.037-.2507.0127-.1461-.0233.1.0588-.142.0526-.1269-.0616.15.139-.19.0149-.0244-.0528.07.0944-.0689.1012-.0714a.8694.8694,0,0,0-.1135.0733c-.1839.1056.1637-.045.0175.0009-.0714.0224-.142.0407-.215.0576-.1009.0234-.0769-.0372.0906-.0114a.624.624,0,0,0-.1173.004c-.0366.0021-.1381-.0165.0174.0087.2077.0337-.0255-.0218-.0352-.0164.0066-.0037.1907.0982.1084.0447-.0912-.0593.16.1788.059.05-.0136-.0173.1474.1944.0848.11-.0232-.0313-.0715-.1455-.001.0141a.3981.3981,0,0,1,.0309.2478c-.0241.1679-.0127.0854-.0014.0458a.6935.6935,0,0,1-.4824.4759H84.003q-.6066-.6108-.4272-.2765-.0777-.1923-.0387-.0863c.0177.0631.0412.1245.0575.1883.0059.023.0369.2235.0463.2256-.0286-.0065-.0243-.255-.0062-.0019a7.1859,7.1859,0,0,1-.0071.8719h2c.0129-.3255.0321-.6507.0595-.9753q.0221-.2621.0506-.5236.0123-.1122.0257-.2241c.0034-.028.0422-.3267.02-.1653s.02-.1368.0242-.1647q.0165-.1116.0344-.2229c.0253-.1583.052-.3165.0814-.4742a3.2186,3.2186,0,0,1,.09-.3843c.07-.2213.0314.0064-.0124.0162a1.1008,1.1008,0,0,1,.0584-.1031q-.1509.1812-.0467.0619l-1.57-.2024a3.94,3.94,0,0,1,.2.3558c.0149.03.1131.236.04.0807-.0721-.1538.0174.0521.0292.0854a3.8686,3.8686,0,0,1,.1156.3915q.0219.0917.0393.1844c.0141.0747.0191.2728.0028-.0174a5.7811,5.7811,0,0,1,.0187.7527,1.0087,1.0087,0,0,0-.0183.1875q.0339-.243.0081-.0795l-.0113.0618a3.9532,3.9532,0,0,1-.1084.4259l1.8277-.2389a1.8917,1.8917,0,0,0-.1454-.28q.0813.2.039.0938-.0177-.0438-.0337-.0883-.0216-.0593-.0408-.1194c-.032-.1-.0591-.2019-.0813-.3047-.0126-.058-.0162-.13-.0346-.1861.0265.0806.0235.21.009.0466a4.359,4.359,0,0,1,.0047-.63c.0069-.1248-.05.2575-.0054.0472.0109-.0514.0195-.1032.0311-.1545a3.3885,3.3885,0,0,1,.0952-.3335L84.46,83.5259a.9482.9482,0,0,1,.0019.1227l.0223-.1444a.9749.9749,0,0,0-.0461.1776q.0907-.2.04-.097-.02.0419-.044.0818l-.0327.0527q-.0912.13.0443-.0535a1.65,1.65,0,0,0-.1325.135c-.1229.1279.1223-.0744.0229-.0152-.1136.0677-.2249.1315-.3415.1939-.1087.0582.2-.0718.0268-.0107-.0633.0223-.1257.0468-.1895.0675-.0671.0218-.1346.0381-.2023.0576q-.1347.0255-.0042.0066.1306-.0143-.0049-.0035-.1356-.0054-.0049.0113.123.0224.01-.0005c-.1718-.0615.2072.1116.035.0163-.1481-.0819.14.1151.0538.0367q-.0778-.0846.0763.095.0871.24.0451.0882a1,1,0,0,0-1.9285.5317,1.6552,1.6552,0,0,0,1.1867,1.1606,2.4884,2.4884,0,0,0,1.55-.1758,3.0727,3.0727,0,0,0,1.235-.8044,2.23,2.23,0,0,0,.58-1.53,1.0016,1.0016,0,0,0-1.9643-.2658,4.2836,4.2836,0,0,0,.3639,3.45,1.0061,1.0061,0,0,0,1.8277-.2389,4.8694,4.8694,0,0,0-.5177-3.97,1.01,1.01,0,0,0-1.5706-.2024,3.8634,3.8634,0,0,0-.7465,2.1749c-.1115.7967-.1931,1.5946-.2249,2.3987a1.0077,1.0077,0,0,0,1,1,1.0221,1.0221,0,0,0,1-1,4.5332,4.5332,0,0,0-.1974-1.9077,1.7622,1.7622,0,0,0-.37-.6452,1.1349,1.1349,0,0,0-1.1069-.2844,1.3412,1.3412,0,0,0-.9011,1.1282,1.6116,1.6116,0,0,0,1.4531,1.782,2.2967,2.2967,0,0,0,1.97-.6887,1.5414,1.5414,0,0,0-.2762-2.37,2.634,2.634,0,0,0-2.031-.3055,2.9625,2.9625,0,0,0-1.73.9649,2.0032,2.0032,0,0,0-.4822,1.1945,1.3937,1.3937,0,0,0,.6763,1.2558,1.6244,1.6244,0,0,0,1.4541-.024,4.2394,4.2394,0,0,0,1.14-.6428,2.1437,2.1437,0,0,0,.7185-2.2954,1.0421,1.0421,0,0,0-.6985-.6984,1.0143,1.0143,0,0,0-.9729.2571c-.1962.1876-.3924.3753-.5976.5532-.0512.0443-.1028.0882-.1552.1311-.0266.0219-.1868.1332-.058.0478.1328-.088-.0639.0439-.09.0618q-.0834.0581-.1692.1121a3.6025,3.6025,0,0,1-.326.1829q-.0458.0228-.0925.0436-.1026.0464.0822-.0343a1.1456,1.1456,0,0,0-.1922.0676c-.0646.02-.13.0379-.196.0532l-.066.0142q-.1653.029.0662-.0041a2.1439,2.1439,0,0,1-.4039.0084,1.0061,1.0061,0,0,0-1,1,1.023,1.023,0,0,0,1,1Z" style="fill:#8c5850"/><path d="M75.6908,86.0748a5.6316,5.6316,0,0,0,4.72-2.3329h-1.727c.0959.1431-.0489-.1745-.0176-.0607q.018.0789-.0064-.0487a.35.35,0,0,1,.0117-.2267.4.4,0,0,0-.03.1134l.054-.1315q-.0625.0987.0089.0038c.1157-.1094-.0446.0426-.0548.0524-.0209.02-.0942.0643-.1023.09.0193-.0621.1566-.1158.01-.0125-.0495.0348-.1.0688-.15.1031q-.6171.4236-1.2344.8469a1,1,0,1,0,1.0094,1.7269,6.79,6.79,0,0,0,1.1328-.8046,5.3618,5.3618,0,0,0,.4208-.4063q.0938-.1009.1822-.2066c.0368-.044.0724-.0889.1082-.1338.1892-.2375-.0908.1843-.491.1553l-.5047-.1365a.6363.6363,0,0,1-.2837-.3725c.002.0155.0515.1266.04.14l-.0223-.1693a.6236.6236,0,0,1,0,.0937l.02-.18a.783.783,0,0,1,.5362-.5343l1.23.6984c-.0252-.0687-.049-.1371-.0681-.2078a1.2087,1.2087,0,0,0-.0463-.2138l.0171.1212q-.0067-.0726-.0086-.1456c-.0018-.073.0014-.1457.0059-.2186l-1.8635.5047c.0321.0523.1394.1842.1348.2466q-.08-.1975-.0219-.0433.0175.05.0318.1005c.0112.0382.0775.2082.0556.24q-.0269-.2249-.0107-.0565.0048.07.0048.1406a1,1,0,1,0,2,0,3.2268,3.2268,0,0,0-.4675-1.6369,1.0186,1.0186,0,0,0-1.1293-.46,1.0428,1.0428,0,0,0-.7341.9643,2.9888,2.9888,0,0,0,.1714,1.1963,1.0153,1.0153,0,0,0,1.23.6984A1.3533,1.3533,0,0,0,80.72,83.926a1.2469,1.2469,0,0,0-1.66-1.0267c-.43.1814-.6924.6548-1.0295.9659q-.1138.1051-.2336.2036c-.0214.0176-.1461.1165-.0337.0287s-.0139.0087-.0366.025a5.6336,5.6336,0,0,1-.5525.3493l1.0094,1.7269c.5768-.3957,1.1794-.77,1.7254-1.2076a1.737,1.737,0,0,0,.5029-2.2587,1.0275,1.0275,0,0,0-.8635-.4953,1.05,1.05,0,0,0-.8635.4953c.0284-.0377.1255-.1548.0413-.054-.0268.032-.053.0643-.08.096q-.0917.1065-.19.2071a4.5112,4.5112,0,0,1-.369.3371c-.024.02-.1393.1143-.0217.0185.1256-.1024-.0207.0123-.05.0328q-.1024.0717-.2088.138a4.7249,4.7249,0,0,1-.4664.2553c-.0377.0179-.0762.0342-.1138.0523-.1175.0567.1887-.0719.0658-.028-.0786.0281-.1558.06-.2349.0863a4.6406,4.6406,0,0,1-.5124.141c-.0816.0175-.1636.0316-.2458.0457-.1383.0237.0379-.0114.08-.01a1.1883,1.1883,0,0,0-.1244.0125,4.5707,4.5707,0,0,1-.5625.0122,1.008,1.008,0,0,0-1,1,1.0207,1.0207,0,0,0,1,1Z" style="fill:#8c5850"/><path d="M95.3993,83.74c-1.7106-.5142-4.9567-3.0675-5.7081-3.3078l-.858-6.7584a22.5229,22.5229,0,0,1,4.749-4.3968,2.8868,2.8868,0,0,1,4,1.0134,15.3734,15.3734,0,0,1,1.442,11.4782A2.8867,2.8867,0,0,1,95.3993,83.74Z" style="fill:#d1a979"/><path d="M89.5974,75.4463A19.75,19.75,0,0,0,92.59,72.2284l-3.078,2.5355Z" style="fill:#aa7e66"/><path d="M90.0121,78.7473a19.754,19.754,0,0,1,3.6952,2.3778L90.0978,79.43Z" style="fill:#aa7e66"/><path d="M89.726,76.47a3.7283,3.7283,0,0,0,2.1272-1.8269,6.5642,6.5642,0,0,1-2.1915,1.3151Z" style="fill:#aa7e66"/><path d="M89.8835,77.7238a3.7278,3.7278,0,0,1,2.513,1.2439,6.5632,6.5632,0,0,0-2.4487-.7321Z" style="fill:#aa7e66"/><path d="M93.54,76.48a29.3972,29.3972,0,0,1-3.6728.2838l.08.64S91.557,76.9746,93.54,76.48Z" style="fill:#aa7e66"/><path d="M83.0077,85.2964c1.53-.9214,4.04-4.0989,4.7195-4.5607l-.799-6.43c-.7288-.5-4.027-2.9576-5.7376-3.4717a2.8865,2.8865,0,0,0-3.6251,1.9714,15.3732,15.3732,0,0,0,1.442,11.4781A2.8867,2.8867,0,0,0,83.0077,85.2964Z" style="fill:#efd68f"/><path d="M86.5778,75.8257a19.75,19.75,0,0,1-3.6953-2.3778l3.61,1.6954Z" style="fill:#dbb87f"/><path d="M86.9925,79.1267A19.75,19.75,0,0,0,84,82.3446l3.0779-2.5355Z" style="fill:#dbb87f"/><path d="M86.7064,76.8493a3.7283,3.7283,0,0,1-2.513-1.2439,6.5629,6.5629,0,0,0,2.4487.732Z" style="fill:#dbb87f"/><path d="M86.8639,78.1031A3.7283,3.7283,0,0,0,84.7367,79.93a6.5642,6.5642,0,0,1,2.1915-1.3151Z" style="fill:#dbb87f"/><path d="M83.0138,77.8027a29.3849,29.3849,0,0,0,3.6288-.6335l.08.64S85.0572,77.7913,83.0138,77.8027Z" style="fill:#dbb87f"/><path d="M88.78,81.13a1.34,1.34,0,0,1-.2.01,1.1366,1.1366,0,0,1-.37-.03,1.9208,1.9208,0,0,1-1.59-1.65l-.48-3.86a1.9059,1.9059,0,0,1,1.33-2.07c.02-.01.03-.02.05-.02a.9474.9474,0,0,1,.29-.07,1.9789,1.9789,0,0,1,2.16,1.68l.48,3.86A1.9245,1.9245,0,0,1,88.78,81.13Z" style="fill:#af472c"/><path d="M88.78,81.13a1.34,1.34,0,0,1-.2.01,6.3181,6.3181,0,0,0,.25-2.93c-.25-1.72-.43-3.67-1.36-4.68.02-.01.03-.02.05-.02a.9474.9474,0,0,1,.29-.07,1.9789,1.9789,0,0,1,2.16,1.68l.48,3.86A1.9245,1.9245,0,0,1,88.78,81.13Z" style="fill:#7f352f"/></svg>