<svg id="Gooloos" xmlns="http://www.w3.org/2000/svg" width="150" height="150" viewBox="0 0 150 150"><path d="M73.855,92.08c-8.28,3.46-16.45,4.63-22.45,3.65-4.4-.72-7.63-2.59-8.88-5.58-2.65-6.33,4.51-15.5,16.38-21.66a13.753,13.753,0,0,0-2.64-1.16,13.486,13.486,0,0,0-4.75-.77c-.15.01-.15-.23,0-.24a13.7906,13.7906,0,0,1,4.93.81,14.9687,14.9687,0,0,1,2.7,1.24c1.29-.66,2.63-1.29,4.02-1.87,7.69-3.21,15.28-4.46,21.13-3.83,5.07.53,8.83,2.48,10.2,5.75C97.455,75.49,88.205,86.08,73.855,92.08Z" style="fill:#a97cc4"/><path d="M73.855,92.08c-8.28,3.46-16.45,4.63-22.45,3.65,15.12-3.08,32.54-16.58,35.94-24.1,2.21-4.9-.27-7.55-3.05-8.96,5.07.53,8.83,2.48,10.2,5.75C97.455,75.49,88.205,86.08,73.855,92.08Z" style="fill:#7767a8"/></svg>