<svg id="Gooloos" xmlns="http://www.w3.org/2000/svg" width="150" height="150" viewBox="0 0 150 150"><rect x="49.13" y="69.1" width="51.74" height="18.84" style="fill:#c19e67"/><path d="M100.87,69.1V87.94H94.9c-3.26-.57-6.19-1.24-6.19-1.24L85.3,83.34V69.1Z" style="fill:#a0795c"/><path d="M101.37,80.0424l-.0012-.009Z" style="fill:#db632e"/><rect x="48.04" y="83.34" width="53.92" height="4.6" style="fill:#896b45"/><path d="M101.96,83.34v4.6H87.03c-1.29-.36-2.1-.59-2.1-.59V83.34Z" style="fill:#634435"/><path d="M125.48,88.33c0,.45-15.87.83-37.42.95-4.17.02-8.54.03-13.06.03-27.88,0-50.48-.44-50.48-.98s22.6-.98,50.48-.98c4.55,0,8.97.01,13.16.03C109.66,87.5,125.48,87.88,125.48,88.33Z" style="fill:#c19e67"/><path d="M125.48,88.33c0,.45-15.87.83-37.42.95l.1-1.9C109.66,87.5,125.48,87.88,125.48,88.33Z" style="fill:#a0795c"/><path d="M94.9761,79.4062l3.1533-3.617a23.4034,23.4034,0,0,0-1.417-4.68l-1.7363,2.46s.73-1.6591,1.4138-3.2185a32.5714,32.5714,0,0,0-1.8628-3.6294,32.1526,32.1526,0,0,0-1.7229,3.3158l.9932,2.0166-1.3251-1.2577A27.244,27.244,0,0,0,91.36,73.9194l1.82,2.68-2.1444-1.3785A13.7666,13.7666,0,0,0,90.71,78.059c0,5.1616,1.7089,7.3532,3.8169,7.3532s3.8169-2.1916,3.8169-7.3532c0-.1019-.002-.2043-.0049-.3069Z" style="fill:#e2cf9c"/><path d="M97.3187,80.9767l4.6563-1a21.5231,21.5231,0,0,0,1.3344-3.4942l-3.204,1.0739s1.8815-1.0862,3.4583-2a33.3224,33.3224,0,0,0,.8946-5.0752A31.3622,31.3622,0,0,0,101.5351,71.9l-.5645,3.1911-.1869-2.7689a25.6573,25.6573,0,0,0-4.1388,2.9243l.48,2.9571-.9643-2.5107a13.0189,13.0189,0,0,0-1.4857,1.6752c-3.0523,4.1623-2.97,6.94-1.27,8.1868s4.374.49,7.4263-3.6725c.2-.2724.3887-.5581.5677-.8539Z" style="fill:#e0c67c"/><circle cx="94.1366" cy="85.0699" r="2.5752" style="fill:#4c2e19"/><path d="M96.1025,83.9647c.2721.592.1745,1.2181-.2179,1.3985s-.9312-.1532-1.2033-.7452-.1746-1.2181.2179-1.3985S95.83,83.3728,96.1025,83.9647Z" style="fill:#846d51"/></svg>