<svg id="Gooloos" xmlns="http://www.w3.org/2000/svg" width="150" height="150" viewBox="0 0 150 150"><path d="M122.27,85.34c0,3.74-12.3,6.94-29.71,8.25-5.43.42-11.35.64-17.56.64-26.1,0-47.27-3.98-47.27-8.89,0-3.53,10.94-6.58,26.78-8.02,6.2-.56,13.15-.87,20.49-.87q3.675,0,7.2.1c5.31.15,10.34.47,14.91.93C112.08,78.97,122.27,81.93,122.27,85.34Z" style="fill:#d1af5d"/><path d="M88.981,60.2085c0,1.5318-5.7581,5.5066-12.8611,5.5066S63.2587,61.74,63.2587,60.2085s5.7581-2.36,12.8612-2.36S88.981,58.6766,88.981,60.2085Z" style="fill:#9e783f"/><path d="M98.87,81.24c-1.69,2.09-9.25,3.23-17.82,3.53-11.97.4-25.9-.85-28.56-3.5l2.02-3.95,8.75-17.15c1.96.91,3.99,1.24,5.65,2.15,7.11,3.87,7.11,3.87,13.57.25,1.89-1.06,4.26-1.34,6.53-2.4l8.1,17.31Z" style="fill:#d1af5d"/><path d="M82.05,77.92c-.45,4.11-1,6.85-1,6.85-11.97.4-25.9-.85-28.56-3.5l2.91-5.7C65.7,77.91,73.45,78.69,82.05,77.92Z" style="fill:#ba5656"/><path d="M98.87,81.24c-1.69,2.09-9.25,3.23-17.82,3.53,0,0,.55-2.74,1-6.85a106.4121,106.4121,0,0,0,14.17-2.35l.89,1.91Z" style="fill:#72383f"/><path d="M96.22,75.57a106.4121,106.4121,0,0,1-14.17,2.35c.06-.44.1-.9.15-1.37a82.4807,82.4807,0,0,0,.28-13.98c1.89-1.06,4.26-1.34,6.53-2.4Z" style="fill:#9e6a4d"/><path d="M122.27,85.34c0,3.74-12.3,6.94-29.71,8.25.59-3.28-1.09-7.27-11.51-8.82,8.57-.3,16.13-1.44,17.82-3.53l-1.76-3.76C112.08,78.97,122.27,81.93,122.27,85.34Z" style="fill:#9e6a4d"/></svg>