<svg id="Gooloos" xmlns="http://www.w3.org/2000/svg" width="150" height="150" viewBox="0 0 150 150"><path d="M42.9128,96.4378V83.66H41.1346V97.7223a4.2876,4.2876,0,0,0-.7234,2.4438c0,2.1041,1.4008,3.81,3.179,3.81v-7.62A2.6957,2.6957,0,0,0,42.9128,96.4378Z" style="fill:#aa6e53"/><path d="M109.5888,100.1627c0,2.11-1.39,3.81-3.17,3.81v-7.62a2.8676,2.8676,0,0,1,.68.09v-12.78h1.78v14.11A4.2665,4.2665,0,0,1,109.5888,100.1627Z" style="fill:#aa6e53"/><path d="M107.0846,104.3955a.34.34,0,0,0-.4033.2383c-1.2888,5.43-5.2958,9.5236-11.91,12.167a37.6032,37.6032,0,0,1-8.904,2.2782c-.4319-.5907-1.8123-1.023-3.45-1.023-1.9831,0-3.5907.6338-3.5907,1.4156s1.6076,1.4156,3.5907,1.4156c1.7884,0,3.2709-.5155,3.5449-1.19a38.383,38.383,0,0,0,9.0607-2.316,24.3832,24.3832,0,0,0,7.4731-4.5164,15.7763,15.7763,0,0,0,4.8466-8.0973A.3131.3131,0,0,0,107.0846,104.3955Z" style="fill:#343434"/><path d="M109.5888,100.1627c0,2.11-1.39,3.81-3.17,3.81a14.3166,14.3166,0,0,0,1.35-5.01c.3-3.93.07-11.35.07-11.35s.43.09,1.04.22v9.94A4.2665,4.2665,0,0,1,109.5888,100.1627Z" style="fill:#663c34"/><polygon points="42.362 89.781 42.147 100.501 43.59 95.993 43.59 88.563 42.362 89.781" style="fill:#663c34"/><path d="M75.0058,56.62c-19.0469,0-34.4875,14.2385-34.4875,31.8026a1.973,1.973,0,0,0,1.8441,1.3578A1.8333,1.8333,0,0,0,44.18,88.4228c0-15.6993,13.8013-26.0055,30.826-26.0055s30.8261,10.3062,30.8261,26.0055a1.973,1.973,0,0,0,1.8441,1.3578,1.8333,1.8333,0,0,0,1.8174-1.3578C109.4934,70.8587,94.0528,56.62,75.0058,56.62Z" style="fill:#343434"/><path d="M49.1187,91.7727v16.78a6.7666,6.7666,0,0,1-5.95-3.99,9.61,9.61,0,0,1-1.03-4.4c0-4.06,2.37-7.45,5.58-8.22A5.8971,5.8971,0,0,1,49.1187,91.7727Z" style="fill:#b5844e"/><path d="M49.1187,91.7727v16.78a6.7666,6.7666,0,0,1-5.95-3.99c1.7-.42,4.1-2.79,4.55-12.62A5.8971,5.8971,0,0,1,49.1187,91.7727Z" style="fill:#995e44"/><path d="M107.8388,100.1627c0,4.55-2.96,8.24-6.75,8.38a1.695,1.695,0,0,1-.23.01v-16.78a6.8373,6.8373,0,0,1,6.06,4.22A9.6308,9.6308,0,0,1,107.8388,100.1627Z" style="fill:#b5844e"/><path d="M107.8388,100.1627c0,4.55-2.96,8.24-6.75,8.38-.08-.12-.15-.23-.23-.34v-4.61c2.05-.69,4.78-2.56,6.06-7.6A9.6308,9.6308,0,0,1,107.8388,100.1627Z" style="fill:#995e44"/><path d="M101.9335,108.7361a1.1306,1.1306,0,0,1-1.1736,1.0822h-.0239a1.1306,1.1306,0,0,1-1.1735-1.0822V91.77a1.1306,1.1306,0,0,1,1.1735-1.0822h.0239a1.1306,1.1306,0,0,1,1.1736,1.0822Z" style="fill:#343434"/><path d="M50.3645,108.7361a1.1306,1.1306,0,0,1-1.1735,1.0822h-.024a1.1306,1.1306,0,0,1-1.1735-1.0822V91.77a1.1306,1.1306,0,0,1,1.1735-1.0822h.024A1.1306,1.1306,0,0,1,50.3645,91.77Z" style="fill:#343434"/></svg>