<svg id="Gooloos" xmlns="http://www.w3.org/2000/svg" width="150" height="150" viewBox="0 0 150 150"><path d="M52.95,86.9513l-2.3623-.8945S32.3981,89.0892,29.9,94.2414h0c2.0391-.4934,3.3758,1.0709,4.5452,1.1486,4.5979.3055,16.6188-7.9724,16.6188-7.9724Z" style="fill:#b54856"/><path d="M98.9083,87.5a87.702,87.702,0,0,0-12.18-2.24,103.4262,103.4262,0,0,0-35.69,2.24c-2.45-2.44,5.71-22.7,24.18-22.7q1.035,0,2.04.09C93.7484,66.33,101.4483,84.96,98.9083,87.5Z" style="fill:#d3535f"/><path d="M98.9083,87.5a87.702,87.702,0,0,0-12.18-2.24,7.0037,7.0037,0,0,0,.76-1.6V78.28s.5-5.92-10.23-13.39C93.7484,66.33,101.4483,84.96,98.9083,87.5Z" style="fill:#91445c"/></svg>