<svg id="Gooloos" xmlns="http://www.w3.org/2000/svg" width="150" height="150" viewBox="0 0 150 150"><path d="M95.98,134.46s-5.29,14.69-12.26,15.59c-.03,0-.05.01-.08.01a.9852.9852,0,0,1-.17.02,2.715,2.715,0,0,1-.28.01,2.3764,2.3764,0,0,1-.99-.13c-2.57-.68-4.13-4.14-4.43-5.36a8.7808,8.7808,0,0,0-.37-1.01v-.01a5.8857,5.8857,0,0,0-.56-1.03,2.1946,2.1946,0,0,0-1.58-.7c-4.27.44-2.09,8.74-8.58,7.59a3.5888,3.5888,0,0,1-.35-.08c-3.25-.76-6.06-4.12-8.12-7.46a46.62,46.62,0,0,1-3.68-7.44Z" style="fill:#2e4a66"/><path d="M75.26,141.85c-4.27.44-2.09,8.74-8.58,7.59a3.5888,3.5888,0,0,1-.35-.08c1.1-.07,2.42-3.03,3.71-6.02C71.35,140.33,75.26,141.85,75.26,141.85Z" style="fill:#14163f"/><path d="M95.98,134.46H54.53a46.62,46.62,0,0,0,3.68,7.44c1.22-1.1,3.76-2.19,9-1.98,8.1076.32,12.8426.11,14.424.0123a4.9446,4.9446,0,0,1,2.4635,1.1151c.8569,1.0647,1.4366,3.1067.2623,6.9595a9.1978,9.1978,0,0,1-1.17,2.0831,2.715,2.715,0,0,0,.28-.01.9852.9852,0,0,0,.17-.02c.03,0,.05-.01.08-.01l.003-.0047C90.6917,149.1381,95.98,134.46,95.98,134.46Z" style="fill:#14163f"/></svg>