<svg id="Camada_1" data-name="Camada 1" xmlns="http://www.w3.org/2000/svg" viewBox="0 0 150 150"><defs><style>.cls-1,.cls-2{fill:#001a2b;}.cls-1{stroke:#001a2b;stroke-miterlimit:10;}.cls-3{fill:#fd7780;}</style></defs><ellipse class="cls-1" cx="90" cy="107.07" rx="8.51" ry="0.53"/><ellipse class="cls-1" cx="60" cy="107.07" rx="8.51" ry="0.53"/><ellipse class="cls-1" cx="60.88" cy="107.07" rx="6.27" ry="0.39"/><ellipse class="cls-1" cx="89.05" cy="107.07" rx="6.27" ry="0.39"/><path class="cls-1" d="M58.38,106.74c1.08,0,1.78.07,1.57.14a14.06,14.06,0,0,1-2.32.1c-1.07,0-1.78-.08-1.57-.15A14.67,14.67,0,0,1,58.38,106.74Z"/><path class="cls-1" d="M86.55,106.74c1.08,0,1.78.07,1.57.14a14.06,14.06,0,0,1-2.32.1c-1.07,0-1.78-.08-1.57-.15A14.67,14.67,0,0,1,86.55,106.74Z"/><path class="cls-2" d="M96.41,104.61a5.42,5.42,0,0,1,.31,1.69h0a9.42,9.42,0,0,0-1.6-.1A3,3,0,0,0,96.41,104.61Z"/><path class="cls-2" d="M98.87,105.17l-.12,1.71a8.56,8.56,0,0,0-1.56-.49A3.1,3.1,0,0,0,98.87,105.17Z"/><path class="cls-2" d="M53.62,104.55a5.39,5.39,0,0,0-.32,1.69h0a8.5,8.5,0,0,1,1.6-.09A3,3,0,0,1,53.62,104.55Z"/><path class="cls-2" d="M51.15,105.11l.12,1.7a9.49,9.49,0,0,1,1.57-.48A3.11,3.11,0,0,1,51.15,105.11Z"/><ellipse class="cls-3" cx="60.68" cy="115.37" rx="4.89" ry="2.39"/><ellipse class="cls-3" cx="89.31" cy="115.37" rx="4.89" ry="2.39"/></svg>