<svg id="Camada_1" data-name="Camada 1" xmlns="http://www.w3.org/2000/svg" width="150" height="150" viewBox="0 0 150 150"><path d="M92.09,78.5144c-.26,3.57-.57,6.38-.74,7.81-10.16,1.12-27.03,2.07-41.88-1.3l-.4-4.18-3.18-33.44c5.9-5.9,25.12-7.95,40.26-6.13C93.1294,47.4944,92.9094,66.9644,92.09,78.5144Z" style="fill:#353435"/><path d="M92.09,78.5144c-.26,3.57-.57,6.38-.74,7.81-10.16,1.12-27.03,2.07-41.88-1.3l-.4-4.18C58.8494,77.0444,77.4794,76.3244,92.09,78.5144Z" style="fill:#c14854"/><path d="M106.4094,87.2244c-1.05,1.06-4.15,1.81-5.63,1.94-3.31.3-7.47.51-12.06.65-13.29.4-30.12.14-39.7-.65-1.44-.12-4.62-.75-5.43-1.94-1.08-1.58-.55-4.43,0-4.81,1.18-.84,4.07,1.58,5.48,1.94,9.63,2.47,26.92,3.1,40.22,1.86a73.2345,73.2345,0,0,0,11.6-1.86c1.41-.38,4.32-2.79,5.52-1.94C106.9494,82.7944,107.4994,86.1144,106.4094,87.2244Z" style="fill:#353435"/><path d="M104.1794,47.4044l-3.15,32.98h-.01a72.4784,72.4784,0,0,0-8.93-1.87c.82-11.55,1.04-31.02-5.94-37.24C94.1694,42.2344,101.0494,44.2744,104.1794,47.4044Z" style="fill:#222223"/><path d="M101.02,80.3844l-.44,4.65s-3.58.67-9.23,1.29c.17-1.43.48-4.24.74-7.81A72.4784,72.4784,0,0,1,101.02,80.3844Z" style="fill:#893044"/><path d="M106.4094,87.2244c-1.05,1.06-4.15,1.81-5.63,1.94-3.31.3-7.47.51-12.06.65l.57-3.6a73.2345,73.2345,0,0,0,11.6-1.86c1.41-.38,4.32-2.79,5.52-1.94C106.9494,82.7944,107.4994,86.1144,106.4094,87.2244Z" style="fill:#222223"/></svg>