<svg id="Gooloos" xmlns="http://www.w3.org/2000/svg" width="150" height="150" viewBox="0 0 150 150"><path d="M61.9675,101.816h0a6.0159,6.0159,0,0,0-8.14-2.39c-12.9958,8.9827-17.1827,17.8458-16.8961,23.7511.451,9.29,11.3225,10.1835,14.3175-1.1148,1.2432-4.69,2.6986-11.2993,10.7183-20.2467Z" style="fill:#a54676;fill-rule:evenodd"/><path d="M41.83,110.4238c-3.7165,4.88-5.0653,9.3176-4.8985,12.7537.2194,4.5222,2.9082,7.0539,5.9557,7.1591a18.5319,18.5319,0,0,0,2.2971-9.1631,17.71,17.71,0,0,0-3.3543-10.75Z" style="fill:#ce7489;fill-rule:evenodd"/><path d="M88.0324,101.816h0a6.016,6.016,0,0,1,8.14-2.39c12.9958,8.9827,17.1828,17.8458,16.8962,23.7511-.4511,9.29-11.3225,10.1835-14.3176-1.1148-1.2432-4.69-2.6986-11.2993-10.7183-20.2467Z" style="fill:#a54676;fill-rule:evenodd"/><path d="M108.17,110.4238c3.7166,4.88,5.0654,9.3176,4.8986,12.7537-.22,4.5222-2.9083,7.0539-5.9557,7.1591a18.5309,18.5309,0,0,1-2.2972-9.1631,17.71,17.71,0,0,1,3.3543-10.75Z" style="fill:#ce7489;fill-rule:evenodd"/></svg>