<svg id="Camada_1" data-name="Camada 1" xmlns="http://www.w3.org/2000/svg" viewBox="0 0 150 150"><defs><style>.cls-1{fill:#0c0c0c;}.cls-2{fill:#353435;}.cls-3{fill:#c14854;}.cls-4{fill:#222223;}.cls-5{fill:#893044;}</style></defs><path class="cls-1" d="M43.65,82.48c13.15,8.67,54.48,8.67,62.82,0,0,0,4.87,8.67-13.77,18.84-8,4.37-28.29,3.9-36.55,0C38.54,93,43.65,82.48,43.65,82.48Z"/><path class="cls-2" d="M92.09,78.51c-.26,3.57-.57,6.38-.74,7.81-10.16,1.12-27,2.07-41.88-1.3l-.4-4.18L45.89,47.4c5.9-5.9,25.12-7.95,40.26-6.13C93.13,47.49,92.91,67,92.09,78.51Z"/><path class="cls-3" d="M92.09,78.51c-.26,3.57-.57,6.38-.74,7.81-10.16,1.12-27,2.07-41.88-1.3l-.4-4.18C58.85,77,77.48,76.32,92.09,78.51Z"/><path class="cls-2" d="M106.41,87.22c-1,1.06-4.15,1.81-5.63,1.94-3.31.3-7.47.51-12.06.65-13.29.4-30.12.14-39.7-.65-1.44-.12-4.62-.75-5.43-1.94-1.08-1.58-.55-4.43,0-4.81,1.18-.84,4.07,1.58,5.48,1.94,9.63,2.47,26.92,3.1,40.22,1.86a73.23,73.23,0,0,0,11.6-1.86c1.41-.38,4.32-2.79,5.52-1.94C107,82.79,107.5,86.11,106.41,87.22Z"/><path class="cls-4" d="M104.18,47.4l-3.15,33h0a72.47,72.47,0,0,0-8.93-1.87c.82-11.55,1-31-5.94-37.24C94.17,42.23,101.05,44.27,104.18,47.4Z"/><path class="cls-5" d="M101,80.38,100.58,85s-3.58.67-9.23,1.29c.17-1.43.48-4.24.74-7.81A72.47,72.47,0,0,1,101,80.38Z"/><path class="cls-4" d="M106.41,87.22c-1,1.06-4.15,1.81-5.63,1.94-3.31.3-7.47.51-12.06.65l.57-3.6a73.23,73.23,0,0,0,11.6-1.86c1.41-.38,4.32-2.79,5.52-1.94C107,82.79,107.5,86.11,106.41,87.22Z"/></svg>