<svg id="Camada_1" data-name="Camada 1" xmlns="http://www.w3.org/2000/svg" viewBox="0 0 150 150"><defs><style>.cls-1{fill:#a97cc4;}.cls-2{fill:#7767a8;}</style></defs><path class="cls-1" d="M73.86,92.08c-8.28,3.46-16.45,4.63-22.45,3.65-4.4-.72-7.63-2.59-8.88-5.58C39.88,83.82,47,74.65,58.91,68.49a13.75,13.75,0,0,0-2.64-1.16,13.48,13.48,0,0,0-4.75-.77c-.15,0-.15-.23,0-.24a13.79,13.79,0,0,1,4.93.81,15,15,0,0,1,2.7,1.24c1.29-.66,2.63-1.29,4-1.87C70.86,63.29,78.45,62,84.3,62.67c5.07.53,8.83,2.48,10.2,5.75C97.46,75.49,88.21,86.08,73.86,92.08Z"/><path class="cls-2" d="M73.86,92.08c-8.28,3.46-16.45,4.63-22.45,3.65C66.53,92.65,84,79.15,87.35,71.63c2.21-4.9-.27-7.55-3-9,5.07.53,8.83,2.48,10.2,5.75C97.46,75.49,88.21,86.08,73.86,92.08Z"/></svg>