<svg id="Camada_1" data-name="Camada 1" xmlns="http://www.w3.org/2000/svg" viewBox="0 0 150 150"><path d="M65.6709,65.2275q-.878.3006-1.7405.6432a4.3521,4.3521,0,0,1-5.3986-1.8493L55.59,58.3668c-1.0347-1.8948.2923-4.6215,3.086-5.7285q1.1792-.468,2.38-.88c2.8425-.9768,5.6235.2337,6.07,2.3445q.7217,3.1042,1.4431,6.2084A4.3517,4.3517,0,0,1,65.6709,65.2275Z" style="fill:#d186ac"/><path d="M84.404,66.2635q-.81-.4519-1.6419-.8644a4.3522,4.3522,0,0,1-2.2334-5.2513q1.12-2.9839,2.2391-5.9677c.7176-2.0362,3.6327-2.872,6.3235-1.5342q1.1362.564,2.2449,1.1819c2.6267,1.461,3.5855,4.3386,2.3141,6.0817l-3.6528,5.2234A4.3514,4.3514,0,0,1,84.404,66.2635Z" style="fill:#d186ac"/><path d="M103.4854,93.8124c-3.01.47-5.93.88-8.79,1.21a166.3988,166.3988,0,0,1-47.77-1.21c2.16-6.37,1.88-12.76,3.81-19.18,2.9-8.97,13.17-14.54,24.26-14.59a32.2771,32.2771,0,0,1,7.66.94,28.0482,28.0482,0,0,1,7.55,3.01,19.4436,19.4436,0,0,1,9.06,10.64C101.1954,81.0524,101.3355,87.4424,103.4854,93.8124Z" style="fill:#d186ac"/><path d="M94.6954,95.0223c.72-7.48.79-24.7-12.04-34.04a28.0482,28.0482,0,0,1,7.55,3.01,19.4436,19.4436,0,0,1,9.06,10.64c1.93,6.42,2.07,12.81,4.22,19.18C100.4755,94.2823,97.5554,94.6924,94.6954,95.0223Z" style="fill:#aa729d"/><path d="M103.3654,94.1723q-3.78.69-7.69,1.17a166.6276,166.6276,0,0,1-49.05-1.17.981.981,0,0,1-.74-1.27,20.7875,20.7875,0,0,0,.89-9,.97.97,0,0,1,1.09-1.08,192.0122,192.0122,0,0,0,45.95.97c2.73-.26,5.5-.59,8.31-.97a.9759.9759,0,0,1,1.1,1.09,20.6033,20.6033,0,0,0,.89,8.99A.9866.9866,0,0,1,103.3654,94.1723Z" style="fill:#ed96bd"/><path d="M103.3654,94.1723q-3.78.69-7.69,1.17a18.3228,18.3228,0,0,0-1.86-11.54v-.01c2.73-.26,5.5-.59,8.31-.97a.9759.9759,0,0,1,1.1,1.09,20.6033,20.6033,0,0,0,.89,8.99A.9866.9866,0,0,1,103.3654,94.1723Z" style="fill:#c17aaa"/><path d="M91.5992,54.82c.2193,3.6974-2.6745,6.0125-3.58,6.6439-.6177.47-.9.3849-.9.3849l3.2474,1.79c3.05-4.111,3.4491-5.4058,3.4491-5.4058C93.3062,55.28,91.5992,54.82,91.5992,54.82Z" style="fill:#aa729d"/><path d="M61.54,52.1424A9.6991,9.6991,0,0,1,64.3518,60.3c-.0665.8322-.3423.957-.3423.957l3.8287-.7474c-1.1315-5.6313-1.8973-7.0124-1.8973-7.0124C63.16,51.3406,61.54,52.1424,61.54,52.1424Z" style="fill:#aa729d"/></svg>