<svg id="Camada_1" data-name="Camada 1" xmlns="http://www.w3.org/2000/svg" viewBox="0 0 150 150"><path d="M109.4428,93.5147A177.1738,177.1738,0,0,1,85.99,97.8592a99.9285,99.9285,0,0,1-10.9883.6618c-15.2565,0-31.5057-4.2087-34.45-5.0063a.2848.2848,0,0,1-.1272-.4752C54.4331,78.6826,48.51,63.0019,58.1411,54.8475c3.6826-3.114,10.2077-4.7432,16.86-4.8959,1.2388.0254,2.4692.11,3.6741.2376,5.3032.5685,10.1907,2.1213,13.186,4.6583,9.6307,8.1544,3.7081,23.8266,17.7172,38.1836A.2931.2931,0,0,1,109.4428,93.5147Z" style="fill:#bdc178"/><path d="M109.4428,93.5147A177.1738,177.1738,0,0,1,85.99,97.8592c2.2571-3.6826,5.49-10.055,5.4391-16.2492-.0594-8.46-1.0352-24.9381-12.7533-31.4208,5.3032.5685,10.1907,2.1213,13.186,4.6583,9.6307,8.1544,3.7081,23.8266,17.7172,38.1836A.2931.2931,0,0,1,109.4428,93.5147Z" style="fill:#7b8e5b"/><path d="M101.7552,80.1166q-5.142.9291-10.3265,1.4934a151.3315,151.3315,0,0,1-43.1814-1.4934c.3819-2.2486,1.4256-4.5821,1.7989-6.644a149.1557,149.1557,0,0,0,41.077,1.2219q4.4166-.471,8.8331-1.2219C100.33,75.5345,101.3733,77.868,101.7552,80.1166Z" style="fill:#9b995c"/><path d="M101.7552,80.1166q-5.142.9291-10.3265,1.4934s-.0339-4.3784-.3055-6.9155q4.4166-.471,8.8331-1.2219C100.33,75.5345,101.3733,77.868,101.7552,80.1166Z" style="fill:#667549"/><path d="M96.9737,82.6033c-1.2207-.3669-3.537-2.1888-4.0732-2.36L92.2883,75.42a16.07,16.07,0,0,1,3.3888-3.1375,2.06,2.06,0,0,1,2.8544.7231,10.97,10.97,0,0,1,1.029,8.1906A2.06,2.06,0,0,1,96.9737,82.6033Z" style="fill:#c9d696"/><path d="M88.1313,83.7142c1.092-.6574,2.8827-2.9248,3.3678-3.2544l-.57-4.5886a21.4488,21.4488,0,0,0-4.0942-2.4774,2.06,2.06,0,0,0-2.5868,1.4068,10.97,10.97,0,0,0,1.029,8.1905A2.06,2.06,0,0,0,88.1313,83.7142Z" style="fill:#e6ee9c"/><path d="M90.6789,76.9561A14.09,14.09,0,0,1,88.0421,75.26l2.5756,1.21Z" style="fill:#dce775"/><path d="M90.9748,79.3117A14.0931,14.0931,0,0,0,88.84,81.6079l2.1963-1.8092Z" style="fill:#dce775"/><path d="M90.7707,77.6866a2.6609,2.6609,0,0,1-1.7933-.8877,4.6837,4.6837,0,0,0,1.7474.5224Z" style="fill:#dce775"/><path d="M90.8831,78.5813a2.66,2.66,0,0,0-1.518,1.3036,4.6847,4.6847,0,0,1,1.5638-.9384Z" style="fill:#dce775"/><path d="M88.1357,78.3669a20.9727,20.9727,0,0,0,2.59-.452l.0573.4565S89.5938,78.3588,88.1357,78.3669Z" style="fill:#dce775"/><path d="M94.95,74.406a17.0385,17.0385,0,0,1-1.85,2.0789,2.2427,2.2427,0,0,1-.263.2037l-.0678-.4922.1951-.1612Z" style="fill:#dce775"/><path d="M93.4227,79.6414v-.0085l-.2291-.1018-.0679-.4922a2.7294,2.7294,0,0,1,.314.1273,18.1307,18.1307,0,0,1,2.3249,1.57Z" style="fill:#dce775"/><path d="M94.4324,76.12a2.5545,2.5545,0,0,1-1.23,1.1795,1.3952,1.3952,0,0,1-.28.1188l-.0424-.3649a1.1278,1.1278,0,0,0,.2884-.0764A6.33,6.33,0,0,0,94.4324,76.12Z" style="fill:#dce775"/><path d="M94.8228,79.1917a6.5167,6.5167,0,0,0-1.451-.5091.8412.8412,0,0,0-.2885-.0085l-.0424-.3649c.1018.0085.2036.017.297.0339A2.6937,2.6937,0,0,1,94.8228,79.1917Z" style="fill:#dce775"/><path d="M95.6458,77.4268c-1.0521.263-1.96.4921-2.35.6024-.1358.034-.2121.0509-.2121.0509l-.0594-.4582h.2206A21.093,21.093,0,0,0,95.6458,77.4268Z" style="fill:#dce775"/><path d="M93.4227,79.6329v.0085a1.38,1.38,0,0,1-1.171,1.1031,1.249,1.249,0,0,1-.1781.0085,1.3482,1.3482,0,0,1-1.23-.7892,1.0429,1.0429,0,0,1-.1357-.4157l-.0085-.034L90.64,79.022l-.034-.3225-.0424-.3309-.0509-.4073-.034-.3055-.0424-.3393-.0594-.4837L90.368,76.79a1.2286,1.2286,0,0,1,.017-.4328,1.3611,1.3611,0,0,1,1.171-1.1031.8809.8809,0,0,1,.1442-.0084h.0254a1.3513,1.3513,0,0,1,1.2389.7891,1.0429,1.0429,0,0,1,.1357.4157v.034l.0679.4921.034.3225.0424.3224.0509.4073.0425.3139.0339.3395.0679.4836V79.2A1.22,1.22,0,0,1,93.4227,79.6329Z" style="fill:#d4e157"/><path d="M95.7646,80.736l-2.3419-1.0946a1.38,1.38,0,0,1-1.171,1.1031,1.249,1.249,0,0,1-.1781.0085L91.7,75.2461h.0254a1.3513,1.3513,0,0,1,1.2389.7891L94.95,74.406a17.0385,17.0385,0,0,1-1.85,2.0789l.0679.4921a6.33,6.33,0,0,0,1.2643-.857,2.5545,2.5545,0,0,1-1.23,1.1795l.0424.3224a21.093,21.093,0,0,0,2.4013-.1951c-1.0521.263-1.96.4921-2.35.6024l.0425.3139a2.6937,2.6937,0,0,1,1.4849.8486,6.5167,6.5167,0,0,0-1.451-.5091l.0679.4836A18.1307,18.1307,0,0,1,95.7646,80.736Z" style="fill:#c1c652"/></svg>