<svg id="Camada_1" data-name="Camada 1" xmlns="http://www.w3.org/2000/svg" viewBox="0 0 150 150"><path d="M91.8171,87.526c-.48,4.79-7.82,9.53-9.96,10.82-13.85,1.44-30.31-1.56-33.12-8.91h.01c.41-.37,9.65-8.31,26-8.31a47.3136,47.3136,0,0,1,16.91,3.54A16.4282,16.4282,0,0,1,91.8171,87.526Z" style="fill:#212833"/><path d="M91.8171,87.526a113.8626,113.8626,0,0,0-43.07,1.91h-.01a.3125.3125,0,0,0-.07.02c-2.69-2.68,6.28-24.95,26.57-24.95a25.7567,25.7567,0,0,1,3.78.28c9.7,7.05,12.08,15.54,12.64,19.88A16.4282,16.4282,0,0,1,91.8171,87.526Z" style="fill:#334451"/><path d="M101.2672,89.456c-2.06,4.97-10.15,7.92-19.41,8.89,2.14-1.29,9.48-6.03,9.96-10.82A92.7005,92.7005,0,0,1,101.2672,89.456Z" style="fill:#161a23"/><path d="M79.0172,64.786c9.7,7.05,12.08,15.54,12.64,19.88a16.4282,16.4282,0,0,1,.16,2.86,92.7005,92.7005,0,0,1,9.45,1.93h.01C103.9871,86.746,96.0771,67.346,79.0172,64.786Z" style="fill:#2c3042"/></svg>