<svg id="Camada_1" data-name="Camada 1" xmlns="http://www.w3.org/2000/svg" viewBox="0 0 150 150"><defs><style>.cls-1{fill:#25635e;}.cls-2{fill:#3b8c82;}.cls-3{fill:#2d7a76;}.cls-4{fill:#b2dfdb;}</style></defs><path class="cls-1" d="M73.85,91.44s-29.4,10-49.17-.15C13.07,85.31,22.89,79,22.89,79S57.57,78.47,66.4,88C68.75,90.5,73.85,91.44,73.85,91.44Z"/><path class="cls-2" d="M98.45,74.47v0L91,75.17,74.94,76.6,52.39,74.39a17,17,0,0,1,17-16.94l12.1,0c.2,0,.4,0,.6,0A17,17,0,0,1,98.45,74.47Z"/><path class="cls-3" d="M98.45,74.47v0L91,75.17c0-4.41-1.25-11.71-8.9-17.67A17,17,0,0,1,98.45,74.47Z"/><path class="cls-4" d="M52.38,79.37s17.27.92,23,.93,23-.82,23-.82v-5s-17.27.84-23,.82-23-.93-23-.93Z"/><path class="cls-2" d="M94.88,97.06C93.4,97,92,96.9,90.57,96.78c0,0,0,0,0,0C50.72,93.57,46.3,73.91,20.42,81.26,30.58,69.83,75.6,79,94,79c8.2,0,26.6-3.82,32.76,2S138.76,99.15,94.88,97.06Z"/><path class="cls-3" d="M94.88,97.06C93.4,97,92,96.9,90.57,96.78c6.76-1.06,20.31-3.89,20.19-9.33C110.6,80.2,94,79,94,79c8.2,0,26.6-3.82,32.76,2S138.76,99.15,94.88,97.06Z"/></svg>