<svg id="Camada_1" data-name="Camada 1" xmlns="http://www.w3.org/2000/svg" viewBox="0 0 150 150"><path d="M107.75,107.32s-1.96,5.39-3.84,10.7c-.47,1.34-.94,2.68-1.37,3.92-.24.71-.48,1.39-.69,2.02a40.2689,40.2689,0,0,0-1.3,4.24l-1.92-2.19-.03-.03c-.01.15-.03.35-.05.58v.05a12.8385,12.8385,0,0,0-.6568,2.05,13.6346,13.6346,0,0,0-.3266,2.7131c-.08,2.1693.007,4.2359.1005,5.69-.3739.0726-.9214.1779-1.5827.3015-3.6375.68-7.55,1.411-11.3244,1.8057a69.7863,69.7863,0,0,1-9.29.34h-.74c-3.1285.0135-6.514-.0956-10.1187-.3888-3.9421-.32-7.5942-.8162-10.9213-1.4012l-1.6909-.7372a27.691,27.691,0,0,1-.0358-5.5918,13.733,13.733,0,0,0-.0426-4.3259,11.8649,11.8649,0,0,0-.4981-1.8214L49.45,128.2c-.03-.45-.88-3.04-1.99-6.26-2.13-6.17-5.21-14.62-5.21-14.62l5.87-4.03c.92,5.77,2.89,9.94,5.37,12.95v.01l.01.01c.01.01.02.03.04.05a19.7181,19.7181,0,0,0,3.77,3.48c.13.09.27.19.42.29a23.5545,23.5545,0,0,0,5.78,2.66c.23.07.46.14.7.2a27.1777,27.1777,0,0,0,5.33.82q.405.015.9.03c1.15.05,2.56.11,4.29.21v-.01a1.8325,1.8325,0,0,0,.54,0V124c1.73-.1,3.14-.16,4.29-.21q.495-.015.9-.03a27.1777,27.1777,0,0,0,5.33-.82c.24-.06.47-.13.7-.2a23.5545,23.5545,0,0,0,5.78-2.66c.15-.1.29-.2.42-.29a19.7181,19.7181,0,0,0,3.77-3.48c.02-.02.03-.04.04-.05l.01-.01v-.01a21.2994,21.2994,0,0,0,2-2.89,29.3924,29.3924,0,0,0,3.37-10.06Z" style="fill:#5c5c99"/><path d="M53.69,137.72q-.4678-.08-.95-.1725-.7083-.1365-1.3784-.2881A44.7572,44.7572,0,0,0,51.45,126.61v-.05c-.02-.23-.04-.43-.05-.58l-.03.03-1.92,2.19c-.03-.45-.88-3.04-1.99-6.26a61.1376,61.1376,0,0,0,6.52-3.62A52.4178,52.4178,0,0,0,53.69,137.72Z" style="fill:#41275b"/><path d="M101.85,123.96a40.2689,40.2689,0,0,0-1.3,4.24l-1.6278-1.8567A47.8175,47.8175,0,0,0,98.21,137.36c-.63.13-1.27.25-1.9.36a113.174,113.174,0,0,1-11.55,1.45c2.63-1.15,10.29-5.56,12.79-18.79Z" style="fill:#41275b"/><path d="M107.75,107.32s-1.96,5.39-3.84,10.7l-5.4-4.67a29.3924,29.3924,0,0,0,3.37-10.06Z" style="fill:#41275b"/></svg>