<svg id="Camada_1" data-name="Camada 1" xmlns="http://www.w3.org/2000/svg" viewBox="0 0 150 150"><defs><style>.cls-1{fill:#4d395b;}.cls-2{fill:#774f84;}.cls-3{fill:#57446d;}.cls-4{fill:#383049;}.cls-5{fill:#7aafd3;}.cls-6{fill:#6387aa;}.cls-7{fill:#90caf9;}.cls-8{fill:#5ea2d1;}</style></defs><path class="cls-1" d="M89.62,96.84a130.75,130.75,0,0,1-14.62.8c-21,0-38-4.68-38-10.45,0-3.77,7.25-8,18.14-10.55A89.42,89.42,0,0,1,75,74.47,92.34,92.34,0,0,1,85.17,75L86,81.29l.2,1.53C94,89.22,91.78,94.3,89.62,96.84Z"/><path class="cls-2" d="M86,81.29a100.2,100.2,0,0,1-11,.61,108,108,0,0,1-20.57-2l.35-1.7.32-1.52,2.46-11.8a3.87,3.87,0,0,1,3.79-3.08H83.4L85.17,75Z"/><path class="cls-3" d="M95.22,78.16l-.32-1.52-2.46-11.8a3.87,3.87,0,0,0-3.79-3.08H83.4L85.17,75,86,81.29c3.12-.32,6.29-.81,9.55-1.43Z"/><path class="cls-4" d="M113,87.19c0,4.34-9.67,8.08-23.42,9.65,2.16-2.54,4.39-7.62-3.4-14L86,81.29c3.12-.32,6.29-.81,9.55-1.43l-.35-1.7-.32-1.52C105.78,79.15,113,83.42,113,87.19Z"/><path class="cls-5" d="M95.76,79.82l-.19,0A108.85,108.85,0,0,1,75,81.9a108.85,108.85,0,0,1-20.57-2l-.19,0c-.14-.45.15-.9,0-1.35,0-.19.09-.38.26-.35l.23,0a106.61,106.61,0,0,0,40.44,0l.23,0c.17,0,.3.16.26.35C95.61,78.92,95.9,79.37,95.76,79.82Z"/><polygon class="cls-5" points="100.43 100.98 96.49 102.7 87.76 82.56 89.07 81.56 89.94 83.05 94.11 90.18 100.43 100.98"/><path class="cls-6" d="M94.11,90.18a21.27,21.27,0,0,1-5.6-7.62l1.43.49Z"/><path class="cls-5" d="M90.14,81.14c7.07,11.58,20.1,11.68,20.1,11.68l-3.2,4S92,91,88.57,81.79C88.57,81.79,89.92,80.77,90.14,81.14Z"/><path class="cls-7" d="M95,84.4C93.5,84,91.8,82.32,90.7,82.14l0-4.67c1.1-.48,2.78-2.66,4.29-3.32a2.85,2.85,0,0,1,3.58.82,8.41,8.41,0,0,1,0,8.14A3.35,3.35,0,0,1,95,84.4Z"/><path class="cls-7" d="M83.4,85.87c1.52-.65,3.19-2.83,4.29-3.31l0-4.67c-1.09-.18-2.79-1.9-4.31-2.26a3.32,3.32,0,0,0-3.57,1.29,8.39,8.39,0,0,0,0,8.13A2.84,2.84,0,0,0,83.4,85.87Z"/><path class="cls-8" d="M90.59,78.65a24.06,24.06,0,0,0,3.12-2.39c-1,.62-2.08,1.26-3.12,1.9Z"/><path class="cls-8" d="M90.6,81a14.74,14.74,0,0,1,3.15,1.58c-1-.38-2.1-.74-3.14-1.09Z"/><path class="cls-8" d="M90.59,79.37A4.25,4.25,0,0,0,92.76,78a8.76,8.76,0,0,1-2.17,1Z"/><path class="cls-8" d="M90.6,80.26a3,3,0,0,1,2.18.8,6.34,6.34,0,0,0-2.18-.44Z"/><path class="cls-8" d="M94.12,79.27c-2,.23-3.43.31-3.43.31V80S92.23,79.65,94.12,79.27Z"/><path class="cls-8" d="M87.76,79a14.07,14.07,0,0,1-3.15-1.58c1,.38,2.1.74,3.15,1.1Z"/><path class="cls-8" d="M87.77,81.38a22.36,22.36,0,0,0-3.12,2.39c1-.62,2.08-1.26,3.13-1.91Z"/><path class="cls-8" d="M87.76,79.77a3.07,3.07,0,0,1-2.18-.8,6.59,6.59,0,0,0,2.18.44Z"/><path class="cls-8" d="M87.77,80.66A4.25,4.25,0,0,0,85.6,82a8.41,8.41,0,0,1,2.17-1Z"/><path class="cls-8" d="M84.25,80.56A33.53,33.53,0,0,0,87.67,80v.45S86.14,80.52,84.25,80.56Z"/><path class="cls-8" d="M90.23,82.59l-2.07.29c-.42.06-.76-.15-.76-.47,0-1.43,0-2.86,0-4.3,0-.31.33-.62.75-.67l2.08-.3c.41,0,.75.16.76.47l0,4.3A.81.81,0,0,1,90.23,82.59Z"/></svg>