<svg id="Camada_1" data-name="Camada 1" xmlns="http://www.w3.org/2000/svg" viewBox="0 0 150 150"><defs><style>.cls-1{fill:#7a4c7a;}.cls-2{fill:#c17ca7;}.cls-3{fill:#9f6fa3;}.cls-4{fill:#5c4066;}</style></defs><path class="cls-1" d="M80.57,58.34c0,.88-2.51,1.59-5.62,1.59s-5.62-.71-5.62-1.59,2.51-1.58,5.62-1.58S80.57,57.47,80.57,58.34Z"/><path class="cls-2" d="M99.62,82.5s-4.37-3.11-12.87-4.69l-.63,4.52-5.67-.07-11.17-.15-19-.24s-2.25-6.2-2-8.28C49.31,65,56,58.35,74.75,58.35c1.38,0,2.7,0,4,.12,15.34.89,21.79,7.14,23,15.12C102,75.79,99.62,82.5,99.62,82.5Z"/><path class="cls-2" d="M99.62,89.57v0h0c-1.92,4.62-9.39,7.38-18,8.31h-.09a62.9,62.9,0,0,1-15-.24l-.39,0C58.4,96.47,52,93.78,50.37,89.57h0l.05,0c.63-.55,7.25-6,18.86-7.42a45,45,0,0,1,5.47-.33,35.54,35.54,0,0,1,5.7.48A43,43,0,0,1,86,83.51a55,55,0,0,1,6.23,2.24c1.41.6,2.66,1.19,3.72,1.72h0C98.24,88.67,99.62,89.57,99.62,89.57Z"/><path class="cls-3" d="M99.62,82.5s-4.37-3.11-12.87-4.69c0,0,8.23-12-8-19.34,15.34.89,21.79,7.14,23,15.12C102,75.79,99.62,82.5,99.62,82.5Z"/><path class="cls-1" d="M59.5,79.11h-.07A37.3,37.3,0,0,1,62,69.1a20.94,20.94,0,0,1,4.7-7.1A13.19,13.19,0,0,1,75,58.31v.07c-7.16.53-11,6.14-13,10.74A36.94,36.94,0,0,0,59.5,79.11Z"/><path class="cls-1" d="M90.46,79.11a36.94,36.94,0,0,0-2.55-10c-2-4.6-5.79-10.21-13-10.74v-.07A13.24,13.24,0,0,1,83.28,62,21.07,21.07,0,0,1,88,69.1a37.3,37.3,0,0,1,2.56,10Z"/><path class="cls-3" d="M99.62,89.57v0h0c-1.92,4.62-9.39,7.38-18,8.31h-.09a62.9,62.9,0,0,1-15-.24c.81,0,10.84.11,16.69-2.81a9.61,9.61,0,0,0,5.57-9.06l7.14,1.67h0C98.24,88.67,99.62,89.57,99.62,89.57Z"/><path class="cls-1" d="M99.62,82.5v7.09h0l-.79-.34a89.23,89.23,0,0,0-10.06-3.39l-1.54-.38-1.49-.31c-19.68-3.82-33.92,3.6-35.31,4.36l-.05,0h0l-.06,0V81.87c15.94-5.69,28.17-5.6,36.45-4.06C95.25,79.39,99.62,82.5,99.62,82.5Z"/><path class="cls-4" d="M99.62,82.5v7.09h0l-.79-.34a89.23,89.23,0,0,0-10.06-3.39V85.8s-.39-5.35-2-8C95.25,79.39,99.62,82.5,99.62,82.5Z"/></svg>