<svg id="Camada_1" data-name="Camada 1" xmlns="http://www.w3.org/2000/svg" viewBox="0 0 150 150"><defs><style>.cls-1{fill:#2d2d2d;}.cls-2{fill:#0a0a0a;}</style></defs><path class="cls-1" d="M96,134.46s-5.29,14.69-12.26,15.59h-.08l-.17,0h-.28a2.38,2.38,0,0,1-1-.13c-2.57-.68-4.13-4.14-4.43-5.36a8.78,8.78,0,0,0-.37-1h0a5.89,5.89,0,0,0-.56-1,2.19,2.19,0,0,0-1.58-.7c-4.27.44-2.09,8.74-8.58,7.59l-.35-.08c-3.25-.76-6.06-4.12-8.12-7.46a46.62,46.62,0,0,1-3.68-7.44Z"/><path class="cls-2" d="M75.26,141.85c-4.27.44-2.09,8.74-8.58,7.59l-.35-.08c1.1-.07,2.42-3,3.71-6S75.26,141.85,75.26,141.85Z"/><path class="cls-2" d="M96,134.46H54.53a46.62,46.62,0,0,0,3.68,7.44c1.22-1.1,3.76-2.19,9-2,8.11.32,12.84.11,14.42,0a4.94,4.94,0,0,1,2.47,1.12c.85,1.06,1.43,3.1.26,7a9.06,9.06,0,0,1-1.17,2.08h.28l.17,0h.08C90.69,149.14,96,134.46,96,134.46Z"/></svg>