<svg id="Camada_1" data-name="Camada 1" xmlns="http://www.w3.org/2000/svg" viewBox="0 0 150 150"><defs><style>.cls-1{fill:#575757;}.cls-2{fill:#1c1c21;}.cls-3{fill:#3c3c42;}.cls-4{fill:#3f3f3f;}.cls-5{fill:#2b2b2b;}.cls-6{fill:#4f4f4f;}.cls-7{fill:#2c2c30;}</style></defs><path class="cls-1" d="M90,78.56h0l.28,4-9.69-.12h0l-6.86-.08c4.34-1.46,5.35-3.16-5.21-4.56l-1.23-.16c-22.16-2.7-17.6,4.41-17.6,4.41s-5.86-2.1-5.61-4.24c1-8.77,24.63-17.68,30.68-17.68a12.28,12.28,0,0,1,2.15.24C114.9,76.73,90.64,78.52,90,78.56Z"/><path class="cls-2" d="M90,78.56h0l.28,4,.18,2.58.09,1.35A66.54,66.54,0,0,1,100.24,90s0,0,0,0V82.72A32.93,32.93,0,0,0,90,78.56Z"/><path class="cls-3" d="M105.92,77.84c.33,2.26-5.67,4.88-5.67,4.88A32.93,32.93,0,0,0,90,78.56c.63,0,24.89-1.83-13.11-18.16C85,61.85,104.74,69.84,105.92,77.84Z"/><path class="cls-3" d="M67.28,77.67a89.16,89.16,0,0,0-17.6,4.41S45.12,75,67.28,77.67Z"/><path class="cls-4" d="M100.24,90c-2.06,4.94-10.32,7.8-19.61,8.62-1.52.13-3.06.21-4.61.23C64.19,99,52.08,96.06,49.75,90l0,0h0c.58-.5,7.34-6.15,19.27-7.61h.07A45.26,45.26,0,0,1,74.75,82a37.39,37.39,0,0,1,5.83.48h0a50.59,50.59,0,0,1,9.87,2.7l.09,1.35A66.54,66.54,0,0,1,100.24,90Z"/><path class="cls-5" d="M90.46,85.17l-.18-2.58-.28-4a59.46,59.46,0,0,0-22.72-.89,89.16,89.16,0,0,0-17.6,4.41V90l.07,0,0,0h0c1.53-.84,18.26-9.55,40.76-3.42Z"/><path class="cls-6" d="M53.37,91.53c.28-.79,3-1.53,3-1.53s1.77,4.58,15.43,6C55.44,96.42,53.37,91.53,53.37,91.53Z"/><path class="cls-7" d="M100.24,90c-2.06,4.94-10.32,7.8-19.61,8.62-1.52.13-3.06.21-4.61.23l.32-.15c11-5,14.21-12.18,14.21-12.18A66.54,66.54,0,0,1,100.24,90Z"/></svg>