<svg id="Camada_1" data-name="Camada 1" xmlns="http://www.w3.org/2000/svg" viewBox="0 0 150 150"><defs><style>.cls-1{fill:#bdc178;}.cls-2{fill:#7b8e5b;}.cls-3{fill:#9b995c;}.cls-4{fill:#667549;}.cls-5{fill:#c9d696;}.cls-6{fill:#e6ee9c;}.cls-7{fill:#dce775;}.cls-8{fill:#d4e157;}.cls-9{fill:#c1c652;}</style></defs><path class="cls-1" d="M109.44,93.51A175.21,175.21,0,0,1,86,97.86a99.24,99.24,0,0,1-11,.66c-15.26,0-31.5-4.21-34.45-5a.28.28,0,0,1-.13-.47c14-14.36,8.09-30,17.72-38.19C61.82,51.73,68.35,50.1,75,50c1.24,0,2.47.11,3.68.24,5.3.57,10.19,2.12,13.18,4.66C101.49,63,95.57,78.67,109.58,93A.29.29,0,0,1,109.44,93.51Z"/><path class="cls-2" d="M109.44,93.51A175.21,175.21,0,0,1,86,97.86c2.26-3.68,5.49-10.06,5.44-16.25-.06-8.46-1-24.94-12.75-31.42,5.3.57,10.19,2.12,13.18,4.66C101.49,63,95.57,78.67,109.58,93A.29.29,0,0,1,109.44,93.51Z"/><path class="cls-3" d="M101.76,80.12c-3.43.62-6.88,1.11-10.33,1.49a151.39,151.39,0,0,1-43.18-1.49c.38-2.25,1.42-4.59,1.8-6.65a148.83,148.83,0,0,0,41.07,1.22C94.07,74.38,97,74,100,73.47,100.33,75.53,101.37,77.87,101.76,80.12Z"/><path class="cls-4" d="M101.76,80.12c-3.43.62-6.88,1.11-10.33,1.49,0,0,0-4.38-.31-6.92C94.07,74.38,97,74,100,73.47,100.33,75.53,101.37,77.87,101.76,80.12Z"/><path class="cls-5" d="M97,82.6c-1.22-.36-3.53-2.19-4.07-2.36l-.61-4.82a16.32,16.32,0,0,1,3.39-3.14,2,2,0,0,1,2.85.73,10.93,10.93,0,0,1,1,8.19A2.06,2.06,0,0,1,97,82.6Z"/><path class="cls-6" d="M88.13,83.71c1.09-.65,2.88-2.92,3.37-3.25l-.57-4.59a21.2,21.2,0,0,0-4.1-2.48,2.06,2.06,0,0,0-2.58,1.41,10.93,10.93,0,0,0,1,8.19A2.05,2.05,0,0,0,88.13,83.71Z"/><path class="cls-7" d="M90.68,77A14.24,14.24,0,0,1,88,75.26l2.58,1.21Z"/><path class="cls-7" d="M91,79.31a14.25,14.25,0,0,0-2.13,2.3L91,79.8Z"/><path class="cls-7" d="M90.77,77.69A2.66,2.66,0,0,1,89,76.8a4.67,4.67,0,0,0,1.74.52Z"/><path class="cls-7" d="M90.88,78.58a2.63,2.63,0,0,0-1.51,1.3A4.61,4.61,0,0,1,90.93,79Z"/><path class="cls-7" d="M88.14,78.37a20.72,20.72,0,0,0,2.59-.46l0,.46S89.59,78.36,88.14,78.37Z"/><path class="cls-7" d="M95,74.41a17.35,17.35,0,0,1-1.85,2.07,2,2,0,0,1-.26.21l-.07-.49L93,76Z"/><path class="cls-7" d="M93.42,79.64h0l-.23-.1L93.13,79a2.33,2.33,0,0,1,.31.13,17.83,17.83,0,0,1,2.32,1.57Z"/><path class="cls-7" d="M94.43,76.12A2.54,2.54,0,0,1,93.2,77.3a1.81,1.81,0,0,1-.28.12l0-.37a1.33,1.33,0,0,0,.29-.07A6.8,6.8,0,0,0,94.43,76.12Z"/><path class="cls-7" d="M94.82,79.19a6.63,6.63,0,0,0-1.45-.51,1.48,1.48,0,0,0-.29,0l0-.36.3,0A2.72,2.72,0,0,1,94.82,79.19Z"/><path class="cls-7" d="M95.65,77.43c-1.06.26-2,.49-2.35.6l-.22,0L93,77.62h.22A21.94,21.94,0,0,0,95.65,77.43Z"/><path class="cls-8" d="M93.42,79.63h0a1.37,1.37,0,0,1-1.17,1.1h-.18A1.35,1.35,0,0,1,90.84,80a1,1,0,0,1-.13-.41v0L90.64,79l0-.32,0-.33,0-.41,0-.3,0-.34-.06-.49v0a1,1,0,0,1,0-.43,1.36,1.36,0,0,1,1.17-1.11h.17A1.33,1.33,0,0,1,93,76a1,1,0,0,1,.14.41v0l.07.5,0,.32,0,.32.06.41,0,.31,0,.34.07.49v0A1,1,0,0,1,93.42,79.63Z"/><path class="cls-9" d="M95.76,80.74l-2.34-1.1a1.37,1.37,0,0,1-1.17,1.1h-.18l-.37-5.5h0A1.33,1.33,0,0,1,93,76l2-1.63a17.35,17.35,0,0,1-1.85,2.07l.07.5a6.8,6.8,0,0,0,1.26-.86A2.54,2.54,0,0,1,93.2,77.3l0,.32a21.94,21.94,0,0,0,2.41-.19c-1.06.26-2,.49-2.35.6l0,.31a2.72,2.72,0,0,1,1.48.85,6.63,6.63,0,0,0-1.45-.51l.07.49A17.83,17.83,0,0,1,95.76,80.74Z"/></svg>