<svg id="Camada_1" data-name="Camada 1" xmlns="http://www.w3.org/2000/svg" viewBox="0 0 150 150"><path d="M77.1573,59.7324c.0077.0232.0233.0543.031.0776a4.1685,4.1685,0,0,1-4.0672-.1165C74.5027,59.6858,75.8533,59.7013,77.1573,59.7324Z" style="fill:#515220"/><path d="M79.447,56.0921a4.2092,4.2092,0,0,1-.3027,1.5678c-.0776-.0155-.1708-.0388-.2484-.0465h-.0078q-.8149-.163-1.6532-.2561a.0076.0076,0,0,1-.0078-.0078c-.45-.0544-.9081-.0854-1.3738-.1009-.21-.0156-.4191-.0156-.6287-.0156a1.2513,1.2513,0,0,0-.1708.0078c-.3958,0-.7839.0155-1.172.0388h-.0155l-.5589.0466c-.0854.0155-.163.0233-.2483.0311-.1941.0232-.38.0465-.5745.0775-.38.0466-.7606.1165-1.1332.1863a4.1887,4.1887,0,0,1,3.9042-5.7127,2.6323,2.6323,0,0,1,.4269.0311,1.03,1.03,0,0,1,.2174.0233,3.9851,3.9851,0,0,1,1.9094.815A4.1691,4.1691,0,0,1,79.447,56.0921Z" style="fill:#686b2a"/><path d="M71.3514,57.6211c.3726-.07.7529-.14,1.1332-.1863-.194.3571-.38.73-.5666,1.1178h-.0543A4.1858,4.1858,0,0,1,71.3514,57.6211Z" style="fill:#515220"/><path d="M75.8533,57.2486c.2484.4113.489.8538.7374,1.3272-1.141-.031-2.2665-.0388-3.4-.031.2251-.4424.45-.8616.6908-1.2652.4424-.031.8926-.0466,1.3428-.0466C75.4342,57.233,75.6437,57.233,75.8533,57.2486Z" style="fill:#515220"/><path d="M79.1443,57.66l-.0466.1165c-.0621-.0544-.14-.1087-.2018-.163C78.9735,57.6211,79.0667,57.6444,79.1443,57.66Z" style="fill:#515220"/><path d="M100.0779,88.8391c-1.0867.1087-3.3609.3182-6.52.5433.5355-1.0168.8072-1.661.83-1.7231a.2333.2333,0,0,0,.031-.0776.624.624,0,0,0,.0078-.2406c-.0078-.0233-.1242-.683-.3726-1.8007-.4191-.1864-.8538-.38-1.3039-.5744.2871,1.2108.4579,2.0646.52,2.4061-.132.31-.489,1.0712-1.0556,2.0957-1.7154.1164-3.6481.2251-5.7515.3183a23.5794,23.5794,0,0,0,1.0323-3.2445c.031-.1087.0621-.2251.0854-.3415a31.862,31.862,0,0,0-.163-3.2134c-.2717-.0854-.5433-.1707-.8228-.2561A46.521,46.521,0,0,0,79.478,81.186a36.5061,36.5061,0,0,0-4.7191-.3183,43.8767,43.8767,0,0,0-4.8434.2562,42.6544,42.6544,0,0,0-7.886,1.5368,39.73,39.73,0,0,0-4.23,1.49c-.4424.1862-.8693.3726-1.2807.5666a29.3941,29.3941,0,0,0-6.8381,4.16v.0078h.0077a4.2767,4.2767,0,0,0,.163.3959c.0233.0388.0388.0853.0621.1241.0311.07.0621.132.101.2018l.0232.0466c.0388.07.0854.1475.1242.2173a.0407.0407,0,0,1,.0155.0311,7.8656,7.8656,0,0,0,.6055.8615.3409.3409,0,0,0,.0465.0544c.0621.0776.1242.1552.1941.2328.0232.0233.0465.0544.07.0776a1.4853,1.4853,0,0,0,.1087.1165.8443.8443,0,0,0,.0776.0853l.1863.1863c.0078.0078.0233.0233.0233.0311l.0621.0621a1.3608,1.3608,0,0,1,.1086.1009c.0466.0388.0854.0854.132.1242s.0931.0853.1475.1241l.0388.0389a4.2844,4.2844,0,0,0,.3493.2872l.0155.0155a.8766.8766,0,0,0,.1009.0776c.0543.0466.1164.0932.1785.14l.0931.07c.07.0543.14.1009.21.1552.0155.0155.0388.0233.0543.0388.0777.0543.1553.1087.2407.163.0232.0155.0543.0388.0776.0543.0776.0544.1552.101.2328.1553a.1665.1665,0,0,1,.0388.0233h.0078a26.0728,26.0728,0,0,0,7.5445,3.0348.0579.0579,0,0,0,.0388.0078c.1319.0388.2716.07.4113.1086.0156,0,.0389.0078.0544.0078.14.0388.2717.07.4114.1009a.1455.1455,0,0,1,.062.0156c.0078,0,.0233.0077.0311.0077.132.0311.2484.0543.38.0776a.226.226,0,0,0,.07.0156l.3027.07c.0311.0078.07.0155.1009.0233H63A54.4567,54.4567,0,0,0,70.87,97.6643a.0076.0076,0,0,1,.0078.0078h.0155c.4424.031.8926.0543,1.3428.07h.0155c1.9172.0854,3.85.07,5.767-.0233v.0078c.2251-.0078.45-.0233.6753-.0311s.45-.0232.6753-.0465H79.4c.9159-.0544,1.824-.14,2.7167-.2407.38-.4967.7684-1.0478,1.1565-1.6377.8305-.1087,1.661-.2328,2.4915-.38.97-.1708,1.9094-.3571,2.8253-.5511-.4735.5821-.9935,1.18-1.5679,1.7852a.1316.1316,0,0,1,.0544-.0078h.0077c.163-.0388.326-.07.4813-.1086l.3958-.0932a.3328.3328,0,0,1,.0854-.0155c.163-.0388.326-.0776.4812-.1164.132-.0388.2639-.07.3881-.1009.0155-.0078.031-.0078.0466-.0155.4346-.1087.8693-.2329,1.2884-.3571s.8305-.2484,1.2342-.3881c.2018-.07.3958-.14.5976-.21.3881-.14.7762-.2871,1.1488-.4424a18.2715,18.2715,0,0,0,4.3388-2.4449c.0233-.0233.0466-.0388.07-.0621.0543-.0388.1087-.0854.1629-.132.0234-.0233.0544-.0388.0777-.0621.14-.1241.2794-.2406.4113-.3648.0078-.0077.0078-.0155.0156-.0155.1242-.1164.2484-.2328.3648-.3571l.0233-.0232.0233-.0233c.0543-.0621.1164-.1242.1707-.1785a.2053.2053,0,0,1,.0388-.0466c.0544-.0621.1009-.1164.1553-.1785a.2075.2075,0,0,0,.0388-.0466c.0543-.0621.1009-.1242.1474-.1863l.0078-.0077c.0078-.0078.0078-.0078.0155-.0078l-.0077-.0078a70.9067,70.9067,0,0,1-8.0335,2.5614c.6908-1.009,1.2729-1.956,1.7387-2.7632,3.1745-.2173,5.5419-.4269,6.83-.5588a.1052.1052,0,0,0,.0233-.0311c.0389-.0621.07-.1241.1087-.1863.0155-.0233.0311-.0543.0466-.0776a1.6659,1.6659,0,0,1,.0853-.163c.0233-.0465.0466-.1009.07-.1474.0155-.0388.031-.07.0466-.101a1.8781,1.8781,0,0,0,.1164-.2561A2.1672,2.1672,0,0,0,100.0779,88.8391Zm-10.525,4.7657c-1.2652.2872-2.6.5667-3.9974.8073-.5122.0854-1.0323.1707-1.5679.2484a32.206,32.206,0,0,0,2.0492-3.8654c2.0258-.0776,3.8964-.1785,5.5807-.2872C91.0587,91.4393,90.3756,92.4949,89.5529,93.6048Z" style="fill:#515220"/><path d="M94.0547,85.54c-.4191-.1864-.8538-.38-1.3039-.5744.2871,1.2108.4579,2.0646.52,2.4061.38.07.7606.14,1.1487.21a.624.624,0,0,0,.0078-.2406C94.42,87.3178,94.3031,86.6581,94.0547,85.54Zm-6.6363-2.5537a1.7872,1.7872,0,0,0-.0155-.194c-.264-.0233-.5356-.0466-.8073-.0621A46.521,46.521,0,0,0,79.478,81.186c1.2342.0388,2.4683.1009,3.7024.1707-.2949-1.6455-.6675-3.5937-1.1177-5.6894a122.5543,122.5543,0,0,0-13.948-.14c-.3958,2.0879-.714,4.0284-.97,5.6817.9159-.0388,1.84-.07,2.771-.0854a42.6544,42.6544,0,0,0-7.886,1.5368c-1.3117.0932-2.6313.2174-3.974.3571-.0932.3958-.1785.7762-.2562,1.1332-.4424.1862-.8693.3726-1.2807.5666.0932-.4735.21-1.0013.3415-1.5757-2.4294.2795-4.89.621-7.3737,1.04-.4657,2.414-.4191,4.1681.132,4.7192a.5871.5871,0,0,1,.0621-.0155h.0077c.0311-.0078.0621-.0233.1009-.0311.6055-.1629,2.8176-.7218,6.225-1.3194.2329-.0389.4657-.0777.7063-.1165.14-.0233.2795-.0466.427-.07a.0284.0284,0,0,1,.0232-.0077c2.2975-.3726,5.053-.7451,8.1654-1.0246.3105-.0233.6288-.0543.9547-.0776a1.52,1.52,0,0,0,.1863-.0155H66.5A112.2929,112.2929,0,0,1,83.9488,86.2h.0078c.3726.031.7452.0621,1.11.0931h.0388c.7918.07,1.5835.1553,2.3907.2484.031-.1087.0621-.2251.0854-.3415A31.862,31.862,0,0,0,87.4184,82.9867Zm-1.172-6.97c-.9625-.0931-1.9716-.1863-3.0039-.2639.45,2.0957.815,4.0439,1.1022,5.6739.97.0621,1.956.132,2.9262.2173A47.7168,47.7168,0,0,0,86.2464,76.0166Zm-1.77-5.5885c-.8227-.07-1.6687-.1319-2.53-.1863.2561.9936.5123,2.0258.7607,3.097.0931.4191.194.8383.2872,1.2574.978.0776,1.9559.1552,2.9417.2561A43.8428,43.8428,0,0,0,84.4766,70.4281Zm-2.9727-6.07c-.4347-.0311-.8771-.0544-1.32-.0776q.7451,2.2121,1.4514,4.8045c.784.0466,1.5757.1009,2.36.163A38.2449,38.2449,0,0,0,81.5039,64.3584Zm-.0311-6.0232c.1553.1552.3183.31.4735.4735.2794.0233.5589.0388.8383.0621C82.3577,58.669,81.923,58.4982,81.4728,58.3352Zm.1242,15.252c-.2794-1.18-.5588-2.3208-.846-3.4075-3.5161-.194-7.3737-.2561-11.4642-.1086-.3493,1.4514-.66,2.8951-.9392,4.2922a120.1194,120.1194,0,0,1,13.459.1475C81.7367,74.2081,81.6669,73.8977,81.597,73.5872ZM78.6708,60.3145c.38.8693.7452,1.8007,1.1022,2.802.326.0155.66.031.9858.0543A33.9,33.9,0,0,0,78.6708,60.3145Zm.2794,3.9042c-2.5225-.1009-5.2082-.14-8.0024-.07-.5045,1.5369-.9624,3.1436-1.3738,4.758q5.3673-.1746,10.8588.1087C79.9515,67.2924,79.4548,65.6857,78.95,64.2187Zm-.0543-6.6053c.0621.0543.14.1086.2018.163l.0466-.1165C79.0667,57.6444,78.9735,57.6211,78.8959,57.6134Zm-7.5445.0077c-.2406.0544-.4812.1242-.7218.1863-.31.2484-.6287.52-.9392.8.73-.0233,1.4437-.0388,2.1733-.0543h.0543c.1863-.3881.3726-.7607.5666-1.1178C72.1043,57.4814,71.724,57.5513,71.3514,57.6211Zm4.5019-.3725c-.21-.0156-.4191-.0156-.6287-.0156-.45,0-.9.0156-1.3428.0466-.2406.4036-.4657.8228-.6908,1.2652,1.1332-.0078,2.2587,0,3.4.031C76.3423,58.1024,76.1017,57.66,75.8533,57.2486Zm1.335,2.5614c-.0077-.0233-.0233-.0544-.031-.0776-1.304-.0311-2.6546-.0466-4.0362-.0389H72.64c-.4579,1.0323-.8926,2.1345-1.304,3.2911q3.5744-.07,7.1952.0776C78.0887,61.8823,77.6463,60.7957,77.1883,59.81Zm-8.6932,0a27.5939,27.5939,0,0,0-2.6468,3.4152c.0388,0,.07-.0078.1009-.0078,1.3816-.0931,2.771-.1552,4.1681-.2018.4114-1.1953.8305-2.2975,1.2652-3.2988Q69.9621,59.74,68.4951,59.81ZM65.08,64.436a46.759,46.759,0,0,0-2.5459,4.9055c1.1332-.1009,2.2743-.1863,3.423-.2639.7994-.0466,1.6145-.0854,2.4294-.1242q.64-2.5731,1.3428-4.7735Q67.4588,64.2613,65.08,64.436Zm2.8408-5.7515c.0233,0,.0388-.0078.0621-.0078.0155-.0077.0233-.0232.0388-.031A.2722.2722,0,0,0,67.9207,58.6845ZM62.0062,70.5523c-.3415.8072-.652,1.6067-.9469,2.3829-.2562.6985-.5046,1.3971-.7374,2.08,1.8551-.2174,3.7334-.3959,5.6273-.52.4036-.0233.815-.0544,1.2186-.07.07-.3571.14-.7142.2174-1.0712.2328-1.1255.4657-2.1966.714-3.2366C66.12,70.2108,64.0864,70.3505,62.0062,70.5523Zm3.2755-10.5561A24.97,24.97,0,0,0,60.4383,63.73c1.3118-.1553,2.639-.2872,3.9741-.3959.4191-.6753.8538-1.3117,1.2884-1.9171.3881-.5356.7917-1.04,1.1954-1.5291C66.3606,59.9186,65.825,59.9574,65.2817,59.9962Zm-5.3557,16.23c-.6519,2.0258-1.172,3.943-1.5833,5.604q3.7023-.3726,7.5134-.5666h.1319c.2406-1.6377.5589-3.5859.9547-5.6739C64.6608,75.7217,62.3167,75.9312,59.926,76.2262Zm-.7684-11.177a36.3011,36.3011,0,0,0-3.943,5.2082c1.9793-.3105,3.99-.5744,6.0154-.784a49.2612,49.2612,0,0,1,2.4528-4.921Q61.4474,64.75,59.1576,65.0492Zm-4.7192,6.4966h-.0077a45.4868,45.4868,0,0,0-2.4217,4.789q3.4812-.6985,7.0633-1.1642c.2794-.8616.59-1.7309.9159-2.6158.2406-.6364.4812-1.2651.73-1.8705C58.6609,70.9093,56.5652,71.1887,54.4384,71.5458Zm-2.9572,6.062A37.7111,37.7111,0,0,0,49.75,82.9867q3.6325-.6171,7.3893-1.0246c.3958-1.6377.9081-3.5471,1.5446-5.5807C56.3168,76.7,53.9106,77.1033,51.4812,77.6078Z" style="fill:#686b2a"/><path d="M94.0547,85.54c-.4191-.1864-.8538-.38-1.3039-.5744.2871,1.2108.4579,2.0646.52,2.4061.38.07.7606.14,1.1487.21a.624.624,0,0,0,.0078-.2406C94.42,87.3178,94.3031,86.6581,94.0547,85.54Zm-7.4591-2.81A46.521,46.521,0,0,0,79.478,81.186q-4.8316-.1746-9.5625-.0621a42.6544,42.6544,0,0,0-7.886,1.5368c1.2807-.1009,2.5381-.1785,3.7878-.2406-.326,2.2975-.4813,3.7645-.4813,3.7955a.2225.2225,0,0,0,0,.1009v.0078c.3105-.0311.6288-.0621.9547-.0854a1.52,1.52,0,0,0,.1863-.0155c.0466-.3881.2018-1.8085.4968-3.8576a163.8878,163.8878,0,0,1,16.4007.14c.326,1.9172.52,3.26.5821,3.6946.3726.031.7452.0621,1.11.0931h.0388a.3719.3719,0,0,0,0-.0931c-.0077-.031-.194-1.42-.5588-3.617C85.2451,82.63,85.9281,82.6763,86.5956,82.7306Zm-7.7-25.1172c.0621.0543.14.1086.2018.163l.0466-.1165C79.0667,57.6444,78.9735,57.6211,78.8959,57.6134ZM56.5186,84.7176c-.3415,1.6144-.4967,2.608-.5045,2.639a.6838.6838,0,0,0,0,.1786c.2329-.0389.4657-.0777.7063-.1165.14-.0233.2795-.0466.427-.07a.0284.0284,0,0,1,.0232-.0077c.07-.4269.2717-1.5679.6287-3.19C57.3569,84.3372,56.93,84.5236,56.5186,84.7176ZM54.4307,71.5458h.0077c.0156-.031.0311-.0543.0466-.0854A.5236.5236,0,0,0,54.4307,71.5458ZM49.7426,82.9867c-.0155.0854-.0388.163-.0544.2406.0156-.0776.0389-.1552.0621-.2406Z" style="fill:#a6955c"/><path d="M78.5777,58.6457a4.7176,4.7176,0,0,1-.6986.7218,5.24,5.24,0,0,1-.6908.4425c-.0077-.0233-.0233-.0544-.031-.0776-1.304-.0311-2.6546-.0466-4.0362-.0389a4.0228,4.0228,0,0,1-1.2574-1.1409h.0543c.1863-.3881.3726-.7607.5666-1.1178.1941-.031.38-.0543.5745-.0775.0853-.0078.1629-.0156.2483-.0311l.5589-.0466h.0155c-.2406.4036-.4657.8228-.6908,1.2652,1.1332-.0078,2.2587,0,3.4.031-.2484-.4734-.489-.9159-.7374-1.3272.4657.0155.9236.0465,1.3738.1009a.0076.0076,0,0,0,.0078.0078c.2173.3958.4347.8072.652,1.2574C78.12,58.6224,78.3448,58.63,78.5777,58.6457Z" style="fill:#a6955c"/><path d="M100.59,84.3994c-.0311-.1863-.0622-.3881-.1087-.5822-.0311-.194-.0776-.3958-.1242-.6054-2.0569-.3337-4.4475-.6752-7.11-.9857-.4269-1.6145-.97-3.5162-1.6455-5.542,2.6312.38,5.0219.8073,7.1176,1.2342-.0078-.0078-.0078-.0233-.0156-.0311-.1552-.4114-.3259-.815-.4967-1.2341-2.088-.4114-4.4475-.8228-7.0167-1.18-.3415-.9625-.6986-1.94-1.0944-2.9262-.2173-.5511-.4347-1.0944-.66-1.6222,2.3053.2794,4.4475.5976,6.4035.9236-.2406-.4269-.489-.8538-.7529-1.2729-1.9094-.31-3.974-.6054-6.1861-.8538a50.8507,50.8507,0,0,0-2.5459-4.96q.5706.0582,1.1177.1164c1.3117.1475,2.5769.3105,3.7955.4813-.194-.2252-.3958-.4425-.6054-.6676-.2018-.2173-.4114-.4269-.621-.6442-.7839-.1087-1.5911-.2018-2.4061-.2949q-1.0129-.1166-2.0258-.21c-.4812-.7529-.97-1.4592-1.467-2.1267-.3571-.489-.7219-.947-1.0944-1.3817.7762.0544,1.5368.1165,2.2742.1864a20.7973,20.7973,0,0,0-2.53-1.3506h-.0077c-.2794-.0233-.5589-.0388-.8383-.0621-.1552-.163-.3182-.3183-.4735-.4735a17.8615,17.8615,0,0,0-2.3285-.6753l-.0466.1165c-.0621-.0544-.14-.1087-.2018-.163h-.0078q-.8149-.163-1.6532-.2561c.2173.3958.4347.8072.652,1.2574.2328.0077.4579.0155.6908.031a4.7176,4.7176,0,0,1-.6986.7218,5.24,5.24,0,0,1-.6908.4425c.458.9857.9,2.0723,1.3428,3.2522q-3.6209-.1513-7.1952-.0776c.4114-1.1566.8461-2.2588,1.304-3.2911h.4812a4.0228,4.0228,0,0,1-1.2574-1.1409c-.73.0155-1.4437.031-2.1733.0543.3105-.2794.6287-.5511.9392-.8l.0155-.0155c-.2251.0543-.45.1164-.6675.1785l-.6287.1863c-.2329.0776-.458.1552-.6908.2406-.21.0777-.4269.163-.6365.2484-.0155.0078-.0233.0233-.0388.031-.0233,0-.0388.0078-.0621.0078-.2251.0931-.45.194-.6753.2949-.45.2019-.8926.4192-1.3194.6521-.2174.1164-.4347.2406-.6443.3647.5433-.0388,1.0789-.0776,1.6145-.1086-.4037.489-.8073.9935-1.1954,1.5291-.4346.6054-.8693,1.2418-1.2884,1.9171-1.3351.1087-2.6623.2406-3.9741.3959-.0077.0077-.0077.0077-.0155.0077l-.6365.6365c-.2095.2251-.4269.45-.6287.6753q2.2936-.3027,4.5252-.4968a49.2612,49.2612,0,0,0-2.4528,4.921c-2.0258.21-4.0361.4735-6.0154.784-.14.2173-.2639.4269-.3958.6442-.1009.1552-.194.3105-.2872.4735-.0155.031-.0311.0543-.0466.0853s-.031.0544-.0466.0854c2.1268-.3571,4.2225-.6365,6.2794-.8615-.2484.6054-.489,1.2341-.73,1.8705-.326.8849-.6365,1.7542-.9159,2.6158q-3.586.4656-7.0633,1.1642c-.1863.427-.3648.8539-.5278,1.273,2.4294-.5045,4.8356-.9081,7.203-1.2264-.6365,2.0336-1.1488,3.943-1.5446,5.5807Q53.379,82.37,49.75,82.9867c-.0232.0854-.0465.163-.0621.2406-.0388.1708-.0776.3338-.1086.4968-.0311.1552-.0621.31-.0932.4579,2.4838-.4191,4.9443-.7606,7.3737-1.04-.1319.5744-.2483,1.1022-.3415,1.5757.4114-.194.8383-.38,1.2807-.5666.0777-.357.163-.7374.2562-1.1332,1.3427-.14,2.6623-.2639,3.974-.3571a42.6544,42.6544,0,0,1,7.886-1.5368c-.9314.0155-1.8551.0466-2.771.0854.2562-1.6533.5744-3.5938.97-5.6817a122.5543,122.5543,0,0,1,13.948.14c.45,2.0957.8228,4.0439,1.1177,5.6894-1.2341-.07-2.4682-.1319-3.7024-.1707a46.521,46.521,0,0,1,7.1176,1.5446c.2717.0155.5433.0388.8073.0621q2.5962.21,4.9365.4812c.163.621.2949,1.1876.4114,1.6921.45.194.8848.388,1.3039.5744-.132-.59-.3027-1.304-.5045-2.1268,2.6468.3105,5.0141.66,7.0322.9858ZM87.5814,69.5743q-1.793-.1863-3.586-.326c-.7839-.0621-1.5756-.1164-2.36-.163q-.71-2.5962-1.4514-4.8045c.4424.0232.8848.0465,1.32.0776,1.1875.07,2.3285.163,3.4307.2639A48.4147,48.4147,0,0,1,87.5814,69.5743ZM78.438,59.7789q1.5252.0582,2.98.14a29.2033,29.2033,0,0,1,2.7322,3.4928c-1.1333-.0931-2.2665-.1785-3.3919-.2406-.326-.0233-.66-.0388-.9858-.0543-.357-1.0013-.7219-1.9327-1.1022-2.802Zm.5122,4.44c.5046,1.467,1.0013,3.0737,1.4826,4.7968q-5.4839-.2794-10.8588-.1087c.4114-1.6144.8693-3.2211,1.3738-4.758C73.742,64.079,76.4277,64.1178,78.95,64.2187ZM68.4951,59.81q1.467-.07,2.8874-.0932c-.4347,1.0013-.8538,2.1035-1.2652,3.2988-1.3971.0466-2.7865.1087-4.1681.2018-.031,0-.0621.0078-.1009.0078A27.5939,27.5939,0,0,1,68.4951,59.81ZM65.988,81.2636h-.1319q-3.8073.1979-7.5134.5666c.4113-1.661.9314-3.5782,1.5833-5.604,2.3907-.295,4.7348-.5045,7.0167-.6365C66.5469,77.6777,66.2286,79.6259,65.988,81.2636Zm1.3972-7.9093c-.0777.357-.1475.7141-.2174,1.0712-.4036.0154-.815.0465-1.2186.07-1.8939.1242-3.7722.3027-5.6273.52.2328-.6831.4812-1.3817.7374-2.08.2949-.7762.6054-1.5757.9469-2.3829,2.08-.2018,4.1138-.3415,6.093-.4346C67.8509,71.1577,67.618,72.2288,67.3852,73.3543ZM65.957,69.0776c-1.1487.0776-2.29.163-3.423.2639A46.759,46.759,0,0,1,65.08,64.436q2.3751-.1746,4.6493-.2561-.6986,2.2005-1.3428,4.7735C67.5715,68.9922,66.7564,69.031,65.957,69.0776Zm2.3906,5.2857c.2794-1.3971.59-2.8408.9392-4.2922,4.0905-.1475,7.9481-.0854,11.4642.1086.2872,1.0867.5666,2.2277.846,3.4075.07.3105.14.6209.21.9236A120.1194,120.1194,0,0,0,68.3476,74.3633Zm14.6466.2329c-.0932-.4191-.1941-.8383-.2872-1.2574-.2484-1.0712-.5046-2.1034-.7607-3.097.8616.0544,1.7076.1165,2.53.1863q1.56.1281,3.0039.2794c.2173.0233.4346.0466.6442.07.326.7374.6287,1.4592.9081,2.1733q.4775,1.1876.8849,2.3518-1.1178-.1513-2.282-.2794c-.5666-.0621-1.1332-.1242-1.7-.1708C84.95,74.7514,83.9722,74.6738,82.9942,74.5962ZM87.5193,81.66c-.0854-.0078-.163-.0156-.2484-.0156-.97-.0853-1.956-.1552-2.9262-.2173-.2872-1.63-.652-3.5782-1.1022-5.6739,1.0323.0776,2.0414.1708,3.0039.2639.4191.0466.8227.0854,1.2263.132.9857.1164,1.94.2328,2.8641.357.6908,2.0336,1.2574,3.943,1.6921,5.5885Q89.8866,81.8613,87.5193,81.66Z" style="fill:#a6955c"/><path d="M100.0779,88.8391c-1.0867.1087-3.3609.3182-6.52.5433.5355-1.0168.8072-1.661.83-1.7231a.2333.2333,0,0,0,.031-.0776c-.3881-.07-.7684-.14-1.1487-.21-.132.31-.489,1.0712-1.0556,2.0957-1.7154.1164-3.6481.2251-5.7515.3183-.621.0233-1.2652.0543-1.9172.0776-.3337.0077-.6753.0233-1.0245.031.8925-1.8783,1.4669-3.2289,1.5445-3.4a.5812.5812,0,0,0,.0388-.2019h-.0388c-.3647-.031-.7373-.0621-1.11-.0931h-.0078c-.194.45-.8227,1.8939-1.7153,3.7334-4.0672.1242-8.8718.1785-14.0644.0621-.8616-1.8473-1.4747-3.2987-1.6688-3.7722H66.477a1.52,1.52,0,0,1-.1863.0155c-.3259.0233-.6442.0543-.9547.0854a.4173.4173,0,0,0,.0388.163c.07.1708.6443,1.56,1.5214,3.4773-2.8253-.0776-5.7438-.2018-8.7243-.3881-.5744-1.1332-.9159-1.956-1.0245-2.2277-.1475.0233-.2873.0466-.427.07-.2406.0388-.4734.0776-.7063.1165a.5755.5755,0,0,0,.031.1086c.0233.0621.2872.7607.8073,1.84-2.3363-.1629-4.6959-.3725-7.0633-.6287-.0388.0078-.07.0233-.1009.0311h-.0077c.0388.0854.07.1785.1086.2639a.9941.9941,0,0,1,.0621.132c.0233.0388.0388.0853.0621.1241.0311.07.0621.132.101.2018l.0232.0466c.0388.07.0854.1475.1242.2173a.0407.0407,0,0,1,.0155.0311c2.4139.2484,4.82.4579,7.203.6209a34.3543,34.3543,0,0,0,1.84,3.0892,55.9512,55.9512,0,0,1-8.437-2.8486.3409.3409,0,0,0,.0465.0544c.0621.0776.1242.1552.1941.2328.0232.0233.0465.0544.07.0776a1.4853,1.4853,0,0,0,.1087.1165.8443.8443,0,0,0,.0776.0853l.1863.1863c.0078.0078.0233.0233.0233.0311l.0621.0621a1.3608,1.3608,0,0,1,.1086.1009c.0466.0388.0854.0854.132.1242s.0931.0853.1475.1241l.0388.0389a.8443.8443,0,0,1,.0853.0776.5288.5288,0,0,1,.1009.0854c.0544.0388.1087.0853.1631.1242l.0155.0155a.8766.8766,0,0,0,.1009.0776c.0543.0466.1164.0932.1785.14l.0931.07c.07.0543.14.1009.21.1552.0155.0155.0388.0233.0543.0388.0777.0543.1553.1087.2407.163.0232.0155.0543.0388.0776.0543.0776.0544.1552.101.2328.1553a.1665.1665,0,0,1,.0388.0233h.0078a37.7946,37.7946,0,0,0,6.6674,1.8938c.0621.0932.1319.1863.2018.2717.2251.2949.4424.5822.6753.8693a.0579.0579,0,0,0,.0388.0078c.1319.0388.2716.07.4113.1086.0156,0,.0389.0078.0544.0078.14.0388.2717.07.4114.1009a.1455.1455,0,0,1,.062.0156c.0078,0,.0233.0077.0311.0077.132.0311.2484.0543.38.0776a.226.226,0,0,0,.07.0156l.3027.07c.0311.0078.07.0155.1009.0233H63c-.3881-.4269-.7529-.8538-1.0866-1.2729,1.6067.2638,3.4.4967,5.4643.714.9.0932,1.8008.1708,2.7089.2252.2561.4579.52.9081.7839,1.35a.0076.0076,0,0,1,.0078.0078h.0155c.4424.031.8926.0543,1.3428.07h.0155c-.2716-.4347-.5511-.8926-.8228-1.3661.8306.0311,1.6689.0544,2.4994.0544,1.6532,0,3.322-.07,4.9986-.1941-.3027.5123-.6055,1.009-.9082,1.4825v.0078c.2251-.0078.45-.0233.6753-.0311a.0993.0993,0,0,0,.0466-.0077c.2095-.0078.4191-.0233.6287-.0388H79.4c.31-.4968.6132-1.0091.9082-1.5291.9857-.0932,1.9714-.21,2.965-.3493.8305-.1087,1.661-.2328,2.4915-.38.97-.1708,1.9094-.3571,2.8253-.5511-.4735.5821-.9935,1.18-1.5679,1.7852a.1316.1316,0,0,1,.0544-.0078h.0077c.132-.031.2561-.062.3881-.0931.0311-.0078.0621-.0078.0932-.0155l.3958-.0932a.3328.3328,0,0,1,.0854-.0155c.1319-.0311.2639-.07.3958-.1009.0311-.0078.0543-.0078.0854-.0155.132-.0388.2639-.07.3881-.1009.0155-.0078.031-.0078.0466-.0155.2251-.2639.45-.5279.6753-.8073.2483-.31.4812-.6131.714-.9159,2.7632-.6675,5.2082-1.42,7.2185-2.1189.0233-.0233.0466-.0388.07-.0621.0543-.0388.1087-.0854.1629-.132.0234-.0233.0544-.0388.0777-.0621.14-.1241.2794-.2406.4113-.3648.0078-.0077.0078-.0155.0156-.0155.1242-.1164.2484-.2328.3648-.3571l.0233-.0232.0233-.0233c.0543-.0621.1164-.1242.1707-.1785a.2053.2053,0,0,1,.0388-.0466c.0544-.0621.1009-.1164.1553-.1785a.2075.2075,0,0,0,.0388-.0466c.0543-.0621.1009-.1242.1474-.1863l.0078-.0077c.0078-.0078.0078-.0078.0155-.0078v-.0078h-.0077a70.9067,70.9067,0,0,1-8.0335,2.5614c.6908-1.009,1.2729-1.956,1.7387-2.7632,3.1745-.2173,5.5419-.4269,6.83-.5588a.1052.1052,0,0,0,.0233-.0311c.0389-.0621.07-.1241.1087-.1863.0155-.0233.0311-.0543.0466-.0776a1.6659,1.6659,0,0,1,.0853-.163c.0233-.0465.0466-.1009.07-.1474.0155-.0388.031-.07.0466-.101a1.8781,1.8781,0,0,0,.1164-.2561A2.1672,2.1672,0,0,0,100.0779,88.8391ZM60.873,94.0085a35.3607,35.3607,0,0,1-2.15-3.4c2.95.1785,5.8524.3027,8.6389.3726.6209,1.32,1.35,2.802,2.1422,4.2689A59.2884,59.2884,0,0,1,60.873,94.0085Zm18.6594,1.172a66.3566,66.3566,0,0,1-8.6855.1553c-.7994-1.4593-1.5524-2.9651-2.2043-4.3311,1.824.0388,3.6014.0543,5.309.0543,2.7943,0,5.41-.0466,7.7929-.1087C81.0847,92.2854,80.3319,93.7523,79.5324,95.1805Zm10.02-1.5757c-1.2652.2872-2.6.5667-3.9974.8073-.5122.0854-1.0323.1707-1.5679.2484-.9857.1475-2.018.2794-3.0814.3881.784-1.4282,1.5136-2.8564,2.1268-4.1371.5355-.0155,1.0555-.031,1.56-.0543.489-.0156.97-.0388,1.4437-.0621,2.0258-.0776,3.8964-.1785,5.5807-.2872C91.0587,91.4393,90.3756,92.4949,89.5529,93.6048Z" style="fill:#826d46"/><path d="M87.5814,69.5743q-1.793-.1863-3.586-.326a38.2449,38.2449,0,0,0-2.4915-4.89c1.1875.07,2.3285.163,3.4307.2639A48.4147,48.4147,0,0,1,87.5814,69.5743Z" style="fill:#3e491e"/><path d="M89.9177,75.3025q-1.1178-.1513-2.282-.2794c-.5666-.0621-1.1332-.1242-1.7-.1708a43.8428,43.8428,0,0,0-1.4593-4.4242q1.56.1281,3.0039.2794c.2173.0233.4346.0466.6442.07.326.7374.6287,1.4592.9081,2.1733Q89.51,74.1383,89.9177,75.3025Z" style="fill:#3e491e"/><path d="M92.0289,82.0941q-2.1423-.2328-4.51-.4346c-.0854-.0078-.163-.0156-.2484-.0156a47.7168,47.7168,0,0,0-1.0245-5.6273c.4191.0466.8227.0854,1.2263.132.9857.1164,1.94.2328,2.8641.357C91.0276,78.5392,91.5942,80.4486,92.0289,82.0941Z" style="fill:#3e491e"/><path d="M87.5814,86.2a31.862,31.862,0,0,0-.163-3.2134c1.9327.6132,3.7334,1.2963,5.3324,1.9793.2871,1.2108.4579,2.0646.52,2.4061q-2.934-.5122-5.7748-.8305C87.527,86.4329,87.5581,86.3165,87.5814,86.2Z" style="fill:#3e491e"/><path d="M92.7508,84.966c-1.599-.683-3.4-1.3661-5.3324-1.9793a1.7872,1.7872,0,0,0-.0155-.194q2.5962.21,4.9365.4812C92.5024,83.8949,92.6343,84.4615,92.7508,84.966Z" style="fill:#3e491e"/><path d="M100.334,88.9012h-.0078c0-.0077.0078-.0155.0078-.0233A53.0588,53.0588,0,0,0,94.0547,85.54c-.132-.59-.3027-1.304-.5045-2.1268,2.6468.3105,5.0141.66,7.0322.9858C100.9782,86.6736,100.9084,88.3268,100.334,88.9012Z" style="fill:#3e491e"/><path d="M100.334,88.8779c0,.0078-.0078.0156-.0078.0233h-.0077a2.1672,2.1672,0,0,0-.2406-.0621q-2.8526-.7335-5.6584-1.2574a.624.624,0,0,0,.0078-.2406c-.0078-.0233-.1242-.683-.3726-1.8007A53.0588,53.0588,0,0,1,100.334,88.8779Z" style="fill:#3e491e"/><path d="M100.3573,83.2118c-2.0569-.3337-4.4475-.6752-7.11-.9857-.4269-1.6145-.97-3.5162-1.6455-5.542,2.6312.38,5.0219.8073,7.1176,1.2342A36.9315,36.9315,0,0,1,100.3573,83.2118Z" style="fill:#3e491e"/><path d="M98.2073,76.6531c-2.088-.4114-4.4475-.8228-7.0167-1.18-.3415-.9625-.6986-1.94-1.0944-2.9262-.2173-.5511-.4347-1.0944-.66-1.6222,2.3053.2794,4.4475.5976,6.4035.9236A44.291,44.291,0,0,1,98.2073,76.6531Z" style="fill:#3e491e"/><path d="M95.087,70.5756c-1.9094-.31-3.974-.6054-6.1861-.8538a50.8507,50.8507,0,0,0-2.5459-4.96q.5706.0582,1.1177.1164c1.3117.1475,2.5769.3105,3.7955.4813A37.5661,37.5661,0,0,1,95.087,70.5756Z" style="fill:#3e491e"/><path d="M90.0418,64.0479c-.7839-.1087-1.5911-.2018-2.4061-.2949q-1.0129-.1166-2.0258-.21c-.4812-.7529-.97-1.4592-1.467-2.1267-.3571-.489-.7219-.947-1.0944-1.3817.7762.0544,1.5368.1165,2.2742.1864A25.4753,25.4753,0,0,1,90.0418,64.0479Z" style="fill:#3e491e"/><path d="M87.7987,86.5757q2.6943.3081,5.4721.7964c-.132.31-.489,1.0712-1.0556,2.0957-1.7154.1164-3.6481.2251-5.7515.3183a23.5794,23.5794,0,0,0,1.0323-3.2445q.1512.0168.3027.0341" style="fill:#333a19"/><path d="M91.6175,90.5079c-.5588.9314-1.2419,1.987-2.0646,3.0969-1.2652.2872-2.6.5667-3.9974.8073-.5122.0854-1.0323.1707-1.5679.2484a32.206,32.206,0,0,0,2.0492-3.8654C88.0626,90.7175,89.9332,90.6166,91.6175,90.5079Z" style="fill:#333a19"/><path d="M99.8217,89.8637a5.3322,5.3322,0,0,1-.5278.7606h-.0077a70.9067,70.9067,0,0,1-8.0335,2.5614c.6908-1.009,1.2729-1.956,1.7387-2.7632C96.1659,90.2052,98.5333,89.9956,99.8217,89.8637Z" style="fill:#333a19"/><path d="M100.0779,88.8391c-1.0867.1087-3.3609.3182-6.52.5433.5355-1.0168.8072-1.661.83-1.7231a.2333.2333,0,0,0,.031-.0776Q97.2254,88.1057,100.0779,88.8391Z" style="fill:#333a19"/><path d="M88.59,94.839c-.4735.5821-.9935,1.18-1.5679,1.7852-1.5679.3338-3.2134.5977-4.9054.7839.38-.4967.7684-1.0478,1.1565-1.6377.8305-.1087,1.661-.2328,2.4915-.38C86.7354,95.2193,87.6745,95.033,88.59,94.839Z" style="fill:#333a19"/><path d="M84.1507,63.4114c-1.1333-.0931-2.2665-.1785-3.3919-.2406a33.9,33.9,0,0,0-2.088-2.8563l-.2328-.5356q1.5252.0582,2.98.14A29.2033,29.2033,0,0,1,84.1507,63.4114Z" style="fill:#3e491e"/><path d="M77.5066,57.396l.8693.132C78.12,57.4814,77.8248,57.4348,77.5066,57.396ZM94.42,87.5817a.624.624,0,0,0,.0078-.2406c-.0078-.0233-.1242-.683-.3726-1.8007-.132-.59-.3027-1.304-.5045-2.1268,2.6468.3105,5.0141.66,7.0322.9858h.0078c-.0311-.1863-.0622-.3881-.1087-.5822-.0311-.194-.0776-.3958-.1242-.6054-2.0569-.3337-4.4475-.6752-7.11-.9857-.4269-1.6145-.97-3.5162-1.6455-5.542,2.6312.38,5.0219.8073,7.1176,1.2342-.0078-.0078-.0078-.0233-.0156-.0311-.1552-.4114-.3259-.815-.4967-1.2341-2.088-.4114-4.4475-.8228-7.0167-1.18-.3415-.9625-.6986-1.94-1.0944-2.9262-.2173-.5511-.4347-1.0944-.66-1.6222,2.3053.2794,4.4475.5976,6.4035.9236-.2406-.4269-.489-.8538-.7529-1.2729-1.9094-.31-3.974-.6054-6.1861-.8538a50.8507,50.8507,0,0,0-2.5459-4.96q.5706.0582,1.1177.1164c1.3117.1475,2.5769.3105,3.7955.4813-.194-.2252-.3958-.4425-.6054-.6676-.2018-.2173-.4114-.4269-.621-.6442-.7839-.1087-1.5911-.2018-2.4061-.2949q-1.0129-.1166-2.0258-.21c-.4812-.7529-.97-1.4592-1.467-2.1267-.3571-.489-.7219-.947-1.0944-1.3817.7762.0544,1.5368.1165,2.2742.1864a20.7973,20.7973,0,0,0-2.53-1.3506h-.0077c-.4269-.2018-.8616-.3726-1.3118-.5356a18.0236,18.0236,0,0,0-2.2586-.66c-.0233-.0078-.0389-.0078-.07-.0156-.0621-.0155-.1475-.031-.2484-.0465l.1708.2173a.1957.1957,0,0,0,.031-.0543c.38.2949.7452.6054,1.1022.9314-.5356-.0311-1.0789-.0543-1.6222-.0621h-.4036l-.2872-.031-.652-1.25v-.0077c-.45-.0544-.9314-.101-1.3894-.1165l.0078.0078q1.0712,1.0362,2.0258,2.1189c.2717.31.5356.6287.7917.947l-.2328-.5356q1.5252.0582,2.98.14a29.2033,29.2033,0,0,1,2.7322,3.4928c-1.1333-.0931-2.2665-.1785-3.3919-.2406q.3842.5938.7451,1.1876c1.1875.07,2.3285.163,3.4307.2639a48.4147,48.4147,0,0,1,2.6468,4.952q-1.793-.1863-3.586-.326c.1708.3959.326.7917.4812,1.18q1.56.1281,3.0039.2794c.2173.0233.4346.0466.6442.07.326.7374.6287,1.4592.9081,2.1733q.4775,1.1876.8849,2.3518-1.1178-.1513-2.282-.2794c-.5666-.0621-1.1332-.1242-1.7-.1708.1086.3959.2095.784.31,1.1643.4191.0466.8227.0854,1.2263.132.9857.1164,1.94.2328,2.8641.357.6908,2.0336,1.2574,3.943,1.6921,5.5885q-2.1423-.2328-4.51-.4346c-.0854-.0078-.163-.0156-.2484-.0156.0543.4037.0932.7917.132,1.1488q2.5962.21,4.9365.4812c.163.621.2949,1.1876.4114,1.6921.2871,1.2108.4579,2.0646.52,2.4061m0,0c-.132.31-.489,1.0712-1.0556,2.0957-1.7154.1164-3.6481.2251-5.7515.3183-.14.3415-.2795.683-.4269,1.009,2.0258-.0776,3.8964-.1785,5.5807-.2872-.5588.9314-1.2419,1.987-2.0646,3.0969-1.2652.2872-2.6.5667-3.9974.8073-.5122.0854-1.0323.1707-1.5679.2484-.2328.3881-.4734.7529-.714,1.11.8305-.1087,1.661-.2328,2.4915-.38.97-.1708,1.9094-.3571,2.8253-.5511-.4735.5821-.9935,1.18-1.5679,1.7852a.1316.1316,0,0,1,.0544-.0078h.0077c.163-.0388.326-.07.4813-.1086l.3958-.0932a.3328.3328,0,0,1,.0854-.0155c.163-.0388.326-.0776.4812-.1164.132-.0388.2639-.07.3881-.1009.0155-.0078.031-.0078.0466-.0155.4346-.1087.8693-.2329,1.2884-.3571s.8305-.2484,1.2342-.3881c.2018-.07.3958-.14.5976-.21.3881-.14.7762-.2871,1.1488-.4424a18.2715,18.2715,0,0,0,4.3388-2.4449.362.362,0,0,0,.0543-.0544.0243.0243,0,0,1,.0156-.0077c.0543-.0388.1087-.0854.1629-.132.0234-.0233.0544-.0388.0777-.0621.14-.1241.2794-.2406.4113-.3648.0078-.0077.0078-.0155.0156-.0155.1242-.1164.2484-.2328.3648-.3571l.0233-.0232.0233-.0233c.0543-.0621.1164-.1242.1707-.1785a.2053.2053,0,0,1,.0388-.0466c.0544-.0621.1009-.1164.1553-.1785a.2075.2075,0,0,0,.0388-.0466c.0543-.0621.1009-.1242.1474-.1863l.0078-.0077c.0078-.0078.0078-.0078.0155-.0078v-.0078h-.0077a70.9067,70.9067,0,0,1-8.0335,2.5614c.6908-1.009,1.2729-1.956,1.7387-2.7632,3.1745-.2173,5.5419-.4269,6.83-.5588a.1052.1052,0,0,0,.0233-.0311c.0389-.0621.07-.1241.1087-.1863.0155-.0233.0311-.0543.0466-.0776a1.6659,1.6659,0,0,1,.0853-.163c.0233-.0465.0466-.1009.07-.1474.0155-.0388.031-.07.0466-.101a1.8781,1.8781,0,0,0,.1164-.2561,2.1672,2.1672,0,0,0-.2406-.0621c-1.0867.1087-3.3609.3182-6.52.5433.5355-1.0168.8072-1.661.83-1.7231a.2333.2333,0,0,0,.031-.0776M77.5066,57.396l.8693.132C78.12,57.4814,77.8248,57.4348,77.5066,57.396Z" style="fill:#755d45"/><path d="M77.2349,57.3573l.1552.0232a.9516.9516,0,0,0-.1552-.0155Z" style="fill:#755d45"/><path d="M77.2349,57.3573a16.6332,16.6332,0,0,1,1.661.2561L80.2,58.7078l-2.2912-.0518Z" style="fill:#3e491e"/><path d="M97.6251,92.27a.362.362,0,0,1-.0543.0544,18.2715,18.2715,0,0,1-4.3388,2.4449c-.3726.1553-.7607.3027-1.1488.4424-.2018.07-.3958.14-.5976.21-.4037.14-.815.264-1.2342.3881s-.8538.2484-1.2884.3571l1.3893-1.7232C92.79,93.9076,97.3457,92.363,97.6251,92.27Z" style="fill:#333a19"/><path d="M79.447,56.0921a4.2092,4.2092,0,0,1-.3027,1.5678c-.0776-.0155-.1708-.0388-.2484-.0465h-.0078q-.8149-.163-1.6532-.2561a.0076.0076,0,0,1-.0078-.0078c-.45-.0544-.9081-.0854-1.3738-.1009,0,0,2.0491-2.802-.1708-5.3091a1.03,1.03,0,0,1,.2174.0233,3.9851,3.9851,0,0,1,1.9094.815A4.1691,4.1691,0,0,1,79.447,56.0921Z" style="fill:#3e491e"/></svg>