<svg id="Camada_1" data-name="Camada 1" xmlns="http://www.w3.org/2000/svg" viewBox="0 0 150 150"><path d="M91.07,89.53c-5.63-.22-11.46-.47-15.45-.48-10.19,0-33.74,3.19-33.74.23,0-.89,5.59-4.26,12.6-7.42a102.6106,102.6106,0,0,1,9.77-3.83,39.6786,39.6786,0,0,1,11.37-2.27,34.6263,34.6263,0,0,1,8.78,1.27c.04.49.06.96.08,1.41a35.4248,35.4248,0,0,1-.25,6.39c-.02.17-.04.26-.04.26Z" style="fill:#ce9064"/><path d="M87.77,62.589c0,1.3992-5.2594,5.03-11.7472,5.03s-11.7473-3.6305-11.7473-5.03,5.2594-2.1553,11.7473-2.1553S87.77,61.19,87.77,62.589Z" style="fill:#814916"/><path d="M94.38,76.62c-2.4.54-4.65,1-6.8,1.35-1.06.19-2.09.34-3.1.47-.02-.45-.04-.92-.08-1.41a47.2474,47.2474,0,0,0-2.57-12.28c1.73-.97,3.89-1.23,5.97-2.2Z" style="fill:#8e5035"/><path d="M84.23,84.83c-11.5.81-26.95-.3-29.75-2.97l-.04-.04,2.66-5.2,7.18-14.07c1.79.83,3.64,1.14,5.16,1.97,6.49,3.53,6.49,3.53,12.39.23A47.2474,47.2474,0,0,1,84.4,77.03c.04.49.06.96.08,1.41A35.4248,35.4248,0,0,1,84.23,84.83Z" style="fill:#ce9064"/><path d="M84.48,78.44a35.4248,35.4248,0,0,1-.25,6.39c-11.5.81-26.95-.3-29.75-2.97l-.04-.04,2.66-5.2c2.53.58,4.9,1.05,7.15,1.41A65.5374,65.5374,0,0,0,84.48,78.44Z" style="fill:#91af5f"/><path d="M108.12,89.32c0,.84-8.27.56-17.05.21l-6.88-4.44s.02-.09.04-.26c6.21-.43,11.26-1.42,12.56-3.02C103.35,85.1,108.12,88.62,108.12,89.32Z" style="fill:#8e5035"/><path d="M94.38,76.62c-2.4.54-4.65,1-6.8,1.35-1.06.19-2.09.34-3.1.47a35.4248,35.4248,0,0,1-.25,6.39c6.21-.43,11.26-1.42,12.56-3.02l.01-.01Z" style="fill:#578246"/></svg>