<svg id="Camada_1" data-name="Camada 1" xmlns="http://www.w3.org/2000/svg" viewBox="0 0 150 150"><path d="M113.475,83.3342c-11.67-.79-25.91,14.02-37.75,14.01a16.6565,16.6565,0,0,1-2.2-.16h-.01c-11.43-1.59-25.18-14.48-36.99-13.9,0-1.03,6.47-2.66,14.6-4.05a166.2191,166.2191,0,0,1,24.6-2.52c2.8,0,5.74.14,8.68.4a24.283,24.283,0,0,1-4.31,5.92c.21-.01.41-.01.62-.02.56-.01,1.13-.03,1.68-.06.76-.03,1.51-.06,2.25-.11.16-.01.32-.02.49-.03.32-.02.65-.04.97-.07q.24-.0152.48-.03c.47-.04.94-.08,1.4-.12.16-.02.31-.03.46-.05.31-.03.61-.06.91-.09.15-.02.29-.04.44-.05.41-.05.8-.1,1.19-.15.55-.08,1.09-.15,1.6-.24.5-.08.98-.16,1.45-.25.08-.01.15-.03.22-.04.12-.03.24-.05.36-.08.59-.12,1.15-.26,1.67-.4.17-.05.33-.09.49-.14.18-.05.34-.1.51-.16.24-.08.48-.16.7-.25.26-.1.49-.2.72-.3.22-.1.42-.21.61-.32a2.4165,2.4165,0,0,0,.21-.13,2.9765,2.9765,0,0,0,.29-.2.2117.2117,0,0,0,.08-.06c.07-.06.14-.11.2-.17s.12-.13.18-.19C107.915,80.8042,113.475,82.5142,113.475,83.3342Z" style="fill:#ce9064"/><path d="M98.845,73.1942a117.4886,117.4886,0,0,1-13.69,2.33q-.345.825-.75,1.59a24.283,24.283,0,0,1-4.31,5.92c-.17,0-.35.01-.52.01-.51.01-1.03.02-1.56.02-.52.01-1.04.01-1.56.01-.3,0-.59,0-.88-.01h-.23c-.28,0-.56,0-.84-.01h-.09c-.72-.01-1.43-.03-2.14-.05-.11,0-.23,0-.34-.01h-.18c-.35-.01-.69-.03-1.03-.04s-.69-.03-1.03-.05c-.51-.02-1.01-.05-1.5-.08l-.51-.03c-.67-.04-1.33-.09-1.97-.14-.81-.06-1.6-.14-2.37-.22-.66-.07-1.31-.14-1.93-.22-.36-.05-.72-.09-1.07-.14-.51-.07-1.02-.15-1.5-.23-.27-.04-.54-.09-.8-.14a34.351,34.351,0,0,1-3.5-.79c-.2-.06-.4-.12-.59-.18-.19-.07-.37-.13-.54-.19-.18-.07-.35-.13-.51-.2a2.2866,2.2866,0,0,1-.23-.1,1.4722,1.4722,0,0,1-.22-.1c-.15-.07-.28-.14-.41-.21a3.98,3.98,0,0,1-.93-.66.1587.1587,0,0,1,.01-.04c.09-.32.71-2.61,1.67-5.55l.15-.45c1.71-5.16,4.37-12.02,6.96-13.88,3.51-2.51,29.4-2.2,32.61,0a5.4226,5.4226,0,0,1,.83.73C95.595,62.5742,97.575,68.5642,98.845,73.1942Z" style="fill:#ce9064"/><path d="M85.155,75.5242q-.345.825-.75,1.59a24.283,24.283,0,0,1-4.31,5.92c-.17,0-.35.01-.52.01-.51.01-1.03.02-1.56.02-.52.01-1.04.01-1.56.01-.3,0-.59,0-.88-.01h-.69c-.13,0-.26,0-.38-.01h-.09c-.72-.01-1.43-.03-2.14-.05-.11,0-.23,0-.34-.01h-.18c-.35-.01-.69-.03-1.03-.04s-.69-.03-1.03-.05c-.51-.02-1.01-.05-1.5-.08l-.51-.03c-.67-.04-1.33-.09-1.97-.14-.81-.06-1.6-.14-2.37-.22-.66-.07-1.31-.14-1.93-.22-.36-.05-.72-.09-1.07-.14-.51-.07-1.02-.15-1.5-.23-.27-.04-.54-.09-.8-.14a34.351,34.351,0,0,1-3.5-.79c-.2-.06-.4-.12-.59-.18-.19-.07-.37-.13-.54-.19a.1875.1875,0,0,1-.07-.02c-.16-.06-.3-.12-.44-.18-.01,0-.03-.01-.04-.01-.06-.03-.13-.06-.19-.09a1.4722,1.4722,0,0,1-.22-.1c-.15-.07-.28-.14-.41-.21a3.98,3.98,0,0,1-.93-.66.1587.1587,0,0,1,.01-.04c.09-.32.71-2.61,1.67-5.55l.15-.45C64.615,75.8842,74.505,76.6342,85.155,75.5242Z" style="fill:#603b23"/><path d="M99.815,79.7442a1.343,1.343,0,0,1-.14.11l-.15.09A2.9765,2.9765,0,0,0,99.815,79.7442Z" style="fill:#683a16"/><path d="M75.3981,67.5972c-.0022-.0378-.2449-3.8038-2.5726-5.8558A5.5588,5.5588,0,0,0,68.61,60.4323l-.006-.0877a5.6449,5.6449,0,0,1,4.28,1.3313c2.3553,2.0765,2.6,5.8781,2.6019,5.9163Z" style="fill:#683a16"/><path d="M80.3842,63.6734l-.0783-.0187c.0073-.0338.7444-3.372,3.9083-3.372v.0879C81.1382,60.3706,80.3914,63.64,80.3842,63.6734Z" style="fill:#683a16"/><path d="M85.155,75.5242a16.9429,16.9429,0,0,0,1.09-10.73,32.0129,32.0129,0,0,0,7.1-4.71c2.25,2.49,4.23,8.48,5.5,13.11A117.4886,117.4886,0,0,1,85.155,75.5242Z" style="fill:#8e483c"/><path d="M100.3251,79.2041a1.059,1.059,0,0,1-.03-.14c-.01-.02-.01-.05-.02-.08q-.015-.06-.03-.15c-.02-.09-.04-.19-.07-.31-.02-.09-.04-.19-.07-.29-.02-.11-.05-.22-.08-.35-.05-.22-.11-.47-.17-.74-.04-.18-.09-.38-.14-.59-.04-.14-.08-.29-.11-.45-.07-.28-.14-.57-.22-.87q-.24-.96-.54-2.04a117.49,117.49,0,0,1-13.69,2.33q-.345.8249-.75,1.59a24.2835,24.2835,0,0,1-4.31,5.92c.21-.01.41-.01.62-.02.56-.01,1.13-.03,1.68-.06.76-.03,1.51-.06,2.25-.11.16-.01.32-.02.49-.03.32-.02.65-.04.97-.07l.48-.03c.47-.04.94-.08,1.4-.12.16-.02.31-.03.46-.05.31-.03.61-.06.91-.09.15-.02.29-.04.44-.05.41-.05.8-.1,1.19-.15.55-.08,1.09-.15,1.6-.24.5-.08.98-.16,1.45-.25.08-.01.15-.03.22-.04.12-.03.24-.05.36-.08.59-.12,1.15-.26,1.67-.4.17-.05.33-.09.49-.14.18-.05.34-.1.51-.16.24-.08.48-.16.7-.25.26-.1.49-.2.72-.3.22-.1.42-.21.61-.32a2.398,2.398,0,0,0,.21-.13,3,3,0,0,0,.29-.2.2126.2126,0,0,0,.08-.06c.07-.06.14-.11.2-.17s.12-.13.18-.19c.02-.02.04-.05.06-.07A.1753.1753,0,0,0,100.3251,79.2041Z" style="fill:#3a1b19"/><path d="M113.475,83.3341c-11.67-.79-25.91,14.02-37.75,14.01a16.64,16.64,0,0,1-2.2-.16c8.66-3.14,23.64-9.89,6.57-14.15.21-.01.41-.01.62-.02.56-.01,1.13-.03,1.68-.06.76-.03,1.51-.06,2.25-.11.16-.01.32-.02.49-.03.32-.02.65-.04.97-.07l.48-.03c.47-.04.94-.08,1.4-.12.16-.02.31-.03.46-.05.31-.03.61-.06.91-.09.15-.02.29-.04.44-.05.41-.05.8-.1,1.19-.15.55-.08,1.09-.15,1.6-.24.5-.08.98-.16,1.45-.25.08-.01.15-.03.22-.04.12-.03.24-.05.36-.08.59-.12,1.15-.26,1.67-.4.17-.05.33-.09.49-.14.18-.05.34-.1.51-.16.24-.08.48-.16.7-.25.26-.1.49-.2.72-.3.22-.1.42-.21.61-.32a2.3687,2.3687,0,0,0,.21-.13,2.9757,2.9757,0,0,0,.29-.2.2111.2111,0,0,0,.08-.06c.07-.06.14-.11.2-.17s.12-.13.18-.19C107.915,80.8041,113.475,82.5142,113.475,83.3341Z" style="fill:#8e483c"/></svg>