<svg id="Camada_1" data-name="Camada 1" xmlns="http://www.w3.org/2000/svg" viewBox="0 0 150 150"><path d="M99.8617,87.7v.03a92.22,92.22,0,0,0-12.96-2.36c-1.15,3.22-4.63,5.56-7.53,7.03-5.57-1.57-8.14-.68-17.61,2.6-5.64,1.96-11.62,4.56-11.62-7.29V87.7s8.79-7.86,24.62-7.86a41.4765,41.4765,0,0,1,12.09,1.97A57.4888,57.4888,0,0,1,99.8617,87.7Z" style="fill:#684931"/><path d="M99.8617,87.73a92.22,92.22,0,0,0-12.96-2.36,107.9834,107.9834,0,0,0-36.76,2.34.3227.3227,0,0,0-.06.02c-2.54-2.54,5.94-23.62,25.14-23.62.79,0,1.57.04,2.32.11C94.5617,65.85,102.4916,85.1,99.8617,87.73Z" style="fill:#966d48"/><path d="M99.8617,87.73c-.01,12.55-6.58,9.64-12.48,7.45-3.43-1.27-5.93-2.2-8.01-2.78,2.9-1.47,6.38-3.81,7.53-7.03A92.22,92.22,0,0,1,99.8617,87.73Z" style="fill:#4c2825"/><path d="M99.8617,87.73a92.22,92.22,0,0,0-12.96-2.36,11.7658,11.7658,0,0,0-.05-3.56c-.48-3.67-2.43-9.94-9.31-17.59C94.5617,65.85,102.4916,85.1,99.8617,87.73Z" style="fill:#703f37"/></svg>