<svg id="Camada_1" data-name="Camada 1" xmlns="http://www.w3.org/2000/svg" viewBox="0 0 150 150"><defs><style>.cls-1{fill:#233a36;}.cls-2{fill:#111c1e;}</style></defs><path class="cls-1" d="M94.51,127.35l-1.22,2.8s1,4.08,2,4.58c.74.38-.42,4.28-2.26,7.36l0,0a27.38,27.38,0,0,1-2,2.61c-2,.4-3.88.7-5.74.94l-.61.08c-.48.05-1,.11-1.47.15h0L82,146c-1.11.1-2.18.17-3.23.21l-.89,0a3.53,3.53,0,0,0-3.11-2.53c-1.82-.13-2.67,2-2.85,2.51-.8,0-1.59-.07-2.34-.12-1.55-.11-3-.25-4.24-.41-.72-.09-1.39-.19-2-.28-1.48-.24-2.66-.47-3.5-.66-1-1-1.73-1.9-2-2.19a.2.2,0,0,0-.06-.09l0,0,0,0h0c-.12-.14-.25-.28-.36-.43l0,0a17.28,17.28,0,0,1-3.09-6.69.66.66,0,0,1,0-.14c-.06-.52,0-.87.2-1,.9-.45,1.81-3.76,2-4.45l0,0,0,0,0-.05L53,121.69h0l-1.43-3.31L46,105.28l1.74-1.18.41-.28,6.22,13.47.19.43L59,127.55l.74-.41a22.59,22.59,0,0,1,6.23-1.9l.42-.07a81,81,0,0,1,17.15.56,21.33,21.33,0,0,1,7.15,2.3l4.76-10.33,6.37-13.84,0,0h0l1,.7.84.57.28.19h0Z"/><path class="cls-2" d="M82,146c-1.11.1-2.18.17-3.23.21l-.89,0a3.53,3.53,0,0,0-3.11-2.53c-1.82-.13-2.67,2-2.85,2.51-.8,0-1.59-.07-2.34-.12-1.55-.11-3-.25-4.24-.41.8-1.47,1.13-3.7,0-7.05a16.81,16.81,0,0,0,17.44.64A23.77,23.77,0,0,0,82,146Z"/><path class="cls-2" d="M93.07,142.09l0,0a27.38,27.38,0,0,1-2,2.61c-2,.4-3.88.7-5.74.94l-.61.08c3-2.92,7.66-8.44,8.61-15.61,0,0,1,4.08,2,4.58C96.07,135.11,94.91,139,93.07,142.09Z"/></svg>