<svg id="Camada_1" data-name="Camada 1" xmlns="http://www.w3.org/2000/svg" viewBox="0 0 150 150"><defs><style>.cls-1{fill:#845d40;}.cls-2{fill:#684931;}.cls-3{fill:#222323;}.cls-4{fill:#eeeeed;}.cls-5{fill:#4c2825;}.cls-6{fill:#703f37;}.cls-7{fill:#c3d4d8;}</style></defs><path class="cls-1" d="M92.86,84.08h-.07l-.87.08h0c-1.94.17-3.7.31-5.33.43l-1.25.09-1.87.13-1.07.07c-1.31.07-2.54.13-3.73.17h0c-2.51.09-4.84.1-7.31,0-1,0-2-.08-3.13-.14l-1.47-.09-1.29-.08-.68-.05-2.53-.19-1.2-.1-1.88-.16L58,84.16l-2.54-.23-1.5-.13-3.8-.35c.1-.26.2-.51.31-.77s.29-.67.45-1c.26-.56.53-1.12.83-1.68.11-.23.23-.45.35-.67l.37-.68c.37-.67.78-1.33,1.21-2,.21-.33.43-.66.65-1s.44-.65.68-1h0c4.12-5.64,9.85-10.4,16.33-11.8a18,18,0,0,1,3.88-.43,17.05,17.05,0,0,1,3.43.34A18.88,18.88,0,0,1,82.8,64.1C91.56,73.9,92.75,83.07,92.86,84.08Z"/><path class="cls-2" d="M100.89,92.1c-4.79,1-8.69,1.8-12,2.41h0c-14.62,2.72-18.53,1.91-39.52-2.42-2.14-.44,0-8.72,0-8.72l.78.07,3.8.35,1.5.13,2.54.23,1.17.1,1.88.16,1.2.1,2.53.19.68.05,1.29.08,1.47.09c1.08.06,2.12.11,3.13.14V61.65h7.31V85.06c1.19,0,2.42-.1,3.73-.17l1.07-.07,1.87-.13,1.25-.09c1.63-.12,3.39-.26,5.33-.43h0l.87-.08h.14c1.63-.14,3.39-.29,5.3-.47l2.66-.23S103,91.66,100.89,92.1Z"/><circle class="cls-3" cx="75.04" cy="82.16" r="1.58"/><path class="cls-3" d="M76.62,74.22A1.59,1.59,0,1,1,75,72.63,1.58,1.58,0,0,1,76.62,74.22Z"/><path class="cls-3" d="M76.62,67.2A1.59,1.59,0,1,1,75,65.61,1.58,1.58,0,0,1,76.62,67.2Z"/><path class="cls-4" d="M55,74.7c-.59.8-1.14,1.63-1.66,2.46a37.84,37.84,0,0,0-2.88,5.52A18.29,18.29,0,0,1,37.27,57.91,18.29,18.29,0,0,0,55,74.7Z"/><path class="cls-4" d="M114.06,64.78a17.91,17.91,0,0,1-.68,4.94A18.31,18.31,0,0,1,99.91,82.61c-.33-.78-.7-1.57-1.1-2.35L98.66,80l-.19-.35c-.31-.6-.65-1.2-1-1.79q-.15-.27-.33-.54c-.13-.22-.27-.43-.41-.65s-.43-.65-.65-1-.44-.64-.68-1a18.31,18.31,0,0,0,17.34-16.78A18.24,18.24,0,0,1,114.06,64.78Z"/><path class="cls-5" d="M100.89,83.38l-2.66.23c-1.91.18-3.67.33-5.3.47h-.07a.45.45,0,0,1,0,.08h-1a22.2,22.2,0,0,1-3,10.34c3.34-.61,7.24-1.42,12-2.41C103,91.66,100.89,83.38,100.89,83.38Z"/><path class="cls-6" d="M100.25,83.43l-2,.18c-1.91.18-3.67.33-5.3.47h-.07c-.11-1-1.3-10.18-10.06-20,4.94,2.1,9.28,6.06,12.59,10.59l.68,1c.22.32.44.64.65,1s.28.43.41.65.23.36.33.54c.36.59.7,1.19,1,1.79.12.22.24.44.34.66.4.78.77,1.57,1.1,2.35Z"/><path class="cls-7" d="M113.38,69.72A18.31,18.31,0,0,1,99.91,82.61c-.33-.78-.7-1.57-1.1-2.35L98.66,80A26.21,26.21,0,0,0,113.38,69.72Z"/><path class="cls-7" d="M53.32,77.16a37.84,37.84,0,0,0-2.88,5.52,18.25,18.25,0,0,1-9.6-5.44c2.75,1.85,6.73,2.41,12.46-.07Z"/></svg>