<svg id="Camada_1" data-name="Camada 1" xmlns="http://www.w3.org/2000/svg" viewBox="0 0 150 150"><path d="M115.3987,61.5588c-.9966,4.7485-8.153,9.1091-13.2879,4.7485-1.642-1.3905-3.0657-3.68-4.0243-7.1227a.0728.0728,0,0,0-.01-.0283c-.0284-.0946-.0474-.1892-.0759-.2838h-.019a.0855.0855,0,0,0-.0474-.01c-5.7043-1.1351-7.745,4.2944-8.4663,8.1064-.1613.8229-.2562,1.57-.3132,2.1566-.0095.0852-.019.17-.0285.246C89.07,70.0436,89.06,70.46,89.06,70.46l-3.9389-2.5729S79.55,59.27,83.9729,55.0322a3.4132,3.4132,0,0,0,1.3,3.6606c-1.49-4.635,4.7552-16.9127,19.6945-9.6672-2.8-.3688-3.9673.6244-3.9673.6244a16.3886,16.3886,0,0,1,5.467.2459h.01a.4083.4083,0,0,0,.0474.0094C111.8015,51.0121,116.8509,54.6632,115.3987,61.5588Z" style="fill:#efefee"/><path d="M105.2429,53.2917c-.0663-.0284-.1518-.0662-.2467-.1041s-.19-.0851-.2942-.1229a2.4208,2.4208,0,0,1-.3417-.1135,1.8165,1.8165,0,0,0-.19-.0473c-.0664-.019-.1328-.0379-.2088-.0568-.1329-.0378-.2752-.0473-.4271-.0757a3.6693,3.6693,0,0,0-.465-.0472c-.038,0-.076-.01-.1234-.01h-.1234a2.2265,2.2265,0,0,0-.2468.01,2.3482,2.3482,0,0,0-.2562.0188,2.4042,2.4042,0,0,0-.2563.0379c-.0855.0095-.1709.0284-.2658.0473-.0854.0189-.1708.0473-.2562.0662-.038.01-.0855.0284-.1329.0378l-.1234.0473c-.0854.0284-.1709.0568-.2563.0946a5.0747,5.0747,0,0,0-.9586.5581,4.305,4.305,0,0,0-.4935.4256l-.01.01c-.1139.1041-.2088.2081-.3133.3216-.0569.0662-.1139.1419-.1708.2081-.057.0757-.1139.1514-.1613.2176-.057.0756-.1044.1513-.1519.227s-.0949.1419-.1424.2176c-.0379.0756-.0854.1513-.1234.227l-.1139.227a.5766.5766,0,0,0-.0474.1135.5707.5707,0,0,0-.0474.1135c-.0285.0757-.0665.1514-.095.227-.0474.1514-.1044.3027-.1329.4446a3.4875,3.4875,0,0,0-.1044.4257l-.0284.1986a1.415,1.415,0,0,0-.019.1892c-.01.0662-.01.1229-.019.1891v.17a4.6183,4.6183,0,0,0,.038.577c.0189.0851.0284.1514.0474.2081.01.0662.0285.1135.038.1608.0285.0852.038.123.038.123l-.057.0189-.019.0095-.038.0094a.074.074,0,0,0-.0094-.0284.4992.4992,0,0,1-.0285-.104c-.01-.0379-.0285-.0946-.038-.1514-.019-.0662-.0285-.1418-.0474-.227a4.9589,4.9589,0,0,1-.038-.5959V57.7a.3205.3205,0,0,0,.01-.0946c.01-.0568.01-.123.019-.1892a.9365.9365,0,0,1,.0189-.1608c0-.0189.0095-.0473.0095-.0757a.479.479,0,0,1,.0285-.1608,4.1361,4.1361,0,0,1,.1044-.4351c.038-.1419.0855-.2932.1424-.4446.0285-.0756.0664-.1513.0949-.227.019-.0378.0285-.0757.0475-.1229l.0569-.1135.1139-.227c.0474-.0757.0854-.1514.1329-.2271a.7082.7082,0,0,1,.0664-.1135.36.36,0,0,1,.0854-.1229,1.4271,1.4271,0,0,1,.1424-.2176c.057-.0662.1044-.1419.1613-.2176.0665-.0662.1234-.1419.18-.2081a5.7473,5.7473,0,0,1,.8352-.7567,4.9752,4.9752,0,0,1,.9777-.5486c.0853-.0379.1708-.0662.2562-.1041l.1329-.0473c.0474-.0094.0854-.0189.1329-.0283a2.1719,2.1719,0,0,1,.2657-.0662,2.4258,2.4258,0,0,1,.2563-.0474,2.6072,2.6072,0,0,1,.2658-.0378c.0854,0,.1708-.0189.2562-.0189h.37c.0474,0,.0854.0094.1234.0094.1613.019.3227.019.465.0473.1519.0284.3037.0474.4366.0852l.1993.0567a1.1182,1.1182,0,0,1,.19.0568q.1851.0567.3417.1135a3.0994,3.0994,0,0,1,.2942.123C105.0911,53.216,105.1671,53.2539,105.2429,53.2917Z" style="fill:#bdbcbb"/><path d="M89.6535,70.5556l-.0914-.1863-.11-.2237-.138-.31c-.1014-.2331-.2149-.5195-.33-.8537a10.7655,10.7655,0,0,1-.32-1.1426,10.5,10.5,0,0,1-.2266-2.9513,11.6344,11.6344,0,0,1,.2281-1.6563,12.968,12.968,0,0,1,.4732-1.6593,14.7651,14.7651,0,0,1,.675-1.5874c.25-.5112.5275-.9987.8121-1.46s.5826-.8927.8763-1.2932.5881-.767.8671-1.0988c.5595-.6626,1.0644-1.1809,1.4276-1.5326s.5856-.5374.5856-.5374-.2207.1872-.5819.5411-.8621.8754-1.4167,1.541c-.2766.3333-.5675.7017-.859,1.1032s-.5852.8346-.8663,1.2967-.5542.95-.8,1.4614a14.7318,14.7318,0,0,0-.6621,1.586,12.8882,12.8882,0,0,0-.46,1.6538,11.52,11.52,0,0,0-.2158,1.6467,10.4038,10.4038,0,0,0,.2437,2.924,10.6311,10.6311,0,0,0,.3238,1.1293c.1163.33.2308.6134.3323.8427l.1379.3049.1112.223.0926.1857Z" style="fill:#bdbcbb"/><path d="M105.68,53.5092a.0351.0351,0,0,1-.0285-.0094c-.038-.0189-.0949-.0473-.1614-.0757-.8067-.3405-3.6162-1.3337-5.913.6337l-.01.01a5.424,5.424,0,0,0-.8543.9176.36.36,0,0,0-.0854.1229,4.2811,4.2811,0,0,0-.7878,2.0715c0,.0284-.0095.0568-.0095.0757a4.6786,4.6786,0,0,0,.1519,1.6175v.0095l-.038.0094a.074.074,0,0,0-.0094-.0284c-5.7043-1.1351-7.745,4.2944-8.4663,8.1064l-.7783.454-.0949.0662-.18.1041.0285-1.3526.0284-1.7121s0-.0473.01-.1419c.0095-.0757.019-.1514.0285-.2365a1.05,1.05,0,0,1,.019-.1608c.019-.1324.038-.2648.0664-.3973.019-.1229.0379-.2364.0664-.3594.0095-.0378.0191-.0852.0285-.1324.0569-.2365.1139-.473.18-.7.0855-.2838.1709-.5581.2658-.8324,0-.0189,0-.0283.01-.0378a17.4017,17.4017,0,0,1,4.6507-6.9335c.076-.0662.1424-.1324.2184-.1986l.0284-.0284c.0285-.0284.0665-.0567.1044-.0946A.6164.6164,0,0,0,94.233,54.2a1.9122,1.9122,0,0,0,.1519-.1325A8.8586,8.8586,0,0,1,105.68,53.5092Z" style="fill:#c2c8ce"/><path d="M115.3987,61.5588c-.9966,4.7485-8.153,9.1091-13.2879,4.7485,2.8854-.2365,8.9788-1.4473,9.349-7.4159.4556-7.378-4.3565-8.8347-4.9355-8.9861C111.8015,51.0121,116.8509,54.6632,115.3987,61.5588Z" style="fill:#c2c8ce"/><path d="M110.2164,78.5283c-.8258,4.9376-10.1557,6.46-10.1557,6.46l-.1519-.0189c.0475-.577.095-1.1635.1519-1.74a64.0841,64.0841,0,0,0-12.576-4.6916l-.541,5.1551L75.5256,82.5578,58.7071,84.1659a18.4678,18.4678,0,0,0,1.9552-.7473V79.0107A62.7366,62.7366,0,0,0,49.89,83.2483c.0569.5865.1043,1.173.1423,1.75l-.1423.0094c-.2373-.0378-.4746-.0851-.6929-.1229-2.3539-.4541-10.0229-2.0621-11.4845-4.2377-1.1769-1.731.0379-6.6591,1.4142-8.2388,6.3971-7.3686,28.0184-16.014,37.0826-12.3629,1.7558.7094,4.0053,1.5229,6.5015,2.412,1.8129.6433,3.7681,1.3432,5.7612,2.0716.0285.0094.0475.0189.076.0284.4555.1608.9111.331,1.3667.5013,3.1891,1.1918,6.4351,2.4594,9.3584,3.8025C105.7935,71.85,110.7764,75.17,110.2164,78.5283Z" style="fill:#276175"/><path d="M87.4847,78.5378l-.541,5.1551-.1613,1.5418a88.3416,88.3416,0,0,1,12.8607,4.6444c.0284-1.5324.1234-3.2066.2657-4.9092.0475-.577.095-1.1635.1519-1.74A64.0841,64.0841,0,0,0,87.4847,78.5378Z" style="fill:#0e1d2d"/><path d="M110.2164,78.5283c-.8258,4.9376-10.1557,6.46-10.1557,6.46l-.1519-.0189c.0475-.577.095-1.1635.1519-1.74a64.0841,64.0841,0,0,0-12.576-4.6916s-8.7415-7.4632,7.631-4.72c10.393,1.74,7.5931-1.9958,4.1572-4.9565C105.7935,71.85,110.7764,75.17,110.2164,78.5283Z" style="fill:#214960"/><path d="M60.6623,79.0107A62.7366,62.7366,0,0,0,49.89,83.2483c.0569.5865.1043,1.173.1423,1.75v.0283c.1234,1.6932.19,3.3391.18,4.8525,5.8752-2.639,15.319-6.347,24.7913-6.3281a46.9134,46.9134,0,0,1,11.7788,1.6837l.1613-1.5418.541-5.1551A50.7652,50.7652,0,0,0,60.6623,79.0107Z" style="fill:#172738"/><path d="M49.89,83.2483c.0569.5865.1043,1.173.1423,1.75v.0283a.73.73,0,0,1-.1423-.0189c-.2373-.0378-.4746-.0851-.6929-.1229-4.8975-1.0121-5.6474-3.4053-2.705-5.4862,3.0846-2.1757,14.1705-.3879,14.1705-.3879A62.7366,62.7366,0,0,0,49.89,83.2483Z" style="fill:#214960"/></svg>