<svg id="Camada_1" data-name="Camada 1" xmlns="http://www.w3.org/2000/svg" viewBox="0 0 150 150"><defs><style>.cls-1{fill:#412412;}.cls-2{fill:#ce9064;}.cls-3{fill:#603b23;}.cls-4{fill:#683a16;}.cls-5{fill:#8e483c;}.cls-6{fill:#3a1b19;}</style></defs><path class="cls-1" d="M36.53,83.24c4.26,11.45,39.18,17.87,39.18,17.87s31-6.42,37.76-17.82L76.19,78.57Z"/><path class="cls-2" d="M113.48,83.33c-11.67-.79-25.91,14-37.75,14a16.79,16.79,0,0,1-2.21-.16h0c-11.43-1.59-25.18-14.48-37-13.9,0-1,6.48-2.66,14.61-4a166.22,166.22,0,0,1,24.6-2.52c2.79,0,5.73.14,8.67.4A24.11,24.11,0,0,1,80.1,83l.61,0c.56,0,1.14,0,1.69-.06.75,0,1.5-.06,2.25-.11l.49,0,1-.07.48,0,1.4-.12.46,0,.91-.09.44,0L91,82.25c.55-.08,1.09-.15,1.6-.24L94,81.76l.22,0,.36-.08c.59-.12,1.15-.26,1.67-.4l.48-.14.52-.16c.23-.08.48-.16.7-.25l.72-.3c.22-.1.42-.21.61-.32a1.37,1.37,0,0,0,.2-.13,2.23,2.23,0,0,0,.3-.2.21.21,0,0,0,.08-.06l.2-.17.17-.19C107.92,80.8,113.48,82.51,113.48,83.33Z"/><path class="cls-2" d="M98.85,73.19a117.62,117.62,0,0,1-13.7,2.33,14.46,14.46,0,0,1-.75,1.59A24.11,24.11,0,0,1,80.1,83h-.52l-1.56,0h-3.6l-2.15,0h-.51l-1,0-1,0-1.5-.08-.51,0-2-.14c-.81-.06-1.59-.14-2.36-.22l-1.93-.22-1.07-.14-1.5-.23-.8-.14a34.35,34.35,0,0,1-3.5-.79L54,80.73l-.54-.19-.52-.2-.22-.1a1.12,1.12,0,0,1-.22-.1l-.41-.21a3.77,3.77,0,0,1-.93-.66v0c.08-.32.71-2.61,1.67-5.55l.15-.45c1.7-5.16,4.37-12,6.95-13.88,3.52-2.51,29.41-2.2,32.62,0a5.43,5.43,0,0,1,.83.73C95.6,62.57,97.58,68.56,98.85,73.19Z"/><path class="cls-3" d="M85.15,75.52a14.46,14.46,0,0,1-.75,1.59A24.11,24.11,0,0,1,80.1,83h-.52l-1.56,0h-3.6l-2.15,0h-.51l-1,0-1,0-1.5-.08-.51,0-2-.14c-.81-.06-1.59-.14-2.36-.22l-1.93-.22-1.07-.14-1.5-.23-.8-.14a34.35,34.35,0,0,1-3.5-.79L54,80.73l-.54-.19-.07,0-.45-.18h0l-.19-.09a1.12,1.12,0,0,1-.22-.1l-.41-.21a3.77,3.77,0,0,1-.93-.66v0c.08-.32.71-2.61,1.67-5.55l.15-.45C64.62,75.88,74.51,76.63,85.15,75.52Z"/><path class="cls-4" d="M99.82,79.74l-.14.11-.16.09A2.23,2.23,0,0,0,99.82,79.74Z"/><path class="cls-4" d="M75.4,67.6s-.25-3.81-2.57-5.86a5.61,5.61,0,0,0-4.22-1.31v-.09a5.66,5.66,0,0,1,4.28,1.34c2.36,2.07,2.6,5.87,2.61,5.91Z"/><path class="cls-4" d="M80.38,63.67l-.07,0s.74-3.37,3.9-3.37v.09C81.14,60.37,80.39,63.64,80.38,63.67Z"/><path class="cls-5" d="M85.15,75.52a16.87,16.87,0,0,0,1.1-10.73,32,32,0,0,0,7.1-4.71c2.25,2.49,4.23,8.48,5.5,13.11A117.62,117.62,0,0,1,85.15,75.52Z"/><path class="cls-6" d="M100.33,79.2a1.06,1.06,0,0,1,0-.14s0,0,0-.08,0-.09,0-.15,0-.19-.08-.31,0-.19-.06-.29,0-.22-.08-.35-.12-.47-.17-.74-.09-.38-.14-.59a3,3,0,0,1-.11-.45c-.07-.28-.14-.57-.22-.87q-.24-1-.54-2a117.47,117.47,0,0,1-13.69,2.33q-.34.83-.75,1.59A24.29,24.29,0,0,1,80.1,83l.62,0c.56,0,1.13,0,1.68-.06.76,0,1.51-.06,2.25-.11l.49,0,1-.07.48,0,1.4-.12.46,0,.91-.09.44,0L91,82.25c.55-.08,1.09-.15,1.6-.24L94,81.76l.22,0,.36-.08c.59-.12,1.15-.26,1.67-.4l.49-.14.51-.16c.24-.08.48-.16.7-.25l.71-.3c.22-.1.43-.21.62-.32l.21-.13.29-.2a.21.21,0,0,0,.08-.06l.2-.17.18-.19.06-.07A.18.18,0,0,0,100.33,79.2Z"/><path class="cls-5" d="M113.48,83.33c-11.67-.79-25.91,14-37.75,14a16.79,16.79,0,0,1-2.21-.16C82.19,94,97.17,87.29,80.1,83l.61,0c.56,0,1.14,0,1.69-.06.75,0,1.5-.06,2.25-.11l.49,0,1-.07.48,0,1.4-.12.46,0,.91-.09.44,0L91,82.25c.55-.08,1.09-.15,1.6-.24L94,81.76l.22,0,.36-.08c.59-.12,1.15-.26,1.67-.4l.48-.14.52-.16c.23-.08.48-.16.7-.25l.72-.3c.22-.1.42-.21.61-.32a1.37,1.37,0,0,0,.2-.13,2.23,2.23,0,0,0,.3-.2.21.21,0,0,0,.08-.06l.2-.17.17-.19C107.92,80.8,113.48,82.51,113.48,83.33Z"/></svg>