<svg id="Camada_1" data-name="Camada 1" xmlns="http://www.w3.org/2000/svg" viewBox="0 0 150 150"><defs><style>.cls-1{fill:#3a2826;}.cls-2{fill:#281a20;}.cls-3{fill:#cc6060;}.cls-4{fill:#b25b59;}.cls-5{fill:#a54646;}.cls-6{fill:#873a4b;}.cls-7{fill:#964d59;}.cls-8{fill:#934141;}.cls-9{fill:#aa575b;}</style></defs><path class="cls-1" d="M91,96.62c-4.94.41-10.32.63-16,.63-24,0-43.54-4.06-43.54-9.06,0-3.12,7.56-5.87,19.07-7.5l.84-.11A180.15,180.15,0,0,1,75,79.13c3.3,0,6.51.08,9.6.22,1.48.07,2.94.15,4.36.26l.62,0,.42,0q0,.61-.09,1.17c0,.44-.1.85-.17,1.24-.11.74-.25,1.39-.39,2a15.58,15.58,0,0,1-.67,2.12l.89.25.89.28.45,0a2.09,2.09,0,0,0,.08.23h0a21.44,21.44,0,0,1,2.24.88C99.89,90.85,95.66,94.28,91,96.62Z"/><path class="cls-1" d="M90,79.68q0,.61-.09,1.17H51.37V78.92a23.07,23.07,0,0,1,.24-3.35A23.63,23.63,0,0,1,75,55.29h.43C85.15,61.43,88.7,68.55,89.7,74.4c.07.4.13.79.17,1.17,0,.17,0,.33,0,.49h0l-.12.66a20.5,20.5,0,0,0-.22,2.92Z"/><path class="cls-2" d="M118.54,88.19c0,3.83-11.44,7.11-27.59,8.43,4.71-2.34,8.94-5.77,2.29-8.87a2.17,2.17,0,0,0,.54-.73c.88.2,1.76.38,2.64.57a1,1,0,0,0,1.26-.86c0-.33.1-.65.14-1h0l.24,0a2.27,2.27,0,0,0,1.69-2.6c-.1-.8-.19-1.61-.29-2.42C111,82.32,118.54,85.07,118.54,88.19Z"/><path class="cls-2" d="M98.39,75.57c-.46.08-.93.16-1.4.22-.11-.4-.24-.79-.38-1.18A1.06,1.06,0,0,0,95.22,74c-.84.35-1.67.69-2.51,1a2.22,2.22,0,0,0-1.81-.94h-.2a2.24,2.24,0,0,0-1,.33c-1-5.85-4.55-13-14.27-19.1a23.61,23.61,0,0,1,23,20.27Z"/><path class="cls-3" d="M90.91,86.64a2.09,2.09,0,0,0,.08.23l-.53-.18Z"/><path class="cls-4" d="M90.46,86.69l-.81.09c-1.29.13-2.58.24-3.88.32a148.63,148.63,0,0,1-33.83-1.39,2.24,2.24,0,0,1-1.71-2.46s0-.09,0-.14c.1-.8.2-1.61.29-2.42.21-1.73.42-3.46.62-5.19l.46.07a141.91,141.91,0,0,0,33.11,1.6c1.15-.07,2.31-.16,3.46-.28l.53,0c.36,0,.72-.06,1.09-.11a20.5,20.5,0,0,0-.22,2.92l.42,0q0,.61-.09,1.17c0,.44-.1.85-.17,1.24,0,.16,0,.31-.08.46h0c-.09.55-.2,1-.31,1.48a15.58,15.58,0,0,1-.67,2.12l.89.25Z"/><path class="cls-5" d="M92.65,86.45c.44,0,.88-.1,1.32-.17a2.84,2.84,0,0,1-.19.74l-1.19-.25Z"/><path class="cls-5" d="M98.63,80.58v.27h-.7l0-.37Z"/><path class="cls-4" d="M98.63,80.58v.27h-.7l0-.37Z"/><path class="cls-3" d="M94,86.28a2.84,2.84,0,0,1-.19.74l-1.19-.25.06-.32C93.09,86.4,93.53,86.35,94,86.28Z"/><path class="cls-6" d="M98,82.74a25.17,25.17,0,0,1-.19,3h0c0,.33-.09.65-.14,1a1,1,0,0,1-1.26.86c-.88-.19-1.76-.37-2.64-.57a2.84,2.84,0,0,0,.19-.74,2.41,2.41,0,0,0,0-.38l-.44-5.05L93.45,80l-.32-3.63,0-.27a2.25,2.25,0,0,0-.4-1.08c.84-.33,1.67-.67,2.51-1a1.06,1.06,0,0,1,1.39.63c.14.39.27.78.38,1.18a23.47,23.47,0,0,1,.91,4.68h0l0,.37C98,81.48,98,82.11,98,82.74Z"/><path class="cls-7" d="M99.75,83.11c-.1-.8-.19-1.61-.29-2.42-.2-1.73-.41-3.46-.62-5.19l-.45.07c-.46.08-.93.16-1.4.22a23.47,23.47,0,0,1,.91,4.68h0l0,.37c0,.63.08,1.26.08,1.89a25.17,25.17,0,0,1-.19,3l.24,0A2.27,2.27,0,0,0,99.75,83.11Z"/><path class="cls-7" d="M90.46,86.69l-.81.09c-1.29.13-2.58.24-3.88.32a148.63,148.63,0,0,1-33.83-1.39,2.24,2.24,0,0,1-1.71-2.46,6.14,6.14,0,0,0,3.51,1.42c7,1,28.95,5.59,31-7.5,1.15-.07,2.31-.16,3.46-.28.53,1.65,1,3.7,1.48,5.66h0c-.09.55-.2,1-.31,1.48a15.58,15.58,0,0,1-.67,2.12l.89.25Z"/><path class="cls-8" d="M91,86.87h0a2.09,2.09,0,0,1-.08-.23l-.45,0-.89-.28a.5.5,0,0,1,0-.12L89.35,84c.14-.56.28-1.21.39-2-.06-.41-.1-.82-.12-1.24s0-.8,0-1.2a20.5,20.5,0,0,1,.22-2.92l.12-.66h0c0-.16,0-.32,0-.49l-1-.21-2.7-.58a1.06,1.06,0,0,0-1.25.86c-.08.51-.15,1-.2,1.53a19.77,19.77,0,0,0-.12,2.18c0,.5,0,1,0,1.5a24.26,24.26,0,0,0,1.15,6.25c.07.22.14.44.22.66a1,1,0,0,0,1.38.63l2.56-1L91,86.91A.06.06,0,0,1,91,86.87Z"/><path class="cls-3" d="M90.23,74.16C92.52,79.18,92,88.3,92,88.3a2.22,2.22,0,0,1-2-1,2.16,2.16,0,0,1-.28-.57,1.53,1.53,0,0,1-.08-.37.5.5,0,0,1,0-.12L89.35,84l-.28-3.19L89,79.61l-.25-2.77,0-.37a2.31,2.31,0,0,1,.19-1.11,2.27,2.27,0,0,1,.83-1A2.32,2.32,0,0,1,90.23,74.16Z"/><path class="cls-9" d="M93.53,80.85,93.45,80l-.32-3.63,0-.27a2.25,2.25,0,0,0-.4-1.08,2.22,2.22,0,0,0-1.81-.94h-.2a1.86,1.86,0,0,0-.47.09C92.52,79.18,92,88.3,92,88.3A2.21,2.21,0,0,0,93.78,87a2.84,2.84,0,0,0,.19-.74,2.41,2.41,0,0,0,0-.38Z"/></svg>