<svg id="Camada_1" data-name="Camada 1" xmlns="http://www.w3.org/2000/svg" viewBox="0 0 150 150"><defs><style>.cls-1{fill:#91483c;}.cls-1,.cls-2,.cls-3,.cls-4{fill-rule:evenodd;}.cls-2{fill:#9e5a4d;}.cls-3{fill:#723336;}.cls-4{fill:#914949;}.cls-5{fill:#b24d57;}.cls-6{fill:#87293b;}</style></defs><path class="cls-1" d="M72.49,86.24h0C43.54,86,24,81.52,24.05,79.51c.14-4.14,12-5.05,34-6.27h.11c2.38-7.84,8.93-13.47,16.62-13.48a15.09,15.09,0,0,1,2.71.24,16,16,0,0,1,7.71,16.39h0C115.37,80.83,74.83,85.94,72.49,86.24Z"/><path class="cls-2" d="M85.22,76.38a41.07,41.07,0,0,1-10.39,1.16c-7.22,0-13.51-1.29-16.76-4.3h.11c2.38-7.84,8.93-13.47,16.62-13.48a15.09,15.09,0,0,1,2.71.24A16,16,0,0,1,85.22,76.38Z"/><path class="cls-3" d="M126,79.39c0,1.67-20.92,6.82-51.11,6.86H72.49c2.34-.3,42.88-5.41,12.74-9.86a15,15,0,0,0,6.41-3.18C113.61,74.38,125.87,75.24,126,79.39Z"/><path class="cls-4" d="M91.64,73.2a15,15,0,0,1-6.41,3.18h0A16,16,0,0,0,77.51,60c6.5,1.12,11.83,6.3,13.95,13.21Z"/><path class="cls-5" d="M94.1,70.56A1.57,1.57,0,0,0,92.53,69a1.54,1.54,0,0,0-.61.12,1.58,1.58,0,0,0-3,.62,1.58,1.58,0,0,0-.82,2.89,1.59,1.59,0,0,0-.28.89,1.57,1.57,0,0,0,1.57,1.58h.13a1.58,1.58,0,0,0,3-.61h0a1.58,1.58,0,0,0,1-2.68A1.54,1.54,0,0,0,94.1,70.56Zm-2.7,1.1a1.54,1.54,0,0,0-.59,1.15,1.61,1.61,0,0,0-.54-.62,1.57,1.57,0,0,0,.28-.85,1.63,1.63,0,0,0,.54-.12A1.67,1.67,0,0,0,91.4,71.66Z"/><path class="cls-6" d="M92.66,71.43a1.37,1.37,0,0,0-1.37-1.37,1.39,1.39,0,0,0-1.08.52,1.39,1.39,0,0,0-.3,0,1.36,1.36,0,0,0-1.37,1.36,1.38,1.38,0,0,0,1.25,1.37v0a1.37,1.37,0,1,0,2.73,0,1.34,1.34,0,0,0-.31-.87A1.31,1.31,0,0,0,92.66,71.43Z"/><circle class="cls-5" cx="90.7" cy="72.15" r="1.37"/></svg>