<svg id="Camada_1" data-name="Camada 1" xmlns="http://www.w3.org/2000/svg" viewBox="0 0 150 150"><path d="M80.5748,58.3422c0,.8746-2.5182,1.5836-5.6245,1.5836s-5.6245-.709-5.6245-1.5836,2.5182-1.5836,5.6245-1.5836S80.5748,57.4676,80.5748,58.3422Z" style="fill:#7a4c7a"/><path d="M99.615,82.5035s-4.37-3.11-12.86-4.69l-.63,4.52-5.67-.07-11.18-.15-18.98-.24s-2.25-6.2-2-8.28c1.01-8.56,7.67-15.24,26.46-15.24q2.07,0,3.96.12c15.35.89,21.8,7.14,22.98,15.12C102.015,75.7936,99.615,82.5035,99.615,82.5035Z" style="fill:#c17ca7"/><path d="M99.615,89.5735v.02h-.01c-1.91,4.62-9.39,7.38-17.99,8.31-.03,0-.06.01-.09.01a62.8979,62.8979,0,0,1-15.03-.24c-.13-.01-.26-.03-.39-.05-7.71-1.15-14.12-3.84-15.74-8.05a.01.01,0,0,1,.01-.01c.01-.01.03-.02.04-.03.63-.55,7.25-6.02,18.86-7.42a45.2136,45.2136,0,0,1,5.48-.33,35.75,35.75,0,0,1,5.7.48,43.7714,43.7714,0,0,1,5.5,1.25,55.598,55.598,0,0,1,6.22,2.24c1.41.6,2.66,1.19,3.72,1.72l.01.01C98.235,88.6736,99.615,89.5735,99.615,89.5735Z" style="fill:#c17ca7"/><path d="M99.615,82.5035s-4.37-3.11-12.86-4.69c0,0,8.22-12.04-8.04-19.34,15.35.89,21.8,7.14,22.98,15.12C102.015,75.7936,99.615,82.5035,99.615,82.5035Z" style="fill:#9f6fa3"/><path d="M59.5013,79.1078l-.0689-.0057A36.8166,36.8166,0,0,1,61.99,69.0992a20.8822,20.8822,0,0,1,4.6956-7.1,13.2448,13.2448,0,0,1,8.31-3.6914l.0051.0691c-7.16.5346-10.9926,6.14-12.9466,10.7479A36.7439,36.7439,0,0,0,59.5013,79.1078Z" style="fill:#7a4c7a"/><path d="M90.4589,79.1078a36.7458,36.7458,0,0,0-2.5526-9.9832C85.9523,64.5166,82.12,58.9113,74.96,58.3767l.0052-.0691a13.2453,13.2453,0,0,1,8.31,3.6914,20.8835,20.8835,0,0,1,4.6955,7.1,36.819,36.819,0,0,1,2.5573,10.0029Z" style="fill:#7a4c7a"/><path d="M99.615,89.5735v.02h-.01c-1.91,4.62-9.39,7.38-17.99,8.31-.03,0-.06.01-.09.01a62.8979,62.8979,0,0,1-15.03-.24c.81.01,10.84.11,16.69-2.81a9.6332,9.6332,0,0,0,5.58-9.06l7.13,1.67.01.01C98.235,88.6736,99.615,89.5735,99.615,89.5735Z" style="fill:#9f6fa3"/><path d="M99.615,82.5035v7.09h-.01c-.26-.12-.52-.22-.78-.34a89.9065,89.9065,0,0,0-10.06-3.39c-.6-.15-1.12-.28-1.55-.38-.5-.11-1-.21-1.49-.31-19.68-3.82-33.92,3.6-35.31,4.36-.01.01-.03.02-.04.03a.01.01,0,0,0-.01.01.3167.3167,0,0,0-.06.02l-.01-7.72c15.94-5.69,28.17-5.6,36.46-4.06C95.245,79.3935,99.615,82.5035,99.615,82.5035Z" style="fill:#7a4c7a"/><path d="M99.615,82.5035v7.09h-.01c-.26-.12-.52-.22-.78-.34a89.9065,89.9065,0,0,0-10.06-3.39v-.06s-.4-5.35-2.01-7.99C95.245,79.3935,99.615,82.5035,99.615,82.5035Z" style="fill:#5c4066"/></svg>