<svg id="Camada_1" data-name="Camada 1" xmlns="http://www.w3.org/2000/svg" viewBox="0 0 150 150"><path d="M97.02,84.16c-14.46-1.72-23.7-.98-29.94.51-12.83,3.04-13.01,9.23-19.79,3.64-6.68-5.51-2.47-21.3,14.9-31.23,3.5-2,9.56-1.9,15.91-.48,9.93,2.22,20.6,7.67,23.38,13.33C103.08,73.19,97.02,84.16,97.02,84.16Z" style="fill:#684931"/><path d="M97.02,84.16c-14.46-1.72-23.7-.98-29.94.51,2.65-1.19,7.07-2.56,14.41-3.85,18.65-3.28,9.25-15.85,9.25-15.85S86.83,60.14,78.1,56.6c9.93,2.22,20.6,7.67,23.38,13.33C103.08,73.19,97.02,84.16,97.02,84.16Z" style="fill:#4c2825"/></svg>