<svg id="Camada_1" data-name="Camada 1" xmlns="http://www.w3.org/2000/svg" viewBox="0 0 150 150"><defs><style>.cls-1{fill:#387b7c;}.cls-2{fill:#343434;}.cls-3{fill:#33656d;}.cls-4{fill:#53abb6;}.cls-5{fill:#5390a0;}</style></defs><path class="cls-1" d="M42.91,96.44V83.66H41.13V97.72a4.37,4.37,0,0,0-.72,2.45c0,2.1,1.4,3.81,3.18,3.81V96.36A2.49,2.49,0,0,0,42.91,96.44Z"/><path class="cls-1" d="M109.59,100.16c0,2.11-1.39,3.81-3.17,3.81V96.35a2.87,2.87,0,0,1,.68.09V83.66h1.78V97.77A4.27,4.27,0,0,1,109.59,100.16Z"/><path class="cls-2" d="M107.08,104.4a.34.34,0,0,0-.4.23c-1.29,5.43-5.29,9.53-11.91,12.17a37.8,37.8,0,0,1-8.9,2.28c-.43-.59-1.81-1-3.45-1-2,0-3.59.63-3.59,1.41s1.6,1.42,3.59,1.42c1.79,0,3.27-.52,3.54-1.19A38.81,38.81,0,0,0,95,117.38a24.32,24.32,0,0,0,7.48-4.52,15.69,15.69,0,0,0,4.84-8.09A.3.3,0,0,0,107.08,104.4Z"/><path class="cls-3" d="M109.59,100.16c0,2.11-1.39,3.81-3.17,3.81a14.32,14.32,0,0,0,1.35-5c.3-3.93.07-11.35.07-11.35l1,.22v9.94A4.27,4.27,0,0,1,109.59,100.16Z"/><polygon class="cls-3" points="42.36 89.78 42.15 100.5 43.59 95.99 43.59 88.56 42.36 89.78"/><path class="cls-2" d="M75,56.62c-19.05,0-34.49,14.24-34.49,31.8a2,2,0,0,0,1.84,1.36,1.84,1.84,0,0,0,1.82-1.36c0-15.7,13.8-26,30.83-26s30.82,10.3,30.82,26a2,2,0,0,0,1.85,1.36,1.82,1.82,0,0,0,1.81-1.36C109.49,70.86,94.05,56.62,75,56.62Z"/><path class="cls-4" d="M49.12,91.77v16.78a6.77,6.77,0,0,1-5.95-4,9.61,9.61,0,0,1-1-4.4c0-4.06,2.37-7.45,5.58-8.22A5.9,5.9,0,0,1,49.12,91.77Z"/><path class="cls-5" d="M49.12,91.77v16.78a6.77,6.77,0,0,1-5.95-4c1.7-.42,4.1-2.79,4.55-12.62A5.9,5.9,0,0,1,49.12,91.77Z"/><path class="cls-4" d="M107.84,100.16c0,4.55-3,8.24-6.75,8.38h-.23V91.77A6.84,6.84,0,0,1,106.92,96,9.63,9.63,0,0,1,107.84,100.16Z"/><path class="cls-5" d="M107.84,100.16c0,4.55-3,8.24-6.75,8.38l-.23-.34v-4.61c2-.69,4.78-2.56,6.06-7.6A9.63,9.63,0,0,1,107.84,100.16Z"/><path class="cls-2" d="M101.93,108.74a1.13,1.13,0,0,1-1.17,1.08h0a1.14,1.14,0,0,1-1.18-1.08v-17a1.13,1.13,0,0,1,1.18-1.08h0a1.12,1.12,0,0,1,1.17,1.08Z"/><path class="cls-2" d="M50.36,108.74a1.13,1.13,0,0,1-1.17,1.08h0A1.14,1.14,0,0,1,48,108.74v-17a1.13,1.13,0,0,1,1.18-1.08h0a1.12,1.12,0,0,1,1.17,1.08Z"/></svg>