<svg id="Camada_1" data-name="Camada 1" xmlns="http://www.w3.org/2000/svg" viewBox="0 0 150 150"><path d="M72.493,86.24h-.0348c-28.9209-.2086-48.4737-4.7188-48.4042-6.7262.1391-4.1453,12.0011-5.0577,34.0133-6.2744.0348,0,.07-.0086.113-.0086,2.3811-7.8385,8.9248-13.47,16.6243-13.4784a15.4019,15.4019,0,0,1,2.7026.2345,16.0449,16.0449,0,0,1,7.7169,16.39h.0087C115.37,80.8255,74.8306,85.944,72.493,86.24Z" style="fill:#91483c;fill-rule:evenodd"/><path d="M85.2241,76.3761a41.1372,41.1372,0,0,1-10.3935,1.1645c-7.2215,0-13.5132-1.2948-16.7633-4.3017.0348,0,.07-.0086.113-.0086,2.3811-7.8385,8.9248-13.47,16.6243-13.4784a15.4019,15.4019,0,0,1,2.7026.2345A16.0449,16.0449,0,0,1,85.2241,76.3761Z" style="fill:#9e5a4d;fill-rule:evenodd"/><path d="M125.9462,79.3916c0,1.6685-20.9173,6.8218-51.1069,6.8565-.7908,0-1.5729,0-2.3463-.0086,2.3376-.2955,42.8773-5.414,12.74-9.8634a14.974,14.974,0,0,0,6.4046-3.1719C113.6148,74.3774,125.868,75.2377,125.9462,79.3916Z" style="fill:#723336;fill-rule:evenodd"/><path d="M91.6374,73.2042a14.974,14.974,0,0,1-6.4046,3.1719h-.0087a16.0449,16.0449,0,0,0-7.7169-16.39c6.5,1.1211,11.836,6.3,13.9564,13.2091A1.2219,1.2219,0,0,1,91.6374,73.2042Z" style="fill:#914949;fill-rule:evenodd"/><path d="M94.1,70.56a1.5785,1.5785,0,0,0-2.182-1.463,1.5778,1.5778,0,0,0-3.0093.6269,1.5778,1.5778,0,0,0-.82,2.8866,1.5781,1.5781,0,0,0,1.2954,2.4722c.0426,0,.0847-.002.1264-.0051a1.5782,1.5782,0,0,0,3.0318-.61l0-.0086a1.5779,1.5779,0,0,0,.9679-2.6742A1.5747,1.5747,0,0,0,94.1,70.56Zm-2.7052,1.0994a1.5739,1.5739,0,0,0-.5876,1.1525,1.585,1.585,0,0,0-.5383-.6174,1.57,1.57,0,0,0,.2769-.8581,1.5742,1.5742,0,0,0,.544-.1184A1.5822,1.5822,0,0,0,91.3952,71.6589Z" style="fill:#b24d57"/><path d="M92.6578,71.43a1.3674,1.3674,0,0,0-2.4437-.8481,1.3675,1.3675,0,1,0-.4285,2.6948l-.0005.0186a1.3677,1.3677,0,1,0,2.4276-.86A1.3637,1.3637,0,0,0,92.6578,71.43Z" style="fill:#87293b"/><circle cx="90.696" cy="72.1471" r="1.3677" style="fill:#b24d57"/></svg>