<svg id="Camada_1" data-name="Camada 1" xmlns="http://www.w3.org/2000/svg" viewBox="0 0 150 150"><path d="M107.53,107.79s-.44,1.2-1.11,3.02c-.63,1.71-1.44,3.95-2.28,6.28-.15.41-.3.83-.45,1.24-.25.71-.51,1.43-.76,2.13-.21.59-.41,1.18-.61,1.74-.24.7-.48,1.37-.69,1.99-.47,1.39-.86,2.55-1.08,3.3l-1.87-1.13a.3125.3125,0,0,0-.02.07l-.03.09c-.07.21-.2.6-.36,1.12-.03.08-.06.17-.09.26-.03.11-.07.22-.11.33a.1421.1421,0,0,0-.02.06c-.03.09-.06.2-.1.3a47.0312,47.0312,0,0,1-2.02,5.43c-.01.01-.01.01-.01.03a7.6139,7.6139,0,0,1-.58,1.11,7.83,7.83,0,0,0-1,2.87c-1.29.22-2.57.4-3.84.56q-3.03.375-5.96.58c-3.23.24-6.35.34-9.29.34h-.74a121.6811,121.6811,0,0,1-18.86-1.4,19.6361,19.6361,0,0,0-.5724-2.0437c-.2042-.602-.4242-1.1541-.6463-1.6545l-.0286-.0407a.1243.1243,0,0,0-.0132-.0419.1282.1282,0,0,0-.0586-.055c-1.7484-4.3477-3.0061-7.5314-3.0409-7.6542-.0257-.09-.05-.18-.05-.18a.8253.8253,0,0,1-.04-.15.292.292,0,0,1-.02-.09c-.02-.06-.03-.12-.05-.17-.06-.2-.09-.31-.09-.31l.04-.03c0-.02-.01-.04-.01-.06l-.03.09-1.4,1.19-1.84-4.99-.19-.5-5.14-13.93,3.27-2.21,2.16-1.46a25.8729,25.8729,0,0,0,5.37,12.76v.01l.01.01c.01.01.02.03.04.05.09.1.17.2.26.3l-.9-.59,5.7,12.09,1.4-.88-.21-.43c-.26.13-.5.27-.74.41l-4.53-9.83a15.8285,15.8285,0,0,0,1.28,1.19c.49.42,1,.81,1.51,1.17.13.09.27.18.42.28a23.2372,23.2372,0,0,0,5.78,2.62c.23.07.46.14.7.2a27.8765,27.8765,0,0,0,5.33.81q.405.015.9.03c1.15.05,2.56.11,4.29.21v-.01a1.8325,1.8325,0,0,0,.54,0v.01c1.73-.1,3.14-.16,4.29-.21q.495-.015.9-.03a27.8789,27.8789,0,0,0,5.33-.81c.24-.06.47-.13.7-.2a23.2355,23.2355,0,0,0,5.78-2.62c.15-.1.29-.19.42-.28a19.3825,19.3825,0,0,0,2.81-2.38q.4951-.495.96-1.05c.02-.02.03-.04.04-.05l.01-.01v-.01a20.8282,20.8282,0,0,0,2-2.85s.5624-.9572,1.08-2.08a53.5331,53.5331,0,0,0,2.5106-7.6964l.6893.4764,1.26.85v.01Z" style="fill:#d0e8b8"/><path d="M47.61,121.42l.19.5,1.84,4.99,1.4-1.19s.03.11.09.31c.02.05.03.11.05.17a.292.292,0,0,0,.02.09.8253.8253,0,0,0,.04.15c.02.06.03.12.05.18a40.171,40.171,0,0,0,1.54,4.53c.36.91.66,1.62.8,1.91.01.03.02.05.03.08l.03.07.4216.82.1884.41a.01.01,0,0,0,.01.01l1.32-.34c-2.25-2.08-3.2-16.96-3.2-16.96A18.0812,18.0812,0,0,1,47.61,121.42Z" style="fill:#8cba93"/><path d="M54.3,117.72q2.353,5.02,4.7063,10.04l.686-.3285q-2.0561-4.2607-4.1123-8.5213A15.8285,15.8285,0,0,1,54.3,117.72Z" style="fill:#8cba93"/><path d="M103.83,105.29v-.01l-1.26-.85-2.88,8.24-.53-.09s-2.59,4.74-2.59,4.94c0,.08.34.3.76.54l-5.04,9.49-2.51,8.04.72,3c1.27-.16,2.55-.34,3.84-.56a12.8307,12.8307,0,0,1,.3629-1.4867q.3967-.4738.7931-.9476.7343-1.7352,1.4408-3.625c.7139-1.9176,1.328-3.77,1.8577-5.5415L100.55,127.49c.22-.75.61-1.91,1.08-3.3.21-.62.45-1.29.69-1.99.2-.56.4-1.15.61-1.74a9.6705,9.6705,0,0,1-3.58-2.37l1.27-3.16a31.5665,31.5665,0,0,1,3.52,2.16c.84-2.33,1.65-4.57,2.28-6.28.67-1.82,1.11-3.02,1.11-3.02Z" style="fill:#8cba93"/></svg>