<svg id="Camada_1" data-name="Camada 1" xmlns="http://www.w3.org/2000/svg" viewBox="0 0 150 150"><defs><style>.cls-1{fill:#5eaa9e;}.cls-2{fill:#17586c;}</style></defs><path class="cls-1" d="M107.75,107.32s-2,5.39-3.84,10.7l-1.37,3.92c-.24.71-.48,1.39-.69,2a40.27,40.27,0,0,0-1.3,4.24L98.63,126l0,0c0,.15,0,.35,0,.58v0c-.15,2.12-.47,7.14-.34,10.75-.63.13-1.27.25-1.9.36a113.17,113.17,0,0,1-11.55,1.45c-3.23.24-6.35.34-9.29.34h-.74a118.51,118.51,0,0,1-21-1.79c-.63-.11-1.27-.23-1.9-.36.13-3.61-.19-8.63-.34-10.75v0c0-.23,0-.43-.05-.58l0,0-1.92,2.19c0-.45-.88-3-2-6.26-2.13-6.17-5.21-14.62-5.21-14.62l5.87-4c.92,5.77,2.89,9.94,5.37,12.95h0l0,0a19.72,19.72,0,0,0,3.77,3.48l.42.29a23.55,23.55,0,0,0,5.78,2.66l.7.2a27.18,27.18,0,0,0,5.33.82l.9,0c1.15,0,2.56.11,4.29.21h0l.27,0,.27,0h0c1.73-.1,3.14-.16,4.29-.21l.9,0a27.18,27.18,0,0,0,5.33-.82l.7-.2a23.55,23.55,0,0,0,5.78-2.66l.42-.29a19.72,19.72,0,0,0,3.77-3.48l0,0h0a21.3,21.3,0,0,0,2-2.89,29.39,29.39,0,0,0,3.37-10.06Z"/><path class="cls-2" d="M53.69,137.72c-.63-.11-1.27-.23-1.9-.36.13-3.61-.19-8.63-.34-10.75v0c0-.23,0-.43-.05-.58l0,0-1.92,2.19c0-.45-.88-3-2-6.26A61.14,61.14,0,0,0,54,118.32,52.42,52.42,0,0,0,53.69,137.72Z"/><path class="cls-2" d="M101.85,124a40.27,40.27,0,0,0-1.3,4.24L98.63,126l0,0c0,.15,0,.35,0,.58v0c-.15,2.12-.47,7.14-.34,10.75-.63.13-1.27.25-1.9.36a113.17,113.17,0,0,1-11.55,1.45c2.63-1.15,10.29-5.56,12.79-18.79Z"/><path class="cls-2" d="M107.75,107.32s-2,5.39-3.84,10.7l-5.4-4.67a29.39,29.39,0,0,0,3.37-10.06Z"/></svg>