<svg id="Camada_1" data-name="Camada 1" xmlns="http://www.w3.org/2000/svg" viewBox="0 0 150 150"><path d="M89.62,96.8419A130.18,130.18,0,0,1,75,97.6372c-21.0125,0-38.0409-4.6752-38.0409-10.4505,0-3.7684,7.2544-8.0348,18.1433-10.5471A89.51,89.51,0,0,1,75,74.4692a92.9609,92.9609,0,0,1,10.168.55l.8474,6.2732.2006,1.5312C94.0056,89.2233,91.7758,94.3,89.62,96.8419Z" style="fill:#4d395b"/><path d="M86.0154,81.2925A100.3743,100.3743,0,0,1,75,81.902a108.2882,108.2882,0,0,1-20.5739-2.044l.3567-1.6947.32-1.5237,2.46-11.8032a3.8663,3.8663,0,0,1,3.7833-3.0772H83.399l1.769,13.26Z" style="fill:#774f84"/><path d="M95.2172,78.1633l-.32-1.5237-2.46-11.8032a3.8684,3.8684,0,0,0-3.7907-3.0772H83.399l1.769,13.26.8474,6.2732c3.1217-.327,6.2955-.81,9.5585-1.4345Z" style="fill:#57446d"/><path d="M113.0409,87.1867c0,4.3482-9.67,8.0794-23.4206,9.6552,2.1555-2.542,4.3853-7.6186-3.4043-14.0182l-.2006-1.5312c3.1217-.327,6.2955-.81,9.5585-1.4345l-.3567-1.6947-.32-1.5237C105.7791,79.1519,113.0409,83.4183,113.0409,87.1867Z" style="fill:#383049"/><path d="M95.764,79.8244c-.0636.0125-.1272.0243-.19.036A108.6424,108.6424,0,0,1,74.9994,81.905,108.6332,108.6332,0,0,1,54.4256,79.86c-.0628-.0117-.1263-.0235-.19-.036-.1405-.4509.1573-.9027.0552-1.3552-.0435-.1933.0929-.3748.26-.3447.0761.0142.1522.0276.2284.041a106.3133,106.3133,0,0,0,40.4407,0c.0753-.0134.1515-.0268.2276-.041.1673-.03.3045.1514.261.3447C95.6067,78.9217,95.9046,79.3735,95.764,79.8244Z" style="fill:#7aafd3"/><polygon points="100.429 100.978 96.492 102.703 87.76 82.556 89.066 81.563 89.937 83.052 94.107 90.177 100.429 100.978" style="fill:#7aafd3"/><path d="M94.1073,90.1766a21.2632,21.2632,0,0,1-5.596-7.62l1.4259.4955Z" style="fill:#6387aa"/><path d="M90.1389,81.1371c7.0664,11.5843,20.1,11.6838,20.1,11.6838L107.037,96.83S92.04,91.0026,88.5714,81.7894C88.5714,81.7894,89.9179,80.7747,90.1389,81.1371Z" style="fill:#7aafd3"/><path d="M95.0183,84.4013c-1.5219-.3616-3.22-2.0846-4.3185-2.2629q-.0127-2.3357-.0254-4.6713c1.095-.482,2.7717-2.6563,4.2881-3.3131a2.8462,2.8462,0,0,1,3.58.818,8.3988,8.3988,0,0,1,.0443,8.1356A3.34,3.34,0,0,1,95.0183,84.4013Z" style="fill:#90caf9"/><path d="M83.4015,85.8729c1.5164-.6569,3.193-2.8312,4.2881-3.3132l-.0255-4.6713c-1.0986-.1783-2.7966-1.9012-4.3185-2.2629a3.34,3.34,0,0,0-3.5685,1.2937,8.3988,8.3988,0,0,0,.0444,8.1356A2.8462,2.8462,0,0,0,83.4015,85.8729Z" style="fill:#90caf9"/><path d="M90.591,78.646a23.251,23.251,0,0,0,3.1238-2.3854c-1.0421.62-2.0843,1.2579-3.1264,1.902Z" style="fill:#5ea2d1"/><path d="M90.6038,80.9844a14.29,14.29,0,0,1,3.1454,1.5791c-1.0476-.38-2.0952-.7408-3.1428-1.0958Z" style="fill:#5ea2d1"/><path d="M90.5949,79.3711a4.2577,4.2577,0,0,0,2.1692-1.3759,8.502,8.502,0,0,1-2.1711,1.0133Z" style="fill:#5ea2d1"/><path d="M90.6,80.2593a3.0442,3.0442,0,0,1,2.181.8,6.2855,6.2855,0,0,0-2.179-.4371Z" style="fill:#5ea2d1"/><path d="M94.1153,79.2661c-1.9511.2367-3.4232.3128-3.4232.3092l.0025.4532C90.6946,80.0317,92.2291,79.6477,94.1153,79.2661Z" style="fill:#5ea2d1"/><path d="M87.76,79.0425a14.2928,14.2928,0,0,1-3.1455-1.5792c1.0476.38,2.0953.7408,3.1429,1.0958Z" style="fill:#5ea2d1"/><path d="M87.773,81.3808a23.2521,23.2521,0,0,0-3.1239,2.3855c1.0422-.62,2.0843-1.258,3.1265-1.9021Z" style="fill:#5ea2d1"/><path d="M87.7642,79.7676a3.0444,3.0444,0,0,1-2.181-.8,6.286,6.286,0,0,0,2.179.437Z" style="fill:#5ea2d1"/><path d="M87.769,80.6558A4.2562,4.2562,0,0,0,85.6,82.0317a8.5,8.5,0,0,1,2.1711-1.0134Z" style="fill:#5ea2d1"/><path d="M84.2475,80.5552a29.3045,29.3045,0,0,0,3.4219-.5569l.0025.4532C87.6719,80.4484,86.1356,80.5159,84.2475,80.5552Z" style="fill:#5ea2d1"/><path d="M90.2348,82.59q-1.038.1447-2.0759.2916c-.4181.0584-.7583-.1514-.76-.4672q-.0118-2.151-.0235-4.3018a.8068.8068,0,0,1,.7538-.6765q1.0379-.1449,2.0759-.2916c.418-.0584.7582.1513.76.4672l.0235,4.3017A.807.807,0,0,1,90.2348,82.59Z" style="fill:#5ea2d1"/></svg>