<svg id="Camada_1" data-name="Camada 1" xmlns="http://www.w3.org/2000/svg" viewBox="0 0 150 150"><path d="M92.8617,84.08a.1952.1952,0,0,1-.07.01c-.3.03-.59.06-.87.08h-.05c-1.94.17-3.7.31-5.33.43-.43.03-.84.06-1.25.09-.65.05-1.27.09-1.87.13-.36.03-.72.05-1.07.07-1.31.07-2.54.13-3.73.17v-.01c-2.51.09-4.84.1-7.31.02-1.01-.03-2.05-.08-3.13-.14-.48-.03-.97-.05-1.47-.09-.42-.02-.85-.05-1.29-.08-.22-.02-.45-.03-.68-.05-.81-.06-1.65-.12-2.53-.19-.39-.03-.79-.06-1.2-.1-.6-.05-1.23-.1-1.88-.16-.38-.03-.77-.06-1.17-.1-.81-.07-1.66-.15-2.54-.23-.49-.04-.99-.08-1.5-.13-1.2-.11-2.46-.23-3.8-.35.1-.26.2-.51.31-.77.14-.34.29-.67.45-1.01.26-.56.53-1.12.83-1.68.11-.23.23-.45.35-.67.12-.23.24-.45.37-.68.37-.67.78-1.33,1.21-1.99.21-.33.43-.66.65-.98.22-.33.44-.65.68-.97h.01c4.12-5.64,9.85-10.4,16.33-11.8a17.9519,17.9519,0,0,1,3.88-.43,17.0534,17.0534,0,0,1,3.43.34,18.8862,18.8862,0,0,1,4.18,1.29C91.5617,73.9,92.7516,83.07,92.8617,84.08Z" style="fill:#845d40"/><path d="M100.8916,92.1c-4.79.99-8.69,1.8-12.03,2.41v.01c-14.62,2.72-18.53,1.91-39.52-2.42-2.14-.44,0-8.72,0-8.72.26.02.53.05.78.07,1.34.12,2.6.24,3.8.35.51.05,1.01.09,1.5.13.88.08,1.73.16,2.54.23.4.04.79.07,1.17.1.65.06,1.28.11,1.88.16.41.04.81.07,1.2.1.88.07,1.72.13,2.53.19.23.02.46.03.68.05.44.03.87.06,1.29.08.5.04.99.06,1.47.09,1.08.06,2.12.11,3.13.14V61.65h7.31V85.06c1.19-.04,2.42-.1,3.73-.17.35-.02.71-.04,1.07-.07.6-.04,1.22-.08,1.87-.13.41-.03.82-.06,1.25-.09,1.63-.12,3.39-.26,5.33-.43h.05c.28-.02.57-.05.87-.08h.07a.17.17,0,0,1,.07-.01c1.63-.14,3.39-.29,5.3-.47.86-.07,1.74-.15,2.66-.23C100.8916,83.38,103.0216,91.66,100.8916,92.1Z" style="fill:#684931"/><circle cx="75.0369" cy="82.1576" r="1.5838" style="fill:#222323"/><path d="M76.6207,74.2159a1.5838,1.5838,0,1,1-1.5838-1.5836A1.5838,1.5838,0,0,1,76.6207,74.2159Z" style="fill:#222323"/><path d="M76.6207,67.1961a1.5838,1.5838,0,1,1-1.5838-1.5836A1.5838,1.5838,0,0,1,76.6207,67.1961Z" style="fill:#222323"/><path d="M54.9816,74.7c-.59.8-1.14,1.63-1.66,2.46a37.8349,37.8349,0,0,0-2.88,5.52,18.2933,18.2933,0,0,1-13.17-24.77A18.29,18.29,0,0,0,54.9816,74.7Z" style="fill:#eeeeed"/><path d="M114.0617,64.78a17.9179,17.9179,0,0,1-.68,4.94,18.3067,18.3067,0,0,1-13.47,12.89c-.33-.78-.7-1.57-1.1-2.35-.05-.1-.1-.21-.15-.31-.06-.12-.13-.23-.19-.35-.31-.6-.65-1.2-1.01-1.79q-.15-.27-.33-.54c-.13-.22-.27-.43-.41-.65-.21-.33-.43-.65-.65-.97-.21-.32-.44-.64-.68-.96a18.3091,18.3091,0,0,0,17.34-16.78A18.2338,18.2338,0,0,1,114.0617,64.78Z" style="fill:#eeeeed"/><path d="M100.8916,83.38c-.92.08-1.8.16-2.66.23-1.91.18-3.67.33-5.3.47h-.07v.01a.4531.4531,0,0,1,.01.08h-1a22.2011,22.2011,0,0,1-3.01,10.34c3.34-.61,7.24-1.42,12.03-2.41C103.0216,91.66,100.8916,83.38,100.8916,83.38Z" style="fill:#4c2825"/><path d="M100.2516,83.43c-.69.06-1.36.12-2.02.18-1.91.18-3.67.33-5.3.47h-.07c-.11-1.01-1.3-10.18-10.06-19.98,4.94,2.1,9.28,6.06,12.59,10.59.23.32.46.64.68.96s.44.64.65.97c.14.22.28.43.41.65q.18.27.33.54c.36.59.7,1.19,1.01,1.79.12.22.24.44.34.66.4.78.77,1.57,1.1,2.35C100.0317,82.89,100.1416,83.16,100.2516,83.43Z" style="fill:#703f37"/><path d="M113.3818,69.72a18.3067,18.3067,0,0,1-13.47,12.89c-.33-.78-.7-1.57-1.1-2.35-.05-.1-.1-.21-.15-.31A26.2121,26.2121,0,0,0,113.3818,69.72Z" style="fill:#c3d4d8"/><path d="M53.3217,77.16a37.8349,37.8349,0,0,0-2.88,5.52,18.2506,18.2506,0,0,1-9.6-5.44c2.75,1.85,6.73,2.41,12.46-.07C53.3117,77.17,53.3117,77.16,53.3217,77.16Z" style="fill:#c3d4d8"/></svg>