<svg id="Camada_1" data-name="Camada 1" xmlns="http://www.w3.org/2000/svg" viewBox="0 0 150 150"><path d="M61.9675,101.816h0a6.0159,6.0159,0,0,0-8.14-2.39c-12.9958,8.9827-17.1827,17.8458-16.8961,23.7511.451,9.29,11.3225,10.1835,14.3175-1.1148,1.2432-4.69,2.6986-11.2993,10.7183-20.2467Z" style="fill:#a54676;fill-rule:evenodd"/><path d="M41.83,110.4238c-3.7165,4.88-5.0653,9.3176-4.8985,12.7537.2194,4.5222,2.9082,7.0539,5.9557,7.1591a18.5319,18.5319,0,0,0,2.2971-9.1631,17.71,17.71,0,0,0-3.3543-10.75Z" style="fill:#ce7489;fill-rule:evenodd"/><path d="M88.0324,101.816h0a6.016,6.016,0,0,1,8.14-2.39c12.9958,8.9827,17.1828,17.8458,16.8962,23.7511-.4511,9.29-11.3225,10.1835-14.3176-1.1148-1.2432-4.69-2.6986-11.2993-10.7183-20.2467Z" style="fill:#a54676;fill-rule:evenodd"/><path d="M108.17,110.4238c3.7166,4.88,5.0654,9.3176,4.8986,12.7537-.22,4.5222-2.9083,7.0539-5.9557,7.1591a18.5309,18.5309,0,0,1-2.2972-9.1631,17.71,17.71,0,0,1,3.3543-10.75Z" style="fill:#ce7489;fill-rule:evenodd"/><path d="M77.4009,143.5926c-.0925-.2681-.1855-.5451-.28-.8291a2.1871,2.1871,0,0,0-4.1545,0c-.0946.284-.1877.561-.28.8291C61.9944,174.5978,21.8507,73,75.0845,73c52.5419,0,13.6036,103.3243,2.3164,70.5926Z" style="fill:#a54676;fill-rule:evenodd"/><path d="M77.4009,143.5926c-.0925-.2681-.1855-.5451-.28-.8291a2.1871,2.1871,0,0,0-4.1545,0c-.0946.284-.1877.561-.28.8291-5.2345,15.1783-23.5865-16.8451-23.9417-42.509-.6937-50.1313,80.229-22.5107,36.9785,48.2255-3.2162,1.719-6.24.3215-8.3221-5.7165Z" style="fill:#ce7489;fill-rule:evenodd"/><path d="M73.6588,116.9043s3.1213-1.2324,2.63,0A1.35,1.35,0,0,1,73.6588,116.9043Z" style="fill:#a54676;fill-rule:evenodd"/></svg>