<svg id="Camada_1" data-name="Camada 1" xmlns="http://www.w3.org/2000/svg" viewBox="0 0 150 150"><path d="M90.01,78.56H90l.28,4.03-9.69-.12h-.01l-6.86-.08c4.34-1.46,5.35-3.16-5.21-4.56-.42-.06-.83-.11-1.23-.16-22.16-2.7-17.6,4.41-17.6,4.41s-5.86-2.1-5.61-4.24c1.04-8.77,24.63-17.68,30.68-17.68a12.2831,12.2831,0,0,1,2.15.24C114.9,76.73,90.64,78.52,90.01,78.56Z" style="fill:#575757"/><path d="M90.01,78.56H90l.28,4.03.18,2.58.09,1.35A66.54,66.54,0,0,1,100.24,90c0-.01.01-.02.01-.03V82.72A32.9264,32.9264,0,0,0,90.01,78.56Z" style="fill:#1c1c21"/><path d="M105.92,77.84c.33,2.26-5.67,4.88-5.67,4.88a32.9264,32.9264,0,0,0-10.24-4.16c.63-.04,24.89-1.83-13.11-18.16C85.01,61.85,104.74,69.84,105.92,77.84Z" style="fill:#3c3c42"/><path d="M67.28,77.67a89.1649,89.1649,0,0,0-17.6,4.41S45.12,74.97,67.28,77.67Z" style="fill:#3c3c42"/><path d="M100.24,90c-2.06,4.94-10.32,7.8-19.61,8.62-1.52.13-3.06.21-4.61.23-11.83.19-23.94-2.79-26.27-8.88.01-.01.02-.02.03-.02l.01-.01c.58-.5,7.34-6.15,19.27-7.61h.07a45.2621,45.2621,0,0,1,5.62-.34,37.3859,37.3859,0,0,1,5.83.48h.01a50.5935,50.5935,0,0,1,9.87,2.7l.09,1.35A66.54,66.54,0,0,1,100.24,90Z" style="fill:#3f3f3f"/><path d="M90.46,85.17l-.18-2.58L90,78.56a59.4628,59.4628,0,0,0-22.72-.89,89.1649,89.1649,0,0,0-17.6,4.41V90s.02-.01.07-.03c.01-.01.02-.02.03-.02l.01-.01c1.53-.84,18.26-9.55,40.76-3.42Z" style="fill:#2b2b2b"/><path d="M53.3664,91.5266C53.6519,90.74,56.3455,90,56.3455,90s1.7771,4.5772,15.4343,6.0421C55.4412,96.419,53.3664,91.5266,53.3664,91.5266Z" style="fill:#4f4f4f"/><path d="M100.24,90c-2.06,4.94-10.32,7.8-19.61,8.62-1.52.13-3.06.21-4.61.23.1-.05.21-.1.32-.15,10.95-5.05,14.21-12.18,14.21-12.18A66.54,66.54,0,0,1,100.24,90Z" style="fill:#2c2c30"/></svg>