<svg id="Camada_1" data-name="Camada 1" xmlns="http://www.w3.org/2000/svg" xmlns:xlink="http://www.w3.org/1999/xlink" viewBox="0 0 150 150"><defs><clipPath id="clip-path"><path id="SVGID" d="M95.98,134.46a31.9493,31.9493,0,0,1-1.4306,3.5559c-.2241.4711-.4468.9073-.6214,1.25-.58,1.1359-1.1116,2.1083-1.43,2.6588a25.3738,25.3738,0,0,1-3.6416,5.2111,9.1029,9.1029,0,0,1-2.51,2.0082,8.7615,8.7615,0,0,1-1.9552.7314,4.6628,4.6628,0,0,1-.8047.118c-.0226-.0011-.1511.0069-.3263.0069a4.9163,4.9163,0,0,1-.6813-.02,5.05,5.05,0,0,1-3.0869-1.8451,9.4491,9.4491,0,0,1-1.961-3.922,4.1113,4.1113,0,0,0-.4145-1.2149,3.9851,3.9851,0,0,0-.2763-.4475,2.1235,2.1235,0,0,0-.3757-.3248,2.2294,2.2294,0,0,0-1.1239-.37,2.4164,2.4164,0,0,0-.2643.0287,3.7921,3.7921,0,0,0-.7534.2514c-2.762,1.2913-1.79,5.43-4.56,7.1414a5.1455,5.1455,0,0,1-3.2184.6928,4.8254,4.8254,0,0,1-1.56-.4834c-.5237-.2581-3.2841-1.7108-6.8993-7.81-.2066-.3486-1.2378-2.0988-2.3832-4.533-.51-1.0846-.9054-2.0114-1.1826-2.6878Z" style="fill:none"/></clipPath></defs><path d="M95.98,134.46a40.6316,40.6316,0,0,1-3.5163,7.4575c-2.1316,3.5317-4.4677,7.2858-8.3426,7.9969-.3595.066-.6967.0929-.6969.0929-.1685.0081-.301.0041-.491-.0022-.4059-.0133-.7115-.043-.7332-.0451a5.1291,5.1291,0,0,1-2.7082-1.8256,9.9675,9.9675,0,0,1-1.961-3.922,4.1113,4.1113,0,0,0-.4145-1.2149,3.9851,3.9851,0,0,0-.2763-.4475,2.1946,2.1946,0,0,0-1.58-.7,3.5209,3.5209,0,0,0-.9373.2854c-2.762,1.2913-1.79,5.43-4.56,7.1414a5.1455,5.1455,0,0,1-3.2184.6928,5.0231,5.0231,0,0,1-1.56-.4834C61.5535,147.7876,58.21,141.9,58.21,141.9l-3.68-7.44Z" style="fill:#414432"/><g style="clip-path:url(#clip-path)"><path d="M75.26,141.85c.0164.2384.2955,5.3327-3.0372,7.5784a5.9433,5.9433,0,0,1-3.96,1.1423A5.2483,5.2483,0,0,1,66.3968,150a16.8572,16.8572,0,0,0,1.7169-2.555c1.1727-2.1464,1.1083-3.15,1.9263-4.105C70.7485,142.5132,72.1562,141.68,75.26,141.85Z" style="fill:#151913"/><path d="M95.98,134.46l-44.3681-.087a18.8231,18.8231,0,0,1,5.2871,8.0119,15.75,15.75,0,0,1,4.3035-1.9662c2.0273-.5733,3.1613-.4384,6.0075-.4987,2.7721-.0588,10.6172-.376,14.424.0123a3.3681,3.3681,0,0,1,1.2684.3675,4.7776,4.7776,0,0,1,2.088,3.1818,8.081,8.081,0,0,1-.6306,4.5253,11.5415,11.5415,0,0,1-.5335,1.1089c-.182.3319-.3681.6326-.55.9022a.4416.4416,0,0,0,.3635.042c.03,0,.05-.01.08-.01l.003-.0047A8.8651,8.8651,0,0,0,89.3943,150C93.99,148.29,96.9358,141.9893,95.98,134.46Z" style="fill:#151913"/></g></svg>