<svg id="Camada_1" data-name="Camada 1" xmlns="http://www.w3.org/2000/svg" viewBox="0 0 150 150"><defs><style>.cls-1{fill:#bae8d3;}.cls-2{fill:#8cbab1;}</style></defs><path class="cls-1" d="M107.75,107.79l-1.11,3c-.63,1.71-1.44,4-2.28,6.28l-.45,1.24-.76,2.13c-.21.59-.41,1.18-.61,1.74s-.48,1.37-.69,2c-.47,1.39-.86,2.55-1.08,3.3l-1.87-1.13a.31.31,0,0,0,0,.07l0,.09c-.07.21-.2.6-.36,1.12l-.09.26c0,.11-.07.22-.11.33a.14.14,0,0,0,0,.06c0,.09-.06.2-.1.3a47.05,47.05,0,0,1-2,5.43s0,0,0,0a7.6,7.6,0,0,1-.58,1.11,7.83,7.83,0,0,0-1,2.87c-1.29.22-2.57.4-3.84.56q-3,.38-6,.58c-3.23.24-6.35.34-9.29.34h-.74a121.68,121.68,0,0,1-18.86-1.4,11.5,11.5,0,0,0-1.34-3.66h0a.86.86,0,0,1-.07-.1v-.08l-.54-1,0-.07,0-.08c-.14-.29-.44-1-.8-1.91a40.17,40.17,0,0,1-1.54-4.53c0-.06,0-.12,0-.18a.83.83,0,0,1,0-.15.29.29,0,0,1,0-.09c0-.06,0-.12,0-.17l-.09-.31,0,0s0,0,0-.06l0,.09-1.4,1.19-1.84-5-.19-.5-5.14-13.93L46,105.28l2.16-1.46a25.87,25.87,0,0,0,5.37,12.76h0l0,.05.26.3-.9-.59,5.7,12.09,1.4-.88-.21-.43c-.26.13-.5.27-.74.41l-4.53-9.83a15.83,15.83,0,0,0,1.28,1.19c.49.42,1,.81,1.51,1.17l.42.28A23.24,23.24,0,0,0,63.51,123l.7.2a27.88,27.88,0,0,0,5.33.81l.9,0c1.15,0,2.56.11,4.29.21h0l.27,0,.27,0h0c1.73-.1,3.14-.16,4.29-.21l.9,0a27.88,27.88,0,0,0,5.33-.81l.7-.2a23.24,23.24,0,0,0,5.78-2.62l.42-.28a19.38,19.38,0,0,0,2.81-2.38q.5-.49,1-1l0-.05h0a20.82,20.82,0,0,0,2-2.85c.38-.65.74-1.35,1.08-2.08a30.54,30.54,0,0,0,2.28-7.79.06.06,0,0,0,0,0h0l.9.6,1.26.85h0Z"/><path class="cls-2" d="M47.83,121.42l.19.5,1.84,5,1.4-1.19.09.31s0,.11,0,.17a.29.29,0,0,0,0,.09.83.83,0,0,0,0,.15c0,.06,0,.12,0,.18a40.17,40.17,0,0,0,1.54,4.53c.36.91.66,1.62.8,1.91l0,.08,0,.07.54,1v.08a.86.86,0,0,0,.07.1h0l1.32-.34c-2.25-2.08-3.2-17-3.2-17A18.08,18.08,0,0,1,47.83,121.42Z"/><path class="cls-2" d="M54.52,117.72l4.53,9.83c.24-.14.48-.28.74-.41l-4-8.23A15.83,15.83,0,0,1,54.52,117.72Z"/><path class="cls-2" d="M104.05,105.29h0l-1.26-.85-2.88,8.24-.53-.09s-2.59,4.74-2.59,4.94.34.3.76.54l-5,9.49-2.51,8,.72,3c1.27-.16,2.55-.34,3.84-.56a15.28,15.28,0,0,1,.36-1.49,6.22,6.22,0,0,0,.63-1.06c.26-.52.57-1.25.89-2.07.49-1.12,1.2-3.2,1.73-4.82,0-.1.07-.21.1-.3a.14.14,0,0,1,0-.06c0-.11.08-.22.11-.33l.09-.26c.06-.18.11-.34.15-.49s.12-.37.17-.5l0-.13,0-.09a.31.31,0,0,1,0-.07l1.87,1.13c.22-.75.61-1.91,1.08-3.3.21-.62.45-1.29.69-2s.4-1.15.61-1.74a9.67,9.67,0,0,1-3.58-2.37l1.27-3.16a31.56,31.56,0,0,1,3.52,2.16c.84-2.33,1.65-4.57,2.28-6.28l1.11-3Z"/></svg>