<svg id="Camada_1" data-name="Camada 1" xmlns="http://www.w3.org/2000/svg" viewBox="0 0 150 150"><defs><style>.cls-1{fill:#d1af5d;}.cls-2{fill:#9e783f;}.cls-3{fill:#ba5656;}.cls-4{fill:#72383f;}.cls-5{fill:#9e6a4d;}</style></defs><path class="cls-1" d="M122.27,85.34c0,3.74-12.3,6.94-29.71,8.25-5.43.42-11.35.64-17.56.64-26.1,0-47.27-4-47.27-8.89,0-3.53,10.94-6.58,26.78-8,6.2-.56,13.15-.87,20.49-.87q3.68,0,7.2.1c5.31.15,10.34.47,14.91.93C112.08,79,122.27,81.93,122.27,85.34Z"/><path class="cls-2" d="M89,60.21c0,1.53-5.76,5.51-12.86,5.51s-12.86-4-12.86-5.51S69,57.85,76.12,57.85,89,58.68,89,60.21Z"/><path class="cls-1" d="M98.87,81.24c-1.69,2.09-9.25,3.23-17.82,3.53-12,.4-25.9-.85-28.56-3.5l2-4,8.75-17.15c2,.91,4,1.24,5.65,2.15,7.11,3.87,7.11,3.87,13.57.25,1.89-1.06,4.26-1.34,6.53-2.4l8.1,17.31Z"/><path class="cls-3" d="M82.05,77.92c-.45,4.11-1,6.85-1,6.85-12,.4-25.9-.85-28.56-3.5l2.91-5.7C65.7,77.91,73.45,78.69,82.05,77.92Z"/><path class="cls-4" d="M98.87,81.24c-1.69,2.09-9.25,3.23-17.82,3.53,0,0,.55-2.74,1-6.85a106.41,106.41,0,0,0,14.17-2.35l.89,1.91Z"/><path class="cls-5" d="M96.22,75.57a106.41,106.41,0,0,1-14.17,2.35c.06-.44.1-.9.15-1.37a82.48,82.48,0,0,0,.28-14c1.89-1.06,4.26-1.34,6.53-2.4Z"/><path class="cls-5" d="M122.27,85.34c0,3.74-12.3,6.94-29.71,8.25.59-3.28-1.09-7.27-11.51-8.82,8.57-.3,16.13-1.44,17.82-3.53l-1.76-3.76C112.08,79,122.27,81.93,122.27,85.34Z"/></svg>