<svg id="Camada_1" data-name="Camada 1" xmlns="http://www.w3.org/2000/svg" viewBox="0 0 150 150"><path d="M90.01,82.46a13.4773,13.4773,0,0,1-.96,3.73H86.18l-.62,2.19-.23.82c-15.11.19-35.75-.1-36.61-.82a.0864.0864,0,0,1-.03-.06c.05-.36.1-.73.14-1.09.05-.35.09-.69.13-1.04.14-1.25.27-2.51.4-3.73,1.17-11.04,3.06-21.51,25.54-21.51a50.1625,50.1625,0,0,1,8.91.71C90.19,70.88,90.58,78.29,90.01,82.46Z" style="fill:#353435"/><path d="M90.01,82.46a13.4773,13.4773,0,0,1-.96,3.73H86.18l-.62,2.19H48.72v-.19c.04-.32.08-.64.11-.96.05-.35.09-.69.13-1.04.14-1.25.27-2.51.4-3.73Z" style="fill:#5c5c5c"/><path d="M86.18,86.19l-.62,2.19-.23.82-.8,2.83H46.93a2.9234,2.9234,0,0,1-2.92-2.92,2.9364,2.9364,0,0,1,2.92-2.92Z" style="fill:#353435"/><path d="M90.01,82.46c.57-4.17.18-11.58-6.2-20.8,13.95,2.53,15.6,11.46,16.63,20.8Z" style="fill:#191919"/><path d="M100.84,86.19H89.05a13.4773,13.4773,0,0,0,.96-3.73h10.43C100.57,83.69,100.7,84.95,100.84,86.19Z" style="fill:#3d3e44"/><path d="M103.07,86.19H86.18l-.62,2.19-.23.82-.8,2.83h18.54a2.92,2.92,0,1,0,0-5.84Z" style="fill:#191919"/></svg>