<svg id="Gooloos" xmlns="http://www.w3.org/2000/svg" width="150" height="150" viewBox="0 0 150 150"><path d="M94.505,127.35l-1.21,2.8s1.03,4.08,2.03,4.58c.74.38-.41,4.28-2.26,7.36a.138.138,0,0,1-.03.04,29.1327,29.1327,0,0,1-2,2.61c-1.97.4-3.88.7-5.74.94-.2.03-.41.05-.61.08-.49.05-.99.11-1.47.15h-.01c-.4.04-.8.08-1.2.11-1.11.1-2.18.17-3.23.21-.3.01-.6.02-.89.03a3.5261,3.5261,0,0,0-3.1-2.53c-1.83-.13-2.67,1.96-2.85,2.51-.81-.03-1.6-.07-2.34-.12-1.55-.11-2.97-.25-4.24-.41-.73-.09-1.4-.19-2.02-.28-1.47-.24-2.65-.47-3.49-.66-.98-1.03-1.73-1.9-1.98-2.19-.03-.04-.04-.07-.06-.09s-.03-.02-.03-.02c-.01-.02-.02-.02-.02-.03v-.01c-.12-.14-.25-.28-.36-.43l-.02-.02a17.358,17.358,0,0,1-3.08-6.69.6753.6753,0,0,1-.02-.14c-.05-.52.01-.87.21-.97.89-.45,1.81-3.76,1.99-4.45l.03-.03-.01-.02-.02-.05-3.43-7.94-.01-.01-1.43-3.31-5.65-13.09,1.74-1.18.42-.28,6.21,13.47.19.43,4.53,9.83c.24-.14.48-.28.74-.41a22.5209,22.5209,0,0,1,6.22-1.9c.14-.03.29-.05.43-.07a80.9249,80.9249,0,0,1,17.14.56,21.3864,21.3864,0,0,1,7.16,2.3l4.76-10.33,6.37-13.84.02-.03v-.01l1.04.7.83.57.29.19v.01Z" style="fill:#2d2d2d"/><path d="M82.005,146.02c-1.11.1-2.18.17-3.23.21-.3.01-.6.02-.89.03a3.5261,3.5261,0,0,0-3.1-2.53c-1.83-.13-2.67,1.96-2.85,2.51-.81-.03-1.6-.07-2.34-.12-1.55-.11-2.97-.25-4.24-.41.8-1.47,1.13-3.7-.02-7.05a16.8137,16.8137,0,0,0,17.44.64A24.181,24.181,0,0,0,82.005,146.02Z" style="fill:#0a0a0a"/><path d="M93.065,142.09a.138.138,0,0,1-.03.04,29.1327,29.1327,0,0,1-2,2.61c-1.97.4-3.88.7-5.74.94-.2.03-.41.05-.61.08,3.01-2.92,7.65-8.44,8.61-15.61,0,0,1.03,4.08,2.03,4.58C96.065,135.11,94.915,139.01,93.065,142.09Z" style="fill:#0a0a0a"/></svg>