<svg id="Camada_1" data-name="Camada 1" xmlns="http://www.w3.org/2000/svg" viewBox="0 0 150 150"><path d="M118.2173,117.068a9.6188,9.6188,0,0,1-.9315-5.003c.0785-1.0748.66-2.3655.6312-3.3789-.0584-2.084-1.9938-2.7522-3.6781-2.999-3.6388-.5331-7.1409-.0459-9.0545-3.4846a8.0587,8.0587,0,0,1-.6387-5.9452,4.426,4.426,0,0,1,.1885-.4454,3.6448,3.6448,0,0,1,1.1412-1.3882.2548.2548,0,0,1,.4194.1986,5.6118,5.6118,0,0,1-.0586,1.1646c-.0164.1162-.0367.2322-.0569.3482a8.6618,8.6618,0,0,0-.27,3.3494,5.2232,5.2232,0,0,0,4.0839,4.2658c2.6624.584,5.6662-.1326,7.8709,1.5478,2.3054,1.7572,1.1526,3.8508.9513,6.584-.1329,1.8036.1608,4.7562,1.9527,5.3752a3.356,3.356,0,0,0,.9274.1611c-.0441.8687-.23,1.392-.7284,1.4516A3.3454,3.3454,0,0,1,118.2173,117.068Z" style="fill:#0c0511"/><path d="M44.5318,97.7446a10.6036,10.6036,0,0,1,2.6548.49c.8682.2758.9834-.99.1224-1.2694a10.4559,10.4559,0,0,0-2.9215-.5c-.1424-.0042-.2842,0-.426.001a12.6354,12.6354,0,0,0-9.5755,4.731,11.92,11.92,0,0,0-2.3285,6.0708,13.9405,13.9405,0,0,0,.12,3.6619c.0883.5376.3539,1.423.4454,1.9533.4987,2.89-2.2179,2.4337-3.8916,2.4313-.7073-.001-.7689,1.11.0515,1.2775,1.8267.3731,4.1729.2491,5.1512-1.2368.99-1.5033-.2385-3.9028-.3677-5.6441-.4393-5.9243,4.2358-12.1033,10.6282-11.98C44.3064,97.7328,44.4191,97.7385,44.5318,97.7446Z" style="fill:#0c0511"/><path d="M97.4883,74.6853v9.7685a7.7585,7.7585,0,0,1-3.1607,6.0632,11.0943,11.0943,0,0,1-6.8428,2.2737H62.6675a11.0943,11.0943,0,0,1-6.8428-2.2737A8.8774,8.8774,0,0,1,53.59,87.9381a7.0825,7.0825,0,0,1-.9259-3.4843V74.6853c0-4.59,4.5017-8.3369,10.0036-8.3369H87.4848a11.84,11.84,0,0,1,4.14.7473v.0105C95.0726,68.4115,97.4883,71.3273,97.4883,74.6853Z" style="fill:#c7b299"/><path d="M120.1346,102.696a7.2644,7.2644,0,0,1-1.5324,2.9264c-.5641-.1789-1.32.79-1.0536,1.0421a13.4728,13.4728,0,0,1-2.2454-.0842c-10.8337-1.4421-17.2615-8.7475-19.6985-17.2844a7.3916,7.3916,0,0,0,1.8836-4.8421V74.6853c0-4.59-4.5016-8.3369-10.0035-8.3369H62.6675c-5.5019,0-10.0036,3.7474-10.0036,8.3369v9.7685a7.2975,7.2975,0,0,0,1.5112,4.3684A29.9949,29.9949,0,0,1,48.056,99.6434c-3.8312,4.2527-11.0572,6.8632-16.7826,5.6211a6.97,6.97,0,0,1-1.2558-2.5685,3.34,3.34,0,0,1,.0851-1.9158c1.16-3.1894,6.13-2.9474,8.833-4.5895,4.3739-2.6526,6.2149-8.4526,6.9918-12.8738v-3.221a7.17,7.17,0,0,1,.1383-1.3579,11.7152,11.7152,0,0,1-.1383-1.7369V72.1168c0-7.6527,7.5133-13.9264,16.708-13.9264H87.5167c9.1948,0,16.708,6.2737,16.708,13.9264v4.8843a11.7018,11.7018,0,0,1-.1383,1.7369,7.1622,7.1622,0,0,1,.1383,1.3579v3.221c.7769,4.4212,2.618,10.2212,6.9919,12.8738,2.7031,1.6421,7.6729,1.4,8.8435,4.5895A3.4316,3.4316,0,0,1,120.1346,102.696Z" style="fill:#19273f"/><path d="M54.1757,88.8213a29.9857,29.9857,0,0,1-6.1151,10.821c-3.832,4.2579-11.0593,6.8593-16.7917,5.6183.1806.2423.3707.4741.5671.69l.9454.8855a8.01,8.01,0,0,0,5.3556,1.6906,16.8652,16.8652,0,0,0,7.3445-2.1994c.25-.1353.4966-.2735.7367-.4149,4.5044-2.653,9.9611-8.7522,9.6094-15.3966A8.9983,8.9983,0,0,1,54.1757,88.8213Z" style="fill:#1b1626"/><path d="M120.06,100.78c-1.1706-3.1894-6.14-2.9474-8.8435-4.5895-4.3739-2.6526-6.215-8.4526-6.9919-12.8738v-3.221a7.1622,7.1622,0,0,0-.1383-1.3579,11.7018,11.7018,0,0,0,.1383-1.7369V72.1168c0-7.6527-7.5132-13.9264-16.708-13.9264H84.9413A11.2308,11.2308,0,0,0,90.05,60.8115c6.4491,1.7052,9.8333,8.1159,10.0036,12.5159.0957,2.3894-1.2877,6.2421-2.5648,9.2421v1.8843a7.3916,7.3916,0,0,1-1.8836,4.8421l0,.0008a9.2236,9.2236,0,0,1-1.28,1.2191c-.3516,6.6442,5.1051,12.7436,9.6095,15.3966a19.4257,19.4257,0,0,0,6.2072,2.4188,11.4989,11.4989,0,0,0,2.67.1853,7.76,7.76,0,0,0,4.714-1.7956l.0337-.03c-.008-.0055-.0075-.0168-.0142-.0233-.2645.01-.5342.0051-.8036.0008.27.0034.54.0076.8074-.0039-.266-.2526.49-1.221,1.0536-1.0421a7.2644,7.2644,0,0,0,1.5324-2.9264A3.4316,3.4316,0,0,0,120.06,100.78Zm-5.5878,5.6583c.278.0458.5464.1039.83.1417l-.0023,0C115.0172,106.5423,114.75,106.4842,114.4723,106.4385Z" style="fill:#1b1626"/><path d="M97.4883,74.6853v9.7685a7.7585,7.7585,0,0,1-3.1607,6.0632,11.0943,11.0943,0,0,1-6.8428,2.2737H62.6675a11.0943,11.0943,0,0,1-6.8428-2.2737A8.8774,8.8774,0,0,1,53.59,87.9381c1.6814,1.7262,4.9486,3.5894,11.1,3.0631,10.94-.9473,19.5389-1.8947,26.8713-8.5685,6.0766-5.5264,1.724-12.958.0639-15.3265C95.0726,68.4115,97.4883,71.3273,97.4883,74.6853Z" style="fill:#aa8e81"/></svg>