<svg id="Camada_1" data-name="Camada 1" xmlns="http://www.w3.org/2000/svg" viewBox="0 0 150 150"><defs><style>.cls-1{fill:#ab8964;}.cls-2{fill:#7e729b;}.cls-3{fill:#6a6184;}.cls-4{fill:#5c597c;}.cls-5{fill:#4d4c6b;}.cls-6{fill:#9393db;}.cls-7{fill:#7f7fba;}</style></defs><path class="cls-1" d="M87.46,75.61a1.09,1.09,0,0,1,.15.45Z"/><path class="cls-1" d="M87.46,75.6Z"/><path class="cls-1" d="M87.61,76.06c.06.18.12.36.17.54A1.43,1.43,0,0,1,87.61,76.06Z"/><path class="cls-2" d="M61.48,72.08A7.84,7.84,0,0,1,52.81,79a8.11,8.11,0,1,1,8.67-6.89Z"/><path class="cls-3" d="M98.27,69.21a1,1,0,0,1,0,.17,7.57,7.57,0,1,1-14.93-2.22,8.27,8.27,0,0,1,1.48-3.69,19.07,19.07,0,0,1,5.22.66,17,17,0,0,1,4.66,2A15.82,15.82,0,0,1,98.27,69.21Z"/><path class="cls-4" d="M58.83,72a4.23,4.23,0,1,1-3.55-4.88A4.27,4.27,0,0,1,58.83,72Z"/><path class="cls-5" d="M95.2,68.93A4.23,4.23,0,1,1,90,64.13a17,17,0,0,1,4.66,2A4.17,4.17,0,0,1,95.2,68.93Z"/><path class="cls-6" d="M103.11,83.13l-13.78.65-40,1.9c0-.11,0-20.91,23.23-21.52a35.87,35.87,0,0,1,4.19.12A31.35,31.35,0,0,1,103.11,83.13Z"/><path class="cls-7" d="M103.11,83.13l-13.78.65L84.12,77s3.72-5.13-7.38-12.7A31.35,31.35,0,0,1,103.11,83.13Z"/><path class="cls-2" d="M103.48,84.93a64.81,64.81,0,0,1-10,2.41c-6.31,1.09-12.82,1.64-19.24,3a99.07,99.07,0,0,1,10.63.58,53.73,53.73,0,0,1,13.86,3.31c.48.24-.94,1.77-2.62,3-2.15-.16-4.7-.38-7.54-.59-2.17-.16-4.52-.32-7-.44-10.44-.52-22.81-.36-32.45,3,0,0-2.79,1.92-3.26-1.25a42.1,42.1,0,0,1-.67-9.86c.19-4.5,8.95-9.3,18.26-10.92,4.08-.72,12.4-.76,20.62-.24s16.19,1.6,19.85,3.15C104.38,82.35,104.68,84.46,103.48,84.93Z"/><path class="cls-4" d="M106,81.6a3.09,3.09,0,0,0-1.61-1.29h0a2.68,2.68,0,0,0-.34-.16h0c-3.66-1.55-11.7-2.63-19.85-3.15a26.81,26.81,0,0,1,7.47,4.25c4,3.23,3.48,5,2.16,6-8,1.29-16.94,1.93-23.77,3.39a153.37,153.37,0,0,1,15.79.84c1.56.24,3.81.76,4.67,1.86.69.88-.49,2.26-1.85,3.42,2.84.21,5.39.43,7.54.59h0c3.69.27,6.14.35,6.67-.13,2.06-1.89.24-4.43.24-4.43S107.7,85.79,106,81.6ZM98.43,94.13h0l-.18-.06Z"/><path class="cls-2" d="M98.27,69.21a15.82,15.82,0,0,0-3.59-3.07,4.17,4.17,0,0,0-3-2.09,4,4,0,0,0-1.63.08,19.07,19.07,0,0,0-5.22-.66A7.46,7.46,0,0,1,92,60.27,7.82,7.82,0,0,1,98.27,69.21Z"/><path class="cls-4" d="M94.68,66.14a17,17,0,0,0-4.66-2,4,4,0,0,1,1.63-.08A4.17,4.17,0,0,1,94.68,66.14Z"/></svg>