<svg id="Camada_1" data-name="Camada 1" xmlns="http://www.w3.org/2000/svg" viewBox="0 0 150 150"><path d="M87.4635,75.61a1.1492,1.1492,0,0,1,.15.4518C87.5635,75.9108,87.5132,75.76,87.4635,75.61Z" style="fill:#ab8964"/><path d="M87.456,75.5965l.0034.001.0041.012Z" style="fill:#ab8964"/><path d="M87.613,76.0613c.0576.18.1154.36.1706.54A1.2849,1.2849,0,0,1,87.613,76.0613Z" style="fill:#ab8964"/><path d="M61.4768,72.0784a7.8335,7.8335,0,0,1-8.6632,6.8868,8.109,8.109,0,1,1,8.6632-6.8868Z" style="fill:#7e729b"/><path d="M98.2739,69.2088a1.0519,1.0519,0,0,1-.0193.1732,7.57,7.57,0,1,1-14.9384-2.2234,8.294,8.294,0,0,1,1.4823-3.6864,19.0957,19.0957,0,0,1,5.2169.6545,17.1175,17.1175,0,0,1,4.6682,2.0116A16.14,16.14,0,0,1,98.2739,69.2088Z" style="fill:#6a6184"/><path d="M58.8338,72.0242a4.2318,4.2318,0,1,1-3.5493-4.8818A4.2676,4.2676,0,0,1,58.8338,72.0242Z" style="fill:#5c597c"/><path d="M95.2034,68.93a4.2293,4.2293,0,1,1-5.188-4.803,17.1175,17.1175,0,0,1,4.6682,2.0116A4.2525,4.2525,0,0,1,95.2034,68.93Z" style="fill:#4d4c6b"/><path d="M103.1057,83.1269l-13.7737.6545L49.32,85.6776c0-.1059.0289-20.906,23.2258-21.5221a35.1449,35.1449,0,0,1,4.1966.1252A31.3381,31.3381,0,0,1,103.1057,83.1269Z" style="fill:#9393db"/><path d="M103.1057,83.1269l-13.7737.6545-5.2169-6.805s3.725-5.13-7.3729-12.6957A31.3381,31.3381,0,0,1,103.1057,83.1269Z" style="fill:#7f7fba"/><path d="M103.4811,84.9268A65.039,65.039,0,0,1,93.5,87.3428c-6.3141,1.0876-12.8208,1.6363-19.2408,3.0127a100.41,100.41,0,0,1,10.6359.5871,53.6029,53.6029,0,0,1,13.8507,3.3111c.4813.2406-.9337,1.771-2.6181,3.0223-2.1464-.154-4.6971-.3754-7.5365-.5871-2.1753-.1637-4.5239-.3176-6.9687-.4428-10.4434-.52-22.8118-.3561-32.4563,3.0031,0,0-2.7818,1.9251-3.2534-1.2513a41.8756,41.8756,0,0,1-.6738-9.8563c.1926-4.5046,8.9515-9.2979,18.2592-10.9246,4.0811-.7123,12.4069-.76,20.6172-.2406,8.1526.52,16.1993,1.6074,19.8569,3.1571C104.3763,82.3473,104.6843,84.4648,103.4811,84.9268Z" style="fill:#7e729b"/><path d="M105.95,81.605a3.1336,3.1336,0,0,0-1.6076-1.2933l-.01-.0151H104.31c-.1135-.0536-.2143-.1085-.3379-.1611l0-.002c-3.6576-1.55-11.7043-2.6374-19.8569-3.1571a26.9029,26.9029,0,0,1,7.4789,4.2543c3.955,3.2294,3.4723,4.9961,2.1549,5.9462-7.9642,1.2967-16.94,1.9307-23.7717,3.3915a152.1323,152.1323,0,0,1,15.7944.844c1.562.2364,3.8068.7583,4.6673,1.8595.693.8759-.4909,2.262-1.848,3.417,2.8394.2117,5.39.4331,7.5365.5871l0,0c3.69.2712,6.1427.3516,6.67-.1283,2.0654-1.8828.2425-4.4271.2425-4.4271S107.7047,85.79,105.95,81.605ZM98.4276,94.1319l.0017.0028q-.0891-.0327-.1775-.0668Q98.3387,94.1,98.4276,94.1319Z" style="fill:#5c597c"/><path d="M98.2739,69.2088a16.14,16.14,0,0,0-3.59-3.07,4.1983,4.1983,0,0,0-4.6682-2.0116,19.0957,19.0957,0,0,0-5.2169-.6545,7.4711,7.4711,0,0,1,7.18-3.2052A7.8271,7.8271,0,0,1,98.2739,69.2088Z" style="fill:#7e729b"/><path d="M94.6836,66.1383a17.1175,17.1175,0,0,0-4.6682-2.0116,4.1983,4.1983,0,0,1,4.6682,2.0116Z" style="fill:#5c597c"/></svg>