<svg id="Camada_1" data-name="Camada 1" xmlns="http://www.w3.org/2000/svg" viewBox="0 0 150 150"><path d="M49.62,85.0609c-.047-2.3577-.0333-4.6984-.0043-6.079a2.79,2.79,0,0,0-.2483-.1459c.0782-.2745.1575-.5486.23-.8238.1554-.5885-.6954-.9467-.9014-.3455-.1068.3123-.2066.6278-.3073.9426-.0936-.0033-.1872-.0068-.2828-.0043.0055-.3223.0121-.6447.0112-.9665a.5031.5031,0,0,0-.314-.4743l-.0105-.0039a.55.55,0,0,0-.1321-.0361l-.0155-.0018a.4215.4215,0,0,0-.4876.4168c-.0264.3809-.0421.7636-.06,1.1459-.1094.0114-.2184.0215-.3273.0313-.0912-.3709-.1833-.7419-.27-1.1131-.1187-.51-.9242-.3849-.8055.13.0775.3358.15.6739.223,1.0116-.0946-.0041-.19-.0069-.2818-.0185a.6812.6812,0,0,0-.2386.014c-.1265-.23-.2541-.46-.3775-.6918-.2461-.4616-.9921-.1318-.7447.3344.1795.3382.3541.6805.5295,1.0219l-.0013.0079c-.1148.0889-.2223.1782-.3195.2681-.261-.2721-.5228-.5434-.7793-.818-.3569-.382-.9924.13-.6332.5163.2888.31.5735.6264.8589.9413a3.597,3.597,0,0,0-.2012.3321c-.3627-.22-.7263-.4381-1.0851-.6617-.4433-.2762-.925.3837-.4785.6633.4142.2592.8253.5261,1.2372.7914q-.05.1556-.0965.3194c-.4659-.1349-.9328-.2685-1.3959-.4091-.4994-.1515-.7946.6109-.2911.7649.4913.15.9819.3095,1.4726.4664q-.038.1515-.0786.3105c-.4868-.01-.9741-.0172-1.46-.0327-.5215-.0167-.61.7965-.0839.8144.4056.0139.8985.0623,1.3.1157-.0334.1191-.0638.2376-.0863.3542-.3616.09-.7232.1809-1.085.2658-.5081.1194-.3839.9277.129.8085a3.5329,3.5329,0,0,1,.8682-.04c0,.08,0,.1607.002.2411-.3258.0189-.6268.0265-.6848.0246-.5785-.0192-.5784.475-.1686.7619-.0139.0074.3546.0667.7374.1466A15.9137,15.9137,0,0,1,49.62,85.0609Z" style="fill:#c6c6c6"/><path d="M50.056,97.3132a23.3607,23.3607,0,0,1,.4772-5.17l-.3585.0073a38.6287,38.6287,0,0,1-.5547-7.09,15.9137,15.9137,0,0,0-7.1383,1.2961c.0563.0118.113.024.1688.0366.0042.0661.0083.1319.0121.1988-.2643-.0053-.54-.0107-.6819-.0148q-.3162.1459-.6264.3045a.347.347,0,0,0,.239.4562,9.3634,9.3634,0,0,1,1.0678.4921c-.0008.0965.0042.1915.012.286-.3629-.0075-.5405-.0144-1.1454-.0339-.5214-.0167-.61.7965-.0839.8145a5.2665,5.2665,0,0,1,1.4983.1639c.0275.0746.0529.1486.0769.2221-.5342.1338-.7917.196-1.4466.35a.41.41,0,0,0,.1289.8084c1.2452.0412,1.1228.1074,1.3152.0693l-.0023.0394c-.1787.1038-.3752.2266-.5436.3183-1.6082.1013-1.3048.9584-.1223.9976a4.58,4.58,0,0,1,.5455.258c-.0037.0408-.008.0831-.0119.1242a5.171,5.171,0,0,1-1.3281-.1265c-.4994-.1516-.7946.6109-.2911.765.5075.1552,1.0141.32,1.521.4816-.0055.1035-.0053.2-.0065.2979-.527-.0106-1.0546-.0185-1.58-.0354-.5215-.0167-.61.7964-.0839.8145.572.0194,1.1457.0486,1.7189.0756.0133.0866.0273.1738.0457.2592-.5453.1353-1.09.2728-1.6361.4009-.5081.1193-.3839.9277.129.8084.5863-.1364,1.1768-.2638,1.7664-.3927.03.0712.0643.1444.0981.2173-.5162.2862-1.0321.5741-1.55.8526-.46.2473-.1316.9958.3329.7473.5335-.2851,1.0733-.5627,1.6119-.8416.0342.0635.0729.1353.1162.2146-.4157.4015-.83.8047-1.25,1.2-.3806.3583.13.9959.5144.6353.3923-.3676.7921-.73,1.19-1.0936a2.5505,2.5505,0,0,0,.1949.242c-.2577.4275-.5134.8571-.7754,1.2805-.2753.4448.3822.9283.6608.48.2639-.4244.5363-.8457.8056-1.2681a.8178.8178,0,0,0,.2418.3285c-.116.3986-.2286.799-.3483,1.1957-.1511.5011.6086.7972.7622.2919.1228-.4045.253-.8083.38-1.2123.038.0054.0729.0092.1066.0121a.7977.7977,0,0,0,.1957.2156c-.0043.3233-.0143.6471-.0133.97a.5029.5029,0,0,0,.314.4743l.01.0039a.5547.5547,0,0,0,.1318.036l.016.0018a.4215.4215,0,0,0,.4875-.4166c.0237-.3418.0378-.6852.0559-1.0281q.1309-.048.2575-.0889c.0837.3316.1643.6643.2531.9939.1587.5875,1.0739.4706.9527-.1533-.0715-.369-.1531-.7369-.2315-1.1051q.1241-.0314.2415-.064c.1679.3014.333.6049.5057.903.3047.5264,1.1587.1757.8807-.3956-.1089-.2238-.2252-.4448-.3371-.6676a.8058.8058,0,0,0,.3026-.2c.1551.1584.3073.32.464.4766a.519.519,0,0,0,.8094-.0976C50.7108,98.7741,50.2106,98.4112,50.056,97.3132Z" style="fill:#b3b3b3"/><path d="M100.6384,84.4161c.203-2.3494.3443-4.6859.4068-6.0654a2.776,2.776,0,0,1,.2575-.1291c-.06-.279-.1209-.5578-.1753-.8373-.116-.5975.7566-.8985.9223-.285.0859.3187.1646.64.2442.9609.0937.0029.1873.0056.2826.0144.0158-.322.0306-.6441.0527-.9651a.503.503,0,0,1,.3447-.4524l.0108-.0033a.5461.5461,0,0,1,.1342-.0272l.0156-.0008a.4215.4215,0,0,1,.4589.4481c.0012.3819-.0085.7648-.0161,1.1475.1084.0186.2165.0358.3245.0528.1156-.364.2321-.7282.3429-1.0927.1523-.5009.9477-.323.7952.1826-.1.33-.1941.6625-.29.9946.0946.0021.19.0056.2824,0a.681.681,0,0,1,.2372.03c.1414-.2216.284-.4426.4224-.6652.2762-.4444.9987-.0659.721.383-.2016.3255-.3984.6555-.5961.9845l.0008.008c.1087.0963.21.1925.3011.2886.2784-.2542.5576-.5076.8317-.7646.3814-.3575.9816.1958.5977.5572-.3088.2906-.6138.587-.9194.8823a3.5927,3.5927,0,0,1,.1788.3447c.3764-.1951.7537-.389,1.1265-.5884.4606-.2463.8975.4441.4335.6935-.43.2312-.8583.47-1.2869.7078q.04.1585.0752.3251c.4738-.1038.9486-.2062,1.42-.3158.5082-.1182.7523.6622.24.7825-.5.1175-1,.2438-1.5.3679q.0277.1536.0578.3149c.4865.0228.9732.0474,1.4587.0641.5214.0179.5557.8351.03.8182-.4056-.013-.9006.0026-1.3046.0293.0254.1211.048.2413.0627.3592.3548.1137.71.2284,1.065.3371.499.1527.3216.951-.1823.7981a3.54,3.54,0,0,0-.8636-.0978c-.0053.08-.01.16-.0179.2405.3238.04.6237.0679.6816.07.5785.0191.5457.5122.1179.7713.0132.0084-.3583.0431-.7455.0975A15.9146,15.9146,0,0,0,100.6384,84.4161Z" style="fill:#c6c6c6"/><path d="M99.3921,96.6127a23.36,23.36,0,0,0-.1338-5.19l.3572.0309a38.6151,38.6151,0,0,0,1.0229-7.0377,15.9146,15.9146,0,0,1,7.0369,1.7659c-.0571.0081-.1144.0165-.171.0253-.0085.0658-.0169.1311-.0251.1976.264.0122.54.0251.6814.03q.3057.1665.6047.3453a.3469.3469,0,0,1-.2686.4394,9.3641,9.3641,0,0,0-1.0981.42c-.0056.0963-.0168.1908-.0309.2846.3627.0165.54.0213,1.1452.042.5214.0179.5559.8351.03.8183a5.2646,5.2646,0,0,0-1.5058.0643c-.0323.0726-.0626.1447-.0915.2165.5242.1689.777.2479,1.42.4447a.41.41,0,0,1-.1822.7981c-1.2452-.0413-1.1274.0328-1.3169-.018l0,.0395c.1715.1154.3594.251.5214.3536,1.5979.2076,1.2385,1.0427.0559,1.0035a4.6033,4.6033,0,0,0-.5614.2213c.0011.041.0025.0836.0037.1248a5.166,5.166,0,0,0,1.3336-.0383c.5083-.1182.7523.6622.24.7826-.5167.1213-1.0331.2519-1.55.38-.0014.1037-.0079.2-.0132.2977.5265.0243,1.0535.0514,1.579.0693.5214.0179.5558.8351.03.8182-.572-.0184-1.1464-.0273-1.72-.0384-.0189.0856-.0387.1717-.0627.2557.5352.1711,1.07.3444,1.606.5083.499.1527.3216.9511-.1823.7981-.576-.1749-1.1567-.3411-1.7365-.5088-.0343.0691-.0737.14-.1122.21.4961.32.9918.6412,1.4906.9535.4427.2772.0654,1.0022-.3817.7236-.5134-.32-1.0336-.6326-1.5525-.9465-.0384.0611-.0818.13-.13.2064.3883.4282.7753.8579,1.168,1.28.356.3827-.1953.9851-.5553.6-.3672-.3928-.7421-.7808-1.1149-1.17a2.5392,2.5392,0,0,1-.21.2286c.2288.4436.4555.8892.6889,1.329.2452.4621-.4428.9009-.6912.4352-.2352-.441-.479-.8794-.72-1.3188a.8177.8177,0,0,1-.263.3118c.0893.4054.1752.8124.2683,1.2161.1177.51-.66.7552-.78.2409-.0958-.4118-.1989-.8233-.2993-1.2348-.0383.0028-.0734.0043-.1071.005a.798.798,0,0,1-.21.2021c-.0172.3229-.0286.6466-.0509.9688a.5029.5029,0,0,1-.3448.4524l-.0106.0033a.55.55,0,0,1-.1339.0271l-.0161.0008a.4214.4214,0,0,1-.4588-.448c-.001-.3426.0076-.6862.0123-1.03q-.1276-.0566-.2511-.1058c-.1055.3253-.2079.652-.3184.9749-.1972.5758-1.1027.3986-.94-.216.0958-.3634.2015-.7251.3042-1.0873q-.1218-.04-.2367-.08c-.1875.29-.3724.5816-.5645.8676-.3389.505-1.1678.0986-.8525-.453.1234-.2162.2541-.429.38-.6439a.8076.8076,0,0,1-.2887-.2193c-.1652.1478-.3279.2991-.4945.4447a.5189.5189,0,0,1-.8012-.1509C98.642,98.027,99.1652,97.698,99.3921,96.6127Z" style="fill:#b3b3b3"/><path d="M86.0056,76.1379l-1.5692-.3521A36.6754,36.6754,0,0,0,61.8843,77.59l-.01,0a38.6019,38.6019,0,0,0-6.6513,3.5517c-2.4447,1.61-3.9694,6.8623-4.6869,11.0007l-.36.0081c-.45-1.5157-.5759-6.1724-.5862-9.7848-.0056-1.3409.0041-2.5412.022-3.3811l.0222-.67a25.1259,25.1259,0,0,1,2.19-9.6228c3.9485-8.6439,12.9654-14.1383,25.0788-13.7368,1.2193.04,2.3967.1395,3.5424.2875A36.3618,36.3618,0,0,1,86.0056,76.1379Z" style="fill:#3a89a5"/><path d="M87.9768,92.9773l-1.9886,1.5532,0,.01c-9.5418-1.5832-18.8709-1.0175-29.7271,2.4741-2.4191.7747-4.2433,1.6494-5.4114,1.7012-.8326.0328-1.338-.3259-1.4939-1.4372.0007-.02-.0084-.0506-.0078-.0707A68.7576,68.7576,0,0,1,87.9768,92.9773Z" style="fill:#2c5c77"/><path d="M101.3512,96.7392c-.354,2.11-2.29,1.171-5.5418.128q-.6322-.2019-1.3253-.406a75.2921,75.2921,0,0,0-8.4963-1.9207l0-.01,1.9886-1.5532a68.1973,68.1973,0,0,1,12.4587,3.54A2.3628,2.3628,0,0,0,101.3512,96.7392Z" style="fill:#204454"/><path d="M100.6973,91.1228A33.57,33.57,0,0,0,98.6182,84.42c-.0563-.1119-.1123-.2338-.1686-.3457-.056-.1219-.1123-.2338-.1687-.3458a13.1366,13.1366,0,0,0-.8518-1.469c-.1336-.1946-.2579-.3688-.3925-.5333A5.3784,5.3784,0,0,0,95.6684,80.44a38.539,38.539,0,0,0-9.6628-4.3024c-.5943-.18-1.1994-.34-1.8051-.48,5.42,9.4447,3.7786,17.3147,3.7786,17.3147a68.7669,68.7669,0,0,1,12.4594,3.5446,2.3547,2.3547,0,0,0,.9132.22,1.383,1.383,0,0,0,.0366-.1989A23.8671,23.8671,0,0,0,100.6973,91.1228Z" style="fill:#5788a3"/><path d="M101.9448,80.048c-.08,2.4187-.4344,8.88-1.2475,11.0748A33.57,33.57,0,0,0,98.6182,84.42c-.056-.1219-.1123-.2338-.1686-.3457a2.2059,2.2059,0,0,0-.1687-.3458,13.1366,13.1366,0,0,0-.8518-1.469c-.1336-.1946-.2579-.3688-.3925-.5333A5.3784,5.3784,0,0,0,95.6684,80.44a38.539,38.539,0,0,0-9.6628-4.3024,36.3618,36.3618,0,0,0-5.5609-20.8956c9.8914,1.3283,16.7753,6.7593,19.7841,14.3932a25.4313,25.4313,0,0,1,1.7228,9.3022C101.96,79.2981,101.9571,79.6783,101.9448,80.048Z" style="fill:#3e708c"/><path d="M61.8743,77.5894a38.6019,38.6019,0,0,0-6.6513,3.5517c-2.4447,1.61-3.9694,6.8623-4.6869,11.0007l-.36.0081c-.45-1.5157-.5759-6.1724-.5862-9.7848C51.8,80.2572,55.5473,78.3,61.8743,77.5894Z" style="fill:#3e708c"/><path d="M87.9768,92.9773a68.7576,68.7576,0,0,0-38.6292,4.2306,24.982,24.982,0,0,1,.4943-5.1223c.7261-4.1593,2.27-9.4379,4.7478-11.0553A37.7344,37.7344,0,0,1,84.2,75.6562C89.6169,85.1074,87.9768,92.9773,87.9768,92.9773Z" style="fill:#5ba7c1"/></svg>