<svg id="Camada_1" data-name="Camada 1" xmlns="http://www.w3.org/2000/svg" viewBox="0 0 150 150"><defs><style>.cls-1{fill:#5c5c99;}.cls-2{fill:#daeaea;}.cls-3{fill:#c0d8d7;}.cls-4{fill:#a5b7b6;}.cls-5{fill:#41275b;}.cls-6{fill:#c19a5b;}</style></defs><path class="cls-1" d="M113.08,118.89a28.25,28.25,0,0,0-3-7.39l-.35-.56a.61.61,0,0,0-.07-.18l-.33-.46-.05-.08h0a37.09,37.09,0,0,0-7.56-8.42,32.8,32.8,0,0,1-2.46,8.87,25.23,25.23,0,0,1-10.37,12.2A25.94,25.94,0,0,1,74.77,126a29.22,29.22,0,0,1-13.5-3.52C49.34,115.81,48.1,102,48.1,102c-3.24,2.48-5.48,5.64-7.64,8.85a23.23,23.23,0,0,0-3.3,7.71,1.26,1.26,0,0,0-.06.21c-.32,1-1.5,5.53.48,8.81a6.54,6.54,0,0,0,2.39,2.3,6,6,0,0,0,.67.34,4.79,4.79,0,0,0,.65.25,5.73,5.73,0,0,0,1.21.29,6,6,0,0,0,1.11,0l.3,0,.33-.05.33-.07a3.36,3.36,0,0,0,.48-.14,2.74,2.74,0,0,0,.4-.15l.67-.32a8.18,8.18,0,0,0,1.65-1.21,9.77,9.77,0,0,0,1.57-1.84l.43-.38,1.07-.94.1.23s0,0,0,0a2,2,0,0,1,.09.3c.11.61.24,1.21.38,1.8,0,.15.06.29.1.45a40.24,40.24,0,0,0,4,10.06c.09.18.18.34.27.49h0a3.37,3.37,0,0,1,.23.4c.25.44.52.88.79,1.31h0s0,0,0,0l0,0,.07.12a63.67,63.67,0,0,0,4.72,6.69,7,7,0,0,0,.88.91,5.67,5.67,0,0,0,3,1.51l.41.05a3,3,0,0,0,.69,0h.55l.15,0h0a4.77,4.77,0,0,0,1.13,0c2.45-.27,3.11-2.49,3.66-4.16.09-.24.16-.46.24-.67a.19.19,0,0,0,0-.07l.59-1.48h0a2,2,0,0,1,1.82-.79,2.28,2.28,0,0,1,.67.17,5.71,5.71,0,0,1,1.08.59l.26.18a4.49,4.49,0,0,1,.56,1.14c.06.17.12.34.19.5a5.67,5.67,0,0,0,2.29,3.42,3,3,0,0,0,.42.27c.16.09.32.18.49.26a6.4,6.4,0,0,0,.84.34,9.31,9.31,0,0,0,2,.46h0a4.56,4.56,0,0,0,1.33,0c7.37-1.11,12.83-18.78,13.17-19.91a.11.11,0,0,0,0,0,0,0,0,0,0,0,0c.43-1.1.85-2.21,1.27-3.33.11-.29.24-.57.37-.85,0,0,0,0,0,0a23.65,23.65,0,0,0,2.54,2.81h0l.16.15.16.15a5.92,5.92,0,0,0,.49.41c.17.13.33.24.49.34a4.4,4.4,0,0,0,.51.29l.46.2a6.5,6.5,0,0,1-1.9-1.24l-.32-.3a7.12,7.12,0,0,1,.55-1.27s0,0,0,0c.09-.17.19-.35.31-.54.15.26.31.51.47.75a10.51,10.51,0,0,0,1.79,2,8.77,8.77,0,0,0,1.39,1,3.32,3.32,0,0,0,.46,0l.33,0h0l.1,0h.06l.1,0H108l.28-.06.12,0,.13,0,.2-.07.46-.19.26-.13h0l.23-.13a6.71,6.71,0,0,0,1.72-1.47,26.39,26.39,0,0,0-2.06-7.59A35.93,35.93,0,0,1,113.08,118.89Zm-47.55,31-.14,0c-.06,0-.06,0,0,0h0l.18,0Zm-17.37-48-.06,0h.08Z"/><path class="cls-2" d="M91.14,129.26a10.38,10.38,0,0,1-10.35,10.36H69.09a10.37,10.37,0,0,1-9.88-7.3,10,10,0,0,1-.47-3.06,10.28,10.28,0,0,1,2.35-6.54c.06-.07.11-.14.18-.21A29.22,29.22,0,0,0,74.77,126a25.94,25.94,0,0,0,14.15-3.16l.35.48a10.17,10.17,0,0,1,1.87,5.91Z"/><path class="cls-3" d="M91.14,129.26a10.38,10.38,0,0,1-10.35,10.36H69.09a10.37,10.37,0,0,1-9.88-7.3,20.62,20.62,0,0,0,13.84,5.12c9.31-.13,14.09-1.25,17.85-10.41A10.29,10.29,0,0,1,91.14,129.26Z"/><path class="cls-4" d="M47.78,128.8a7.27,7.27,0,0,1-3.21,1.8l-.33.07-.33.05-.3,0a6,6,0,0,1-1.11,0,5.73,5.73,0,0,1-1.21-.29,8.46,8.46,0,0,1-1.28-.59,6.54,6.54,0,0,1-2.39-2.3c2,.44,4.89.37,8.05-2.42a11.35,11.35,0,0,1,2.1,3.67S47.78,128.79,47.78,128.8Z"/><path class="cls-2" d="M40,129.83a8.46,8.46,0,0,0,1.28.59,6.32,6.32,0,0,1-1.32-.59,6.54,6.54,0,0,1-2.39-2.3c-2-3.28-.8-7.79-.48-8.81a27.87,27.87,0,0,1,8.57,6.39c-3.16,2.79-6.1,2.86-8.05,2.42A6.54,6.54,0,0,0,40,129.83Z"/><path class="cls-2" d="M113.36,124.38a9.14,9.14,0,0,1-1.92,4.26h0a6.53,6.53,0,0,1-1.72,1.44l-.23.13h0l-.26.13-.46.19-.2.07-.13,0-.12,0-.28.06H108l-.1,0h-.06l-.1,0h0l-.33,0a3.32,3.32,0,0,1-.46,0h-.34l-.35,0-.25,0a3.73,3.73,0,0,1-.44-.08l-.34-.08c-.2-.06-.41-.13-.61-.21h0a4,4,0,0,1-.42-.2,4.4,4.4,0,0,1-.51-.29c-.16-.1-.32-.21-.49-.34a5.92,5.92,0,0,1-.49-.41l-.16-.15-.16-.15h0c0-.07,0-.15.08-.24l.12-.29c.09-.22.21-.48.36-.77l.31-.52a10.58,10.58,0,0,1,.76-1.11,20,20,0,0,1,3.58-3.59c.56-.44,1.18-.89,1.86-1.34a35.93,35.93,0,0,1,3.71-2.14l0,0A13.68,13.68,0,0,1,113.36,124.38Z"/><path class="cls-5" d="M70.12,144.5a17.44,17.44,0,0,1-4.25,5.56,3,3,0,0,0,.69,0h.55l.15,0h0a4.77,4.77,0,0,0,1.13,0c2.45-.27,3.11-2.49,3.66-4.16.09-.24.16-.46.24-.67a.19.19,0,0,0,0-.07l.59-1.48h0a2,2,0,0,1,1.82-.79,2.28,2.28,0,0,1,.67.17,5.71,5.71,0,0,1,1.08.59C75.16,141.9,71.24,141.82,70.12,144.5Z"/><path class="cls-5" d="M110.12,111.5l-.35-.56a.61.61,0,0,0-.07-.18l-.33-.46-.05-.08h0a37.09,37.09,0,0,0-7.56-8.42,32.8,32.8,0,0,1-2.46,8.87A20,20,0,0,1,109.37,121a35.93,35.93,0,0,1,3.71-2.14A28.25,28.25,0,0,0,110.12,111.5Z"/><path class="cls-5" d="M102.35,128.9a7.12,7.12,0,0,1,.55-1.27.08.08,0,0,1,0,0,33.63,33.63,0,0,1-5.12-8.15,77.37,77.37,0,0,1-3.19,10.34c-4.34,12-10.38,17.89-13,20a9.31,9.31,0,0,0,2,.46h0a4.56,4.56,0,0,0,1.33,0c7.37-1.11,12.83-18.78,13.17-19.91a.11.11,0,0,0,0,0,0,0,0,0,0,0,0c.43-1.1.85-2.21,1.27-3.33.11-.29.24-.57.37-.85,0,0,0,0,0,0a23.65,23.65,0,0,0,2.54,2.81h0l.16.15.16.15a5.92,5.92,0,0,0,.49.41c.17.13.33.24.49.34a4.4,4.4,0,0,0,.51.29l.46.2a6.5,6.5,0,0,1-1.9-1.24Z"/><path class="cls-5" d="M50.34,118.91a22,22,0,0,1-4.67,6.2,11.35,11.35,0,0,1,2.1,3.67s0,0,0,0a10,10,0,0,0,1.14-1.23l.85-.75a14.62,14.62,0,0,1,1.18-.95,2,2,0,0,1,.09.3c.11.61.24,1.21.38,1.8,0,.15.06.29.1.45a40.24,40.24,0,0,0,4,10.06c-2-4-4.51-16.33-5-19C50.38,119.1,50.34,118.91,50.34,118.91Z"/><path class="cls-4" d="M113.36,124.38a9.14,9.14,0,0,1-1.92,4.26h0a6.53,6.53,0,0,1-1.72,1.44l-.23.13h0l-.26.13-.46.19-.2.07-.13,0-.12,0-.28.06H108l-.1,0h-.06l-.1,0h0l-.33,0a3.32,3.32,0,0,1-.46,0h-.34l-.35,0-.25,0a3.73,3.73,0,0,1-.44-.08l-.34-.08c-.2-.06-.41-.13-.61-.21h0a4,4,0,0,1-.42-.2,4.4,4.4,0,0,1-.51-.29c-.16-.1-.32-.21-.49-.34a5.92,5.92,0,0,1-.49-.41l-.16-.15-.16-.15h0c0-.07,0-.15.08-.24l.12-.29.36-.77s6.59,2.65,6.51-6.56a35.93,35.93,0,0,1,3.71-2.14l0,0A13.68,13.68,0,0,1,113.36,124.38Z"/><path class="cls-1" d="M80.14,131.24c-.11-.22-.22-.44-.35-.66a1.74,1.74,0,0,0-.11-.18h0a3.17,3.17,0,0,0-.23-.36l-.06-.08h0a3.55,3.55,0,0,0-.23-.31h0l0,0,0-.08h0l-.38-.42-.34-.33a5.39,5.39,0,0,0-.71-.55,6.24,6.24,0,0,0-.7-.4,5.15,5.15,0,0,0-.71-.27,2.14,2.14,0,0,0-.34-.09,2.25,2.25,0,0,0-.36-.06H74.8l-.35,0a4.37,4.37,0,0,0-.7.15,5,5,0,0,0-.71.28,4.38,4.38,0,0,0-.7.4,4.15,4.15,0,0,0-.34.24l-.24.2q-.21.18-.42.39c-.15.16-.3.32-.44.49l-.35.46a7.42,7.42,0,0,0-.71,1.25,6.64,6.64,0,0,0-.6,2.59,3.81,3.81,0,0,0,.59,2.12,3.93,3.93,0,0,0,1,1c.14.09.29.17.44.25l.41.19,0,0h0l.19.07.34.11c.22.06.45.12.7.17s.45.08.71.11l.7,0,.35,0h.73l.36,0,.35,0,.71-.1.7-.16a6.55,6.55,0,0,0,.71-.25l.34-.16a2.32,2.32,0,0,0,.38-.21h0l.06,0h0l.22-.16h0l.05,0,0,0h0l.2-.17h0l.11-.11a4.78,4.78,0,0,0,.34-.42,3.65,3.65,0,0,0,.63-2.15A6.52,6.52,0,0,0,80.14,131.24Z"/><path class="cls-6" d="M72.25,138.88c-.45-.21-.58-1-.35-2.31a18,18,0,0,1,1.47-4.35,17.64,17.64,0,0,1,2.39-3.92c.83-1,1.54-1.43,2-1.22s.58,1,.35,2.31a20.88,20.88,0,0,1-3.86,8.28C73.41,138.66,72.7,139.09,72.25,138.88Zm5.44-11.65c-.38-.18-1,.25-1.81,1.17a17.75,17.75,0,0,0-2.37,3.89,18.11,18.11,0,0,0-1.46,4.31c-.21,1.18-.11,2,.26,2.14s1-.25,1.81-1.17A20.64,20.64,0,0,0,78,129.36C78.16,128.18,78.06,127.4,77.69,127.23Z"/><path class="cls-6" d="M76.67,139c-1-.45-2.36-2.69-3.36-5.44a18.48,18.48,0,0,1-1.09-4.47c-.11-1.29.09-2.09.56-2.26a.68.68,0,0,1,.55,0c1,.46,2.36,2.7,3.36,5.45a18.42,18.42,0,0,1,1.09,4.46c.11,1.29-.09,2.1-.56,2.27A.68.68,0,0,1,76.67,139Zm-3.41-12a.56.56,0,0,0-.43,0c-.39.14-.56.91-.45,2.11a18.38,18.38,0,0,0,1.07,4.42c1,2.72,2.34,4.92,3.29,5.36a.52.52,0,0,0,.43,0c.39-.14.56-.91.45-2.11a18.6,18.6,0,0,0-1.07-4.42C75.56,129.71,74.21,127.5,73.26,127.06Z"/><path class="cls-6" d="M69.28,135.6a.76.76,0,0,1-.4-.39c-.17-.47.32-1.14,1.39-1.88a18.07,18.07,0,0,1,4.11-2c2.75-1,5.36-1.38,6.34-.92a.7.7,0,0,1,.4.39c.17.47-.32,1.13-1.39,1.88a18.49,18.49,0,0,1-4.11,2C72.87,135.68,70.26,136.05,69.28,135.6Zm11.37-5.09c-1-.44-3.5-.06-6.21.92a19,19,0,0,0-4.09,2c-1,.69-1.46,1.31-1.32,1.7a.57.57,0,0,0,.32.31c1,.44,3.5.06,6.21-.93a18.54,18.54,0,0,0,4.09-2c1-.69,1.46-1.31,1.32-1.7A.59.59,0,0,0,80.65,130.51Z"/><path class="cls-6" d="M74.82,127.9a.77.77,0,0,1-1,.42.81.81,0,0,1,.68-1.46A.76.76,0,0,1,74.82,127.9Z"/><path class="cls-6" d="M80.18,133.05a.74.74,0,1,1-1.33-.62.76.76,0,0,1,1-.42A.78.78,0,0,1,80.18,133.05Z"/><path class="cls-6" d="M72.65,137.38a.73.73,0,1,1-1.32-.62.76.76,0,0,1,1-.42A.77.77,0,0,1,72.65,137.38Z"/><path class="cls-6" d="M75.65,133.3a.74.74,0,1,1-1.33-.62.78.78,0,0,1,1-.42A.77.77,0,0,1,75.65,133.3Z"/></svg>