<svg id="Camada_1" data-name="Camada 1" xmlns="http://www.w3.org/2000/svg" viewBox="0 0 150 150"><defs><style>.cls-1{fill:#c6c6c6;}.cls-2{fill:#b3b3b3;}.cls-3{fill:#3a89a5;}.cls-4{fill:#2c5c77;}.cls-5{fill:#204454;}.cls-6{fill:#5788a3;}.cls-7{fill:#3e708c;}.cls-8{fill:#5ba7c1;}</style></defs><path class="cls-1" d="M49.62,85.06c0-2.36,0-4.7,0-6.08l-.25-.14L49.6,78c.15-.59-.7-.94-.9-.34-.11.31-.21.62-.31.94a2.62,2.62,0,0,0-.28,0c0-.33,0-.65,0-1a.51.51,0,0,0-.32-.48h0l-.13,0h0a.43.43,0,0,0-.49.42c0,.38,0,.76-.06,1.15l-.33,0L46.5,77.6c-.12-.51-.92-.38-.8.13.07.34.14.68.22,1h-.28a.63.63,0,0,0-.24,0c-.13-.23-.26-.46-.38-.69-.25-.46-1-.13-.74.33l.53,1h0l-.32.27-.78-.82c-.35-.38-1,.13-.63.52l.86.94c-.07.11-.14.22-.2.33L42.64,80c-.44-.28-.92.38-.47.66l1.23.8-.09.31-1.4-.4c-.5-.16-.79.61-.29.76l1.47.47c0,.1-.05.2-.08.31l-1.46,0c-.52,0-.61.8-.08.82s.9.06,1.3.11l-.09.36-1.08.26c-.51.12-.39.93.13.81a3.9,3.9,0,0,1,.87,0v.24l-.69,0c-.58,0-.58.47-.17.76,0,0,.36.07.74.15A15.94,15.94,0,0,1,49.62,85.06Z"/><path class="cls-2" d="M50.06,97.31a23.24,23.24,0,0,1,.47-5.17h-.36a38.88,38.88,0,0,1-.55-7.09,15.94,15.94,0,0,0-7.14,1.3l.17,0c0,.07,0,.14,0,.2H42l-.63.3a.36.36,0,0,0,.24.46,8.82,8.82,0,0,1,1.07.49c0,.1,0,.19,0,.29l-1.14,0c-.52,0-.61.8-.09.82a5.15,5.15,0,0,1,1.5.16c0,.08.05.15.08.22l-1.45.35a.41.41,0,0,0,.13.81c1.25,0,1.12.11,1.32.07v0c-.17.1-.37.23-.54.32-1.61.1-1.3,1-.12,1a4.35,4.35,0,0,1,.54.25.57.57,0,0,1,0,.13,5,5,0,0,1-1.33-.13c-.5-.15-.79.61-.29.77s1,.32,1.52.48v.3l-1.58,0c-.52,0-.61.8-.09.81l1.72.08c0,.09,0,.17.05.26l-1.64.4c-.51.12-.38.93.13.81s1.18-.26,1.77-.39a2,2,0,0,0,.1.21l-1.56.86c-.46.24-.13,1,.34.74l1.61-.84a1.64,1.64,0,0,0,.12.22L42.5,98c-.39.35.13,1,.51.63s.79-.73,1.19-1.09a2.51,2.51,0,0,0,.19.24c-.25.43-.51.86-.77,1.28s.38.93.66.48.54-.85.81-1.27a.71.71,0,0,0,.24.33c-.12.4-.23.8-.35,1.2s.61.79.76.29.25-.81.38-1.21h.11a.77.77,0,0,0,.19.21c0,.33,0,.65,0,1a.52.52,0,0,0,.31.48h0l.13,0h0a.42.42,0,0,0,.49-.42l.06-1a1.25,1.25,0,0,1,.25-.09c.09.33.17.66.26,1,.16.59,1.07.47,1-.15-.07-.37-.15-.74-.23-1.11l.24-.06c.17.3.33.6.51.9.3.53,1.15.18.88-.39-.11-.23-.23-.45-.34-.67a1,1,0,0,0,.3-.2c.16.16.31.32.47.47a.52.52,0,0,0,.81-.09C50.71,98.77,50.21,98.41,50.06,97.31Z"/><path class="cls-1" d="M100.64,84.42c.2-2.35.34-4.69.41-6.07l.25-.13c-.06-.28-.12-.56-.17-.84-.12-.59.75-.89.92-.28.09.32.16.64.24,1h.29c0-.32,0-.64,0-1a.51.51,0,0,1,.34-.45h0l.14,0h0a.41.41,0,0,1,.46.44c0,.39,0,.77,0,1.15l.32,0c.12-.36.23-.72.34-1.09s1-.32.8.18c-.1.33-.19.67-.29,1H105a.61.61,0,0,1,.24,0l.42-.67c.28-.44,1-.06.72.39s-.4.65-.59,1h0c.11.1.21.19.3.29l.83-.77c.38-.35,1,.2.6.56l-.92.88a2.91,2.91,0,0,1,.18.35l1.12-.59c.47-.25.9.44.44.69l-1.29.71c0,.11,0,.21.08.33l1.42-.32c.5-.12.75.66.24.78l-1.5.37c0,.1,0,.21.05.31l1.46.07c.52,0,.56.83,0,.82a11.29,11.29,0,0,0-1.3,0c0,.12,0,.24.06.36l1.07.33c.49.16.32,1-.19.8a4,4,0,0,0-.86-.1c0,.08,0,.16,0,.24l.68.07c.58,0,.55.52.12.77,0,0-.36,0-.74.1A15.84,15.84,0,0,0,100.64,84.42Z"/><path class="cls-2" d="M99.39,96.61a23,23,0,0,0-.13-5.19l.36,0a39.68,39.68,0,0,0,1-7,15.84,15.84,0,0,1,7,1.76l-.18,0a1.23,1.23,0,0,1,0,.19l.68,0,.61.34a.35.35,0,0,1-.27.44,8.84,8.84,0,0,0-1.1.42l0,.28,1.14,0c.52,0,.56.83,0,.82a4.81,4.81,0,0,0-1.5.06.85.85,0,0,0-.09.22l1.42.44a.41.41,0,0,1-.19.8c-1.24,0-1.12,0-1.31,0v0l.52.35c1.6.21,1.24,1,0,1a5,5,0,0,0-.56.22.49.49,0,0,0,0,.12,5.4,5.4,0,0,0,1.33,0c.51-.12.75.66.24.78l-1.55.38c0,.1,0,.2,0,.3.52,0,1,.05,1.58.06s.55.84,0,.82l-1.72,0a2,2,0,0,1-.07.26l1.61.51c.5.15.32,1-.18.8s-1.16-.34-1.74-.51a2.12,2.12,0,0,1-.11.21l1.49,1c.44.28.06,1-.38.73l-1.56-1c0,.06-.08.13-.13.21l1.17,1.27c.36.39-.19,1-.55.6l-1.12-1.17a1.6,1.6,0,0,1-.21.23l.69,1.33c.24.46-.44.9-.69.44l-.72-1.32a.86.86,0,0,1-.26.31c.09.41.17.81.26,1.22s-.66.75-.78.24-.19-.83-.3-1.24h-.1a.8.8,0,0,1-.21.2c0,.32,0,.65-.05,1a.5.5,0,0,1-.35.45h0a.31.31,0,0,1-.13,0h0a.42.42,0,0,1-.46-.45c0-.34,0-.68,0-1l-.26-.1c-.1.32-.2.65-.31,1-.2.58-1.11.4-.94-.21.09-.37.2-.73.3-1.09l-.24-.08c-.18.29-.37.58-.56.87-.34.5-1.17.1-.85-.45.12-.22.25-.43.38-.65a.72.72,0,0,1-.29-.22l-.5.45a.52.52,0,0,1-.8-.15C98.64,98,99.17,97.7,99.39,96.61Z"/><path class="cls-3" d="M86,76.14l-1.57-.35a36.71,36.71,0,0,0-22.56,1.8h0a38.43,38.43,0,0,0-6.65,3.55c-2.44,1.61-4,6.86-4.68,11h-.36c-.45-1.52-.58-6.17-.59-9.78,0-1.35,0-2.55,0-3.39l0-.67a25.36,25.36,0,0,1,2.19-9.62c4-8.64,13-14.14,25.08-13.74,1.22,0,2.4.14,3.54.29A36.41,36.41,0,0,1,86,76.14Z"/><path class="cls-4" d="M88,93l-2,1.55h0C76.45,93,67.12,93.52,56.26,97c-2.42.78-4.24,1.65-5.41,1.71-.83,0-1.34-.33-1.49-1.44,0,0,0,0,0-.07A68.7,68.7,0,0,1,88,93Z"/><path class="cls-5" d="M101.35,96.74c-.35,2.11-2.29,1.17-5.54.13-.42-.14-.86-.27-1.33-.41A76.28,76.28,0,0,0,86,94.54h0L88,93a67.66,67.66,0,0,1,12.46,3.54A2.43,2.43,0,0,0,101.35,96.74Z"/><path class="cls-6" d="M100.7,91.12a34,34,0,0,0-2.08-6.7c-.06-.11-.11-.23-.17-.35s-.11-.23-.17-.34a13.54,13.54,0,0,0-.85-1.47c-.13-.19-.26-.37-.39-.53a5.5,5.5,0,0,0-1.37-1.29A38.62,38.62,0,0,0,86,76.14c-.6-.18-1.2-.34-1.81-.48C89.62,85.1,88,93,88,93a68.49,68.49,0,0,1,12.46,3.55,2.39,2.39,0,0,0,.91.22,1.42,1.42,0,0,0,0-.2A24.57,24.57,0,0,0,100.7,91.12Z"/><path class="cls-7" d="M101.94,80.05c-.08,2.42-.43,8.88-1.24,11.07a34,34,0,0,0-2.08-6.7l-.17-.35a2.16,2.16,0,0,0-.17-.34,13.54,13.54,0,0,0-.85-1.47c-.13-.19-.26-.37-.39-.53a5.5,5.5,0,0,0-1.37-1.29A38.62,38.62,0,0,0,86,76.14a36.41,36.41,0,0,0-5.57-20.9c9.9,1.33,16.78,6.76,19.79,14.4a25.35,25.35,0,0,1,1.72,9.3C102,79.3,102,79.68,101.94,80.05Z"/><path class="cls-7" d="M61.87,77.59a38.43,38.43,0,0,0-6.65,3.55c-2.44,1.61-4,6.86-4.68,11h-.36c-.45-1.52-.58-6.17-.59-9.78C51.8,80.26,55.55,78.3,61.87,77.59Z"/><path class="cls-8" d="M88,93a68.7,68.7,0,0,0-38.63,4.23,24.71,24.71,0,0,1,.49-5.12c.73-4.16,2.27-9.44,4.75-11.06A37.69,37.69,0,0,1,84.2,75.66C89.62,85.11,88,93,88,93Z"/></svg>