<svg xmlns="http://www.w3.org/2000/svg" viewBox="0 0 150 150"><defs><style>.cls-1{isolation:isolate;}.cls-2{fill:#91af68;}.cls-3{fill:#729b5f;}.cls-4{fill:#68ad91;}.cls-5,.cls-6,.cls-9{fill:#578755;}.cls-6{opacity:0.42;mix-blend-mode:darken;}.cls-7{fill:#353435;}.cls-8{fill:#563824;}.cls-9{opacity:0.21;mix-blend-mode:multiply;}</style></defs><g class="cls-1"><g id="Camada_1" data-name="Camada 1"><path class="cls-2" d="M100.29,90.76h0s0,0,0,0c-1-.32-1.9-.61-2.87-.86-1.29-.35-2.61-.64-3.92-.88h0L93.14,89c0-.48,0-1-.07-1.43,0-.07,0-.14,0-.21L93,86.12c-.08-1-.18-1.91-.3-2.85v0c0-.11,0-.23,0-.34s-.07-.49-.11-.74,0-.21-.05-.32-.08-.51-.13-.76q-.12-.72-.27-1.44c-.15-.7-.31-1.4-.49-2.09-.08-.32-.17-.65-.27-1s-.21-.72-.33-1.08a2.3,2.3,0,0,0-.12-.34c-.16-.51-.34-1-.54-1.51-.08-.19-.15-.39-.23-.58s-.15-.38-.24-.57-.29-.65-.44-1l-.09-.2a28.83,28.83,0,0,1,4.12,4.55,37.09,37.09,0,0,1,2.8,4.4c.25.46.49.91.71,1.36a.31.31,0,0,0,0,.1,46.29,46.29,0,0,1,2.58,6.45C100,89.62,100.25,90.57,100.29,90.76Z"/><path class="cls-3" d="M70.13,66a22,22,0,0,0-3.59,1,26.85,26.85,0,0,0-3.6,3.3c-4.58,5-6.5,11.68-8,18.28-.18.73-.57,1.37-.74,2.1,0,.18,0,.35-.08.52,1.89-.33,4.18-.7,6.78-1.09C62,81.21,64,72.33,70.13,66Z"/><path class="cls-2" d="M70.13,66C64,72.33,62,81.21,60.89,90c1.68-.26,3.49-.52,5.4-.77.87-8.15,1.41-17.05,6.48-23.62A23.87,23.87,0,0,0,70.13,66Z"/><path class="cls-4" d="M73.89,65.6l-1.12,0c-5.07,6.57-5.61,15.47-6.48,23.62,1.24-.17,2.51-.33,3.83-.49a62.48,62.48,0,0,1,1-10.25c.77-4.43,1.1-9,3.17-12.92Z"/><path class="cls-5" d="M74.32,65.6c-2.07,3.9-2.4,8.49-3.17,12.92a62.48,62.48,0,0,0-1,10.25l1.13-.14c1.14-.13,2.3-.25,3.48-.34.24-7.52.83-15.06.85-22.65C75.17,65.61,74.75,65.6,74.32,65.6Z"/><path class="cls-2" d="M81.69,88c-1.07,0-2.14,0-3.19.06.17-7.43.18-14.93-1.29-22.26v0c.37,0,.73.1,1.09.17l.64.11s0,0,0,0c.15.34.29.69.42,1,1.32,3.48,1.63,7.27,1.94,11A81.44,81.44,0,0,1,81.69,88Z"/><path class="cls-5" d="M89.1,88.4c-1-.11-2-.19-3-.26a99.42,99.42,0,0,0-1-10.17,2,2,0,0,0,0-.26,37,37,0,0,0-3.37-10.82l0-.07a21.59,21.59,0,0,1,3.38,1.52l.07.12c2.74,4.59,3.49,9.92,3.77,15.3C89,85.31,89.06,86.86,89.1,88.4Z"/><path class="cls-3" d="M93.14,89c-1.34-.24-2.69-.43-4-.58,0-1.54-.08-3.09-.17-4.64-.28-5.38-1-10.71-3.77-15.3l-.07-.12a24,24,0,0,1,4.22,3l.09.2c.15.32.3.64.44,1s.17.38.24.57.15.39.23.58c.2.5.38,1,.54,1.51a2.3,2.3,0,0,1,.12.34q.18.54.33,1.08c.1.32.19.65.27,1,.18.69.34,1.39.49,2.09q.15.72.27,1.44c0,.25.1.51.13.76s0,.22.05.32.08.49.11.74,0,.23,0,.34v0c.12.94.22,1.9.3,2.85l.09,1.22c0,.07,0,.14,0,.21C93.1,88,93.12,88.5,93.14,89Z"/><path class="cls-4" d="M81.69,88a81.44,81.44,0,0,0-.37-9.88c-.31-3.72-.62-7.51-1.94-11-.13-.34-.27-.69-.42-1,0,0,0,0,0,0a23.94,23.94,0,0,1,2.77.76l0,.07a37,37,0,0,1,3.37,10.82,2,2,0,0,1,0,.26,99.42,99.42,0,0,1,1,10.17C84.65,88.05,83.17,88,81.69,88Z"/><path class="cls-3" d="M75.58,65.64c0,7.59-.61,15.13-.85,22.65,1.24-.1,2.49-.18,3.76-.23.18-7.44.18-14.94-1.28-22.28C76.68,65.71,76.14,65.67,75.58,65.64Z"/><path class="cls-5" d="M48.38,92.18s2.12-.44,5.73-1.06c0-.17,0-.34.08-.52.17-.73.56-1.37.74-2.1,1.51-6.6,3.43-13.32,8-18.28a26.85,26.85,0,0,1,3.6-3.3C51.87,72.28,48.38,92.18,48.38,92.18Z"/><path class="cls-6" d="M102.86,88.53l-3.29-.33c-2.61-.28-5.38-.61-6.51-.86l-.2,0c-.89-.23-2.47-1.83-3.93-3.53-1.79-2.08-3.42-4.29-3.42-4.29a14.4,14.4,0,0,0-.4-1.76,27.73,27.73,0,0,0-5.73-10.58c-.33-.38-.68-.77-1-1.15t0,0l.64.11a23.94,23.94,0,0,1,2.77.76,21.59,21.59,0,0,1,3.38,1.52,24,24,0,0,1,4.22,3,28.83,28.83,0,0,1,4.12,4.55,37.09,37.09,0,0,1,2.8,4.4c.25.46.49.91.71,1.36a.31.31,0,0,0,0,.1,23.49,23.49,0,0,1,2.58,1.57c1.53,1.07,2.33,1.91,2.63,2.11S102.72,86.88,102.86,88.53Z"/><path class="cls-7" d="M100.18,88v0h0S100.18,88,100.18,88Z"/><path class="cls-8" d="M100.18,88v0h0S100.18,88,100.18,88Z"/><path class="cls-5" d="M49.57,97.79a3.84,3.84,0,0,1-1.69.46c-.63,0-.65-.46-.65-.46l-.17-4.35v-.16l0-.68L46.8,87c0-.6.65-1.55,2-2.63,0,2.09-.12,4.2-.1,6.29v0c0,.47,0,1,0,1.41,0,.24,0,.48,0,.72s0,.25,0,.37a1.1,1.1,0,0,0,0,.18,20.51,20.51,0,0,0,.74,4.35A.13.13,0,0,0,49.57,97.79Z"/><path class="cls-3" d="M54,95.85c-1.79.71-3.21,1.37-4.18,1.84l-.21.1a.13.13,0,0,1,0-.06,20.51,20.51,0,0,1-.74-4.35,1.1,1.1,0,0,1,0-.18c0-.12,0-.24,0-.37s0-.48,0-.72c0-.46,0-.94,0-1.41v0c0-2.09.09-4.2.1-6.29a18.63,18.63,0,0,1,2.64-1.72h0l.24-.14a37.69,37.69,0,0,0,.77,8.88c.06.25.12.51.19.77l.09.33s0,.09,0,.14a20.65,20.65,0,0,0,.74,2.13,7.38,7.38,0,0,1,.42,1A.08.08,0,0,1,54,95.85Z"/><path class="cls-2" d="M56.78,94.8c-1,.35-2,.7-2.82,1a.08.08,0,0,0,0,0,7.38,7.38,0,0,0-.42-1,20.65,20.65,0,0,1-.74-2.13c0-.05,0-.09,0-.14l-.09-.33c-.07-.26-.13-.52-.19-.77a37.69,37.69,0,0,1-.77-8.88,30.87,30.87,0,0,1,3.51-1.61c0,2.29-.22,4.66-.12,7h0a19.81,19.81,0,0,0,.32,3,.85.85,0,0,0,0,.17c.05.26.1.52.17.77l.06.23a11.92,11.92,0,0,0,1.09,2.71Z"/><path class="cls-4" d="M60.69,93.6c-1.4.38-2.71.79-3.91,1.2l0,0a11.92,11.92,0,0,1-1.09-2.71l-.06-.23c-.07-.25-.12-.51-.17-.77a.85.85,0,0,1,0-.17,19.81,19.81,0,0,1-.32-3h0c-.1-2.3.09-4.67.12-7,.65-.25,1.33-.5,2-.74l1.24-.39a27,27,0,0,0,.94,9.93l.14.5a2.33,2.33,0,0,0,.07.25c0,.18.11.36.16.55.27.86.56,1.71.88,2.55C60.68,93.58,60.69,93.59,60.69,93.6Z"/><path class="cls-5" d="M63,93v0c-.81.18-1.59.38-2.34.59,0,0,0,0,0,0-.32-.84-.61-1.69-.88-2.55,0-.19-.11-.37-.16-.55a2.33,2.33,0,0,1-.07-.25l-.14-.5a27,27,0,0,1-.94-9.93c1.16-.34,2.41-.66,3.75-1a31.29,31.29,0,0,0-.32,4.74h0A38.57,38.57,0,0,0,62.33,89c0,.19.05.38.07.57s0,.18,0,.27l.09.57C62.68,91.24,62.84,92.12,63,93Z"/><path class="cls-3" d="M65.54,89.78c.07.89.16,1.77.3,2.65v0c-1,.16-1.9.35-2.81.56v0c-.19-.87-.35-1.75-.5-2.63l-.09-.57c0-.09,0-.18,0-.27s0-.38-.07-.57a38.57,38.57,0,0,1-.41-5.36h0a31.29,31.29,0,0,1,.32-4.74c.29-.06.59-.13.89-.18.88-.18,1.8-.34,2.75-.48a71.41,71.41,0,0,0-.42,10.13c0,.12,0,.25,0,.37s0,.45,0,.68Z"/><path class="cls-2" d="M69.26,89.25c0,.9.12,1.79.2,2.69-1.24.13-2.45.3-3.62.51v0c-.14-.88-.23-1.76-.3-2.65l0-.42c0-.23,0-.45,0-.68s0-.25,0-.37a71.41,71.41,0,0,1,.42-10.13l1.86-.25c.58-.06,1.18-.13,1.79-.18a60.63,60.63,0,0,0-.34,10.09.57.57,0,0,0,0,.13c0,.3,0,.6,0,.9C69.25,89,69.25,89.12,69.26,89.25Z"/><path class="cls-4" d="M72.83,88.93c0,.92.08,1.85.14,2.77h-.16c-.54,0-1.08,0-1.61.08h0c-.58,0-1.15.08-1.72.15-.08-.9-.15-1.79-.2-2.69,0-.13,0-.25,0-.38,0-.3,0-.6,0-.9a.57.57,0,0,1,0-.13,60.63,60.63,0,0,1,.34-10.09l1.78-.14c.72,0,1.46-.08,2.21-.11a45.11,45.11,0,0,0-.73,10.12v0l0,.81C72.82,88.62,72.82,88.77,72.83,88.93Z"/><path class="cls-5" d="M76.93,77.46c-.16,1.28-.29,2.55-.39,3.83-.06.8-.11,1.61-.15,2.42,0,.47,0,.93,0,1.4,0,.18,0,.37,0,.56,0,.47,0,1,0,1.42v1.08a0,0,0,0,0,0,0,.09.09,0,0,0,0,.07.17.17,0,0,0,0,.1,3.23,3.23,0,0,0,0,.44v.34l0,1.12c0,.48,0,1,0,1.45-.92,0-1.82,0-2.72,0-.2,0-.4,0-.61,0H73c-.06-.92-.11-1.85-.14-2.77,0-.16,0-.31,0-.47l0-.81v0a45.11,45.11,0,0,1,.73-10.12l1.7,0Z"/><path class="cls-3" d="M80.19,87.89c0,1.38-.14,2.76-.24,4.14-1.16-.15-2.31-.26-3.46-.31h-.1c0-.49,0-1,0-1.45l0-1.12v-.34c0-.15,0-.29,0-.44a.17.17,0,0,1,0-.1.09.09,0,0,1,0-.07,0,0,0,0,1,0,0c0-.2,0-.4,0-.6,0-.63,0-1.27,0-1.9,0-.19,0-.38,0-.56,0-.47,0-.93,0-1.4,0-.81.09-1.62.15-2.42.1-1.28.23-2.55.39-3.83,1.13,0,2.22.06,3.26.12C80.37,81,80.35,84.46,80.19,87.89Z"/><path class="cls-2" d="M84.09,92.75c-1.36-.29-2.75-.54-4.14-.72.1-1.38.19-2.76.24-4.14.16-3.43.18-6.87,0-10.31,1.27.07,2.48.18,3.63.32.16,3.58.21,7.17.25,10.77C84.07,90,84.08,91.39,84.09,92.75Z"/><path class="cls-4" d="M87.1,89.65c-.08,1.25-.18,2.49-.31,3.73q-1.33-.34-2.7-.63c0-1.36,0-2.72,0-4.08,0-3.6-.09-7.19-.25-10.77,1.05.13,2.05.28,3,.46A74.55,74.55,0,0,1,87.1,89.65Z"/><path class="cls-5" d="M90.42,90c0,1.44,0,2.89-.07,4.34-1.15-.35-2.34-.69-3.56-1,.13-1.24.23-2.48.31-3.73a74.55,74.55,0,0,0-.28-11.29c1.21.22,2.33.47,3.38.75C90.37,82.75,90.45,86.39,90.42,90Z"/><path class="cls-3" d="M93.53,90.3a22,22,0,0,1-.67,4.88l-2.51-.8c0-1.45.07-2.9.07-4.34,0-3.65,0-7.29-.22-10.93.43.11.84.23,1.24.35h0c.59.17,1.14.35,1.67.54,0,.39,0,.79,0,1.18,0,1.11.09,2.23.13,3.34s.08,2.12.13,3.19c0,.36,0,.72,0,1.09,0,.08,0,.16,0,.24v0C93.5,89.48,93.51,89.89,93.53,90.3Z"/><path class="cls-2" d="M97.47,92a38.38,38.38,0,0,1-.28,4.67c-1.28-.47-2.74-1-4.33-1.52a22,22,0,0,0,.67-4.88c0-.41,0-.82,0-1.23v0c0-.08,0-.16,0-.24,0-.37,0-.73,0-1.09-.05-1.07-.09-2.13-.13-3.19s-.09-2.23-.13-3.34c0-.39,0-.79,0-1.18l.43.15a0,0,0,0,1,0,0c1,.36,1.9.76,2.7,1.14.09.44.18.88.26,1.32s.17.88.24,1.33.15.89.21,1.34.12.89.17,1.34.09.74.12,1.12.07.72.09,1.08.05.58.06.88v0c0,.06,0,.11,0,.17l0,.81C97.46,91.17,97.47,91.6,97.47,92Z"/><path class="cls-4" d="M100,97.72l-2.81-1A38.38,38.38,0,0,0,97.47,92c0-.43,0-.86,0-1.29l0-.81c0-.06,0-.11,0-.17v0c0-.3,0-.58-.06-.88s0-.72-.09-1.08-.07-.75-.12-1.12S97,85.74,97,85.3s-.13-.9-.21-1.34-.15-.89-.24-1.33-.17-.88-.26-1.32l.49.24.19.1a24.51,24.51,0,0,1,2.62,1.56s0,.07,0,.11c.33,2.47.62,5,.72,7.44h0s0,0,0,0A37.3,37.3,0,0,1,100,97.72Z"/><path class="cls-5" d="M102.84,98.35c0,.06-.14.09-.29.08a11.42,11.42,0,0,1-2.55-.71,37.3,37.3,0,0,0,.29-6.93s0,0,0,0h0c-.1-2.48-.39-5-.72-7.44,0,0,0-.07,0-.11a30.57,30.57,0,0,1,2.77,2.22C103.29,86.07,103.46,97.41,102.84,98.35Z"/><path class="cls-9" d="M102.84,98.35c0,.06-.14.09-.29.08a11.42,11.42,0,0,1-2.55-.71l-2.81-1c-1.28-.47-2.74-1-4.33-1.52l-2.51-.8c-1.15-.35-2.34-.69-3.56-1q-1.33-.34-2.7-.63c-1.36-.29-2.75-.54-4.14-.72-1.16-.15-2.31-.26-3.46-.31h-.1c-.92,0-1.82,0-2.72,0-.2,0-.4,0-.61,0h-.25c-.54,0-1.08,0-1.61.08h0c-.58,0-1.15.08-1.72.15-1.24.13-2.45.3-3.62.51-1,.16-1.9.35-2.81.56s-1.59.38-2.34.59c-1.4.38-2.71.79-3.91,1.2-1,.35-2,.7-2.82,1-1.79.71-3.21,1.37-4.18,1.84l-.21.1a3.84,3.84,0,0,1-1.69.46c-.63,0-.65-.46-.65-.46l-.17-4.35v-.16l0-.68a8.75,8.75,0,0,0,1.76.23,16.94,16.94,0,0,0,4-.32c.87-.16,1.82-.38,2.87-.68,1.22-.35,2.56-.79,4-1.36.94-.36,1.86-.68,2.76-1,1.05-.34,2.08-.61,3.08-.84,1.28-.31,2.52-.54,3.72-.71s2.45-.29,3.59-.35,2.42-.08,3.51-.05a0,0,0,0,1,0,0,37.26,37.26,0,0,1,3.88.31,30.31,30.31,0,0,1,3.88.78c.67.18,1,.31,1,.31a13.8,13.8,0,0,0,2,.67,10.66,10.66,0,0,0,3.32.39,4.38,4.38,0,0,0,3-1.23,3.82,3.82,0,0,0,.82-1.26,6.21,6.21,0,0,0-1.12-6.36,9.37,9.37,0,0,0-1.72-1.72c.59.17,1.14.35,1.67.54l.43.15a0,0,0,0,1,0,0c1,.36,1.9.76,2.7,1.14l.49.24.19.1a24.51,24.51,0,0,1,2.62,1.56,30.57,30.57,0,0,1,2.77,2.22C103.29,86.07,103.46,97.41,102.84,98.35Z"/></g></g></svg>