<svg id="Camada_1" data-name="Camada 1" xmlns="http://www.w3.org/2000/svg" viewBox="0 0 150 150"><defs><style>.cls-1{fill:#bf676c;}.cls-2{fill:#386572;}.cls-3{fill:#8e3d49;}.cls-4{fill:#3d7991;}.cls-5{fill:#477c93;}.cls-6{fill:#2c5c77;}.cls-7{fill:#254956;}.cls-8{fill:#284f60;}</style></defs><path class="cls-1" d="M80.24,71.56l.28.08h-.15Z"/><path class="cls-1" d="M84.48,72.17,83.42,72a6.68,6.68,0,0,1-2.87-.36c.36,0,.73.07,1.08.12l.92.11.89.12Z"/><path class="cls-2" d="M80.9,74.6a17.25,17.25,0,0,1,1.47,1.2,2,2,0,0,1-.21.32,1.87,1.87,0,0,1-1.61.76c-1.4,0-3-1.5-3.72-2.47.38,1.27,2,2.55,2.22,4a2,2,0,0,1-.22,1.3,1.5,1.5,0,0,1-.23.33,2.44,2.44,0,0,1-2.41.63l-.29-.08c-1.65-.58-1.54-2.38-2.73-3.53,0,1.55.74,4.43-1.24,5.16l-.26.09c-2.13.62-2.59-1.49-2.65-3.52,0-.71,0-1.42,0-2,0-.37,0-.68,0-.91-.09.3-.17.65-.26,1-.43,1.76-1,4-2.94,3.74-3-.47-1.45-3.58-.49-5.56.17-.36.32-.68.44-1a5.45,5.45,0,0,0-.69.57c-1.16,1-2.67,2.57-4,1.85a2.21,2.21,0,0,1-.59-.47c-1.67-1.84,1.7-3.8,3.21-4.39a8.42,8.42,0,0,1-3.51.07h0c-1.72-.34-3.11-1.27-2.17-3.2,1.07-2.21,3.76-.91,5.38-.5-.62-.8-2.09-.88-2.54-2a3.26,3.26,0,0,1,.62-2.92,5.34,5.34,0,0,1,3.65,2.5c-.72-1.76-2.19-5.53.69-5.48.87,0,1.6,1.17,2.07,2.4a4.46,4.46,0,0,1,.35-2.75c1.33,2.12,2.78,4.79,3,6.62a6.32,6.32,0,0,0,3.39,4.78A27.79,27.79,0,0,1,80.9,74.6Z"/><path class="cls-3" d="M83.44,72h0a6.68,6.68,0,0,1-2.87-.36c.36,0,.73.07,1.08.12l.92.11Z"/><path class="cls-4" d="M84.48,72.17,83.42,72a6.68,6.68,0,0,1-2.87-.36c.36,0,.73.07,1.08.12l.92.11.89.12Z"/><path class="cls-4" d="M88.1,91c-1-.18-1.93-.34-2.89-.47L84,90.33l-1.33-.14-1.32-.12c-1-.09-2.09-.14-3.1-.17l-1,0c-1.79,0-3.53,0-5.19.1a66.62,66.62,0,0,0-23.62,5.62L47,95.23l-.33-.08-.92-.22-.42-.1-2.19-.51a2.76,2.76,0,0,1-.51-.16l-.14,0a5.14,5.14,0,0,1-.47-.23h0a3.07,3.07,0,0,1-.42-.28,1.29,1.29,0,0,1-.17-.16,2.84,2.84,0,0,1-.49-.55c-.07-.1-.14-.2-.2-.3s0,0,0,0a.26.26,0,0,1-.07-.11h0a5.69,5.69,0,0,1-.26-.56c-.05-.12-.09-.25-.13-.38a3.45,3.45,0,0,1-.12-.46h0c0-.12-.05-.24-.08-.36s0,0,0,0A9.88,9.88,0,0,1,40,88a12.22,12.22,0,0,1,.26-1.4c.11-.47.24-.95.39-1.43s.34-1,.54-1.43c.11-.23.21-.47.32-.7s.19-.4.29-.59.15-.29.23-.43a4,4,0,0,1,.2-.35c.14-.23.27-.45.41-.66L42.7,81l.18-.28.23-.33a14.15,14.15,0,0,1,1.39-1.67l.37-.37.21-.21h0l.17-.16.42-.36a4.94,4.94,0,0,1,.44-.36l.47-.36a19,19,0,0,1,2.2-1.42c.18-.11.37-.21.56-.31a28.45,28.45,0,0,1,3.94-1.68l.76-.25c.2-.07.42-.13.64-.19.83-.25,1.71-.48,2.64-.68l.89-.19.93-.17,1-.16.09,0,.48-.07c.79-.11,1.62-.21,2.48-.3l1.08-.1,1.12-.08a82.09,82.09,0,0,1,9.32,0,27.79,27.79,0,0,1,6.22,3.4,17.25,17.25,0,0,1,1.47,1.2,12,12,0,0,1,3,4.13,8.29,8.29,0,0,1,0,6.54l0,0C87.53,88,88.12,89.59,88.1,91Z"/><path class="cls-5" d="M80.55,76.88c-.1.26-.21.52-.33.77a1.32,1.32,0,0,1-1.17.77,1.47,1.47,0,0,1-.28,0c-3.25.26-3.55-4.34-5.61-5.94-2.73-2.16-2.3,3.13-4.11,4.31a1.34,1.34,0,0,1-.24.12h0c-1.42.49-2.5-.54-3.4-1.83-.09-.12-.17-.25-.25-.38-.31-.48-.6-1-.87-1.43a1.69,1.69,0,0,0-2.4,0c-.6,1-.47,2.22-.76,3.32a2.78,2.78,0,0,1-.71,1.31,1.73,1.73,0,0,1-2.43,0c-.72-.54-.6-1.71-1-2.7a1.26,1.26,0,0,0-1.64-.81c-1.33.82-1,2.78-2,4.15l-.4-.12-.12.41a1.65,1.65,0,0,1-2.25-.56c-.43-.78.72-2.09.1-2.6C49.44,74.45,48.25,77,47,77.81a2,2,0,0,1-1.93.28l.17-.16.42-.36a4.94,4.94,0,0,1,.44-.36l.47-.36a19,19,0,0,1,2.2-1.42c.18-.11.37-.21.56-.31a28.45,28.45,0,0,1,3.94-1.68l.76-.25c.2-.07.42-.13.64-.19.83-.25,1.71-.48,2.64-.68l.89-.19.93-.17,1-.16h.1l.47-.08c.79-.11,1.62-.21,2.48-.3l1.08-.1,1.12-.08a82.09,82.09,0,0,1,9.32,0,27.79,27.79,0,0,1,6.22,3.4A5.18,5.18,0,0,1,80.55,76.88Z"/><path class="cls-6" d="M84.77,85.37c-1.17-.89-2.39,2.16-2.94,3.65-.45,1.18-1.48,1.32-2.15.25-.12-.37-.36-.66-.33-.76-.28-2.06-.12-6-2.49-4.25-1.53,1.09-1.55,4.16-3.87,4.58-.79.1-2.17-.08-2.43-1-.36-1.42-.21-3.8-2-3.33-2,.51-2,3.48-3.19,4.89-1.37,1.69-2.74-1.13-3.66-2.5a1.33,1.33,0,0,0-2.13.14c-.93,1.71-.66,4.54-2.82,4.78C55,92,54.65,89.29,53.5,88c-.59-.61-1.94-.89-2.37-.14-.78,1.53-.85,3.27-1.53,4.83-.33.78-1.32.38-1.51-.45a5.25,5.25,0,0,0-.51-2.78c-.14-.26-.85-.47-1-.3-.93.94-.58,3.13-1.47,3.53-1.9.87-1.14-2.86-2.71-3.88-.44-.35-1.22-.69-1.5-.11a8.44,8.44,0,0,0-.8,2.41,3.94,3.94,0,0,0,3,3.26l5.39,1.26a69,69,0,0,1,36.73-5.1C85.15,88.62,85.92,86.32,84.77,85.37Z"/><path class="cls-5" d="M89,91.11h0L88.1,91c-1-.18-1.93-.34-2.89-.47h0c0-1.06.2-2.24.2-3.24,0-.12,0-.25,0-.37a2.33,2.33,0,0,0,0-.37,2.11,2.11,0,0,0-.2-.63,1.82,1.82,0,0,0-.15-.23,1.22,1.22,0,0,0-.24-.27.7.7,0,0,0-.43-.16l-.19,0a.44.44,0,0,0-.16.06,0,0,0,0,1,0,0,.7.7,0,0,0-.16.1,1.29,1.29,0,0,0-.18.16,1.49,1.49,0,0,0-.17.18,5.15,5.15,0,0,0-.32.45,2.33,2.33,0,0,0-.17.26,5.68,5.68,0,0,0-.34.65,3.54,3.54,0,0,0-.16.34,5,5,0,0,0-.21.48c-.07.17-.14.35-.22.51s-.15.41-.21.58c-.45,1.18-1.48,1.32-2.16.24-.11-.36-.35-.65-.32-.75,0-.44-.1-1-.14-1.5,0-.17,0-.33,0-.49L79.1,86c0-.13,0-.25-.06-.37a2,2,0,0,0,0-.24c0-.19-.09-.37-.14-.54a2.19,2.19,0,0,0-.17-.41.77.77,0,0,0-.1-.18.83.83,0,0,0-.11-.15.85.85,0,0,0-.17-.16l-.15-.08h0l-.07,0h0a1.57,1.57,0,0,0-1.2.41,1.64,1.64,0,0,0-.25.21,3.67,3.67,0,0,0-.45.56,3.37,3.37,0,0,0-.19.32c-.26.43-.47.92-.7,1.38a.25.25,0,0,1,0,.07,5.7,5.7,0,0,1-.3.54l-.14.22c0,.07-.1.15-.15.21a1.13,1.13,0,0,1-.1.13,1.22,1.22,0,0,1-.15.17,2.48,2.48,0,0,1-.61.49,2.27,2.27,0,0,1-.77.28c-.8.1-2.18-.09-2.45-1,0-.2-.09-.43-.13-.66s0-.32-.07-.48,0-.32-.08-.48,0-.15,0-.23,0-.15,0-.22l-.06-.22a1.72,1.72,0,0,0-.07-.21,1.44,1.44,0,0,0-.4-.65.71.71,0,0,0-.14-.1.44.44,0,0,0-.15-.08l-.09,0-.09,0a1.52,1.52,0,0,0-.62,0,1.14,1.14,0,0,0-.26.09.53.53,0,0,0-.17.08l-.14.08a.6.6,0,0,0-.13.09,1.09,1.09,0,0,0-.22.17,1.21,1.21,0,0,0-.19.2,1.15,1.15,0,0,0-.14.17l-.18.28-.17.31a2.44,2.44,0,0,0-.14.28,3.43,3.43,0,0,0-.19.44c-.06.15-.12.3-.17.45s-.13.34-.19.51-.21.56-.32.82-.11.23-.17.33a2.07,2.07,0,0,1-.15.25,3.12,3.12,0,0,1-.25.35,1.15,1.15,0,0,1-.9.52h-.14l-.1,0a1.2,1.2,0,0,1-.38-.18,4,4,0,0,1-.34-.27l-.05,0a2,2,0,0,1-.24-.26L63,88.77c-.15-.2-.29-.41-.44-.63s-.14-.21-.2-.32l0-.06c-.09-.14-.17-.29-.26-.42l-.31-.49a1.34,1.34,0,0,0-2.14.15c-.07.13-.13.27-.19.41a3.25,3.25,0,0,0-.15.4s0,0,0,0,0,0,0,0c-.1.3-.18.61-.26.93s-.14.53-.22.78-.07.24-.11.36a5,5,0,0,1-.3.71,1.35,1.35,0,0,1-.15.26,1.61,1.61,0,0,1-.25.32,1.54,1.54,0,0,1-.19.17,1.67,1.67,0,0,1-.26.17l0,0a2.09,2.09,0,0,1-.3.11l0,0a1.86,1.86,0,0,1-.34.07h-.21a1.39,1.39,0,0,1-.3,0l-.21-.06-.19-.1a.8.8,0,0,1-.21-.15.39.39,0,0,1-.1-.08,1.45,1.45,0,0,1-.18-.17,6.18,6.18,0,0,1-.8-1.37c-.17-.33-.33-.67-.5-1a4.39,4.39,0,0,0-.27-.47,3.91,3.91,0,0,0-.3-.41c-.59-.61-1.93-.9-2.38-.15-.09.19-.18.38-.25.57s0,.07,0,.11a5.17,5.17,0,0,0-.18.51c-.13.42-.23.84-.34,1.26-.05.19-.09.38-.14.57L50,91.4a9.6,9.6,0,0,1-.41,1.25.65.65,0,0,1-.59.42.8.8,0,0,1-.26,0h0l-.15-.08-.13-.1a1,1,0,0,1-.17-.18l-.09-.14a.69.69,0,0,1-.07-.15,1,1,0,0,1-.05-.16,5.3,5.3,0,0,0-.49-2.79c-.15-.26-.86-.47-1-.29-.94.93-.59,3.12-1.48,3.53-1.9.87-1.14-2.87-2.7-3.88-.45-.35-1.24-.69-1.51-.11a6.11,6.11,0,0,0-.27.58c-.08.2-.16.4-.22.6A9.91,9.91,0,0,0,40.09,91h0a0,0,0,0,0,0,0c0-.13,0-.26-.07-.4s0,0,0,0A9.1,9.1,0,0,1,40,88a8.81,8.81,0,0,1,.26-1.4c.11-.47.24-.95.39-1.43s.34-1,.54-1.43c.11-.23.21-.47.32-.7s.19-.4.29-.59.15-.29.23-.43a4,4,0,0,1,.2-.35c.14-.23.27-.45.41-.66a.41.41,0,0,1,0-.09h0a3.87,3.87,0,0,0,.72.2c-.37,1.22-.9,2.71,0,3.51,2.3,1.89,3.35-2.09,5.08-3.13,1.47-.89,1.46,1.75,1.67,2.91.25,1.4,2.25,1.32,3.11.26s1-2.68,2-3.72c.29-.24.92-.5,1.23-.08.77.78.84,2,1.19,3.1.18.49,1,1.06,1.58.58,1.23-1.18,1.47-2.76,2.31-4.16a1.1,1.1,0,0,1,1.83-.24c.71,1,.89,2.24,1.59,3.22.11.36.85.47,1.14.22,1.39-1.11,1.63-4.45,3-4.82a1.38,1.38,0,0,1,1.12.29c.8.57,1.25,2,1.53,3.23,0,0,0,.06,0,.09.23.73.64.08,1,.63,1.76,2.16,2.66-.36,3.48-2.36.17-.4.33-.77.49-1.09.32-.68,1.4-.25,1.71.17l.21.29c1,1.43,1.47,3.48,3.34,3.72.31.09.52-.29.71-.56.76-1.1.5-2.83,1.82-3.21a2.07,2.07,0,0,1,.9-.07,8.29,8.29,0,0,1,0,6.54l0,0C87.53,88,88.12,89.59,88.1,91Z"/><path class="cls-6" d="M85.37,79.93a2.07,2.07,0,0,0-.9.07c-1.32.38-1.06,2.11-1.82,3.21-.19.27-.4.65-.71.56-1.87-.24-2.37-2.29-3.34-3.72l-.21-.29c-.31-.42-1.39-.85-1.71-.17-.16.32-.32.69-.49,1.09-.82,2-1.72,4.52-3.48,2.36-.38-.55-.79.1-1-.63,0,0,0-.06,0-.09-.28-1.27-.73-2.66-1.53-3.23A1.38,1.38,0,0,0,69,78.8c-1.32.37-1.56,3.71-3,4.82-.29.25-1,.14-1.14-.22-.7-1-.88-2.24-1.59-3.22a1.1,1.1,0,0,0-1.83.24c-.84,1.4-1.08,3-2.31,4.16-.57.48-1.4-.09-1.58-.58-.35-1.09-.42-2.32-1.19-3.1-.31-.42-.94-.16-1.23.08-1,1-1.17,2.52-2,3.72s-2.86,1.14-3.11-.26c-.21-1.16-.2-3.8-1.67-2.91-1.73,1-2.78,5-5.08,3.13-.86-.8-.33-2.29,0-3.51a3.87,3.87,0,0,1-.72-.2h0a2.75,2.75,0,0,1,.19-.28l.23-.33a14.15,14.15,0,0,1,1.39-1.67l.37-.37.21-.21h0A2,2,0,0,0,47,77.81c1.23-.84,2.42-3.36,3.69-2.1.62.51-.53,1.82-.1,2.6a1.65,1.65,0,0,0,2.25.56l.12-.41.4.12c.95-1.37.65-3.33,2-4.15a1.26,1.26,0,0,1,1.64.81c.36,1,.24,2.16,1,2.7a1.73,1.73,0,0,0,2.43,0,2.78,2.78,0,0,0,.71-1.31c.29-1.1.16-2.34.76-3.32a1.69,1.69,0,0,1,2.4,0c.27.46.56,1,.87,1.43.08.13.16.26.25.38.9,1.29,2,2.32,3.4,1.83h0a1.34,1.34,0,0,0,.24-.12c1.81-1.18,1.38-6.47,4.11-4.31,2.06,1.6,2.36,6.2,5.61,5.94a1.47,1.47,0,0,0,.28,0,1.32,1.32,0,0,0,1.17-.77c.12-.25.23-.51.33-.77a5.18,5.18,0,0,0,.35-2.28,17.25,17.25,0,0,1,1.47,1.2A12,12,0,0,1,85.37,79.93Z"/><path class="cls-2" d="M90,91.34l-1.07-.22L88.1,91a5.53,5.53,0,0,1-.79,2.64,75.83,75.83,0,0,0-13.28-1c-22.25.07-25.62,11.1-25.62,11.1a28.71,28.71,0,0,1-2.76-4.8,5.08,5.08,0,0,1,.05-3.94,4.91,4.91,0,0,1,.36-.71s.26-.78,2.07-1.86a16.35,16.35,0,0,1,1.89-1,32,32,0,0,1,4.55-1.57c1.27-.36,2.72-.71,4.4-1,1.1-.23,2.28-.44,3.57-.65s2.41-.36,3.73-.53,2.68-.33,4.15-.47L72,87c1.12-.1,2.19-.19,3.23-.25h0c1.36-.1,2.66-.16,3.9-.21s2.61-.06,3.81-.06l2.38,0h.11C87.53,88,88.12,89.59,88.1,91l.85.16Z"/><path class="cls-2" d="M105.27,87.87a1.36,1.36,0,0,1-.06.29s0,0,0,0a1.28,1.28,0,0,1-.07.28,5.49,5.49,0,0,1-1.41,2.09l-.16.15A5.55,5.55,0,0,0,103,89c-.32-.76-2-.7-2.88-.3a2.16,2.16,0,0,0-.69.49,19.86,19.86,0,0,0-4-1.4,2.3,2.3,0,0,0-1.29-2.38c-1.34-.58-2.18.36-2.83,1.61-1.69-.23-3.64-.4-5.9-.48l0,0a8.29,8.29,0,0,0,0-6.54,1.23,1.23,0,0,1,1.09.76c.62,1.62,1.36,3.6,2.88,2.94,1-.37.6-2.46,1.39-2.89,2.32-1.19,2,2.66,3.15,4.22a1.46,1.46,0,0,0,2.43,0c.68-1.57.55-3.36,1.73-4.78.21-.37.9-.06.94.17.32.75,1,1.6.56,2.58l.4.12c.24,1.06,1.33,1.82,1.89,1.43a3.52,3.52,0,0,0,1.5-2,15.14,15.14,0,0,1,.89,1.74c.08.19.16.37.23.55s.15.35.21.52.11.31.17.46l.31.93A2.94,2.94,0,0,1,105.27,87.87Z"/><path class="cls-7" d="M95.48,87.76A38.46,38.46,0,0,0,91.36,87c.65-1.25,1.49-2.19,2.83-1.61A2.3,2.3,0,0,1,95.48,87.76Z"/><path class="cls-7" d="M103.13,82.06s0,0,0,0c-.15-.24-.3-.48-.47-.72l-.56-.74c-.2-.24-.41-.49-.64-.74s-.22-.25-.34-.37a4.17,4.17,0,0,0-.36-.37l-.4-.37-.41-.37a18,18,0,0,0-2.45-1.78h0a1.64,1.64,0,0,0,0,.22c.09.8-.31,1.78-1.1,1.88A2.09,2.09,0,0,1,95,78.37c-.54-.38-1.18-.45-1.5-.88-1.21-1.45-2.25-4.29-4.07-2.95-.85.63-.61,2.46-1.43,3C86,78.58,84.42,76,83.81,74a2,2,0,0,0-1.92-1.14,2.31,2.31,0,0,0-.74.14c-.24,0-.39.55-.38.88a3.29,3.29,0,0,1,.13.74,17.25,17.25,0,0,1,1.47,1.2,12,12,0,0,1,3,4.13,1.23,1.23,0,0,1,1.09.76c.62,1.62,1.36,3.6,2.88,2.94,1-.37.6-2.46,1.39-2.89,2.32-1.19,2,2.66,3.15,4.22a1.46,1.46,0,0,0,2.43,0c.68-1.57.55-3.36,1.73-4.78.21-.37.9-.06.94.17.32.75,1,1.6.56,2.58l.4.12c.24,1.06,1.33,1.82,1.89,1.43a3.52,3.52,0,0,0,1.5-2Z"/><path class="cls-2" d="M97.49,76.78a1.64,1.64,0,0,1,0-.22l-.71-.42L96,75.73l-.62-.32-1.05-.48-.84-.35c-.62-.25-1.26-.48-1.93-.71s-1.39-.44-2.13-.64l-.1,0-1.06-.27c-.63-.15-1.29-.29-2-.43l-.52-.1-1.13-.2-.2,0L83.42,72l-.87-.13-.92-.11c-.35,0-.72-.09-1.08-.12h-.18l-.25,0c-.91-.09-1.8-.16-2.67-.23s-1.87-.13-2.77-.17a27.79,27.79,0,0,1,6.22,3.4,3.29,3.29,0,0,0-.13-.74c0-.33.14-.84.38-.88a2.31,2.31,0,0,1,.74-.14A2,2,0,0,1,83.81,74c.61,2,2.17,4.6,4.23,3.55.82-.53.58-2.36,1.43-3,1.82-1.34,2.86,1.5,4.07,2.95.32.43,1,.5,1.5.88a2.09,2.09,0,0,0,1.35.29C97.18,78.56,97.58,77.58,97.49,76.78Z"/><path class="cls-8" d="M83.44,72l-.89-.12-.92-.11c-.35,0-.72-.09-1.08-.12h0l-.28-.08.13.07-.25,0c-.91-.09-1.8-.16-2.67-.23s-1.87-.13-2.77-.17a6.32,6.32,0,0,1-3.39-4.78c-.26-1.83-1.71-4.5-3-6.62a1.19,1.19,0,0,1,.86-.5c1.66-.2,2.53,2.51,2.27,3.69.52-1.83,1.44-5.15,4-3.71,2.42,1.36,1.21,3.38,0,5,1.5-1.65,5.39-3.17,6.92-1,1.71,2.45-.75,3.95-2.84,4.06,1.73.18,4,1,4.58,2.47S84.2,71.82,83.44,72Z"/><path class="cls-7" d="M103.56,90.72l-.13.11a11.54,11.54,0,0,1-1.22,1l-.44.29-.53-1.77a6.33,6.33,0,0,0-1.78-1.16,2.16,2.16,0,0,1,.69-.49c.89-.4,2.56-.46,2.88.3A5.55,5.55,0,0,1,103.56,90.72Z"/><path class="cls-8" d="M102.37,94.07l-.59-2-.2.12.19-.13-.53-1.77a6.33,6.33,0,0,0-1.78-1.16,19.86,19.86,0,0,0-4-1.4A38.46,38.46,0,0,0,91.36,87c-1.69-.23-3.64-.4-5.9-.48C87.53,88,88.12,89.59,88.1,91h0a5.53,5.53,0,0,1-.79,2.64c11.32,2,14.54,6.26,14.54,6.26S103.51,97.82,102.37,94.07Z"/></svg>