<svg id="Camada_1" data-name="Camada 1" xmlns="http://www.w3.org/2000/svg" viewBox="0 0 150 150"><path d="M113.08,118.89a28.2536,28.2536,0,0,0-2.96-7.39l-.35-.56a.6139.6139,0,0,0-.07-.18c-.11-.15-.22-.31-.33-.46l-.05-.08h-.01a36.5859,36.5859,0,0,0-7.4978-8.3531A30.3576,30.3576,0,0,1,99.29,110.67c-1.2607,2.7389-3.9744,8.5249-10.37,12.2a25.9421,25.9421,0,0,1-14.15,3.16,28.3668,28.3668,0,0,1-13.5-3.52c-10.7017-6.1986-12.8145-18.5966-13.1189-20.5685A29.9486,29.9486,0,0,0,37.16,118.51a1.2743,1.2743,0,0,0-.06.21c-.32,1.02-1.5,5.53.48,8.81a6.5411,6.5411,0,0,0,2.39,2.3,6.028,6.028,0,0,0,.67.34,4.7931,4.7931,0,0,0,.65.25,5.7292,5.7292,0,0,0,1.21.29,5.9524,5.9524,0,0,0,1.11.04l.3-.03c.11-.01.22-.03.33-.05s.22-.05.33-.07a3.36,3.36,0,0,0,.48-.14,2.7385,2.7385,0,0,0,.4-.15c.23-.1.46-.21.67-.32a8.1867,8.1867,0,0,0,1.65-1.21,9.7748,9.7748,0,0,0,1.57-1.84l.43-.38,1.07-.94c.04.09.07.16.1.23,0,.01.01.01.01.02a1.9978,1.9978,0,0,1,.09.3c.11.61.24,1.21.38,1.8.03.15.06.29.1.45a40.241,40.241,0,0,0,3.96,10.06c.09.18.18.34.27.49v.01a3.3594,3.3594,0,0,1,.23.4c.25.44.52.88.79,1.31v.01c0,.01.01.02.02.04a.2958.2958,0,0,1,.03.04c.02.03.04.07.07.12a63.64,63.64,0,0,0,4.72,6.69,6.9685,6.9685,0,0,0,.6018.6568c.0613.059.157.1489.2781.2532a5.7192,5.7192,0,0,0,3.3881,1.5,4.6667,4.6667,0,0,0,1.0481-.0793A7.0558,7.0558,0,0,0,72.1,145.9a5.8947,5.8947,0,0,0,.24-.67.1854.1854,0,0,0,.02-.07c.21-.53.41-1.03.59-1.48l.01-.01a2.03,2.03,0,0,1,1.82-.79,2.2776,2.2776,0,0,1,.67.17,3.91,3.91,0,0,1,1.08.59,3.2547,3.2547,0,0,1,.82,1.32,22.2054,22.2054,0,0,0,1.2468,2.5128A5.64,5.64,0,0,0,79.83,148.88c.1976.139.42.27.42.27a5.0252,5.0252,0,0,0,.49.26,4.7054,4.7054,0,0,0,1.1523.3683,3.9352,3.9352,0,0,0,.8279.053c2.6936-.1142,4.5791-3.04,5.5-4.456,2.2495-3.46,5.6748-8.5723,9.85-15.0853a.1018.1018,0,0,0,.0088-.0288l.0012-.0212a.01.01,0,0,0,.01-.01c.43-1.1.85-2.21,1.27-3.33.11-.29.24-.57.37-.85.01.01.01.02.03.03a23.6427,23.6427,0,0,0,2.54,2.81v.01c.05.04.1.1.16.15.05.05.1.1.16.15a5.8662,5.8662,0,0,0,.49.41c.17.13.33.24.49.34a4.378,4.378,0,0,0,.51.29c.15.07.31.14.46.2a6.5053,6.5053,0,0,1-1.9-1.24c-.11-.1-.22-.21-.32-.3a7.1015,7.1015,0,0,1,.55-1.27c0-.01.01-.01.01-.02.09-.17.19-.35.31-.54.15.26.31.51.47.75a10.5115,10.5115,0,0,0,1.79,2.03,8.7755,8.7755,0,0,0,1.39,1.03,3.3167,3.3167,0,0,0,.46-.02q.1949-.015.33-.03h.03a.4408.4408,0,0,1,.1-.02.06.06,0,0,1,.04-.01h.02a.5741.5741,0,0,1,.1-.02c.01-.01.01-.01.02-.01H108a.031.031,0,0,1,.02-.01s.1-.02.28-.06a.5575.5575,0,0,0,.12-.04.93.93,0,0,0,.13-.04c.06-.02.13-.04.2-.07.14-.05.29-.12.46-.19.09-.04.17-.08.26-.13.01,0,.01,0,.01-.01a2.6292,2.6292,0,0,0,.23-.13,6.7083,6.7083,0,0,0,1.72-1.47,26.3925,26.3925,0,0,0-2.06-7.59A35.8952,35.8952,0,0,1,113.08,118.89ZM65.53,149.87a.3436.3436,0,0,1-.14-.03c-.06-.01-.06-.01-.02-.01h.01c.06.01.12.03.18.04Z" style="fill:#5c5c99"/><path d="M69.7575,146.9267a7.2807,7.2807,0,0,1-1.4665,1.7167,6.8341,6.8341,0,0,1-2.57,1.3461c.0928.0079.1919.0131.2966.0144.1355.0016.2622-.0036.3787-.0129a6.4192,6.4192,0,0,0,1.1755-.2007,6.9074,6.9074,0,0,0,2.1426-1.0276A6.7821,6.7821,0,0,0,72.1,145.9a6.1307,6.1307,0,0,0,.24-.67.1854.1854,0,0,0,.02-.07c.21-.53.41-1.03.59-1.48l.01-.01a1.8777,1.8777,0,0,1,1.41-.79,2.71,2.71,0,0,1,.41,0,2.2373,2.2373,0,0,1,.67.17,3.595,3.595,0,0,0-2.3923-.2734,3.7317,3.7317,0,0,0-2.0166,1.4C70.2827,145.1374,70.59,145.5849,69.7575,146.9267Z" style="fill:#41275b"/><path d="M110.12,111.5l-.35-.56a.6139.6139,0,0,0-.07-.18c-.11-.15-.22-.31-.33-.46l-.05-.08h-.01a36.7812,36.7812,0,0,0-7.4968-8.3583c-.1384.827-.3086,1.6863-.5168,2.5733A40.7267,40.7267,0,0,1,99.29,110.67a20.0011,20.0011,0,0,1,10.08,10.36,35.8952,35.8952,0,0,1,3.71-2.14A28.2536,28.2536,0,0,0,110.12,111.5Z" style="fill:#41275b"/><path d="M102.35,128.9a7.1015,7.1015,0,0,1,.55-1.27.0781.0781,0,0,1-.04-.04,33.625,33.625,0,0,1-5.12-8.15c-.7071,2.4364-1.7781,6.0183-3.19,10.34a74.01,74.01,0,0,1-3.6406,9.7589c-4.2637,8.8557-7.7512,9.8151-9.0227,10.0206-.2522.0407-.4624.0591-.6021.0683a3.8467,3.8467,0,0,0,.4773.1894,3.9165,3.9165,0,0,0,1.1646.188c.1633.002.4062.0012.6992-.0153,0,0,.44-.03.8308-.1018a7.0362,7.0362,0,0,0,2.5906-1.2853,21.5383,21.5383,0,0,0,4.3137-4.6244A76.4837,76.4837,0,0,0,98.4233,129.79c.5884-1.5809,1.0291-2.89,1.3066-3.74.01.01.01.02.03.03a23.6427,23.6427,0,0,0,2.54,2.81v.01c.05.04.1.1.16.15.05.05.1.1.16.15a5.8662,5.8662,0,0,0,.49.41c.17.13.33.24.49.34a4.378,4.378,0,0,0,.51.29c.15.07.31.14.46.2a6.5053,6.5053,0,0,1-1.9-1.24C102.56,129.1,102.45,128.99,102.35,128.9Z" style="fill:#41275b"/><path d="M50.34,118.91a22.0228,22.0228,0,0,1-4.67,6.2,11.346,11.346,0,0,1,2.1,3.67c.01.01.01.01.01.02.15-.15.3772-.376.6526-.6525.8611-.8645,1.0237-1.042,1.3374-1.3275a12.6635,12.6635,0,0,1,1.18-.95c.0945.6044.23,1.3643.4236,2.2349a37.4261,37.4261,0,0,0,1.043,3.7111A38.3648,38.3648,0,0,0,55.48,138.48a140.0728,140.0728,0,0,1-5.04-19.04Q50.3893,119.1748,50.34,118.91Z" style="fill:#41275b"/><path d="M91.14,129.26a10.3793,10.3793,0,0,1-10.35,10.36H69.09a10.3686,10.3686,0,0,1-9.88-7.3,9.9933,9.9933,0,0,1-.47-3.06,10.2783,10.2783,0,0,1,2.35-6.54c.06-.07.11-.14.18-.21a29.2162,29.2162,0,0,0,13.5,3.52,25.9425,25.9425,0,0,0,14.15-3.16c.12.16.24.32.35.48a10.1679,10.1679,0,0,1,1.87,5.91Z" style="fill:#daeaea"/><path d="M91.1412,129.26a10.3793,10.3793,0,0,1-10.35,10.36h-11.7a10.3686,10.3686,0,0,1-9.88-7.3,20.6162,20.6162,0,0,0,13.84,5.12c9.31-.13,14.09-1.25,17.85-10.41A10.2946,10.2946,0,0,1,91.1412,129.26Z" style="fill:#c0d8d7"/><path d="M47.7812,128.8a7.2741,7.2741,0,0,1-3.21,1.8c-.11.02-.22.05-.33.07s-.22.04-.33.05l-.3.03a5.9513,5.9513,0,0,1-1.11-.04,5.7292,5.7292,0,0,1-1.21-.29,8.4646,8.4646,0,0,1-1.28-.59,6.5391,6.5391,0,0,1-2.39-2.3c1.95.44,4.89.37,8.05-2.42a11.3512,11.3512,0,0,1,2.1,3.67C47.7812,128.79,47.7812,128.79,47.7812,128.8Z" style="fill:#a5b7b6"/><path d="M40.0112,129.83a8.4646,8.4646,0,0,0,1.28.59,6.317,6.317,0,0,1-1.32-.59,6.54,6.54,0,0,1-2.39-2.3c-1.98-3.28-.8-7.79-.48-8.81a27.871,27.871,0,0,1,8.57,6.39c-3.16,2.79-6.1,2.86-8.05,2.42A6.5364,6.5364,0,0,0,40.0112,129.83Z" style="fill:#daeaea"/><path d="M113.36,124.38a9.1436,9.1436,0,0,1-1.92,4.26l-.01.01a6.534,6.534,0,0,1-1.72,1.44c-.08.05-.15.09-.23.13,0,.01,0,.01-.01.01-.09.05-.17.09-.26.13-.17.07-.32.14-.46.19-.07.03-.14.05-.2.07a.9288.9288,0,0,1-.13.04.5638.5638,0,0,1-.12.04c-.18.04-.28.06-.28.06a.031.031,0,0,0-.02.01h-.03c-.01,0-.01,0-.02.01a.5755.5755,0,0,0-.1.02h-.02a.06.06,0,0,0-.04.01.44.44,0,0,0-.1.02h-.03q-.135.015-.33.03a3.3167,3.3167,0,0,1-.46.02h-.03c-.1,0-.2,0-.31-.01-.12-.01-.23-.01-.35-.03a1.1342,1.1342,0,0,1-.25-.03,3.7283,3.7283,0,0,1-.44-.08c-.11-.02-.22-.05-.34-.08-.2-.06-.41-.13-.61-.21h-.01a3.9973,3.9973,0,0,1-.42-.2,4.4028,4.4028,0,0,1-.51-.29c-.16-.1-.32-.21-.49-.34a5.9152,5.9152,0,0,1-.49-.41c-.06-.05-.11-.1-.16-.15-.06-.05-.11-.11-.16-.15v-.01c.02-.07.05-.15.08-.24l.12-.29c.09-.22.21-.48.36-.77.1-.16.2-.34.31-.52a10.5775,10.5775,0,0,1,.76-1.11,19.9489,19.9489,0,0,1,3.58-3.59c.56-.44,1.18-.89,1.86-1.34a35.9292,35.9292,0,0,1,3.71-2.14c.01-.01.02-.01.03-.02A13.6832,13.6832,0,0,1,113.36,124.38Z" style="fill:#daeaea"/><path d="M113.36,124.38a9.1436,9.1436,0,0,1-1.92,4.26l-.01.01a6.534,6.534,0,0,1-1.72,1.44c-.08.05-.15.09-.23.13,0,.01,0,.01-.01.01-.09.05-.17.09-.26.13-.17.07-.32.14-.46.19-.07.03-.14.05-.2.07a.9288.9288,0,0,1-.13.04.5638.5638,0,0,1-.12.04c-.18.04-.28.06-.28.06a.031.031,0,0,0-.02.01h-.03c-.01,0-.01,0-.02.01a.5755.5755,0,0,0-.1.02h-.02a.06.06,0,0,0-.04.01.44.44,0,0,0-.1.02h-.03q-.135.015-.33.03a3.3167,3.3167,0,0,1-.46.02h-.03c-.1,0-.2,0-.31-.01-.12-.01-.23-.01-.35-.03a1.1342,1.1342,0,0,1-.25-.03,3.7283,3.7283,0,0,1-.44-.08c-.11-.02-.22-.05-.34-.08-.2-.06-.41-.13-.61-.21h-.01a3.9973,3.9973,0,0,1-.42-.2,4.4028,4.4028,0,0,1-.51-.29c-.16-.1-.32-.21-.49-.34a5.9152,5.9152,0,0,1-.49-.41c-.06-.05-.11-.1-.16-.15-.06-.05-.11-.11-.16-.15v-.01c.02-.07.05-.15.08-.24l.12-.29.36-.77s6.59,2.65,6.51-6.56a35.9292,35.9292,0,0,1,3.71-2.14c.01-.01.02-.01.03-.02A13.6832,13.6832,0,0,1,113.36,124.38Z" style="fill:#a5b7b6"/><path d="M80.1366,131.2355c-.1091-.2258-.2182-.4479-.3431-.6647q-.0535-.0906-.1092-.18v-.0032q-.1155-.1834-.239-.3605l-.0512-.073-.0047-.0066q-.11-.1543-.2265-.303l-.0091-.0116-.0191-.0239c-.02-.025-.04-.05-.06-.0747v.0007q-.179-.2185-.3752-.4217c-.1094-.1153-.2346-.2265-.3441-.3331a5.532,5.532,0,0,0-.7043-.5506,6.8722,6.8722,0,0,0-.7048-.4016,5.4721,5.4721,0,0,0-.7051-.27c-.11-.0336-.2352-.0628-.3449-.0873-.1178-.0253-.2385-.0454-.3607-.0607h0l-.0258-.0031q-.0417-.0049-.0835-.0091l-.0419-.0039-.0494-.0043-.0773-.0052-.0295-.0017q-.0459-.0025-.0918-.0039l-.0184-.0005q-.05-.0014-.1007-.0017c-.0733,0-.1562.0015-.219.005-.1255.0056-.2353.0161-.3452.031a4.7078,4.7078,0,0,0-.7065.1514,4.1665,4.1665,0,0,0-.7068.2739,4.6746,4.6746,0,0,0-.6976.4,3.7409,3.7409,0,0,0-.34.2462q-.1225.0936-.24.1937a5.6223,5.6223,0,0,0-.419.3921q-.2313.2364-.443.4955c-.126.148-.2363.301-.3466.458a6.8353,6.8353,0,0,0-.71,1.2467,6.5329,6.5329,0,0,0-.6044,2.5945,3.7378,3.7378,0,0,0,.59,2.1142,3.18,3.18,0,0,0,.7036.7671,3.4851,3.4851,0,0,0,.3444.2511,4.832,4.832,0,0,0,.4406.2544q.1968.1016.4157.1885l.0466.0184.0035.0014q.0935.0365.19.07c.1078.0392.2157.0758.3384.11a6.6627,6.6627,0,0,0,.6962.1688q.3293.0669.7056.1084.3529.04.7058.0574c.11.0056.22.01.3452.012.0627.0014.1456.0023.2189.0026q.0615,0,.1228,0l.0334,0,.0922-.0012.0309-.0006.0989-.0022.0215-.0006.1089-.0037.01,0h0c.1223-.0048.243-.0113.361-.02.11-.0083.2353-.0183.3452-.03q.3531-.0378.7063-.1006.3533-.0667.7065-.1627a5.6738,5.6738,0,0,0,.7068-.2442c.11-.0495.2356-.1023.3456-.1587q.1974-.099.3772-.2126v0l.0569-.0371L79.13,137l.0135-.0092q.1136-.0757.22-.1579l.0126-.01.0483-.038.0375-.03.0085-.007q.1-.0813.194-.1681v-.0019q.0559-.0522.11-.1065a4.1365,4.1365,0,0,0,.3464-.4177,3.7411,3.7411,0,0,0,.633-2.1542A6.61,6.61,0,0,0,80.1366,131.2355Z" style="fill:#5c5c99"/><path d="M72.248,138.871c-.4526-.2112-.578-1.0305-.353-2.3071a20.7919,20.7919,0,0,1,3.8622-8.2779c.8337-.9926,1.5421-1.4229,1.9948-1.2117s.578,1.0305.353,2.3071a20.7919,20.7919,0,0,1-3.8622,8.2779C73.4091,138.6519,72.7007,139.0822,72.248,138.871Zm5.4377-11.6547c-.3768-.1758-1.036.2508-1.8084,1.17a20.6376,20.6376,0,0,0-3.8279,8.2043c-.2085,1.1828-.112,1.962.2649,2.1378s1.036-.2507,1.8084-1.17a20.6376,20.6376,0,0,0,3.8279-8.2043C78.1591,128.1714,78.0626,127.3921,77.6857,127.2163Z" style="fill:#c19a5b"/><path d="M76.669,139.034c-.9808-.4576-2.3639-2.6967-3.3636-5.445a18.4369,18.4369,0,0,1-1.0839-4.4658c-.1124-1.2913.0843-2.0965.5537-2.2673a.7163.7163,0,0,1,.5558.0554c.9808.4576,2.3639,2.6966,3.3636,5.445a18.4373,18.4373,0,0,1,1.0839,4.4657c.1124,1.2914-.0843,2.0966-.5537,2.2673A.7162.7162,0,0,1,76.669,139.034Zm-3.4043-11.9807a.5679.5679,0,0,0-.4359-.05c-.3908.1422-.5552.91-.4511,2.1065a18.2783,18.2783,0,0,0,1.075,4.4257c.9866,2.7124,2.3364,4.9151,3.2826,5.3566a.5674.5674,0,0,0,.4359.05c.3908-.1421.5553-.91.4512-2.1064a18.2854,18.2854,0,0,0-1.0751-4.4258C75.5607,129.6975,74.2109,127.4948,73.2647,127.0533Z" style="fill:#c19a5b"/><path d="M69.2828,135.5878a.716.716,0,0,1-.3995-.39c-.1707-.4693.32-1.1373,1.3818-1.8809a18.4317,18.4317,0,0,1,4.1185-2.0384c2.7483-1,5.3528-1.3783,6.3336-.9207a.7166.7166,0,0,1,.3995.39c.1708.4694-.32,1.1374-1.3817,1.881a18.4391,18.4391,0,0,1-4.1186,2.0384C72.868,135.6669,70.2636,136.0454,69.2828,135.5878ZM80.6509,130.5c-.9461-.4415-3.5013-.0607-6.2137.9258a18.2785,18.2785,0,0,0-4.0822,2.02c-.9838.689-1.4665,1.3082-1.3244,1.699a.5675.5675,0,0,0,.3185.3019c.9461.4414,3.5013.0607,6.2137-.9259A18.2743,18.2743,0,0,0,79.645,132.5c.9838-.689,1.4666-1.3082,1.3244-1.699A.5675.5675,0,0,0,80.6509,130.5Z" style="fill:#c19a5b"/><path d="M74.8243,127.887a.7344.7344,0,1,1-.3217-1.0391A.7711.7711,0,0,1,74.8243,127.887Z" style="fill:#c19a5b"/><path d="M80.1764,133.0363a.7344.7344,0,1,1-.3217-1.0392A.771.771,0,0,1,80.1764,133.0363Z" style="fill:#c19a5b"/><path d="M72.65,137.3659a.7344.7344,0,1,1-.3217-1.0392A.7711.7711,0,0,1,72.65,137.3659Z" style="fill:#c19a5b"/><path d="M75.6485,133.2876a.7343.7343,0,1,1-.3217-1.0392A.771.771,0,0,1,75.6485,133.2876Z" style="fill:#c19a5b"/><path d="M65.5244,149.8272l.0624.0106c.0156.0027.0339.0075.0384.0432a.0857.0857,0,0,1-.05.04.1869.1869,0,0,1-.15.0206l-.1046-.0211a.2765.2765,0,0,1-.0889-.0286.0549.0549,0,0,1-.0263-.0285.047.047,0,0,1,.01-.0414.1274.1274,0,0,1,.0683-.04.4578.4578,0,0,1,.1388-.0166.3124.3124,0,0,1,.0675.0082.6061.6061,0,0,1,.0651.023q.036.0136.0732.0242" style="fill:#5c5c99"/></svg>