<svg id="Camada_1" data-name="Camada 1" xmlns="http://www.w3.org/2000/svg" viewBox="0 0 150 150"><path d="M113.08,118.89a28.2536,28.2536,0,0,0-2.96-7.39l-.35-.56a.6139.6139,0,0,0-.07-.18c-.11-.15-.22-.31-.33-.46l-.05-.08h-.01a36.5859,36.5859,0,0,0-7.4978-8.3531A30.3576,30.3576,0,0,1,99.29,110.67c-1.2607,2.7389-3.9744,8.5249-10.37,12.2a25.9421,25.9421,0,0,1-14.15,3.16,28.3668,28.3668,0,0,1-13.5-3.52c-10.7017-6.1986-12.8145-18.5966-13.1189-20.5685A29.9486,29.9486,0,0,0,37.16,118.51a1.2743,1.2743,0,0,0-.06.21c-.32,1.02-1.5,5.53.48,8.81a6.5411,6.5411,0,0,0,2.39,2.3,6.028,6.028,0,0,0,.67.34,4.7931,4.7931,0,0,0,.65.25,5.7292,5.7292,0,0,0,1.21.29,5.9524,5.9524,0,0,0,1.11.04l.3-.03c.11-.01.22-.03.33-.05s.22-.05.33-.07a3.36,3.36,0,0,0,.48-.14,2.7385,2.7385,0,0,0,.4-.15c.23-.1.46-.21.67-.32a8.1867,8.1867,0,0,0,1.65-1.21,9.7748,9.7748,0,0,0,1.57-1.84l.43-.38,1.07-.94c.04.09.07.16.1.23,0,.01.01.01.01.02a1.9978,1.9978,0,0,1,.09.3c.11.61.24,1.21.38,1.8.03.15.06.29.1.45a40.241,40.241,0,0,0,3.96,10.06c.09.18.18.34.27.49v.01a3.3594,3.3594,0,0,1,.23.4c.25.44.52.88.79,1.31v.01c0,.01.01.02.02.04a.2958.2958,0,0,1,.03.04c.02.03.04.07.07.12a63.64,63.64,0,0,0,4.72,6.69,6.9685,6.9685,0,0,0,.6018.6568c.0613.059.157.1489.2781.2532a5.7192,5.7192,0,0,0,3.3881,1.5,4.6667,4.6667,0,0,0,1.0481-.0793A7.0558,7.0558,0,0,0,72.1,145.9a5.8947,5.8947,0,0,0,.24-.67.1854.1854,0,0,0,.02-.07c.21-.53.41-1.03.59-1.48l.01-.01a2.03,2.03,0,0,1,1.82-.79,2.2776,2.2776,0,0,1,.67.17,3.91,3.91,0,0,1,1.08.59,3.2547,3.2547,0,0,1,.82,1.32,22.2054,22.2054,0,0,0,1.2468,2.5128A5.64,5.64,0,0,0,79.83,148.88c.1976.139.42.27.42.27a5.0252,5.0252,0,0,0,.49.26,4.7054,4.7054,0,0,0,1.1523.3683,3.9352,3.9352,0,0,0,.8279.053c2.6936-.1142,4.5791-3.04,5.5-4.456,2.2495-3.46,5.6748-8.5723,9.85-15.0853a.1018.1018,0,0,0,.0088-.0288l.0012-.0212a.01.01,0,0,0,.01-.01c.43-1.1.85-2.21,1.27-3.33.11-.29.24-.57.37-.85.01.01.01.02.03.03a23.6427,23.6427,0,0,0,2.54,2.81v.01c.05.04.1.1.16.15.05.05.1.1.16.15a5.8662,5.8662,0,0,0,.49.41c.17.13.33.24.49.34a4.378,4.378,0,0,0,.51.29c.15.07.31.14.46.2a6.5053,6.5053,0,0,1-1.9-1.24c-.11-.1-.22-.21-.32-.3a7.1015,7.1015,0,0,1,.55-1.27c0-.01.01-.01.01-.02.09-.17.19-.35.31-.54.15.26.31.51.47.75a10.5115,10.5115,0,0,0,1.79,2.03,8.7755,8.7755,0,0,0,1.39,1.03,3.3167,3.3167,0,0,0,.46-.02q.1949-.015.33-.03h.03a.4408.4408,0,0,1,.1-.02.06.06,0,0,1,.04-.01h.02a.5741.5741,0,0,1,.1-.02c.01-.01.01-.01.02-.01H108a.031.031,0,0,1,.02-.01s.1-.02.28-.06a.5575.5575,0,0,0,.12-.04.93.93,0,0,0,.13-.04c.06-.02.13-.04.2-.07.14-.05.29-.12.46-.19.09-.04.17-.08.26-.13.01,0,.01,0,.01-.01a2.6292,2.6292,0,0,0,.23-.13,6.7083,6.7083,0,0,0,1.72-1.47,26.3925,26.3925,0,0,0-2.06-7.59A35.8952,35.8952,0,0,1,113.08,118.89ZM65.53,149.87a.3436.3436,0,0,1-.14-.03c-.06-.01-.06-.01-.02-.01h.01c.06.01.12.03.18.04Z" style="fill:#446b46"/><path d="M69.7575,146.9267a7.2807,7.2807,0,0,1-1.4665,1.7167,6.8341,6.8341,0,0,1-2.57,1.3461c.0928.0079.1919.0131.2966.0144.1355.0016.2622-.0036.3787-.0129a6.4192,6.4192,0,0,0,1.1755-.2007,6.9074,6.9074,0,0,0,2.1426-1.0276A6.7821,6.7821,0,0,0,72.1,145.9a6.1307,6.1307,0,0,0,.24-.67.1854.1854,0,0,0,.02-.07c.21-.53.41-1.03.59-1.48l.01-.01a1.8777,1.8777,0,0,1,1.41-.79,2.71,2.71,0,0,1,.41,0,2.2373,2.2373,0,0,1,.67.17,3.595,3.595,0,0,0-2.3923-.2734,3.7317,3.7317,0,0,0-2.0166,1.4C70.2827,145.1374,70.59,145.5849,69.7575,146.9267Z" style="fill:#202a2d"/><path d="M110.12,111.5l-.35-.56a.6139.6139,0,0,0-.07-.18c-.11-.15-.22-.31-.33-.46l-.05-.08h-.01a36.7812,36.7812,0,0,0-7.4968-8.3583c-.1384.827-.3086,1.6863-.5168,2.5733A40.7267,40.7267,0,0,1,99.29,110.67a20.0011,20.0011,0,0,1,10.08,10.36,35.8952,35.8952,0,0,1,3.71-2.14A28.2536,28.2536,0,0,0,110.12,111.5Z" style="fill:#202a2d"/><path d="M102.35,128.9a7.1015,7.1015,0,0,1,.55-1.27.0781.0781,0,0,1-.04-.04,33.625,33.625,0,0,1-5.12-8.15c-.7071,2.4364-1.7781,6.0183-3.19,10.34a74.01,74.01,0,0,1-3.6406,9.7589c-4.2637,8.8557-7.7512,9.8151-9.0227,10.0206-.2522.0407-.4624.0591-.6021.0683a3.8467,3.8467,0,0,0,.4773.1894,3.9165,3.9165,0,0,0,1.1646.188c.1633.002.4062.0012.6992-.0153,0,0,.44-.03.8308-.1018a7.0362,7.0362,0,0,0,2.5906-1.2853,21.5383,21.5383,0,0,0,4.3137-4.6244A76.4837,76.4837,0,0,0,98.4233,129.79c.5884-1.5809,1.0291-2.89,1.3066-3.74.01.01.01.02.03.03a23.6427,23.6427,0,0,0,2.54,2.81v.01c.05.04.1.1.16.15.05.05.1.1.16.15a5.8662,5.8662,0,0,0,.49.41c.17.13.33.24.49.34a4.378,4.378,0,0,0,.51.29c.15.07.31.14.46.2a6.5053,6.5053,0,0,1-1.9-1.24C102.56,129.1,102.45,128.99,102.35,128.9Z" style="fill:#202a2d"/><path d="M50.34,118.91a22.0228,22.0228,0,0,1-4.67,6.2,11.346,11.346,0,0,1,2.1,3.67c.01.01.01.01.01.02.15-.15.3772-.376.6526-.6525.8611-.8645,1.0237-1.042,1.3374-1.3275a12.6635,12.6635,0,0,1,1.18-.95c.0945.6044.23,1.3643.4236,2.2349a37.4261,37.4261,0,0,0,1.043,3.7111A38.3648,38.3648,0,0,0,55.48,138.48a140.0728,140.0728,0,0,1-5.04-19.04Q50.3893,119.1748,50.34,118.91Z" style="fill:#202a2d"/><path d="M91.14,129.26a10.3793,10.3793,0,0,1-10.35,10.36H69.09a10.3686,10.3686,0,0,1-9.88-7.3,9.9933,9.9933,0,0,1-.47-3.06,10.2783,10.2783,0,0,1,2.35-6.54c.06-.07.11-.14.18-.21a29.2162,29.2162,0,0,0,13.5,3.52,25.9425,25.9425,0,0,0,14.15-3.16c.12.16.24.32.35.48a10.1679,10.1679,0,0,1,1.87,5.91Z" style="fill:#daeaea"/><path d="M91.1412,129.26a10.3793,10.3793,0,0,1-10.35,10.36h-11.7a10.3686,10.3686,0,0,1-9.88-7.3,20.6162,20.6162,0,0,0,13.84,5.12c9.31-.13,14.09-1.25,17.85-10.41A10.2946,10.2946,0,0,1,91.1412,129.26Z" style="fill:#c0d8d7"/><path d="M47.7812,128.8a7.2741,7.2741,0,0,1-3.21,1.8c-.11.02-.22.05-.33.07s-.22.04-.33.05l-.3.03a5.9513,5.9513,0,0,1-1.11-.04,5.7292,5.7292,0,0,1-1.21-.29,8.4646,8.4646,0,0,1-1.28-.59,6.5391,6.5391,0,0,1-2.39-2.3c1.95.44,4.89.37,8.05-2.42a11.3512,11.3512,0,0,1,2.1,3.67C47.7812,128.79,47.7812,128.79,47.7812,128.8Z" style="fill:#a5b7b6"/><path d="M40.0112,129.83a8.4646,8.4646,0,0,0,1.28.59,6.317,6.317,0,0,1-1.32-.59,6.54,6.54,0,0,1-2.39-2.3c-1.98-3.28-.8-7.79-.48-8.81a27.871,27.871,0,0,1,8.57,6.39c-3.16,2.79-6.1,2.86-8.05,2.42A6.5364,6.5364,0,0,0,40.0112,129.83Z" style="fill:#daeaea"/><path d="M113.36,124.38a9.1436,9.1436,0,0,1-1.92,4.26l-.01.01a6.534,6.534,0,0,1-1.72,1.44c-.08.05-.15.09-.23.13,0,.01,0,.01-.01.01-.09.05-.17.09-.26.13-.17.07-.32.14-.46.19-.07.03-.14.05-.2.07a.9288.9288,0,0,1-.13.04.5638.5638,0,0,1-.12.04c-.18.04-.28.06-.28.06a.031.031,0,0,0-.02.01h-.03c-.01,0-.01,0-.02.01a.5755.5755,0,0,0-.1.02h-.02a.06.06,0,0,0-.04.01.44.44,0,0,0-.1.02h-.03q-.135.015-.33.03a3.3167,3.3167,0,0,1-.46.02h-.03c-.1,0-.2,0-.31-.01-.12-.01-.23-.01-.35-.03a1.1342,1.1342,0,0,1-.25-.03,3.7283,3.7283,0,0,1-.44-.08c-.11-.02-.22-.05-.34-.08-.2-.06-.41-.13-.61-.21h-.01a3.9973,3.9973,0,0,1-.42-.2,4.4028,4.4028,0,0,1-.51-.29c-.16-.1-.32-.21-.49-.34a5.9152,5.9152,0,0,1-.49-.41c-.06-.05-.11-.1-.16-.15-.06-.05-.11-.11-.16-.15v-.01c.02-.07.05-.15.08-.24l.12-.29c.09-.22.21-.48.36-.77.1-.16.2-.34.31-.52a10.5775,10.5775,0,0,1,.76-1.11,19.9489,19.9489,0,0,1,3.58-3.59c.56-.44,1.18-.89,1.86-1.34a35.9292,35.9292,0,0,1,3.71-2.14c.01-.01.02-.01.03-.02A13.6832,13.6832,0,0,1,113.36,124.38Z" style="fill:#daeaea"/><path d="M113.36,124.38a9.1436,9.1436,0,0,1-1.92,4.26l-.01.01a6.534,6.534,0,0,1-1.72,1.44c-.08.05-.15.09-.23.13,0,.01,0,.01-.01.01-.09.05-.17.09-.26.13-.17.07-.32.14-.46.19-.07.03-.14.05-.2.07a.9288.9288,0,0,1-.13.04.5638.5638,0,0,1-.12.04c-.18.04-.28.06-.28.06a.031.031,0,0,0-.02.01h-.03c-.01,0-.01,0-.02.01a.5755.5755,0,0,0-.1.02h-.02a.06.06,0,0,0-.04.01.44.44,0,0,0-.1.02h-.03q-.135.015-.33.03a3.3167,3.3167,0,0,1-.46.02h-.03c-.1,0-.2,0-.31-.01-.12-.01-.23-.01-.35-.03a1.1342,1.1342,0,0,1-.25-.03,3.7283,3.7283,0,0,1-.44-.08c-.11-.02-.22-.05-.34-.08-.2-.06-.41-.13-.61-.21h-.01a3.9973,3.9973,0,0,1-.42-.2,4.4028,4.4028,0,0,1-.51-.29c-.16-.1-.32-.21-.49-.34a5.9152,5.9152,0,0,1-.49-.41c-.06-.05-.11-.1-.16-.15-.06-.05-.11-.11-.16-.15v-.01c.02-.07.05-.15.08-.24l.12-.29.36-.77s6.59,2.65,6.51-6.56a35.9292,35.9292,0,0,1,3.71-2.14c.01-.01.02-.01.03-.02A13.6832,13.6832,0,0,1,113.36,124.38Z" style="fill:#a5b7b6"/><path d="M75.9313,130.334a2.3249,2.3249,0,0,0-.9313.1972,2.3249,2.3249,0,0,0-.9313-.1972c-2.206,0-3.3557,1.8483-3.3557,4.1282s2.2522,4.1282,3.3557,4.1282A2.3249,2.3249,0,0,0,75,138.3932a2.3249,2.3249,0,0,0,.9313.1972c.9662,0,3.3557-1.8482,3.3557-4.1282S78.2205,130.334,75.9313,130.334Z" style="fill:#b24954"/><path d="M76.8537,129.0239a1.2813,1.2813,0,0,0-.8688-.1123,3.3457,3.3457,0,0,1,.7373-.5566l-.3782-.1592a2.6127,2.6127,0,0,0-.3008.232,1.9712,1.9712,0,0,0-2.7309-1.3966,1.9717,1.9717,0,0,0,2.3349,1.8033,3.2522,3.2522,0,0,0-.7762,2.1082c0,.058.1194.1991.1194.1991s.2238-.0584.2157-.1195a2.3635,2.3635,0,0,1,.5016-1.7978,1.2854,1.2854,0,0,0,1.8309.7734A1.2882,1.2882,0,0,0,76.8537,129.0239Z" style="fill:#436057"/><path d="M65.5289,149.7864a.0992.0992,0,0,1,.0469.1481.2309.2309,0,0,1-.15.0053l-.1474-.0323a.3324.3324,0,0,1-.1362-.0595.069.069,0,0,1,.0319-.0607.1652.1652,0,0,1,.0672-.0239.604.604,0,0,1,.2454.0067" style="fill:#446b46"/></svg>