<svg id="Camada_1" data-name="Camada 1" xmlns="http://www.w3.org/2000/svg" viewBox="0 0 150 150"><defs><style>.cls-1{fill:#9e5266;}.cls-2{fill:#daeaea;}.cls-3{fill:#c0d8d7;}.cls-4{fill:#a5b7b6;}.cls-5{fill:#542049;}.cls-6{fill:#d1abc1;}.cls-7{fill:#9e748e;}.cls-8{fill:#6d2655;}</style></defs><path class="cls-1" d="M113.08,118.89a28.25,28.25,0,0,0-3-7.39l-.35-.56a.61.61,0,0,0-.07-.18l-.33-.46-.05-.08h0a37.09,37.09,0,0,0-7.56-8.42,32.8,32.8,0,0,1-2.46,8.87,25.23,25.23,0,0,1-10.37,12.2A25.94,25.94,0,0,1,74.77,126a29.22,29.22,0,0,1-13.5-3.52C49.34,115.81,48.1,102,48.1,102c-3.24,2.48-5.48,5.64-7.64,8.85a23.23,23.23,0,0,0-3.3,7.71,1.26,1.26,0,0,0-.06.21c-.32,1-1.5,5.53.48,8.81a6.54,6.54,0,0,0,2.39,2.3,6,6,0,0,0,.67.34,4.79,4.79,0,0,0,.65.25,5.73,5.73,0,0,0,1.21.29,6,6,0,0,0,1.11,0l.3,0,.33-.05.33-.07a3.36,3.36,0,0,0,.48-.14,2.74,2.74,0,0,0,.4-.15l.67-.32a8.18,8.18,0,0,0,1.65-1.21,9.77,9.77,0,0,0,1.57-1.84l.43-.38,1.07-.94.1.23s0,0,0,0a2,2,0,0,1,.09.3c.11.61.24,1.21.38,1.8,0,.15.06.29.1.45a40.24,40.24,0,0,0,4,10.06c.09.18.18.34.27.49h0a3.37,3.37,0,0,1,.23.4c.25.44.52.88.79,1.31h0s0,0,0,0l0,0,.07.12a63.67,63.67,0,0,0,4.72,6.69,7,7,0,0,0,.88.91,5.67,5.67,0,0,0,3,1.51l.41.05a3,3,0,0,0,.69,0h.55l.15,0h0a4.77,4.77,0,0,0,1.13,0c2.45-.27,3.11-2.49,3.66-4.16.09-.24.16-.46.24-.67a.19.19,0,0,0,0-.07l.59-1.48h0a2,2,0,0,1,1.82-.79,2.28,2.28,0,0,1,.67.17,5.71,5.71,0,0,1,1.08.59l.26.18a4.49,4.49,0,0,1,.56,1.14c.06.17.12.34.19.5a5.67,5.67,0,0,0,2.29,3.42,3,3,0,0,0,.42.27c.16.09.32.18.49.26a6.4,6.4,0,0,0,.84.34,9.31,9.31,0,0,0,2,.46h0a4.56,4.56,0,0,0,1.33,0c7.37-1.11,12.83-18.78,13.17-19.91a.11.11,0,0,0,0,0,0,0,0,0,0,0,0c.43-1.1.85-2.21,1.27-3.33.11-.29.24-.57.37-.85,0,0,0,0,0,0a23.65,23.65,0,0,0,2.54,2.81h0l.16.15.16.15a5.92,5.92,0,0,0,.49.41c.17.13.33.24.49.34a4.4,4.4,0,0,0,.51.29l.46.2a6.5,6.5,0,0,1-1.9-1.24l-.32-.3a7.12,7.12,0,0,1,.55-1.27s0,0,0,0c.09-.17.19-.35.31-.54.15.26.31.51.47.75a10.51,10.51,0,0,0,1.79,2,8.77,8.77,0,0,0,1.39,1,3.32,3.32,0,0,0,.46,0l.33,0h0l.1,0h.06l.1,0H108l.28-.06.12,0,.13,0,.2-.07.46-.19.26-.13h0l.23-.13a6.71,6.71,0,0,0,1.72-1.47,26.39,26.39,0,0,0-2.06-7.59A35.93,35.93,0,0,1,113.08,118.89Zm-47.55,31-.14,0c-.06,0-.06,0,0,0h0l.18,0Zm-17.37-48-.06,0h.08Z"/><path class="cls-2" d="M91.14,129.26a10.38,10.38,0,0,1-10.35,10.36H69.09a10.37,10.37,0,0,1-9.88-7.3,10,10,0,0,1-.47-3.06,10.28,10.28,0,0,1,2.35-6.54c.06-.07.11-.14.18-.21A29.22,29.22,0,0,0,74.77,126a25.94,25.94,0,0,0,14.15-3.16l.35.48a10.17,10.17,0,0,1,1.87,5.91Z"/><path class="cls-3" d="M91.14,129.26a10.38,10.38,0,0,1-10.35,10.36H69.09a10.37,10.37,0,0,1-9.88-7.3,20.62,20.62,0,0,0,13.84,5.12c9.31-.13,14.09-1.25,17.85-10.41A10.29,10.29,0,0,1,91.14,129.26Z"/><path class="cls-4" d="M47.78,128.8a7.27,7.27,0,0,1-3.21,1.8l-.33.07-.33.05-.3,0a6,6,0,0,1-1.11,0,5.73,5.73,0,0,1-1.21-.29,8.46,8.46,0,0,1-1.28-.59,6.54,6.54,0,0,1-2.39-2.3c2,.44,4.89.37,8.05-2.42a11.35,11.35,0,0,1,2.1,3.67S47.78,128.79,47.78,128.8Z"/><path class="cls-2" d="M40,129.83a8.46,8.46,0,0,0,1.28.59,6.32,6.32,0,0,1-1.32-.59,6.54,6.54,0,0,1-2.39-2.3c-2-3.28-.8-7.79-.48-8.81a27.87,27.87,0,0,1,8.57,6.39c-3.16,2.79-6.1,2.86-8.05,2.42A6.54,6.54,0,0,0,40,129.83Z"/><path class="cls-2" d="M113.36,124.38a9.14,9.14,0,0,1-1.92,4.26h0a6.53,6.53,0,0,1-1.72,1.44l-.23.13h0l-.26.13-.46.19-.2.07-.13,0-.12,0-.28.06H108l-.1,0h-.06l-.1,0h0l-.33,0a3.32,3.32,0,0,1-.46,0h-.34l-.35,0-.25,0a3.73,3.73,0,0,1-.44-.08l-.34-.08c-.2-.06-.41-.13-.61-.21h0a4,4,0,0,1-.42-.2,4.4,4.4,0,0,1-.51-.29c-.16-.1-.32-.21-.49-.34a5.92,5.92,0,0,1-.49-.41l-.16-.15-.16-.15h0c0-.07,0-.15.08-.24l.12-.29c.09-.22.21-.48.36-.77l.31-.52a10.58,10.58,0,0,1,.76-1.11,20,20,0,0,1,3.58-3.59c.56-.44,1.18-.89,1.86-1.34a35.93,35.93,0,0,1,3.71-2.14l0,0A13.68,13.68,0,0,1,113.36,124.38Z"/><path class="cls-4" d="M113.36,124.38a9.14,9.14,0,0,1-1.92,4.26h0a6.53,6.53,0,0,1-1.72,1.44l-.23.13h0l-.26.13-.46.19-.2.07-.13,0-.12,0-.28.06H108l-.1,0h-.06l-.1,0h0l-.33,0a3.32,3.32,0,0,1-.46,0h-.34l-.35,0-.25,0a3.73,3.73,0,0,1-.44-.08l-.34-.08c-.2-.06-.41-.13-.61-.21h0a4,4,0,0,1-.42-.2,4.4,4.4,0,0,1-.51-.29c-.16-.1-.32-.21-.49-.34a5.92,5.92,0,0,1-.49-.41l-.16-.15-.16-.15h0c0-.07,0-.15.08-.24l.12-.29.36-.77s6.59,2.65,6.51-6.56a35.93,35.93,0,0,1,3.71-2.14l0,0A13.68,13.68,0,0,1,113.36,124.38Z"/><path class="cls-5" d="M70.12,144.5a17.44,17.44,0,0,1-4.25,5.56,3,3,0,0,0,.69,0h.55l.15,0h0a4.77,4.77,0,0,0,1.13,0c2.45-.27,3.11-2.49,3.66-4.16.09-.24.16-.46.24-.67a.19.19,0,0,0,0-.07l.59-1.48h0a2,2,0,0,1,1.82-.79,2.28,2.28,0,0,1,.67.17,5.71,5.71,0,0,1,1.08.59C75.16,141.9,71.24,141.82,70.12,144.5Z"/><path class="cls-5" d="M110.12,111.5l-.35-.56a.61.61,0,0,0-.07-.18l-.33-.46-.05-.08h0a37.09,37.09,0,0,0-7.56-8.42,32.8,32.8,0,0,1-2.46,8.87A20,20,0,0,1,109.37,121a35.93,35.93,0,0,1,3.71-2.14A28.25,28.25,0,0,0,110.12,111.5Z"/><path class="cls-5" d="M102.35,128.9a7.12,7.12,0,0,1,.55-1.27.08.08,0,0,1,0,0,33.63,33.63,0,0,1-5.12-8.15,77.37,77.37,0,0,1-3.19,10.34c-4.34,12-10.38,17.89-13,20a9.31,9.31,0,0,0,2,.46h0a4.56,4.56,0,0,0,1.33,0c7.37-1.11,12.83-18.78,13.17-19.91a.11.11,0,0,0,0,0,0,0,0,0,0,0,0c.43-1.1.85-2.21,1.27-3.33.11-.29.24-.57.37-.85,0,0,0,0,0,0a23.65,23.65,0,0,0,2.54,2.81h0l.16.15.16.15a5.92,5.92,0,0,0,.49.41c.17.13.33.24.49.34a4.4,4.4,0,0,0,.51.29l.46.2a6.5,6.5,0,0,1-1.9-1.24Z"/><path class="cls-5" d="M50.34,118.91a22,22,0,0,1-4.67,6.2,11.35,11.35,0,0,1,2.1,3.67s0,0,0,0a10,10,0,0,0,1.14-1.23l.85-.75a14.62,14.62,0,0,1,1.18-.95,2,2,0,0,1,.09.3c.11.61.24,1.21.38,1.8,0,.15.06.29.1.45a40.24,40.24,0,0,0,4,10.06c-2-4-4.51-16.33-5-19C50.38,119.1,50.34,118.91,50.34,118.91Z"/><path class="cls-6" d="M77.18,127.17c-1.53-.22-2.37.63-3.05.53-.66.35-1.72-.17-3.12.45a1.81,1.81,0,0,0,.41,1.1s1.91-.53,3,.54c.55-1.28,2.74-1.44,2.74-1.44A2,2,0,0,0,77.18,127.17Z"/><path class="cls-7" d="M79.77,131.86c0,.21-.15.46-.12.66s.29.39.31.59-.23.42-.24.62.21.44.18.64-.31.36-.36.56.09.47,0,.66-.39.27-.5.44,0,.49-.16.64-.45.15-.6.29-.17.45-.34.57-.47,0-.65.11-.28.39-.48.46-.46-.1-.66-.06-.37.31-.58.33-.42-.22-.62-.23-.44.21-.64.18-.35-.32-.55-.38-.48.09-.67,0-.25-.39-.43-.51-.48,0-.64-.17-.14-.44-.29-.6-.45-.15-.57-.33,0-.46-.13-.65-.4-.26-.48-.45.08-.47,0-.67-.34-.33-.38-.54.16-.44.13-.65-.28-.39-.29-.6.23-.4.23-.61c0-.06-.17-.19-.14-.25s.27,0,.3,0-.06-.15-.09-.23h.1c1-1.66,2.67-2.53,3.69-4,1.29,1,3.38,1.46,4.74,2.63h-.08a.13.13,0,0,0,0,.09s.26-.1.31,0-.08.26,0,.31.28,0,.32,0c.08.2-.08.49,0,.68S79.73,131.67,79.77,131.86Z"/><path class="cls-8" d="M74.13,127.66l-.5.82-.51.85-.28.47-.3.49-.3.49-.29.47-.28.44-.26.39-.21.33-.18.25a1.42,1.42,0,0,1-.11.16l0,.06,0,0,.12-.16a2.59,2.59,0,0,0,.19-.23l.24-.32c.08-.12.18-.24.27-.38s.19-.28.29-.43l.31-.47.3-.48.3-.5.28-.48c.09-.15.17-.31.25-.45s.15-.29.22-.41.24-.47.32-.62l.09-.18Z"/><path class="cls-8" d="M74.13,127.66s-.11.48-.27,1.21c0,.19-.09.38-.13.59s-.1.43-.15.66l-.17.7c0,.24-.11.48-.17.72s-.12.48-.19.72l-.09.35-.1.34-.09.33-.1.32c-.06.2-.13.39-.19.57s-.12.33-.18.47a1.72,1.72,0,0,1-.09.19l-.08.17-.14.21,0,.07.06-.07a1.45,1.45,0,0,0,.15-.2l.09-.16.1-.19.1-.22c0-.08.07-.16.11-.25l.1-.27c0-.09.07-.19.11-.29l.1-.32L73,133c.06-.22.13-.45.2-.69l.18-.72c.06-.24.12-.48.17-.72s.11-.48.16-.71.09-.45.13-.66.08-.41.11-.59c.07-.37.12-.68.15-.89s0-.2,0-.25Z"/><path class="cls-8" d="M74.13,127.66s0,.6,0,1.5c0,.23,0,.48,0,.73s0,.54,0,.82v.87c0,.3,0,.6,0,.9s0,.6,0,.9,0,.58,0,.86,0,.56,0,.82,0,.25,0,.37l0,.35,0,.33,0,.29,0,.25,0,.22,0,.17,0,.13,0,.11,0-.11,0-.13s0-.1,0-.17,0-.13,0-.21,0-.17,0-.26,0-.18,0-.29l0-.32c0-.11,0-.23,0-.35l0-.38,0-.39c0-.14,0-.28,0-.42s0-.57,0-.87,0-.6,0-.9v-.9c0-.3,0-.59,0-.87,0-.57,0-1.1-.05-1.55s0-.83-.06-1.09a2.11,2.11,0,0,0,0-.3Z"/><path class="cls-8" d="M74.13,127.66l0,.1c0,.07,0,.17.08.3s.16.62.28,1.06l.2.71c.07.25.15.51.22.78s.17.56.25.84.18.58.26.87l.27.86L76,134q.13.41.27.78c.08.24.16.48.24.69s.15.41.22.58.12.32.18.44l.12.28,0,.1-.14-.39c0-.12-.1-.27-.16-.45s-.06-.18-.09-.28l-.11-.3-.22-.7c-.08-.25-.16-.51-.25-.78s-.17-.55-.26-.84-.17-.57-.26-.86c-.36-1.15-.71-2.31-1-3.18-.14-.43-.25-.79-.33-1Z"/><path class="cls-8" d="M74.13,127.66l0,.07s.06.13.12.22.25.44.44.75.19.33.3.5l.34.56.37.59c.13.2.26.4.4.6s.26.41.4.6.27.39.4.58c.26.36.51.7.74,1a7.63,7.63,0,0,0,.59.66l.19.15.06,0,0,0,0,0-.06,0-.17-.17a6.07,6.07,0,0,1-.55-.68c-.22-.29-.46-.63-.72-1-.12-.18-.25-.38-.39-.57l-.39-.6c-.14-.2-.27-.4-.4-.6l-.38-.59-.67-1-.48-.73Z"/><path class="cls-8" d="M74.13,127.66l0,0,.14.12c.11.11.28.26.49.43s.44.38.7.59l.4.33.42.33.42.32.41.31c.07.05.13.11.2.15l.19.14.36.25.16.11.14.09.24.15.21.13-.19-.15-.23-.17-.29-.22-.34-.26-.38-.3-.41-.32-.42-.33-.83-.64-.38-.3-.34-.26c-.21-.17-.39-.3-.52-.39Z"/></svg>