<svg id="Camada_1" data-name="Camada 1" xmlns="http://www.w3.org/2000/svg" viewBox="0 0 150 150"><defs><style>.cls-1{fill:#494c72;}.cls-1,.cls-2,.cls-3{fill-rule:evenodd;}.cls-2{fill:#7f7fc9;}.cls-3{fill:#545489;}</style></defs><path class="cls-1" d="M62,99.82h0a6,6,0,0,0-8.14-2.39c-13,9-17.18,17.84-16.9,23.75.45,9.29,11.32,10.18,14.32-1.12,1.24-4.69,2.7-11.3,10.72-20.24Z"/><path class="cls-2" d="M41.83,108.42c-3.72,4.88-5.07,9.32-4.9,12.76.22,4.52,2.91,7,6,7.16a18.62,18.62,0,0,0,2.29-9.17,17.74,17.74,0,0,0-3.35-10.75Z"/><path class="cls-3" d="M88,99.82h0a6,6,0,0,1,8.14-2.39c13,9,17.18,17.84,16.9,23.75-.45,9.29-11.32,10.18-14.32-1.12-1.24-4.69-2.7-11.3-10.72-20.24Z"/><path class="cls-2" d="M108.17,108.42c3.72,4.88,5.06,9.32,4.9,12.76-.22,4.52-2.91,7-6,7.16a18.62,18.62,0,0,1-2.29-9.17,17.74,17.74,0,0,1,3.35-10.75Z"/><path class="cls-1" d="M77.4,143.59l-.28-.83a2.19,2.19,0,0,0-4.15,0l-.28.83C62,174.6,21.85,73,75.08,73c52.55,0,13.61,103.32,2.32,70.59Z"/><path class="cls-2" d="M77.4,143.59l-.28-.83a2.19,2.19,0,0,0-4.15,0l-.28.83c-5.24,15.18-23.59-16.84-23.95-42.51C48.05,51,129,78.57,85.72,149.31c-3.21,1.72-6.24.32-8.32-5.72Z"/><path class="cls-1" d="M73.66,116.9s3.12-1.23,2.63,0A1.35,1.35,0,0,1,73.66,116.9Z"/></svg>