<svg id="Camada_1" data-name="Camada 1" xmlns="http://www.w3.org/2000/svg" viewBox="0 0 150 150"><path d="M79.76,71.5631c.09.03.19.06.28.08-.05,0-.1-.01-.15-.01A.8265.8265,0,0,0,79.76,71.5631Z" style="fill:#bf676c"/><path d="M83.96,72.1731c-.34-.06-.69-.11-1.05-.16a6.552,6.552,0,0,1-2.84-.36c.36.03.72.07,1.07.12.31.04.61.07.91.11.29.04.59.08.88.12C83.28,72.0531,83.63,72.1131,83.96,72.1731Z" style="fill:#bf676c"/><path d="M80.42,74.6031a16.8312,16.8312,0,0,1,1.45,1.2,1.95,1.95,0,0,1-.21.32,1.8364,1.8364,0,0,1-1.59.76c-1.39-.05-2.92-1.5-3.68-2.47.37,1.27,1.98,2.55,2.19,4.01a2.1025,2.1025,0,0,1-.21,1.3,1.5029,1.5029,0,0,1-.23.33,2.4079,2.4079,0,0,1-2.39.63c-.09-.02-.19-.05-.28-.08-1.64-.58-1.53-2.38-2.71-3.53-.03,1.55.73,4.43-1.23,5.16-.09.03-.17.06-.25.09-2.11.62-2.57-1.49-2.63-3.52-.02-.71,0-1.42.03-1.99.01-.37.02-.68.02-.91-.09.3-.17.65-.26,1.03-.42,1.76-.94,4.05-2.91,3.74-2.93-.47-1.43-3.58-.48-5.56.17-.36.32-.68.43-.95a6.2261,6.2261,0,0,0-.68.57c-1.15,1.02-2.64,2.57-3.99,1.85a2.0341,2.0341,0,0,1-.58-.47c-1.66-1.84,1.68-3.8,3.17-4.39a8.2306,8.2306,0,0,1-3.47.07l-.01-.01c-1.7-.34-3.08-1.27-2.15-3.2,1.06-2.21,3.72-.91,5.33-.5-.62-.8-2.07-.88-2.52-2.03a3.2906,3.2906,0,0,1,.62-2.92,5.2912,5.2912,0,0,1,3.61,2.5c-.71-1.76-2.17-5.53.68-5.48.87.02,1.59,1.17,2.05,2.4a4.4582,4.4582,0,0,1,.35-2.75c1.32,2.12,2.75,4.79,3.01,6.62a6.3222,6.3222,0,0,0,3.36,4.78A27.6655,27.6655,0,0,1,80.42,74.6031Z" style="fill:#8c3e63"/><path d="M82.93,72.0031c-.01.01-.01.01-.02.01a6.552,6.552,0,0,1-2.84-.36c.36.03.72.07,1.07.12.31.04.61.07.91.11C82.34,71.9231,82.64,71.9631,82.93,72.0031Z" style="fill:#8e3d49"/><path d="M83.96,72.1731c-.34-.06-.69-.11-1.05-.16a6.552,6.552,0,0,1-2.84-.36c.36.03.72.07,1.07.12.31.04.61.07.91.11.29.04.59.08.88.12C83.28,72.0531,83.63,72.1131,83.96,72.1731Z" style="fill:#3d7991"/><path d="M87.55,90.9531c-.97-.18-1.92-.34-2.87-.47-.4-.05-.79-.11-1.18-.15-.44-.05-.88-.1-1.32-.14s-.88-.08-1.31-.12c-1.04-.09-2.07-.14-3.07-.17l-.96-.03c-1.77-.03-3.49.01-5.14.1a65.5012,65.5012,0,0,0-23.39,5.62l-1.51-.36c-.1-.03-.21-.05-.33-.08-.26-.06-.56-.13-.91-.22-.13-.03-.27-.06-.41-.1-.6-.14-1.32-.31-2.17-.51a2.7575,2.7575,0,0,1-.51-.16.7838.7838,0,0,1-.14-.05,4.93,4.93,0,0,1-.46-.23.01.01,0,0,1-.01-.01,3.0673,3.0673,0,0,1-.42-.28,1.2878,1.2878,0,0,1-.17-.16,3.1579,3.1579,0,0,1-.48-.55c-.07-.1-.14-.2-.2-.3,0,0-.02-.01-.01-.02a.2589.2589,0,0,1-.07-.11v-.01a5.6892,5.6892,0,0,1-.26-.56c-.05-.12-.09-.25-.13-.38-.04-.15-.08-.3-.11-.46v-.01c-.03-.12-.05-.24-.08-.36,0-.01-.01-.02,0-.03a9.8849,9.8849,0,0,1-.01-2.61c.06-.46.14-.92.25-1.4.11-.47.24-.95.39-1.43.16-.48.34-.96.54-1.43.1-.23.2-.47.31-.7.09-.2.19-.4.29-.59.07-.15.15-.29.23-.43a3.9724,3.9724,0,0,1,.2-.35c.13-.23.26-.45.4-.66l.06-.09c.06-.1.12-.19.18-.28.07-.11.15-.22.23-.33a14.0058,14.0058,0,0,1,1.37-1.67c.12-.12.24-.25.37-.37l.21-.21h.01c.06-.06.11-.11.17-.16.13-.12.27-.24.41-.36a4.9432,4.9432,0,0,1,.44-.36c.15-.12.3-.24.46-.36a19.5581,19.5581,0,0,1,2.18-1.42c.18-.11.37-.21.56-.31a27.353,27.353,0,0,1,3.9-1.68c.25-.09.49-.17.75-.25.2-.07.42-.13.63-.19.82-.25,1.7-.48,2.62-.68.29-.07.58-.13.88-.19s.61-.12.92-.17c.31-.06.63-.11.95-.16a.292.292,0,0,1,.09-.02c.15-.02.31-.05.47-.07q1.185-.165,2.46-.3c.35-.04.71-.07,1.07-.1.37-.03.74-.06,1.11-.08a80.507,80.507,0,0,1,9.23-.03,27.6655,27.6655,0,0,1,6.16,3.4,16.8312,16.8312,0,0,1,1.45,1.2,11.8618,11.8618,0,0,1,2.97,4.13,8.3407,8.3407,0,0,1,.04,6.54c.02.01.03.03.05.04C86.98,88.0131,87.57,89.5931,87.55,90.9531Z" style="fill:#3d7991"/><path d="M80.07,76.8831c-.1.26-.21.52-.33.77a1.3075,1.3075,0,0,1-1.16.77,1.3218,1.3218,0,0,1-.27.02c-3.22.26-3.52-4.34-5.56-5.94-2.7-2.16-2.28,3.13-4.07,4.31a1.3442,1.3442,0,0,1-.24.12c-.01,0-.01.01-.02.01-1.41.49-2.48-.54-3.37-1.83-.09-.12-.17-.25-.25-.38-.31-.48-.59-.97-.86-1.43a1.67,1.67,0,0,0-2.38-.04c-.59.98-.46,2.22-.75,3.32a2.8453,2.8453,0,0,1-.7,1.31,1.7049,1.7049,0,0,1-2.41.05c-.71-.54-.59-1.71-.95-2.7a1.24,1.24,0,0,0-1.62-.81c-1.32.82-1.02,2.78-1.96,4.15l-.4-.12c-.03.1-.09.3-.12.41a1.6316,1.6316,0,0,1-2.23-.56c-.42-.78.72-2.09.1-2.6-1.26-1.26-2.43,1.26-3.65,2.1a1.9239,1.9239,0,0,1-1.91.28c.06-.06.11-.11.17-.16.13-.12.27-.24.41-.36a4.9432,4.9432,0,0,1,.44-.36c.15-.12.3-.24.46-.36a19.5581,19.5581,0,0,1,2.18-1.42c.18-.11.37-.21.56-.31a27.353,27.353,0,0,1,3.9-1.68c.25-.09.49-.17.75-.25.2-.07.42-.13.63-.19.82-.25,1.7-.48,2.62-.68.29-.07.58-.13.88-.19s.61-.12.92-.17c.31-.06.63-.11.95-.16a.34.34,0,0,1,.1-.01c.15-.03.3-.06.46-.08q1.185-.165,2.46-.3c.35-.04.71-.07,1.07-.1.37-.03.74-.06,1.11-.08a80.507,80.507,0,0,1,9.23-.03,27.6655,27.6655,0,0,1,6.16,3.4A5.1808,5.1808,0,0,1,80.07,76.8831Z" style="fill:#bc6896"/><path d="M84.2436,85.37c-1.1537-.8921-2.3627,2.1589-2.9025,3.6486-.4519,1.1856-1.47,1.3239-2.1364.2471-.1125-.3633-.354-.6547-.3251-.7564-.2731-2.0605-.1189-5.9737-2.465-4.2492-1.5113,1.0915-1.5309,4.1649-3.8262,4.5847-.7886.0958-2.1487-.0869-2.4148-1.0455-.3487-1.4229-.2047-3.8-1.9693-3.3329-1.9953.5089-1.985,3.4807-3.1555,4.8936-1.3576,1.6875-2.7148-1.1342-3.6228-2.503a1.3049,1.3049,0,0,0-2.1064.1454c-.9289,1.7046-.66,4.5337-2.7956,4.78-1.8073.2343-2.1049-2.4929-3.2429-3.82-.5824-.6129-1.9135-.8973-2.3479-.1457-.769,1.5311-.8383,3.27-1.5075,4.8313-.3335.7809-1.3056.3831-1.5008-.4442a5.2948,5.2948,0,0,0-.4983-2.7871c-.1416-.2618-.8421-.4694-1-.2967-.9233.9363-.5792,3.1275-1.4561,3.528-1.882.872-1.1272-2.8633-2.6823-3.8738-.4417-.3509-1.2131-.69-1.4895-.1118a8.4418,8.4418,0,0,0-.7941,2.4072,3.9266,3.9266,0,0,0,2.9746,3.2556l5.3326,1.2683a67.5939,67.5939,0,0,1,36.3725-5.1047C84.63,88.6193,85.3851,86.3224,84.2436,85.37Z" style="fill:#8c3e63"/><path d="M88.39,91.1131l-.01.01c-.28-.06-.55-.11-.83-.16-.96-.18-1.92-.34-2.87-.47v-.01c-.02-1.06.2-2.24.2-3.24,0-.12-.01-.25-.02-.37a2.3255,2.3255,0,0,0-.04-.37,2.1137,2.1137,0,0,0-.2-.63,1.0887,1.0887,0,0,0-.14-.23,1.2247,1.2247,0,0,0-.24-.27.6974.6974,0,0,0-.43-.16.68.68,0,0,0-.19.03.4714.4714,0,0,0-.15.06.01.01,0,0,1-.01.01.7016.7016,0,0,0-.16.1,1.294,1.294,0,0,0-.18.16,1.4877,1.4877,0,0,0-.17.18,5.1512,5.1512,0,0,0-.32.45,2.2606,2.2606,0,0,0-.16.26,5.6755,5.6755,0,0,0-.34.65,3.5394,3.5394,0,0,0-.16.34,4.9965,4.9965,0,0,0-.21.48c-.07.17-.14.35-.21.51-.08.21-.15.41-.21.58-.45,1.18-1.47,1.32-2.14.24-.11-.36-.35-.65-.32-.75-.05-.44-.1-.97-.14-1.5-.02-.17-.03-.33-.05-.49l-.06-.51c-.02-.13-.03-.25-.06-.37a2.0024,2.0024,0,0,0-.04-.24c-.04-.19-.08-.37-.13-.54a2.1945,2.1945,0,0,0-.17-.41.7677.7677,0,0,0-.1-.18.8277.8277,0,0,0-.11-.15.8519.8519,0,0,0-.17-.16,1.093,1.093,0,0,0-.15-.08c-.01,0-.01,0-.02-.01a.1854.1854,0,0,1-.07-.02h-.02a1.5261,1.5261,0,0,0-1.18.41,1.6379,1.6379,0,0,0-.25.21,3.6733,3.6733,0,0,0-.45.56,3.3713,3.3713,0,0,0-.19.32c-.25.43-.46.92-.69,1.38a.2506.2506,0,0,1-.04.07,5.6981,5.6981,0,0,1-.3.54c-.04.07-.09.15-.13.22-.05.07-.1.15-.15.21a1.1319,1.1319,0,0,1-.1.13,1.2165,1.2165,0,0,1-.15.17,2.6226,2.6226,0,0,1-.6.49,2.2737,2.2737,0,0,1-.77.28c-.79.1-2.15-.09-2.42-1.04-.05-.2-.09-.43-.13-.66-.02-.16-.05-.32-.07-.48s-.05-.32-.08-.48c-.01-.07-.03-.15-.04-.23-.02-.07-.03-.15-.05-.22s-.04-.15-.06-.22a1.7233,1.7233,0,0,0-.07-.21,1.511,1.511,0,0,0-.39-.65.71.71,0,0,0-.14-.1.4352.4352,0,0,0-.15-.08.3178.3178,0,0,0-.09-.03c-.03-.01-.06-.01-.09-.02a1.4652,1.4652,0,0,0-.61.04,1.1422,1.1422,0,0,0-.26.09.5306.5306,0,0,0-.17.08.6376.6376,0,0,0-.14.08.6014.6014,0,0,0-.13.09,1.0451,1.0451,0,0,0-.21.17,1.21,1.21,0,0,0-.19.2,1.1511,1.1511,0,0,0-.14.17c-.06.09-.12.19-.18.28-.06.1-.12.21-.17.31a2.4371,2.4371,0,0,0-.14.28,3.3827,3.3827,0,0,0-.18.44c-.06.15-.12.3-.17.45-.07.17-.13.34-.19.51-.1.28-.21.56-.32.82-.06.12-.11.23-.17.33a2.013,2.013,0,0,1-.14.25,3.1231,3.1231,0,0,1-.25.35,1.15,1.15,0,0,1-.89.52.66.66,0,0,1-.14-.01c-.03-.01-.07-.02-.1-.03a1.2,1.2,0,0,1-.38-.18,3.9159,3.9159,0,0,1-.33-.27l-.05-.05a1.9467,1.9467,0,0,1-.24-.26c-.08-.1-.16-.2-.25-.31-.15-.2-.29-.41-.43-.63-.07-.11-.14-.21-.2-.32-.01-.02-.03-.04-.04-.06-.09-.14-.17-.29-.26-.42-.11-.18-.21-.34-.31-.49a1.3116,1.3116,0,0,0-2.11.15c-.07.13-.13.27-.19.41a3.2515,3.2515,0,0,0-.15.4c-.01.01-.01.01-.01.02s-.01.02-.01.03c-.1.3-.18.61-.26.93-.07.26-.14.53-.22.78-.03.12-.07.24-.11.36a4.0616,4.0616,0,0,1-.29.71,1.35,1.35,0,0,1-.15.26,1.6115,1.6115,0,0,1-.25.32,1.5371,1.5371,0,0,1-.19.17,2.1956,2.1956,0,0,1-.25.17c-.01.01-.02.01-.03.02a2.0916,2.0916,0,0,1-.3.11c-.02.01-.03.02-.05.02a1.8628,1.8628,0,0,1-.34.07,1.4769,1.4769,0,0,1-.21.01,1.3576,1.3576,0,0,1-.29-.03,1.6553,1.6553,0,0,1-.21-.06,1.14,1.14,0,0,1-.19-.1.8008.8008,0,0,1-.21-.15.3915.3915,0,0,1-.1-.08c-.06-.05-.11-.11-.17-.17a6.1783,6.1783,0,0,1-.8-1.37c-.16-.33-.32-.67-.49-.99a4.3912,4.3912,0,0,0-.27-.47,3.9065,3.9065,0,0,0-.3-.41c-.58-.61-1.91-.9-2.35-.15-.09.19-.18.38-.25.57-.01.04-.03.07-.04.11a5.1728,5.1728,0,0,0-.18.51c-.13.42-.23.84-.33,1.26-.05.19-.09.38-.14.57l-.15.57a9.605,9.605,0,0,1-.41,1.25.6332.6332,0,0,1-.58.42.7985.7985,0,0,1-.26-.05c-.01,0-.01-.01-.02-.01a1.093,1.093,0,0,1-.15-.08,1.1319,1.1319,0,0,1-.13-.1.9345.9345,0,0,1-.16-.18c-.03-.04-.06-.09-.09-.14a.6894.6894,0,0,1-.07-.15.983.983,0,0,1-.05-.16,5.3,5.3,0,0,0-.49-2.79c-.15-.26-.85-.47-1-.29-.93.93-.58,3.12-1.46,3.53-1.88.87-1.13-2.87-2.68-3.88-.44-.35-1.22-.69-1.49-.11a6.1081,6.1081,0,0,0-.27.58c-.08.2-.16.4-.22.6a9.8673,9.8673,0,0,0-.3,1.19v.01a.0367.0367,0,0,0-.01.03c-.03-.13-.05-.26-.07-.4,0-.01-.01-.02,0-.03a9.1028,9.1028,0,0,1-.01-2.61,10.0506,10.0506,0,0,1,.25-1.4c.11-.47.24-.95.39-1.43.16-.48.34-.96.54-1.43.1-.23.2-.47.31-.7.09-.2.19-.4.29-.59.07-.15.15-.29.23-.43a3.9724,3.9724,0,0,1,.2-.35c.13-.23.26-.45.4-.66a.4053.4053,0,0,1,.05-.09h.01a4,4,0,0,0,.71.2c-.36,1.22-.89,2.71-.04,3.51,2.28,1.89,3.32-2.09,5.03-3.13,1.46-.89,1.45,1.75,1.66,2.91.25,1.4,2.23,1.32,3.08.26.78-1.2.99-2.68,1.94-3.72.29-.24.91-.5,1.22-.08.76.78.83,2.01,1.17,3.1.18.49,1,1.06,1.57.58,1.22-1.18,1.45-2.76,2.29-4.16a1.0819,1.0819,0,0,1,1.81-.24c.7.98.88,2.24,1.57,3.22.11.36.84.47,1.13.22,1.38-1.11,1.62-4.45,2.92-4.82a1.3482,1.3482,0,0,1,1.11.29c.79.57,1.24,1.96,1.52,3.23.01.03.01.06.02.09.22.73.63.08,1.01.63,1.74,2.16,2.63-.36,3.44-2.36.17-.4.33-.77.49-1.09.31-.68,1.38-.25,1.69.17.07.09.14.19.21.29.96,1.43,1.45,3.48,3.31,3.72.3.09.51-.29.7-.56.75-1.1.49-2.83,1.8-3.21a2.0376,2.0376,0,0,1,.89-.07,8.3407,8.3407,0,0,1,.04,6.54c.02.01.03.03.05.04,2.05,1.5,2.64,3.08,2.62,4.44C87.83,91.0031,88.11,91.0631,88.39,91.1131Z" style="fill:#bc6896"/><path d="M84.84,79.9331a2.0376,2.0376,0,0,0-.89.07c-1.31.38-1.05,2.11-1.8,3.21-.19.27-.4.65-.7.56-1.86-.24-2.35-2.29-3.31-3.72-.07-.1-.14-.2-.21-.29-.31-.42-1.38-.85-1.69-.17-.16.32-.32.69-.49,1.09-.81,2-1.7,4.52-3.44,2.36-.38-.55-.79.1-1.01-.63-.01-.03-.01-.06-.02-.09-.28-1.27-.73-2.66-1.52-3.23a1.3482,1.3482,0,0,0-1.11-.29c-1.3.37-1.54,3.71-2.92,4.82-.29.25-1.02.14-1.13-.22-.69-.98-.87-2.24-1.57-3.22a1.0819,1.0819,0,0,0-1.81.24c-.84,1.4-1.07,2.98-2.29,4.16-.57.48-1.39-.09-1.57-.58-.34-1.09-.41-2.32-1.17-3.1-.31-.42-.93-.16-1.22.08-.95,1.04-1.16,2.52-1.94,3.72-.85,1.06-2.83,1.14-3.08-.26-.21-1.16-.2-3.8-1.66-2.91-1.71,1.04-2.75,5.02-5.03,3.13-.85-.8-.32-2.29.04-3.51a4,4,0,0,1-.71-.2h-.01a2.75,2.75,0,0,1,.19-.28c.07-.11.15-.22.23-.33a14.0058,14.0058,0,0,1,1.37-1.67c.12-.12.24-.25.37-.37l.21-.21h.01a1.9239,1.9239,0,0,0,1.91-.28c1.22-.84,2.39-3.36,3.65-2.1.62.51-.52,1.82-.1,2.6a1.6316,1.6316,0,0,0,2.23.56c.03-.11.09-.31.12-.41l.4.12c.94-1.37.64-3.33,1.96-4.15a1.24,1.24,0,0,1,1.62.81c.36.99.24,2.16.95,2.7a1.7049,1.7049,0,0,0,2.41-.05,2.8453,2.8453,0,0,0,.7-1.31c.29-1.1.16-2.34.75-3.32a1.67,1.67,0,0,1,2.38.04c.27.46.55.95.86,1.43.08.13.16.26.25.38.89,1.29,1.96,2.32,3.37,1.83.01,0,.01-.01.02-.01a1.3442,1.3442,0,0,0,.24-.12c1.79-1.18,1.37-6.47,4.07-4.31,2.04,1.6,2.34,6.2,5.56,5.94a1.3218,1.3218,0,0,0,.27-.02,1.3075,1.3075,0,0,0,1.16-.77c.12-.25.23-.51.33-.77a5.1808,5.1808,0,0,0,.35-2.28,16.8312,16.8312,0,0,1,1.45,1.2A11.8618,11.8618,0,0,1,84.84,79.9331Z" style="fill:#8c3e63"/><path d="M89.44,91.3431c-.36-.07-.71-.15-1.06-.22-.28-.06-.55-.11-.83-.16a5.5343,5.5343,0,0,1-.79,2.64,74.3135,74.3135,0,0,0-13.15-1.03c-22.03.07-25.37,11.1-25.37,11.1a28.8931,28.8931,0,0,1-2.73-4.8,5.1258,5.1258,0,0,1,.05-3.94,4.9069,4.9069,0,0,1,.36-.71s.26-.78,2.05-1.86a15.8949,15.8949,0,0,1,1.87-.96,31.5108,31.5108,0,0,1,4.5-1.57c1.26-.36,2.7-.71,4.36-1.04,1.09-.23,2.26-.44,3.54-.65,1.15-.18,2.38-.36,3.69-.53,1.28-.17,2.65-.33,4.11-.47.51-.06,1.04-.11,1.58-.16,1.11-.1,2.17-.19,3.2-.25h.01c1.35-.1,2.64-.16,3.86-.21,1.34-.04,2.59-.06,3.78-.06.82.01,1.6.02,2.35.04a.41.41,0,0,0,.11.01c2.05,1.5,2.64,3.08,2.62,4.44.28.05.56.11.84.16C88.74,91.1931,89.09,91.2631,89.44,91.3431Z" style="fill:#994a5d"/><path d="M104.55,87.8731a1.3565,1.3565,0,0,1-.06.29c.01.01,0,.03-.01.04a1.2759,1.2759,0,0,1-.07.28,5.4643,5.4643,0,0,1-1.4,2.09c-.05.05-.1.1-.16.15a5.2886,5.2886,0,0,0-.52-1.75c-.32-.76-1.97-.7-2.85-.3a2.1605,2.1605,0,0,0-.69.49,19.3253,19.3253,0,0,0-3.94-1.4,2.2954,2.2954,0,0,0-1.27-2.38c-1.33-.58-2.16.36-2.81,1.61a58.0806,58.0806,0,0,0-5.84-.48c-.02-.01-.03-.03-.05-.04a8.3407,8.3407,0,0,0-.04-6.54,1.2178,1.2178,0,0,1,1.08.76c.62,1.62,1.35,3.6,2.85,2.94.97-.37.6-2.46,1.38-2.89,2.3-1.19,1.94,2.66,3.12,4.22a1.44,1.44,0,0,0,2.41-.05c.67-1.57.54-3.36,1.71-4.78.21-.37.89-.06.93.17.32.75.95,1.6.55,2.58l.4.12c.24,1.06,1.32,1.82,1.87,1.43a3.5485,3.5485,0,0,0,1.49-2.03,16.757,16.757,0,0,1,.88,1.74c.08.19.16.37.23.55s.14.35.2.52c.06.16.11.31.17.46.11.33.21.64.31.93A2.9391,2.9391,0,0,1,104.55,87.8731Z" style="fill:#a85e9f"/><path d="M94.85,87.7631a37.5481,37.5481,0,0,0-4.08-.77c.65-1.25,1.48-2.19,2.81-1.61A2.2954,2.2954,0,0,1,94.85,87.7631Z" style="fill:#6d3362"/><path d="M102.43,82.0631c-.01-.01-.02-.02-.02-.03-.15-.24-.3-.48-.47-.72s-.36-.49-.55-.74c-.2-.24-.41-.49-.63-.74-.11-.12-.22-.25-.34-.37a4.156,4.156,0,0,0-.36-.37c-.13-.12-.26-.25-.39-.37-.14-.13-.27-.25-.41-.37a17.7618,17.7618,0,0,0-2.43-1.78.01.01,0,0,0-.01-.01,1.6352,1.6352,0,0,0,.02.22c.09.8-.3,1.78-1.09,1.88a2.0368,2.0368,0,0,1-1.33-.29c-.54-.38-1.17-.45-1.49-.88-1.2-1.45-2.23-4.29-4.03-2.95-.84.63-.6,2.46-1.41,2.99-2.04,1.05-3.59-1.5-4.19-3.55a1.9525,1.9525,0,0,0-1.9-1.14,2.3136,2.3136,0,0,0-.74.14c-.23.04-.38.55-.37.88a3.3,3.3,0,0,1,.13.74,16.8353,16.8353,0,0,1,1.45,1.2,11.8644,11.8644,0,0,1,2.97,4.13,1.2172,1.2172,0,0,1,1.08.76c.62,1.62,1.35,3.6,2.85,2.94.97-.37.6-2.46,1.38-2.89,2.3-1.19,1.94,2.66,3.12,4.22a1.44,1.44,0,0,0,2.41-.05c.67-1.57.54-3.36,1.71-4.78.21-.37.89-.06.93.17.32.75.95,1.6.55,2.58l.4.12c.24,1.06,1.32,1.82,1.87,1.43a3.5485,3.5485,0,0,0,1.49-2.03C102.57,82.2931,102.5,82.1731,102.43,82.0631Z" style="fill:#6d3362"/><path d="M96.84,76.7831a1.6352,1.6352,0,0,1-.02-.22c-.22-.14-.46-.28-.7-.42s-.48-.27-.73-.41c-.2-.1-.41-.21-.62-.32-.33-.16-.68-.32-1.04-.48-.27-.12-.55-.24-.83-.35-.61-.25-1.24-.48-1.91-.71s-1.37-.44-2.11-.64c-.04-.01-.07-.02-.1-.03q-.51-.135-1.05-.27c-.62-.15-1.27-.29-1.94-.43-.17-.03-.34-.07-.51-.1-.37-.07-.74-.14-1.12-.2-.07-.01-.13-.02-.2-.03-.34-.06-.69-.11-1.05-.16-.28-.04-.57-.09-.86-.13-.3-.04-.6-.07-.91-.11-.35-.05-.71-.09-1.07-.12a.0367.0367,0,0,0-.03-.01c-.05,0-.1-.01-.15-.01-.08-.01-.17-.02-.25-.03-.9-.09-1.78-.16-2.64-.23-.94-.07-1.85-.13-2.74-.17a27.6622,27.6622,0,0,1,6.16,3.4,3.3,3.3,0,0,0-.13-.74c-.01-.33.14-.84.37-.88a2.3136,2.3136,0,0,1,.74-.14,1.9525,1.9525,0,0,1,1.9,1.14c.6,2.05,2.15,4.6,4.19,3.55.81-.53.57-2.36,1.41-2.99,1.8-1.34,2.83,1.5,4.03,2.95.32.43.95.5,1.49.88a2.0368,2.0368,0,0,0,1.33.29C96.54,78.5631,96.93,77.5831,96.84,76.7831Z" style="fill:#a85e9f"/><path d="M82.93,72.0031c-.29-.04-.59-.08-.88-.12-.3-.04-.6-.07-.91-.11-.35-.05-.71-.09-1.07-.12a.0367.0367,0,0,0-.03-.01c-.09-.02-.19-.05-.28-.08a.8265.8265,0,0,1,.13.07c-.08-.01-.17-.02-.25-.03-.9-.09-1.78-.16-2.64-.23-.94-.07-1.85-.13-2.74-.17a6.3222,6.3222,0,0,1-3.36-4.78c-.26-1.83-1.69-4.5-3.01-6.62a1.1856,1.1856,0,0,1,.85-.5c1.65-.2,2.51,2.51,2.25,3.69.51-1.83,1.43-5.15,3.99-3.71,2.4,1.36,1.2,3.38-.02,4.99,1.49-1.65,5.34-3.17,6.85-1,1.7,2.45-.74,3.95-2.81,4.06,1.71.18,3.99.95,4.54,2.47C84.05,71.2231,83.68,71.8231,82.93,72.0031Z" style="fill:#6d3362"/><path d="M102.85,90.7231c-.04.04-.08.07-.12.11a12.5319,12.5319,0,0,1-1.21.97c-.15.1-.29.2-.44.29l-.52-1.77a6.3489,6.3489,0,0,0-1.77-1.16,2.1605,2.1605,0,0,1,.69-.49c.88-.4,2.53-.46,2.85.3A5.2886,5.2886,0,0,1,102.85,90.7231Z" style="fill:#6d3362"/><path d="M101.68,94.0731c-.25-.83-.44-1.47-.59-1.97-.06.04-.13.08-.2.12a2.1414,2.1414,0,0,0,.19-.13l-.52-1.77a6.3489,6.3489,0,0,0-1.77-1.16,19.3253,19.3253,0,0,0-3.94-1.4,37.5481,37.5481,0,0,0-4.08-.77,58.0806,58.0806,0,0,0-5.84-.48c2.05,1.5,2.64,3.08,2.62,4.44l0,.0113a5.5358,5.5358,0,0,1-.79,2.6387c11.21,2.01,14.4,6.26,14.4,6.26S102.8,97.8231,101.68,94.0731Z" style="fill:#6d3362"/></svg>