<svg id="Camada_1" data-name="Camada 1" xmlns="http://www.w3.org/2000/svg" viewBox="0 0 150 150"><path d="M113.08,118.89a28.2536,28.2536,0,0,0-2.96-7.39l-.35-.56a.6139.6139,0,0,0-.07-.18c-.11-.15-.22-.31-.33-.46l-.05-.08h-.01a36.5859,36.5859,0,0,0-7.4978-8.3531A30.3576,30.3576,0,0,1,99.29,110.67c-1.2607,2.7389-3.9744,8.5249-10.37,12.2a25.9421,25.9421,0,0,1-14.15,3.16,28.3668,28.3668,0,0,1-13.5-3.52c-10.7017-6.1986-12.8145-18.5966-13.1189-20.5685A29.9486,29.9486,0,0,0,37.16,118.51a1.2743,1.2743,0,0,0-.06.21c-.32,1.02-1.5,5.53.48,8.81a6.5411,6.5411,0,0,0,2.39,2.3,6.028,6.028,0,0,0,.67.34,4.7931,4.7931,0,0,0,.65.25,5.7292,5.7292,0,0,0,1.21.29,5.9524,5.9524,0,0,0,1.11.04l.3-.03c.11-.01.22-.03.33-.05s.22-.05.33-.07a3.36,3.36,0,0,0,.48-.14,2.7385,2.7385,0,0,0,.4-.15c.23-.1.46-.21.67-.32a8.1867,8.1867,0,0,0,1.65-1.21,9.7748,9.7748,0,0,0,1.57-1.84l.43-.38,1.07-.94c.04.09.07.16.1.23,0,.01.01.01.01.02a1.9978,1.9978,0,0,1,.09.3c.11.61.24,1.21.38,1.8.03.15.06.29.1.45a40.241,40.241,0,0,0,3.96,10.06c.09.18.18.34.27.49v.01a3.3594,3.3594,0,0,1,.23.4c.25.44.52.88.79,1.31v.01c0,.01.01.02.02.04a.2958.2958,0,0,1,.03.04c.02.03.04.07.07.12a63.64,63.64,0,0,0,4.72,6.69,6.9685,6.9685,0,0,0,.6018.6568c.0613.059.157.1489.2781.2532a5.7192,5.7192,0,0,0,3.3881,1.5,4.6667,4.6667,0,0,0,1.0481-.0793A7.0558,7.0558,0,0,0,72.1,145.9a5.8947,5.8947,0,0,0,.24-.67.1854.1854,0,0,0,.02-.07c.21-.53.41-1.03.59-1.48l.01-.01a2.03,2.03,0,0,1,1.82-.79,2.2776,2.2776,0,0,1,.67.17,3.91,3.91,0,0,1,1.08.59,3.2547,3.2547,0,0,1,.82,1.32,22.2054,22.2054,0,0,0,1.2468,2.5128A5.64,5.64,0,0,0,79.83,148.88c.1976.139.42.27.42.27a5.0252,5.0252,0,0,0,.49.26,4.7054,4.7054,0,0,0,1.1523.3683,3.9352,3.9352,0,0,0,.8279.053c2.6936-.1142,4.5791-3.04,5.5-4.456,2.2495-3.46,5.6748-8.5723,9.85-15.0853a.1018.1018,0,0,0,.0088-.0288l.0012-.0212a.01.01,0,0,0,.01-.01c.43-1.1.85-2.21,1.27-3.33.11-.29.24-.57.37-.85.01.01.01.02.03.03a23.6427,23.6427,0,0,0,2.54,2.81v.01c.05.04.1.1.16.15.05.05.1.1.16.15a5.8662,5.8662,0,0,0,.49.41c.17.13.33.24.49.34a4.378,4.378,0,0,0,.51.29c.15.07.31.14.46.2a6.5053,6.5053,0,0,1-1.9-1.24c-.11-.1-.22-.21-.32-.3a7.1015,7.1015,0,0,1,.55-1.27c0-.01.01-.01.01-.02.09-.17.19-.35.31-.54.15.26.31.51.47.75a10.5115,10.5115,0,0,0,1.79,2.03,8.7755,8.7755,0,0,0,1.39,1.03,3.3167,3.3167,0,0,0,.46-.02q.1949-.015.33-.03h.03a.4408.4408,0,0,1,.1-.02.06.06,0,0,1,.04-.01h.02a.5741.5741,0,0,1,.1-.02c.01-.01.01-.01.02-.01H108a.031.031,0,0,1,.02-.01s.1-.02.28-.06a.5575.5575,0,0,0,.12-.04.93.93,0,0,0,.13-.04c.06-.02.13-.04.2-.07.14-.05.29-.12.46-.19.09-.04.17-.08.26-.13.01,0,.01,0,.01-.01a2.6292,2.6292,0,0,0,.23-.13,6.7083,6.7083,0,0,0,1.72-1.47,26.3925,26.3925,0,0,0-2.06-7.59A35.8952,35.8952,0,0,1,113.08,118.89ZM65.53,149.87a.3436.3436,0,0,1-.14-.03c-.06-.01-.06-.01-.02-.01h.01c.06.01.12.03.18.04Z" style="fill:#9e5266"/><path d="M69.7575,146.9267a7.2807,7.2807,0,0,1-1.4665,1.7167,6.8341,6.8341,0,0,1-2.57,1.3461c.0928.0079.1919.0131.2966.0144.1355.0016.2622-.0036.3787-.0129a6.4192,6.4192,0,0,0,1.1755-.2007,6.9074,6.9074,0,0,0,2.1426-1.0276A6.7821,6.7821,0,0,0,72.1,145.9a6.1307,6.1307,0,0,0,.24-.67.1854.1854,0,0,0,.02-.07c.21-.53.41-1.03.59-1.48l.01-.01a1.8777,1.8777,0,0,1,1.41-.79,2.71,2.71,0,0,1,.41,0,2.2373,2.2373,0,0,1,.67.17,3.595,3.595,0,0,0-2.3923-.2734,3.7317,3.7317,0,0,0-2.0166,1.4C70.2827,145.1374,70.59,145.5849,69.7575,146.9267Z" style="fill:#542049"/><path d="M110.12,111.5l-.35-.56a.6139.6139,0,0,0-.07-.18c-.11-.15-.22-.31-.33-.46l-.05-.08h-.01a36.7812,36.7812,0,0,0-7.4968-8.3583c-.1384.827-.3086,1.6863-.5168,2.5733A40.7267,40.7267,0,0,1,99.29,110.67a20.0011,20.0011,0,0,1,10.08,10.36,35.8952,35.8952,0,0,1,3.71-2.14A28.2536,28.2536,0,0,0,110.12,111.5Z" style="fill:#542049"/><path d="M102.35,128.9a7.1015,7.1015,0,0,1,.55-1.27.0781.0781,0,0,1-.04-.04,33.625,33.625,0,0,1-5.12-8.15c-.7071,2.4364-1.7781,6.0183-3.19,10.34a74.01,74.01,0,0,1-3.6406,9.7589c-4.2637,8.8557-7.7512,9.8151-9.0227,10.0206-.2522.0407-.4624.0591-.6021.0683a3.8467,3.8467,0,0,0,.4773.1894,3.9165,3.9165,0,0,0,1.1646.188c.1633.002.4062.0012.6992-.0153,0,0,.44-.03.8308-.1018a7.0362,7.0362,0,0,0,2.5906-1.2853,21.5383,21.5383,0,0,0,4.3137-4.6244A76.4837,76.4837,0,0,0,98.4233,129.79c.5884-1.5809,1.0291-2.89,1.3066-3.74.01.01.01.02.03.03a23.6427,23.6427,0,0,0,2.54,2.81v.01c.05.04.1.1.16.15.05.05.1.1.16.15a5.8662,5.8662,0,0,0,.49.41c.17.13.33.24.49.34a4.378,4.378,0,0,0,.51.29c.15.07.31.14.46.2a6.5053,6.5053,0,0,1-1.9-1.24C102.56,129.1,102.45,128.99,102.35,128.9Z" style="fill:#542049"/><path d="M50.34,118.91a22.0228,22.0228,0,0,1-4.67,6.2,11.346,11.346,0,0,1,2.1,3.67c.01.01.01.01.01.02.15-.15.3772-.376.6526-.6525.8611-.8645,1.0237-1.042,1.3374-1.3275a12.6635,12.6635,0,0,1,1.18-.95c.0945.6044.23,1.3643.4236,2.2349a37.4261,37.4261,0,0,0,1.043,3.7111A38.3648,38.3648,0,0,0,55.48,138.48a140.0728,140.0728,0,0,1-5.04-19.04Q50.3893,119.1748,50.34,118.91Z" style="fill:#542049"/><path d="M91.14,129.26a10.3793,10.3793,0,0,1-10.35,10.36H69.09a10.3686,10.3686,0,0,1-9.88-7.3,9.9933,9.9933,0,0,1-.47-3.06,10.2783,10.2783,0,0,1,2.35-6.54c.06-.07.11-.14.18-.21a29.2162,29.2162,0,0,0,13.5,3.52,25.9425,25.9425,0,0,0,14.15-3.16c.12.16.24.32.35.48a10.1679,10.1679,0,0,1,1.87,5.91Z" style="fill:#daeaea"/><path d="M91.1412,129.26a10.3793,10.3793,0,0,1-10.35,10.36h-11.7a10.3686,10.3686,0,0,1-9.88-7.3,20.6162,20.6162,0,0,0,13.84,5.12c9.31-.13,14.09-1.25,17.85-10.41A10.2946,10.2946,0,0,1,91.1412,129.26Z" style="fill:#c0d8d7"/><path d="M47.7812,128.8a7.2741,7.2741,0,0,1-3.21,1.8c-.11.02-.22.05-.33.07s-.22.04-.33.05l-.3.03a5.9513,5.9513,0,0,1-1.11-.04,5.7292,5.7292,0,0,1-1.21-.29,8.4646,8.4646,0,0,1-1.28-.59,6.5391,6.5391,0,0,1-2.39-2.3c1.95.44,4.89.37,8.05-2.42a11.3512,11.3512,0,0,1,2.1,3.67C47.7812,128.79,47.7812,128.79,47.7812,128.8Z" style="fill:#a5b7b6"/><path d="M40.0112,129.83a8.4646,8.4646,0,0,0,1.28.59,6.317,6.317,0,0,1-1.32-.59,6.54,6.54,0,0,1-2.39-2.3c-1.98-3.28-.8-7.79-.48-8.81a27.871,27.871,0,0,1,8.57,6.39c-3.16,2.79-6.1,2.86-8.05,2.42A6.5364,6.5364,0,0,0,40.0112,129.83Z" style="fill:#daeaea"/><path d="M113.36,124.38a9.1436,9.1436,0,0,1-1.92,4.26l-.01.01a6.534,6.534,0,0,1-1.72,1.44c-.08.05-.15.09-.23.13,0,.01,0,.01-.01.01-.09.05-.17.09-.26.13-.17.07-.32.14-.46.19-.07.03-.14.05-.2.07a.9288.9288,0,0,1-.13.04.5638.5638,0,0,1-.12.04c-.18.04-.28.06-.28.06a.031.031,0,0,0-.02.01h-.03c-.01,0-.01,0-.02.01a.5755.5755,0,0,0-.1.02h-.02a.06.06,0,0,0-.04.01.44.44,0,0,0-.1.02h-.03q-.135.015-.33.03a3.3167,3.3167,0,0,1-.46.02h-.03c-.1,0-.2,0-.31-.01-.12-.01-.23-.01-.35-.03a1.1342,1.1342,0,0,1-.25-.03,3.7283,3.7283,0,0,1-.44-.08c-.11-.02-.22-.05-.34-.08-.2-.06-.41-.13-.61-.21h-.01a3.9973,3.9973,0,0,1-.42-.2,4.4028,4.4028,0,0,1-.51-.29c-.16-.1-.32-.21-.49-.34a5.9152,5.9152,0,0,1-.49-.41c-.06-.05-.11-.1-.16-.15-.06-.05-.11-.11-.16-.15v-.01c.02-.07.05-.15.08-.24l.12-.29c.09-.22.21-.48.36-.77.1-.16.2-.34.31-.52a10.5775,10.5775,0,0,1,.76-1.11,19.9489,19.9489,0,0,1,3.58-3.59c.56-.44,1.18-.89,1.86-1.34a35.9292,35.9292,0,0,1,3.71-2.14c.01-.01.02-.01.03-.02A13.6832,13.6832,0,0,1,113.36,124.38Z" style="fill:#daeaea"/><path d="M113.36,124.38a9.1436,9.1436,0,0,1-1.92,4.26l-.01.01a6.534,6.534,0,0,1-1.72,1.44c-.08.05-.15.09-.23.13,0,.01,0,.01-.01.01-.09.05-.17.09-.26.13-.17.07-.32.14-.46.19-.07.03-.14.05-.2.07a.9288.9288,0,0,1-.13.04.5638.5638,0,0,1-.12.04c-.18.04-.28.06-.28.06a.031.031,0,0,0-.02.01h-.03c-.01,0-.01,0-.02.01a.5755.5755,0,0,0-.1.02h-.02a.06.06,0,0,0-.04.01.44.44,0,0,0-.1.02h-.03q-.135.015-.33.03a3.3167,3.3167,0,0,1-.46.02h-.03c-.1,0-.2,0-.31-.01-.12-.01-.23-.01-.35-.03a1.1342,1.1342,0,0,1-.25-.03,3.7283,3.7283,0,0,1-.44-.08c-.11-.02-.22-.05-.34-.08-.2-.06-.41-.13-.61-.21h-.01a3.9973,3.9973,0,0,1-.42-.2,4.4028,4.4028,0,0,1-.51-.29c-.16-.1-.32-.21-.49-.34a5.9152,5.9152,0,0,1-.49-.41c-.06-.05-.11-.1-.16-.15-.06-.05-.11-.11-.16-.15v-.01c.02-.07.05-.15.08-.24l.12-.29.36-.77s6.59,2.65,6.51-6.56a35.9292,35.9292,0,0,1,3.71-2.14c.01-.01.02-.01.03-.02A13.6832,13.6832,0,0,1,113.36,124.38Z" style="fill:#a5b7b6"/><path d="M77.1774,127.067c-1.526-.2216-2.3689.6271-3.045.53-.664.35-1.722-.168-3.1267.4475a1.8534,1.8534,0,0,0,.4164,1.1026s1.9124-.5352,2.9627.5382c.5427-1.2766,2.7373-1.441,2.7373-1.441A1.9168,1.9168,0,0,0,77.1774,127.067Z" style="fill:#d1abc1"/><path d="M79.7724,131.7585c.0482.2077-.1476.4554-.1178.6537.0316.2108.29.3917.3021.5918.0125.2127-.2243.4215-.2328.6219-.0089.2125.208.4416.1771.64-.0327.21-.31.36-.3653.5543-.0579.2033.0965.4782.0157.6639-.0839.193-.3909.2664-.4969.44-.1093.1786-.0357.4851-.1659.6428-.1326.1608-.4481.1463-.6.2846-.1534.14-.1676.4551-.3372.5717s-.4705.0177-.6547.1109-.2815.3935-.4765.4622-.4589-.1049-.6611-.0615-.3714.31-.5777.3273-.418-.2157-.625-.2241-.4364.2078-.6408.1734-.35-.3132-.5488-.3735c-.1966-.06-.4745.09-.6638.004-.1867-.0849-.2561-.3925-.4328-.5033-.1731-.1086-.48-.0368-.6415-.1707-.1565-.13-.1426-.4451-.2852-.6-.1376-.1489-.453-.1589-.5754-.3308-.1173-.1645-.0252-.4661-.1267-.6518-.0967-.1768-.401-.26-.4818-.4568-.0766-.186.0792-.46.0182-.6641-.0576-.1925-.3393-.3348-.3818-.5432-.04-.1969.1624-.439.1368-.65-.0242-.1994-.28-.3851-.29-.5975-.01-.2009.2244-.4.2274-.6124.028-.0592-.168-.1856-.1384-.2429s.2711-.002.3025-.0583c.0236-.0422-.0651-.15-.0993-.2249l.1023-.0163c1.0111-1.6582,2.67-2.5239,3.6876-3.9669,1.2933,1.031,3.3853,1.4589,4.746,2.6311l-.0814.0129c-.0051.0383-.0048.07.0108.0831.0491.0425.2574-.091.3045-.0465s-.0746.26-.0294.3066.2827-.04.3255.01c.075.199-.08.4808-.0211.6729C79.4428,131.4256,79.7271,131.563,79.7724,131.7585Z" style="fill:#9e748e"/><path d="M74.1253,127.5525s-.1978.33-.4944.8253c-.1481.2474-.3208.5361-.506.8454-.0929.1543-.1889.3138-.2866.4759s-.198.3258-.2977.49-.2011.3275-.3.4887l-.2942.4709c-.0968.1519-.19.2987-.279.4381-.0907.1377-.1754.2688-.2535.39-.0808.1194-.1539.2294-.2182.3272s-.124.1809-.1718.25-.0851.1239-.1107.1612l-.039.0571.044-.0532c.0287-.0348.0716-.0853.1244-.1511s.1186-.1441.189-.238.1524-.1982.2386-.3142c.0844-.1172.1759-.2443.2713-.38s.1925-.2805.2931-.43c.0988-.1511.2019-.3067.3037-.4668.1-.1609.202-.3244.3039-.4878.0988-.1652.2-.33.295-.4933s.189-.325.2783-.482.1736-.31.2534-.4545.1532-.2831.2214-.41c.1354-.2551.2427-.4706.3188-.6208.0384-.075.0663-.1351.0861-.1756Z" style="fill:#6d2655"/><path d="M74.1253,127.5525s-.1073.4865-.2681,1.2164c-.0407.1823-.0848.38-.1314.5887s-.0975.4285-.1493.656l-.1638.7006c-.0562.2385-.1147.48-.1756.7216-.059.2416-.1206.4827-.1832.7193l-.0942.3514-.0949.342-.096.33-.096.3141c-.0651.2034-.1283.3951-.1912.57s-.1253.3342-.1845.4734c-.0312.0688-.0586.1343-.0873.193l-.0816.16a2.2731,2.2731,0,0,1-.1338.2136l-.0523.0725L72,135.107a1.9039,1.9039,0,0,0,.1486-.2058l.0908-.1569c.0324-.0576.0633-.1218.0985-.19s.0668-.1423.1032-.22.0682-.1616.1049-.2479.0694-.1782.1063-.2724.0693-.1933.1056-.2944l.1053-.313.1029-.3291c.067-.2243.136-.456.2-.6933s.1275-.4785.1878-.72.117-.485.1718-.7242.1053-.4756.1541-.7042.0925-.45.1338-.6605.0782-.4094.1114-.5933c.0672-.3679.1153-.6757.1505-.8911.0178-.1075.0293-.1924.038-.25Z" style="fill:#6d2655"/><path d="M74.1253,127.5525s.0077.6025.0193,1.5064c.0022.226.0047.4706.0072.7294s.0034.5319.0053.8141c0,.2824.0007.574.001.8705s-.0016.5975-.0055.8985-.0066.6021-.0135.8982-.0138.5876-.0243.87-.0224.5543-.0362.8126q-.0121.1935-.0232.376l-.0256.351-.0289.3223c-.01.1024-.0209.1993-.03.2906s-.0225.1759-.0322.2547-.0212.1507-.0322.2155l-.0285.1736-.025.1276-.0208.1062.0271-.1048.0327-.1261c.0124-.05.0236-.1076.0374-.1722s.0289-.1362.0419-.2147.03-.1629.0436-.2539.0292-.1876.0433-.29l.04-.3224c.0119-.1125.0244-.23.0371-.3512l.0325-.3765.0287-.398c.0084-.1358.017-.2746.0236-.416.0137-.2824.0274-.5744.0345-.8712s.0141-.5984.0175-.9.0026-.6031.0016-.9-.0065-.5889-.0114-.8715c-.0112-.5651-.029-1.0924-.0492-1.5441s-.0432-.8279-.0586-1.0912c-.0076-.1316-.0159-.235-.0208-.3054Z" style="fill:#6d2655"/><path d="M74.1253,127.5525l.0268.1053c.0178.0687.0424.17.0767.2977.0685.2558.1631.6222.2842,1.06.06.2189.1256.4558.1967.706s.1458.5141.2252.7864.1628.5535.2467.8394c.0863.2851.1739.5747.2615.8644.0905.2889.1811.5777.27.862.0905.2839.1806.563.27.8323s.1752.53.2619.7753.1652.4785.2451.6912.1487.409.2186.58.1256.3217.1778.4435l.1235.2818.0438.0995s-.0529-.1418-.1457-.39c-.0467-.1237-.0967-.2766-.1576-.45-.03-.087-.0624-.18-.0937-.2782l-.102-.309c-.0725-.2148-.1447-.45-.2253-.6968s-.16-.5095-.2463-.7794c-.0845-.2707-.1715-.55-.26-.8346s-.177-.5736-.2661-.8626c-.3559-1.1565-.7118-2.3129-.9787-3.18-.1355-.4332-.2483-.7942-.3275-1.0469Z" style="fill:#6d2655"/><path d="M74.1253,127.5525l.0422.0757c.0277.0493.0675.1222.12.2135.1057.1828.2547.4453.44.7562.0925.1556.193.324.3013.5009s.2217.3639.342.5555.2437.39.3726.59.2609.4019.3923.6043c.1335.2012.268.4017.4018.5982s.2685.3878.3994.5726c.2626.3691.5164.7076.745.9893a6.6747,6.6747,0,0,0,.5874.6509,1.5515,1.5515,0,0,0,.1907.1553.5057.5057,0,0,0,.0552.0337l.0194.0108-.0185-.0122a.5083.5083,0,0,1-.0523-.0376,1.7916,1.7916,0,0,1-.1781-.1666,7.53,7.53,0,0,1-.55-.6764c-.2154-.29-.458-.6346-.713-1.0074-.1281-.186-.2573-.3805-.39-.5771s-.2655-.3977-.3979-.5992-.2648-.4029-.395-.6012l-.3809-.5836c-.2465-.3791-.4766-.7329-.6739-1.0361l-.4782-.7322Z" style="fill:#6d2655"/><path d="M74.1253,127.5525l.0475.0432c.0311.0282.076.07.1346.1221.1169.104.2836.2531.4879.427s.4422.377.7016.5893c.13.1056.2624.2176.4007.3264l.4182.3315c.1407.11.2818.22.4224.3262s.2794.21.4135.31c.0675.05.1323.1007.1985.1469l.1932.1365c.1255.0891.2448.1722.3551.2487.0554.0377.107.076.1588.1088l.1468.0932.239.1506.2094.129-.1961-.1488-.2262-.1682c-.0877-.0644-.1866-.1369-.2916-.22s-.22-.1716-.342-.2645-.25-.1916-.3814-.2956-.267-.2112-.4064-.3181-.28-.2177-.4195-.3288c-.2814-.22-.563-.44-.8268-.6459-.1325-.1025-.26-.2017-.3818-.2958s-.2361-.183-.3424-.2645c-.2129-.1631-.3905-.2986-.5158-.3924Z" style="fill:#6d2655"/><path d="M65.6107,149.7722a.1688.1688,0,0,1,.0274.0677.0421.0421,0,0,1-.03.06.1533.1533,0,0,1-.1381.013l-.2176-.0609a.0748.0748,0,0,1-.0536-.0345c-.0149-.0359.0261-.0677.0515-.0849a.227.227,0,0,1,.0774-.0379.17.17,0,0,1,.0674.0032c.0356.007.0716.0137.1068.0225A.2158.2158,0,0,1,65.6107,149.7722Z" style="fill:#9e5266"/></svg>