<svg id="Camada_1" data-name="Camada 1" xmlns="http://www.w3.org/2000/svg" viewBox="0 0 150 150"><path d="M70.79,62.5921a34.6271,34.6271,0,0,0-4.85.5,43.72,43.72,0,0,0-10.54,3.27c.02-.04.05-.09.07-.13-.07.06-.14.13-.21.19-.22.1-.43.2-.64.31a1.0043,1.0043,0,0,1-1.03-1.56,7.3548,7.3548,0,0,1,1.99-2.18c-1.27.47-2.55.92-3.83,1.33a.9686.9686,0,0,1-1.33-.96,1.3168,1.3168,0,0,1,.8-1.26c.06-.02.12-.05.19-.07a1.2426,1.2426,0,0,1,.74-2.1c.35-.06.7-.11,1.06-.15a1.4283,1.4283,0,0,1,.04-.41c-1.16-.01-2.31-.02-3.46-.06a1.1984,1.1984,0,0,1,.04-2.39c.49-.02.97-.04,1.46-.05l-.27-.09a1.1849,1.1849,0,0,1-.76-.96,1.113,1.113,0,0,1,1.09-1.42c.46.02.88.04,1.33.08a.8317.8317,0,0,1,.54.25,1.01,1.01,0,0,1,.82-.16c.47.11.94.26,1.41.41-1.19-.52-2.36-1.06-3.49-1.66-.87-.46-.47-1.88.36-2.09a1.9413,1.9413,0,0,1-1.15-1.03,1.2892,1.2892,0,0,1,.45-1.62c.06-.04.12-.09.18-.13a1.0254,1.0254,0,0,1,1.09-.06c.07.04.14.08.2.12a1.0894,1.0894,0,0,1,.45.56c.36.1.9.2,1.3.29-.37-.25-.74-.5-1.12-.75a1.1443,1.1443,0,0,1,1.11-1.98,20.6408,20.6408,0,0,1,2.92,1.5,6.2671,6.2671,0,0,0-.9-.95c-1.31-1.05,1.34-3.31,1.97-1.27a2.7571,2.7571,0,0,0,.6.96.874.874,0,0,1,.29.09,10.5165,10.5165,0,0,1-.62-1.01,1.1557,1.1557,0,0,1,1.73-1.44,17.4385,17.4385,0,0,1,3.68,4.55,25.9367,25.9367,0,0,0-1.54-4.1,1.2351,1.2351,0,0,1,.46-1.56c2.27,4.5,3.98,11.49,3.64,13.56-.47,2.79,3.71,5.62,3.71,5.62C70.78,62.5821,70.78,62.5921,70.79,62.5921Z" style="fill:#524870"/><path d="M91.05,86.5721c-.39.25-.78.5-1.13.75l-.01.01c-.07.04-.13.09-.19.13a73.0562,73.0562,0,0,0-8.16-.28,61.25,61.25,0,0,0-25.54,6.07,69.3844,69.3844,0,0,0-7.45,4.17c-.48.31-.66.62-.66.92a10.0435,10.0435,0,0,1-1.62.07,8.7028,8.7028,0,0,1-4.43-1.27,28.4617,28.4617,0,0,1,7.37-6.88c.38-.24.78-.47,1.18-.68a77.9236,77.9236,0,0,1,33.78-7.81c.53,0,1.06.01,1.59.02h.13a9.542,9.542,0,0,1-3.41,4.45l-.01.01a73.9654,73.9654,0,0,1,8.34.3C90.9,86.5621,90.98,86.5621,91.05,86.5721Z" style="fill:#2b3e66"/><path d="M86.18,77.4221a8.0126,8.0126,0,0,1-.27,4.37h-.13c-.53-.01-1.06-.02-1.59-.02a77.9236,77.9236,0,0,0-33.78,7.81c-.4.21-.8.44-1.18.68a28.4617,28.4617,0,0,0-7.37,6.88,8.4655,8.4655,0,0,1-3.81-5.14,16.8928,16.8928,0,0,1-.24-2.33,42.3463,42.3463,0,0,1,7.24-5.38c.72-.43,1.45-.84,2.2-1.23.19-.1.37-.19.56-.29.18-.09.37-.19.56-.28.75-.37,1.52-.73,2.3-1.07.23-.1.46-.2.69-.29.26-.12.53-.23.8-.33.29-.12.58-.23.87-.34.33-.12.67-.25,1-.37.04-.02.08-.03.12-.05.46-.16.93-.32,1.39-.48l.09-.03c.34-.11.68-.22,1.02-.32.41-.13.82-.25,1.23-.37.42-.12.83-.24,1.25-.35.47-.13.95-.25,1.43-.37.36-.09.73-.18,1.09-.26.49-.12.98-.23,1.48-.33.36-.08.72-.15,1.08-.22.86-.17,1.72-.32,2.59-.47,1.73-.29,3.47-.53,5.23-.72h.03c.89-.1,1.77-.18,2.66-.26.03,0,.06-.01.09-.01.86-.07,1.72-.14,2.58-.19.9-.06,1.79-.11,2.68-.15.59-.03,1.17-.05,1.75-.07.47-.02.93-.03,1.4-.04.62-.02,1.23-.03,1.84-.03.12-.01.25-.01.37-.01A8.9727,8.9727,0,0,1,86.18,77.4221Z" style="fill:#7f7fc9"/><path d="M85.43,75.3621c-.12,0-.25,0-.37.01-.61,0-1.22.01-1.84.03-.47.01-.93.02-1.4.04-.58.02-1.16.04-1.75.07-.89.04-1.78.09-2.68.15-.86.05-1.72.12-2.58.19-.03,0-.06.01-.09.01-.89.08-1.77.16-2.66.26h-.03c-1.75.2-3.5.44-5.23.72-.87.15-1.73.3-2.59.47-.36.07-.72.14-1.08.22-.5.1-.99.21-1.48.33-.36.08-.73.17-1.09.26-.48.12-.96.24-1.43.37-.42.11-.83.23-1.25.35-.41.12-.82.24-1.23.37-.34.1-.68.21-1.02.32l-.09.03c-.46.16-.93.32-1.39.48-.04.02-.08.03-.12.05-.33.12-.67.25-1,.37-.29.11-.58.22-.87.34-.27.1-.54.21-.8.33-.23.09-.46.19-.69.29-.78.34-1.55.7-2.3,1.07-.19.09-.38.19-.56.28-.19.1-.37.19-.56.29-.75.39-1.48.8-2.2,1.23a42.3463,42.3463,0,0,0-7.24,5.38,19.529,19.529,0,0,1,2.52-10.07q2.325-1.71,4.79-3.23a73.7153,73.7153,0,0,1,31.46-10.39C80.78,68.9621,83.97,72.4821,85.43,75.3621Z" style="fill:#2b3e66"/><path d="M76.58,65.9821a73.7153,73.7153,0,0,0-31.46,10.39q-2.46,1.515-4.79,3.23a27.8642,27.8642,0,0,1,5.54-6.98,36.0468,36.0468,0,0,1,8.75-5.89c.21-.11.42-.21.64-.31.05-.02.09-.04.14-.06a43.72,43.72,0,0,1,10.54-3.27,34.6271,34.6271,0,0,1,4.85-.5A37.4033,37.4033,0,0,1,76.58,65.9821Z" style="fill:#7f7fc9"/><path d="M90.83,86.5521a7.6916,7.6916,0,0,0-.91.77l-.01.01a1.6753,1.6753,0,0,0-.13.14.128.128,0,0,0-.06-.01,73.0562,73.0562,0,0,0-8.16-.28,14.8712,14.8712,0,0,0-2.24,5.27c-.24.02-.48.03-.72.05a56.3264,56.3264,0,0,0-11.44,2.01,59.8629,59.8629,0,0,0-8.3,3.04,69,69,0,0,0-6.23,3.18,4.298,4.298,0,0,1-4.43-.26c-.52-.57-1.69-1.28-1.91-2.06a.7447.7447,0,0,1-.04-.26c0-.32.19-.65.71-.98a74.95,74.95,0,0,1,7.94-4.45,65.4228,65.4228,0,0,1,27.59-6.47A73.9654,73.9654,0,0,1,90.83,86.5521Z" style="fill:#524870"/><path d="M81.41,54.662c-.87.28-1.73.54-2.6.79a.9887.9887,0,0,1,.22,1.16c.57,0,1.14,0,1.71.03a1.0679,1.0679,0,0,1,.22,2.08c.8.47.33,1.91-.67,2.08a16.1208,16.1208,0,0,1-4.23.08c.89.38,1.77.78,2.64,1.19a.8841.8841,0,0,1,.53,1.04,43.9081,43.9081,0,0,0-8.44-.52c-.01,0-.01-.01-.02-.01,0,0-4.18-2.83-3.71-5.62.34-2.07-1.37-9.06-3.64-13.56a.9526.9526,0,0,1,1.53.28c.16.33.3.67.44,1a1.1513,1.1513,0,0,1,1.98.37c.18.71.32,1.44.45,2.19.18-1.37.38-2.74.67-4.09a1.1049,1.1049,0,1,1,2.16.46c-.17,1.12-.33,2.25-.48,3.37a10.5183,10.5183,0,0,1,1.5-2.56c.82-1,1.99-.02,1.83,1a8.4653,8.4653,0,0,1-.58,1.92,13.0369,13.0369,0,0,0,2.27-2.36,1.0883,1.0883,0,0,1,1.58-.08,1.2269,1.2269,0,0,1-.05,1.64l-.24.3a1.1251,1.1251,0,0,1,.46,1.6c.1-.07.19-.14.28-.21,1.2-.84,2.09.97,1.01,1.85-.62.5-1.22,1.02-1.83,1.53a7.4774,7.4774,0,0,1,3.24-.79.885.885,0,0,1,.29.04,1.12,1.12,0,0,1,.64,1.5c.19-.03.39-.07.58-.1C82.51,52.0921,82.7,54.2621,81.41,54.662Z" style="fill:#39395b"/><path d="M89.17,65.7921a77.8369,77.8369,0,0,0-12.59.19,37.4033,37.4033,0,0,0-5.79-3.39,43.9081,43.9081,0,0,1,8.44.52A46.8346,46.8346,0,0,1,89.17,65.7921Z" style="fill:#4d5377"/><path d="M94.5,68.3821a38.1482,38.1482,0,0,0-5.33-2.59,77.8369,77.8369,0,0,0-12.59.19c4.2,2.98,7.39,6.5,8.85,9.38,3.67-.04,7.31.03,10.88.17.2.01.4.01.6.02a32.8687,32.8687,0,0,1,5.76.7A21.2523,21.2523,0,0,0,94.5,68.3821Z" style="fill:#2a2a56"/><path d="M103.95,79.9921a12.2,12.2,0,0,0-1.28-3.74,32.8687,32.8687,0,0,0-5.76-.7c-.2-.01-.4-.01-.6-.02-3.57-.14-7.21-.21-10.88-.17a8.9727,8.9727,0,0,1,.75,2.06,8.0126,8.0126,0,0,1-.27,4.37c.35.01.7.02,1.05.04.31.01.62.03.93.05.14,0,.28.01.41.02.4.02.8.05,1.2.08.39.03.79.07,1.18.11.23.02.47.04.7.07.32.03.64.07.96.11,1.02.12,2.03.27,3.04.45a54.0634,54.0634,0,0,1,8.24,2.1A10.4522,10.4522,0,0,0,103.95,79.9921Z" style="fill:#4d5377"/><path d="M95.38,82.722c-1.01-.18-2.02-.33-3.04-.45-.32-.04-.64-.08-.96-.11-.23-.03-.47-.05-.7-.07-.39-.04-.79-.08-1.18-.11-.4-.03-.8-.06-1.2-.08-.13-.01-.27-.02-.41-.02-.31-.02-.62-.04-.93-.05-.35-.02-.7-.03-1.05-.04a9.542,9.542,0,0,1-3.41,4.45l-.01.01a73.9654,73.9654,0,0,1,8.34.3c.07.01.15.01.22.02h.01q3.765.345,7.73,1.06c.93.17,1.13.71,1.03,1.35a2.5731,2.5731,0,0,1-.11.44,7.2377,7.2377,0,0,0,3.91-4.6A54.0634,54.0634,0,0,0,95.38,82.722Z" style="fill:#2a2a56"/><path d="M98.79,87.6321q-3.96-.72-7.73-1.06h-.01c-.07-.01-.15-.01-.22-.02a73.9654,73.9654,0,0,0-8.34-.3,4.8173,4.8173,0,0,0-.93.93,14.8712,14.8712,0,0,0-2.24,5.27,62.0764,62.0764,0,0,1,8.17.06,70.6272,70.6272,0,0,1,7.12.85c1.93-.26,3.77-1.05,4.07-1.76a20.7249,20.7249,0,0,0,1.03-2.18,2.5731,2.5731,0,0,0,.11-.44C99.92,88.3421,99.72,87.8021,98.79,87.6321Z" style="fill:#39395b"/></svg>