<svg id="Camada_1" data-name="Camada 1" xmlns="http://www.w3.org/2000/svg" viewBox="0 0 150 150"><path d="M99.59,78.5608c-.15-.3058-.29-.6117-.45-.9088a20.918,20.918,0,0,0-3.33-4.6055A21.2063,21.2063,0,0,0,91,69.3236a20.9789,20.9789,0,0,0-7.48-3.4869c-.41-.0961-.85-.1835-1.3-.2709-.22-.0437-.43-.0787-.66-.1136-.38-.0612-.78-.1136-1.19-.166h-.01a38.7756,38.7756,0,0,0-5.69-.1836h-.13c-.14.0088-.28.0088-.42.0088-1.36.0612-2.65.166-3.85.2971h-.02c-.84.0961-1.64.21-2.4.3321a22.9755,22.9755,0,0,0-9.62,3.583,20.87,20.87,0,0,0-8.06,8.18c-.22.3845-.41.7865-.6,1.1885-.01,1.58.029,3.16.0589,4.7485-.0282-1.5836-.0705-3.1715-.0611-4.7457a30.65,30.65,0,0,0-1.9286,5.257c.6872-.12,1.3465-.2779,1.9908-.4569v.0036c5.34-1.4856,9.38-4.8065,14.95-6.6417,3.59-1.1011,7.79-1.1011,11.98-.7341,4.74.5855,8.83,2.2547,12.86,3.8364a45.4473,45.4473,0,0,0,10.21,3.0675q.855.1179,1.74.1835A29.2067,29.2067,0,0,0,99.59,78.5608Z" style="fill:#ddaf73"/><path d="M102.58,88.4622c-1.01-.1835-2.01-.4195-3.01-.69-4.54-1.241-8.99-3.2684-13.5-5.0075A55.6985,55.6985,0,0,0,77.76,80.16a27.875,27.875,0,0,0-17.38,2.9276c-3.33,1.5992-6.94,3.7141-10.79,5.4182-1.04.4544-2.09.8826-3.17,1.2584a58.25,58.25,0,0,1,1.22-5.8115c.69-.1223,1.35-.28,1.99-.4544,5.34-1.4856,9.38-4.8065,14.95-6.6417,3.59-1.1011,7.79-1.1011,11.98-.7341,4.74.5855,8.83,2.2547,12.86,3.8364a45.4473,45.4473,0,0,0,10.21,3.0675q.855.1179,1.74.1835A52.3322,52.3322,0,0,1,102.58,88.4622Z" style="fill:#b76b5a"/><path d="M85.59,62.3062c-.34-.0175-.69-.0438-1.03-.07l.18.0525c.75.2359.51,1.1273-.47,1.0224-.32-.0349-.62-.07-.93-.1223a.5571.5571,0,0,1-.35-.14,1.0708,1.0708,0,0,1-.6.0175c-.32-.0787-.64-.1748-.95-.271.79.3059,1.55.62,2.29.9526.56.2621.14.8564-.47.9a1.1071,1.1071,0,0,1,.71.5244c.12.2621-.05.5243-.45.6641-.41-.0961-.85-.1835-1.3-.2709l-.03-.0524c-.25-.0612-.61-.14-.88-.21.08.0524.17.0961.25.1485a32.8687,32.8687,0,0,0-5.22-.3758c-.54,0-1.09.0088-1.67.0262-.06-.0961-.13-.1835-.19-.28.02.0961.04.1835.06.28-.14.0088-.28.0088-.42.0088-1.36.0612-2.65.166-3.85.2971,0-.0087.01-.0175.01-.0349a.1241.1241,0,0,1-.03.0349c-.84.0961-1.64.21-2.4.3321a3.7228,3.7228,0,0,1,.53-.6991,9.7228,9.7228,0,0,0-1.83.8913,1.1044,1.1044,0,0,1-1.12-.0611c-.27-.2272-.13-.5156.19-.7166.07-.0437.14-.0787.21-.1136-.37-.1486-.48-.4807-.17-.7341a1.98,1.98,0,0,0-.21.07c-.93.2884-1.38-.5593-.53-.8739.49-.1835.96-.3671,1.44-.5593a8.172,8.172,0,0,1-2.36.14c-.61-.0524-.73-.4631-.49-.7341-.14,0-.28.0088-.42.0088-.98-.0088-.89-.9788.05-1.0749.41-.035.82-.0787,1.22-.1137.23-.0174.46-.0436.69-.07a.3144.3144,0,0,1-.03-.5157c-.4-.0349-.81-.0786-1.2-.1223-.83-.1049-.73-.8739.05-.9264-.51-.2621-.03-.8651.69-.8739a18.3011,18.3011,0,0,1,2.98.236c-.59-.2272-1.17-.4544-1.74-.69-.83-.3408.17-1.11,1-.8214.57.2009,1.13.4107,1.69.62-.28-.2272-.55-.4631-.81-.6991-.45-.4107.31-.8739.92-.7428a1.2054,1.2054,0,0,1-.75-.7691c-.27-.7865,1.06-.9,1.69-.533,1.4.83,1.17.97,2.16,2.01a9.5229,9.5229,0,0,0-.93-1.6953c-.31-.4545.46-.804,1.06-.7079-.06-.0874-.11-.166-.17-.2447-.14-.201-.03-.402.19-.5418a1.1235,1.1235,0,0,1,1.26-.0175,7.0789,7.0789,0,0,1,1.58,2.2634c.01-.0175.01-.0349.02-.0524a.9435.9435,0,0,1,.81-.4807c0-.3408,0-.6816.03-1.0224.04-.472,1.29-.62,1.46-.1661a5.5158,5.5158,0,0,1,.34,1.5031c.03-.0436.05-.0873.08-.1223a1.0972,1.0972,0,0,1,1.54-.0262,9.7239,9.7239,0,0,0,.35-.9351c.15-.4806,1.25-.5243,1.33-.0437a3.152,3.152,0,0,1-.45,2.1149.7892.7892,0,0,1,.22.0524c.26.0787.37.2272.37.3933.34-.2273.68-.4719,1.02-.7254.58-.4545,1.86-.0786,1.37.4632a7.1943,7.1943,0,0,1-.62.5767l.18-.0786c.73-.2971,1.63.1748,1.04.6642a5.5449,5.5449,0,0,1-1.62.83c.94-.1311,1.88-.2447,2.83-.3409a1.2531,1.2531,0,0,1,.5.0438c.54.1835.45.8215-.35.9613-.05.0087-.1.0174-.14.0262.41.2883.09.8477-.74.8652-.25.0087-.5.0087-.76.0087a.4816.4816,0,0,1-.07.1747c.82.0787,1.63.1573,2.43.2448C86.88,61.3711,86.66,62.376,85.59,62.3062Z" style="fill:#b76b5a"/><path d="M105.29,105.2587c.13.0961.26.1835.39.2709-.42.07-.66.4282-.26.62.16.0787.34.1485.51.2272-10.92-2.9626-9.96-22.1361-31.32-22.1361a24.5614,24.5614,0,0,0-9.54,1.7216,22.8968,22.8968,0,0,0-9.58,7.9089c-3.93,5.2-6.5,10.8714-11.99,12.4532.13-.0525.27-.1136.39-.1748.4-.1923.17-.5506-.25-.62.13-.0874.26-.1748.38-.2709.29-.21.06-.4282-.28-.5068a.9837.9837,0,0,0-.77.1048,11.736,11.736,0,0,1-1.63,1.0137,5.4526,5.4526,0,0,0,1.34-1.6167,9.5863,9.5863,0,0,0,1.13-1.9575c1.42-3.2073,1.83-7.7341,2.61-12.5319,1.08-.3758,2.13-.804,3.17-1.2584,3.85-1.7041,7.46-3.819,10.79-5.4182A27.875,27.875,0,0,1,77.76,80.16a55.6985,55.6985,0,0,1,8.31,2.6042c4.51,1.7391,8.96,3.7665,13.5,5.0075,1,.2709,2,.5069,3.01.69,1.18,6.5892,1.42,12.8551,4.25,16.15.06.0874.13.1748.19.2622a7.59,7.59,0,0,0,.96.9962,12.4831,12.4831,0,0,1-1.64-1.0137C105.85,104.4984,104.8,104.9,105.29,105.2587Z" style="fill:#ddaf73"/><path d="M45.577,106.2749a.859.859,0,0,0-.5245-.0634c-.1857.0274-.3694.06-.554.09q-.7869.129-1.5642.28c.1953-.0814.3764-.1681.5631-.2528.1316-.06.2717-.1166.3972-.1784.3978-.1963.1616-.5517-.2557-.6238.13-.0883.2606-.1762.3848-.2672.4963-.3633-.5563-.76-1.049-.3987a12.8352,12.8352,0,0,1-1.6395,1.0121,5.5319,5.5319,0,0,0,1.3479-1.6215c.0122-.0254.03-.0506.0418-.0759.1569-.3541-.6624-.6381-1.0725-.3025-.1255.1026-.2364.2107-.3478.3187a.1759.1759,0,0,0-.02-.0966,1.0655,1.0655,0,0,1,.3295-.3061c.8458-.4621-.818-.9216-1.04-.3938a1.7,1.7,0,0,1-.2595.392,4.0133,4.0133,0,0,0,.0841-1.0556c-.029-.4254-1.0788-.4768-1.1939-.0465-.0385.1438-.0788.2837-.1179.4256-.0459-.1274-.1116-.2968-.1454-.4157a.3415.3415,0,0,0,.1736-.2062l.0148-.076c.022-.1149-.09-.2482-.2686-.3089L38.76,102.07a1.02,1.02,0,0,0-.8766.0922.4885.4885,0,0,0-.2439.4779c-.283-.2131-1.0576-.1317-1.0889.1835a9.9317,9.9317,0,0,0-.0389,1.2413,3.8506,3.8506,0,0,0-.11-.4659.38.38,0,0,0-.2545-.2165.1676.1676,0,0,0,0-.1889c-.0785-.1357-.1583-.2636-.2514-.3964-.2891-.4119-1.2785-.1433-1.2188.2319.0047.03.013.06.0181.09-.1134-.1394-.2252-.2794-.3416-.418-.36-.4276-1.4556-.1071-1.1627.32.232.3384.4785.6742.727,1.01a1.4415,1.4415,0,0,0-.2056.0451c-.0986-.097-.1978-.1938-.306-.285-.3578-.3016-1.045-.2-1.1711.0727-.0266-.0141-.0517-.0294-.0785-.0435-.5786-.3046-1.4793.1068-.95.46.4742.316.9684.6244,1.4734.9284a5.7129,5.7129,0,0,0-1.483-.2787c-.7244-.029-.8371.5011-.2446.6572.0473.0126.0959.0231.1441.0343-.2752-.008-.5511-.0091-.8271.0022-.7371.03-.6012.66.0813.6994.3957.0226.7716.0537,1.1395.09-.1634.0687-.27.168-.2518.2976a.2492.2492,0,0,0,.0434.1008,8.529,8.529,0,0,0-1.8018.4594c.2481.19.5129.3705.7912.5427.12-.026.2415-.0577.3616-.0815a.236.236,0,0,0-.0988.2427c.1959.1135.4.2211.6087.325a1.179,1.179,0,0,0,.1275,0c.0522-.0045.104-.01.156-.0151-.0546.0242-.1034.0513-.157.076a13.2173,13.2173,0,0,0,7.5386,1.1192,12.3426,12.3426,0,0,0,5.7094-2.23c-.3064-.0193-.6214-.0287-.9467-.0226.421-.0808.845-.1594,1.2689-.2382.1546-.0287.3076-.0584.4628-.0868C45.8416,106.804,45.8866,106.435,45.577,106.2749Z" style="fill:#b76b5a"/><path d="M120.3407,107.4907a7.8479,7.8479,0,0,0-2.306-.6789.25.25,0,0,0,.0433-.1008c.0185-.13-.0884-.2289-.2519-.2976.3679-.0366.7439-.0677,1.14-.09.6824-.0389.8183-.6695.0813-.6994-.2759-.0113-.5519-.01-.827-.0022.048-.0112.0966-.0217.144-.0343.5925-.1561.48-.6862-.2446-.6572a5.7129,5.7129,0,0,0-1.483.2787c.5049-.304.9992-.6124,1.4733-.9284.53-.3531-.371-.7645-.95-.46-.0268.0141-.0519.0294-.0784.0435-.1262-.2722-.8134-.3743-1.1712-.0727-.1082.0912-.2074.188-.3059.285a1.446,1.446,0,0,0-.2057-.0451c.2485-.3354.495-.6712.7271-1.01.2928-.4273-.8034-.7478-1.1628-.32-.1164.1386-.2282.2786-.3416.418.005-.03.0134-.06.0181-.09.06-.3752-.93-.6438-1.2187-.2319-.0932.1328-.1731.2607-.2516.3964a.1676.1676,0,0,0,0,.1889.38.38,0,0,0-.2545.2165,3.8319,3.8319,0,0,0-.11.4659,9.97,9.97,0,0,0-.0387-1.2413c-.0315-.3152-.8061-.3966-1.089-.1835a.4887.4887,0,0,0-.2441-.4779,1.02,1.02,0,0,0-.8767-.0922l-.1007.0343c-.1782.0607-.2906.194-.2685.3089l.0146.076a.3414.3414,0,0,0,.1737.2062c-.0338.1189-.1.2883-.1454.4157-.0391-.1419-.0794-.2818-.1179-.4256-.1151-.43-1.165-.3789-1.1939.0465a4.0049,4.0049,0,0,0,.0842,1.0556,1.6937,1.6937,0,0,1-.26-.392c-.2222-.5278-1.886-.0683-1.04.3938a1.0641,1.0641,0,0,1,.3294.3061.1758.1758,0,0,0-.02.0966c-.1114-.108-.2223-.2161-.3478-.3187-.41-.3356-1.2293-.0516-1.0725.3025a3.0624,3.0624,0,0,0,.2384.4322,6.5581,6.5581,0,0,0,1.1513,1.2652,12.8352,12.8352,0,0,1-1.6395-1.0121c-.4927-.3617-1.5453.0354-1.0492.3987.1243.091.255.1789.385.2672-.4173.0721-.6535.4275-.2556.6238.16.0789.3369.152.5067.2276.1521.0676.2962.1381.4536.2036-.505-.0987-1.0153-.1867-1.5269-.27-.0856-.0139-.1695-.0317-.2553-.0452-.1122-.0177-.2235-.0381-.3361-.0547-.8051-.1188-1.0029.5533-.2506.6914q.8207.15,1.6318.3062c.0332.0064.0668.0124.1.0188-.0274-.0006-.0534.0013-.0808.0009a10.857,10.857,0,0,0,.8557.7851c2.9378,1.7972,6.7643,2.0689,10.3178,1.3536-.0789-.0574-.1541-.1161-.2363-.1723l.0585.0114a1.0726,1.0726,0,0,0,.8108-.1117c.0708.0288.1442.0545.2154.083.4229-.1051.8408-.2232,1.251-.3551a10.6462,10.6462,0,0,0-1.0478-.5379c.0521.0046.1038.0106.156.0151.6315.0542.9217-.3472.6373-.5676q.5373.1065,1.0777.2431C120.3062,108.113,120.793,107.7145,120.3407,107.4907Z" style="fill:#8e4d4d"/><path d="M85.59,62.3062c-.34-.0175-.69-.0438-1.03-.07l.18.0525c.75.2359.51,1.1273-.47,1.0224-.32-.0349-.62-.07-.93-.1223a.5571.5571,0,0,1-.35-.14,1.0708,1.0708,0,0,1-.6.0175c-.32-.0787-.64-.1748-.95-.271.79.3059,1.55.62,2.29.9526.56.2621.14.8564-.47.9a1.1071,1.1071,0,0,1,.71.5244c.12.2621-.05.5243-.45.6641-.41-.0961-.85-.1835-1.3-.2709l-.03-.0524c-.25-.0612-.61-.14-.88-.21.08.0524.17.0961.25.1485a32.8687,32.8687,0,0,0-5.22-.3758v-.367s1.2-.3933,1.66-3.3471c.35-2.3071-4.94-5.1036-6.15-7.28a1.1235,1.1235,0,0,1,1.26-.0175,7.0789,7.0789,0,0,1,1.58,2.2634c.01-.0175.01-.0349.02-.0524a.9435.9435,0,0,1,.81-.4807c0-.3408,0-.6816.03-1.0224.04-.472,1.29-.62,1.46-.1661a5.5158,5.5158,0,0,1,.34,1.5031c.03-.0436.05-.0873.08-.1223a1.0972,1.0972,0,0,1,1.54-.0262,9.7239,9.7239,0,0,0,.35-.9351c.15-.4806,1.25-.5243,1.33-.0437a3.152,3.152,0,0,1-.45,2.1149.7892.7892,0,0,1,.22.0524c.26.0787.37.2272.37.3933.34-.2273.68-.4719,1.02-.7254.58-.4545,1.86-.0786,1.37.4632a7.1943,7.1943,0,0,1-.62.5767l.18-.0786c.73-.2971,1.63.1748,1.04.6642a5.5449,5.5449,0,0,1-1.62.83c.94-.1311,1.88-.2447,2.83-.3409a1.2531,1.2531,0,0,1,.5.0438c.54.1835.45.8215-.35.9613-.05.0087-.1.0174-.14.0262.41.2883.09.8477-.74.8652-.25.0087-.5.0087-.76.0087a.4816.4816,0,0,1-.07.1747c.82.0787,1.63.1573,2.43.2448C86.88,61.3711,86.66,62.376,85.59,62.3062Z" style="fill:#8e4d4d"/><path d="M102.58,88.4622c-1.01-.1835-2.01-.4195-3.01-.69-4.54-1.241-8.99-3.2684-13.5-5.0075a6.1378,6.1378,0,0,0,3.35-2.8053,45.4473,45.4473,0,0,0,10.21,3.0675q.855.1179,1.74.1835A52.3322,52.3322,0,0,1,102.58,88.4622Z" style="fill:#9e5151"/><path d="M80.37,65.2862c.41.0524.81.1048,1.19.166.23.0349.44.07.66.1136.45.0874.89.1748,1.3.2709A20.9789,20.9789,0,0,1,91,69.3236a21.2063,21.2063,0,0,1,4.81,3.7229,20.918,20.918,0,0,1,3.33,4.6055c.16.2971.3.603.45.9088a29.2067,29.2067,0,0,1,1.78,4.6492q-.885-.0655-1.74-.1835A45.4473,45.4473,0,0,1,89.42,79.959c1.68-4.1947-2.9-10.9063-2.9-10.9063S85.12,67.1738,80.37,65.2862Z" style="fill:#b27e5b"/><path d="M105.29,105.2587c.13.0961.26.1835.39.2709-.42.07-.66.4282-.26.62.16.0787.34.1485.51.2272-10.92-2.9626-9.96-22.1361-31.32-22.1361a24.5614,24.5614,0,0,0-9.54,1.7216c2.99-1.7128,7.91-3.2334,15.71-2.7528a14.8537,14.8537,0,0,0,5.29-.4457c4.51,1.7391,8.96,3.7665,13.5,5.0075,1,.2709,2,.5069,3.01.69,1.18,6.5892,1.42,12.8551,4.25,16.15.06.0874.13.1748.19.2622a7.59,7.59,0,0,0,.96.9962,12.4831,12.4831,0,0,1-1.64-1.0137C105.85,104.4984,104.8,104.9,105.29,105.2587Z" style="fill:#b27e5b"/><path d="M55.49,93.8717c-3.93,5.2-6.5,10.8714-11.99,12.4532.13-.0525.27-.1136.39-.1748.4-.1923.17-.5506-.25-.62.13-.0874.26-.1748.38-.2709.29-.21.06-.4282-.28-.5068,0,0,4.34-2.5431,5.7-4.1774A50.1017,50.1017,0,0,1,55.49,93.8717Z" style="fill:#b27e5b"/></svg>