<svg id="Camada_1" data-name="Camada 1" xmlns="http://www.w3.org/2000/svg" viewBox="0 0 150 150"><defs><style>.cls-1{fill:#524870;}.cls-2{fill:#2b3e66;}.cls-3{fill:#7f7fc9;}.cls-4{fill:#39395b;}.cls-5{fill:#4d5377;}.cls-6{fill:#2a2a56;}</style></defs><path class="cls-1" d="M70.79,62.59a34.63,34.63,0,0,0-4.85.5A43.72,43.72,0,0,0,55.4,66.36l.07-.13-.21.19-.64.31a1,1,0,0,1-1-1.56,7.36,7.36,0,0,1,2-2.18c-1.27.47-2.55.92-3.83,1.33a1,1,0,0,1-1.33-1,1.32,1.32,0,0,1,.8-1.26l.19-.07a1.24,1.24,0,0,1,.74-2.1c.35-.06.7-.11,1.06-.15a1.43,1.43,0,0,1,0-.41c-1.16,0-2.31,0-3.46-.06a1.2,1.2,0,0,1,0-2.39l1.46-.05L51,56.78a1.18,1.18,0,0,1-.76-1,1.11,1.11,0,0,1,1.09-1.42c.46,0,.88,0,1.33.08a.83.83,0,0,1,.54.25,1,1,0,0,1,.82-.16c.47.11.94.26,1.41.41-1.19-.52-2.36-1.06-3.49-1.66-.87-.46-.47-1.88.36-2.09a1.94,1.94,0,0,1-1.15-1,1.29,1.29,0,0,1,.45-1.62l.18-.13a1,1,0,0,1,1.09-.06l.2.12a1.09,1.09,0,0,1,.45.56c.36.1.9.2,1.3.29l-1.12-.75a1.14,1.14,0,0,1,1.11-2,20.64,20.64,0,0,1,2.92,1.5,6.27,6.27,0,0,0-.9-1c-1.31-1,1.34-3.31,2-1.27a2.76,2.76,0,0,0,.6,1,.88.88,0,0,1,.29.09,10.52,10.52,0,0,1-.62-1,1.16,1.16,0,0,1,1.73-1.44,17.44,17.44,0,0,1,3.68,4.55A25.94,25.94,0,0,0,63,45a1.24,1.24,0,0,1,.46-1.56c2.27,4.5,4,11.49,3.64,13.56-.47,2.79,3.71,5.62,3.71,5.62Z"/><path class="cls-2" d="M91.05,86.57c-.39.25-.78.5-1.13.75h0l-.19.13a73.06,73.06,0,0,0-8.16-.28A61.25,61.25,0,0,0,56,93.25a69.4,69.4,0,0,0-7.45,4.17c-.48.31-.66.62-.66.92a10,10,0,0,1-1.62.07,8.7,8.7,0,0,1-4.43-1.27,28.46,28.46,0,0,1,7.37-6.88c.38-.24.78-.47,1.18-.68a77.92,77.92,0,0,1,33.78-7.81l1.59,0h.13a9.54,9.54,0,0,1-3.41,4.45h0a74,74,0,0,1,8.34.3Z"/><path class="cls-3" d="M86.18,77.42a8,8,0,0,1-.27,4.37h-.13l-1.59,0a77.92,77.92,0,0,0-33.78,7.81c-.4.21-.8.44-1.18.68a28.46,28.46,0,0,0-7.37,6.88A8.47,8.47,0,0,1,38.05,92a16.89,16.89,0,0,1-.24-2.33,42.35,42.35,0,0,1,7.24-5.38c.72-.43,1.45-.84,2.2-1.23l.56-.29.56-.28c.75-.37,1.52-.73,2.3-1.07l.69-.29c.26-.12.53-.23.8-.33l.87-.34,1-.37.12,0,1.39-.48.09,0,1-.32,1.23-.37,1.25-.35,1.43-.37,1.09-.26c.49-.12,1-.23,1.48-.33l1.08-.22c.86-.17,1.72-.32,2.59-.47,1.73-.29,3.47-.53,5.23-.72h0c.89-.1,1.77-.18,2.66-.26h.09c.86-.07,1.72-.14,2.58-.19l2.68-.15,1.75-.07,1.4,0,1.84,0h.37A9,9,0,0,1,86.18,77.42Z"/><path class="cls-2" d="M85.43,75.36h-.37l-1.84,0-1.4,0-1.75.07-2.68.15c-.86,0-1.72.12-2.58.19h-.09c-.89.08-1.77.16-2.66.26h0c-1.75.2-3.5.44-5.23.72-.87.15-1.73.3-2.59.47l-1.08.22c-.5.1-1,.21-1.48.33l-1.09.26-1.43.37-1.25.35-1.23.37-1,.32-.09,0L54.15,80l-.12,0-1,.37-.87.34c-.27.1-.54.21-.8.33l-.69.29c-.78.34-1.55.7-2.3,1.07l-.56.28-.56.29c-.75.39-1.48.8-2.2,1.23a42.35,42.35,0,0,0-7.24,5.38A19.53,19.53,0,0,1,40.33,79.6q2.33-1.71,4.79-3.23A73.72,73.72,0,0,1,76.58,66C80.78,69,84,72.48,85.43,75.36Z"/><path class="cls-3" d="M76.58,66A73.72,73.72,0,0,0,45.12,76.37q-2.46,1.51-4.79,3.23a27.86,27.86,0,0,1,5.54-7,36,36,0,0,1,8.75-5.89l.64-.31.14-.06a43.72,43.72,0,0,1,10.54-3.27,34.63,34.63,0,0,1,4.85-.5A37.41,37.41,0,0,1,76.58,66Z"/><path class="cls-1" d="M90.83,86.55a7.69,7.69,0,0,0-.91.77h0l-.13.14h-.06a73.06,73.06,0,0,0-8.16-.28,14.87,14.87,0,0,0-2.24,5.27l-.72,0a56.33,56.33,0,0,0-11.44,2,59.86,59.86,0,0,0-8.3,3,69,69,0,0,0-6.23,3.18,4.3,4.3,0,0,1-4.43-.26c-.52-.57-1.69-1.28-1.91-2.06a.75.75,0,0,1,0-.26c0-.32.19-.65.71-1a74.93,74.93,0,0,1,7.94-4.45,65.42,65.42,0,0,1,27.59-6.47A74,74,0,0,1,90.83,86.55Z"/><path class="cls-4" d="M81.41,54.66c-.87.28-1.73.54-2.6.79A1,1,0,0,1,79,56.61c.57,0,1.14,0,1.71,0A1.07,1.07,0,0,1,81,58.72c.8.47.33,1.91-.67,2.08a16.12,16.12,0,0,1-4.23.08c.89.38,1.77.78,2.64,1.19a.88.88,0,0,1,.53,1,43.91,43.91,0,0,0-8.44-.52h0S66.59,59.75,67.06,57c.34-2.07-1.37-9.06-3.64-13.56a1,1,0,0,1,1.53.28c.16.33.3.67.44,1a1.15,1.15,0,0,1,2,.37c.18.71.32,1.44.45,2.19.18-1.37.38-2.74.67-4.09a1.1,1.1,0,1,1,2.16.46c-.17,1.12-.33,2.25-.48,3.37a10.52,10.52,0,0,1,1.5-2.56c.82-1,2,0,1.83,1a8.47,8.47,0,0,1-.58,1.92A13,13,0,0,0,75.19,45a1.09,1.09,0,0,1,1.58-.08,1.23,1.23,0,0,1,0,1.64l-.24.3a1.13,1.13,0,0,1,.46,1.6l.28-.21c1.2-.84,2.09,1,1,1.85-.62.5-1.22,1-1.83,1.53a7.48,7.48,0,0,1,3.24-.79.88.88,0,0,1,.29,0,1.12,1.12,0,0,1,.64,1.5l.58-.1C82.51,52.09,82.7,54.26,81.41,54.66Z"/><path class="cls-5" d="M89.17,65.79A77.84,77.84,0,0,0,76.58,66a37.41,37.41,0,0,0-5.79-3.39,43.91,43.91,0,0,1,8.44.52A46.83,46.83,0,0,1,89.17,65.79Z"/><path class="cls-6" d="M94.5,68.38a38.16,38.16,0,0,0-5.33-2.59A77.84,77.84,0,0,0,76.58,66c4.2,3,7.39,6.5,8.85,9.38,3.67,0,7.31,0,10.88.17l.6,0a32.87,32.87,0,0,1,5.76.7A21.25,21.25,0,0,0,94.5,68.38Z"/><path class="cls-5" d="M104,80a12.2,12.2,0,0,0-1.28-3.74,32.87,32.87,0,0,0-5.76-.7l-.6,0c-3.57-.14-7.21-.21-10.88-.17a9,9,0,0,1,.75,2.06,8,8,0,0,1-.27,4.37l1,0,.93,0,.41,0,1.2.08,1.18.11.7.07,1,.11c1,.12,2,.27,3,.45a54.06,54.06,0,0,1,8.24,2.1A10.45,10.45,0,0,0,104,80Z"/><path class="cls-6" d="M95.38,82.72c-1-.18-2-.33-3-.45l-1-.11-.7-.07L89.5,82l-1.2-.08-.41,0-.93,0-1,0a9.54,9.54,0,0,1-3.41,4.45h0a74,74,0,0,1,8.34.3l.22,0h0q3.76.34,7.73,1.06c.93.17,1.13.71,1,1.35a2.57,2.57,0,0,1-.11.44,7.24,7.24,0,0,0,3.91-4.6A54.06,54.06,0,0,0,95.38,82.72Z"/><path class="cls-4" d="M98.79,87.63q-4-.72-7.73-1.06h0l-.22,0a74,74,0,0,0-8.34-.3,4.82,4.82,0,0,0-.93.93,14.87,14.87,0,0,0-2.24,5.27,62.08,62.08,0,0,1,8.17.06,70.63,70.63,0,0,1,7.12.85c1.93-.26,3.77-1,4.07-1.76a20.74,20.74,0,0,0,1-2.18,2.57,2.57,0,0,0,.11-.44C99.92,88.34,99.72,87.8,98.79,87.63Z"/></svg>