<svg xmlns="http://www.w3.org/2000/svg" viewBox="0 0 150 150"><g style="isolation:isolate"><g id="Camada_1" data-name="Camada 1"><path d="M100.2878,90.764v.01c.01.01.01.01,0,.02-.95-.32-1.9-.61-2.87-.86-1.29-.35-2.61-.64-3.92-.88h-.02c-.11-.03-.23-.05-.34-.07-.02-.48-.04-.95-.07-1.43,0-.07-.01-.14-.01-.21-.03-.41-.06-.82-.09-1.22-.08-.95-.18-1.91-.3-2.85v-.02c-.01-.11-.03-.23-.05-.34-.03-.24-.07-.49-.11-.74-.01-.1-.03-.21-.05-.32-.03-.25-.08-.51-.13-.76q-.12-.72-.27-1.44c-.15-.7-.31-1.4-.49-2.09-.08-.32-.17-.65-.27-.97q-.15-.54-.33-1.08a2.3175,2.3175,0,0,0-.12-.34c-.16-.51-.34-1.01-.54-1.51-.08-.19-.15-.39-.23-.58q-.105-.285-.24-.57c-.14-.33-.29-.65-.44-.97-.03-.07-.06-.13-.09-.2a28.8326,28.8326,0,0,1,4.12,4.55,37.0864,37.0864,0,0,1,2.8,4.4c.25.46.49.91.71,1.36a.317.317,0,0,0,.05.1,46.2693,46.2693,0,0,1,2.58,6.45C100.0278,89.624,100.2477,90.574,100.2878,90.764Z" style="fill:#91af68"/><path d="M70.1269,65.9545a21.3933,21.3933,0,0,0-3.5874.9645,27.0344,27.0344,0,0,0-3.601,3.3035c-4.5819,4.9553-6.4983,11.6748-8.005,18.2747-.179.7339-.5692,1.3722-.748,2.1061q-.037.26-.0741.5161c1.885-.3248,4.1751-.7016,6.7753-1.0933C62.0142,81.2071,64.0064,72.331,70.1269,65.9545Z" style="fill:#729b5f"/><path d="M70.1269,65.9545c-6.1205,6.3765-8.1127,15.2526-9.24,24.0716,1.68-.2535,3.4908-.5128,5.4057-.769.87-8.1484,1.4045-17.0427,6.4736-23.6133A23.031,23.031,0,0,0,70.1269,65.9545Z" style="fill:#91af68"/><path d="M73.8949,65.6007q-.5736.0084-1.1289.0431c-5.0691,6.5706-5.6031,15.4649-6.4736,23.6133,1.2342-.1657,2.5124-.3295,3.8272-.49a62.1455,62.1455,0,0,1,1.0348-10.25c.7628-4.43,1.0975-9.0129,3.1689-12.9183Q74.11,65.5985,73.8949,65.6007Z" style="fill:#68ad91"/><path d="M74.3233,65.5993c-2.0714,3.9054-2.4061,8.4879-3.1689,12.9183a62.1455,62.1455,0,0,0-1.0348,10.25c.3731-.045.7481-.09,1.1272-.1354,1.14-.1344,2.3035-.2511,3.4831-.3464.2444-7.52.8259-15.0594.8544-22.65Q74.9639,65.6021,74.3233,65.5993Z" style="fill:#578755"/><path d="M81.6877,88.004c-1.07,0-2.14.02-3.19.06.17-7.43.18-14.93-1.29-22.26v-.02c.37.04.73.1,1.09.17.22.03.43.07.64.11.01.01.01.03.02.04.15.34.29.69.42,1.03,1.32,3.48,1.63,7.27,1.94,10.99A81.419,81.419,0,0,1,81.6877,88.004Z" style="fill:#91af68"/><path d="M89.0978,88.404c-.98-.11-1.97-.19-2.96-.26a99.4483,99.4483,0,0,0-.99-10.17,2.0413,2.0413,0,0,0-.04-.26,36.942,36.942,0,0,0-3.37-10.82c-.01-.02-.02-.05-.03-.07a21.5854,21.5854,0,0,1,3.38,1.52c.02.04.05.08.07.12,2.74,4.59,3.49,9.92,3.77,15.3C89.0178,85.314,89.0577,86.8639,89.0978,88.404Z" style="fill:#578755"/><path d="M93.1378,88.984c-1.34-.24-2.69-.43-4.04-.58-.04-1.54-.08-3.09-.17-4.64-.28-5.38-1.03-10.71-3.77-15.3-.02-.04-.05-.08-.07-.12a23.9469,23.9469,0,0,1,4.22,3c.03.07.06.13.09.2.15.32.3.64.44.97q.1349.285.24.57c.08.19.15.39.23.58.2.5.38,1,.54,1.51a2.3175,2.3175,0,0,1,.12.34q.18.54.33,1.08c.1.32.19.65.27.97.18.69.34,1.39.49,2.09q.15.72.27,1.44c.05.25.1.51.13.76.02.11.04.22.05.32.04.25.08.49.11.74.02.11.04.23.05.34v.02c.12.94.22,1.9.3,2.85.03.4.06.81.09,1.22,0,.07.01.14.01.21C93.0978,88.034,93.1177,88.504,93.1378,88.984Z" style="fill:#729b5f"/><path d="M81.6877,88.004a81.419,81.419,0,0,0-.37-9.88c-.31-3.72-.62-7.51-1.94-10.99-.13-.34-.27-.69-.42-1.03-.01-.01-.01-.03-.02-.04a23.9439,23.9439,0,0,1,2.77.76c.01.02.02.05.03.07a36.942,36.942,0,0,1,3.37,10.82,2.0413,2.0413,0,0,1,.04.26,99.4483,99.4483,0,0,1,.99,10.17C84.6478,88.0539,83.1678,88.004,81.6877,88.004Z" style="fill:#68ad91"/><path d="M75.5843,65.6357c-.0285,7.5905-.61,15.13-.8544,22.65q1.8552-.15,3.7641-.2234c.1747-7.4414.18-14.9382-1.2874-22.2812Q76.4125,65.682,75.5843,65.6357Z" style="fill:#729b5f"/><path d="M48.3755,92.1793s2.1282-.4367,5.7359-1.06q.0366-.2568.0741-.5161c.1788-.7339.569-1.3722.748-2.1061,1.5067-6.6,3.4231-13.3194,8.005-18.2747A27.0344,27.0344,0,0,1,66.54,66.919C51.867,72.2849,48.3755,92.1793,48.3755,92.1793Z" style="fill:#578755"/><path d="M102.8578,88.534c-.95-.09-2.11-.21-3.29-.33-2.61-.28-5.38-.61-6.51-.86-.07-.02-.14-.03-.2-.05-.89-.23-2.47-1.83-3.93-3.53-1.79-2.08-3.42-4.29-3.42-4.29a14.4019,14.4019,0,0,0-.4-1.76,27.7268,27.7268,0,0,0-5.73-10.58c-.33-.38-.68-.77-1.05-1.15,0-.01-.01-.02-.03-.03.22.03.43.07.64.11a23.9439,23.9439,0,0,1,2.77.76,21.5854,21.5854,0,0,1,3.38,1.52,23.9469,23.9469,0,0,1,4.22,3,28.8326,28.8326,0,0,1,4.12,4.55,37.0864,37.0864,0,0,1,2.8,4.4c.25.46.49.91.71,1.36a.317.317,0,0,0,.05.1,23.4764,23.4764,0,0,1,2.58,1.57c1.53,1.07,2.33,1.91,2.63,2.11S102.7178,86.884,102.8578,88.534Z" style="fill:#578755;opacity:0.42;mix-blend-mode:darken"/><path d="M100.1847,87.98v.03h-.01C100.1747,88,100.1847,87.99,100.1847,87.98Z" style="fill:#353435"/><path d="M100.1847,87.98v.03h-.01C100.1747,88,100.1847,87.99,100.1847,87.98Z" style="fill:#563824"/><path d="M49.5677,97.794a3.836,3.836,0,0,1-1.69.46c-.63-.02-.65-.46-.65-.46l-.17-4.35-.01-.16-.03-.68-.22-5.58c-.02-.6.65-1.55,2-2.63-.01,2.09-.12,4.2-.1,6.29v.02c.01.47.02.95.04,1.41.01.24.02.48.04.72,0,.13.01.25.02.37a1.1019,1.1019,0,0,0,.02.18,20.5239,20.5239,0,0,0,.74,4.35A.1268.1268,0,0,0,49.5677,97.794Z" style="fill:#578755"/><path d="M53.9578,95.854c-1.79.71-3.21,1.37-4.18,1.84-.07.03-.14.07-.21.1a.1268.1268,0,0,1-.01-.06,20.5239,20.5239,0,0,1-.74-4.35,1.1019,1.1019,0,0,1-.02-.18c-.01-.12-.02-.24-.02-.37-.02-.24-.03-.48-.04-.72-.02-.46-.03-.94-.04-1.41v-.02c-.02-2.09.09-4.2.1-6.29a18.6428,18.6428,0,0,1,2.64-1.72h.01c.08-.05.16-.1.24-.14a37.6927,37.6927,0,0,0,.77,8.88c.06.25.12.51.19.77l.09.33c.01.05.03.09.04.14a20.6269,20.6269,0,0,0,.74,2.13,7.3706,7.3706,0,0,1,.42,1.03A.0753.0753,0,0,1,53.9578,95.854Z" style="fill:#729b5f"/><path d="M56.7778,94.8039c-1.02.35-1.97.7-2.82,1.05a.0753.0753,0,0,0-.02-.04,7.3706,7.3706,0,0,0-.42-1.03,20.6269,20.6269,0,0,1-.74-2.13c-.01-.05-.03-.09-.04-.14l-.09-.33c-.07-.26-.13-.52-.19-.77a37.6927,37.6927,0,0,1-.77-8.88,30.8937,30.8937,0,0,1,3.51-1.61c-.03,2.29-.22,4.66-.12,6.96v.01a19.795,19.795,0,0,0,.32,3,.8538.8538,0,0,0,.04.17c.05.26.1.52.17.77.02.08.04.15.06.23a11.9192,11.9192,0,0,0,1.09,2.71C56.7678,94.784,56.7678,94.794,56.7778,94.8039Z" style="fill:#91af68"/><path d="M60.6877,93.604c-1.4.38-2.71.79-3.91,1.2-.01-.01-.01-.02-.02-.03a11.9192,11.9192,0,0,1-1.09-2.71c-.02-.08-.04-.15-.06-.23-.07-.25-.12-.51-.17-.77a.8538.8538,0,0,1-.04-.17,19.795,19.795,0,0,1-.32-3v-.01c-.1-2.3.09-4.67.12-6.96.65-.25,1.33-.5,2.05-.74.4-.13.82-.26,1.24-.39a26.9872,26.9872,0,0,0,.94,9.93c.05.17.09.33.14.5a2.3657,2.3657,0,0,0,.07.25c.05.18.11.36.16.55.27.86.56,1.71.88,2.55C60.6777,93.584,60.6877,93.594,60.6877,93.604Z" style="fill:#68ad91"/><path d="M63.0278,92.994v.02c-.81.18-1.59.38-2.34.59,0-.01-.01-.02-.01-.03-.32-.84-.61-1.69-.88-2.55-.05-.19-.11-.37-.16-.55a2.3657,2.3657,0,0,1-.07-.25c-.05-.17-.09-.33-.14-.5a26.9872,26.9872,0,0,1-.94-9.93c1.16-.34,2.41-.66,3.75-.95a31.3008,31.3008,0,0,0-.32,4.74v.01a38.5423,38.5423,0,0,0,.41,5.36c.02.19.05.38.07.57.01.09.03.18.04.27l.09.57C62.6777,91.244,62.8378,92.124,63.0278,92.994Z" style="fill:#578755"/><path d="M65.5378,89.784c.07.89.16,1.77.3,2.65v.02c-.97.16-1.9.35-2.81.56v-.02c-.19-.87-.35-1.75-.5-2.63l-.09-.57c-.01-.09-.03-.18-.04-.27-.02-.19-.05-.38-.07-.57a38.5423,38.5423,0,0,1-.41-5.36v-.01a31.3008,31.3008,0,0,1,.32-4.74c.29-.06.59-.13.89-.18.88-.18,1.8-.34,2.75-.48a71.4124,71.4124,0,0,0-.42,10.13c0,.12.01.25.02.37,0,.23.02.45.03.68Z" style="fill:#729b5f"/><path d="M69.2578,89.254c.05.9.12,1.79.2,2.69-1.24.13-2.45.3-3.62.51v-.02c-.14-.88-.23-1.76-.3-2.65l-.03-.42c-.01-.23-.03-.45-.03-.68-.01-.12-.02-.25-.02-.37a71.4124,71.4124,0,0,1,.42-10.13c.61-.09,1.23-.17,1.86-.25.58-.06,1.18-.13,1.79-.18a60.6262,60.6262,0,0,0-.34,10.09.5647.5647,0,0,0,.01.13c.01.3.02.6.04.9C69.2477,89.004,69.2477,89.124,69.2578,89.254Z" style="fill:#91af68"/><path d="M72.8278,88.934c.03.92.08,1.85.14,2.77a.8618.8618,0,0,0-.16.01c-.54.02-1.08.04-1.61.08h-.02c-.58.04-1.15.08-1.72.15-.08-.9-.15-1.79-.2-2.69-.01-.13-.01-.25-.02-.38-.02-.3-.03-.6-.04-.9a.5647.5647,0,0,1-.01-.13,60.6262,60.6262,0,0,1,.34-10.09c.58-.05,1.17-.1,1.78-.14.72-.05,1.46-.08,2.21-.11a45.1139,45.1139,0,0,0-.73,10.12v.03q.0148.4049.03.81C72.8177,88.624,72.8177,88.774,72.8278,88.934Z" style="fill:#68ad91"/><path d="M76.9277,77.464c-.16,1.28-.29,2.55-.39,3.83-.06.8-.11,1.61-.15,2.42-.02.47-.04.93-.05,1.4-.01.18-.01.37-.01.56-.01.47-.02.95-.02,1.42v1.08a.0189.0189,0,0,0,0,.03.0854.0854,0,0,0,0,.07.17.17,0,0,0,0,.1,3.23,3.23,0,0,0,0,.44v.34c.01.37.02.74.03,1.12.01.48.03.96.05,1.45-.92-.04-1.82-.05-2.72-.03-.2-.01-.4,0-.61.01h-.09c-.06-.92-.11-1.85-.14-2.77-.01-.16-.01-.31-.01-.47q-.015-.405-.03-.81v-.03a45.1139,45.1139,0,0,1,.73-10.12c.56-.02,1.12-.03,1.7-.04Z" style="fill:#578755"/><path d="M80.1877,87.894c-.05,1.38-.14,2.76-.24,4.14-1.16-.15-2.31-.26-3.46-.31h-.1c-.02-.49-.04-.97-.05-1.45-.01-.38-.02-.75-.03-1.12v-.34c0-.15-.01-.29,0-.44a.17.17,0,0,1,0-.1.0854.0854,0,0,1,0-.07.0189.0189,0,0,1,0-.03c-.01-.2-.01-.4-.01-.6,0-.63.01-1.27.03-1.9,0-.19,0-.38.01-.56.01-.47.03-.93.05-1.4.04-.81.09-1.62.15-2.42.1-1.28.23-2.55.39-3.83,1.13.02,2.22.06,3.26.12C80.3677,81.024,80.3478,84.464,80.1877,87.894Z" style="fill:#729b5f"/><path d="M84.0878,92.754c-1.36-.29-2.75-.54-4.14-.72.1-1.38.19-2.76.24-4.14.16-3.43.18-6.87,0-10.31,1.27.07,2.48.18,3.63.32.16,3.58.21,7.17.25,10.77C84.0677,90.034,84.0778,91.394,84.0878,92.754Z" style="fill:#91af68"/><path d="M87.0978,89.654c-.08,1.25-.18,2.49-.31,3.73q-1.335-.345-2.7-.63c-.01-1.36-.02-2.72-.02-4.08-.04-3.6-.09-7.19-.25-10.77,1.05.13,2.05.28,3,.46A74.5425,74.5425,0,0,1,87.0978,89.654Z" style="fill:#68ad91"/><path d="M90.4178,90.044c0,1.44-.03,2.89-.07,4.34-1.15-.35-2.34-.69-3.56-1,.13-1.24.23-2.48.31-3.73a74.5425,74.5425,0,0,0-.28-11.29c1.21.22,2.33.47,3.38.75C90.3677,82.754,90.4478,86.394,90.4178,90.044Z" style="fill:#578755"/><path d="M93.5278,90.3039a21.9927,21.9927,0,0,1-.67,4.88c-.8-.26-1.64-.53-2.51-.8.04-1.45.07-2.9.07-4.34.03-3.65-.05-7.29-.22-10.93.43.11.84.23,1.24.35l.01.01c.59.17,1.14.35,1.67.54.02.39.03.79.05,1.18.04,1.11.09,2.23.13,3.34.04,1.06.08,2.12.13,3.19.01.36.03.72.04,1.09,0,.08.01.16.01.24v.02C93.4977,89.484,93.5078,89.894,93.5278,90.3039Z" style="fill:#729b5f"/><path d="M97.4678,92.034a38.3825,38.3825,0,0,1-.28,4.67c-1.28-.47-2.74-.99-4.33-1.52a21.9927,21.9927,0,0,0,.67-4.88c-.02-.41-.03-.82-.05-1.23v-.02c0-.08-.01-.16-.01-.24-.01-.37-.03-.73-.04-1.09-.05-1.07-.09-2.13-.13-3.19-.04-1.11-.09-2.23-.13-3.34-.02-.39-.03-.79-.05-1.18.15.05.29.1.43.15a.01.01,0,0,1,.01.01c1,.36,1.9.76,2.7,1.14.09.44.18.88.26,1.32.09.44.17.88.24,1.33.08.44.15.89.21,1.34.06.44.12.89.17,1.34.05.37.09.74.12,1.12q.06.54.09,1.08c.03.3.05.58.06.88v.04c0,.06.01.11.01.17q.0148.405.03.81C97.4578,91.1739,97.4678,91.604,97.4678,92.034Z" style="fill:#91af68"/><path d="M99.9977,97.724c-.8-.29-1.75-.63-2.81-1.02a38.3825,38.3825,0,0,0,.28-4.67c0-.43-.01-.86-.02-1.29q-.0151-.405-.03-.81c0-.06-.01-.11-.01-.17v-.04c-.01-.3-.03-.58-.06-.88q-.03-.54-.09-1.08c-.03-.38-.07-.75-.12-1.12-.05-.45-.11-.9-.17-1.34-.06-.45-.13-.9-.21-1.34-.07-.45-.15-.89-.24-1.33-.08-.44-.17-.88-.26-1.32.17.08.33.16.49.24.07.04.13.07.19.1a24.4855,24.4855,0,0,1,2.62,1.56c0,.04.01.07.01.11.33,2.47.62,4.96.72,7.44v.01c.01.01.01.01,0,.02A37.29,37.29,0,0,1,99.9977,97.724Z" style="fill:#68ad91"/><path d="M102.8378,98.354c-.04.06-.14.09-.29.08a11.4261,11.4261,0,0,1-2.55-.71,37.29,37.29,0,0,0,.29-6.93c.01-.01.01-.01,0-.02v-.01c-.1-2.48-.39-4.97-.72-7.44,0-.04-.01-.07-.01-.11a30.5818,30.5818,0,0,1,2.77,2.22C103.2878,86.074,103.4578,97.414,102.8378,98.354Z" style="fill:#578755"/><path d="M102.8378,98.354c-.04.06-.14.09-.29.08a11.4261,11.4261,0,0,1-2.55-.71c-.8-.29-1.75-.63-2.81-1.02-1.28-.47-2.74-.99-4.33-1.52-.8-.26-1.64-.53-2.51-.8-1.15-.35-2.34-.69-3.56-1q-1.335-.345-2.7-.63c-1.36-.29-2.75-.54-4.14-.72-1.16-.15-2.31-.26-3.46-.31h-.1c-.92-.04-1.82-.05-2.72-.03-.2-.01-.4,0-.61.01h-.09a.8618.8618,0,0,0-.16.01c-.54.02-1.08.04-1.61.08h-.02c-.58.04-1.15.08-1.72.15-1.24.13-2.45.3-3.62.51-.97.16-1.9.35-2.81.56-.81.18-1.59.38-2.34.59-1.4.38-2.71.79-3.91,1.2-1.02.35-1.97.7-2.82,1.05-1.79.71-3.21,1.37-4.18,1.84-.07.03-.14.07-.21.1a3.836,3.836,0,0,1-1.69.46c-.63-.02-.65-.46-.65-.46l-.17-4.35-.01-.16-.03-.68a8.7489,8.7489,0,0,0,1.76.23,16.9444,16.9444,0,0,0,3.96-.32c.87-.16,1.82-.38,2.87-.68,1.22-.35,2.56-.79,4.03-1.36.94-.36,1.86-.68,2.76-.95,1.05-.34,2.08-.61,3.08-.84,1.28-.31,2.52-.54,3.72-.71,1.25-.18,2.45-.29,3.59-.35,1.25-.07,2.42-.08,3.51-.05a.01.01,0,0,1,.01.01,37.2606,37.2606,0,0,1,3.88.31,30.3315,30.3315,0,0,1,3.88.78c.67.18,1.02.31,1.02.31a13.801,13.801,0,0,0,2.01.67,10.6616,10.6616,0,0,0,3.32.39,4.38,4.38,0,0,0,3.05-1.23,3.8217,3.8217,0,0,0,.82-1.26,6.2123,6.2123,0,0,0-1.12-6.36,9.3742,9.3742,0,0,0-1.72-1.72c.59.17,1.14.35,1.67.54.15.05.29.1.43.15a.01.01,0,0,1,.01.01c1,.36,1.9.76,2.7,1.14.17.08.33.16.49.24.07.04.13.07.19.1a24.4855,24.4855,0,0,1,2.62,1.56,30.5818,30.5818,0,0,1,2.77,2.22C103.2878,86.074,103.4578,97.414,102.8378,98.354Z" style="fill:#578755;opacity:0.21;mix-blend-mode:multiply"/></g></g></svg>