<svg id="Camada_1" data-name="Camada 1" xmlns="http://www.w3.org/2000/svg" viewBox="0 0 150 150"><defs><style>.cls-1{fill:#0c0511;}.cls-2{fill:#c7b299;}.cls-3{fill:#19273f;}.cls-4{fill:#1b1626;}.cls-5{fill:#aa8e81;}</style></defs><path class="cls-1" d="M118.22,117.07a9.56,9.56,0,0,1-.93-5c.07-1.08.66-2.37.63-3.38-.06-2.09-2-2.76-3.68-3-3.64-.54-7.14,0-9.06-3.49a8.06,8.06,0,0,1-.63-5.94,3.52,3.52,0,0,1,.18-.45,3.74,3.74,0,0,1,1.15-1.39.25.25,0,0,1,.41.2,5.73,5.73,0,0,1-.05,1.17l-.06.35a8.73,8.73,0,0,0-.27,3.34,5.21,5.21,0,0,0,4.08,4.27c2.67.58,5.67-.13,7.87,1.55s1.16,3.85,1,6.58c-.14,1.81.16,4.76,2,5.38a3.76,3.76,0,0,0,.93.16c0,.87-.23,1.39-.73,1.45A3.33,3.33,0,0,1,118.22,117.07Z"/><path class="cls-1" d="M44.53,97.74a11.26,11.26,0,0,1,2.66.49c.86.28,1-1,.12-1.27a10.65,10.65,0,0,0-2.92-.5H44a12.59,12.59,0,0,0-9.57,4.73,11.89,11.89,0,0,0-2.33,6.07,13.68,13.68,0,0,0,.12,3.66c.09.54.35,1.42.44,1.95.5,2.89-2.22,2.44-3.89,2.43-.71,0-.77,1.11.05,1.28,1.83.37,4.18.25,5.15-1.24s-.23-3.9-.36-5.64c-.44-5.92,4.23-12.1,10.62-12Z"/><path class="cls-2" d="M97.49,74.69v9.76a7.8,7.8,0,0,1-3.16,6.07,11.12,11.12,0,0,1-6.85,2.27H62.67a11.12,11.12,0,0,1-6.85-2.27,8.93,8.93,0,0,1-2.23-2.58,7.06,7.06,0,0,1-.93-3.49V74.69c0-4.59,4.51-8.34,10-8.34H87.48a11.67,11.67,0,0,1,4.14.75h0C95.07,68.41,97.49,71.33,97.49,74.69Z"/><path class="cls-3" d="M120.13,102.7a7.21,7.21,0,0,1-1.53,2.92c-.56-.18-1.32.79-1,1a12.19,12.19,0,0,1-2.25-.08C104.47,105.14,98,97.83,95.6,89.3a7.38,7.38,0,0,0,1.89-4.85V74.69c0-4.59-4.5-8.34-10-8.34H62.67c-5.5,0-10,3.75-10,8.34v9.76a7.28,7.28,0,0,0,1.52,4.37,30.09,30.09,0,0,1-6.12,10.82c-3.84,4.26-11.06,6.87-16.79,5.62A6.94,6.94,0,0,1,30,102.7a3.37,3.37,0,0,1,.08-1.92c1.16-3.19,6.13-3,8.84-4.59,4.37-2.65,6.21-8.45,7-12.87V80.1a6.75,6.75,0,0,1,.14-1.36A11.14,11.14,0,0,1,45.93,77V72.12c0-7.66,7.51-13.93,16.71-13.93H87.52c9.19,0,16.7,6.27,16.7,13.93V77a12.5,12.5,0,0,1-.13,1.74,7.56,7.56,0,0,1,.13,1.36v3.22c.78,4.42,2.62,10.22,7,12.87,2.7,1.64,7.67,1.4,8.84,4.59A3.46,3.46,0,0,1,120.13,102.7Z"/><path class="cls-4" d="M54.18,88.82a29.92,29.92,0,0,1-6.12,10.82c-3.83,4.26-11.06,6.86-16.79,5.62q.27.36.57.69l.94.89a8.08,8.08,0,0,0,5.36,1.69,16.82,16.82,0,0,0,7.34-2.2l.74-.42c4.5-2.65,10-8.75,9.61-15.39A8.83,8.83,0,0,1,54.18,88.82Z"/><path class="cls-4" d="M120.06,100.78c-1.17-3.19-6.14-3-8.84-4.59-4.38-2.65-6.22-8.45-7-12.87V80.1a7.56,7.56,0,0,0-.13-1.36,12.5,12.5,0,0,0,.13-1.74V72.12c0-7.66-7.51-13.93-16.7-13.93H84.94a11.21,11.21,0,0,0,5.11,2.62c6.45,1.71,9.83,8.12,10,12.52.1,2.39-1.28,6.24-2.56,9.24v1.88A7.38,7.38,0,0,1,95.6,89.3h0a8.26,8.26,0,0,1-1.28,1.22c-.35,6.64,5.11,12.74,9.61,15.39a19.41,19.41,0,0,0,6.21,2.42,12.09,12.09,0,0,0,2.67.19,7.77,7.77,0,0,0,4.72-1.8l0,0s0,0,0,0c-.26,0-.53,0-.8,0,.27,0,.54,0,.81,0-.27-.25.49-1.22,1-1a7.21,7.21,0,0,0,1.53-2.92A3.46,3.46,0,0,0,120.06,100.78Zm-5.59,5.66.83.14h0Z"/><path class="cls-5" d="M97.49,74.69v9.76a7.8,7.8,0,0,1-3.16,6.07,11.12,11.12,0,0,1-6.85,2.27H62.67a11.12,11.12,0,0,1-6.85-2.27,8.93,8.93,0,0,1-2.23-2.58c1.68,1.72,4.95,3.59,11.1,3.06,10.94-1,19.54-1.89,26.87-8.57,6.08-5.52,1.72-13,.06-15.32C95.07,68.41,97.49,71.33,97.49,74.69Z"/></svg>