<svg id="Camada_1" data-name="Camada 1" xmlns="http://www.w3.org/2000/svg" viewBox="0 0 150 150"><defs><style>.cls-1{fill:#bf676c;}.cls-2{fill:#386572;}.cls-3{fill:#8e3d49;}.cls-4{fill:#3d7991;}.cls-5{fill:#477c93;}.cls-6{fill:#2c5c77;}.cls-7{fill:#254956;}.cls-8{fill:#284f60;}</style></defs><path class="cls-1" d="M79.76,71.56l.28.08h-.15Z"/><path class="cls-1" d="M84,72.17l-1-.16a6.55,6.55,0,0,1-2.84-.36c.36,0,.72.07,1.07.12l.91.11.88.12Z"/><path class="cls-2" d="M80.42,74.6a16.83,16.83,0,0,1,1.45,1.2,2,2,0,0,1-.21.32,1.84,1.84,0,0,1-1.59.76c-1.39,0-2.92-1.5-3.68-2.47.37,1.27,2,2.55,2.19,4a2.1,2.1,0,0,1-.21,1.3,1.5,1.5,0,0,1-.23.33,2.41,2.41,0,0,1-2.39.63l-.28-.08c-1.64-.58-1.53-2.38-2.71-3.53,0,1.55.73,4.43-1.23,5.16l-.25.09c-2.11.62-2.57-1.49-2.63-3.52,0-.71,0-1.42,0-2,0-.37,0-.68,0-.91-.09.3-.17.65-.26,1-.42,1.76-.94,4-2.91,3.74-2.93-.47-1.43-3.58-.48-5.56.17-.36.32-.68.43-1a6.23,6.23,0,0,0-.68.57c-1.15,1-2.64,2.57-4,1.85a2,2,0,0,1-.58-.47c-1.66-1.84,1.68-3.8,3.17-4.39a8.23,8.23,0,0,1-3.47.07h0c-1.7-.34-3.08-1.27-2.15-3.2,1.06-2.21,3.72-.91,5.33-.5-.62-.8-2.07-.88-2.52-2a3.29,3.29,0,0,1,.62-2.92,5.29,5.29,0,0,1,3.61,2.5c-.71-1.76-2.17-5.53.68-5.48.87,0,1.59,1.17,2.05,2.4a4.46,4.46,0,0,1,.35-2.75c1.32,2.12,2.75,4.79,3,6.62a6.32,6.32,0,0,0,3.36,4.78A27.67,27.67,0,0,1,80.42,74.6Z"/><path class="cls-3" d="M82.93,72h0a6.55,6.55,0,0,1-2.84-.36c.36,0,.72.07,1.07.12l.91.11Z"/><path class="cls-4" d="M84,72.17l-1-.16a6.55,6.55,0,0,1-2.84-.36c.36,0,.72.07,1.07.12l.91.11.88.12Z"/><path class="cls-4" d="M87.55,91c-1-.18-1.92-.34-2.87-.47l-1.18-.15-1.32-.14-1.31-.12c-1-.09-2.07-.14-3.07-.17l-1,0c-1.77,0-3.49,0-5.14.1a65.5,65.5,0,0,0-23.39,5.62l-1.51-.36-.33-.08-.91-.22-.41-.1L43,94.32a2.76,2.76,0,0,1-.51-.16l-.14,0a4.93,4.93,0,0,1-.46-.23h0a3.07,3.07,0,0,1-.42-.28,1.29,1.29,0,0,1-.17-.16,3.16,3.16,0,0,1-.48-.55c-.07-.1-.14-.2-.2-.3s0,0,0,0a.26.26,0,0,1-.07-.11h0a5.69,5.69,0,0,1-.26-.56c0-.12-.09-.25-.13-.38S40,91.2,40,91h0c0-.12,0-.24-.08-.36s0,0,0,0a9.88,9.88,0,0,1,0-2.61c.06-.46.14-.92.25-1.4s.24-.95.39-1.43.34-1,.54-1.43c.1-.23.2-.47.31-.7s.19-.4.29-.59.15-.29.23-.43a4,4,0,0,1,.2-.35c.13-.23.26-.45.4-.66l.06-.09.18-.28.23-.33a14,14,0,0,1,1.37-1.67c.12-.12.24-.25.37-.37l.21-.21h0l.17-.16.41-.36a4.94,4.94,0,0,1,.44-.36l.46-.36a19.56,19.56,0,0,1,2.18-1.42c.18-.11.37-.21.56-.31a27.35,27.35,0,0,1,3.9-1.68l.75-.25.63-.19c.82-.25,1.7-.48,2.62-.68l.88-.19.92-.17.95-.16.09,0,.47-.07q1.19-.17,2.46-.3l1.07-.1L65,71.23a80.51,80.51,0,0,1,9.23,0,27.67,27.67,0,0,1,6.16,3.4,16.83,16.83,0,0,1,1.45,1.2,11.86,11.86,0,0,1,3,4.13,8.34,8.34,0,0,1,0,6.54l.05,0C87,88,87.57,89.59,87.55,91Z"/><path class="cls-5" d="M80.07,76.88c-.1.26-.21.52-.33.77a1.31,1.31,0,0,1-1.16.77,1.32,1.32,0,0,1-.27,0c-3.22.26-3.52-4.34-5.56-5.94-2.7-2.16-2.28,3.13-4.07,4.31l-.24.12h0c-1.41.49-2.48-.54-3.37-1.83-.09-.12-.17-.25-.25-.38-.31-.48-.59-1-.86-1.43a1.67,1.67,0,0,0-2.38,0c-.59,1-.46,2.22-.75,3.32a2.85,2.85,0,0,1-.7,1.31,1.7,1.7,0,0,1-2.41,0c-.71-.54-.59-1.71-1-2.7a1.24,1.24,0,0,0-1.62-.81c-1.32.82-1,2.78-2,4.15l-.4-.12-.12.41a1.63,1.63,0,0,1-2.23-.56c-.42-.78.72-2.09.1-2.6-1.26-1.26-2.43,1.26-3.65,2.1a1.92,1.92,0,0,1-1.91.28l.17-.16.41-.36a4.94,4.94,0,0,1,.44-.36l.46-.36a19.56,19.56,0,0,1,2.18-1.42c.18-.11.37-.21.56-.31a27.35,27.35,0,0,1,3.9-1.68l.75-.25.63-.19c.82-.25,1.7-.48,2.62-.68l.88-.19.92-.17.95-.16h.1l.46-.08q1.19-.17,2.46-.3l1.07-.1L65,71.23a80.51,80.51,0,0,1,9.23,0,27.67,27.67,0,0,1,6.16,3.4A5.18,5.18,0,0,1,80.07,76.88Z"/><path class="cls-6" d="M84.24,85.37c-1.15-.89-2.36,2.16-2.9,3.65-.45,1.18-1.47,1.32-2.14.25-.11-.37-.35-.66-.32-.76-.27-2.06-.12-6-2.47-4.25-1.51,1.09-1.53,4.16-3.82,4.58-.79.1-2.15-.08-2.42-1-.35-1.42-.2-3.8-2-3.33-2,.51-2,3.48-3.15,4.89-1.36,1.69-2.72-1.13-3.62-2.5a1.31,1.31,0,0,0-2.11.14c-.93,1.71-.66,4.54-2.8,4.78-1.8.24-2.1-2.49-3.24-3.82-.58-.61-1.91-.89-2.35-.14-.77,1.53-.84,3.27-1.5,4.83-.34.78-1.31.38-1.51-.45a5.25,5.25,0,0,0-.49-2.78c-.15-.26-.85-.47-1-.3-.93.94-.58,3.13-1.46,3.53-1.88.87-1.13-2.86-2.68-3.88-.44-.35-1.22-.69-1.49-.11a8.44,8.44,0,0,0-.8,2.41,3.93,3.93,0,0,0,3,3.26l5.33,1.26a67.7,67.7,0,0,1,36.37-5.1C84.63,88.62,85.39,86.32,84.24,85.37Z"/><path class="cls-5" d="M88.39,91.11h0L87.55,91c-1-.18-1.92-.34-2.87-.47h0c0-1.06.2-2.24.2-3.24,0-.12,0-.25,0-.37a2.33,2.33,0,0,0,0-.37,2.11,2.11,0,0,0-.2-.63,1.09,1.09,0,0,0-.14-.23,1.22,1.22,0,0,0-.24-.27.7.7,0,0,0-.43-.16l-.19,0a.47.47,0,0,0-.15.06,0,0,0,0,1,0,0,.7.7,0,0,0-.16.1,1.29,1.29,0,0,0-.18.16,1.49,1.49,0,0,0-.17.18,5.15,5.15,0,0,0-.32.45,2.26,2.26,0,0,0-.16.26,5.68,5.68,0,0,0-.34.65,3.54,3.54,0,0,0-.16.34,5,5,0,0,0-.21.48c-.07.17-.14.35-.21.51s-.15.41-.21.58c-.45,1.18-1.47,1.32-2.14.24-.11-.36-.35-.65-.32-.75,0-.44-.1-1-.14-1.5,0-.17,0-.33,0-.49L78.63,86c0-.13,0-.25-.06-.37a2,2,0,0,0,0-.24c0-.19-.08-.37-.13-.54a2.19,2.19,0,0,0-.17-.41.77.77,0,0,0-.1-.18.83.83,0,0,0-.11-.15.85.85,0,0,0-.17-.16l-.15-.08h0l-.07,0h0a1.53,1.53,0,0,0-1.18.41,1.64,1.64,0,0,0-.25.21,3.67,3.67,0,0,0-.45.56,3.37,3.37,0,0,0-.19.32c-.25.43-.46.92-.69,1.38a.25.25,0,0,1,0,.07,5.7,5.7,0,0,1-.3.54l-.13.22c0,.07-.1.15-.15.21a1.13,1.13,0,0,1-.1.13,1.22,1.22,0,0,1-.15.17,2.62,2.62,0,0,1-.6.49,2.27,2.27,0,0,1-.77.28c-.79.1-2.15-.09-2.42-1,0-.2-.09-.43-.13-.66s-.05-.32-.07-.48,0-.32-.08-.48,0-.15,0-.23,0-.15,0-.22l-.06-.22a1.72,1.72,0,0,0-.07-.21,1.51,1.51,0,0,0-.39-.65.71.71,0,0,0-.14-.1.44.44,0,0,0-.15-.08l-.09,0-.09,0a1.47,1.47,0,0,0-.61,0,1.14,1.14,0,0,0-.26.09.53.53,0,0,0-.17.08l-.14.08a.6.6,0,0,0-.13.09,1,1,0,0,0-.21.17,1.21,1.21,0,0,0-.19.2,1.15,1.15,0,0,0-.14.17l-.18.28-.17.31a2.44,2.44,0,0,0-.14.28,3.38,3.38,0,0,0-.18.44c-.06.15-.12.3-.17.45s-.13.34-.19.51-.21.56-.32.82-.11.23-.17.33a2,2,0,0,1-.14.25,3.12,3.12,0,0,1-.25.35,1.15,1.15,0,0,1-.89.52H64l-.1,0a1.2,1.2,0,0,1-.38-.18,3.92,3.92,0,0,1-.33-.27l-.05,0a2,2,0,0,1-.24-.26l-.25-.31c-.15-.2-.29-.41-.43-.63s-.14-.21-.2-.32l0-.06c-.09-.14-.17-.29-.26-.42l-.31-.49a1.31,1.31,0,0,0-2.11.15c-.07.13-.13.27-.19.41a3.25,3.25,0,0,0-.15.4s0,0,0,0,0,0,0,0c-.1.3-.18.61-.26.93s-.14.53-.22.78-.07.24-.11.36a4.06,4.06,0,0,1-.29.71,1.35,1.35,0,0,1-.15.26,1.61,1.61,0,0,1-.25.32,1.54,1.54,0,0,1-.19.17,2.2,2.2,0,0,1-.25.17l0,0a2.09,2.09,0,0,1-.3.11l0,0a1.86,1.86,0,0,1-.34.07h-.21a1.36,1.36,0,0,1-.29,0l-.21-.06-.19-.1a.8.8,0,0,1-.21-.15.39.39,0,0,1-.1-.08l-.17-.17a6.18,6.18,0,0,1-.8-1.37c-.16-.33-.32-.67-.49-1a4.39,4.39,0,0,0-.27-.47,3.91,3.91,0,0,0-.3-.41c-.58-.61-1.91-.9-2.35-.15-.09.19-.18.38-.25.57s0,.07,0,.11a5.17,5.17,0,0,0-.18.51c-.13.42-.23.84-.33,1.26-.05.19-.09.38-.14.57l-.15.57a9.6,9.6,0,0,1-.41,1.25.63.63,0,0,1-.58.42.8.8,0,0,1-.26,0h0l-.15-.08-.13-.1a.93.93,0,0,1-.16-.18L48,92.51a.69.69,0,0,1-.07-.15,1,1,0,0,1,0-.16,5.3,5.3,0,0,0-.49-2.79c-.15-.26-.85-.47-1-.29-.93.93-.58,3.12-1.46,3.53-1.88.87-1.13-2.87-2.68-3.88-.44-.35-1.22-.69-1.49-.11a6.11,6.11,0,0,0-.27.58c-.08.2-.16.4-.22.6A9.87,9.87,0,0,0,40,91h0a0,0,0,0,0,0,0c0-.13,0-.26-.07-.4s0,0,0,0a9.1,9.1,0,0,1,0-2.61,10.05,10.05,0,0,1,.25-1.4c.11-.47.24-.95.39-1.43s.34-1,.54-1.43c.1-.23.2-.47.31-.7s.19-.4.29-.59.15-.29.23-.43a4,4,0,0,1,.2-.35c.13-.23.26-.45.4-.66a.41.41,0,0,1,0-.09h0a4,4,0,0,0,.71.2c-.36,1.22-.89,2.71,0,3.51,2.28,1.89,3.32-2.09,5-3.13,1.46-.89,1.45,1.75,1.66,2.91.25,1.4,2.23,1.32,3.08.26S54,82,55,81c.29-.24.91-.5,1.22-.08.76.78.83,2,1.17,3.1.18.49,1,1.06,1.57.58,1.22-1.18,1.45-2.76,2.29-4.16A1.08,1.08,0,0,1,63,80.18c.7,1,.88,2.24,1.57,3.22.11.36.84.47,1.13.22,1.38-1.11,1.62-4.45,2.92-4.82a1.35,1.35,0,0,1,1.11.29c.79.57,1.24,2,1.52,3.23,0,0,0,.06,0,.09.22.73.63.08,1,.63,1.74,2.16,2.63-.36,3.44-2.36.17-.4.33-.77.49-1.09.31-.68,1.38-.25,1.69.17l.21.29c1,1.43,1.45,3.48,3.31,3.72.3.09.51-.29.7-.56.75-1.1.49-2.83,1.8-3.21a2,2,0,0,1,.89-.07,8.34,8.34,0,0,1,0,6.54l.05,0c2,1.5,2.64,3.08,2.62,4.44Z"/><path class="cls-6" d="M84.84,79.93A2,2,0,0,0,84,80c-1.31.38-1,2.11-1.8,3.21-.19.27-.4.65-.7.56-1.86-.24-2.35-2.29-3.31-3.72l-.21-.29c-.31-.42-1.38-.85-1.69-.17-.16.32-.32.69-.49,1.09-.81,2-1.7,4.52-3.44,2.36-.38-.55-.79.1-1-.63,0,0,0-.06,0-.09-.28-1.27-.73-2.66-1.52-3.23a1.35,1.35,0,0,0-1.11-.29c-1.3.37-1.54,3.71-2.92,4.82-.29.25-1,.14-1.13-.22-.69-1-.87-2.24-1.57-3.22a1.08,1.08,0,0,0-1.81.24c-.84,1.4-1.07,3-2.29,4.16-.57.48-1.39-.09-1.57-.58-.34-1.09-.41-2.32-1.17-3.1-.31-.42-.93-.16-1.22.08C54,82,53.81,83.5,53,84.7S50.2,85.84,50,84.44c-.21-1.16-.2-3.8-1.66-2.91-1.71,1-2.75,5-5,3.13-.85-.8-.32-2.29,0-3.51a4,4,0,0,1-.71-.2h0a2.75,2.75,0,0,1,.19-.28l.23-.33a14,14,0,0,1,1.37-1.67c.12-.12.24-.25.37-.37l.21-.21h0a1.92,1.92,0,0,0,1.91-.28c1.22-.84,2.39-3.36,3.65-2.1.62.51-.52,1.82-.1,2.6a1.63,1.63,0,0,0,2.23.56l.12-.41.4.12c.94-1.37.64-3.33,2-4.15a1.24,1.24,0,0,1,1.62.81c.36,1,.24,2.16,1,2.7a1.7,1.7,0,0,0,2.41,0,2.85,2.85,0,0,0,.7-1.31c.29-1.1.16-2.34.75-3.32a1.67,1.67,0,0,1,2.38,0c.27.46.55,1,.86,1.43.08.13.16.26.25.38.89,1.29,2,2.32,3.37,1.83h0l.24-.12c1.79-1.18,1.37-6.47,4.07-4.31,2,1.6,2.34,6.2,5.56,5.94a1.32,1.32,0,0,0,.27,0,1.31,1.31,0,0,0,1.16-.77c.12-.25.23-.51.33-.77a5.18,5.18,0,0,0,.35-2.28,16.83,16.83,0,0,1,1.45,1.2A11.86,11.86,0,0,1,84.84,79.93Z"/><path class="cls-2" d="M89.44,91.34l-1.06-.22L87.55,91a5.53,5.53,0,0,1-.79,2.64,74.31,74.31,0,0,0-13.15-1c-22,.07-25.37,11.1-25.37,11.1a28.89,28.89,0,0,1-2.73-4.8,5.13,5.13,0,0,1,.05-3.94,4.91,4.91,0,0,1,.36-.71s.26-.78,2-1.86a15.89,15.89,0,0,1,1.87-1,31.51,31.51,0,0,1,4.5-1.57c1.26-.36,2.7-.71,4.36-1,1.09-.23,2.26-.44,3.54-.65s2.38-.36,3.69-.53,2.65-.33,4.11-.47L71.62,87c1.11-.1,2.17-.19,3.2-.25h0c1.35-.1,2.64-.16,3.86-.21s2.59-.06,3.78-.06l2.35,0h.11c2,1.5,2.64,3.08,2.62,4.44l.84.16Z"/><path class="cls-2" d="M104.55,87.87a1.36,1.36,0,0,1-.06.29s0,0,0,0a1.28,1.28,0,0,1-.07.28,5.46,5.46,0,0,1-1.4,2.09l-.16.15a5.29,5.29,0,0,0-.52-1.75c-.32-.76-2-.7-2.85-.3a2.16,2.16,0,0,0-.69.49,19.33,19.33,0,0,0-3.94-1.4,2.3,2.3,0,0,0-1.27-2.38c-1.33-.58-2.16.36-2.81,1.61a58.08,58.08,0,0,0-5.84-.48l-.05,0a8.34,8.34,0,0,0,0-6.54,1.22,1.22,0,0,1,1.08.76c.62,1.62,1.35,3.6,2.85,2.94,1-.37.6-2.46,1.38-2.89,2.3-1.19,1.94,2.66,3.12,4.22a1.44,1.44,0,0,0,2.41,0c.67-1.57.54-3.36,1.71-4.78.21-.37.89-.06.93.17.32.75,1,1.6.55,2.58l.4.12c.24,1.06,1.32,1.82,1.87,1.43a3.55,3.55,0,0,0,1.49-2,16.76,16.76,0,0,1,.88,1.74c.08.19.16.37.23.55s.14.35.2.52.11.31.17.46c.11.33.21.64.31.93A2.94,2.94,0,0,1,104.55,87.87Z"/><path class="cls-7" d="M94.85,87.76A37.55,37.55,0,0,0,90.77,87c.65-1.25,1.48-2.19,2.81-1.61A2.3,2.3,0,0,1,94.85,87.76Z"/><path class="cls-7" d="M102.43,82.06s0,0,0,0c-.15-.24-.3-.48-.47-.72s-.36-.49-.55-.74l-.63-.74c-.11-.12-.22-.25-.34-.37a4.17,4.17,0,0,0-.36-.37l-.39-.37-.41-.37a17.76,17.76,0,0,0-2.43-1.78h0a1.64,1.64,0,0,0,0,.22c.09.8-.3,1.78-1.09,1.88a2,2,0,0,1-1.33-.29c-.54-.38-1.17-.45-1.49-.88-1.2-1.45-2.23-4.29-4-2.95-.84.63-.6,2.46-1.41,3-2,1-3.59-1.5-4.19-3.55a2,2,0,0,0-1.9-1.14,2.31,2.31,0,0,0-.74.14c-.23,0-.38.55-.37.88a3.29,3.29,0,0,1,.13.74,16.83,16.83,0,0,1,1.45,1.2,11.86,11.86,0,0,1,3,4.13,1.22,1.22,0,0,1,1.08.76c.62,1.62,1.35,3.6,2.85,2.94,1-.37.6-2.46,1.38-2.89,2.3-1.19,1.94,2.66,3.12,4.22a1.44,1.44,0,0,0,2.41,0c.67-1.57.54-3.36,1.71-4.78.21-.37.89-.06.93.17.32.75,1,1.6.55,2.58l.4.12c.24,1.06,1.32,1.82,1.87,1.43a3.55,3.55,0,0,0,1.49-2Z"/><path class="cls-2" d="M96.84,76.78a1.64,1.64,0,0,1,0-.22l-.7-.42-.73-.41-.62-.32-1-.48-.83-.35c-.61-.25-1.24-.48-1.91-.71s-1.37-.44-2.11-.64l-.1,0-1-.27c-.62-.15-1.27-.29-1.94-.43l-.51-.1-1.12-.2-.2,0-1-.16-.86-.13-.91-.11c-.35,0-.71-.09-1.07-.12h-.18l-.25,0c-.9-.09-1.78-.16-2.64-.23s-1.85-.13-2.74-.17a27.67,27.67,0,0,1,6.16,3.4,3.29,3.29,0,0,0-.13-.74c0-.33.14-.84.37-.88a2.31,2.31,0,0,1,.74-.14A2,2,0,0,1,83.3,74c.6,2,2.15,4.6,4.19,3.55.81-.53.57-2.36,1.41-3,1.8-1.34,2.83,1.5,4,2.95.32.43.95.5,1.49.88a2,2,0,0,0,1.33.29C96.54,78.56,96.93,77.58,96.84,76.78Z"/><path class="cls-8" d="M82.93,72l-.88-.12-.91-.11c-.35,0-.71-.09-1.07-.12h0l-.28-.08.13.07-.25,0c-.9-.09-1.78-.16-2.64-.23s-1.85-.13-2.74-.17a6.32,6.32,0,0,1-3.36-4.78c-.26-1.83-1.69-4.5-3-6.62a1.19,1.19,0,0,1,.85-.5c1.65-.2,2.51,2.51,2.25,3.69.51-1.83,1.43-5.15,4-3.71,2.4,1.36,1.2,3.38,0,5,1.49-1.65,5.34-3.17,6.85-1,1.7,2.45-.74,3.95-2.81,4.06,1.71.18,4,1,4.54,2.47S83.68,71.82,82.93,72Z"/><path class="cls-7" d="M102.85,90.72l-.12.11a12.53,12.53,0,0,1-1.21,1l-.44.29-.52-1.77a6.35,6.35,0,0,0-1.77-1.16,2.16,2.16,0,0,1,.69-.49c.88-.4,2.53-.46,2.85.3A5.29,5.29,0,0,1,102.85,90.72Z"/><path class="cls-8" d="M101.68,94.07l-.59-2-.2.12.19-.13-.52-1.77a6.35,6.35,0,0,0-1.77-1.16,19.33,19.33,0,0,0-3.94-1.4A37.55,37.55,0,0,0,90.77,87a58.08,58.08,0,0,0-5.84-.48c2,1.5,2.64,3.08,2.62,4.44h0a5.53,5.53,0,0,1-.79,2.64c11.21,2,14.4,6.26,14.4,6.26S102.8,97.82,101.68,94.07Z"/></svg>