<svg id="Camada_1" data-name="Camada 1" xmlns="http://www.w3.org/2000/svg" viewBox="0 0 150 150"><defs><style>.cls-1{fill:#c69c6d;}.cls-2{fill:#51371d;}.cls-3{fill:#846144;}.cls-4{fill:#684435;}.cls-5{fill:#966e53;}.cls-6{fill:#442619;}.cls-7{fill:#c7b299;}.cls-8{fill:#e2c8ac;}.cls-9{fill:#9b7d70;}</style></defs><path class="cls-1" d="M48.66,65.85A5.58,5.58,0,0,1,59,62.94a26,26,0,0,1,2.71-1.59.6.6,0,0,0-.33-.48l.09-.07c.64-.52.1-1.6-.61-1.15-.39.25-.77.5-1.14.76l.07-.12a.56.56,0,0,0-.09-.74l0-.1a.57.57,0,0,0-.69-.75.67.67,0,0,0-.38-.78.65.65,0,0,0-1.18.2c-.11.39-.22.75-.35,1.11l0,.05a.65.65,0,0,0-.25-.27.72.72,0,0,0-.49-.88,6.27,6.27,0,0,0-.64-1.82c-.3-.55-1.09-.16-1,.46.05.21.09.41.12.61a.85.85,0,0,0-.12.27l0,.18a.66.66,0,0,0-.84.59c0-.05,0-.09-.07-.13a.71.71,0,0,0-.28-.27c-.21-.37-.43-.71-.66-1s-1.19.08-1,.65a3.84,3.84,0,0,0,.14.36c-.45-.22-1,.3-.81.82a10.3,10.3,0,0,0-1.46-1.27c-.59-.4-1.3.6-.77,1.11l.25.24A1.06,1.06,0,0,0,49,59l-.24-.07c-.6-.18-.87.65-.34,1,.29.19.56.38.82.57l.13.14a.56.56,0,0,0-.3.12,4.81,4.81,0,0,0-1.29-.66c-.64-.24-1.55.31-1,1.15a1.73,1.73,0,0,0,.15.2.66.66,0,0,0,0,1.12l.19.08c0,.17-.9,1-1,1.25l-.75.1c-.71.13-.49,1.35.24,1.33H46a.66.66,0,0,0-.12.34h0c-.51.23-.56,1.1,0,1.24a.54.54,0,0,0-.28.46A.73.73,0,0,0,46,68.66a1.38,1.38,0,0,0,1.14-.18.65.65,0,0,0-.11.22l-.79.49c-.64.41-.21,1.58.5,1.29l.3-.14a.71.71,0,0,0,.41.71.55.55,0,0,0,.83.27c.22-.14.43-.3.65-.45l-.28.4a.75.75,0,0,0,0,.81c0,.12-.11.24-.16.37-.19.53.39,1.17.84.92a.63.63,0,0,0,1,.6h0a20.57,20.57,0,0,1,1.38-3.16A5.59,5.59,0,0,1,48.66,65.85Z"/><path class="cls-2" d="M54.25,60.25a5.59,5.59,0,0,0-2.57,10.56A22.75,22.75,0,0,1,59,62.94,5.58,5.58,0,0,0,54.25,60.25Z"/><path class="cls-1" d="M102.93,65.3h-.35a.64.64,0,0,1,.13.33h0c.52.23.56,1.1.06,1.24a.54.54,0,0,1,.27.46.72.72,0,0,1-.39,1.31,1.44,1.44,0,0,1-1.14-.17.48.48,0,0,1,.12.22l.78.49a.76.76,0,0,1-.19,1.33,18.06,18.06,0,0,0-2.33-3.8,4.14,4.14,0,0,0,.08-.87,5.6,5.6,0,0,0-5.6-5.6,5.18,5.18,0,0,0-1.77.3A29.18,29.18,0,0,0,89,58.82a.61.61,0,0,1,.54-.13.67.67,0,0,1,.39-.77.65.65,0,0,1,1.17.2c.11.39.23.75.35,1.11l0,.05a.62.62,0,0,1,.26-.27.72.72,0,0,1,.49-.88,5.89,5.89,0,0,1,.64-1.82c.3-.55,1.08-.16.94.46l-.12.61a.56.56,0,0,1,.12.27c0,.06,0,.12,0,.18a.66.66,0,0,1,.84.58l.06-.12a.77.77,0,0,1,.29-.28,10,10,0,0,1,.66-1c.35-.48,1.19.08,1,.65l-.14.36c.44-.22,1,.3.8.81a10.31,10.31,0,0,1,1.47-1.26c.59-.41,1.29.6.76,1.11l-.24.24a.7.7,0,0,1,.24.09l.24-.08c.6-.17.88.66.34,1-.28.18-.55.37-.82.57l-.13.14a.64.64,0,0,1,.31.11,5.06,5.06,0,0,1,1.28-.65c.64-.24,1.55.3,1,1.15a1.73,1.73,0,0,1-.15.2.65.65,0,0,1,0,1.11l-.19.09c0,.18.9,1,1,1.25l.74.1C103.87,64.1,103.66,65.31,102.93,65.3Z"/><path class="cls-2" d="M100,65.85a4.14,4.14,0,0,1-.08.87,24.63,24.63,0,0,0-7.29-6.17,5.18,5.18,0,0,1,1.77-.3A5.6,5.6,0,0,1,100,65.85Z"/><path class="cls-3" d="M98.93,72.1h0c-.19,1.41,0,4.39-1.83,4.14-.87-.23-1.75-.42-2.62-.59s-2-.36-3-.49c-.8-.11-1.61-.19-2.41-.25-.29,0-.57,0-.86-.06-.71-.06-1.43-.09-2.14-.11H86l-.78,0-1.85,0c-8.59,0-17.12,1.38-25.86,1.06a8,8,0,0,1-6.31-3.92c.16-.35.33-.69.52-1A22.57,22.57,0,0,1,59,62.94a25,25,0,0,1,2.71-1.59A29.17,29.17,0,0,1,75,58.25a30.82,30.82,0,0,1,3.75.23h0l.42,0a29.61,29.61,0,0,1,3.59.72,27.9,27.9,0,0,1,4.42,1.58A27,27,0,0,1,90,62.34a23.25,23.25,0,0,1,7.91,7.83C98.29,70.8,98.62,71.44,98.93,72.1Z"/><path class="cls-4" d="M99.47,73.4c-.16-.44-.35-.87-.54-1.29h0c-.31-.66-.64-1.3-1-1.93A23.25,23.25,0,0,0,90,62.34a27,27,0,0,0-2.82-1.5,27.9,27.9,0,0,0-4.42-1.58,29.61,29.61,0,0,0-3.59-.72l-.42,0c.54.3,9.17,5.09,9.17,11.22,0,3.59-1.47,4.71-2.75,5l-1.85,0c-8.59,0-17.12,1.38-25.86,1.06a8,8,0,0,1-6.31-3.92A17.89,17.89,0,0,0,50.3,74a18.54,18.54,0,0,0-.95,5.57,4,4,0,0,1,1.47-.49,187.87,187.87,0,0,1,48.32,0,4,4,0,0,1,1.47.49A18.41,18.41,0,0,0,99.47,73.4Z"/><path class="cls-5" d="M92.6,60.55A5.55,5.55,0,0,0,90,62.34a27,27,0,0,0-2.82-1.5l-.06,0c-.63-.52-.09-1.6.62-1.15l1.14.76-.08-.12a.57.57,0,0,1,.09-.75l0-.1a.61.61,0,0,1,.15-.62A29.18,29.18,0,0,1,92.6,60.55Z"/><path class="cls-6" d="M99.89,66.72a5.51,5.51,0,0,1-2,3.45A23.25,23.25,0,0,0,90,62.34a5.55,5.55,0,0,1,2.59-1.79A24.63,24.63,0,0,1,99.89,66.72Z"/><path class="cls-5" d="M102.22,70.52a.7.7,0,0,1-.31,0l-.3-.14a.69.69,0,0,1-.4.71.56.56,0,0,1-.84.27l-.64-.45.27.4a.71.71,0,0,1,0,.8c.06.13.11.25.16.38.18.49-.3,1.06-.73,1a20,20,0,0,0-1.55-3.23,5.51,5.51,0,0,0,2-3.45A18.06,18.06,0,0,1,102.22,70.52Z"/><path class="cls-7" d="M100.61,79.54l-.13-.06a66.35,66.35,0,0,0-11.88-.09,96.22,96.22,0,0,0-22.71,4.79c2-3,5.94-3,8.92-4.46-6.76.27-14.25.54-21.19,2.26a41.77,41.77,0,0,0-6,2l-.09-.45s-1.91,12.91-.28,13.14c1.46.21,1.86.4,6,0,0,0,0,0,0,0l1.43-.15.5-.06.86-.1q1.6-.51,3.24-1c.46-.14.92-.26,1.38-.38,1.32-.35,2.64-.67,4-1,.73-.17,1.46-.33,2.19-.46q3.27-.67,6.59-1.12h0q2.83-.39,5.68-.63h0c2.07-.17,4.16-.29,6.23-.34,3.25-.1,6.51,0,9.74.16-4.23.79-8.6,1.45-12.89,2.34L81,94.22c-1.39.3-2.76.63-4.12,1a168,168,0,0,1,19.4,1.36,4.06,4.06,0,0,0,4.31-3.35l1.89-9.76A3.69,3.69,0,0,0,100.61,79.54Z"/><path class="cls-8" d="M100.18,79.34l-.34-.13a4,4,0,0,0-.7-.16c-.81-.11-1.63-.21-2.44-.3l-1.49-.16-.59-.07-1.5-.15-1.3-.12-1.31-.11-1-.08h-.06L89,78l-1.15-.08-.54,0q-1.54-.11-3.09-.18c-1.5-.08-3-.13-4.5-.16l-2,0a187.17,187.17,0,0,0-26.86,1.54,4,4,0,0,0-1.47.49,3.69,3.69,0,0,0-1.68,2h0l-.14,1.91.09.45a41.77,41.77,0,0,1,6-2c6.94-1.72,14.43-2,21.19-2.26-3,1.49-6.94,1.49-8.92,4.46A96.22,96.22,0,0,1,88.6,79.39a66.35,66.35,0,0,1,11.88.09Z"/><path class="cls-9" d="M102.51,82.88a3.7,3.7,0,0,0-1.9-3.34l-.13-.06a4.13,4.13,0,0,0-1.34-.43q-5.62-.73-11.28-1.11c.35.11.75.46.74,1.45a5.16,5.16,0,0,1-.12,1c-.25,1.24-.88,3.54-1.52,5.77h0c-1.35,3.36-4.8,4.92-7.89,5.64q-2.76.24-5.5.61h-.08a103.88,103.88,0,0,0-17.42,3.88,163.78,163.78,0,0,1,20.76-1.07h0a168.75,168.75,0,0,1,18.52,1.26c6,1,7.17,2.65,8.24,1.54C104.86,96.72,102.51,82.88,102.51,82.88ZM81,94.22,82.23,94h0Z"/></svg>