<svg id="Camada_1" data-name="Camada 1" xmlns="http://www.w3.org/2000/svg" viewBox="0 0 150 150"><path d="M48.6587,65.8477A5.5888,5.5888,0,0,1,59.023,62.94a26.2273,26.2273,0,0,1,2.7078-1.592.621.621,0,0,0-.3281-.4775c.0295-.0239.06-.0456.09-.07.636-.519.0928-1.5985-.6174-1.1462-.3826.2437-.761.4978-1.1375.7562.0256-.04.0516-.078.0771-.1188a.5692.5692,0,0,0-.094-.747c.01-.0334.0236-.0661.0319-.1a.5729.5729,0,0,0-.691-.7492.6629.6629,0,0,0-.384-.7743.6508.6508,0,0,0-1.1771.2005c-.1063.3863-.2229.7509-.346,1.1069l-.0333.0555a.6041.6041,0,0,0-.2527-.2756.728.728,0,0,0-.4919-.88,5.9854,5.9854,0,0,0-.6385-1.8206c-.3025-.5475-1.0833-.1543-.9477.4648q.0673.307.1221.6112a.6577.6577,0,0,0-.1185.2628c-.0135.0605-.0247.1222-.0379.1829a.66.66,0,0,0-.8412.5851c-.022-.0406-.04-.0842-.0637-.1237a.7005.7005,0,0,0-.2862-.2753,10.777,10.777,0,0,0-.66-1.0325c-.3525-.4847-1.1859.0791-.9785.6506.0437.12.0926.2393.14.3588-.4425-.2206-.9624.2971-.8031.8128A9.8237,9.8237,0,0,0,49.8,57.545c-.5921-.4091-1.2983.5986-.7684,1.1053.0837.08.1629.1613.245.2417a.6826.6826,0,0,0-.2436.0911c-.079-.0268-.1579-.0538-.2385-.0772-.6007-.174-.8759.6558-.3428.9983.2839.1824.5555.372.82.566.0447.0468.0871.0946.131.1417a.5675.5675,0,0,0-.3061.1139,5.01,5.01,0,0,0-1.2846-.6545c-.6368-.244-1.5471.304-.9554,1.1507.0531.0759.1033.1394.1523.1978a.6535.6535,0,0,0,.0234,1.1162c.0629.0294.1275.0556.1908.0842.0149.1678-.9022.9884-1.0137,1.2527-.2511.0244-.5005.0574-.7469.1021-.7081.1284-.4965,1.3407.2364,1.3253.1159-.0025.2293-.001.3442-.002a.7066.7066,0,0,0-.127.3382l-.0045.0019c-.5152.2352-.5569,1.1-.0554,1.2453a.5381.5381,0,0,0-.2722.4589.7262.7262,0,0,0,.3911,1.3143,1.4076,1.4076,0,0,0,1.1373-.1751.5316.5316,0,0,0-.1153.2189c-.2614.1619-.5225.3219-.7843.4887-.638.4063-.215,1.5783.4991,1.2886.1015-.0412.201-.0925.3017-.1375a.6952.6952,0,0,0,.4048.7108.5538.5538,0,0,0,.8326.2715c.2176-.1475.4312-.3013.6467-.4522-.0922.133-.1828.2667-.2767.3991a.7324.7324,0,0,0-.0356.8062c-.0561.1246-.1133.249-.1607.3753-.1986.53.3826,1.1723.84.921a.62.62,0,0,0,1.0044.5931c.011.004.0241.0025.0353.0059a19.332,19.332,0,0,1,1.38-3.1585A5.5887,5.5887,0,0,1,48.6587,65.8477Z" style="fill:#c69c6d"/><path d="M54.2518,60.2547a5.5908,5.5908,0,0,0-2.5681,10.558A22.6543,22.6543,0,0,1,59.023,62.94,5.5836,5.5836,0,0,0,54.2518,60.2547Z" style="fill:#51371d"/><path d="M102.9348,65.3022h-.35a.6405.6405,0,0,1,.13.33v.01c.52.23.56,1.1.06,1.24a.5416.5416,0,0,1,.27.46.7225.7225,0,0,1-.39,1.31,1.4347,1.4347,0,0,1-1.14-.17.4766.4766,0,0,1,.12.22c.26.16.52.32.78.49a.7611.7611,0,0,1-.19,1.33,18.054,18.054,0,0,0-2.33-3.8,4.1415,4.1415,0,0,0,.08-.87,5.6035,5.6035,0,0,0-5.6-5.6,5.1806,5.1806,0,0,0-1.77.3,29.1959,29.1959,0,0,0-3.58-1.73.6141.6141,0,0,1,.54-.13.6694.6694,0,0,1,.39-.77.647.647,0,0,1,1.17.2c.11.39.23.75.35,1.11.01.02.02.03.03.05a.6169.6169,0,0,1,.26-.27.7244.7244,0,0,1,.49-.88,5.8939,5.8939,0,0,1,.64-1.82c.3-.55,1.08-.16.94.46-.04.21-.08.41-.12.61a.5584.5584,0,0,1,.12.27c.01.06.03.12.04.18a.6575.6575,0,0,1,.84.58l.06-.12a.7677.7677,0,0,1,.29-.28,10.0414,10.0414,0,0,1,.66-1.03c.35-.48,1.19.08.98.65-.05.12-.09.24-.14.36.44-.22.96.3.8.81a10.3145,10.3145,0,0,1,1.47-1.26c.59-.41,1.29.6.76,1.11l-.24.24a.7.7,0,0,1,.24.09c.08-.03.16-.05.24-.08.6-.17.88.66.34,1-.28.18-.55.37-.82.57-.04.04-.08.09-.13.14a.641.641,0,0,1,.31.11,5.0688,5.0688,0,0,1,1.28-.65c.64-.24,1.55.3.96,1.15a1.746,1.746,0,0,1-.15.2.6509.6509,0,0,1-.03,1.11c-.06.03-.12.06-.19.09,0,.18.9.99,1.02,1.25.25.03.5.06.74.1C103.8748,64.1022,103.6647,65.3123,102.9348,65.3022Z" style="fill:#c69c6d"/><path d="M99.9747,65.8522a4.1415,4.1415,0,0,1-.08.87,24.6368,24.6368,0,0,0-7.29-6.17,5.1806,5.1806,0,0,1,1.77-.3A5.6035,5.6035,0,0,1,99.9747,65.8522Z" style="fill:#51371d"/><path d="M98.9348,72.1022v.01c-.19,1.41,0,4.39-1.83,4.14-.87-.23-1.75-.42-2.62-.59-1-.2-2-.36-3-.49-.8-.11-1.61-.19-2.41-.25-.29-.03-.57-.05-.86-.06-.71-.06-1.43-.09-2.14-.11a.3717.3717,0,0,0-.11-.01c-.26-.01-.52-.02-.78-.02-.62-.01-1.23-.02-1.85-.02-8.59.02-17.12,1.38-25.86,1.06a7.9827,7.9827,0,0,1-6.31-3.92c.16-.35.33-.69.52-1.03a22.5656,22.5656,0,0,1,7.34-7.87,24.9834,24.9834,0,0,1,2.71-1.59,29.1732,29.1732,0,0,1,13.25-3.1,30.8437,30.8437,0,0,1,3.75.23.0774.0774,0,0,1,.03.01c.14.01.28.03.42.05a29.6381,29.6381,0,0,1,3.59.72,27.8975,27.8975,0,0,1,4.42,1.58,27.0441,27.0441,0,0,1,2.82,1.5,23.25,23.25,0,0,1,7.91,7.83C98.2948,70.8022,98.6248,71.4423,98.9348,72.1022Z" style="fill:#846144"/><path d="M99.4747,73.4023c-.16-.44-.35-.87-.54-1.29v-.01c-.31-.66-.64-1.3-1.01-1.93a23.25,23.25,0,0,0-7.91-7.83,27.0441,27.0441,0,0,0-2.82-1.5,27.8975,27.8975,0,0,0-4.42-1.58,29.6381,29.6381,0,0,0-3.59-.72c-.14-.02-.28-.04-.42-.05.54.3,9.17,5.09,9.17,11.22,0,3.59-1.47,4.71-2.75,5.01-.62-.01-1.23-.02-1.85-.02-8.59.02-17.12,1.38-25.86,1.06a7.9827,7.9827,0,0,1-6.31-3.92,17.9036,17.9036,0,0,0-.86,2.13,18.5413,18.5413,0,0,0-.95,5.57,3.9905,3.9905,0,0,1,1.47-.49,187.8651,187.8651,0,0,1,48.32,0,3.9911,3.9911,0,0,1,1.47.49A18.4062,18.4062,0,0,0,99.4747,73.4023Z" style="fill:#684435"/><path d="M92.6048,60.5522a5.5516,5.5516,0,0,0-2.59,1.79,27.0441,27.0441,0,0,0-2.82-1.5c-.02-.01-.04-.03-.06-.04-.63-.52-.09-1.6.62-1.15.38.25.76.5,1.14.76-.03-.04-.05-.08-.08-.12a.5715.5715,0,0,1,.09-.75c-.01-.03-.02-.06-.03-.1a.6052.6052,0,0,1,.15-.62A29.1959,29.1959,0,0,1,92.6048,60.5522Z" style="fill:#966e53"/><path d="M99.8948,66.7222a5.5071,5.5071,0,0,1-1.97,3.45,23.25,23.25,0,0,0-7.91-7.83,5.5516,5.5516,0,0,1,2.59-1.79A24.6368,24.6368,0,0,1,99.8948,66.7222Z" style="fill:#442619"/><path d="M102.2247,70.5223a.6991.6991,0,0,1-.31-.04c-.1-.05-.2-.1-.3-.14a.69.69,0,0,1-.4.71.5607.5607,0,0,1-.84.27c-.21-.15-.43-.3-.64-.45.09.13.18.27.27.4a.7131.7131,0,0,1,.04.8c.06.13.11.25.16.38.18.49-.3,1.06-.73.95a19.9474,19.9474,0,0,0-1.55-3.23,5.5071,5.5071,0,0,0,1.97-3.45A18.054,18.054,0,0,1,102.2247,70.5223Z" style="fill:#966e53"/><path d="M100.61,79.54c-.04-.02-.09-.04-.13-.06a66.3487,66.3487,0,0,0-11.88-.09,96.22,96.22,0,0,0-22.71,4.79c1.98-2.97,5.94-2.97,8.92-4.46-6.76.27-14.25.54-21.19,2.26a41.7685,41.7685,0,0,0-6.01,1.95l-.09-.45s-1.91,12.91-.28,13.14c1.46.21,1.86.4,6.01,0,.01,0,.02-.01.03,0,.43-.05.91-.1,1.43-.15.17-.02.34-.04.5-.06.29-.03.57-.07.86-.1q1.6052-.51,3.24-.96c.46-.14.92-.26,1.38-.38,1.32-.35,2.64-.67,3.97-.97.73-.17,1.46-.33,2.19-.46q3.27-.675,6.59-1.12h.01q2.835-.39,5.68-.63h.02c2.07-.17,4.16-.29,6.23-.34,3.25-.1,6.51-.04,9.74.16-4.23.79-8.6,1.45-12.89,2.34-.43.09-.85.18-1.27.27-1.39.3-2.76.63-4.12,1.01a168.02,168.02,0,0,1,19.4,1.36,4.0564,4.0564,0,0,0,4.31-3.35c.63-3.25,1.26-6.51,1.89-9.76A3.6946,3.6946,0,0,0,100.61,79.54Z" style="fill:#c7b299"/><path d="M100.18,79.34a3.4321,3.4321,0,0,0-.34-.13,3.9651,3.9651,0,0,0-.7-.16c-.81-.11-1.63-.21-2.44-.3-.5-.06-.99-.11-1.49-.16-.2-.03-.39-.05-.59-.07l-1.5-.15c-.44-.04-.87-.08-1.3-.12-.44-.04-.88-.08-1.31-.11-.33-.03-.65-.06-.97-.08h-.06c-.16-.02-.31-.03-.47-.04-.38-.03-.77-.05-1.15-.08-.18-.02-.36-.03-.54-.04q-1.5448-.105-3.09-.18c-1.5-.08-3-.13-4.5-.16-.68-.02-1.37-.04-2.05-.05a187.1724,187.1724,0,0,0-26.86,1.54,3.9913,3.9913,0,0,0-1.47.49,3.6863,3.6863,0,0,0-1.68,2.01l-.01.01v.01l-.14,1.91.09.45a41.7685,41.7685,0,0,1,6.01-1.95c6.94-1.72,14.43-1.99,21.19-2.26-2.98,1.49-6.94,1.49-8.92,4.46A96.22,96.22,0,0,1,88.6,79.39a66.3487,66.3487,0,0,1,11.88.09C100.38,79.43,100.28,79.38,100.18,79.34Z" style="fill:#e2c8ac"/><path d="M102.5142,82.8827a3.71,3.71,0,0,0-1.8994-3.3405c-.04-.02-.09-.04-.13-.06a4.1383,4.1383,0,0,0-1.34-.43q-5.625-.7349-11.28-1.11c.35.11.75.46.74,1.45a5.1621,5.1621,0,0,1-.12,1.01c-.25,1.24-.8821,3.5409-1.5232,5.7627v0c-1.347,3.366-4.8054,4.9245-7.8872,5.6447q-2.7609.2334-5.502.6112c-.0835-.0012-.129-.0028-.129-.0028l.0449.0147A104.0367,104.0367,0,0,0,56.0716,96.31,165.0156,165.0156,0,0,1,76.828,95.2354l.0108-.0028a168.47,168.47,0,0,1,18.5246,1.2593c5.9539.95,7.17,2.6434,8.2388,1.5364C104.86,96.7246,102.5142,82.8827,102.5142,82.8827Zm-21.5568,11.34c.4228-.0931.8469-.1822,1.2717-.27l.0023,0C81.8059,94.0405,81.381,94.1294,80.9574,94.2224Z" style="fill:#9b7d70"/></svg>