<svg id="Camada_1" data-name="Camada 1" xmlns="http://www.w3.org/2000/svg" viewBox="0 0 150 150"><path d="M52.0011,69.7314a.4563.4563,0,0,1-.24.5982L48.7981,71.591A.4556.4556,0,0,1,48.2,71.35h0a.4561.4561,0,0,1,.24-.598L51.4036,69.49a.4551.4551,0,0,1,.5975.241Z" style="fill:#7f4747"/><path d="M98.0306,82.02c-5.28-.42-10.69-1.33-16.12-1.88h-.01a65.3274,65.3274,0,0,0-11.61-.32c-.97.05-2.16.3-3.01.25-4.49-.16-8.97-.42-13.44.62.84-2.45,1.7-5.63,1.06-6.96-.71-1.47-6.52-2.69-3.23-5.65,3.21-2.87,9.1-5.85,17.34-5.48a36.6186,36.6186,0,0,1,9.51,1.77,32.7736,32.7736,0,0,1,12.98,7.57A24.633,24.633,0,0,1,98.0306,82.02Z" style="fill:#d36262"/><path d="M49.2206,71.48a1.4925,1.4925,0,0,0-.49-.94c-1.2-1.06-5.83-.02-7.8.49q-.255.06-.45.12a.7033.7033,0,0,0-.41-.23c-.01-.01-.01-.01-.02-.01l-6.36-.79a.6748.6748,0,0,0-.16,1.34l4.93.61-4.92.19a.67.67,0,0,0-.64.7.6557.6557,0,0,0,.69.64l5.82-.22-5.71,1.1a.6789.6789,0,0,0-.53.79.6663.6663,0,0,0,.79.53l6.29-1.22-5.91,1.96a.67.67,0,1,0,.43,1.27l6.08-2a.6437.6437,0,0,0,.25-.15l.03.06c-.02,0-.03.01-.04.01l-5.89,2.52a.6771.6771,0,0,0-.36.88.6674.6674,0,0,0,.88.35l4.9-2.08-4.6,2.39a.6709.6709,0,1,0,.62,1.19l5.35-2.79-4.6,3.3a.66.66,0,0,0-.15.93.67.67,0,0,0,.93.16l4.73-3.38-3.63,4.35a.6709.6709,0,1,0,1.03.86l4.05-4.86a.2108.2108,0,0,1-.06-.04,11.5908,11.5908,0,0,1-1.91-2.45,3.9631,3.9631,0,0,0,.58-.68,14.5273,14.5273,0,0,0,1.77,2.38c.27-.27.71-.7,1.44-1.42C47.7206,75.84,49.4806,73.15,49.2206,71.48Zm-6.61,6.25a.01.01,0,0,0,.01.01l-.02.02h-.01C42.6006,77.75,42.6006,77.74,42.6106,77.73Zm-2.18-3.2h-.02a1.0877,1.0877,0,0,0,.14-.09.1417.1417,0,0,0,.02.06C40.5206,74.51,40.4706,74.52,40.4306,74.53Z" style="fill:#e5cdbd"/><path d="M42.4006,75.47c.2.33.38.64.56.91a3.9631,3.9631,0,0,1-.58.68c-.22-.34-.46-.73-.71-1.16a10.7713,10.7713,0,0,1-1.6-4.98v-.2a.4129.4129,0,0,1,.44-.41.4252.4252,0,0,1,.41.44v.03c0,.04,0,.13.01.25A10.1376,10.1376,0,0,0,42.4006,75.47Z" style="fill:#ead5c7"/><path d="M98.0353,82.0166l-.0057-.0007A24.6372,24.6372,0,0,0,91.5006,71.94a32.7736,32.7736,0,0,0-12.98-7.57,36.6186,36.6186,0,0,0-9.51-1.77,47.4825,47.4825,0,0,1,18.95,10.55s3.6,3.84,1.08,5.64c-1.0448.7556-3.7438,1.1258-6.5286,1.31a72.66,72.66,0,0,0-12.2228-.2816c-.966.05-2.159.3014-3.0119.2512a57.24,57.24,0,0,0-12.0118.34c.2218-1.1318.7282-3.03,1.7065-3.6578,1.4279-.916,23.1446-.9969,23.1446-.9969L56.1489,74.0873s-3.0265-3.0381-3.9687-3.7c-1.4553-1.0222,2.4345-4.2895,2.4345-4.2895a30.8693,30.8693,0,0,0-2.9392,1.9848,1.9793,1.9793,0,0,0-.332,3.1983c.5526.6037,2.6253.9389,3.5545,2.4511.8559,1.3946-.99,6.782-1.2828,7.6145-.5229,1.4633-.981,2.532-.981,2.532l9.1382.2692,37.3784,3.86Z" style="fill:#b25757"/><path d="M102.6506,94.93c-.78,1.99-1.96-.08-17.98-1.35-.64-.05-1.29-.09-1.94-.13-15.64-.84-34.06,2.61-35.17,1.68-1.16-.97-.78-4.01.63-5.4,1.42-1.39.25-2.95,1.45-5.19s6.67-2.46,6.67-2.46c6.07-.74,16.69-.48,26.12.18,2.11.15,4.16.32,6.08.5,6.53.61,11.65,1.37,12.88,2.01a3.6035,3.6035,0,0,1,1.38,4.78C101.8606,91.42,103.5806,92.53,102.6506,94.93Z" style="fill:#e5cdbd"/><path d="M61.7166,90.8773a28.2555,28.2555,0,0,1,14.5174-4.714c-5.8309-.9853-11.8941.1575-17.5615,1.8585-1.5247.4455-4.4374.81-4.4687-.4774-.0647-2.6407,2.3686-4.2825,4.91-5.7177-1.0122.0665-1.9524.15-2.8016.255,0,0-5.4691.22-6.6694,2.4587s-.0311,3.8015-1.4487,5.19-1.7909,4.4333-.6311,5.4c.7507.6268,9.3672-.7394,19.6962-1.4359-1.734-.5669-3.41-1.1739-5.1725-1.8321C61.88,91.7441,61.2776,91.0658,61.7166,90.8773Z" style="fill:#ead5c7"/><path d="M102.6506,94.93c-.78,1.99-1.96-.08-17.98-1.35-.64-.05-1.29-.09-1.94-.13,3.48-1.07,7.95-2.92,4.33-4.51,0,0,5.5-3.83,1.45-6.18,6.53.61,11.65,1.37,12.88,2.01a3.6035,3.6035,0,0,1,1.38,4.78C101.8606,91.42,103.5806,92.53,102.6506,94.93Z" style="fill:#c49691"/><path d="M44.2906,79.51a.2108.2108,0,0,0,.06.04l-4.05,4.86a.6709.6709,0,1,1-1.03-.86l3.63-4.35-4.73,3.38a.67.67,0,0,1-.93-.16.66.66,0,0,1,.15-.93l4.6-3.3-5.35,2.79a.6767.6767,0,0,1-.91-.28c3.92-1.51,5.77-2.8,6.65-3.64A11.5908,11.5908,0,0,0,44.2906,79.51Z" style="fill:#c49691"/><path d="M44.8306,78.85a1.04,1.04,0,0,1-.1-.09,14.5273,14.5273,0,0,1-1.77-2.38,3.9631,3.9631,0,0,1-.58.68,11.5908,11.5908,0,0,0,1.91,2.45.2108.2108,0,0,0,.06.04.6609.6609,0,0,0,.2.06.4376.4376,0,0,0,.33-.16A.4181.4181,0,0,0,44.8306,78.85Z" style="fill:#cca19e"/><path d="M46.1706,77.34c-.73.72-1.17,1.15-1.44,1.42a14.5273,14.5273,0,0,1-1.77-2.38,1.4006,1.4006,0,0,0,.18-.37c1.88-.38,4.68-3.07,6.08-4.53C49.4806,73.15,47.7206,75.84,46.1706,77.34Z" style="fill:#c49691"/></svg>