<svg id="Camada_1" data-name="Camada 1" xmlns="http://www.w3.org/2000/svg" viewBox="0 0 150 150"><path d="M80.2372,71.5631c.0909.03.1919.06.2827.08-.05,0-.1009-.01-.1514-.01A.8375.8375,0,0,0,80.2372,71.5631Z" style="fill:#bf676c"/><path d="M84.4788,72.1731c-.3434-.06-.6969-.11-1.0605-.16a6.6775,6.6775,0,0,1-2.868-.36c.3635.03.7271.07,1.0806.12.313.04.616.07.9189.11.2929.04.5959.08.8887.12C83.792,72.0531,84.1455,72.1131,84.4788,72.1731Z" style="fill:#bf676c"/><path d="M80.9037,74.6031a16.9612,16.9612,0,0,1,1.4644,1.2,1.9479,1.9479,0,0,1-.2121.32,1.8617,1.8617,0,0,1-1.6057.76c-1.4038-.05-2.9489-1.5-3.7164-2.47.3736,1.27,1.9995,2.55,2.2116,4.01a2.0842,2.0842,0,0,1-.2121,1.3,1.5057,1.5057,0,0,1-.2322.33,2.4482,2.4482,0,0,1-2.4137.63c-.0909-.02-.1919-.05-.2828-.08-1.6562-.58-1.5451-2.38-2.7367-3.53-.03,1.55.7372,4.43-1.2422,5.16-.0909.03-.1717.06-.2525.09-2.1309.62-2.5954-1.49-2.656-3.52-.02-.71,0-1.42.03-1.99.01-.37.02-.68.02-.91-.0909.3-.1717.65-.2626,1.03-.4241,1.76-.9493,4.05-2.9387,3.74-2.9591-.47-1.4442-3.58-.4848-5.56.1716-.36.3231-.68.4342-.95a6.2833,6.2833,0,0,0-.6867.57c-1.1613,1.02-2.6661,2.57-4.0295,1.85a2.0506,2.0506,0,0,1-.5857-.47c-1.6764-1.84,1.6966-3.8,3.2014-4.39a8.3926,8.3926,0,0,1-3.5044.07l-.01-.01c-1.7168-.34-3.11-1.27-2.1712-3.2,1.0705-2.21,3.7567-.91,5.3827-.5-.6262-.8-2.09-.88-2.5449-2.03a3.2657,3.2657,0,0,1,.6261-2.92,5.3437,5.3437,0,0,1,3.6457,2.5c-.717-1.76-2.1915-5.53.6867-5.48.8786.02,1.6058,1.17,2.07,2.4a4.4187,4.4187,0,0,1,.3535-2.75c1.3331,2.12,2.7772,4.79,3.04,6.62a6.3344,6.3344,0,0,0,3.3932,4.78A28.0186,28.0186,0,0,1,80.9037,74.6031Z" style="fill:#386572"/><path d="M83.4385,72.0031c-.01.01-.01.01-.02.01a6.6775,6.6775,0,0,1-2.868-.36c.3635.03.7271.07,1.0806.12.313.04.616.07.9189.11C82.8427,71.9231,83.1457,71.9631,83.4385,72.0031Z" style="fill:#8e3d49"/><path d="M84.4788,72.1731c-.3434-.06-.6969-.11-1.0605-.16a6.6775,6.6775,0,0,1-2.868-.36c.3635.03.7271.07,1.0806.12.313.04.616.07.9189.11.2929.04.5959.08.8887.12C83.792,72.0531,84.1455,72.1131,84.4788,72.1731Z" style="fill:#3d7991"/><path d="M88.1042,90.9531c-.98-.18-1.9389-.34-2.8983-.47-.404-.05-.7978-.11-1.1917-.15-.4444-.05-.8887-.1-1.3331-.14s-.8887-.08-1.3229-.12c-1.05-.09-2.09-.14-3.1-.17l-.9695-.03c-1.7875-.03-3.5245.01-5.1908.1a66.662,66.662,0,0,0-23.6214,5.62l-1.525-.36c-.1009-.03-.212-.05-.3333-.08-.2625-.06-.5655-.13-.9189-.22-.1313-.03-.2727-.06-.4141-.1-.6059-.14-1.333-.31-2.1915-.51a2.8067,2.8067,0,0,1-.515-.16.7968.7968,0,0,1-.1414-.05,4.9974,4.9974,0,0,1-.4645-.23.01.01,0,0,1-.01-.01,3.1,3.1,0,0,1-.4242-.28,1.2885,1.2885,0,0,1-.1716-.16,3.1675,3.1675,0,0,1-.4848-.55c-.0707-.1-.1414-.2-.202-.3,0,0-.02-.01-.01-.02a.2586.2586,0,0,1-.0707-.11v-.01a5.663,5.663,0,0,1-.2626-.56c-.05-.12-.0909-.25-.1312-.38-.04-.15-.0809-.3-.1111-.46v-.01c-.03-.12-.05-.24-.0808-.36,0-.01-.01-.02,0-.03a9.7879,9.7879,0,0,1-.01-2.61c.0606-.46.1414-.92.2524-1.4.1112-.47.2424-.95.3939-1.43.1616-.48.3434-.96.5453-1.43.1011-.23.202-.47.3131-.7.0909-.2.1919-.4.2929-.59.0707-.15.1514-.29.2323-.43a3.9368,3.9368,0,0,1,.2019-.35c.1313-.23.2626-.45.404-.66l.0606-.09c.0606-.1.1212-.19.1818-.28.0707-.11.1514-.22.2322-.33a14.0448,14.0448,0,0,1,1.3836-1.67c.1212-.12.2424-.25.3736-.37l.2121-.21h.01c.06-.06.111-.11.1716-.16.1313-.12.2727-.24.4141-.36a4.996,4.996,0,0,1,.4443-.36c.1515-.12.303-.24.4646-.36a19.77,19.77,0,0,1,2.2015-1.42c.1818-.11.3737-.21.5656-.31a27.7667,27.7667,0,0,1,3.9386-1.68c.2525-.09.4948-.17.7574-.25.202-.07.4241-.13.6362-.19.8282-.25,1.7168-.48,2.6459-.68.2929-.07.5857-.13.8888-.19s.616-.12.929-.17c.3131-.06.6363-.11.96-.16a.2962.2962,0,0,1,.0908-.02c.1515-.02.3131-.05.4747-.07q1.1967-.165,2.4843-.3c.3535-.04.717-.07,1.0806-.1.3736-.03.7473-.06,1.121-.08a82.1061,82.1061,0,0,1,9.3213-.03,28.0186,28.0186,0,0,1,6.2209,3.4,16.9612,16.9612,0,0,1,1.4644,1.2,11.8652,11.8652,0,0,1,2.9994,4.13,8.2664,8.2664,0,0,1,.04,6.54c.02.01.03.03.05.04C87.5286,88.0131,88.1245,89.5931,88.1042,90.9531Z" style="fill:#3d7991"/><path d="M80.55,76.8831c-.1011.26-.2121.52-.3333.77a1.3208,1.3208,0,0,1-1.1715.77,1.3476,1.3476,0,0,1-.2727.02c-3.2518.26-3.5548-4.34-5.615-5.94-2.7267-2.16-2.3025,3.13-4.11,4.31a1.3631,1.3631,0,0,1-.2424.12c-.01,0-.01.01-.02.01-1.4239.49-2.5045-.54-3.4033-1.83-.0909-.12-.1717-.25-.2525-.38-.3131-.48-.5958-.97-.8685-1.43a1.6981,1.6981,0,0,0-2.4036-.04c-.5958.98-.4645,2.22-.7574,3.32a2.8371,2.8371,0,0,1-.7069,1.31,1.7338,1.7338,0,0,1-2.4338.05c-.7171-.54-.5959-1.71-.9594-2.7a1.2554,1.2554,0,0,0-1.6361-.81c-1.333.82-1.03,2.78-1.9794,4.15l-.4039-.12c-.03.1-.0909.3-.1212.41a1.6569,1.6569,0,0,1-2.2521-.56c-.4241-.78.7272-2.09.1011-2.6-1.2725-1.26-2.4541,1.26-3.6862,2.1a1.9584,1.9584,0,0,1-1.9288.28c.06-.06.111-.11.1716-.16.1313-.12.2727-.24.4141-.36a4.996,4.996,0,0,1,.4443-.36c.1515-.12.303-.24.4646-.36a19.77,19.77,0,0,1,2.2015-1.42c.1818-.11.3737-.21.5656-.31a27.7667,27.7667,0,0,1,3.9386-1.68c.2525-.09.4948-.17.7574-.25.202-.07.4241-.13.6362-.19.8282-.25,1.7168-.48,2.6459-.68.2929-.07.5857-.13.8888-.19s.616-.12.929-.17c.3131-.06.6363-.11.96-.16a.3462.3462,0,0,1,.1009-.01c.1515-.03.303-.06.4646-.08q1.1967-.165,2.4843-.3c.3535-.04.717-.07,1.0806-.1.3736-.03.7473-.06,1.121-.08a82.1061,82.1061,0,0,1,9.3213-.03,28.0186,28.0186,0,0,1,6.2209,3.4A5.1343,5.1343,0,0,1,80.55,76.8831Z" style="fill:#477c93"/><path d="M84.7652,85.37c-1.1652-.8921-2.3862,2.1589-2.9313,3.6486-.4563,1.1856-1.4849,1.3239-2.1575.2471-.1136-.3633-.3575-.6547-.3283-.7564-.2758-2.0605-.12-5.9737-2.4894-4.2492-1.5263,1.0915-1.5461,4.1649-3.8641,4.5847-.7964.0958-2.17-.0869-2.4386-1.0455-.3522-1.4229-.2068-3.8-1.9888-3.3329-2.015.5089-2.0047,3.4807-3.1867,4.8936-1.3711,1.6875-2.7416-1.1342-3.6587-2.503a1.3254,1.3254,0,0,0-2.1272.1454c-.9381,1.7046-.6661,4.5337-2.8233,4.78-1.8251.2343-2.1257-2.4929-3.275-3.82-.5881-.6129-1.9324-.8973-2.3711-.1457-.7766,1.5311-.8465,3.27-1.5224,4.8313-.3368.7809-1.3185.3831-1.5156-.4442a5.25,5.25,0,0,0-.5033-2.7871c-.143-.2618-.85-.4694-1.01-.2967-.9324.9363-.5849,3.1275-1.4705,3.528-1.9006.872-1.1383-2.8633-2.7088-3.8738-.4461-.3509-1.2251-.69-1.5042-.1118a8.3826,8.3826,0,0,0-.802,2.4072,3.9418,3.9418,0,0,0,3.0041,3.2556l5.3853,1.2683A68.8872,68.8872,0,0,1,85.21,90.4892C85.1548,88.6193,85.918,86.3224,84.7652,85.37Z" style="fill:#2c5c77"/><path d="M88.9526,91.1131l-.01.01c-.2828-.06-.5555-.11-.8383-.16-.9694-.18-1.9389-.34-2.8983-.47v-.01c-.02-1.06.2019-2.24.2019-3.24,0-.12-.01-.25-.02-.37a2.3031,2.3031,0,0,0-.04-.37,2.1016,2.1016,0,0,0-.202-.63,1.0867,1.0867,0,0,0-.1414-.23,1.2288,1.2288,0,0,0-.2424-.27.7084.7084,0,0,0-.4342-.16.6926.6926,0,0,0-.1919.03.4789.4789,0,0,0-.1515.06.01.01,0,0,1-.01.01.71.71,0,0,0-.1616.1,1.3028,1.3028,0,0,0-.1818.16,1.4936,1.4936,0,0,0-.1716.18,5.152,5.152,0,0,0-.3232.45,2.2568,2.2568,0,0,0-.1616.26,5.6559,5.6559,0,0,0-.3434.65,3.5716,3.5716,0,0,0-.1616.34,4.9945,4.9945,0,0,0-.212.48c-.0707.17-.1414.35-.2121.51-.0808.21-.1515.41-.212.58-.4545,1.18-1.4846,1.32-2.1612.24-.1111-.36-.3535-.65-.3232-.75-.05-.44-.101-.97-.1414-1.5-.02-.17-.03-.33-.05-.49l-.0606-.51c-.02-.13-.03-.25-.0606-.37a2.0036,2.0036,0,0,0-.04-.24c-.04-.19-.0809-.37-.1313-.54a2.1893,2.1893,0,0,0-.1718-.41.7654.7654,0,0,0-.1009-.18.8329.8329,0,0,0-.1111-.15.857.857,0,0,0-.1717-.16,1.1076,1.1076,0,0,0-.1515-.08c-.01,0-.01,0-.02-.01a.1887.1887,0,0,1-.0707-.02h-.02a1.5513,1.5513,0,0,0-1.1918.41,1.6545,1.6545,0,0,0-.2524.21,3.6738,3.6738,0,0,0-.4544.56,3.3642,3.3642,0,0,0-.1919.32c-.2525.43-.4646.92-.6969,1.38a.25.25,0,0,1-.04.07,5.681,5.681,0,0,1-.3029.54c-.04.07-.0909.15-.1313.22-.05.07-.101.15-.1515.21a1.1332,1.1332,0,0,1-.101.13,1.22,1.22,0,0,1-.1515.17,2.643,2.643,0,0,1-.6059.49,2.3112,2.3112,0,0,1-.7776.28c-.7979.1-2.1713-.09-2.444-1.04-.05-.2-.0908-.43-.1313-.66-.02-.16-.05-.32-.0707-.48s-.05-.32-.0807-.48c-.01-.07-.03-.15-.04-.23-.02-.07-.03-.15-.05-.22s-.04-.15-.0606-.22a1.7285,1.7285,0,0,0-.0707-.21,1.5092,1.5092,0,0,0-.3938-.65.7228.7228,0,0,0-.1414-.1.4423.4423,0,0,0-.1516-.08.3216.3216,0,0,0-.0908-.03c-.03-.01-.0606-.01-.0909-.02a1.4942,1.4942,0,0,0-.6161.04,1.1606,1.1606,0,0,0-.2625.09.5383.5383,0,0,0-.1717.08.6456.6456,0,0,0-.1414.08.6076.6076,0,0,0-.1313.09,1.0537,1.0537,0,0,0-.2121.17,1.2152,1.2152,0,0,0-.1919.2,1.153,1.153,0,0,0-.1413.17c-.0606.09-.1212.19-.1818.28-.0606.1-.1212.21-.1717.31a2.4275,2.4275,0,0,0-.1414.28,3.3916,3.3916,0,0,0-.1818.44c-.0606.15-.1212.3-.1716.45-.0707.17-.1313.34-.1919.51-.101.28-.2121.56-.3232.82-.0606.12-.1111.23-.1717.33a1.9948,1.9948,0,0,1-.1414.25,3.1233,3.1233,0,0,1-.2524.35,1.1643,1.1643,0,0,1-.8989.52.6729.6729,0,0,1-.1413-.01c-.03-.01-.0707-.02-.101-.03a1.2175,1.2175,0,0,1-.3838-.18,3.9464,3.9464,0,0,1-.3332-.27l-.05-.05a1.9542,1.9542,0,0,1-.2424-.26c-.0808-.1-.1616-.2-.2525-.31-.1514-.2-.2928-.41-.4342-.63-.0707-.11-.1414-.21-.202-.32-.01-.02-.03-.04-.04-.06-.0909-.14-.1717-.29-.2626-.42-.1111-.18-.212-.34-.313-.49a1.3322,1.3322,0,0,0-2.1309.15c-.0707.13-.1313.27-.1919.41a3.2313,3.2313,0,0,0-.1515.4c-.01.01-.01.01-.01.02s-.01.02-.01.03c-.1011.3-.1818.61-.2626.93-.0707.26-.1414.53-.2222.78-.03.12-.0707.24-.1111.36a4.0389,4.0389,0,0,1-.2929.71,1.3464,1.3464,0,0,1-.1515.26,1.6135,1.6135,0,0,1-.2524.32,1.5474,1.5474,0,0,1-.1919.17,2.2188,2.2188,0,0,1-.2525.17c-.01.01-.02.01-.03.02a2.1217,2.1217,0,0,1-.303.11c-.02.01-.03.02-.05.02a1.8951,1.8951,0,0,1-.3433.07,1.5064,1.5064,0,0,1-.2121.01,1.3827,1.3827,0,0,1-.2928-.03,1.6848,1.6848,0,0,1-.2121-.06,1.1554,1.1554,0,0,1-.1919-.1.8087.8087,0,0,1-.2121-.15.3948.3948,0,0,1-.101-.08c-.0606-.05-.1111-.11-.1716-.17a6.1606,6.1606,0,0,1-.8079-1.37c-.1617-.33-.3232-.67-.4949-.99a4.38,4.38,0,0,0-.2727-.47,3.9218,3.9218,0,0,0-.3029-.41c-.5858-.61-1.929-.9-2.3733-.15-.0909.19-.1818.38-.2525.57-.01.04-.03.07-.04.11a5.1125,5.1125,0,0,0-.1817.51c-.1313.42-.2324.84-.3333,1.26-.0505.19-.0909.38-.1414.57l-.1515.57a9.5379,9.5379,0,0,1-.4141,1.25.639.639,0,0,1-.5857.42.8125.8125,0,0,1-.2625-.05c-.01,0-.01-.01-.02-.01a1.1086,1.1086,0,0,1-.1516-.08,1.15,1.15,0,0,1-.1312-.1.9376.9376,0,0,1-.1616-.18c-.03-.04-.0606-.09-.0909-.14a.6863.6863,0,0,1-.0707-.15.9759.9759,0,0,1-.05-.16,5.2547,5.2547,0,0,0-.4948-2.79c-.1515-.26-.8584-.47-1.01-.29-.9392.93-.5858,3.12-1.4745,3.53-1.8985.87-1.1411-2.87-2.7065-3.88-.4444-.35-1.232-.69-1.5047-.11a6.08,6.08,0,0,0-.2727.58c-.0808.2-.1616.4-.2222.6a9.787,9.787,0,0,0-.3029,1.19v.01a.0365.0365,0,0,0-.01.03c-.03-.13-.05-.26-.0707-.4,0-.01-.01-.02,0-.03a9.0136,9.0136,0,0,1-.01-2.61,9.96,9.96,0,0,1,.2524-1.4c.1112-.47.2424-.95.3939-1.43.1616-.48.3434-.96.5453-1.43.1011-.23.202-.47.3131-.7.0909-.2.1919-.4.2929-.59.0707-.15.1514-.29.2323-.43a3.9368,3.9368,0,0,1,.2019-.35c.1313-.23.2626-.45.404-.66a.4042.4042,0,0,1,.05-.09h.01a4.07,4.07,0,0,0,.717.2c-.3635,1.22-.8988,2.71-.04,3.51,2.3026,1.89,3.3529-2.09,5.08-3.13,1.4744-.89,1.4643,1.75,1.6764,2.91.2525,1.4,2.2521,1.32,3.1105.26.7877-1.2,1-2.68,1.9591-3.72.2929-.24.9191-.5,1.2321-.08.7676.78.8383,2.01,1.1816,3.1.1818.49,1.01,1.06,1.5855.58,1.2321-1.18,1.4644-2.76,2.3127-4.16a1.0981,1.0981,0,0,1,1.8279-.24c.7069.98.8887,2.24,1.5855,3.22.1111.36.8483.47,1.1412.22,1.3936-1.11,1.636-4.45,2.9489-4.82a1.3717,1.3717,0,0,1,1.121.29c.7978.57,1.2522,1.96,1.535,3.23.01.03.01.06.02.09.2222.73.6362.08,1.02.63,1.7572,2.16,2.656-.36,3.474-2.36.1717-.4.3333-.77.4949-1.09.313-.68,1.3936-.25,1.7067.17.0707.09.1414.19.2121.29.9694,1.43,1.4643,3.48,3.3427,3.72.303.09.5151-.29.707-.56.7574-1.1.4948-2.83,1.8178-3.21a2.0771,2.0771,0,0,1,.8988-.07,8.2664,8.2664,0,0,1,.04,6.54c.02.01.03.03.05.04,2.07,1.5,2.6662,3.08,2.6459,4.44C88.387,91.0031,88.67,91.0631,88.9526,91.1131Z" style="fill:#477c93"/><path d="M85.3675,79.9331a2.0771,2.0771,0,0,0-.8988.07c-1.323.38-1.06,2.11-1.8178,3.21-.1919.27-.404.65-.707.56-1.8784-.24-2.3733-2.29-3.3427-3.72-.0707-.1-.1414-.2-.2121-.29-.3131-.42-1.3937-.85-1.7067-.17-.1616.32-.3232.69-.4949,1.09-.818,2-1.7168,4.52-3.474,2.36-.3838-.55-.7978.1-1.02-.63-.01-.03-.01-.06-.02-.09-.2828-1.27-.7372-2.66-1.535-3.23a1.3717,1.3717,0,0,0-1.121-.29c-1.3129.37-1.5553,3.71-2.9489,4.82-.2929.25-1.03.14-1.1412-.22-.6968-.98-.8786-2.24-1.5855-3.22a1.0981,1.0981,0,0,0-1.8279.24c-.8483,1.4-1.0806,2.98-2.3127,4.16-.5756.48-1.4037-.09-1.5855-.58-.3433-1.09-.414-2.32-1.1816-3.1-.313-.42-.9392-.16-1.2321.08-.9593,1.04-1.1714,2.52-1.9591,3.72-.8584,1.06-2.858,1.14-3.1105-.26-.2121-1.16-.202-3.8-1.6764-2.91-1.7269,1.04-2.7772,5.02-5.08,3.13-.8584-.8-.3231-2.29.04-3.51a4.07,4.07,0,0,1-.717-.2h-.01a2.7491,2.7491,0,0,1,.1919-.28c.0707-.11.1514-.22.2322-.33a14.0448,14.0448,0,0,1,1.3836-1.67c.1212-.12.2424-.25.3736-.37l.2121-.21h.01a1.9584,1.9584,0,0,0,1.9288-.28c1.2321-.84,2.4137-3.36,3.6862-2.1.6261.51-.5252,1.82-.1011,2.6a1.6569,1.6569,0,0,0,2.2521.56c.03-.11.0909-.31.1212-.41l.4039.12c.9493-1.37.6464-3.33,1.9794-4.15a1.2554,1.2554,0,0,1,1.6361.81c.3635.99.2423,2.16.9594,2.7a1.7338,1.7338,0,0,0,2.4338-.05,2.8371,2.8371,0,0,0,.7069-1.31c.2929-1.1.1616-2.34.7574-3.32a1.6981,1.6981,0,0,1,2.4036.04c.2727.46.5554.95.8685,1.43.0808.13.1616.26.2525.38.8988,1.29,1.9794,2.32,3.4033,1.83.01,0,.01-.01.02-.01a1.3631,1.3631,0,0,0,.2424-.12c1.8077-1.18,1.3835-6.47,4.11-4.31,2.06,1.6,2.3632,6.2,5.615,5.94a1.3476,1.3476,0,0,0,.2727-.02,1.3208,1.3208,0,0,0,1.1715-.77c.1212-.25.2322-.51.3333-.77a5.1343,5.1343,0,0,0,.3534-2.28,16.9612,16.9612,0,0,1,1.4644,1.2A11.8652,11.8652,0,0,1,85.3675,79.9331Z" style="fill:#2c5c77"/><path d="M90.013,91.3431c-.3636-.07-.7171-.15-1.0705-.22-.2828-.06-.5555-.11-.8383-.16a5.4953,5.4953,0,0,1-.7977,2.64,75.7752,75.7752,0,0,0-13.28-1.03c-22.2479.07-25.6209,11.1-25.6209,11.1a28.8292,28.8292,0,0,1-2.757-4.8,5.08,5.08,0,0,1,.05-3.94,4.8845,4.8845,0,0,1,.3635-.71s.2626-.78,2.07-1.86a16.109,16.109,0,0,1,1.8885-.96,32.031,32.031,0,0,1,4.5446-1.57c1.2724-.36,2.7266-.71,4.4031-1.04,1.1007-.23,2.2823-.44,3.575-.65,1.1614-.18,2.4035-.36,3.7265-.53,1.2927-.17,2.6762-.33,4.1506-.47.5151-.06,1.05-.11,1.5957-.16,1.1209-.1,2.1914-.19,3.2316-.25h.01c1.3634-.1,2.6661-.16,3.8982-.21,1.3533-.04,2.6157-.06,3.8174-.06.8281.01,1.6158.02,2.3733.04a.4176.4176,0,0,0,.111.01c2.07,1.5,2.6662,3.08,2.6459,4.44.2828.05.5656.11.8484.16C89.306,91.1931,89.66,91.2631,90.013,91.3431Z" style="fill:#386572"/><path d="M105.2724,87.8731a1.3388,1.3388,0,0,1-.0606.29c.01.01,0,.03-.01.04a1.2656,1.2656,0,0,1-.0707.28,5.46,5.46,0,0,1-1.4138,2.09c-.05.05-.101.1-.1616.15a5.2519,5.2519,0,0,0-.5251-1.75c-.3232-.76-1.99-.7-2.8782-.3a2.182,2.182,0,0,0-.6969.49,19.64,19.64,0,0,0-3.979-1.4,2.29,2.29,0,0,0-1.2825-2.38c-1.3431-.58-2.1814.36-2.8378,1.61-1.6865-.23-3.6356-.4-5.8978-.48-.02-.01-.03-.03-.05-.04a8.2664,8.2664,0,0,0-.04-6.54,1.229,1.229,0,0,1,1.0906.76c.6261,1.62,1.3634,3.6,2.8782,2.94.98-.37.606-2.46,1.3937-2.89,2.3227-1.19,1.9592,2.66,3.1509,4.22a1.4617,1.4617,0,0,0,2.4338-.05c.6766-1.57.5453-3.36,1.7269-4.78.2121-.37.8988-.06.9392.17.3232.75.9594,1.6.5554,2.58l.404.12c.2424,1.06,1.3331,1.82,1.8885,1.43a3.551,3.551,0,0,0,1.5047-2.03,16.693,16.693,0,0,1,.8888,1.74c.0808.19.1615.37.2322.55s.1414.35.202.52c.0606.16.1111.31.1717.46.111.33.2121.64.313.93A2.9116,2.9116,0,0,1,105.2724,87.8731Z" style="fill:#386572"/><path d="M95.4764,87.7631a38.2514,38.2514,0,0,0-4.12-.77c.6564-1.25,1.4947-2.19,2.8378-1.61A2.29,2.29,0,0,1,95.4764,87.7631Z" style="fill:#254956"/><path d="M103.1314,82.0631c-.01-.01-.02-.02-.02-.03-.1514-.24-.303-.48-.4746-.72s-.3634-.49-.5553-.74c-.2021-.24-.4142-.49-.6363-.74-.1112-.12-.2222-.25-.3435-.37a4.1754,4.1754,0,0,0-.3634-.37c-.1314-.12-.2626-.25-.394-.37-.1413-.13-.2727-.25-.414-.37a17.9277,17.9277,0,0,0-2.4539-1.78.01.01,0,0,0-.01-.01,1.62,1.62,0,0,0,.02.22c.0907.8-.303,1.78-1.1009,1.88a2.073,2.073,0,0,1-1.3432-.29c-.5454-.38-1.1815-.45-1.5048-.88-1.2118-1.45-2.252-4.29-4.07-2.95-.8481.63-.6057,2.46-1.4238,2.99-2.06,1.05-3.6256-1.5-4.2314-3.55a1.9741,1.9741,0,0,0-1.919-1.14,2.3567,2.3567,0,0,0-.7473.14c-.2322.04-.3836.55-.3735.88a3.2709,3.2709,0,0,1,.1312.74,16.9785,16.9785,0,0,1,1.4645,1.2,11.8678,11.8678,0,0,1,2.9994,4.13,1.2288,1.2288,0,0,1,1.0905.76c.6262,1.62,1.3634,3.6,2.8783,2.94.98-.37.606-2.46,1.3935-2.89,2.3228-1.19,1.9594,2.66,3.151,4.22a1.4616,1.4616,0,0,0,2.4337-.05c.6768-1.57.5454-3.36,1.7272-4.78.212-.37.8987-.06.9391.17.3232.75.9593,1.6.5555,2.58l.4038.12c.2424,1.06,1.3332,1.82,1.8887,1.43a3.5506,3.5506,0,0,0,1.5044-2.03C103.2729,82.2931,103.2022,82.1731,103.1314,82.0631Z" style="fill:#254956"/><path d="M97.4863,76.7831a1.62,1.62,0,0,1-.02-.22c-.2222-.14-.4648-.28-.7069-.42s-.4847-.27-.7372-.41c-.2022-.1-.4142-.21-.6263-.32-.3333-.16-.6866-.32-1.05-.48-.2727-.12-.5555-.24-.8383-.35-.6159-.25-1.2522-.48-1.9288-.71s-1.3834-.44-2.131-.64c-.04-.01-.07-.02-.1008-.03q-.5153-.135-1.0605-.27c-.6262-.15-1.2825-.29-1.9591-.43-.1716-.03-.3434-.07-.515-.1-.3738-.07-.7474-.14-1.1312-.2-.0706-.01-.1312-.02-.202-.03-.3432-.06-.6967-.11-1.06-.16-.2828-.04-.5755-.09-.8684-.13-.303-.04-.606-.07-.9189-.11-.3536-.05-.7172-.09-1.0806-.12a.0376.0376,0,0,0-.03-.01c-.05,0-.1011-.01-.1514-.01-.0808-.01-.1718-.02-.2524-.03-.9091-.09-1.7979-.16-2.6663-.23-.9492-.07-1.8684-.13-2.7671-.17a28.0186,28.0186,0,0,1,6.2209,3.4,3.2709,3.2709,0,0,0-.1312-.74c-.01-.33.1413-.84.3735-.88a2.3567,2.3567,0,0,1,.7473-.14,1.9741,1.9741,0,0,1,1.919,1.14c.6058,2.05,2.1712,4.6,4.2314,3.55.8181-.53.5757-2.36,1.4238-2.99,1.8179-1.34,2.8581,1.5,4.07,2.95.3233.43.9594.5,1.5048.88a2.073,2.073,0,0,0,1.3432.29C97.1833,78.5631,97.577,77.5831,97.4863,76.7831Z" style="fill:#386572"/><path d="M83.4385,72.0031c-.2928-.04-.5958-.08-.8887-.12-.3029-.04-.6059-.07-.9189-.11-.3535-.05-.7171-.09-1.0806-.12a.0374.0374,0,0,0-.03-.01c-.0908-.02-.1918-.05-.2827-.08a.8375.8375,0,0,1,.1313.07c-.0808-.01-.1717-.02-.2525-.03-.9089-.09-1.7976-.16-2.6661-.23-.9493-.07-1.8683-.13-2.7671-.17a6.3344,6.3344,0,0,1-3.3932-4.78c-.2626-1.83-1.7067-4.5-3.04-6.62a1.1994,1.1994,0,0,1,.8584-.5c1.6663-.2,2.5348,2.51,2.2722,3.69.5151-1.83,1.4442-5.15,4.0295-3.71,2.4238,1.36,1.2119,3.38-.02,4.99,1.5048-1.65,5.3928-3.17,6.9178-1,1.7168,2.45-.7473,3.95-2.8378,4.06,1.7269.18,4.0294.95,4.5849,2.47C84.57,71.2231,84.196,71.8231,83.4385,72.0031Z" style="fill:#284f60"/><path d="M103.5556,90.7231c-.04.04-.0808.07-.1212.11a12.6459,12.6459,0,0,1-1.2219.97c-.1515.1-.2929.2-.4444.29l-.5251-1.77a6.4139,6.4139,0,0,0-1.7876-1.16,2.182,2.182,0,0,1,.6969-.49c.8887-.4,2.555-.46,2.8782.3A5.2519,5.2519,0,0,1,103.5556,90.7231Z" style="fill:#254956"/><path d="M102.374,94.0731c-.2524-.83-.4443-1.47-.5958-1.97-.0606.04-.1313.08-.202.12a2.1639,2.1639,0,0,0,.1919-.13l-.5251-1.77a6.4139,6.4139,0,0,0-1.7876-1.16,19.64,19.64,0,0,0-3.979-1.4,38.2514,38.2514,0,0,0-4.12-.77c-1.6865-.23-3.6356-.4-5.8978-.48,2.07,1.5,2.6662,3.08,2.6459,4.44l0,.0113a5.4967,5.4967,0,0,1-.7976,2.6387c11.3208,2.01,14.5424,6.26,14.5424,6.26S103.5051,97.8231,102.374,94.0731Z" style="fill:#284f60"/></svg>