<svg id="Camada_1" data-name="Camada 1" xmlns="http://www.w3.org/2000/svg" viewBox="0 0 150 150"><rect x="0.0238" y="0.0021" width="150" height="150" style="fill:#afdee2"/><path d="M150.0238,56.2927v2.2392a5.1,5.1,0,0,1-.78.06H.0238V56.7053a7.5944,7.5944,0,0,1,3.88-.2708,17.5312,17.5312,0,0,0,4.52.6748c1.26-.0859,2.21-.5415,3.43-.7049,2.68-.3567,5.42.7908,8.18.5673,1.73-.1418,3.05-.8036,4.79-.9326,2.39-.1762,4.59.7006,7.01.6705a18.9654,18.9654,0,0,0,5.45-1.2034,33.9231,33.9231,0,0,1,8.03-1.2593,4.63,4.63,0,0,1,1.51.1074c.79.2493.53.7865,1,1.1562a6.11,6.11,0,0,0,2.92.5544c8.53.3009,17.13.1762,25.59-.37a6.6225,6.6225,0,0,0,1.83-.2836,6.21,6.21,0,0,0,.99-.6276,5.7345,5.7345,0,0,1,4.18-.1031,10.1479,10.1479,0,0,0,1.14.606,8.1561,8.1561,0,0,0,2.35.2579c8.83.1461,17.86.275,26.2705-.8768a17.4148,17.4148,0,0,1,3.93-.2622c1.72.1548,2.92.8295,4.52,1.1519,3.88.7779,8.69-.692,12.62.0386a11.3758,11.3758,0,0,0,3.41.4556,5.1571,5.1571,0,0,0,1.6905-.55,8.0681,8.0681,0,0,1,2.78-.765c1.11-.086,2.42.189,2.6.6662.06.1675-.02.3481.14.5028.4.3825,1.69.2836,2.66.2235A10.4176,10.4176,0,0,1,150.0238,56.2927Z" style="fill:#8aaa91"/><path d="M94.5947,23.6215a16.3191,16.3191,0,0,1,11.3532-4.967s1.4192-4.9671,8.5149-4.73c0,0,2.8384-3.3114,8.2785-1.4192,0,0,4.2574-3.0748,8.0418,2.1287,0,0,3.5479-1.8482,4.494,2.9786a4.8236,4.8236,0,0,1,5.9132,2.9346s4.2574.2365,5.44,3.0748Z" style="fill:#faffeb"/><path d="M5.86,36.73a16.32,16.32,0,0,1,11.3533-4.967s1.4191-4.9671,8.5149-4.73c0,0,2.8383-3.3114,8.2784-1.4192,0,0,4.2575-3.0748,8.0419,2.1287,0,0,3.5479-1.8482,4.494,2.9786a4.8235,4.8235,0,0,1,5.9131,2.9346s4.2575.2365,5.44,3.0748Z" style="fill:#faffeb"/><path d="M.0238,56.2927v2.2392a5.1008,5.1008,0,0,0,.78.06h149.22V56.7053a7.5942,7.5942,0,0,0-3.88-.2708,17.5312,17.5312,0,0,1-4.52.6748c-1.26-.0859-2.21-.5415-3.43-.7049-2.68-.3567-5.42.7908-8.18.5673-1.7305-.1418-3.05-.8036-4.79-.9326-2.39-.1762-4.59.7006-7.01.6705a18.9647,18.9647,0,0,1-5.45-1.2034,33.9247,33.9247,0,0,0-8.03-1.2593,4.6311,4.6311,0,0,0-1.51.1074c-.79.2493-.53.7865-1,1.1562a6.11,6.11,0,0,1-2.92.5544c-8.53.3009-17.13.1762-25.59-.37a6.6219,6.6219,0,0,1-1.83-.2836,6.2108,6.2108,0,0,1-.99-.6276,5.7343,5.7343,0,0,0-4.18-.1031,10.1582,10.1582,0,0,1-1.14.606,8.1557,8.1557,0,0,1-2.35.2579c-8.83.1461-17.86.275-26.27-.8768a17.4144,17.4144,0,0,0-3.93-.2622c-1.72.1548-2.92.8295-4.52,1.1519-3.88.7779-8.69-.692-12.62.0386a11.3764,11.3764,0,0,1-3.41.4556,5.1565,5.1565,0,0,1-1.69-.55,8.0686,8.0686,0,0,0-2.78-.765c-1.11-.086-2.42.189-2.6.6662-.06.1675.02.3481-.14.5028-.4.3825-1.69.2836-2.66.2235A10.4182,10.4182,0,0,0,.0238,56.2927Z" style="fill:#8aaa91"/><rect x="0.0038" y="58.042" width="150" height="91.9601" style="fill:#99bca0"/><path d="M150.1762,80.77v69.3h-150V79.89c21.11-4.41,46.14-6.96,72.97-6.96C101.7163,72.93,128.246,75.82,150.1762,80.77Z" style="fill:#92cacc"/><path d="M93.7989,92.52a1.3172,1.3172,0,0,0-.1-.15h.01Z" style="fill:#ba8e83"/><path d="M93.7989,92.52a1.3172,1.3172,0,0,0-.1-.15h.01Z" style="fill:#683d33"/><polygon points="96.156 94.094 95.996 93.97 95.967 93.946 96.051 93.907 96.127 93.914 96.156 94.094" style="fill:#0f0d0d"/><path d="M93.7989,92.52a1.3172,1.3172,0,0,0-.1-.15h.01Z" style="fill:#ba8e83"/><path d="M93.7989,92.52a1.3172,1.3172,0,0,0-.1-.15h.01Z" style="fill:#683d33"/><polygon points="96.156 94.094 95.996 93.97 95.967 93.946 96.051 93.907 96.127 93.914 96.156 94.094" style="fill:#0f0d0d"/><ellipse cx="138.6781" cy="73.6068" rx="2.6997" ry="0.5887" style="fill:#84a389"/><path d="M149.4612,50.9524a6.2239,6.2239,0,0,0-.7857-3.0875,4.69,4.69,0,0,0-.83-1.0684,4.4092,4.4092,0,0,0,.2965-1.5912,4.35,4.35,0,0,0-.0583-.7135,4.4167,4.4167,0,0,0-4.3594-3.7037,4.4754,4.4754,0,0,0-.675.0519c-.1008-1.8731-1.9213-3.6051-4.404-4.0464a5.7425,5.7425,0,0,0-4.3762.8645,3.8524,3.8524,0,0,0-.763-.4813,4.1075,4.1075,0,0,0-2.7425-.252,6.3148,6.3148,0,0,0-2.9828,1.7567,8.266,8.266,0,0,0-1.5763,2.265,8.1611,8.1611,0,0,0-.7887,2.9983,2.9814,2.9814,0,0,0-1.3105,1.2366,4.54,4.54,0,0,0-.5456,2.4248,5.9621,5.9621,0,0,0,.4112,1.9383,5.8178,5.8178,0,0,0,1.37,2.0775c-.0366.0271-.0741.0543-.11.0835a2.5663,2.5663,0,0,0-.5179.5836,1.5583,1.5583,0,0,0-.0978.1576,4.4718,4.4718,0,0,0,.8519,4.8744,4.7473,4.7473,0,0,0,4.0353,1.8753c.0128.04.0257.0788.04.1171a5.05,5.05,0,0,0,1.0081,1.691,8.6713,8.6713,0,0,0,11.7589.3593c.0465.0014.0929.0039.1394.0039a4.4119,4.4119,0,0,0,4.4177-4.4173c0-.0716-.0029-.1457-.0049-.2179a4.3138,4.3138,0,0,0-.1354-.8875A5.17,5.17,0,0,0,149.4612,50.9524Z" style="fill:#6a846f"/><path d="M141.5567,55.6325c-.4912.3944-.9666.8075-1.438,1.225q-.7041.6309-1.38,1.2942c-.2273.2194-.4477.4458-.671.67-.174.1848-.8223.8576-1.1623,1.2572l-.0227-1.4015-.1008-5.09q-.0342-1.5788-.0692-3.1542c.0781-.2787.166-.5544.255-.8292.0375-.1294.084-.2569.1225-.3849l.12-.386.12-.3869.1275-.3834q.2624-.7665.55-1.525c.1878-.5065.3854-1.01.588-1.5111v-.002a.0129.0129,0,0,0-.0059-.0153.0132.0132,0,0,0-.0158.0056c-.2352.4883-.4546.9827-.674,1.4793q-.32.7464-.6168,1.5042a15.1115,15.1115,0,0,0-.5376,1.5391c-.0158.0664-.0326.1321-.0494.1976q-.0711-3.1628-.1591-6.3276a.0715.0715,0,0,0-.0593-.0761c-.0336-.002-.0623.0326-.0633.0761-.0968,3.3931-.171,6.7864-.2461,10.18l-.0968,4.945-.004.1448-.002.174c-.0345-.1221-.0711-.2427-.1057-.3647a19.4567,19.4567,0,0,0-.7956-2.04q-.4329-1.0044-.9-1.9909c-.3163-.6553-.6365-1.31-.9765-1.9534a.0129.0129,0,0,0-.0188-.0065.0152.0152,0,0,0-.0079.0208q.4417.9962.8618,2.0018.4226,1.0044.8114,2.0216l.1908.51.1779.5129.18.512c.0584.1719.1256.3389.1839.5107.0889.2456.1779.4914.2609.7395h.001c.0425.1225.083.2453.1235.3681l-.0662,4.0724c-.0267,1.6964-.0751,3.3933-.1166,5.09l-.0228,1.2729c-.0049.4235-.0089.8475-.0089,1.2727q-.0014,1.0251.0168,2.053a.4963.4963,0,0,0,.254.4259.4878.4878,0,0,0,.2471.0653h.2422a.5011.5011,0,0,0,.501-.4912q.0163-1.0273.0158-2.053,0-.6378-.0088-1.2727l-.0228-1.2729c-.0405-1.6965-.09-3.3934-.1156-5.09l-.0455-2.7678-.0059-.3645c.2491-.3056.507-.6021.7669-.8978.4161-.4643.8075-.952,1.2354-1.4109q.6375-.6912,1.3076-1.3542c.4417-.4465.8944-.8835,1.352-1.3139a.018.018,0,0,0,.001-.0218A.0158.0158,0,0,0,141.5567,55.6325Z" style="fill:#77635d"/><ellipse cx="13.6873" cy="86.1099" rx="2.6842" ry="0.9791" style="fill:#6e8973"/><ellipse cx="11.0031" cy="107.5388" rx="6.8522" ry="2.4995" style="fill:#6a826e"/><ellipse cx="43.7813" cy="79.0376" rx="1.3421" ry="0.4896" style="fill:#708c75"/><ellipse cx="130.5751" cy="91.4229" rx="2.6842" ry="0.9791" style="fill:#6e8973"/><ellipse cx="109.9096" cy="79.0335" rx="1.3421" ry="0.4896" style="fill:#708c75"/><ellipse cx="7.6824" cy="63.5239" rx="1.1876" ry="0.2589" style="fill:#84a389"/><path d="M12.4256,53.5587a2.7373,2.7373,0,0,0-.3456-1.3581,2.0649,2.0649,0,0,0-.3651-.47,1.9406,1.9406,0,0,0,.13-.7,1.9105,1.9105,0,0,0-.0257-.3139A1.9427,1.9427,0,0,0,9.902,49.0877a1.9649,1.9649,0,0,0-.2969.0228,2.172,2.172,0,0,0-1.9372-1.78,2.5263,2.5263,0,0,0-1.925.38,1.6943,1.6943,0,0,0-.3356-.2117,1.807,1.807,0,0,0-1.2064-.1109,2.7783,2.7783,0,0,0-1.3121.7728,3.638,3.638,0,0,0-.6934.9963,3.59,3.59,0,0,0-.3469,1.3188,1.3118,1.3118,0,0,0-.5764.544,1.9967,1.9967,0,0,0-.24,1.0666,2.6218,2.6218,0,0,0,.1808.8527,2.56,2.56,0,0,0,.6026.9138c-.0161.0119-.0326.0239-.0483.0367a1.1351,1.1351,0,0,0-.2278.2567.7041.7041,0,0,0-.043.0694A1.9671,1.9671,0,0,0,1.8711,56.36a2.0885,2.0885,0,0,0,1.7751.8249c.0056.0174.0113.0347.0173.0515a2.2214,2.2214,0,0,0,.4435.7438A3.5608,3.5608,0,0,0,6.6689,59.071,3.5686,3.5686,0,0,0,9.28,58.1385c.02.0006.0408.0017.0613.0017a1.9407,1.9407,0,0,0,1.9432-1.943c0-.0316-.0013-.0642-.0021-.0959a1.9069,1.9069,0,0,0-.06-.39A2.2741,2.2741,0,0,0,12.4256,53.5587Z" style="fill:#7e9981"/><path d="M8.9486,55.6174c-.216.1735-.4251.3552-.6325.5389s-.4091.3747-.6069.5693c-.1.0965-.1969.196-.2952.2945-.0765.0813-.3617.3773-.5112.553l-.01-.6165-.0444-2.2389q-.015-.6943-.03-1.3874c.0343-.1226.073-.2439.1121-.3648.0166-.0569.037-.113.054-.1693l.0526-.17.0526-.17.056-.1687q.1155-.3372.2422-.6708c.0826-.2228.17-.4442.2587-.6647v-.0009l-.0027-.0067-.0069.0025c-.1035.2147-.2.4322-.2965.6506q-.1408.3284-.2713.6617a6.68,6.68,0,0,0-.2365.677c-.0069.0292-.0143.0582-.0217.087q-.0314-1.3914-.07-2.7834a.0314.0314,0,0,0-.0261-.0335c-.0148-.0009-.0274.0143-.0278.0335-.0426,1.4925-.0752,2.9852-.1083,4.4778l-.0426,2.1752-.0017.0637-.0009.0766c-.0152-.0537-.0313-.1068-.0465-.16a8.5814,8.5814,0,0,0-.35-.8973q-.19-.4417-.3961-.8757c-.1391-.2883-.28-.5761-.4295-.8593l-.0083-.0028L5.3,54.2467q.1943.4383.379.8806t.357.8892l.0839.2243.0782.2257.0791.2252c.0257.0756.0553.1491.0809.2246.0391.108.0783.2162.1148.3253h0c.0187.0539.0365.1079.0543.1619L6.498,59.1949c-.0117.7462-.033,1.4926-.0513,2.2389l-.01.56c-.0022.1863-.0039.3728-.0039.56q-.0006.451.0074.9031a.2184.2184,0,0,0,.1117.1874.2156.2156,0,0,0,.1087.0287h.1065a.22.22,0,0,0,.22-.2161q.0072-.452.007-.9031,0-.28-.0039-.56l-.01-.56c-.0178-.7463-.04-1.4927-.0509-2.2389l-.02-1.2175-.0026-.16c.11-.1345.223-.2649.3374-.395.183-.2042.3551-.4187.5434-.6206s.3786-.4015.5751-.5957c.1944-.1963.3935-.3886.5948-.5779l0-.01Z" style="fill:#7f6a7b"/></svg>