<svg id="Camada_1" data-name="Camada 1" xmlns="http://www.w3.org/2000/svg" viewBox="0 0 150 150"><rect x="0.0038" width="150" height="150" style="fill:#defcea"/><path d="M45.631,55.1951a5.219,5.219,0,0,0-2.85-2.03,1.2652,1.2652,0,0,0-.04-.19,4.8519,4.8519,0,0,0-8.07-2.51,4.3528,4.3528,0,0,0-1.91-.43,4.4663,4.4663,0,0,0-4.47,4.47v.01a4.5285,4.5285,0,0,0,.08,8.56,1.7942,1.7942,0,0,0-.01.23,2.4569,2.4569,0,0,0,.18.94,2.6976,2.6976,0,0,0,1.46,1.54,5.2625,5.2625,0,0,0,1.18,3.56,6.6411,6.6411,0,0,0,.62.67,6.7329,6.7329,0,0,0,2.7,1.55,1.4021,1.4021,0,0,0,.22.07v14.49h3.01V74.795a4.5788,4.5788,0,0,0,2.3-1.53,1.8013,1.8013,0,0,0,.16-.22,3.9035,3.9035,0,0,0,.34-.59h1.62a.5494.5494,0,0,0,.55-.47,1.2287,1.2287,0,0,0,.02-.21c0-.6-.69-.74-.69-.77a1.5728,1.5728,0,0,0-1.75-1.62,1.7191,1.7191,0,0,0-1.59,1.17.6314.6314,0,0,0-.05.12.5924.5924,0,0,1-.3095.35,1.2116,1.2116,0,0,0-.6.44v-3.42a6.7166,6.7166,0,0,0,3.81-2.35,5.4872,5.4872,0,0,0,1.13-2.53,5.1641,5.1641,0,0,0,3.89-5.02A5.096,5.096,0,0,0,45.631,55.1951Zm-13.12,8.11a1.47,1.47,0,0,1-2.94.01c.09,0,.17.01.26.01a4.5259,4.5259,0,0,0,2.28-.62c.12.14.25.28.38.41A1.1909,1.1909,0,0,1,32.5108,63.3051Zm-.37,5.28a4.0155,4.0155,0,0,1-.93-2.6,2.5782,2.5782,0,0,0,.83-.19,2.71,2.71,0,0,0,1.6-1.81,5.24,5.24,0,0,0,1.08.48v5.9A5.4487,5.4487,0,0,1,32.1407,68.5851Zm5.66,3.87h1.8a3.4184,3.4184,0,0,1-1.87,1.12v-1.14A.0841.0841,0,0,0,37.8009,72.4551Zm2.32-7.01a5.6819,5.6819,0,0,1-2.39,1.35v-2.23a5.4719,5.4719,0,0,0,2.51-1.37,5.4031,5.4031,0,0,0,1.15.13,4.9291,4.9291,0,0,1-.22.65A4.683,4.683,0,0,1,40.1212,65.4451Z" style="fill:#afe0bd"/><path d="M22.0582,53.4307a.9539.9539,0,0,0-.21-.09,3.2791,3.2791,0,0,0-1.7-2.17,3.9343,3.9343,0,0,0-3-3.43,4.1093,4.1093,0,0,0-3.47-2.01,4.036,4.036,0,0,0-3.24,1.68,2.7866,2.7866,0,0,0-1.3-.33,3.1138,3.1138,0,0,0-2.97,3.24v.05a2.8155,2.8155,0,0,0-2.27,1.3v4.54h2.1a2.01,2.01,0,0,0,1.43,1.24,3.8585,3.8585,0,0,0,1.33,2.44,5.027,5.027,0,0,0,3.04,1.21v11.59h2.22v-11.57a4.9671,4.9671,0,0,0,3.03-1.24,3.8961,3.8961,0,0,0,1.31-2.45,1.9959,1.9959,0,0,0,1.4-1.22h1.68a1.0517,1.0517,0,0,0,.4-.07A1.5218,1.5218,0,0,0,22.0582,53.4307Zm-15.03,2.78h1.66a1.15,1.15,0,0,1-.64.37A1.1037,1.1037,0,0,1,7.028,56.2108Zm2.32,3a2.9462,2.9462,0,0,1-1.01-1.78,1.9943,1.9943,0,0,0,1.38-1.22h2.08v3.98A4.0882,4.0882,0,0,1,9.3483,59.2108Zm7.1,0a4.1633,4.1633,0,0,1-2.43,1.01v-4.01h2.04a1.9923,1.9923,0,0,0,1.39,1.22A3.04,3.04,0,0,1,16.4484,59.2108Zm1.28-2.64a1.137,1.137,0,0,1-.64-.36h1.64A1.1186,1.1186,0,0,1,17.7282,56.5706Z" style="fill:#afe0bd"/><path d="M121.6682,64.1229a5.219,5.219,0,0,0-2.85-2.03,1.2622,1.2622,0,0,0-.04-.19,4.8519,4.8519,0,0,0-8.07-2.51,4.3511,4.3511,0,0,0-1.91-.43,4.4663,4.4663,0,0,0-4.47,4.47v.01a4.5285,4.5285,0,0,0,.08,8.56,1.8109,1.8109,0,0,0-.01.23,2.4552,2.4552,0,0,0,.18.94,2.6972,2.6972,0,0,0,1.46,1.54,5.2633,5.2633,0,0,0,1.18,3.56,6.6519,6.6519,0,0,0,.62.67,6.7335,6.7335,0,0,0,2.7,1.55,1.4067,1.4067,0,0,0,.22.07v14.49h3.01v-11.33a4.5783,4.5783,0,0,0,2.3-1.53,1.7915,1.7915,0,0,0,.16-.22,3.8943,3.8943,0,0,0,.34-.59h1.62a.5493.5493,0,0,0,.55-.47,1.2179,1.2179,0,0,0,.02-.21c0-.6-.69-.74-.69-.77a1.5728,1.5728,0,0,0-1.75-1.62,1.719,1.719,0,0,0-1.59,1.17.6221.6221,0,0,0-.05.12.5926.5926,0,0,1-.31.35,1.2116,1.2116,0,0,0-.6.44v-3.42a6.7172,6.7172,0,0,0,3.81-2.35,5.4885,5.4885,0,0,0,1.13-2.53,5.1644,5.1644,0,0,0,3.89-5.02A5.0952,5.0952,0,0,0,121.6682,64.1229Zm-13.12,8.11a1.47,1.47,0,0,1-2.94.01c.09,0,.17.01.26.01a4.526,4.526,0,0,0,2.28-.62c.12.14.25.28.38.41A1.2025,1.2025,0,0,1,108.5481,72.2328Zm-.37,5.28a4.0155,4.0155,0,0,1-.93-2.6,2.5794,2.5794,0,0,0,.83-.19,2.71,2.71,0,0,0,1.6-1.81,5.2433,5.2433,0,0,0,1.08.48v5.9A5.4477,5.4477,0,0,1,108.178,77.5129Zm5.66,3.87h1.8a3.4183,3.4183,0,0,1-1.87,1.12v-1.14A.0839.0839,0,0,0,113.8381,81.3829Zm2.32-7.01a5.6823,5.6823,0,0,1-2.39,1.35v-2.23a5.4723,5.4723,0,0,0,2.51-1.37,5.4031,5.4031,0,0,0,1.15.13,4.93,4.93,0,0,1-.22.65A4.6814,4.6814,0,0,1,116.1584,74.3729Z" style="fill:#afe0bd"/><path d="M97.3426,61.184a6.5568,6.5568,0,0,0-3.5809-2.55,1.5886,1.5886,0,0,0-.05-.2387,6.096,6.096,0,0,0-10.1391-3.1536,5.4687,5.4687,0,0,0-2.4-.54,5.6114,5.6114,0,0,0-5.6159,5.6162V60.33a5.69,5.69,0,0,0,.1006,10.7549,2.263,2.263,0,0,0-.0129.289,3.0873,3.0873,0,0,0,.2264,1.1811A3.389,3.389,0,0,0,77.7049,74.49a6.6125,6.6125,0,0,0,1.4822,4.4728,8.3671,8.3671,0,0,0,.7791.8418,8.46,8.46,0,0,0,3.3926,1.9474,1.7741,1.7741,0,0,0,.2761.0879V100.045H87.417V85.81a5.7523,5.7523,0,0,0,2.8895-1.9222,2.2645,2.2645,0,0,0,.2013-.2765,4.9,4.9,0,0,0,.427-.7413H92.97a.69.69,0,0,0,.6908-.59,1.5336,1.5336,0,0,0,.0251-.2637c0-.754-.8668-.93-.8668-.9675a1.9761,1.9761,0,0,0-2.1987-2.0356,2.16,2.16,0,0,0-1.9976,1.47.7868.7868,0,0,0-.0631.1508.745.745,0,0,1-.389.44,1.523,1.523,0,0,0-.754.5528V77.329a8.4394,8.4394,0,0,0,4.7871-2.9526,6.8952,6.8952,0,0,0,1.42-3.1788,6.4884,6.4884,0,0,0,4.887-6.3072A6.4026,6.4026,0,0,0,97.3426,61.184Zm-16.4843,10.19a1.8469,1.8469,0,0,1-3.6938.0125c.1128,0,.2134.0126.3269.0126a5.6855,5.6855,0,0,0,2.8644-.779c.1509.176.3141.3519.4773.5151A1.5018,1.5018,0,0,1,80.8583,71.3736Zm-.4651,6.6339a5.0444,5.0444,0,0,1-1.168-3.2667,3.2394,3.2394,0,0,0,1.0429-.2388,3.4048,3.4048,0,0,0,2.01-2.274,6.588,6.588,0,0,0,1.357.6031v7.4127A6.8449,6.8449,0,0,1,80.3932,78.0075ZM87.5048,82.87h2.2613A4.294,4.294,0,0,1,87.417,84.277V82.8447A.106.106,0,0,0,87.5048,82.87ZM90.42,74.0623a7.1384,7.1384,0,0,1-3.003,1.6962V72.9567A6.8746,6.8746,0,0,0,90.57,71.2354a6.7844,6.7844,0,0,0,1.4448.1633,6.1813,6.1813,0,0,1-.2761.8167A5.8814,5.8814,0,0,1,90.42,74.0623Z" style="fill:#79aa87"/><rect x="0.0038" y="82.3101" width="150" height="67.6899" style="fill:#9ac191"/><rect x="0.0038" y="128.45" width="150" height="21.55" style="fill:#88b27e"/><rect x="0.0038" y="81.96" width="150" height="18.3301" style="fill:#9ac191"/><path d="M150.0038,72.5136V92.05h-150V77.5854c.1-.02.2-.0461.3-.0724.39-.0857.79-.1713,1.19-.2437a7.97,7.97,0,0,1,.61-1.6073,10.0183,10.0183,0,0,1,1.84-2.5358,12.7687,12.7687,0,0,1,1.69-1.4491,16.6989,16.6989,0,0,1,3.27-1.8575,22.2588,22.2588,0,0,1,5.66-1.5809,25.0789,25.0789,0,0,1,3.7-.27,22.3179,22.3179,0,0,1,11.67,3.0563,22.6007,22.6007,0,0,1,6.7-.988,22.8347,22.8347,0,0,1,4.26.3886,16.1467,16.1467,0,0,1,9.47,4.9533,7.6656,7.6656,0,0,1,1.95,4.9862v.02a16.373,16.373,0,0,1,8.06,4.2748,7.662,7.662,0,0,1,.66.7443h52.76a1.98,1.98,0,0,1-.25-.81v-.0132a2.0635,2.0635,0,0,1,.41-1.4293c.07-.0923.14-.1845.21-.2767l.01-.0132a8.3361,8.3361,0,0,1,1.02-1.0934,11.5554,11.5554,0,0,1,6.28-2.7334,12.6248,12.6248,0,0,1,1.74-.1186c.43-3.2012,3.94-5.691,8.21-5.691a10.2577,10.2577,0,0,1,3.51.606,9.3052,9.3052,0,0,1,.91-.639,13.022,13.022,0,0,1,3.74-1.6533,15.1736,15.1736,0,0,1,3.92-.5071,15.5037,15.5037,0,0,1,2.43.191A13.8028,13.8028,0,0,1,150.0038,72.5136Z" style="fill:#6e9b74"/><path d="M7.7745,66.0375H9.5568a8.3321,8.3321,0,0,1-1.3734,2.5072,10.0354,10.0354,0,0,1-5.5942,3.481V69.2305A8.1352,8.1352,0,0,0,7.7745,66.0375Z" style="fill:#6d675c"/><path d="M2.953,67.333H14.6654a1.9409,1.9409,0,0,0,.7079-3.7483l-.0461-.0175a3.419,3.419,0,0,0-4.9908-3.9508A4.25,4.25,0,0,0,2.7246,63.15l-.0631.0083A2.0976,2.0976,0,0,0,2.953,67.333Z" style="fill:#567c60"/><path d="M12.5839,43.23l.21.02c.03-.05.06-.1.09-.14A2.6721,2.6721,0,0,0,12.5839,43.23Zm0,0,.21.02c.03-.05.06-.1.09-.14A2.6721,2.6721,0,0,0,12.5839,43.23Zm0,0,.21.02c.03-.05.06-.1.09-.14A2.6721,2.6721,0,0,0,12.5839,43.23Zm0,0,.21.02c.03-.05.06-.1.09-.14A2.6721,2.6721,0,0,0,12.5839,43.23Zm0,0,.21.02c.03-.05.06-.1.09-.14A2.6721,2.6721,0,0,0,12.5839,43.23Zm0,0,.21.02c.03-.05.06-.1.09-.14A2.6721,2.6721,0,0,0,12.5839,43.23Zm0,0,.21.02c.03-.05.06-.1.09-.14A2.6721,2.6721,0,0,0,12.5839,43.23Zm0,0,.21.02c.03-.05.06-.1.09-.14A2.6721,2.6721,0,0,0,12.5839,43.23Zm0,0,.21.02c.03-.05.06-.1.09-.14A2.6721,2.6721,0,0,0,12.5839,43.23Zm0,0,.21.02c.03-.05.06-.1.09-.14A2.6721,2.6721,0,0,0,12.5839,43.23Zm0,0,.21.02c.03-.05.06-.1.09-.14A2.6721,2.6721,0,0,0,12.5839,43.23Zm0,0,.21.02c.03-.05.06-.1.09-.14A2.6721,2.6721,0,0,0,12.5839,43.23Zm0,0,.21.02c.03-.05.06-.1.09-.14A2.6721,2.6721,0,0,0,12.5839,43.23Zm0,0,.21.02c.03-.05.06-.1.09-.14A2.6721,2.6721,0,0,0,12.5839,43.23Zm0,0,.21.02c.03-.05.06-.1.09-.14A2.6721,2.6721,0,0,0,12.5839,43.23Zm0,0,.21.02c.03-.05.06-.1.09-.14A2.6721,2.6721,0,0,0,12.5839,43.23Zm0,0,.21.02c.03-.05.06-.1.09-.14A2.6721,2.6721,0,0,0,12.5839,43.23Zm0,0,.21.02c.03-.05.06-.1.09-.14A2.6721,2.6721,0,0,0,12.5839,43.23Zm0,0,.21.02c.03-.05.06-.1.09-.14A2.6721,2.6721,0,0,0,12.5839,43.23Zm0,0,.21.02c.03-.05.06-.1.09-.14A2.6721,2.6721,0,0,0,12.5839,43.23Zm0,0,.21.02c.03-.05.06-.1.09-.14A2.6721,2.6721,0,0,0,12.5839,43.23Zm0,0,.21.02c.03-.05.06-.1.09-.14A2.6721,2.6721,0,0,0,12.5839,43.23Zm0,0,.21.02c.03-.05.06-.1.09-.14A2.6721,2.6721,0,0,0,12.5839,43.23Zm0,0,.21.02c.03-.05.06-.1.09-.14A2.6721,2.6721,0,0,0,12.5839,43.23Zm0,0,.21.02c.03-.05.06-.1.09-.14A2.6721,2.6721,0,0,0,12.5839,43.23Zm0,0,.21.02c.03-.05.06-.1.09-.14A2.6721,2.6721,0,0,0,12.5839,43.23Zm0,0,.21.02c.03-.05.06-.1.09-.14A2.6721,2.6721,0,0,0,12.5839,43.23Zm7.69-1.52a5.6745,5.6745,0,0,0-1.67-1.64c-.09-.06-.17-.11-.26-.16a5.8015,5.8015,0,0,0-1.84-.67,5.7377,5.7377,0,0,0-4.3.93,4.6341,4.6341,0,0,0-.93.78,5.6824,5.6824,0,0,0-1.5,2.88c-.01.03-.01.06-.02.09a5.0482,5.0482,0,0,0-.08,1.28,5.5248,5.5248,0,0,0,.16,1.16c.03.1.05.19.08.28v.01l.01.01a5.8159,5.8159,0,0,0,4.15,3.94,8.7968,8.7968,0,0,1-2.98,5.19,11.1215,11.1215,0,0,1-3.41,2.05h-.01a12.5289,12.5289,0,0,1-3.48.81,1.95,1.95,0,0,1-.25.02c-.23.02-.47.03-.71.03l.02.98v.01l.02,1.64c.22,0,.45-.01.67-.02.57-.04,1.13-.1,1.69-.19a14.482,14.482,0,0,0,4.64-1.58,14.2,14.2,0,0,0,2.57-1.78,13.0377,13.0377,0,0,0,1.72-1.86,10.8593,10.8593,0,0,0,2.16-5.27,5.8246,5.8246,0,0,0,4.29-3.97c.04-.1.0595-.2.09-.3a1.8535,1.8535,0,0,0,.05-.23c.01-.05.02-.09.03-.14a1.1372,1.1372,0,0,0,.02-.18A5.7165,5.7165,0,0,0,20.2738,41.71Zm-2.13,4.95a3.16,3.16,0,0,1-3.24,1.42,3.2015,3.2015,0,0,1-2.12-1.42c-.06-.1-.11-.2-.16-.3a3.209,3.209,0,0,1-.28-1.97c.02-.1.04-.2.06-.29a3.3014,3.3014,0,0,1,.22-.55c.05-.1.11-.2.17-.3.03-.05.06-.1.09-.14V43.1a3.1793,3.1793,0,0,1,5.66,1.07,2.9126,2.9126,0,0,1,.07,1.18,1.1368,1.1368,0,0,1-.02.17,2.9828,2.9828,0,0,1-.28.84A1.7636,1.7636,0,0,1,18.1439,46.66Zm-5.56-3.43.21.02c.03-.05.06-.1.09-.14A2.6721,2.6721,0,0,0,12.5839,43.23Zm0,0,.21.02c.03-.05.06-.1.09-.14A2.6721,2.6721,0,0,0,12.5839,43.23Zm0,0,.21.02c.03-.05.06-.1.09-.14A2.6721,2.6721,0,0,0,12.5839,43.23Zm0,0,.21.02c.03-.05.06-.1.09-.14A2.6721,2.6721,0,0,0,12.5839,43.23Zm0,0,.21.02c.03-.05.06-.1.09-.14A2.6721,2.6721,0,0,0,12.5839,43.23Zm0,0,.21.02c.03-.05.06-.1.09-.14A2.6721,2.6721,0,0,0,12.5839,43.23Zm0,0,.21.02c.03-.05.06-.1.09-.14A2.6721,2.6721,0,0,0,12.5839,43.23Zm0,0,.21.02c.03-.05.06-.1.09-.14A2.6721,2.6721,0,0,0,12.5839,43.23Zm0,0,.21.02c.03-.05.06-.1.09-.14A2.6721,2.6721,0,0,0,12.5839,43.23Zm0,0,.21.02c.03-.05.06-.1.09-.14A2.6721,2.6721,0,0,0,12.5839,43.23Zm0,0,.21.02c.03-.05.06-.1.09-.14A2.6721,2.6721,0,0,0,12.5839,43.23Zm0,0,.21.02c.03-.05.06-.1.09-.14A2.6721,2.6721,0,0,0,12.5839,43.23Zm0,0,.21.02c.03-.05.06-.1.09-.14A2.6721,2.6721,0,0,0,12.5839,43.23Zm0,0,.21.02c.03-.05.06-.1.09-.14A2.6721,2.6721,0,0,0,12.5839,43.23Zm0,0,.21.02c.03-.05.06-.1.09-.14A2.6721,2.6721,0,0,0,12.5839,43.23Zm0,0,.21.02c.03-.05.06-.1.09-.14A2.6721,2.6721,0,0,0,12.5839,43.23Zm0,0,.21.02c.03-.05.06-.1.09-.14A2.6721,2.6721,0,0,0,12.5839,43.23Zm0,0,.21.02c.03-.05.06-.1.09-.14A2.6721,2.6721,0,0,0,12.5839,43.23Zm0,0,.21.02c.03-.05.06-.1.09-.14A2.6721,2.6721,0,0,0,12.5839,43.23Zm0,0,.21.02c.03-.05.06-.1.09-.14A2.6721,2.6721,0,0,0,12.5839,43.23Zm0,0,.21.02c.03-.05.06-.1.09-.14A2.6721,2.6721,0,0,0,12.5839,43.23Zm0,0,.21.02c.03-.05.06-.1.09-.14A2.6721,2.6721,0,0,0,12.5839,43.23Zm0,0,.21.02c.03-.05.06-.1.09-.14A2.6721,2.6721,0,0,0,12.5839,43.23Zm0,0,.21.02c.03-.05.06-.1.09-.14A2.6721,2.6721,0,0,0,12.5839,43.23Zm0,0,.21.02c.03-.05.06-.1.09-.14A2.6721,2.6721,0,0,0,12.5839,43.23Zm0,0,.21.02c.03-.05.06-.1.09-.14A2.6721,2.6721,0,0,0,12.5839,43.23Zm0,0,.21.02c.03-.05.06-.1.09-.14A2.6721,2.6721,0,0,0,12.5839,43.23Z" style="fill:#6d675c"/><path d="M.3041,63.6a2.2618,2.2618,0,0,1-.3.55V61.52a2.0289,2.0289,0,0,1,.3.56A2.2684,2.2684,0,0,1,.3041,63.6Z" style="fill:#689676"/><path d="M28.4237,45.3a1.7262,1.7262,0,0,1-1.63,1.06H.0038V20h.2a14.7873,14.7873,0,0,1,7.7,2.13c.31.18.61.38.9.58a12.0009,12.0009,0,0,1,1.32,1.06,11.0206,11.0206,0,0,1,.99.95,15.3193,15.3193,0,0,1,1.66,2.1,16.3258,16.3258,0,0,1,1.03,1.88,2.7424,2.7424,0,0,1,.41-.12,10.82,10.82,0,0,1,4.7-.39,9.994,9.994,0,0,1,1.21.23c.3.08.6.16.89.26a11.009,11.009,0,0,1,2.84,1.49,10.8342,10.8342,0,0,1,2.65,2.75c.1.14.19.29.28.44a10.8953,10.8953,0,0,1,1.51,4.37,11.6035,11.6035,0,0,1,.07,1.32c0,.34-.02.68-.05,1.02a10.31,10.31,0,0,1-.36,1.93v.01c-.1.34-.21.67-.34,1a.0516.0516,0,0,1,.04.02A1.7163,1.7163,0,0,1,28.4237,45.3Z" style="fill:#567c60"/><rect x="146.0038" y="65.49" width="4" height="44.74" style="fill:#6b6661"/><path d="M150.0038,103.9691v8.05h-11.45a1.95,1.95,0,0,1-1.94-1.64,5.9745,5.9745,0,0,1-.05-.76c0-2.09,2.4-2.57,2.4-2.69,0-3.82,2.75-5.7,6.14-5.7A5.9584,5.9584,0,0,1,150.0038,103.9691Z" style="fill:#68876f"/><polyline points="84.044 150 150.004 150 150.004 131.74" style="fill:none"/><polyline points="0.004 11.26 0.004 1.72 0.004 0 0.874 0 0.884 0" style="fill:none"/><path d="M150.0038,16.195v53.89a19.4059,19.4059,0,0,1-12.86-5.37,18.5084,18.5084,0,0,1-4.03.45h-.03a17.7742,17.7742,0,0,1-4.47-.57,18.2047,18.2047,0,0,1-2.64-.89c-.33-.14-.6-.29-.91-.44a.01.01,0,0,0-.01-.01h-.04c-.35-.17-.6905-.36-1.03-.55a17.9314,17.9314,0,0,1-3.35-2.52,16.4885,16.4885,0,0,1-1.7-1.84,17.3735,17.3735,0,0,1-1.54-2.24,17.8221,17.8221,0,0,1-1.22-2.57c-.02-.04-.03-.09-.05-.13-.05-.14-.1-.28-.14-.42a3.712,3.712,0,0,1-.16-.47c-.11-.33-.21-.67-.29-1.02a.3426.3426,0,0,1-.03-.09c-.02-.07-.03-.13-.05-.2-.08-.34-.15-.68-.21-1.03q-.1055-.63-.18-1.29c0-.03-.01-.06-.01-.09s-.01-.05-.01-.08c0-.04-.01-.07-.01-.11-.04-.52-.07-1.05-.07-1.58a5.7159,5.7159,0,0,1,.02-.59.014.014,0,0,1,0-.02,16.4852,16.4852,0,0,1,.21-2.24c.01-.11.03-.2.05-.31v-.01c.08-.45.18-.9.29-1.34.1-.39.21-.77.34-1.15l.01-.01a11.8425,11.8425,0,0,1,.52-1.4,17.522,17.522,0,0,1,2-3.56c.31-.42.63-.83.98-1.22q.18-.225.39-.45a18.7505,18.7505,0,0,1,4.89-3.76,18.2667,18.2667,0,0,1,3.55-1.42c.02-.13.05-.26.07-.39a16.725,16.725,0,0,1,1.22-3.78,17.1464,17.1464,0,0,1,5.49-6.7,16.9168,16.9168,0,0,1,9.99-3.24A16.6718,16.6718,0,0,1,150.0038,16.195Z" style="fill:#4e7159"/><rect y="46.36" width="3.9502" height="43.48" style="fill:#6d675c"/><path d="M13.3441,96.69H.0038V88.67a1.5291,1.5291,0,0,1,.3-.03,4.9176,4.9176,0,0,1,.67-.04,7.1905,7.1905,0,0,1,2.97.63,7.3027,7.3027,0,0,1,3.25,2.82,4.642,4.642,0,0,1,.31.54,5.0414,5.0414,0,0,1,.96-.09A4.9343,4.9343,0,0,1,13.3441,96.69Z" style="fill:#68876f"/><path d="M99.934,0V44.12c0,.1827-.3.33-.66.33-.37,0-.66-.1475-.66-.33V0Z" style="fill:#687767"/><path d="M33.2836,0V31.25a.55.55,0,1,1-1.1,0V0Z" style="fill:#687767"/><path d="M67.3939,0h-1.31a10.3669,10.3669,0,0,1,.06,1.12V20.41c0,6.42-6.06,11.64-13.51,11.64s-13.51-5.22-13.51-11.64V1.12A10.3414,10.3414,0,0,1,39.184,0h-1.31a10.3669,10.3669,0,0,0-.06,1.12V20.41c0,7.04,6.65,12.77,14.82,12.77s14.82-5.73,14.82-12.77V1.12A10.3414,10.3414,0,0,0,67.3939,0Z" style="fill:#687767"/><rect x="55.3422" y="81.3628" width="61.6816" height="7.0671" style="fill:#6e9b74"/></svg>