<svg id="Camada_1" data-name="Camada 1" xmlns="http://www.w3.org/2000/svg" viewBox="0 0 150 150"><rect x="0.0206" y="0.0021" width="150" height="150" style="fill:#f7eae2"/><rect x="0.0206" y="81.4821" width="150" height="68.52" style="fill:#c8ccb0"/><path d="M149.9977,79.52v2.4826a4.6111,4.6111,0,0,1-.78.0667H-.0023V79.9775a6.8879,6.8879,0,0,1,3.88-.3,15.9444,15.9444,0,0,0,4.52.7481c1.26-.0953,2.21-.6,3.43-.7815,2.68-.3954,5.42.8768,8.18.629,1.73-.1572,3.05-.891,4.79-1.034,2.39-.1954,4.59.7767,7.01.7434a17.4032,17.4032,0,0,0,5.45-1.3342,30.8788,30.8788,0,0,1,8.03-1.3962,4.1929,4.1929,0,0,1,1.51.1191c.79.2764.53.872,1,1.2818a5.6014,5.6014,0,0,0,2.92.6147,232.4969,232.4969,0,0,0,25.59-.41,6.0237,6.0237,0,0,0,1.83-.3145,6.1642,6.1642,0,0,0,.99-.6957,5.2141,5.2141,0,0,1,4.18-.1143,9.8629,9.8629,0,0,0,1.14.6718,7.396,7.396,0,0,0,2.35.2859c8.83.162,17.86.305,26.2705-.972a15.7391,15.7391,0,0,1,3.93-.2907c1.72.1716,2.92.92,4.52,1.277,3.88.8625,8.69-.7671,12.62.0429a10.3353,10.3353,0,0,0,3.41.5051,4.8176,4.8176,0,0,0,1.69-.61,7.472,7.472,0,0,1,2.78-.8482c1.11-.0953,2.42.21,2.6.7386.06.1858-.02.3859.14.5575.4.4241,1.6905.3145,2.66.2478A9.4179,9.4179,0,0,1,149.9977,79.52Z" style="fill:#afbca0"/><path d="M94.5947,23.6215a16.3191,16.3191,0,0,1,11.3532-4.967s1.4192-4.9671,8.5149-4.73c0,0,2.8384-3.3114,8.2785-1.4192,0,0,4.2574-3.0748,8.0418,2.1287,0,0,3.5479-1.8482,4.494,2.9786a4.8236,4.8236,0,0,1,5.9132,2.9346s4.2574.2365,5.44,3.0748Z" style="fill:#f3fffb"/><path d="M5.86,36.73a16.32,16.32,0,0,1,11.3533-4.967s1.4191-4.9671,8.5149-4.73c0,0,2.8383-3.3114,8.2784-1.4192,0,0,4.2575-3.0748,8.0419,2.1287,0,0,3.5479-1.8482,4.494,2.9786a4.8235,4.8235,0,0,1,5.9131,2.9346s4.2575.2365,5.44,3.0748Z" style="fill:#f3fffb"/><path d="M19.5806,149.2021c.59-.5,6.35-4.66,6.15-5.09-.09-.16-6.37,3.61-6.96,3.97.38-.63,7.93-10.48,7.64-10.74-.22,0-8.31,9.4-8.76,9.93.18-.73,3.94-13.82,3.57-14-.15,0-4.67,13.04-4.93,13.68-.06-.54-.33-15.3-.64-15.32-.14,0-.59,14.81-.65,15.32-.28-.71-4.38-16.61-4.84-16.61-.17.03,3.32,16.25,3.48,16.93-.49-.57-6.94-10.78-7.3-10.58-.18.1,5.82,10.8,6.18,11.39-.62-.38-9.35-7.4-9.59-7.13,0,.19,8.25,7.8,8.78,8.25-.68-.17-8.44-2.66-8.56-2.38,0,.11,4.62,2.16,6.94,3.18h11.18c2.26-.92,6.66-2.76,6.61-3.07C27.8306,146.722,20.2608,149.042,19.5806,149.2021Z" style="fill:#b5987c"/><g style="opacity:0.5700000000000001"><path d="M7.6006,107.5321c-.02-.08-2.85.79-3.1.85a18.2845,18.2845,0,0,0,2.3-1.91c-.11,0-2.39,1.35-2.61,1.49.15-.24,2.97-3.92,2.86-4.02-.07,0-3.11,3.52-3.28,3.72.07-.28,1.48-5.17,1.34-5.24-.06,0-1.75,4.88-1.85,5.12-.0205-.2-.12-5.73-.2305-5.73-.0595,0-.23,5.54-.25,5.73-.1-.27-1.64-6.21-1.8095-6.21,0,.27,1.24,6.08,1.3,6.33-.14-.17-1.5-2.32-2.25-3.38v.37c.65,1.21,1.74,3.16,1.83,3.31-.12-.07-.98-.75-1.83-1.41v.43c.74.68,1.44,1.32,1.53,1.4-.12-.03-.82-.25-1.53-.46v.35c.66.29,1.29.57,1.4.61-.14.02-.79-.03-1.4-.05v.31c1.06.2,2.48.36,2.85.38a21.4251,21.4251,0,0,0,4.36-.7c0-.01-2.32.07-2.57.05A23.2982,23.2982,0,0,0,7.6006,107.5321Z" style="fill:#b5987c"/></g><path d="M150.0206,56.0121v1.41c-.36.82-.73,1.65-1.1,2.47-.21.46-.43.93-.64,1.39a3.6585,3.6585,0,0,1-.52.9,2.787,2.787,0,0,1-.78.58c-.67.34-6.03,2.94-8.04,3.92-1.21.59-2.4,1.2-3.59,1.82a4.5728,4.5728,0,0,0-1.49.99,2.3412,2.3412,0,0,1-.11.23,1.3927,1.3927,0,0,0-.1.35s-.01.05-.01.06c0,.03-.02.35-.03.89-.02.43-.05,1.01-.07,1.69-.05,1.55-.12,3.67-.18,5.91-.03.94-.05,1.91-.07,2.86-.01.2-.01.39-.02.59-.04,2.17-.07,4.25-.06,5.89v.01c.01,1.34.04,2.38.1,2.93h-3.77a8.1087,8.1087,0,0,0,.28-1.27c.01-.01,0-.01,0-.01.04-.2.07-.41.1-.64v-.01c.07-.43.13-.91.19-1.43.04-.34.08-.69.12-1.07v-.01c.15-1.33.29-2.83.43-4.39.01-.2.03-.39.05-.59.09-.98.17-1.98.25-2.95.05-.57.1-1.14.16-1.69v-.05a64.6462,64.6462,0,0,1,.84-7.08,3.2941,3.2941,0,0,1,2.12-2.22c1.98-.85,3.93-1.78,5.88-2.7,1.36-.64,6.56-3.11,6.56-3.11.05-.02.1-.05.14-.07.03-.02.19-.14.2-.14a6.6567,6.6567,0,0,0,.93-1.51c.04-.09.09-.18.14-.27.1-.18.19-.36.3-.53.43-.8.89-1.59,1.34-2.38C149.7208,56.5221,149.8707,56.2721,150.0206,56.0121Z" style="fill:#cc977a"/><path d="M133.61,71.0221c2.95-.66,10.91-3.29,16.41-5.16v1.04c-5.77,2.06-13.86,4.86-16.48,5.81-.42.16-.7.26-.81.31a8.8791,8.8791,0,0,1-.08-1.85A6.009,6.009,0,0,0,133.61,71.0221Z" style="fill:#cc977a"/><path d="M127.3505,74.6558c-3.9023-2.8369-18.251-9.581-19.0069-10.59-.3926-.5229-3.1142-7.4165-3.6211-8.7856.8633,1.6186,3.4443,6.92,4.001,7.873.3594.62,15.4122,7.0049,18.5479,8.9673A19.2448,19.2448,0,0,1,127.3505,74.6558Z" style="fill:#cc977a"/><path d="M147.9335,60.0362q-1.2406-.6218-2.4814-1.2432a3.3134,3.3134,0,0,1-1.4512-1.1025c-.542-.9482-.1435-2.1006.0186-3.105q.2358-1.4319.4668-2.8633-.1466,2.0376-.293,4.0772a2.5154,2.5154,0,0,0,.1846,1.5093,1.77,1.77,0,0,0,.7451.624c1.0244.4868,2.1338.8408,3.1885,1.2554C148.1874,59.4708,148.06,59.7535,147.9335,60.0362Z" style="fill:#cc977a"/><path d="M137.4335,60.1622q-1.1337-.7559-2.2714-1.5112-.8922-.5948-1.7862-1.189c-.5976-.3985-1.2461-.7661-1.8037-1.22-1.1875-.9654-.9873-2.4717-.9951-3.8389q-.0074-1.4238-.0166-2.8477.1,1.361.1973,2.7217c.0918,1.2451-.06,2.773,1.081,3.5923a19.7923,19.7923,0,0,0,1.7451,1.0186q.9347.5339,1.8682,1.07,1.2348.7068,2.4707,1.4145C137.76,59.6358,137.5976,59.8985,137.4335,60.1622Z" style="fill:#cc977a"/><path d="M116.6464,61.293q1.4076-.7119,2.8134-1.4238,1.16-.5866,2.3233-1.1753a25.2963,25.2963,0,0,0,2.295-1.1787,2.0274,2.0274,0,0,0,.8564-1.8164c-.0029-.8535-.0039-1.7075-.0078-2.5615q-.0073-1.6362-.0117-3.272.0952,1.6326.1943,3.2661c.0518.8521.1006,1.7051.1533,2.5576a2.4635,2.4635,0,0,1-.6894,2.0074,10.8859,10.8859,0,0,1-2.1515,1.3252q-1.1954.6942-2.3965,1.3872-1.4677.851-2.9365,1.7C116.9422,61.838,116.7948,61.565,116.6464,61.293Z" style="fill:#cc977a"/><path d="M140.4726,56.9708c-.51-.3374-1.0215-.6748-1.53-1.0127a6.7755,6.7755,0,0,1-2.2539-1.79,4.1916,4.1916,0,0,1-.166-2.3193c.0508-.6489.0977-1.2974.1475-1.9458-.0078.6123-.0157,1.2226-.0225,1.835a4.1461,4.1461,0,0,0,.27,2.2963,6.5881,6.5881,0,0,0,2.2588,1.5464q.7939.4578,1.5889.916C140.6669,56.6544,140.5693,56.8135,140.4726,56.9708Z" style="fill:#cc977a"/><path d="M129.8339,60.3922a2.3638,2.3638,0,0,1-.4326-.8877H129.17a2.3493,2.3493,0,0,0,.37,1.1631c.5547.7036,3.3115,1.9121,3.8213,2.1679.0713-.1582.1455-.3149.2187-.4731A17.78,17.78,0,0,1,129.8339,60.3922Z" style="fill:#cc977a"/><path d="M132.5957,56.941q-.88-.2528-1.7627-.5054a6.7521,6.7521,0,0,1-2.6885-1.0273,4.1578,4.1578,0,0,1-.8555-2.1626q-.2256-.9492-.4473-1.8989.2652.8788.5323,1.7563a4.1278,4.1278,0,0,0,.9492,2.1079,6.5844,6.5844,0,0,0,2.6191.7959c.5967.13.7539.0947,1.3506.2246C132.4453,56.4932,132.6415,56.76,132.5957,56.941Z" style="fill:#cc977a"/><path d="M122.1424,58.8878q-1.018-.6453-2.04-1.2876a8.5678,8.5678,0,0,1-2.6094-1.99,5.4716,5.4716,0,0,1-.7216-2.664q-.1466-1.2606-.293-2.52.17,1.01.34,2.021a6.496,6.496,0,0,0,1.0049,3.1475,10.3226,10.3226,0,0,0,2.7139,1.751q.9462.5318,1.8906,1.063Q122.2856,58.649,122.1424,58.8878Z" style="fill:#cc977a"/><path d="M107.9745,62.9371q-.9669-.1268-1.9336-.2544a6.3786,6.3786,0,0,1-2.587-.6553c-1.2871-.7861-1.8222-2.3681-2.4833-3.6528q.5331.8166,1.0683,1.6313A4.0492,4.0492,0,0,0,103.617,61.6,5.9465,5.9465,0,0,0,106.1,61.96c.6474.0171,1.2969.0357,1.9462.0523C108.0234,62.32,107.9969,62.629,107.9745,62.9371Z" style="fill:#cc977a"/><path d="M141.1807,50.1921a1.1433,1.1433,0,0,0-.21-.03v.01a.1145.1145,0,0,0-.02.07v.06c-.08.54-.16,1.07-.23,1.61a.0361.0361,0,0,0-.01.03c-.03.21-.06.43-.09.64-.07.47-.13.93-.2,1.4-.07.53-.15,1.07-.22,1.6-.03.18-.05.36-.08.54-.02.19-.05.38-.08.57-.02.17-.05.34-.07.5a2.6862,2.6862,0,0,1-.2.8c-.01,0-.17.16-.27.24-.01,0-.73.48-.98.64-.13.08-.37.24-.69.45-.24.16-.52.34-.84.55-1.05.69-2.45,1.61-3.64,2.39-.17.12-.34.23-.5.33-.59.39-1.09.72-1.45.95a4.404,4.404,0,0,0-1.86,1.74,2.6733,2.6733,0,0,0-.22,1.05c-.01.46-.03,5.61-.05,11.11v.01c0,.39,0,.79-.01,1.18,0,.95,0,1.91-.01,2.85.01.2,0,.39,0,.59,0,1.89-.01,3.67-.02,5.16v.5c0,.32,0,.62-.01.91,0,1,0,1.79-.01,2.26h2.35c-.03-.37-.05-.86-.07-1.45l-.01-.01a.0351.0351,0,0,1,.01-.02v-.01c-.08-1.78-.16-4.44-.24-7.34-.01-.19-.01-.39-.02-.59-.02-.97-.04-1.96-.07-2.95-.02-.57-.03-1.13-.04-1.69v-.05c-.12-4.53-.22-8.76-.34-10.46v-.03a1.34,1.34,0,0,1,.57-1.16c.54-.39,1.07-.78,1.61-1.18,2.12-1.54,4.25-3.07,6.37-4.6a4.4765,4.4765,0,0,0,1.09-.94,3.9142,3.9142,0,0,0,.33-1.79c0-.04.01-.08.01-.12v-.03c.06-.83.12-1.65.17-2.47a.5385.5385,0,0,0,.01-.12v-.01c.01-.1.02-.19.02-.28.03-.37.06-.74.08-1.11a3.8671,3.8671,0,0,0,.03-.48,1.7572,1.7572,0,0,0,.02-.22c.02-.3.04-.59.06-.88.02-.22.03-.45.05-.67v-.05Z" style="fill:#cc977a"/><path d="M126.5117,67.4947c.1621.74,1.5127,20.21,1.1992,23.4028h3.1767c-.77-2.977-2.4052-22.4536-2.65-23.3935a8.6776,8.6776,0,0,0-.36-1.2783,2.5924,2.5924,0,0,0-1.5859-1.397c-.8223-.3081-10.7785-3.9732-11.7326-4.315a2.8512,2.8512,0,0,1-1.3994-1.0727c-.5166-.89-3.0459-6.7417-3.3359-7.3325a1.1228,1.1228,0,0,0-.2167.0844c.0145.0533,1.619,5.024,2.2987,6.9507A4.0123,4.0123,0,0,0,113.577,61.28c.665.4078,10.51,4.3648,11.5528,4.7891.51.2075,1.1055.3316,1.2715.9175C126.4062,67.025,126.4863,67.3819,126.5117,67.4947Z" style="fill:#cc977a"/><ellipse cx="129.5351" cy="51.0064" rx="12.6562" ry="1.937" style="fill:#b6c1a7"/><path d="M127.5615,53.01c0,1.7989-5.6417,3.2578-12.6,3.2578s-12.5977-1.4589-12.5977-3.2578,5.6406-3.2578,12.5977-3.2578S127.5615,51.211,127.5615,53.01Z" style="fill:#b6c1a7"/><path d="M132.4384,49.6348c0,1.8047-4.9189,3.2666-10.9884,3.2666s-10.9863-1.4619-10.9863-3.2666c0-1.8027,4.918-3.2651,10.9863-3.2651S132.4384,47.8321,132.4384,49.6348Z" style="fill:#acb294"/><path d="M116.6737,55.0777c0,1.2988-4.1582,2.3521-9.2881,2.3521s-9.29-1.0533-9.29-2.3521,4.16-2.3511,9.29-2.3511S116.6737,53.7794,116.6737,55.0777Z" style="fill:#acb294"/><path d="M105.8241,59.6036c0,.8-2.5606,1.4482-5.72,1.4482-3.1572,0-5.7177-.6484-5.7177-1.4482s2.56-1.4468,5.7177-1.4468C103.2635,58.1568,105.8241,58.8052,105.8241,59.6036Z" style="fill:#acb294"/><path d="M147.1807,47.2421c1,.06,1.95.15,2.84.26v6.16a51.3559,51.3559,0,0,1-5.7.38h-.21c-.27.01-.55.01-.82.01-.65,0-1.3-.01-1.93-.03-.15,0-.29-.01-.43-.01l-.51-.03h-.04c-1.28-.06-2.49-.16-3.62-.29-.09-.01-.17-.02-.25-.03a32.8309,32.8309,0,0,1-4.16-.77,13.4989,13.4989,0,0,1-1.58-.5c-.07-.02-.13-.05-.19-.07-.04-.02-.07-.03-.11-.05a6.517,6.517,0,0,1-.88-.44h-.01a2.5125,2.5125,0,0,1-.82-.74.9226.9226,0,0,1-.16-.51c0-.54.52-1.05,1.44-1.51h.01a10.7269,10.7269,0,0,1,1.64-.62,30.9983,30.9983,0,0,1,5.32-1.01,57.7417,57.7417,0,0,1,6.28-.33c.48,0,.96.01,1.43.02C145.57,47.1521,146.3907,47.1821,147.1807,47.2421Z" style="fill:#b6c1a7"/><path d="M150.0206,50.352v5.5a27.4946,27.4946,0,0,1-5.78-.66h-.01c-.11-.03-.21-.06-.31-.09a7.3278,7.3278,0,0,1-2.56-1.08c-.08-.07-.14-.12-.2-.18a1.4163,1.4163,0,0,1-.2-.24.951.951,0,0,1-.16-.5.9638.9638,0,0,1,.24-.61,2.1345,2.1345,0,0,1,.44-.39C142.84,51.1321,146.1207,50.4221,150.0206,50.352Z" style="fill:#acb294"/><path d="M142.9863,52.9366c0,.73-3.001,1.3232-6.7022,1.3232s-6.7011-.5932-6.7011-1.3232,3-1.3237,6.7011-1.3237S142.9863,52.2056,142.9863,52.9366Z" style="fill:#acb294"/><path d="M147.1982,47.3155c0,.5386-2.292.9751-5.1162.9751s-5.1172-.4365-5.1172-.9751,2.292-.9761,5.1172-.9761S147.1982,46.7769,147.1982,47.3155Z" style="fill:#b6c1a7"/><path d="M109.1551,53.2994c0,.7964-2.042,1.4429-4.5595,1.4429s-4.5606-.6465-4.5606-1.4429c0-.7979,2.043-1.4434,4.5606-1.4434S109.1551,52.5015,109.1551,53.2994Z" style="fill:#acb294"/><path d="M130.9423,47.1993c0,.5386-2.291.9756-5.1162.9756s-5.1163-.437-5.1163-.9756,2.29-.9761,5.1163-.9761S130.9423,46.6607,130.9423,47.1993Z" style="fill:#acb294"/><path d="M150.0206,60.552v.86c-.21-.13-.33-.28-.33-.43S149.8106,60.6821,150.0206,60.552Z" style="fill:#a5ad8e"/><path d="M119.83,56.2486c0,.689-1.9433,1.2485-4.3418,1.2485s-4.3427-.5595-4.3427-1.2485,1.9453-1.248,4.3427-1.248S119.83,55.56,119.83,56.2486Z" style="fill:#acb294"/><path d="M134.3789,58.984c0,.7827-2.2071,1.4174-4.93,1.4174s-4.93-.6347-4.93-1.4174,2.207-1.417,4.93-1.417S134.3789,58.2012,134.3789,58.984Z" style="fill:#b6c1a7"/><path d="M122.6834,50.023c0,.5982-3.17,1.084-7.082,1.084s-7.084-.4858-7.084-1.084,3.172-1.084,7.084-1.084S122.6834,49.4239,122.6834,50.023Z" style="fill:#acb294"/><path d="M131.3427,89.3582l.0014-.0222c0-1.197-1.2478-2.167-2.7864-2.167a2.7653,2.7653,0,0,0-2.6835,1.5905,1.562,1.562,0,0,0-1.1349,1.415,1.6679,1.6679,0,0,0,1.8578,1.4625c.4184,0,3.6207.0042,3.9731.0042a1.3931,1.3931,0,0,0,1.462-1.2467A1.1887,1.1887,0,0,0,131.3427,89.3582Z" style="fill:#a5ad8e"/><path d="M127.8872,88.39a1.0341,1.0341,0,1,1-1.0323-.9727A1.0043,1.0043,0,0,1,127.8872,88.39Z" style="fill:#afbca0"/><path d="M131.1118,89.3748a.672.672,0,1,1-.67-.6323A.6524.6524,0,0,1,131.1118,89.3748Z" style="fill:#afbca0"/><path d="M129.5813,88.187a.504.504,0,1,1-.5032-.4745A.4894.4894,0,0,1,129.5813,88.187Z" style="fill:#afbca0"/><polygon points="137.234 90.844 136.942 90.336 137.043 89.759 136.595 89.381 136.491 88.804 135.941 88.603 135.647 88.096 135.062 88.094 134.612 87.719 134.061 87.918 133.51 87.719 133.059 88.094 132.474 88.096 132.18 88.603 131.63 88.804 131.527 89.381 131.078 89.758 131.179 90.336 130.888 90.844 131.179 91.352 131.078 91.93 131.514 92.296 136.608 92.296 137.043 91.93 136.942 91.353 137.234 90.844" style="fill:#969b81"/><g style="opacity:0.65"><path d="M148.1257,85.4561l.0008-.0124a1.4156,1.4156,0,0,0-1.5553-1.21,1.5436,1.5436,0,0,0-1.4979.8878.8718.8718,0,0,0-.6334.79.931.931,0,0,0,1.0369.8163c.2336,0,2.021.0023,2.2177.0023a.7776.7776,0,0,0,.816-.6959A.6635.6635,0,0,0,148.1257,85.4561Z" style="fill:#a5ad8e"/><path d="M146.1969,84.9159a.5772.5772,0,1,1-.5762-.543A.5606.5606,0,0,1,146.1969,84.9159Z" style="fill:#afbca0"/><path d="M147.9968,85.4654a.3751.3751,0,1,1-.3743-.3529A.3641.3641,0,0,1,147.9968,85.4654Z" style="fill:#afbca0"/><path d="M147.1425,84.8024a.2813.2813,0,1,1-.2808-.2649A.2731.2731,0,0,1,147.1425,84.8024Z" style="fill:#afbca0"/></g><path d="M23.1905,91.052c0,3.01-10.22,5.47-23.17,5.68v-11.37C12.9708,85.572,23.1905,88.042,23.1905,91.052Z" style="fill:#eadec5"/><path d="M150.0206,98.86v15.0364a85.2364,85.2364,0,0,1-12.69.914c-15.45,0-27.97-3.774-27.97-8.4323s12.52-8.4321,27.97-8.4321A85.21,85.21,0,0,1,150.0206,98.86Z" style="fill:#eadec5"/><circle cx="139.5456" cy="106.39" r="0.235" style="fill:#eadec5"/><path d="M145.0937,47.8936c0,1.8037-6.0547,3.2657-13.5264,3.2657s-13.5284-1.462-13.5284-3.2657,6.0568-3.2656,13.5284-3.2656S145.0937,46.09,145.0937,47.8936Z" style="fill:#acb294"/><g style="opacity:0.79"><path d="M141.3907,122.7321c-.04-.14-5.15,1.42-5.6,1.53.39-.34,4.28-3.14,4.15-3.43-.06-.11-4.3,2.43-4.7,2.68.26-.43,5.35-7.07,5.15-7.25-.15,0-5.6,6.34-5.91,6.7.12-.49,2.66-9.32,2.41-9.45-.1,0-3.15,8.8-3.33,9.24-.03-.37-.22-10.33-.43-10.35-.09,0-.4,10-.44,10.35-.19-.48-2.96-11.22-3.26-11.22-.12.03,2.24,10.98,2.34,11.43-.32-.38-4.68-7.27-4.92-7.14-.12.07,3.92,7.29,4.17,7.69-.42-.26-6.31-5-6.47-4.82,0,.13,5.57,5.27,5.92,5.57-.45-.11-5.69-1.79-5.77-1.6,0,.1,5.1,2.33,5.53,2.51-.47.04-4.67-.28-4.69-.13.81.58,6.29,1.23,7.31,1.28.53-.05,6.38-.5,7.86-1.27-.26,0-4.19.14-4.64.1C136.5406,124.9622,141.3907,123.0221,141.3907,122.7321Z" style="fill:#b5987c"/></g></svg>