<svg id="Camada_1" data-name="Camada 1" xmlns="http://www.w3.org/2000/svg" viewBox="0 0 150 150"><rect x="0.0238" width="150" height="150" style="fill:#fff"/><polygon points="79.514 61.232 56.761 74.48 26.711 50.499 -1.278 74.48 0.418 86.39 96.816 86.39 93.319 74.038 79.514 61.232" style="fill:#028fec;opacity:0.1"/><polygon points="99.459 77.53 110.165 85.709 129.176 77.919 114.627 65.771 99.459 77.53" style="fill:#028fec;opacity:0.1"/><path d="M150.0238,83.96v1.4h-97.63a64.906,64.906,0,0,1,11.32-6.47,79.2592,79.2592,0,0,1,26.06-6.44c2.55-.21,5.22-.33,8.01-.33C116.9037,72.12,136.2738,78.29,150.0238,83.96Z" style="fill:#a2d9fd"/><polygon points="63.141 77.865 0.064 63.079 0.064 82.364 82.34 82.364 63.141 77.865" style="fill:#bbe4f9"/><path d="M44.4208,82.3642h13.964l4.756-4.5L.0637,63.0791v.2339C4.3046,65.6764,26.45,77.8175,39.7783,81.192,41.5114,81.6307,43.0474,82.0185,44.4208,82.3642Z" style="fill:#fff;opacity:0.29"/><polygon points="21.573 81.007 21.922 81.004 21.474 80.247 21.193 79.772 21.186 79.761 21.562 79.758 21.233 79.086 21.063 78.739 21.318 78.737 20.956 78.003 20.679 77.442 20.027 78.747 20.308 78.745 20.307 78.747 19.8 79.772 20.186 79.769 20.185 79.772 19.436 81.023 19.788 81.021 19.039 82.433 22.32 82.433 21.785 81.412 21.573 81.007" style="fill:#a4d3dd"/><polygon points="13.002 81.749 13.225 81.747 12.939 81.263 12.759 80.959 12.755 80.952 12.995 80.95 12.785 80.521 12.676 80.299 12.839 80.298 12.607 79.828 12.43 79.469 12.013 80.304 12.193 80.302 12.192 80.304 11.868 80.959 12.115 80.957 12.114 80.959 11.636 81.759 11.861 81.757 11.503 82.433 13.361 82.433 13.138 82.007 13.002 81.749" style="fill:#a4d3dd"/><polygon points="15.303 81.378 15.13 81.048 15.414 81.046 15.048 80.427 14.819 80.039 14.814 80.031 15.12 80.028 14.852 79.48 14.713 79.196 14.921 79.195 14.625 78.595 14.399 78.137 13.867 79.203 14.096 79.201 14.095 79.203 13.681 80.039 13.997 80.037 13.996 80.039 13.385 81.061 13.672 81.059 13 82.327 13.266 82.325 13.203 82.433 15.605 82.433 15.534 82.307 15.788 82.305 15.303 81.378" style="fill:#a4d3dd"/><polygon points="17.097 81.714 17.381 81.712 17.016 81.094 17.016 81.094 16.786 80.706 16.781 80.697 17.087 80.695 16.819 80.146 16.68 79.862 16.889 79.861 16.593 79.262 16.366 78.803 15.834 79.869 16.064 79.867 16.063 79.869 15.649 80.706 15.964 80.703 15.963 80.706 15.352 81.727 15.639 81.725 15.264 82.433 17.473 82.433 17.27 82.045 17.097 81.714" style="fill:#a4d3dd"/><polygon points="18.316 81.303 18.162 80.986 18.394 80.985 18.064 80.315 17.811 79.803 17.216 80.994 17.472 80.992 17.471 80.994 17.009 81.929 17.361 81.926 17.36 81.929 17.058 82.433 18.578 82.433 18.536 82.362 18.28 81.929 18.28 81.929 18.274 81.919 18.616 81.916 18.316 81.303" style="fill:#a4d3dd"/><polygon points="15.369 81.609 15.168 81.202 14.694 82.15 14.899 82.148 14.898 82.15 14.758 82.433 15.588 82.433 15.57 82.396 15.447 82.144 15.632 82.143 15.369 81.609" style="fill:#a4d3dd"/><polygon points="11.437 82.251 11.17 81.8 11.164 81.79 11.52 81.787 11.208 81.149 11.047 80.82 11.289 80.818 10.945 80.122 10.683 79.589 10.064 80.828 10.331 80.826 10.33 80.828 9.848 81.8 10.215 81.797 10.214 81.8 9.835 82.433 11.545 82.433 11.437 82.251 11.437 82.251" style="fill:#a4d3dd"/><polygon points="9.157 80.912 8.802 80.314 8.795 80.3 9.267 80.297 8.853 79.45 8.64 79.013 8.96 79.011 8.504 78.087 8.155 77.38 7.334 79.023 7.688 79.021 7.687 79.023 7.048 80.314 7.535 80.31 7.533 80.314 6.591 81.89 7.033 81.886 6.744 82.433 9.577 82.433 9.549 82.379 9.282 81.869 9.721 81.866 9.157 80.912" style="fill:#a4d3dd"/><polygon points="6.606 81.499 6.287 80.959 6.279 80.947 6.706 80.943 6.332 80.18 6.14 79.785 6.429 79.783 6.018 78.949 5.703 78.311 4.962 79.794 5.281 79.792 5.28 79.794 4.704 80.959 5.143 80.955 5.141 80.959 4.291 82.381 4.69 82.378 4.661 82.433 6.756 82.433 6.719 82.362 7.115 82.359 6.606 81.499" style="fill:#a4d3dd"/><polygon points="2.598 81.611 2.598 81.611 2.592 81.6 2.971 81.598 2.639 80.918 2.467 80.568 2.725 80.566 2.359 79.824 2.079 79.257 1.42 80.576 1.704 80.573 1.703 80.576 1.19 81.611 1.581 81.608 1.579 81.611 1.088 82.433 3.084 82.433 2.882 82.092 2.598 81.611" style="fill:#a4d3dd"/><polygon points="44.091 81.038 44.44 81.035 43.992 80.278 43.711 79.803 43.704 79.792 44.079 79.789 43.751 79.117 43.581 78.77 43.836 78.768 43.474 78.034 43.197 77.473 42.545 78.778 42.826 78.776 42.825 78.778 42.318 79.803 42.704 79.8 42.702 79.803 41.954 81.054 42.306 81.052 41.557 82.464 44.838 82.464 44.303 81.443 44.091 81.038" style="fill:#a4d3dd"/><polygon points="35.52 81.78 35.743 81.778 35.456 81.294 35.277 80.99 35.273 80.983 35.512 80.981 35.302 80.552 35.194 80.33 35.357 80.329 35.125 79.859 34.948 79.501 34.531 80.335 34.711 80.334 34.71 80.335 34.386 80.99 34.633 80.988 34.632 80.99 34.154 81.79 34.378 81.788 34.02 82.464 35.878 82.464 35.655 82.039 35.52 81.78" style="fill:#a4d3dd"/><polygon points="37.821 81.41 37.647 81.079 37.932 81.077 37.566 80.459 37.337 80.07 37.331 80.062 37.638 80.059 37.369 79.511 37.231 79.227 37.439 79.226 37.143 78.626 36.917 78.168 36.385 79.234 36.614 79.232 36.613 79.234 36.199 80.07 36.515 80.068 36.513 80.07 35.902 81.092 36.189 81.09 35.518 82.358 35.783 82.356 35.721 82.464 38.123 82.464 38.051 82.338 38.306 82.336 37.821 81.41" style="fill:#a4d3dd"/><polygon points="39.615 81.745 39.899 81.743 39.533 81.125 39.534 81.125 39.304 80.737 39.299 80.728 39.605 80.726 39.337 80.177 39.198 79.893 39.406 79.892 39.111 79.293 38.884 78.834 38.352 79.9 38.581 79.898 38.581 79.9 38.166 80.737 38.482 80.734 38.481 80.737 37.87 81.759 38.157 81.756 37.782 82.464 39.991 82.464 39.788 82.076 39.615 81.745" style="fill:#a4d3dd"/><polygon points="40.834 81.334 40.679 81.017 40.912 81.016 40.581 80.346 40.329 79.834 39.734 81.025 39.99 81.023 39.989 81.025 39.526 81.96 39.879 81.957 39.878 81.96 39.576 82.464 41.096 82.464 41.054 82.393 40.797 81.96 40.797 81.96 40.792 81.95 41.134 81.947 40.834 81.334" style="fill:#a4d3dd"/><polygon points="37.887 81.64 37.686 81.233 37.212 82.181 37.416 82.179 37.416 82.181 37.275 82.464 38.106 82.464 38.088 82.427 37.965 82.175 38.15 82.174 37.887 81.64" style="fill:#a4d3dd"/><polygon points="33.955 82.282 33.688 81.831 33.682 81.821 34.038 81.818 33.726 81.181 33.565 80.851 33.807 80.849 33.463 80.153 33.2 79.62 32.582 80.859 32.848 80.857 32.847 80.859 32.366 81.831 32.733 81.828 32.731 81.831 32.353 82.464 34.062 82.464 33.955 82.282 33.955 82.282" style="fill:#a4d3dd"/><polygon points="31.674 80.943 31.32 80.345 31.312 80.331 31.785 80.328 31.371 79.481 31.157 79.044 31.478 79.042 31.022 78.118 30.673 77.411 29.852 79.054 30.206 79.052 30.205 79.054 29.566 80.345 30.053 80.341 30.051 80.345 29.108 81.921 29.551 81.917 29.261 82.464 32.095 82.464 32.067 82.41 31.799 81.9 32.238 81.897 31.674 80.943" style="fill:#a4d3dd"/><polygon points="29.124 81.53 28.804 80.99 28.797 80.978 29.223 80.975 28.85 80.211 28.657 79.816 28.947 79.814 28.535 78.98 28.22 78.342 27.479 79.825 27.799 79.823 27.798 79.825 27.222 80.99 27.661 80.987 27.659 80.99 26.808 82.412 27.208 82.409 27.179 82.464 29.274 82.464 29.237 82.393 29.633 82.39 29.124 81.53" style="fill:#a4d3dd"/><polygon points="25.116 81.642 25.116 81.642 25.109 81.632 25.488 81.629 25.156 80.949 24.985 80.599 25.243 80.597 24.877 79.855 24.596 79.288 23.937 80.607 24.222 80.605 24.221 80.607 23.708 81.642 24.099 81.639 24.097 81.642 23.606 82.464 25.602 82.464 25.4 82.123 25.116 81.642" style="fill:#a4d3dd"/><polygon points="66.662 81.069 67.01 81.066 66.562 80.309 66.281 79.834 66.275 79.823 66.65 79.821 66.321 79.148 66.152 78.801 66.407 78.799 66.044 78.065 65.767 77.504 65.115 78.809 65.396 78.807 65.395 78.809 64.888 79.834 65.275 79.831 65.273 79.834 64.525 81.085 64.876 81.083 64.128 82.495 67.409 82.495 66.874 81.474 66.662 81.069" style="fill:#a4d3dd"/><polygon points="58.09 81.811 58.313 81.809 58.027 81.325 57.847 81.021 57.843 81.014 58.083 81.013 57.873 80.583 57.764 80.361 57.927 80.36 57.696 79.89 57.519 79.532 57.102 80.366 57.282 80.365 57.281 80.366 56.957 81.021 57.204 81.019 57.203 81.021 56.724 81.821 56.949 81.82 56.591 82.495 58.449 82.495 58.226 82.07 58.09 81.811" style="fill:#a4d3dd"/><polygon points="60.391 81.441 60.218 81.11 60.503 81.108 60.137 80.49 59.907 80.102 59.902 80.093 60.208 80.091 59.94 79.542 59.802 79.258 60.01 79.257 59.714 78.657 59.488 78.199 58.955 79.265 59.185 79.263 59.184 79.265 58.77 80.102 59.085 80.099 59.084 80.102 58.473 81.123 58.76 81.121 58.088 82.389 58.354 82.387 58.292 82.495 60.694 82.495 60.622 82.369 60.877 82.367 60.391 81.441" style="fill:#a4d3dd"/><polygon points="62.185 81.776 62.47 81.774 62.104 81.156 62.104 81.156 61.874 80.768 61.869 80.759 62.176 80.757 61.907 80.208 61.769 79.925 61.977 79.923 61.681 79.324 61.455 78.865 60.922 79.931 61.152 79.929 61.151 79.931 60.737 80.768 61.053 80.765 61.051 80.768 60.44 81.79 60.727 81.787 60.352 82.495 62.562 82.495 62.358 82.107 62.185 81.776" style="fill:#a4d3dd"/><polygon points="63.405 81.365 63.25 81.049 63.482 81.047 63.152 80.377 62.899 79.865 62.304 81.056 62.561 81.054 62.56 81.056 62.097 81.991 62.45 81.988 62.448 81.991 62.147 82.495 63.666 82.495 63.625 82.424 63.368 81.991 63.368 81.991 63.362 81.981 63.704 81.978 63.405 81.365" style="fill:#a4d3dd"/><polygon points="60.458 81.672 60.256 81.264 59.783 82.212 59.987 82.21 59.986 82.212 59.846 82.495 60.677 82.495 60.659 82.458 60.536 82.206 60.721 82.205 60.458 81.672" style="fill:#a4d3dd"/><polygon points="56.525 82.313 56.259 81.862 56.253 81.852 56.609 81.849 56.297 81.212 56.136 80.882 56.378 80.88 56.034 80.184 55.771 79.651 55.152 80.89 55.419 80.888 55.418 80.89 54.937 81.862 55.304 81.859 55.302 81.862 54.924 82.495 56.633 82.495 56.525 82.313 56.525 82.313" style="fill:#a4d3dd"/><polygon points="54.245 80.974 53.891 80.376 53.883 80.363 54.355 80.359 53.942 79.513 53.728 79.075 54.049 79.073 53.593 78.149 53.244 77.442 52.423 79.085 52.777 79.083 52.775 79.085 52.137 80.376 52.624 80.372 52.621 80.376 51.679 81.952 52.122 81.948 51.832 82.495 54.665 82.495 54.637 82.441 54.37 81.931 54.809 81.928 54.245 80.974" style="fill:#a4d3dd"/><polygon points="51.695 81.561 51.375 81.021 51.368 81.009 51.794 81.006 51.421 80.242 51.228 79.848 51.518 79.845 51.106 79.011 50.791 78.373 50.05 79.857 50.37 79.854 50.368 79.857 49.792 81.021 50.231 81.018 50.229 81.021 49.379 82.443 49.779 82.44 49.749 82.495 51.844 82.495 51.807 82.424 52.204 82.421 51.695 81.561" style="fill:#a4d3dd"/><polygon points="47.686 81.673 47.686 81.673 47.68 81.663 48.059 81.66 47.727 80.981 47.556 80.63 47.813 80.628 47.447 79.886 47.167 79.319 46.508 80.638 46.792 80.636 46.791 80.638 46.279 81.673 46.669 81.67 46.668 81.673 46.176 82.495 48.173 82.495 47.971 82.154 47.686 81.673" style="fill:#a4d3dd"/><path d="M150.0238,83.96v1.4h-59.58c-21.15-2.92-26.73-6.47-26.73-6.47a79.2592,79.2592,0,0,1,26.06-6.44c2.55-.21,5.22-.33,8.01-.33C116.9037,72.12,136.2738,78.29,150.0238,83.96Z" style="fill:#fff;opacity:0.49"/><polygon points="117.398 80.601 117.747 80.599 117.299 79.841 117.018 79.366 117.011 79.355 117.386 79.353 117.058 78.68 116.888 78.333 117.143 78.331 116.781 77.597 116.504 77.036 115.852 78.341 116.133 78.339 116.132 78.341 115.625 79.366 116.011 79.363 116.009 79.366 115.261 80.618 115.613 80.615 114.864 82.027 118.145 82.027 117.61 81.006 117.398 80.601" style="fill:#a4d3dd"/><polygon points="108.827 81.343 109.05 81.341 108.763 80.857 108.584 80.553 108.58 80.546 108.819 80.545 108.609 80.115 108.501 79.893 108.664 79.892 108.432 79.423 108.255 79.064 107.838 79.898 108.018 79.897 108.017 79.898 107.693 80.553 107.94 80.551 107.939 80.553 107.461 81.353 107.685 81.352 107.327 82.027 109.185 82.027 108.963 81.602 108.827 81.343" style="fill:#a4d3dd"/><polygon points="111.128 80.973 110.954 80.642 111.239 80.64 110.873 80.022 110.644 79.634 110.638 79.625 110.945 79.623 110.676 79.074 110.538 78.79 110.746 78.789 110.45 78.189 110.224 77.731 109.692 78.797 109.921 78.795 109.92 78.797 109.506 79.634 109.822 79.631 109.82 79.634 109.209 80.655 109.496 80.653 108.825 81.921 109.091 81.919 109.028 82.027 111.43 82.027 111.359 81.901 111.613 81.9 111.128 80.973" style="fill:#a4d3dd"/><polygon points="112.922 81.308 113.206 81.306 112.841 80.688 112.841 80.688 112.611 80.3 112.606 80.291 112.912 80.289 112.644 79.74 112.505 79.457 112.713 79.455 112.418 78.856 112.191 78.397 111.659 79.463 111.888 79.461 111.888 79.463 111.473 80.3 111.789 80.297 111.788 80.3 111.177 81.322 111.464 81.32 111.089 82.027 113.298 82.027 113.095 81.639 112.922 81.308" style="fill:#a4d3dd"/><polygon points="114.141 80.897 113.986 80.581 114.219 80.579 113.888 79.909 113.636 79.397 113.041 80.588 113.297 80.586 113.296 80.588 112.833 81.523 113.186 81.52 113.185 81.523 112.883 82.027 114.403 82.027 114.361 81.957 114.104 81.523 114.104 81.523 114.099 81.513 114.441 81.511 114.141 80.897" style="fill:#a4d3dd"/><polygon points="111.194 81.204 110.993 80.796 110.519 81.744 110.723 81.742 110.723 81.744 110.582 82.027 111.413 82.027 111.395 81.99 111.272 81.738 111.457 81.737 111.194 81.204" style="fill:#a4d3dd"/><polygon points="107.262 81.845 106.995 81.394 106.989 81.384 107.345 81.382 107.033 80.744 106.872 80.414 107.114 80.412 106.77 79.716 106.507 79.183 105.889 80.422 106.155 80.42 106.154 80.422 105.673 81.394 106.04 81.392 106.038 81.394 105.66 82.027 107.369 82.027 107.262 81.845 107.262 81.845" style="fill:#a4d3dd"/><polygon points="104.981 80.507 104.627 79.908 104.619 79.895 105.092 79.891 104.678 79.045 104.464 78.608 104.785 78.605 104.329 77.681 103.98 76.974 103.159 78.618 103.513 78.615 103.512 78.618 102.873 79.908 103.36 79.904 103.358 79.908 102.415 81.484 102.858 81.48 102.568 82.027 105.402 82.027 105.374 81.973 105.106 81.463 105.546 81.46 104.981 80.507" style="fill:#a4d3dd"/><polygon points="102.431 81.093 102.111 80.553 102.104 80.541 102.53 80.538 102.157 79.774 101.964 79.38 102.254 79.377 101.842 78.543 101.527 77.906 100.787 79.389 101.106 79.386 101.105 79.389 100.529 80.553 100.968 80.55 100.966 80.553 100.115 81.975 100.515 81.972 100.486 82.027 102.581 82.027 102.544 81.956 102.94 81.953 102.431 81.093" style="fill:#a4d3dd"/><polygon points="98.423 81.205 98.423 81.205 98.416 81.195 98.795 81.192 98.463 80.513 98.292 80.162 98.55 80.16 98.184 79.418 97.904 78.851 97.245 80.17 97.529 80.168 97.528 80.17 97.015 81.205 97.406 81.202 97.404 81.205 96.913 82.027 98.909 82.027 98.707 81.686 98.423 81.205" style="fill:#a4d3dd"/><polygon points="139.199 80.632 139.547 80.63 139.099 79.873 138.818 79.397 138.812 79.387 139.187 79.384 138.858 78.712 138.689 78.364 138.944 78.363 138.581 77.629 138.304 77.067 137.652 78.372 137.933 78.37 137.932 78.372 137.425 79.397 137.812 79.394 137.81 79.397 137.062 80.649 137.413 80.646 136.665 82.058 139.946 82.058 139.411 81.037 139.199 80.632" style="fill:#a4d3dd"/><polygon points="130.627 81.374 130.85 81.372 130.564 80.888 130.384 80.584 130.38 80.578 130.62 80.576 130.41 80.146 130.301 79.924 130.464 79.923 130.233 79.454 130.056 79.095 129.639 79.929 129.819 79.928 129.818 79.929 129.494 80.584 129.741 80.582 129.74 80.584 129.261 81.384 129.486 81.383 129.128 82.058 130.986 82.058 130.763 81.633 130.627 81.374" style="fill:#a4d3dd"/><polygon points="132.928 81.004 132.755 80.673 133.04 80.671 132.674 80.053 132.444 79.665 132.439 79.656 132.745 79.654 132.477 79.105 132.338 78.821 132.547 78.82 132.251 78.221 132.025 77.762 131.492 78.828 131.722 78.826 131.721 78.828 131.307 79.665 131.622 79.662 131.621 79.665 131.01 80.687 131.297 80.684 130.625 81.952 130.891 81.95 130.829 82.058 133.231 82.058 133.159 81.933 133.414 81.931 132.928 81.004" style="fill:#a4d3dd"/><polygon points="134.722 81.339 135.007 81.337 134.641 80.719 134.641 80.719 134.411 80.331 134.406 80.322 134.713 80.32 134.444 79.771 134.306 79.488 134.514 79.486 134.218 78.887 133.992 78.428 133.459 79.494 133.689 79.492 133.688 79.494 133.274 80.331 133.59 80.329 133.588 80.331 132.977 81.353 133.264 81.351 132.889 82.058 135.099 82.058 134.895 81.67 134.722 81.339" style="fill:#a4d3dd"/><polygon points="135.942 80.928 135.787 80.612 136.019 80.61 135.689 79.94 135.436 79.428 134.841 80.619 135.098 80.617 135.097 80.619 134.634 81.554 134.987 81.551 134.985 81.554 134.684 82.058 136.203 82.058 136.162 81.988 135.905 81.554 135.905 81.554 135.899 81.544 136.241 81.542 135.942 80.928" style="fill:#a4d3dd"/><polygon points="132.995 81.235 132.793 80.827 132.32 81.775 132.524 81.773 132.523 81.775 132.383 82.058 133.214 82.058 133.196 82.021 133.073 81.769 133.258 81.768 132.995 81.235" style="fill:#a4d3dd"/><polygon points="129.062 81.876 128.796 81.425 128.79 81.415 129.145 81.413 128.834 80.775 128.673 80.445 128.915 80.444 128.571 79.747 128.308 79.214 127.689 80.453 127.956 80.451 127.955 80.453 127.474 81.425 127.841 81.423 127.839 81.425 127.46 82.058 129.17 82.058 129.062 81.876 129.062 81.876" style="fill:#a4d3dd"/><polygon points="126.782 80.538 126.428 79.939 126.42 79.926 126.892 79.922 126.478 79.076 126.265 78.639 126.586 78.636 126.13 77.712 125.781 77.005 124.96 78.649 125.314 78.646 125.312 78.649 124.674 79.939 125.161 79.935 125.158 79.939 124.216 81.515 124.659 81.512 124.369 82.058 127.202 82.058 127.174 82.004 126.907 81.494 127.346 81.491 126.782 80.538" style="fill:#a4d3dd"/><polygon points="124.231 81.124 123.912 80.584 123.905 80.572 124.331 80.569 123.958 79.805 123.765 79.411 124.054 79.408 123.643 78.574 123.328 77.937 122.587 79.42 122.907 79.417 122.905 79.42 122.329 80.584 122.768 80.581 122.766 80.584 121.916 82.006 122.316 82.003 122.286 82.058 124.381 82.058 124.344 81.988 124.74 81.984 124.231 81.124" style="fill:#a4d3dd"/><polygon points="120.223 81.236 120.223 81.236 120.217 81.226 120.596 81.223 120.264 80.544 120.093 80.193 120.35 80.191 119.984 79.449 119.704 78.882 119.045 80.201 119.329 80.199 119.328 80.201 118.816 81.236 119.206 81.233 119.205 81.236 118.713 82.058 120.709 82.058 120.508 81.717 120.223 81.236" style="fill:#a4d3dd"/><polygon points="150.004 79.3 150.024 79.34 150.024 82.15 149.154 82.15 149.534 81.51 149.164 81.51 149.654 80.54 149.384 80.54 150.004 79.3" style="fill:#a4d3dd"/><polygon points="148.476 80.626 148.122 80.028 148.114 80.014 148.587 80.011 148.173 79.164 147.959 78.727 148.28 78.725 147.824 77.8 147.475 77.094 146.654 78.737 147.008 78.734 147.007 78.737 146.368 80.028 146.855 80.024 146.853 80.028 145.91 81.604 146.353 81.6 146.063 82.147 148.897 82.147 148.869 82.093 148.601 81.583 149.04 81.58 148.476 80.626" style="fill:#a4d3dd"/><polygon points="145.926 81.213 145.606 80.673 145.599 80.661 146.025 80.657 145.652 79.894 145.459 79.499 145.749 79.497 145.337 78.663 145.022 78.025 144.281 79.508 144.601 79.506 144.6 79.508 144.024 80.673 144.463 80.669 144.461 80.673 143.61 82.095 144.01 82.092 143.981 82.147 146.076 82.147 146.039 82.076 146.435 82.073 145.926 81.213" style="fill:#a4d3dd"/><polygon points="141.918 81.325 141.918 81.325 141.911 81.314 142.29 81.311 141.958 80.632 141.787 80.281 142.045 80.279 141.678 79.538 141.398 78.97 140.739 80.289 141.024 80.287 141.023 80.289 140.51 81.325 140.901 81.322 140.899 81.325 140.408 82.147 142.404 82.147 142.202 81.805 141.918 81.325" style="fill:#a4d3dd"/><rect x="0.0238" y="82.24" width="150" height="67.76" style="fill:#f0fffe"/><polygon points="20.573 81.77 20.922 81.767 20.474 80.89 20.193 80.339 20.186 80.327 20.562 80.323 20.233 79.544 20.063 79.142 20.318 79.14 19.956 78.289 19.679 77.639 19.027 79.151 19.308 79.149 19.307 79.151 18.8 80.339 19.186 80.336 19.185 80.339 18.436 81.789 18.788 81.786 18.039 83.423 21.32 83.423 20.785 82.24 20.573 81.77" style="fill:#92c3d3"/><polygon points="12.002 82.63 12.225 82.628 11.939 82.067 11.759 81.715 11.755 81.707 11.995 81.705 11.785 81.207 11.676 80.95 11.839 80.948 11.607 80.405 11.43 79.989 11.013 80.956 11.193 80.954 11.192 80.956 10.868 81.715 11.115 81.713 11.114 81.715 10.636 82.642 10.861 82.64 10.503 83.423 12.361 83.423 12.138 82.93 12.002 82.63" style="fill:#92c3d3"/><polygon points="14.303 82.201 14.13 81.818 14.414 81.815 14.048 81.099 13.819 80.649 13.814 80.639 14.12 80.636 13.852 80 13.713 79.672 13.921 79.67 13.625 78.975 13.399 78.444 12.867 79.679 13.096 79.677 13.095 79.679 12.681 80.649 12.997 80.646 12.996 80.649 12.385 81.833 12.672 81.831 12 83.3 12.266 83.298 12.203 83.423 14.605 83.423 14.534 83.277 14.788 83.275 14.303 82.201" style="fill:#92c3d3"/><polygon points="16.097 82.59 16.381 82.588 16.016 81.871 16.016 81.871 15.786 81.421 15.781 81.411 16.087 81.408 15.819 80.772 15.68 80.444 15.889 80.442 15.593 79.748 15.366 79.216 14.834 80.452 15.064 80.449 15.063 80.452 14.649 81.421 14.964 81.418 14.963 81.421 14.352 82.606 14.639 82.603 14.264 83.423 16.473 83.423 16.27 82.973 16.097 82.59" style="fill:#92c3d3"/><polygon points="17.316 82.114 17.162 81.747 17.394 81.745 17.064 80.968 16.811 80.375 16.216 81.755 16.472 81.753 16.471 81.755 16.009 82.839 16.361 82.835 16.36 82.839 16.058 83.423 17.578 83.423 17.536 83.341 17.28 82.839 17.28 82.839 17.274 82.827 17.616 82.824 17.316 82.114" style="fill:#92c3d3"/><polygon points="14.369 82.469 14.168 81.996 13.694 83.095 13.899 83.093 13.898 83.095 13.758 83.423 14.588 83.423 14.57 83.38 14.447 83.088 14.632 83.086 14.369 82.469" style="fill:#92c3d3"/><polygon points="10.437 83.212 10.17 82.69 10.164 82.678 10.52 82.675 10.208 81.936 10.047 81.554 10.289 81.552 9.945 80.745 9.683 80.127 9.064 81.563 9.331 81.56 9.33 81.563 8.848 82.69 9.215 82.686 9.214 82.69 8.835 83.423 10.545 83.423 10.437 83.212 10.437 83.212" style="fill:#92c3d3"/><polygon points="8.157 81.661 7.802 80.967 7.795 80.952 8.267 80.947 7.853 79.966 7.64 79.46 7.96 79.457 7.504 78.386 7.155 77.567 6.334 79.472 6.688 79.468 6.687 79.472 6.048 80.967 6.535 80.963 6.533 80.967 5.591 82.793 6.033 82.789 5.744 83.423 8.577 83.423 8.549 83.36 8.282 82.77 8.721 82.766 8.157 81.661" style="fill:#92c3d3"/><polygon points="5.606 82.341 5.287 81.715 5.279 81.701 5.706 81.697 5.332 80.812 5.14 80.355 5.429 80.352 5.018 79.386 4.703 78.646 3.962 80.365 4.281 80.362 4.28 80.365 3.704 81.715 4.143 81.711 4.141 81.715 3.291 83.363 3.69 83.359 3.661 83.423 5.756 83.423 5.719 83.341 6.115 83.338 5.606 82.341" style="fill:#92c3d3"/><polygon points="1.598 82.471 1.598 82.471 1.592 82.458 1.971 82.455 1.639 81.668 1.467 81.261 1.725 81.259 1.359 80.399 1.079 79.742 0.42 81.271 0.704 81.268 0.703 81.271 0.19 82.471 0.581 82.467 0.579 82.471 0.088 83.423 2.084 83.423 1.882 83.027 1.598 82.471" style="fill:#92c3d3"/><polygon points="43.091 81.806 43.44 81.803 42.992 80.926 42.711 80.375 42.704 80.363 43.079 80.359 42.751 79.581 42.581 79.178 42.836 79.176 42.474 78.325 42.197 77.675 41.545 79.187 41.826 79.185 41.825 79.187 41.318 80.375 41.704 80.372 41.702 80.375 40.954 81.825 41.306 81.822 40.557 83.459 43.838 83.459 43.303 82.276 43.091 81.806" style="fill:#92c3d3"/><polygon points="34.52 82.666 34.743 82.664 34.456 82.103 34.277 81.751 34.273 81.743 34.512 81.741 34.302 81.243 34.194 80.986 34.357 80.984 34.125 80.441 33.948 80.025 33.531 80.992 33.711 80.99 33.71 80.992 33.386 81.751 33.633 81.749 33.632 81.751 33.154 82.678 33.378 82.676 33.02 83.459 34.878 83.459 34.655 82.966 34.52 82.666" style="fill:#92c3d3"/><polygon points="36.821 82.237 36.647 81.854 36.932 81.851 36.566 81.135 36.337 80.685 36.331 80.675 36.638 80.672 36.369 80.036 36.231 79.708 36.439 79.706 36.143 79.011 35.917 78.48 35.385 79.715 35.614 79.713 35.613 79.715 35.199 80.685 35.515 80.682 35.513 80.685 34.902 81.869 35.189 81.867 34.518 83.336 34.783 83.334 34.721 83.459 37.123 83.459 37.051 83.313 37.306 83.311 36.821 82.237" style="fill:#92c3d3"/><polygon points="38.615 82.626 38.899 82.624 38.533 81.907 38.534 81.907 38.304 81.457 38.299 81.447 38.605 81.445 38.337 80.808 38.198 80.48 38.406 80.478 38.111 79.784 37.884 79.252 37.352 80.488 37.581 80.486 37.581 80.488 37.166 81.457 37.482 81.454 37.481 81.457 36.87 82.642 37.157 82.639 36.782 83.459 38.991 83.459 38.788 83.009 38.615 82.626" style="fill:#92c3d3"/><polygon points="39.834 82.15 39.679 81.783 39.912 81.781 39.581 81.004 39.329 80.411 38.734 81.791 38.99 81.789 38.989 81.791 38.526 82.875 38.879 82.871 38.878 82.875 38.576 83.459 40.096 83.459 40.054 83.377 39.797 82.875 39.797 82.875 39.792 82.863 40.134 82.86 39.834 82.15" style="fill:#92c3d3"/><polygon points="36.887 82.505 36.686 82.032 36.212 83.131 36.416 83.129 36.416 83.131 36.275 83.459 37.106 83.459 37.088 83.416 36.965 83.124 37.15 83.123 36.887 82.505" style="fill:#92c3d3"/><polygon points="32.955 83.248 32.688 82.726 32.682 82.714 33.038 82.711 32.726 81.972 32.565 81.59 32.807 81.588 32.463 80.781 32.2 80.163 31.582 81.599 31.848 81.596 31.847 81.599 31.366 82.726 31.733 82.722 31.731 82.726 31.353 83.459 33.062 83.459 32.955 83.248 32.955 83.248" style="fill:#92c3d3"/><polygon points="30.674 81.697 30.32 81.003 30.312 80.988 30.785 80.983 30.371 80.003 30.157 79.496 30.478 79.493 30.022 78.422 29.673 77.603 28.852 79.508 29.206 79.504 29.205 79.508 28.566 81.003 29.053 80.999 29.051 81.003 28.108 82.829 28.551 82.826 28.261 83.459 31.095 83.459 31.067 83.396 30.799 82.806 31.238 82.802 30.674 81.697" style="fill:#92c3d3"/><polygon points="28.124 82.377 27.804 81.751 27.797 81.737 28.223 81.733 27.85 80.848 27.657 80.391 27.947 80.388 27.535 79.422 27.22 78.682 26.479 80.401 26.799 80.398 26.798 80.401 26.222 81.751 26.661 81.747 26.659 81.751 25.808 83.399 26.208 83.395 26.179 83.459 28.274 83.459 28.237 83.377 28.633 83.374 28.124 82.377" style="fill:#92c3d3"/><polygon points="24.116 82.507 24.116 82.507 24.109 82.494 24.488 82.491 24.156 81.704 23.985 81.297 24.243 81.295 23.877 80.435 23.596 79.778 22.937 81.307 23.222 81.304 23.221 81.307 22.708 82.507 23.099 82.503 23.097 82.507 22.606 83.459 24.602 83.459 24.4 83.063 24.116 82.507" style="fill:#92c3d3"/><polygon points="65.662 81.842 66.01 81.839 65.562 80.962 65.281 80.411 65.275 80.399 65.65 80.395 65.321 79.617 65.152 79.214 65.407 79.212 65.044 78.361 64.767 77.711 64.115 79.223 64.396 79.221 64.395 79.223 63.888 80.411 64.275 80.408 64.273 80.411 63.525 81.861 63.876 81.858 63.128 83.495 66.409 83.495 65.874 82.312 65.662 81.842" style="fill:#92c3d3"/><polygon points="57.09 82.702 57.313 82.7 57.027 82.139 56.847 81.787 56.843 81.779 57.083 81.777 56.873 81.279 56.764 81.022 56.927 81.02 56.696 80.477 56.519 80.061 56.102 81.028 56.282 81.026 56.281 81.028 55.957 81.787 56.204 81.785 56.203 81.787 55.724 82.714 55.949 82.712 55.591 83.495 57.449 83.495 57.226 83.002 57.09 82.702" style="fill:#92c3d3"/><polygon points="59.391 82.273 59.218 81.89 59.503 81.887 59.137 81.171 58.907 80.721 58.902 80.711 59.208 80.708 58.94 80.072 58.802 79.744 59.01 79.742 58.714 79.047 58.488 78.516 57.955 79.751 58.185 79.749 58.184 79.751 57.77 80.721 58.085 80.718 58.084 80.721 57.473 81.905 57.76 81.903 57.088 83.372 57.354 83.37 57.292 83.495 59.694 83.495 59.622 83.349 59.877 83.347 59.391 82.273" style="fill:#92c3d3"/><polygon points="61.185 82.662 61.47 82.66 61.104 81.943 61.104 81.943 60.874 81.493 60.869 81.483 61.176 81.481 60.907 80.844 60.769 80.516 60.977 80.514 60.681 79.82 60.455 79.288 59.922 80.524 60.152 80.522 60.151 80.524 59.737 81.493 60.053 81.491 60.051 81.493 59.44 82.678 59.727 82.675 59.352 83.495 61.562 83.495 61.358 83.045 61.185 82.662" style="fill:#92c3d3"/><polygon points="62.405 82.186 62.25 81.819 62.482 81.817 62.152 81.04 61.899 80.447 61.304 81.827 61.561 81.825 61.56 81.827 61.097 82.911 61.45 82.907 61.448 82.911 61.147 83.495 62.666 83.495 62.625 83.413 62.368 82.911 62.368 82.911 62.362 82.899 62.704 82.896 62.405 82.186" style="fill:#92c3d3"/><polygon points="59.458 82.541 59.256 82.068 58.783 83.167 58.987 83.165 58.986 83.167 58.846 83.495 59.677 83.495 59.659 83.452 59.536 83.16 59.721 83.159 59.458 82.541" style="fill:#92c3d3"/><polygon points="55.525 83.284 55.259 82.762 55.253 82.75 55.609 82.747 55.297 82.008 55.136 81.626 55.378 81.624 55.034 80.817 54.771 80.199 54.152 81.635 54.419 81.632 54.418 81.635 53.937 82.762 54.304 82.758 54.302 82.762 53.924 83.495 55.633 83.495 55.525 83.284 55.525 83.284" style="fill:#92c3d3"/><polygon points="53.245 81.733 52.891 81.039 52.883 81.024 53.355 81.019 52.942 80.039 52.728 79.532 53.049 79.529 52.593 78.458 52.244 77.639 51.423 79.544 51.777 79.54 51.775 79.544 51.137 81.039 51.624 81.035 51.621 81.039 50.679 82.865 51.122 82.862 50.832 83.495 53.665 83.495 53.637 83.432 53.37 82.842 53.809 82.838 53.245 81.733" style="fill:#92c3d3"/><polygon points="50.695 82.413 50.375 81.787 50.368 81.773 50.794 81.769 50.421 80.884 50.228 80.427 50.518 80.424 50.106 79.458 49.791 78.718 49.05 80.437 49.37 80.434 49.368 80.437 48.792 81.787 49.231 81.783 49.229 81.787 48.379 83.435 48.779 83.431 48.749 83.495 50.844 83.495 50.807 83.413 51.204 83.41 50.695 82.413" style="fill:#92c3d3"/><polygon points="46.686 82.543 46.686 82.543 46.68 82.53 47.059 82.527 46.727 81.74 46.556 81.333 46.813 81.331 46.447 80.471 46.167 79.814 45.508 81.343 45.792 81.34 45.791 81.343 45.279 82.543 45.669 82.539 45.668 82.543 45.176 83.495 47.173 83.495 46.971 83.099 46.686 82.543" style="fill:#92c3d3"/><polygon points="116.398 81.3 116.747 81.297 116.299 80.42 116.018 79.869 116.011 79.856 116.386 79.853 116.058 79.074 115.888 78.672 116.143 78.67 115.781 77.819 115.504 77.169 114.852 78.681 115.133 78.679 115.132 78.681 114.625 79.869 115.011 79.865 115.009 79.869 114.261 81.319 114.613 81.316 113.864 82.953 117.145 82.953 116.61 81.769 116.398 81.3" style="fill:#92c3d3"/><polygon points="107.827 82.16 108.05 82.158 107.763 81.597 107.584 81.245 107.58 81.237 107.819 81.235 107.609 80.737 107.501 80.479 107.664 80.478 107.432 79.934 107.255 79.518 106.838 80.485 107.018 80.484 107.017 80.485 106.693 81.245 106.94 81.242 106.939 81.245 106.461 82.172 106.685 82.17 106.327 82.953 108.185 82.953 107.963 82.46 107.827 82.16" style="fill:#92c3d3"/><polygon points="110.128 81.731 109.954 81.348 110.239 81.345 109.873 80.629 109.644 80.179 109.638 80.169 109.945 80.166 109.676 79.53 109.538 79.202 109.746 79.2 109.45 78.505 109.224 77.974 108.692 79.209 108.921 79.207 108.92 79.209 108.506 80.179 108.822 80.176 108.82 80.179 108.209 81.363 108.496 81.361 107.825 82.83 108.091 82.827 108.028 82.953 110.43 82.953 110.359 82.807 110.613 82.805 110.128 81.731" style="fill:#92c3d3"/><polygon points="111.922 82.12 112.206 82.117 111.841 81.401 111.841 81.401 111.611 80.951 111.606 80.941 111.912 80.938 111.644 80.302 111.505 79.974 111.713 79.972 111.418 79.277 111.191 78.746 110.659 79.981 110.888 79.979 110.888 79.981 110.473 80.951 110.789 80.948 110.788 80.951 110.177 82.135 110.464 82.133 110.089 82.953 112.298 82.953 112.095 82.503 111.922 82.12" style="fill:#92c3d3"/><polygon points="113.141 81.643 112.986 81.276 113.219 81.274 112.888 80.498 112.636 79.905 112.041 81.285 112.297 81.282 112.296 81.285 111.833 82.368 112.186 82.365 112.185 82.368 111.883 82.953 113.403 82.953 113.361 82.871 113.104 82.368 113.104 82.368 113.099 82.357 113.441 82.354 113.141 81.643" style="fill:#92c3d3"/><polygon points="110.194 81.998 109.993 81.526 109.519 82.625 109.723 82.623 109.723 82.625 109.582 82.953 110.413 82.953 110.395 82.91 110.272 82.618 110.457 82.616 110.194 81.998" style="fill:#92c3d3"/><polygon points="106.262 82.742 105.995 82.219 105.989 82.208 106.345 82.205 106.033 81.465 105.872 81.084 106.114 81.082 105.77 80.274 105.507 79.657 104.889 81.092 105.155 81.09 105.154 81.092 104.673 82.219 105.04 82.216 105.038 82.219 104.66 82.953 106.369 82.953 106.262 82.742 106.262 82.742" style="fill:#92c3d3"/><polygon points="103.981 81.191 103.627 80.497 103.619 80.481 104.092 80.477 103.678 79.496 103.464 78.99 103.785 78.987 103.329 77.916 102.98 77.096 102.159 79.001 102.513 78.998 102.512 79.001 101.873 80.497 102.36 80.492 102.358 80.497 101.415 82.323 101.858 82.319 101.568 82.953 104.402 82.953 104.374 82.89 104.106 82.299 104.546 82.295 103.981 81.191" style="fill:#92c3d3"/><polygon points="101.431 81.87 101.111 81.244 101.104 81.23 101.53 81.227 101.157 80.342 100.964 79.884 101.254 79.882 100.842 78.915 100.527 78.176 99.787 79.895 100.106 79.892 100.105 79.895 99.529 81.244 99.968 81.24 99.966 81.244 99.115 82.892 99.515 82.889 99.486 82.953 101.581 82.953 101.544 82.871 101.94 82.867 101.431 81.87" style="fill:#92c3d3"/><polygon points="97.423 82 97.423 82 97.416 81.988 97.795 81.985 97.463 81.197 97.292 80.791 97.55 80.789 97.184 79.929 96.904 79.272 96.245 80.8 96.529 80.798 96.528 80.8 96.015 82 96.406 81.997 96.404 82 95.913 82.953 97.909 82.953 97.707 82.557 97.423 82" style="fill:#92c3d3"/><polygon points="138.199 81.336 138.547 81.333 138.099 80.456 137.818 79.905 137.812 79.893 138.187 79.889 137.858 79.11 137.689 78.708 137.944 78.706 137.581 77.855 137.304 77.205 136.652 78.717 136.933 78.715 136.932 78.717 136.425 79.905 136.812 79.901 136.81 79.905 136.062 81.355 136.413 81.352 135.665 82.989 138.946 82.989 138.411 81.805 138.199 81.336" style="fill:#92c3d3"/><polygon points="129.627 82.196 129.85 82.194 129.564 81.633 129.384 81.281 129.38 81.273 129.62 81.271 129.41 80.773 129.301 80.516 129.464 80.514 129.233 79.97 129.056 79.554 128.639 80.521 128.819 80.52 128.818 80.521 128.494 81.281 128.741 81.278 128.74 81.281 128.261 82.208 128.486 82.206 128.128 82.989 129.986 82.989 129.763 82.496 129.627 82.196" style="fill:#92c3d3"/><polygon points="131.928 81.767 131.755 81.384 132.04 81.381 131.674 80.665 131.444 80.215 131.439 80.205 131.745 80.202 131.477 79.566 131.338 79.238 131.547 79.236 131.251 78.541 131.025 78.01 130.492 79.245 130.722 79.243 130.721 79.245 130.307 80.215 130.622 80.212 130.621 80.215 130.01 81.399 130.297 81.397 129.625 82.866 129.891 82.863 129.829 82.989 132.231 82.989 132.159 82.843 132.414 82.841 131.928 81.767" style="fill:#92c3d3"/><polygon points="133.722 82.156 134.007 82.153 133.641 81.437 133.641 81.437 133.411 80.987 133.406 80.977 133.713 80.974 133.444 80.338 133.306 80.01 133.514 80.008 133.218 79.313 132.992 78.782 132.459 80.017 132.689 80.015 132.688 80.017 132.274 80.987 132.59 80.984 132.588 80.987 131.977 82.171 132.264 82.169 131.889 82.989 134.099 82.989 133.895 82.539 133.722 82.156" style="fill:#92c3d3"/><polygon points="134.942 81.679 134.787 81.312 135.019 81.31 134.689 80.534 134.436 79.941 133.841 81.321 134.098 81.318 134.097 81.321 133.634 82.404 133.987 82.401 133.985 82.404 133.684 82.989 135.203 82.989 135.162 82.907 134.905 82.404 134.905 82.404 134.899 82.393 135.241 82.39 134.942 81.679" style="fill:#92c3d3"/><polygon points="131.995 82.034 131.793 81.562 131.32 82.661 131.524 82.659 131.523 82.661 131.383 82.989 132.214 82.989 132.196 82.946 132.073 82.654 132.258 82.652 131.995 82.034" style="fill:#92c3d3"/><polygon points="128.062 82.778 127.796 82.255 127.79 82.244 128.145 82.241 127.834 81.501 127.673 81.12 127.915 81.118 127.571 80.31 127.308 79.693 126.689 81.128 126.956 81.126 126.955 81.128 126.474 82.255 126.841 82.252 126.839 82.255 126.46 82.989 128.17 82.989 128.062 82.778 128.062 82.778" style="fill:#92c3d3"/><polygon points="125.782 81.227 125.428 80.533 125.42 80.517 125.892 80.513 125.478 79.532 125.265 79.026 125.586 79.023 125.13 77.952 124.781 77.133 123.96 79.037 124.314 79.034 124.312 79.037 123.674 80.533 124.161 80.529 124.158 80.533 123.216 82.359 123.659 82.355 123.369 82.989 126.202 82.989 126.174 82.926 125.907 82.335 126.346 82.331 125.782 81.227" style="fill:#92c3d3"/><polygon points="123.231 81.906 122.912 81.28 122.905 81.266 123.331 81.263 122.958 80.378 122.765 79.92 123.054 79.918 122.643 78.951 122.328 78.212 121.587 79.931 121.907 79.928 121.905 79.931 121.329 81.28 121.768 81.277 121.766 81.28 120.916 82.928 121.316 82.925 121.286 82.989 123.381 82.989 123.344 82.907 123.74 82.903 123.231 81.906" style="fill:#92c3d3"/><polygon points="119.223 82.036 119.223 82.036 119.217 82.024 119.596 82.021 119.264 81.234 119.093 80.827 119.35 80.825 118.984 79.965 118.704 79.308 118.045 80.836 118.329 80.834 118.328 80.836 117.816 82.036 118.206 82.033 118.205 82.036 117.713 82.989 119.709 82.989 119.508 82.593 119.223 82.036" style="fill:#92c3d3"/><polygon points="149.844 83.05 150.024 82.66 150.024 83.09 149.824 83.09 149.844 83.05" style="fill:#92c3d3"/><polygon points="149.954 82.31 150.024 82.17 150.024 82.31 149.954 82.31" style="fill:#92c3d3"/><polygon points="149.757 82.881 149.49 82.358 149.484 82.346 149.84 82.343 149.528 81.604 149.367 81.222 149.609 81.22 149.265 80.413 149.002 79.796 148.384 81.231 148.65 81.229 148.649 81.231 148.168 82.358 148.535 82.355 148.533 82.358 148.155 83.091 149.864 83.091 149.757 82.881 149.757 82.881" style="fill:#92c3d3"/><polygon points="147.476 81.329 147.122 80.635 147.114 80.62 147.587 80.616 147.173 79.635 146.959 79.128 147.28 79.126 146.824 78.054 146.475 77.235 145.654 79.14 146.008 79.137 146.007 79.14 145.368 80.635 145.855 80.631 145.853 80.635 144.91 82.462 145.353 82.458 145.063 83.091 147.897 83.091 147.869 83.029 147.601 82.438 148.04 82.434 147.476 81.329" style="fill:#92c3d3"/><polygon points="144.926 82.009 144.606 81.383 144.599 81.369 145.025 81.365 144.652 80.48 144.459 80.023 144.749 80.021 144.337 79.054 144.022 78.315 143.281 80.034 143.601 80.031 143.6 80.034 143.024 81.383 143.463 81.379 143.461 81.383 142.61 83.031 143.01 83.028 142.981 83.091 145.076 83.091 145.039 83.009 145.435 83.006 144.926 82.009" style="fill:#92c3d3"/><polygon points="140.918 82.139 140.918 82.139 140.911 82.127 141.29 82.123 140.958 81.336 140.787 80.93 141.045 80.927 140.678 80.068 140.398 79.41 139.739 80.939 140.024 80.936 140.023 80.939 139.51 82.139 139.901 82.136 139.899 82.139 139.408 83.091 141.404 83.091 141.202 82.696 140.918 82.139" style="fill:#92c3d3"/><polygon points="0.024 91.16 150.024 92.08 150.024 115.51 0.024 107.45 0.024 91.16" style="fill:#cee2fd;opacity:0.49"/><path d="M22.664,120.48a.5284.5284,0,0,1-.14.33c-.67.81-3.77,1.43-7.5,1.43-3.72,0-6.82-.62-7.49-1.43a.5312.5312,0,0,1-.14-.33c0-.97,3.41-1.76,7.63-1.76S22.664,119.51,22.664,120.48Z" style="fill:#8ea5c1"/><path d="M22.5238,120.81c-.67.81-3.77,1.43-7.5,1.43-3.72,0-6.82-.62-7.49-1.43.68-.81,3.77-1.42,7.49-1.42S21.8441,120,22.5238,120.81Z" style="fill:#506a89"/><path d="M146.1345,92.0224h3.2679v-.3988h-1.1282V88.93h1.031c-.02-.1362-.0389-.2723-.0584-.3988h-3.1123V85.8269h2.4218c-.0486-.1264-.0973-.2626-.1459-.3988h-.1362v-.3015c-.1167-.2918-.2528-.5738-.3987-.8559v1.1574h-3.8807V83.7164c-.1264.175-.2529.34-.389.5154v1.1963h-1.0213c-.1264.1362-.2431.2724-.37.3988h3.5208v2.7038h-3.8806V86.2062c-.1265.1264-.2626.2626-.3891.3988v1.9257h-2.2467c-.175.1265-.35.2626-.5349.3988h.6419v2.6941h-3.8807v-.7392c-.1361.0681-.2723.1362-.3987.1945v.5447h-1.206c-.321.1362-.6614.2723-1.0018.3988h.0681v2.7621h.3987V92.0224h3.8807v2.7621h.3988V92.0224h3.8806v2.7621h.3891V92.0224h3.8806v2.7621h.3988Zm-17.108,1.1087c-.1362.0292-.2723.0584-.3988.0876v1.5658h.3988V93.1311Zm-4.2795.6225c-.1361.01-.2723.0194-.3987.0292v1.0017h.3987V93.7536Zm20.22-11.4183c-.0875.1361-.1751.2723-.2626.3987h2.2759c-.0973-.1361-.1848-.2626-.2821-.3987h-.5641v-.71c-.1264-.1556-.2626-.3113-.3988-.4669v1.1769Zm2.9081,6.5942h-3.8807v2.6941h3.8807Zm-4.27,0h-3.89v2.6941h3.89Z" style="fill:#91b2bf;fill-rule:evenodd"/><path d="M149.4024,94.7845H121.08V90.6413A14.2,14.2,0,0,1,135.2414,76.48h0a14.2,14.2,0,0,1,14.161,14.1611Z" style="fill:#acd6e2;fill-rule:evenodd"/><path d="M149.4024,94.7845H121.08V93.87c14.22.2237,21.2805-6.993,24.636-12.7313a14.0924,14.0924,0,0,1,3.6861,9.5023Z" style="fill:#9bc1ce;fill-rule:evenodd"/><path d="M146.1345,92.0224h3.2679v-.3988h-1.1282V88.93h1.031c-.02-.1362-.0389-.2723-.0584-.3988h-3.1123V85.8269h2.4218c-.0486-.1264-.0973-.2626-.1459-.3988h-.1362v-.3015c-.1167-.2918-.2528-.5738-.3987-.8559v1.1574h-3.8807V82.734h2.9859c-.0973-.1361-.1848-.2626-.2821-.3987h-.5641v-.71c-.1264-.1556-.2626-.3113-.3988-.4669v1.1769h-3.8806V79.6412h2.2759c-.1751-.1362-.35-.2821-.5252-.4085v.01h-3.89V77.21c-.1265-.0389-.2626-.0876-.3891-.1265v2.1592h-3.8807V76.48h-.3987v2.7622h-3.8807V77.0832c-.1362.0389-.2723.0876-.3988.1265v2.0327h-3.8806v-.01c-.1848.1264-.36.2723-.535.4085h2.2759v2.6941H124.747V81.1584c-.1361.1556-.2723.3113-.3987.4669v.71h-.5641c-.0876.1361-.1848.2626-.2821.3987h2.9859v2.6941h-3.8807V84.2707c-.1459.2821-.282.5641-.3987.8559v.3015h-.1362c-.0486.1362-.0973.2724-.1459.3988h2.4218v2.7038H121.236c-.02.1265-.0389.2626-.0584.3988h1.031v2.6941H121.08v.3988h3.268v2.7621h.3987V92.0224h3.8807v2.7621h.3988V92.0224h3.8807v2.7621h.3987V92.0224h3.8807v2.7621h.3988V92.0224h3.8806v2.7621h.3891V92.0224h3.8806v2.7621h.3988Zm1.741-3.0929h-3.8807v2.6941h3.8807Zm-4.27,0h-3.89v2.6941h3.89Zm-4.2795,0h-3.8807v2.6941h3.8807Zm-4.2794,0h-3.8807v2.6941h3.8807Zm-4.2795,0h-3.8806v2.6941h3.8806Zm-4.2794,0h-3.8807v2.6941h3.8807Zm19.2477-3.1026h-3.8806v2.7038h3.8806Zm-4.27,0h-3.8806v2.7038h3.8806Zm-4.2794,0h-3.8807v2.7038h3.8807Zm-4.2794,0h-3.8807v2.7038h3.8807Zm-4.2795,0H124.747v2.7038h3.8807Zm14.9781-3.0929h-3.89v2.6941h3.89Zm-4.2795,0h-3.8807v2.6941h3.8807Zm-4.2794,0h-3.8807v2.6941h3.8807Zm-4.2795,0h-3.8806v2.6941h3.8806Zm10.6986-3.0928h-3.8806v2.6941h3.8806Zm-4.2794,0h-3.8807v2.6941h3.8807Zm-4.2794,0h-3.8807v2.6941h3.8807Z" style="fill:#a3c9d6;fill-rule:evenodd"/><path d="M140.7366,94.7845h-10.99V89.64a5.5082,5.5082,0,0,1,5.4952-5.4952h0a5.5082,5.5082,0,0,1,5.4952,5.4952Z" style="fill:#e3fafb;fill-rule:evenodd"/><path d="M139.2485,94.7845h-8.0142V89.64a4.0139,4.0139,0,0,1,4.0071-4.0071h0a4.0139,4.0139,0,0,1,4.0071,4.0071Z" style="fill:#8aafc1;fill-rule:evenodd"/><path d="M137.3811,94.7845h-6.04V90.9039a3.0323,3.0323,0,0,1,3.0247-3.0151h0a3.024,3.024,0,0,1,3.0151,3.0151Z" style="fill:#728f9e;fill-rule:evenodd"/><polygon points="114.644 84.832 116.267 85.979 117.581 86.909 117.641 84.144 117.642 84.139 116.738 83.199 115.708 82.127 116.797 83.144 117.646 83.936 117.711 80.94 117.199 80.342 116.675 79.73 117.26 80.289 117.715 80.724 117.761 78.61 117.537 78.272 117.339 77.952 117.582 78.241 117.764 78.492 117.789 77.304 117.832 79.259 118.085 79.032 118.39 78.759 118.147 79.084 117.836 79.438 117.898 82.316 118.474 81.634 119.193 80.783 118.54 81.682 117.903 82.558 117.938 84.144 117.952 84.842 119.031 83.807 120.308 82.581 119.108 83.876 117.959 85.115 118.015 87.709 119.4 86.462 121.08 84.95 119.51 86.567 118.023 88.097 118.085 90.984 117.789 90.984 117.493 90.984 117.575 87.211 116.182 86.081 114.644 84.832" style="fill:#8c8393"/><polygon points="0.622 84.688 1.769 85.499 2.698 86.156 2.741 84.202 2.741 84.198 2.103 83.534 1.374 82.776 2.144 83.495 2.744 84.055 2.79 81.937 2.428 81.515 2.058 81.082 2.472 81.477 2.793 81.785 2.825 80.29 2.667 80.051 2.527 79.825 2.699 80.03 2.827 80.207 2.845 79.368 2.875 80.749 3.055 80.588 3.27 80.395 3.099 80.625 2.878 80.876 2.922 82.91 3.329 82.428 3.838 81.826 3.376 82.462 2.926 83.081 2.95 84.202 2.961 84.696 3.723 83.964 4.626 83.097 3.777 84.012 2.965 84.888 3.005 86.722 3.984 85.841 5.172 84.772 4.062 85.915 3.01 86.996 3.055 89.037 2.845 89.037 2.636 89.037 2.694 86.37 1.71 85.571 0.622 84.688" style="fill:#9d95a3"/></svg>