<svg xmlns="http://www.w3.org/2000/svg" viewBox="0 0 150 150"><g style="isolation:isolate"><g id="Camada_1" data-name="Camada 1"><rect width="150" height="150" style="fill:#b7f7ed"/><rect x="-0.0027" y="33.4821" width="150" height="62.6078" style="fill:#c9f4d3"/><rect x="-0.0027" y="87.4121" width="150" height="62.61" style="fill:#e6f9c5"/><polygon points="149.838 66.517 -0.101 61.971 -0.101 69.471 149.838 79.059 149.838 66.517" style="fill:#79e2f2;opacity:0.2;mix-blend-mode:multiply"/><polygon points="149.838 81.984 -0.101 73.175 -0.101 75.056 149.838 84.943 149.838 81.984" style="fill:#79e2f2;opacity:0.2;mix-blend-mode:multiply"/><polygon points="149.838 94.86 -0.101 90.314 -0.101 97.814 149.838 107.402 149.838 94.86" style="fill:#79e2f2;opacity:0.2;mix-blend-mode:multiply"/><polygon points="149.838 110.326 -0.101 101.518 -0.101 103.399 149.838 113.286 149.838 110.326" style="fill:#79e2f2;opacity:0.2;mix-blend-mode:multiply"/><polygon points="143.462 64.002 144.031 63.798 143.462 63.696 143.462 64.002" style="fill:#afdbc1"/><path d="M145.0433,57.9407q-.4429.4011-.8772.8118c-.4371.4136-.8462.8553-1.27,1.2819-.3927.395-.8528.7312-1.2665,1.114-.5532.5118-1.11,1.0228-1.6849,1.5114a21.4006,21.4006,0,0,1-3.5158-3.994,12.71,12.71,0,0,1-1.16-1.4745c-.0413-.0775-.1208-.1712-.1968-.1272a.1559.1559,0,0,0-.0549.1371,3.1042,3.1042,0,0,0,.2134.9369,12.7064,12.7064,0,0,0,1.3178,2.87,16.3346,16.3346,0,0,0,1.7244,2.3964c-.0609.011-.1229.0149-.1828.03a5.2248,5.2248,0,0,0-.7044.254l-.9406.391a2.4838,2.4838,0,0,1-1.5269.0376,9.1454,9.1454,0,0,1-1.49-.52q-.2829.9249-.5659,1.85a4.7768,4.7768,0,0,1,2.7664-.4753,8.9819,8.9819,0,0,1,1.1985.4667,5.1312,5.1312,0,0,0,4.0613-.1892,13.8567,13.8567,0,0,0,1.2387-.74,3.0671,3.0671,0,0,1,.6984-.3047c.1413-.0454.2825-.0909.4242-.135q.1072-.0336.2152-.065a.8725.8725,0,0,0,.18-.0621.15.15,0,0,0,.04-.0219.3325.3325,0,0,1,.0192-.1829.4706.4706,0,0,0-.0949-.1846.5858.5858,0,0,0-.5255-.254,1.2464,1.2464,0,0,0-.2628.0388,1.8126,1.8126,0,0,0-.2406.089.525.525,0,0,1-.0957.0245,1.0913,1.0913,0,0,1-.4828.0281c-.0783-.022-.1524-.0563-.229-.0831-.0341-.0119-.1828-.0715-.214-.0436a23.3529,23.3529,0,0,0,1.8867-1.774,10.9126,10.9126,0,0,0,1.4326-2.04,10.29,10.29,0,0,0,.8667-2.0861C145.5348,57.3934,145.1846,57.8127,145.0433,57.9407Z" style="fill:#afdbc1"/><polygon points="76.728 47.696 77.296 47.492 76.728 47.39 76.728 47.696" style="fill:#afdbc1"/><path d="M76.3972,49.36c-.3914-.4232-.8149-.8145-1.2364-1.2079.0419.0392.3574-.0158.4229-.0186a2.1911,2.1911,0,0,0,.3972-.0459,2.1286,2.1286,0,0,0,.5485-.2217c.0743-.0407.1474-.0834.22-.1263a2.3281,2.3281,0,0,0,.207-.1264.2934.2934,0,0,1-.03-.187.6572.6572,0,0,0-.6852-.3115,2.753,2.753,0,0,1-.3927.0873,1.5361,1.5361,0,0,1-.6077-.145,7.3455,7.3455,0,0,0-2.2907-.3742,5.5533,5.5533,0,0,0-2.8185.6706,4.3961,4.3961,0,0,1-2.463.6633c-.763-.0849-1.4422-.4566-2.1963-.5794-.0636-.01-.1426-.0144-.1777.0395a.1687.1687,0,0,0-.018.0939c.0011.3409.14.8561-.0552,1.1549.825.0847,1.6474-.1838,2.4768-.1785a10.8679,10.8679,0,0,1,2.5969.5422,8.2523,8.2523,0,0,1-.7469,1.7458,5.6051,5.6051,0,0,1-1.7974,2.394c.0577-.0338.3455.0421.4264.0427a2.3827,2.3827,0,0,0,.5324-.0573,2.6286,2.6286,0,0,0,.9481-.4313,11.5559,11.5559,0,0,0,1.4824-1.62,10.8435,10.8435,0,0,0,.7676-.9147c.24-.32.4171-.6874.6364-1.0071.0133-.0192.022-.0412.034-.0612.075-.0217.15-.0447.2224-.0736a6.1048,6.1048,0,0,0,2.6548,3.3425c.8756.5163,1.7541.9021,1.88,2.035l.29-.3862a3.007,3.007,0,0,0,.2136-2.3518A5.8844,5.8844,0,0,0,76.3972,49.36Z" style="fill:#afdbc1"/><polygon points="128.546 114.876 128.546 114.569 127.977 114.773 128.546 114.876" style="fill:#afdbc1"/><path d="M138.2984,115.5771a16.5124,16.5124,0,0,1-1.8523.5038,4.1139,4.1139,0,0,1-1.716-.835.1672.1672,0,0,1-.0332-.0786c-.0151-.1751.72-.9148.8305-1.1376a4.67,4.67,0,0,0,.4349-1.5058,7.5762,7.5762,0,0,0-.1521-3.05,2.5926,2.5926,0,0,1-.6009,1.3527,10.96,10.96,0,0,1-.8649,1.2166,8.5346,8.5346,0,0,1-2.26,1.9446.4692.4692,0,0,1-.1866.0749c-.1508.0147-.2757-.11-.372-.2268a29.0315,29.0315,0,0,1-2.7374-4.8427,1.204,1.204,0,0,0-.0618.6132,8.934,8.934,0,0,0,.297,1.4273,8.0223,8.0223,0,0,0,1.4523,3.32,3.6269,3.6269,0,0,1-.8147-.066,3.3778,3.3778,0,0,0-.4845-.1128.8877.8877,0,0,0-.7173.279.5923.5923,0,0,0-.1234.19.2253.2253,0,0,1,.0462.1373v.001a.2464.2464,0,0,1-.0133.0609.25.25,0,0,0,.0437.0285c.2222.1158.4467.2566.6748.3575.51.2254,1.0159.46,1.5227.6923a7.6724,7.6724,0,0,0,1.4759.5791,13.3724,13.3724,0,0,0,2.8852.3551c1.1881.0015,2.2472-.2828,3.4066.19C138.3784,116.9489,138.2812,115.5792,138.2984,115.5771Z" style="fill:#afdbc1"/><polygon points="31.069 68.882 31.638 68.678 31.069 68.568 31.069 68.882" style="fill:#afdbc1"/><path d="M30.51,66.4564a1.8254,1.8254,0,0,0-.9853.4688c-.3757.3033-.7784.5866-1.1547.8962a3.6649,3.6649,0,0,0-.9916-1.7611,3.0607,3.0607,0,0,0-1.4858-.4554l-5.406-.6806a4.9679,4.9679,0,0,0,.83.83A10.7347,10.7347,0,0,0,23.4523,67.29c.6554.3244,1.3716.512,2.0279.8346a3.8218,3.8218,0,0,1,.78.5046,10.4889,10.4889,0,0,0-1.7184.92.7013.7013,0,0,1-.196.1073.6677.6677,0,0,1-.1751.0185,6.6459,6.6459,0,0,0-2.7413.3335,8.6277,8.6277,0,0,1,1.0481,1.057.1071.1071,0,0,0,.0562.0387.1112.1112,0,0,0,.0736-.0242c.2254-.1394.4715-.2319.6877-.3784a1.8213,1.8213,0,0,1,.84-.2963,10.6045,10.6045,0,0,1,1.9592.22,4.5285,4.5285,0,0,0,2.7282-.5841,12.2981,12.2981,0,0,1,1.1344-.6816,6.9881,6.9881,0,0,1,.7028-.2575,3.6186,3.6186,0,0,0,.4526-.17c.0382-.019.072-.044.11-.0636q.0435-.0225.0849-.0487a.3752.3752,0,0,0,.0383-.0226.26.26,0,0,1,.0248-.1513l.005-.01a.3775.3775,0,0,0-.0342-.1226.6223.6223,0,0,0-.1547-.2043.4859.4859,0,0,0-.2538-.12.8912.8912,0,0,0-.5317.1039c-.1779.0837-.3068.03-.5038.039.24-.1479.4765-.2877.7226-.4293q.273-.1572.5525-.3025a14.5018,14.5018,0,0,1,2.0479-.8663,15.2144,15.2144,0,0,0,2.0188-.7186c.0274-.0138.06-.0387.05-.0675A13.764,13.764,0,0,0,30.51,66.4564Z" style="fill:#afdbc1"/><path d="M91.4267,40.3121A16.3194,16.3194,0,0,1,102.78,35.345s1.4191-4.967,8.5149-4.73c0,0,2.8383-3.3113,8.2784-1.4191,0,0,4.2575-3.0749,8.0419,2.1287,0,0,3.5479-1.8483,4.494,2.9785a4.8237,4.8237,0,0,1,5.9131,2.9346s4.2575.2366,5.44,3.0749Z" style="fill:#fcffe1"/><path d="M4.2607,28.23a13.037,13.037,0,0,1,9.49-4.8952s1.1862-4.8951,7.1173-4.662c0,0,2.3725-3.2634,6.92-1.3986,0,0,3.5586-3.03,6.7219,2.0979,0,0,2.9656-1.8215,3.7564,2.9354,0,0,3.361-1.3037,4.9426,2.8921,0,0,3.5587.2331,4.5472,3.03Z" style="fill:#fcffe1"/><path d="M29.8274,109.5321H-.0027V98.312a8.4823,8.4823,0,0,1,5.94.1s4.26-3.07,8.04,2.13c0,0,3.55-1.84,4.5,2.98a4.8227,4.8227,0,0,1,5.91,2.94S28.6472,106.6921,29.8274,109.5321Z" style="fill:#fcffe1"/><path d="M149.9973,90.1321v9.95h-16.64c1.18-2.84,5.44-3.08,5.44-3.08a4.824,4.824,0,0,1,5.91-2.93c.95-4.83,4.5-2.98,4.5-2.98A8.7737,8.7737,0,0,1,149.9973,90.1321Z" style="fill:#fcffe1"/></g></g></svg>