<svg id="Camada_1" data-name="Camada 1" xmlns="http://www.w3.org/2000/svg" viewBox="0 0 150 150"><rect x="0.0038" width="150" height="150" style="fill:#defcea"/><path d="M31.8739,62.83.0038,68.1V27.04C7.1337,32.02,23.3041,44.74,31.8739,62.83Z" style="fill:#99c9b1"/><path d="M37.6212,57.7463S60.648,27.9112,107.9037,43.32s5.89,39.64,5.89,39.64-25.9549,9.78-35.2649,6.58S46.07,77.9818,46.07,77.9818Z" style="fill:#99c9b1"/><path d="M150.0038,1.98V94.06c-14.76-11.86-53.7-44.91-53.7-44.91l22.19,4.43S131.8539,16.37,150.0038,1.98Z" style="fill:#99c9b1"/><rect x="0.0038" y="82.3101" width="150" height="67.6899" style="fill:#9ac191"/><rect x="0.0038" y="128.45" width="150" height="21.55" style="fill:#88b27e"/><path d="M101.4241,82.3123a4.9334,4.9334,0,0,0-5.84-4.0995,7.3389,7.3389,0,0,0-8.4639-3.73,7.6383,7.6383,0,0,0-13.5385,1.2254,6.4383,6.4383,0,0,0-7.9669,3.9989,4.0254,4.0254,0,0,0-4.9812,1.2612,2.84,2.84,0,0,0-4.1819,1.344Z" style="fill:#6e9b74"/><path d="M101.4241,84.7089a4.9323,4.9323,0,0,0-5.84-4.0993,7.3393,7.3393,0,0,0-8.4639-3.73,7.6383,7.6383,0,0,0-13.5385,1.2255,6.4387,6.4387,0,0,0-7.9669,3.9989,4.0251,4.0251,0,0,0-4.9812,1.2611,2.8406,2.8406,0,0,0-4.1819,1.344Z" style="fill:#4e7159"/><rect x="0.0038" y="81.9931" width="149.4574" height="18.2638" style="fill:#9ac191"/><path d="M23.5941,128.45H.0038v-8.89a3.633,3.633,0,0,1,.29.27,6.4779,6.4779,0,0,1,3.27-.85c2.31,0,4.25,1.1,4.83,2.59a10.76,10.76,0,0,1,1.91-.17c3.81,0,6.98,1.93,7.63,4.47.23-.02.46-.04.7-.04C20.9838,125.83,22.974,126.94,23.5941,128.45Z" style="fill:#68876f"/><path d="M110.3226,129.9461A5.7116,5.7116,0,0,0,103.56,125.2a8.4973,8.4973,0,0,0-9.8-4.3191A8.8444,8.8444,0,0,0,78.0838,122.3a7.4546,7.4546,0,0,0-9.2248,4.63,4.6606,4.6606,0,0,0-5.7677,1.46,3.289,3.289,0,0,0-4.8422,1.556Z" style="fill:#4e7159"/><path d="M53.4437,112.77H.0038V106.6a10.4555,10.4555,0,0,1,4.03-.79,10.3335,10.3335,0,0,1,5.33,1.45,9.0787,9.0787,0,0,1,3.46-2.36,3.9113,3.9113,0,0,1-.25-1.36c0-2.44,2.26-4.42,5.04-4.42a5.4774,5.4774,0,0,1,2.92.83,10.6477,10.6477,0,0,1,6.53-2.16,10.2747,10.2747,0,0,1,8.5,4.21,7.3814,7.3814,0,0,1,3.24-.74,6.5946,6.5946,0,0,1,6.54,4.55h.02C49.7738,105.81,53.3637,108.91,53.4437,112.77Z" style="fill:#6b8e72"/><path d="M150.0038,132.32V150h-42.68a8.3952,8.3952,0,0,1,10.63-1.24,11.93,11.93,0,0,1,14.77-3.74,19.19,19.19,0,0,1,4.95-7.55A18.9031,18.9031,0,0,1,150.0038,132.32Z" style="fill:#4e7159"/><polyline points="84.044 150 150.004 150 150.004 131.74" style="fill:none"/><polyline points="0.004 11.26 0.004 1.72 0.004 0 0.874 0 0.884 0" style="fill:none"/><path d="M147.244,29.16a.4881.4881,0,0,1-.12-.01c-.78-.03-1.55-.07-2.31-.11-.44-.01-.87-.02-1.31-.02-.9,0-1.8.02-2.69.08a49.08,49.08,0,0,0-5.45.57c-1.59.25-3.15.58-4.69.98-1.2.31-2.36.66-3.53,1.06h-.03a47.4935,47.4935,0,0,0-4.59,1.8.4017.4017,0,0,0-.16.08h-.02c-.43.18-.85.38-1.27.59-.37.17-.72.35-1.09.54l-.01.01c-.79.4-1.57.82-2.34,1.28l-.01.01h-.01c-.6.35-1.2.71-1.79,1.1-.29.17-.57.35-.85.55-.33.21-.64.42-.96.65-1.2.83-2.37,1.72-3.49,2.66-.55.45-1.08.92-1.61,1.41h-.01c-.34.3-.67.61-1,.93-.58.55-1.16,1.12-1.7,1.71q-1.0348,1.065-1.98,2.19c-.57.66-1.12,1.34-1.64,2.04-.13.16-.26.33-.37.49a8.881,8.881,0,0,0-.53.72v.01a4.8551,4.8551,0,0,0-.33.46,49.9167,49.9167,0,0,0-4.95,8.74l-4.8,10.82-7.73-8.96a19.4884,19.4884,0,0,0-1.54-1.6,20.0851,20.0851,0,0,0-6.57-4.08,19.86,19.86,0,0,0-3.81-1.03,8.4577,8.4577,0,0,0-.88-.11,18.4125,18.4125,0,0,0-2.35-.15,19.8265,19.8265,0,0,0-14.3,6.03l-4.06,4.14-1.99,2.03-5.25-6.86c-.71-.93-1.45-1.83-2.23-2.69a45.9786,45.9786,0,0,0-18.23-12.56c-.27-.1-.54-.2-.82-.3-.23-.08-.46-.16-.69-.23-.84-.29-1.68-.55-2.54-.78a44.3143,44.3143,0,0,0-6.21-1.25c-.33-.05-.67-.09-1.01-.12-.27-.03-.54-.06-.82-.08-.26-.03-.53-.05-.8-.07-1.16-.09-2.33-.13-3.5-.13a45.0321,45.0321,0,0,0-6.27.43V84.24h150V29.43Q148.6393,29.25,147.244,29.16Z" style="fill:#79aa87"/><path d="M150.0038,63.39V93.05h-150V71.09c.1-.03.2-.07.3-.11.39-.13.79-.26,1.19-.37a16.4188,16.4188,0,0,1,.61-2.44,16.6421,16.6421,0,0,1,1.84-3.85,16.2833,16.2833,0,0,1,1.69-2.2,16.6817,16.6817,0,0,1,3.27-2.82,16.9953,16.9953,0,0,1,21.03,1.83,15.6245,15.6245,0,0,1,6.7-1.5,15.33,15.33,0,0,1,4.26.59,15.6638,15.6638,0,0,1,9.47,7.52,15.4738,15.4738,0,0,1,1.95,7.57v.03a15.9168,15.9168,0,0,1,8.06,6.49,11.4793,11.4793,0,0,1,.66,1.13h52.76a4.2054,4.2054,0,0,1-.25-1.23v-.02a4.3817,4.3817,0,0,1,.41-2.17q.1047-.21.21-.42l.01-.02a12.1484,12.1484,0,0,1,1.02-1.66,10.2513,10.2513,0,0,1,6.28-4.15,8.4137,8.4137,0,0,1,1.74-.18c.43-4.86,3.94-8.64,8.21-8.64a7.2085,7.2085,0,0,1,3.51.92,10.497,10.497,0,0,1,.91-.97,11.51,11.51,0,0,1,3.74-2.51,10.3515,10.3515,0,0,1,6.35-.48A10.8272,10.8272,0,0,1,150.0038,63.39Z" style="fill:#6e9b74"/><path d="M150.0038,101.09v11.43h-23.83a5.1238,5.1238,0,0,1,5.06-4.34,5.3675,5.3675,0,0,1,.99.09,7.6059,7.6059,0,0,1,6.76-4.13,7.8058,7.8058,0,0,1,2.01.27,7.9,7.9,0,0,1,6.68-3.68A7.5194,7.5194,0,0,1,150.0038,101.09Z" style="fill:#68876f"/><path d="M150.0038,88.61v9.08h-10.59a1.9491,1.9491,0,0,1-1.94-1.64,5.8776,5.8776,0,0,1-.05-.76c0-2.09,2.4-2.57,2.4-2.69,0-3.82,2.75-5.7,6.14-5.7A5.75,5.75,0,0,1,150.0038,88.61Z" style="fill:#68876f"/><path d="M12.244,96.5H.0038V88.43a7.04,7.04,0,0,1,2.87.63,7.3118,7.3118,0,0,1,3.24,2.81,4.6712,4.6712,0,0,1,.31.54,5.0534,5.0534,0,0,1,.96-.09A4.9123,4.9123,0,0,1,12.244,96.5Z" style="fill:#68876f"/></svg>