<svg id="Camada_1" data-name="Camada 1" xmlns="http://www.w3.org/2000/svg" viewBox="0 0 150 150"><rect x="0.0173" width="150" height="150" style="fill:#d6eae6"/><rect x="0.0206" y="81.4821" width="150" height="68.52" style="fill:#b9ceab"/><path d="M149.9977,79.52v2.4826a4.6111,4.6111,0,0,1-.78.0667H-.0023V79.9775a6.8879,6.8879,0,0,1,3.88-.3,15.9444,15.9444,0,0,0,4.52.7481c1.26-.0953,2.21-.6,3.43-.7815,2.68-.3954,5.42.8768,8.18.629,1.73-.1572,3.05-.891,4.79-1.034,2.39-.1954,4.59.7767,7.01.7434a17.4032,17.4032,0,0,0,5.45-1.3342,30.8788,30.8788,0,0,1,8.03-1.3962,4.1929,4.1929,0,0,1,1.51.1191c.79.2764.53.872,1,1.2818a5.6014,5.6014,0,0,0,2.92.6147,232.4969,232.4969,0,0,0,25.59-.41,6.0237,6.0237,0,0,0,1.83-.3145,6.1642,6.1642,0,0,0,.99-.6957,5.2141,5.2141,0,0,1,4.18-.1143,9.8629,9.8629,0,0,0,1.14.6718,7.396,7.396,0,0,0,2.35.2859c8.83.162,17.86.305,26.2705-.972a15.7391,15.7391,0,0,1,3.93-.2907c1.72.1716,2.92.92,4.52,1.277,3.88.8625,8.69-.7671,12.62.0429a10.3353,10.3353,0,0,0,3.41.5051,4.8176,4.8176,0,0,0,1.69-.61,7.472,7.472,0,0,1,2.78-.8482c1.11-.0953,2.42.21,2.6.7386.06.1858-.02.3859.14.5575.4.4241,1.6905.3145,2.66.2478A9.4179,9.4179,0,0,1,149.9977,79.52Z" style="fill:#afbca0"/><path d="M94.5947,23.6215a16.3191,16.3191,0,0,1,11.3532-4.967s1.4192-4.9671,8.5149-4.73c0,0,2.8384-3.3114,8.2785-1.4192,0,0,4.2574-3.0748,8.0418,2.1287,0,0,3.5479-1.8482,4.494,2.9786a4.8236,4.8236,0,0,1,5.9132,2.9346s4.2574.2365,5.44,3.0748Z" style="fill:#fff"/><path d="M5.86,36.73a16.32,16.32,0,0,1,11.3533-4.967s1.4191-4.9671,8.5149-4.73c0,0,2.8383-3.3114,8.2784-1.4192,0,0,4.2575-3.0748,8.0419,2.1287,0,0,3.5479-1.8482,4.494,2.9786a4.8235,4.8235,0,0,1,5.9131,2.9346s4.2575.2365,5.44,3.0748Z" style="fill:#fff"/><path d="M33.9924,149.2556c.4074-.3454,4.3865-3.2191,4.2482-3.5161-.0621-.1105-4.4,2.4937-4.8078,2.7424.2624-.4352,5.4776-7.2394,5.2776-7.419-.1521,0-5.74,6.4933-6.0514,6.8595.1245-.5044,2.7217-9.5465,2.4663-9.6709-.1039,0-3.2262,9.0077-3.4056,9.45-.0415-.3731-.228-10.569-.4422-10.5828-.0965,0-.4075,10.2305-.449,10.5828-.1932-.4906-3.0255-11.4739-3.3432-11.4739-.1177.0207,2.2932,11.2251,2.4039,11.6949-.3387-.3937-4.7943-7.4466-5.0429-7.3084-.1241.0689,4.0205,7.46,4.2691,7.8679-.4283-.2625-6.4588-5.1117-6.6244-4.9252,0,.1312,5.6989,5.388,6.0649,5.6989-.47-.1175-5.83-1.8376-5.9131-1.6441,0,.076,3.1914,1.4921,4.7939,2.1967H35.16c1.561-.6356,4.6007-1.9066,4.566-2.1207C39.6913,147.5424,34.4622,149.145,33.9924,149.2556Z" style="fill:#aa9f74"/><g style="opacity:0.5700000000000001"><path d="M7.6006,107.5321c-.02-.08-2.85.79-3.1.85a18.2845,18.2845,0,0,0,2.3-1.91c-.11,0-2.39,1.35-2.61,1.49.15-.24,2.97-3.92,2.86-4.02-.07,0-3.11,3.52-3.28,3.72.07-.28,1.48-5.17,1.34-5.24-.06,0-1.75,4.88-1.85,5.12-.0205-.2-.12-5.73-.2305-5.73-.0595,0-.23,5.54-.25,5.73-.1-.27-1.64-6.21-1.8095-6.21,0,.27,1.24,6.08,1.3,6.33-.14-.17-1.5-2.32-2.25-3.38v.37c.65,1.21,1.74,3.16,1.83,3.31-.12-.07-.98-.75-1.83-1.41v.43c.74.68,1.44,1.32,1.53,1.4-.12-.03-.82-.25-1.53-.46v.35c.66.29,1.29.57,1.4.61-.14.02-.79-.03-1.4-.05v.31c1.06.2,2.48.36,2.85.38a21.4251,21.4251,0,0,0,4.36-.7c0-.01-2.32.07-2.57.05A23.2982,23.2982,0,0,0,7.6006,107.5321Z" style="fill:#a59877"/></g><path d="M14.4532,91.6462H11.7c.0438-.4016.0656-1.161.0727-2.1395v-.0073c.0075-1.1975-.0143-2.7162-.0435-4.3008-.0075-.146-.0075-.2847-.0146-.4308-.0146-.6937-.0293-1.402-.0514-2.0883-.0438-1.6356-.0948-3.1836-.1312-4.3155-.0146-.4965-.0367-.92-.0513-1.2339-.0071-.3944-.0218-.628-.0218-.65,0-.0073-.0071-.0439-.0071-.0439a1.0479,1.0479,0,0,0-.0731-.2555,1.7017,1.7017,0,0,1-.0806-.168,3.3342,3.3342,0,0,0-1.0878-.7228c-.8688-.4527-1.7377-.8982-2.6212-1.3289-1.4679-.7156-5.3816-2.6142-5.8708-2.8624a2.0375,2.0375,0,0,1-.57-.4235,2.6572,2.6572,0,0,1-.38-.6573c-.1534-.3358-.3142-.679-.4675-1.0149-.0948-.2117-.19-.4308-.2845-.6425V67.068c.27.4674.533.9274.7887,1.402.08.1241.1458.2556.2189.387.0364.0656.0731.1314.1023.1971a4.8741,4.8741,0,0,0,.6789,1.1026c.0075,0,.1244.0876.1461.1022.0293.0147.0657.0366.1024.0512,0,0,3.7968,1.8036,4.79,2.2708,1.424.6718,2.848,1.3509,4.2938,1.9716a2.4054,2.4054,0,0,1,1.5477,1.621,47.0707,47.0707,0,0,1,.6136,5.17V81.38c.0439.4017.08.8178.1166,1.234.0585.7084.117,1.4385.1826,2.1541.0149.1461.0292.2848.0367.4308.1023,1.1391.2043,2.2344.3141,3.2056v.0292c.0292.27.0585.5184.0874.7593.0438.38.0877.73.1386,1.0442v.0073c.0222.168.0439.3214.0731.4674,0,0-.0071,0,0,.0073A5.9512,5.9512,0,0,0,14.4532,91.6462Z" style="fill:#cc977a"/><path d="M12.1239,78.59c-.0806-.0365-.2848-.1095-.5915-.2264C9.7,77.7,4.1867,75.7865.0173,74.3042v-.7667C3.9966,74.8884,9.4149,76.67,11.4811,77.13a4.3845,4.3845,0,0,0,.7013.1095A6.48,6.48,0,0,1,12.1239,78.59Z" style="fill:#cc977a"/><path d="M16.0556,79.7834c2.8494-2.0715,13.3266-6.996,13.8786-7.733.2867-.3818,2.274-5.4154,2.6441-6.4151-.63,1.1819-2.515,5.0528-2.9215,5.7488-.2624.4524-11.2538,5.1149-13.5434,6.5478A14.0372,14.0372,0,0,0,16.0556,79.7834Z" style="fill:#cc977a"/><path d="M1.0261,69.1083q.9058-.4541,1.8119-.9078a2.4193,2.4193,0,0,0,1.06-.805,3.4305,3.4305,0,0,0-.0135-2.2673q-.1722-1.0455-.3409-2.0907.1069,1.4878.2139,2.9771a1.8365,1.8365,0,0,1-.1347,1.1021,1.2932,1.2932,0,0,1-.5441.4556c-.748.3555-1.5581.614-2.3282.9167C.8407,68.6954.9341,68.9019,1.0261,69.1083Z" style="fill:#cc977a"/><path d="M8.6931,69.2q.8278-.552,1.6585-1.1035.6516-.4343,1.3043-.8682c.4364-.291.91-.5594,1.3171-.8906.8671-.7049.7209-1.8048.7266-2.8031q.0052-1.04.0121-2.0794-.0728.9938-.1441,1.9874c-.067.9091.0435,2.0248-.7893,2.623a14.4447,14.4447,0,0,1-1.2743.7438q-.6825.39-1.3641.7812-.9016.516-1.8041,1.0328C8.4549,68.8159,8.5733,69.0077,8.6931,69.2Z" style="fill:#cc977a"/><path d="M23.8716,70.026q-1.0278-.52-2.0543-1.04-.8472-.4282-1.6965-.8582a18.4511,18.4511,0,0,1-1.6757-.8606,1.4805,1.4805,0,0,1-.6254-1.3264c.0022-.6232.0029-1.2467.0057-1.87q.0054-1.1948.0086-2.3892-.07,1.192-.1419,2.3849c-.0378.6222-.0735,1.245-.1119,1.8675A1.7986,1.7986,0,0,0,18.0836,67.4a7.9481,7.9481,0,0,0,1.5709.9676q.8728.507,1.75,1.0129,1.0718.6214,2.1442,1.2415C23.6556,70.4239,23.7632,70.2246,23.8716,70.026Z" style="fill:#cc977a"/><path d="M6.474,66.87c.3722-.2464.7459-.4928,1.1174-.74a4.9491,4.9491,0,0,0,1.6458-1.3068A3.0614,3.0614,0,0,0,9.3584,63.13c-.0371-.4738-.0714-.9473-.1077-1.4208.0057.4471.0114.8927.0164,1.34A3.0277,3.0277,0,0,1,9.07,64.726,4.8106,4.8106,0,0,1,7.42,65.8552q-.58.3344-1.16.6689C6.3321,66.6389,6.4034,66.7551,6.474,66.87Z" style="fill:#cc977a"/><path d="M14.2422,69.3682a1.7237,1.7237,0,0,0,.3159-.6482h.169a1.715,1.715,0,0,1-.27.8493,12.8142,12.8142,0,0,1-2.79,1.583c-.0521-.1155-.1063-.23-.16-.3455A12.9768,12.9768,0,0,0,14.2422,69.3682Z" style="fill:#cc977a"/><path d="M12.2256,66.8482q.6429-.1845,1.2871-.369a4.9309,4.9309,0,0,0,1.9631-.75,3.0351,3.0351,0,0,0,.6247-1.5791q.1647-.693.3266-1.3865-.1937.6417-.3887,1.2824a3.0138,3.0138,0,0,1-.6931,1.5392,4.8072,4.8072,0,0,1-1.9124.5811c-.4357.0952-.55.0692-.9862.164C12.3354,66.5212,12.1922,66.7162,12.2256,66.8482Z" style="fill:#cc977a"/><path d="M19.8584,68.27q.7434-.4711,1.49-.94a6.2531,6.2531,0,0,0,1.9054-1.4533A3.9951,3.9951,0,0,0,23.78,63.931q.107-.92.2139-1.84-.1239.7375-.2481,1.4757a4.7438,4.7438,0,0,1-.7337,2.2983,7.5392,7.5392,0,0,1-1.9817,1.2786q-.6909.3882-1.38.7762Q19.7539,68.0954,19.8584,68.27Z" style="fill:#cc977a"/><path d="M30.2037,71.2265q.706-.0926,1.4119-.1858a4.6563,4.6563,0,0,0,1.889-.4785,6.0589,6.0589,0,0,0,1.8133-2.6672q-.3893.5963-.78,1.1912A2.9563,2.9563,0,0,1,33.3855,70.25a4.3414,4.3414,0,0,1-1.8127.2624c-.4727.0124-.9469.026-1.4211.0381C30.1681,70.7762,30.1873,71.0015,30.2037,71.2265Z" style="fill:#cc977a"/><path d="M14.6867,89.996v-.0073c-.0071-.2045-.0071-.4236-.0071-.65v-.3724c-.0075-1.088-.0146-2.3877-.0146-3.7678,0-.146-.0075-.2847,0-.4308-.0075-.6864-.0075-1.3874-.0075-2.081-.0071-.27-.0071-.54-.0071-.8105v-.0584c-.0147-4.016-.0293-7.7766-.0368-8.1125a1.9476,1.9476,0,0,0-.16-.7667,3.2158,3.2158,0,0,0-1.3581-1.27c-.2631-.168-.6282-.4089-1.0589-.6937-.1169-.073-.2339-.1533-.3579-.2336a.0071.0071,0,0,0-.0072-.0073c-.8689-.57-1.8911-1.2414-2.658-1.7452-.2335-.1533-.4382-.2848-.6132-.4016-.2335-.1533-.409-.27-.5038-.3286-.1826-.1168-.7084-.4673-.7156-.4673-.0731-.0584-.19-.1752-.1971-.1752a1.9593,1.9593,0,0,1-.1462-.5841c-.0146-.117-.0364-.2411-.051-.3651-.0221-.1388-.0439-.27-.0585-.409V66.25c-.0217-.1314-.0367-.2628-.0585-.3943-.0509-.387-.1094-.7813-.1607-1.1683-.051-.3432-.0949-.6791-.1459-1.0223-.0217-.1533-.0438-.3139-.0659-.4672a.0273.0273,0,0,0-.0072-.022v-.0073c-.0509-.3943-.1094-.774-.1679-1.1683v-.0438a.0626.0626,0,0,0-.0146-.0438v-.0146a.7814.7814,0,0,0-.1462.0219H5.9391v.0438c.0146.1606.0217.3213.0367.4819.0142.2118.0289.4235.0435.6425a1.35,1.35,0,0,0,.0146.1607A2.823,2.823,0,0,0,6.056,63.6c.0146.27.0364.54.0581.81a2.0174,2.0174,0,0,0,.015.2045v.0073a.3963.3963,0,0,0,.0071.0876c.0364.5987.08,1.1975.1241,1.8036v.0219c0,.0291.0075.0584.0075.0876A2.8584,2.8584,0,0,0,6.5085,67.93a3.275,3.275,0,0,0,.7961.6863c1.5477,1.1172,3.1033,2.2344,4.651,3.3589.3944.2921.7816.5769,1.1759.8616a.979.979,0,0,1,.4161.847v.0219c-.0874,1.2413-.16,4.33-.2482,7.6378V81.38c-.0075.409-.0146.8178-.0292,1.234-.0218.723-.0367,1.4459-.051,2.1541-.0075.1461-.0075.2921-.0146.4308-.0585,2.1176-.117,4.06-.1754,5.36v.0073a.0253.0253,0,0,1,.0075.0146l-.0075.0073c-.0146.4307-.0293.7885-.051,1.0587h1.7157C14.6867,91.3031,14.6867,90.7262,14.6867,89.996Z" style="fill:#cc977a"/><path d="M16.6681,74.5544c-.1184.54-1.1046,14.7568-.8757,17.0885h-2.32c.5627-2.1738,1.7563-16.3954,1.9353-17.0817a6.3276,6.3276,0,0,1,.2631-.9334,1.8929,1.8929,0,0,1,1.158-1.02c.6005-.225,7.87-2.9012,8.567-3.1508a2.0814,2.0814,0,0,0,1.0218-.7832c.3772-.65,2.2241-4.9228,2.4359-5.3542a.8269.8269,0,0,1,.1583.0617c-.0107.0389-1.1823,3.6685-1.6786,5.0753a2.93,2.93,0,0,1-1.2208,1.56c-.4856.2978-7.6742,3.1871-8.4357,3.497-.3722.1515-.8072.2421-.9284.67C16.7451,74.2114,16.6866,74.472,16.6681,74.5544Z" style="fill:#cc977a"/><ellipse cx="14.4604" cy="62.5148" rx="9.2415" ry="1.4144" style="fill:#b6c1a7"/><path d="M15.9015,63.978c0,1.3136,4.12,2.3788,9.2,2.3788S34.3,65.2916,34.3,63.978s-4.1187-2.3788-9.1988-2.3788S15.9015,62.6642,15.9015,63.978Z" style="fill:#b6c1a7"/><path d="M12.3405,61.5133c0,1.3178,3.5917,2.3852,8.0235,2.3852s8.0221-1.0674,8.0221-2.3852c0-1.3163-3.5911-2.3842-8.0221-2.3842S12.3405,60.197,12.3405,61.5133Z" style="fill:#acb294"/><path d="M23.8516,65.4876c0,.9484,3.0363,1.7175,6.7821,1.7175s6.7835-.7691,6.7835-1.7175-3.0377-1.7167-6.7835-1.7167S23.8516,64.54,23.8516,65.4876Z" style="fill:#acb294"/><path d="M15.14,62.2049a.6729.6729,0,0,1-.1169.3724,1.881,1.881,0,0,1-.5915.54h-.0146a4.7922,4.7922,0,0,1-.6425.3213l-.0731.0365h-.0071c-.0439.0146-.08.0365-.1316.0511h-.0071a9.8491,9.8491,0,0,1-1.1538.3651,23.8741,23.8741,0,0,1-3.03.5623H9.3636c-.0585.0073-.1094.0146-.1751.0219H9.1811c-.8251.0948-1.7086.1679-2.6434.2117H6.5085l-.3723.0219c-.1023,0-.2046.0073-.3141.0073-.46.0146-.9345.0219-1.409.0219-.1972,0-.3944,0-.5915-.0073H3.6608c-1.2925-.0219-2.5264-.0949-3.6435-.219V59.8976c.4963-.0512,1.0147-.1023,1.5552-.1315H1.58c.57-.0437,1.1683-.0657,1.7819-.08h.0072c.3433-.0073.6938-.0146,1.0443-.0146a42.1464,42.1464,0,0,1,4.5854.241,22.6365,22.6365,0,0,1,3.8849.7375,7.83,7.83,0,0,1,1.1972.4526h.0146C14.76,61.4382,15.14,61.8106,15.14,62.2049Z" style="fill:#b6c1a7"/><path d="M6.2311,64.045a.6946.6946,0,0,1-.117.3651,1.0126,1.0126,0,0,1-.1458.1753c-.0439.0438-.0877.08-.1462.1314a5.3,5.3,0,0,1-1.8618.7886H3.9528c-.0727.0219-.1458.0439-.2261.0658H3.7193a19.0422,19.0422,0,0,1-3.702.4672V62.0516c2.6213.1023,4.7826.5988,5.7175,1.2632A1.5652,1.5652,0,0,1,6.056,63.6.7057.7057,0,0,1,6.2311,64.045Z" style="fill:#acb294"/><path d="M4.6385,63.9242c0,.5331,2.1913.9662,4.8939.9662s4.893-.4331,4.893-.9662-2.19-.9665-4.893-.9665S4.6385,63.39,4.6385,63.9242Z" style="fill:#acb294"/><path d="M1.563,59.82c0,.3933,1.6736.7121,3.7358.7121s3.7365-.3188,3.7365-.7121-1.6736-.7127-3.7365-.7127S1.563,59.4265,1.563,59.82Z" style="fill:#b6c1a7"/><path d="M29.3416,64.1891c0,.5816,1.4911,1.0536,3.3293,1.0536s3.33-.472,3.33-1.0536-1.4917-1.0539-3.33-1.0539S29.3416,63.6065,29.3416,64.1891Z" style="fill:#acb294"/><path d="M13.4329,59.7349c0,.3933,1.6729.7124,3.7358.7124s3.7358-.3191,3.7358-.7124-1.6721-.7127-3.7358-.7127S13.4329,59.3416,13.4329,59.7349Z" style="fill:#acb294"/><path d="M21.547,66.3426c0,.5031,1.419.9117,3.17.9117s3.171-.4086,3.171-.9117-1.42-.9113-3.171-.9113S21.547,65.84,21.547,66.3426Z" style="fill:#acb294"/><path d="M10.9235,68.34c0,.5715,1.6116,1.0349,3.6,1.0349s3.6-.4634,3.6-1.0349-1.6116-1.0347-3.6-1.0347S10.9235,67.7684,10.9235,68.34Z" style="fill:#b6c1a7"/><path d="M19.4634,61.7967c0,.4368,2.3146.7916,5.1712.7916s5.1727-.3548,5.1727-.7916-2.3161-.7915-5.1727-.7915S19.4634,61.3593,19.4634,61.7967Z" style="fill:#acb294"/><path d="M13.1405,90.519l-.001-.0163A1.8517,1.8517,0,0,1,15.1741,88.92a2.0192,2.0192,0,0,1,1.96,1.1614,1.14,1.14,0,0,1,.8286,1.0332,1.2179,1.2179,0,0,1-1.3565,1.0679c-.3055,0-2.6438.0031-2.9011.0031a1.0173,1.0173,0,0,1-1.0676-.91A.8678.8678,0,0,1,13.1405,90.519Z" style="fill:#a5ad8e"/><path d="M15.6637,89.8122a.7551.7551,0,1,0,.7538-.71A.7334.7334,0,0,0,15.6637,89.8122Z" style="fill:#afbca0"/><path d="M13.3091,90.5311a.4907.4907,0,1,0,.49-.4617A.4764.4764,0,0,0,13.3091,90.5311Z" style="fill:#afbca0"/><path d="M14.4267,89.6637a.368.368,0,1,0,.3674-.3464A.3573.3573,0,0,0,14.4267,89.6637Z" style="fill:#afbca0"/><polygon points="8.839 91.604 9.052 91.233 8.978 90.811 9.305 90.536 9.381 90.115 9.783 89.967 9.997 89.597 10.425 89.596 10.753 89.322 11.156 89.467 11.558 89.322 11.887 89.596 12.314 89.597 12.529 89.967 12.931 90.114 13.006 90.536 13.334 90.811 13.26 91.233 13.473 91.604 13.26 91.975 13.334 92.396 13.015 92.664 9.296 92.664 8.978 92.397 9.052 91.975 8.839 91.604" style="fill:#969b81"/><g style="opacity:0.65"><path d="M148.1257,85.4561l.0008-.0124a1.4156,1.4156,0,0,0-1.5553-1.21,1.5436,1.5436,0,0,0-1.4979.8878.8718.8718,0,0,0-.6334.79.931.931,0,0,0,1.0369.8163c.2336,0,2.021.0023,2.2177.0023a.7776.7776,0,0,0,.816-.6959A.6635.6635,0,0,0,148.1257,85.4561Z" style="fill:#a5ad8e"/><path d="M146.1969,84.9159a.5772.5772,0,1,1-.5762-.543A.5606.5606,0,0,1,146.1969,84.9159Z" style="fill:#afbca0"/><path d="M147.9968,85.4654a.3751.3751,0,1,1-.3743-.3529A.3641.3641,0,0,1,147.9968,85.4654Z" style="fill:#afbca0"/><path d="M147.1425,84.8024a.2813.2813,0,1,1-.2808-.2649A.2731.2731,0,0,1,147.1425,84.8024Z" style="fill:#afbca0"/></g><path d="M150.0206,98.86v15.0364a85.2364,85.2364,0,0,1-12.69.914c-15.45,0-27.97-3.774-27.97-8.4323s12.52-8.4321,27.97-8.4321A85.21,85.21,0,0,1,150.0206,98.86Z" style="fill:#eadec5"/><circle cx="139.5456" cy="106.39" r="0.235" style="fill:#eadec5"/><path d="M3.1,60.2419c0,1.317,4.4211,2.3846,9.8768,2.3846s9.8783-1.0676,9.8783-2.3846-4.4226-2.3845-9.8783-2.3845S3.1,58.9248,3.1,60.2419Z" style="fill:#acb294"/><g style="opacity:0.79"><path d="M138.8561,117.7368c-.027-.0945-3.4733.9576-3.7766,1.0318.2631-.2293,2.8862-2.1176,2.7986-2.3132-.04-.0742-2.9,1.6388-3.17,1.8074.1755-.29,3.608-4.7679,3.4733-4.8893-.1014,0-3.7766,4.2756-3.9857,4.5184.081-.3305,1.794-6.2853,1.6254-6.373-.0675,0-2.1246,5.9346-2.2458,6.2314-.02-.25-.1485-6.9664-.29-6.98-.0606,0-.27,6.7438-.2967,6.98-.1281-.3237-1.9962-7.5667-2.1983-7.5667-.081.02,1.51,7.4048,1.5779,7.7083-.216-.2563-3.1562-4.9028-3.3179-4.8152-.081.0473,2.6435,4.9163,2.8121,5.1861-.2832-.1753-4.2554-3.3719-4.3634-3.2505,0,.0876,3.7565,3.554,3.9926,3.7563-.3036-.0742-3.8375-1.2072-3.8915-1.079,0,.0674,3.4394,1.5713,3.73,1.6927-.3167.027-3.1493-.1888-3.1628-.0877.5463.3912,4.2419.8295,4.93.8632.3573-.0337,4.3025-.3372,5.3006-.8565-.1755,0-2.8256.0945-3.1292.0675A26.84,26.84,0,0,0,138.8561,117.7368Z" style="fill:#aaa077"/></g><polygon points="0.001 130.69 0.001 149.35 150.021 142.97 150.021 124.31 0.001 130.69" style="fill:#c2d8b4"/><path d="M31.7739,68.7924c0,.584,1.87,1.0575,4.1765,1.0575s4.1751-.4735,4.1751-1.0575-1.87-1.0564-4.1751-1.0564S31.7739,68.2094,31.7739,68.7924Z" style="fill:#acb294"/><path d="M93.7989,92.52a1.3172,1.3172,0,0,0-.1-.15h.01Z" style="fill:#ba8e83"/><path d="M93.7989,92.52a1.3172,1.3172,0,0,0-.1-.15h.01Z" style="fill:#683d33"/><polygon points="96.156 94.094 95.996 93.97 95.967 93.946 96.051 93.907 96.127 93.914 96.156 94.094" style="fill:#0f0d0d"/></svg>