<svg id="Camada_1" data-name="Camada 1" xmlns="http://www.w3.org/2000/svg" viewBox="0 0 150 150"><rect x="36.6937" y="17.6121" width="77.1201" height="57.92" style="fill:#d1e3e8"/><path d="M51.164,33.722h-14.47v-5.74a4.4085,4.4085,0,0,1,2.53.19s2.13-1.54,4.02,1.06c0,0,1.77-.92,2.25,1.49a2.4046,2.4046,0,0,1,2.95,1.47S50.5736,32.302,51.164,33.722Z" style="fill:#f7f0ed"/><path d="M102.3455,63.2611h10.4636V57.31c0,.0066-.0067.0132-.0132.02,0,0-2.3422-1.2206-2.9623,1.966a3.182,3.182,0,0,0-3.8988,1.933S103.1241,61.3874,102.3455,63.2611Z" style="fill:#f7f0ed"/><rect x="46.04" y="44.6294" width="57.92" height="3.8854" transform="translate(28.4279 121.5721) rotate(-90)" style="fill:#968781"/><rect x="36.6937" y="74.0705" width="76.6201" height="1.4635" style="fill:#968781"/><path d="M.0038.0021v150h150v-150Zm113.31,75.53h-76.62v-57.92h76.62Z" style="fill:#d8d0bc"/><rect y="107.2571" width="150" height="42.7449" style="fill:#9b897b"/><rect x="36.6937" y="17.6121" width="76.6201" height="1.4635" style="fill:#968781"/><rect x="8.4655" y="45.8403" width="57.92" height="1.4635" transform="translate(-9.1466 83.9976) rotate(-90)" style="fill:#968781"/><rect x="83.6221" y="45.8403" width="57.92" height="1.4635" transform="translate(66.01 159.1542) rotate(-90)" style="fill:#968781"/><rect x="36.9421" y="46.0485" width="76.1368" height="4.0953" style="fill:#968781"/><path d="M82.2938,44.4087A8.16,8.16,0,0,1,87.97,41.9252s.71-2.4835,4.2574-2.3652a3.7492,3.7492,0,0,1,4.1392-.71s2.1288-1.5374,4.021,1.0643c0,0,1.7739-.9241,2.247,1.4893a2.4119,2.4119,0,0,1,2.9566,1.4673s2.1287.1183,2.72,1.5374Z" style="fill:#f7f0ed"/><path d="M117.5141,9.2521v107.58h32.49V9.2521Z" style="fill:#6b5a56"/><rect x="121.1295" y="11.3645" width="20.3594" height="57.9004" style="fill:#826e68"/><rect x="121.1337" y="71.9622" width="28.8701" height="18.8499" style="fill:#826e68"/><rect x="121.1337" y="94.072" width="28.8701" height="18.8501" style="fill:#826e68"/><rect x="142.684" y="11.3621" width="7.3198" height="57.9" style="fill:#826e68"/><circle cx="138.5536" cy="41.324" r="1.3148" style="fill:#63524d"/><circle cx="145.4187" cy="41.324" r="1.3148" style="fill:#63524d"/><circle cx="142.1716" cy="81.3878" r="1.3148" style="fill:#63524d"/><circle cx="142.1716" cy="103.5243" r="1.3148" style="fill:#63524d"/><rect x="0.0038" y="88.0321" width="26.1602" height="26.3099" style="fill:#7f5434"/><rect x="0.0038" y="90.1621" width="0.8901" height="26.54" style="fill:#93653f"/><rect x="0.8921" y="90.1579" width="23.5155" height="22.4033" style="fill:#aa7a4f"/><rect x="24.4075" y="90.1579" width="1.7552" height="26.541" style="fill:#93653f"/><rect x="0.8921" y="105.6145" width="23.5155" height="0.6368" style="opacity:0.2"/><rect x="0.8921" y="97.4001" width="23.5155" height="0.6369" style="opacity:0.2"/><rect x="0.0038" y="90.1621" width="26.1602" height="0.77" style="opacity:0.2"/><rect x="0.8921" y="112.5611" width="23.5155" height="1.7804" style="fill:#93653f"/><path d="M13.8823,94.23c0,.5354-.1773.97-.3961.97H11.8134c-.2188,0-.3961-.4342-.3961-.97h0c0-.5355.1773-.97.3961-.97h1.6728c.2188,0,.3961.4341.3961.97Z" style="fill:#93653f"/><rect x="0.0038" y="88.0221" width="27.96" height="2.14" style="fill:#aa7a4f"/><rect x="5.338" y="84.9374" width="14.6237" height="3.0839" style="fill:#5d5d5d"/><rect x="11.8788" y="60.4233" width="1.542" height="24.514" style="fill:#5d5d5d"/><polygon points="20.151 60.736 5.148 60.736 7.659 43.596 17.154 43.596 20.151 60.736" style="fill:#80beb9"/><rect x="11.8788" y="60.7358" width="1.542" height="0.5697" style="fill:#3a3a3a"/><path d="M13.8823,101.8155c0,.5354-.1773.9695-.3961.9695H11.8134c-.2188,0-.3961-.4341-.3961-.9695h0c0-.5355.1773-.97.3961-.97h1.6728c.2188,0,.3961.4341.3961.97Z" style="fill:#93653f"/><path d="M13.8823,109.401c0,.5355-.1773.97-.3961.97H11.8134c-.2188,0-.3961-.4341-.3961-.97h0c0-.5355.1773-.97.3961-.97h1.6728c.2188,0,.3961.4341.3961.97Z" style="fill:#93653f"/></svg>