<svg id="Camada_1" data-name="Camada 1" xmlns="http://www.w3.org/2000/svg" viewBox="0 0 150 150"><rect x="0.0206" width="150" height="150" style="fill:#d1e3e8"/><path d="M87.63,88.6719s46.45.22,49.78.54c2.11.2,8.32-2.01,12.59-3.66v-3.7c-6.68-3.17-18.91-8.98-22.11-8.58-4.29.53-32.59,10.7-36.61,10.7S87.63,88.6719,87.63,88.6719Z" style="fill:#a0c1a7;opacity:0.5"/><path d="M62.3736,85.56s-46.45.22-49.78.54c-2.11.2-8.32-2.01-12.59-3.66v-3.7c6.68-3.17,18.91-8.98,22.11-8.58,4.29.53,32.59,10.7,36.61,10.7S62.3736,85.56,62.3736,85.56Z" style="fill:#a0c1a7"/><path d="M94.5947,23.6215a16.3191,16.3191,0,0,1,11.3532-4.967s1.4192-4.9671,8.5149-4.73c0,0,2.8384-3.3114,8.2785-1.4192,0,0,4.2574-3.0748,8.0418,2.1287,0,0,3.5479-1.8482,4.494,2.9786a4.8236,4.8236,0,0,1,5.9132,2.9346s4.2574.2365,5.44,3.0748Z" style="fill:#f7f0ed"/><path d="M5.86,36.73a16.32,16.32,0,0,1,11.3533-4.967s1.4191-4.9671,8.5149-4.73c0,0,2.8383-3.3114,8.2784-1.4192,0,0,4.2575-3.0748,8.0419,2.1287,0,0,3.5479-1.8482,4.494,2.9786a4.8235,4.8235,0,0,1,5.9131,2.9346s4.2575.2365,5.44,3.0748Z" style="fill:#f7f0ed"/><polygon points="150.021 81.48 150.021 130.69 0.001 124.31 0.001 81.48 150.021 81.48" style="fill:#7e9e85"/><path d="M150,80.681v2.4826a4.6113,4.6113,0,0,1-.78.0666H0V81.1384a6.888,6.888,0,0,1,3.88-.3,15.9444,15.9444,0,0,0,4.52.7481c1.26-.0953,2.21-.6,3.43-.7814,2.68-.3955,5.42.8767,8.18.6289,1.73-.1572,3.05-.891,4.79-1.034,2.39-.1953,4.59.7767,7.01.7434a17.4046,17.4046,0,0,0,5.45-1.3342,30.8815,30.8815,0,0,1,8.03-1.3962,4.19,4.19,0,0,1,1.51.1192c.79.2763.53.8719,1,1.2818a5.6034,5.6034,0,0,0,2.92.6147,232.5238,232.5238,0,0,0,25.59-.41,6.0232,6.0232,0,0,0,1.83-.3144,6.166,6.166,0,0,0,.99-.6957,5.2143,5.2143,0,0,1,4.18-.1144,9.8533,9.8533,0,0,0,1.14.6719,7.396,7.396,0,0,0,2.35.2859c8.83.162,17.86.3049,26.2705-.9721a15.7391,15.7391,0,0,1,3.93-.2907c1.72.1716,2.92.92,4.52,1.2771,3.88.8624,8.69-.7672,12.62.0428a10.3358,10.3358,0,0,0,3.41.5052,4.8156,4.8156,0,0,0,1.69-.61,7.4745,7.4745,0,0,1,2.78-.8482c1.11-.0952,2.42.21,2.6.7386.06.1858-.02.386.14.5575.4.4241,1.69.3145,2.66.2478A9.4173,9.4173,0,0,1,150,80.681Z" style="fill:#77967c"/><polygon points="150.021 130.69 150.021 149.35 0.001 142.97 0.001 124.31 150.021 130.69" style="fill:#708e76"/><polygon points="0.001 142.97 150.021 149.35 150.021 150 0.001 150 0.001 142.97" style="fill:#7e9e85"/><path d="M11.8707,146.36l-2.85,3.51H.7105l-.71-.94v-1.61a5.4188,5.4188,0,0,1,1.56,1.53l-1.56-4.81v-1.18a18.4722,18.4722,0,0,1,3.03,4.93l-.1-7.38c.85,1.51,1.53,5.36,1.93,7,.18-1.9.95-5.67,1.93-7l-.1,7.38a12.2933,12.2933,0,0,1,3.59-5.54l-2.12,6.6A6.3717,6.3717,0,0,1,11.8707,146.36Z" style="fill:#7e997f"/><path d="M150.0206,99.42v6.71c-1.6,0-5.29-.01-5.85-.01-1.69,0-3.06-1.01-3.06-2.4a2.5655,2.5655,0,0,1,1.87-2.33.0739.0739,0,0,1,.02-.04,3.7872,3.7872,0,0,1,2.09-2.09,5.6453,5.6453,0,0,1,4.93.16Z" style="fill:#709176"/><path d="M146.2884,100.7825a1.7013,1.7013,0,1,1-1.6983-1.6A1.6522,1.6522,0,0,1,146.2884,100.7825Z" style="fill:#799b7e"/><path d="M150.0206,101.46v1.88a1.0286,1.0286,0,0,1-.63-.94A1.05,1.05,0,0,1,150.0206,101.46Z" style="fill:#799b7e"/><path d="M149.0753,100.4481a.8291.8291,0,1,1-.8277-.7807A.8049.8049,0,0,1,149.0753,100.4481Z" style="fill:#799b7e"/><path d="M6.4605,95.57a1.3465,1.3465,0,0,1-1.41,1.21c-.35,0-3.44-.01-3.84-.01a2.0615,2.0615,0,0,1-1.21-.36V94.27a1.7946,1.7946,0,0,1,.51-.28c0-.01.01-.02.01-.03a2.26,2.26,0,0,1,1.23-1.22,3.2919,3.2919,0,0,1,1.35-.28,2.4409,2.4409,0,0,1,2.69,2.09v.02A1.1583,1.1583,0,0,1,6.4605,95.57Z" style="fill:#709176"/><path d="M2.4532,93.6377a.97.97,0,0,1-.9975.94.9417.9417,0,1,1,0-1.88A.97.97,0,0,1,2.4532,93.6377Z" style="fill:#799b7e"/><path d="M5.569,94.589a.6493.6493,0,1,1-.6479-.611A.63.63,0,0,1,5.569,94.589Z" style="fill:#799b7e"/><path d="M4.09,93.4413a.487.487,0,1,1-.4862-.4585A.4728.4728,0,0,1,4.09,93.4413Z" style="fill:#799b7e"/><path d="M23.5941,128.45H.0038v-8.89a3.633,3.633,0,0,1,.29.27,6.4779,6.4779,0,0,1,3.27-.85c2.31,0,4.25,1.1,4.83,2.59a10.76,10.76,0,0,1,1.91-.17c3.81,0,6.98,1.93,7.63,4.47.23-.02.46-.04.7-.04C20.9838,125.83,22.974,126.94,23.5941,128.45Z" style="fill:#67876b"/><path d="M53.4437,112.77H.0038V106.6a10.4555,10.4555,0,0,1,4.03-.79,10.3335,10.3335,0,0,1,5.33,1.45,9.0787,9.0787,0,0,1,3.46-2.36,3.9113,3.9113,0,0,1-.25-1.36c0-2.44,2.26-4.42,5.04-4.42a5.4774,5.4774,0,0,1,2.92.83,10.6477,10.6477,0,0,1,6.53-2.16,10.2747,10.2747,0,0,1,8.5,4.21,7.3814,7.3814,0,0,1,3.24-.74,6.5946,6.5946,0,0,1,6.54,4.55h.02C49.7738,105.81,53.3637,108.91,53.4437,112.77Z" style="fill:#67876b"/><path d="M150.0038,101.09v11.43h-23.83a5.1238,5.1238,0,0,1,5.06-4.34,5.3675,5.3675,0,0,1,.99.09,7.6059,7.6059,0,0,1,6.76-4.13,7.8058,7.8058,0,0,1,2.01.27,7.9,7.9,0,0,1,6.68-3.68A7.5194,7.5194,0,0,1,150.0038,101.09Z" style="fill:#67876b"/><path d="M150.0038,88.61v9.08h-10.59a1.9491,1.9491,0,0,1-1.94-1.64,5.8776,5.8776,0,0,1-.05-.76c0-2.09,2.4-2.57,2.4-2.69,0-3.82,2.75-5.7,6.14-5.7A5.75,5.75,0,0,1,150.0038,88.61Z" style="fill:#709176"/><path d="M12.244,96.5H.0038V88.43a7.04,7.04,0,0,1,2.87.63,7.3118,7.3118,0,0,1,3.24,2.81,4.6712,4.6712,0,0,1,.31.54,5.0534,5.0534,0,0,1,.96-.09A4.9123,4.9123,0,0,1,12.244,96.5Z" style="fill:#709176"/><path d="M93.7989,92.52a1.3172,1.3172,0,0,0-.1-.15h.01Z" style="fill:#ba8e83"/><path d="M93.7989,92.52a1.3172,1.3172,0,0,0-.1-.15h.01Z" style="fill:#683d33"/><path d="M116.6906,149.0043h10.3155l3.54-4.3486a7.9154,7.9154,0,0,0-4.6055,3.0825l2.6338-8.186a15.237,15.237,0,0,0-4.4531,6.8735l.123-9.1558c-1.2207,1.6485-2.1718,6.3291-2.3945,8.6895-.5029-2.042-1.3437-6.8184-2.3965-8.6895l.1211,9.1558a21.3562,21.3562,0,0,0-4.4531-6.8018l2.6338,8.1143a9.4962,9.4962,0,0,0-4.46-3.2261Z" style="fill:#7e997f"/><path d="M150.0038,132.32V150h-42.68a8.3952,8.3952,0,0,1,10.63-1.24,11.93,11.93,0,0,1,14.77-3.74,19.19,19.19,0,0,1,4.95-7.55A18.9031,18.9031,0,0,1,150.0038,132.32Z" style="fill:#4e7159"/></svg>