<svg id="Camada_1" data-name="Camada 1" xmlns="http://www.w3.org/2000/svg" viewBox="0 0 150 150"><rect width="150" height="150" style="fill:#efc3b9"/><rect x="-0.0027" y="33.4821" width="150" height="62.6078" style="fill:#f2dcc4"/><rect x="-0.006" y="87.4121" width="150" height="62.61" style="fill:#fff5e1"/><polygon points="149.838 66.517 -0.101 61.971 -0.101 69.471 149.838 79.059 149.838 66.517" style="fill:#efc3b9"/><polygon points="149.838 81.984 -0.101 73.175 -0.101 75.056 149.838 84.943 149.838 81.984" style="fill:#efc3b9"/><polygon points="149.838 94.86 -0.101 90.314 -0.101 97.814 149.838 107.402 149.838 94.86" style="fill:#efd2af"/><polygon points="149.838 110.326 -0.101 101.518 -0.101 103.399 149.838 113.286 149.838 110.326" style="fill:#efd2af"/><path d="M45.6737,23.6221H.0238v-4.06a16.9258,16.9258,0,0,1,4.96-.91s1.42-4.96,8.52-4.73c0,0,2.84-3.31,8.28-1.42,0,0,4.26-3.07,8.04,2.13,0,0,3.55-1.84,4.49,2.98a4.8329,4.8329,0,0,1,5.92,2.94S44.4838,20.7821,45.6737,23.6221Z" style="fill:#f7fff0"/><path d="M150.0238,95.9521v10.5h-34.85a16.2884,16.2884,0,0,1,11.36-4.97s1.42-4.97,8.51-4.73c0,0,2.84-3.31,8.28-1.42A5.3578,5.3578,0,0,1,150.0238,95.9521Z" style="fill:#f7fff0"/><path d="M85.35,17.6141A18.7081,18.7081,0,0,1,98.3654,11.92s1.627-5.6942,9.7615-5.4231c0,0,3.2539-3.7961,9.49-1.6269,0,0,4.8807-3.525,9.2192,2.44,0,0,4.0672-2.1189,5.1519,3.4146a5.53,5.53,0,0,1,6.7788,3.3642s4.8807.2711,6.2365,3.525Z" style="fill:#f7fff0"/><path d="M32.1337,139.332H-.006v-11.91a5.465,5.465,0,0,1,3.99.8c5.44-1.9,8.28,1.41,8.28,1.41,7.1-.23,8.52,4.74,8.52,4.74A16.2927,16.2927,0,0,1,32.1337,139.332Z" style="fill:#fff"/><path d="M93.7989,92.52a1.3172,1.3172,0,0,0-.1-.15h.01Z" style="fill:#ba8e83"/><path d="M93.7989,92.52a1.3172,1.3172,0,0,0-.1-.15h.01Z" style="fill:#683d33"/><g style="opacity:0.32"><path d="M132.9037,32.2122c-1.84-.17-3.66-.32-5.45-.46-1.02-.08-2.04-.15-3.05-.22q-5.2947-.36-10.34-.55-3.39-.135-6.67-.2-5.5649-.1048-10.8-.03c-1.57.02-3.11.05-4.64.1-.72.02-1.43.05-2.13.07-1.41.06-2.79.12-4.16.19-.68.03-1.36.07-2.04.11-.1.01-.2.01-.29.02-.94.05-1.86.11-2.77.18-2.57.17-5.08.39-7.51.64-.85.08-1.68.17-2.51.26s-1.65.19-2.46.28c-1.02.12-2.02.25-3.01.38-.03,0-.07.01-.1.01a192.1892,192.1892,0,0,0-36.98,8.41,122.7867,122.7867,0,0,0-27.97,13.37v6.69c5.73-4.02,15.22-9.53,29.21-14.3,22.55-7.69,61.52-14.91,120.79-7v-6.04Q141.1587,32.9519,132.9037,32.2122Zm-50.8,2.11a311.0381,311.0381,0,0,1,40.26.09A320.2773,320.2773,0,0,0,82.1039,34.322Z" style="fill:#6d90c6"/><path d="M27.8441,35.4121a122.2962,122.2962,0,0,0-27.82,13.26v6.77c5.73-4.02,15.22-9.53,29.21-14.3a189.777,189.777,0,0,1,35.74-8.15c.03,0,.07-.01.1-.01.99-.13,1.99-.26,3.01-.38.81-.09,1.63-.19,2.46-.28s1.66-.18,2.51-.26c2.43-.25,4.94-.47,7.51-.64.91-.07,1.83-.13,2.77-.18.09-.01.19-.01.29-.02.68-.04,1.36-.08,2.04-.11,1.37-.08,2.75-.14,4.16-.19.7-.02,1.41-.05,2.13-.07,1.53-.05,3.07-.08,4.64-.1q5.2347-.09,10.8.03,3.285.06,6.67.2,5.04.195,10.34.55c1.01.07,2.03.14,3.05.22,1.79.14,3.61.29,5.45.46,5.51.51,11.21,1.14,17.12,1.93v-5.99C90.1337,20.1821,50.6937,27.572,27.8441,35.4121Z" style="fill:#ae8dd3"/><path d="M28.0038,47.3821a122.4814,122.4814,0,0,0-27.98,13.37v6.68c5.73-4.02,15.22-9.53,29.21-14.3,11.42-3.89,27.05-7.67,47.42-9.43,1.4-.12,2.81-.23,4.25-.33,1.27-.09,2.56-.17,3.86-.24,1.31-.07,2.63-.13,3.97-.19q3.24-.1352,6.62-.2c1.87-.03,3.76-.05,5.69-.05q6.2249,0,12.9.26c1.67.06,3.35.14,5.06.23s3.45.2,5.2.32a1.27,1.27,0,0,1,.2.01c1.01.07,2.03.14,3.05.22q10.7548.84,22.57,2.4v-6.03C90.224,32.1621,50.8236,39.552,28.0038,47.3821Zm63.71-7.54q7.44-.24,15.6-.08Q99.1686,39.6121,91.7138,39.842Z" style="fill:#8fc191"/><path d="M127.454,43.7321c-1.02-.08-2.04-.15-3.05-.22a1.27,1.27,0,0,0-.2-.01c-1.75-.12-3.49-.23-5.2-.32s-3.39-.17-5.06-.23q-6.6746-.27-12.9-.26c-1.93,0-3.82.02-5.69.05q-3.375.06-6.62.2c-1.34.06-2.66.12-3.97.19-1.3.07-2.59.15-3.86.24-1.44.1-2.85.21-4.25.33-20.91,1.77-36.96,5.67-48.66,9.68a122.4159,122.4159,0,0,0-27.97,13.36v6.65c5.73-4.02,15.22-9.53,29.21-14.3a182.5531,182.5531,0,0,1,29.28-7.19q1.23-.195,2.49-.39c.76-.11,1.53-.22,2.31-.34q5.67-.81,11.93-1.38c.88-.08,1.76-.16,2.66-.23,1.79-.15,3.62-.28,5.48-.38.89-.06,1.8-.11,2.71-.15.1,0,.2-.01.3-.02,1.78-.09,3.58-.16,5.42-.21q6.7353-.21,14.07-.11h.01c1.61.02,3.23.06,4.89.11,5.51.17,11.26.47,17.25.94,1.75.14,3.52.28,5.31.45.9.08,1.8.17,2.7.26q6.7947.675,13.98,1.64v-5.99Q138.204,44.542,127.454,43.7321Z" style="fill:#ccc172"/><path d="M136.0438,50.4521c-.9-.09-1.8-.18-2.7-.26-1.79-.17-3.56-.31-5.31-.45-5.99-.47-11.74-.77-17.25-.94-1.65-.05-3.28-.08-4.89-.11h-.01c-4.89-.07-9.57-.03-14.07.11-1.84.05-3.64.12-5.42.21-.1.01-.2.02-.3.02-.91.05-1.81.1-2.71.15-1.86.11-3.69.24-5.48.38-.89.08-1.78.15-2.66.23q-6.2556.57-11.93,1.38c-.78.12-1.55.23-2.31.34q-1.26.195-2.49.39a184.377,184.377,0,0,0-30.46,7.45,122.0441,122.0441,0,0,0-28.03,13.4v6.65c5.72-4.02,15.23-9.55,29.27-14.34,22.54-7.68,61.49-14.92,120.73-7.01v-5.99Q142.8388,51.1171,136.0438,50.4521Z" style="fill:#cc8b75"/></g></svg>