<svg id="Camada_1" data-name="Camada 1" xmlns="http://www.w3.org/2000/svg" viewBox="0 0 150 150"><path d="M93.9455,138.8767c.278-1.5355,2.3876-3.1054,3.9157-3.2381.9651-.0839,1.2849.8135,1.7238,1.508a7.1461,7.1461,0,0,0,2.0483,2.1393c3.8246,2.5933,8.4866.89,12.2233-.9108,1.7385-.8381.2188-3.4258-1.5142-2.59-2.0752,1-4.3869,2.0753-6.7542,1.8029a5.1059,5.1059,0,0,1-2.52-.9522,13.33,13.33,0,0,1-1.8658-2.4774c-1.5079-1.855-3.864-1.78-5.8609-.8056-1.8716.9131-3.8993,2.578-4.2883,4.7268-.3417,1.8876,2.5489,2.6974,2.8928.7975Z" style="fill:#3c4149"/><path d="M113.0789,118.89a28.2558,28.2558,0,0,0-2.96-7.39l-.35-.56a.6141.6141,0,0,0-.07-.18c-.11-.15-.22-.31-.33-.46l-.05-.08h-.01a37.0928,37.0928,0,0,0-7.56-8.42,32.7975,32.7975,0,0,1-2.46,8.87,25.2278,25.2278,0,0,1-10.37,12.2,25.9412,25.9412,0,0,1-14.15,3.16,29.2162,29.2162,0,0,1-13.5-3.52c-11.93-6.7-13.17-20.56-13.17-20.56-3.24,2.48-5.48,5.64-7.64,8.85a23.2336,23.2336,0,0,0-3.3,7.71,1.2633,1.2633,0,0,0-.06.21c-.32,1.02-1.5,5.53.48,8.81a6.54,6.54,0,0,0,2.39,2.3,6.0193,6.0193,0,0,0,.67.34,4.788,4.788,0,0,0,.65.25,5.7283,5.7283,0,0,0,1.21.29,5.9527,5.9527,0,0,0,1.11.04l.3-.03c.11-.01.22-.03.33-.05s.22-.05.33-.07a3.3749,3.3749,0,0,0,.48-.14,2.7385,2.7385,0,0,0,.4-.15c.23-.1.46-.21.67-.32a8.1839,8.1839,0,0,0,1.65-1.21,9.77,9.77,0,0,0,1.57-1.84l.43-.38,1.07-.94c.04.09.07.16.1.23,0,.01.01.01.01.02a2.0214,2.0214,0,0,1,.09.3c.11.61.24,1.21.38,1.8.03.15.06.29.1.45a40.2451,40.2451,0,0,0,3.96,10.06c.09.18.18.34.27.49v.01a3.3747,3.3747,0,0,1,.23.4c.25.44.52.88.79,1.31v.01c0,.01.01.02.02.04a.2958.2958,0,0,1,.03.04c.02.03.04.07.07.12a67.3021,67.3021,0,0,0,4.24,6.09,23.6726,23.6726,0,0,0,6.83.89,13.4112,13.4112,0,0,0,3.64-.57c.2-.48.36-.96.5-1.41.09-.24.16-.46.24-.67a.1854.1854,0,0,0,.02-.07c.21-.53.41-1.03.59-1.48l.01-.01a2.03,2.03,0,0,1,1.82-.79,2.2784,2.2784,0,0,1,.67.17,5.71,5.71,0,0,1,1.08.59c.09.06.17.12.26.18a4.4928,4.4928,0,0,1,.56,1.14c.06.17.12.34.19.5a5.7646,5.7646,0,0,0,.85,1.95,21.7164,21.7164,0,0,0,4.95.78,26.6286,26.6286,0,0,0,5.61-.28c5.25-5.05,8.85-16.71,9.12-17.62a.1087.1087,0,0,0,.01-.05.01.01,0,0,0,.01-.01c.43-1.1.85-2.21,1.27-3.33.11-.29.24-.57.37-.85.01.01.01.02.03.03a23.646,23.646,0,0,0,2.54,2.81v.01c.05.04.1.1.16.15.05.05.1.1.16.15a5.8988,5.8988,0,0,0,.49.41c.17.13.33.24.49.34a4.3863,4.3863,0,0,0,.51.29c.15.07.31.14.46.2a6.507,6.507,0,0,1-1.9-1.24c-.11-.1-.22-.21-.32-.3a7.1347,7.1347,0,0,1,.55-1.27c0-.01.01-.01.01-.02.09-.17.19-.35.31-.54.15.26.31.51.47.75a10.5115,10.5115,0,0,0,1.79,2.03,8.7838,8.7838,0,0,0,1.39,1.03,3.3174,3.3174,0,0,0,.46-.02q.1948-.015.33-.03h.03a.44.44,0,0,1,.1-.02.06.06,0,0,1,.04-.01h.02a.58.58,0,0,1,.1-.02c.01-.01.01-.01.02-.01h.03a.031.031,0,0,1,.02-.01s.1-.02.28-.06a.5567.5567,0,0,0,.12-.04.9306.9306,0,0,0,.13-.04c.06-.02.13-.04.2-.07.14-.05.29-.12.46-.19.09-.04.17-.08.26-.13.01,0,.01,0,.01-.01a2.6292,2.6292,0,0,0,.23-.13,6.7155,6.7155,0,0,0,1.72-1.47,26.3954,26.3954,0,0,0-2.06-7.59A35.8974,35.8974,0,0,1,113.0789,118.89Zm-47.7,30.94h-.01c-.04,0-.04,0,.02.01a.3405.3405,0,0,0,.14.03h.03C65.4988,149.86,65.4388,149.84,65.379,149.83Zm0,0h-.01c-.04,0-.04,0,.02.01a.3405.3405,0,0,0,.14.03h.03C65.4988,149.86,65.4388,149.84,65.379,149.83ZM48.159,101.9a.2655.2655,0,0,1-.06.05h.08A.1609.1609,0,0,1,48.159,101.9Z" style="fill:#5c5e60"/><path d="M91.14,129.26a10.3793,10.3793,0,0,1-10.35,10.36H69.09a10.3686,10.3686,0,0,1-9.88-7.3,9.9933,9.9933,0,0,1-.47-3.06,10.2783,10.2783,0,0,1,2.35-6.54c.06-.07.11-.14.18-.21a29.2162,29.2162,0,0,0,13.5,3.52,25.9425,25.9425,0,0,0,14.15-3.16c.12.16.24.32.35.48a10.1679,10.1679,0,0,1,1.87,5.91Z" style="fill:#efe8e8"/><path d="M91.1412,129.26a10.3793,10.3793,0,0,1-10.35,10.36h-11.7a10.3686,10.3686,0,0,1-9.88-7.3,20.6162,20.6162,0,0,0,13.84,5.12c9.31-.13,14.09-1.25,17.85-10.41A10.2946,10.2946,0,0,1,91.1412,129.26Z" style="fill:#c4b1b1"/><path d="M47.7812,128.8a7.2741,7.2741,0,0,1-3.21,1.8c-.11.02-.22.05-.33.07s-.22.04-.33.05l-.3.03a5.9513,5.9513,0,0,1-1.11-.04,5.7292,5.7292,0,0,1-1.21-.29,8.4646,8.4646,0,0,1-1.28-.59,6.5391,6.5391,0,0,1-2.39-2.3c1.95.44,4.89.37,8.05-2.42a11.3512,11.3512,0,0,1,2.1,3.67C47.7812,128.79,47.7812,128.79,47.7812,128.8Z" style="fill:#c4b1b1"/><path d="M40.0112,129.83a8.4646,8.4646,0,0,0,1.28.59,6.317,6.317,0,0,1-1.32-.59,6.5391,6.5391,0,0,1-2.39-2.3c-1.98-3.28-.8-7.79-.48-8.81a27.8714,27.8714,0,0,1,8.57,6.39c-3.16,2.79-6.1,2.86-8.05,2.42A6.5391,6.5391,0,0,0,40.0112,129.83Z" style="fill:#efe8e8"/><path d="M113.36,124.38a9.1436,9.1436,0,0,1-1.92,4.26l-.01.01a6.534,6.534,0,0,1-1.72,1.44c-.08.05-.15.09-.23.13,0,.01,0,.01-.01.01-.09.05-.17.09-.26.13-.17.07-.32.14-.46.19-.07.03-.14.05-.2.07a.9288.9288,0,0,1-.13.04.5638.5638,0,0,1-.12.04c-.18.04-.28.06-.28.06a.031.031,0,0,0-.02.01h-.03c-.01,0-.01,0-.02.01a.5755.5755,0,0,0-.1.02h-.02a.06.06,0,0,0-.04.01.44.44,0,0,0-.1.02h-.03q-.135.015-.33.03a3.3167,3.3167,0,0,1-.46.02h-.03c-.1,0-.2,0-.31-.01-.12-.01-.23-.01-.35-.03a1.1342,1.1342,0,0,1-.25-.03,3.7283,3.7283,0,0,1-.44-.08c-.11-.02-.22-.05-.34-.08-.2-.06-.41-.13-.61-.21h-.01a3.9973,3.9973,0,0,1-.42-.2,4.4028,4.4028,0,0,1-.51-.29c-.16-.1-.32-.21-.49-.34a5.9152,5.9152,0,0,1-.49-.41c-.06-.05-.11-.1-.16-.15-.06-.05-.11-.11-.16-.15v-.01c.02-.07.05-.15.08-.24l.12-.29c.09-.22.21-.48.36-.77.1-.16.2-.34.31-.52a10.5775,10.5775,0,0,1,.76-1.11,19.9489,19.9489,0,0,1,3.58-3.59c.56-.44,1.18-.89,1.86-1.34a35.9292,35.9292,0,0,1,3.71-2.14c.01-.01.02-.01.03-.02A13.6832,13.6832,0,0,1,113.36,124.38Z" style="fill:#efe8e8"/><path d="M76.5289,143.64a5.71,5.71,0,0,0-1.08-.59,2.2784,2.2784,0,0,0-.67-.17,2.03,2.03,0,0,0-1.82.79l-.01.01c-.18.45-.38.95-.59,1.48a.1854.1854,0,0,1-.02.07c-.08.21-.15.43-.24.67-.14.45-.3.93-.5,1.41a13.4112,13.4112,0,0,1-3.64.57,13.4709,13.4709,0,0,0,2.16-3.38C71.2388,141.82,75.159,141.9,76.5289,143.64Z" style="fill:#3c4149"/><path d="M110.12,111.5l-.35-.56a.6141.6141,0,0,0-.07-.18c-.11-.15-.22-.31-.33-.46l-.05-.08h-.01a37.0946,37.0946,0,0,0-7.56-8.42,32.8,32.8,0,0,1-2.46,8.87,20.001,20.001,0,0,1,10.08,10.36,35.9292,35.9292,0,0,1,3.71-2.14A28.2479,28.2479,0,0,0,110.12,111.5Z" style="fill:#3c4149"/><path d="M104.5689,130.44c-.15-.06-.31-.13-.46-.2a4.3863,4.3863,0,0,1-.51-.29c-.16-.1-.32-.21-.49-.34a5.8988,5.8988,0,0,1-.49-.41c-.06-.05-.11-.1-.16-.15-.06-.05-.11-.11-.16-.15v-.01a23.646,23.646,0,0,1-2.54-2.81c-.02-.01-.02-.02-.03-.03-.13.28-.26.56-.37.85-.42,1.12-.84,2.23-1.27,3.33a.01.01,0,0,1-.01.01.1087.1087,0,0,1-.01.05c-.27.91-3.87,12.57-9.12,17.62a26.6286,26.6286,0,0,1-5.61.28c3.01-2.91,7.68-8.61,11.21-18.41a77.3812,77.3812,0,0,0,3.19-10.34,33.6286,33.6286,0,0,0,5.12,8.15.0788.0788,0,0,0,.04.04,7.1347,7.1347,0,0,0-.55,1.27c.1.09.21.2.32.3A6.507,6.507,0,0,0,104.5689,130.44Z" style="fill:#3c4149"/><path d="M50.34,118.91a22.0208,22.0208,0,0,1-4.67,6.2,11.3512,11.3512,0,0,1,2.1,3.67c.01.01.01.01.01.02a9.9579,9.9579,0,0,0,1.14-1.23c.18-.16.51-.45.85-.75a14.6218,14.6218,0,0,1,1.18-.95,2.0086,2.0086,0,0,1,.09.3c.11.61.24,1.21.38,1.8.03.15.06.29.1.45a40.2375,40.2375,0,0,0,3.96,10.06c-2.05-4.02-4.51-16.33-5.04-19.04C50.38,119.1,50.34,118.91,50.34,118.91Z" style="fill:#3c4149"/><path d="M61.129,146.99c.16.21.32.4.48.6a6.9713,6.9713,0,0,0,.88.91,5.7515,5.7515,0,0,0,2.91,1.5h.53c.16-.15.32-.3.49-.47a18.9957,18.9957,0,0,0,1.54-1.65A23.6726,23.6726,0,0,1,61.129,146.99Zm4.25,2.84h-.01c-.04,0-.04,0,.02.01a.3405.3405,0,0,0,.14.03h.03C65.4988,149.86,65.4388,149.84,65.379,149.83Z" style="fill:#efe8e8"/><path d="M65.379,149.83c.06.01.12.03.18.04h-.03a.3405.3405,0,0,1-.14-.03c-.06-.01-.06-.01-.02-.01Z" style="fill:#353130"/><path d="M71.5989,147.31a3.8757,3.8757,0,0,1-2.79,2.69h-2.88c.16-.15.32-.3.49-.47a18.9957,18.9957,0,0,0,1.54-1.65A13.4112,13.4112,0,0,0,71.5989,147.31Z" style="fill:#c4b1b1"/><path d="M88.9488,147.91a8.3121,8.3121,0,0,1-3.24,2.09h-3.3a6.7024,6.7024,0,0,1-.83-.25c.48-.39,1.08-.9,1.76-1.56A26.6286,26.6286,0,0,0,88.9488,147.91Z" style="fill:#c4b1b1"/><path d="M83.3389,148.19c-.68.66-1.28,1.17-1.76,1.56a6.4,6.4,0,0,1-.84-.34c-.17-.08-.33-.17-.49-.26a3.0105,3.0105,0,0,1-.42-.27,5.2684,5.2684,0,0,1-1.44-1.47A21.7164,21.7164,0,0,0,83.3389,148.19Z" style="fill:#efe8e8"/><path d="M113.36,124.38a9.1436,9.1436,0,0,1-1.92,4.26l-.01.01a6.534,6.534,0,0,1-1.72,1.44c-.08.05-.15.09-.23.13,0,.01,0,.01-.01.01-.09.05-.17.09-.26.13-.17.07-.32.14-.46.19-.07.03-.14.05-.2.07a.9288.9288,0,0,1-.13.04.5638.5638,0,0,1-.12.04c-.18.04-.28.06-.28.06a.031.031,0,0,0-.02.01h-.03c-.01,0-.01,0-.02.01a.5755.5755,0,0,0-.1.02h-.02a.06.06,0,0,0-.04.01.44.44,0,0,0-.1.02h-.03q-.135.015-.33.03a3.3167,3.3167,0,0,1-.46.02h-.03c-.1,0-.2,0-.31-.01-.12-.01-.23-.01-.35-.03a1.1342,1.1342,0,0,1-.25-.03,3.7283,3.7283,0,0,1-.44-.08c-.11-.02-.22-.05-.34-.08-.2-.06-.41-.13-.61-.21h-.01a3.9973,3.9973,0,0,1-.42-.2,4.4028,4.4028,0,0,1-.51-.29c-.16-.1-.32-.21-.49-.34a5.9152,5.9152,0,0,1-.49-.41c-.06-.05-.11-.1-.16-.15-.06-.05-.11-.11-.16-.15v-.01c.02-.07.05-.15.08-.24l.12-.29.36-.77s6.59,2.65,6.51-6.56a35.9292,35.9292,0,0,1,3.71-2.14c.01-.01.02-.01.03-.02A13.6832,13.6832,0,0,1,113.36,124.38Z" style="fill:#c4b1b1"/><path d="M45.8654,65.2491q.2712-1.1,2.3641-1.3743a16.6091,16.6091,0,0,1,4.711.2251,28.36,28.36,0,0,1,5.204,1.3779,12.36,12.36,0,0,1,3.8462,2.0828Q63.87,69.25,58.35,74.5406a49.6764,49.6764,0,0,1-4.255,3.6258,13.9462,13.9462,0,0,1-2.7092,1.7894q-.9573.33-2.0039-1.0391l-.8548-1.42q-.8382-1.9307-1.6594-4.429Q45.19,68.0316,45.8654,65.2491Z" style="fill:#484848;fill-rule:evenodd"/><path d="M47.9686,67.7935q.222-.8982,1.9317-1.1226a13.5616,13.5616,0,0,1,3.8477.1843A23.1659,23.1659,0,0,1,58,67.9808a10.0989,10.0989,0,0,1,3.1416,1.7016q1.5351,1.38-2.975,5.7022a40.6683,40.6683,0,0,1-3.4754,2.9619,11.3872,11.3872,0,0,1-2.214,1.4617q-.7824.2691-1.6365-.8489l-.6982-1.16q-.6851-1.5774-1.3557-3.6183Q47.4168,70.0669,47.9686,67.7935Z" style="fill:#ce776e;fill-rule:evenodd"/><path d="M49.1807,68.93q.17-.6914,1.4864-.8644a10.4415,10.4415,0,0,1,2.9615.1415,17.8284,17.8284,0,0,1,3.2717.8655,7.78,7.78,0,0,1,2.4184,1.31Q60.5,71.443,57.03,74.77a31.1573,31.1573,0,0,1-2.6742,2.28,8.7391,8.7391,0,0,1-1.7037,1.1252q-.6014.2074-1.2592-.6532l-.5381-.8922q-.5263-1.2141-1.0434-2.7847A9.4594,9.4594,0,0,1,49.1807,68.93Z" style="fill:#fe8d7d;fill-rule:evenodd"/><path d="M103.9133,65.2009q-.2744-1.1077-2.3818-1.3846a16.7244,16.7244,0,0,0-4.7449.2267A28.5718,28.5718,0,0,0,91.5439,65.43a12.4467,12.4467,0,0,0-3.874,2.098q-1.8928,1.7015,3.6673,7.0309a49.8983,49.8983,0,0,0,4.2858,3.6523,14.0308,14.0308,0,0,0,2.729,1.8028q.9642.3321,2.018-1.0466l.8617-1.43q.8446-1.9445,1.6715-4.4611Q104.5939,68.0039,103.9133,65.2009Z" style="fill:#484848;fill-rule:evenodd"/><path d="M101.8221,67.5927q-.2228-.9016-1.9391-1.127a13.6147,13.6147,0,0,0-3.8626.1851,23.2537,23.2537,0,0,0-4.2685,1.13,10.139,10.139,0,0,0-3.1537,1.7081q-1.541,1.3855,2.9866,5.7242a40.8025,40.8025,0,0,0,3.4887,2.9733,11.43,11.43,0,0,0,2.2225,1.4674q.7855.27,1.6429-.8522l.7009-1.1644q.6876-1.5836,1.3608-3.6322Q102.376,69.8748,101.8221,67.5927Z" style="fill:#ce776e;fill-rule:evenodd"/><path d="M100.62,69.0114q-.1754-.71-1.5266-.8874a10.7387,10.7387,0,0,0-3.0418.1456,18.31,18.31,0,0,0-3.361.89,7.9726,7.9726,0,0,0-2.4836,1.3451q-1.2129,1.0907,2.3516,4.5071a31.959,31.959,0,0,0,2.7476,2.3412,8.9951,8.9951,0,0,0,1.75,1.1557q.6186.2125,1.2935-.6711l.5523-.9168q.5413-1.2467,1.0711-2.86A9.712,9.712,0,0,0,100.62,69.0114Z" style="fill:#fe8d7d;fill-rule:evenodd"/><path d="M99.8089,78.9a9.952,9.952,0,0,0-.32-1.1,14.6155,14.6155,0,0,0-2.07-4.05,13.8817,13.8817,0,0,0-3.05-3.07,11.0769,11.0769,0,0,0-1.63-.99c-.39-.19-.8-.38-1.24-.55-.35-.14-.72-.28-1.1-.41,0,.21,0,.41.01.62a10.0023,10.0023,0,0,0,2.6,6.12,10.4527,10.4527,0,0,0,3.62,2.61v.01A10.0707,10.0707,0,0,0,99.8089,78.9Z" style="fill:#683d33"/><path d="M99.4888,77.8a8.0767,8.0767,0,0,1-3.19-.8,8.5412,8.5412,0,0,1-2.69-2.02,8.2161,8.2161,0,0,1-2.11-4.73,5.1487,5.1487,0,0,1,0-1.11c.44.17.85.36,1.24.55a11.0769,11.0769,0,0,1,1.63.99,13.8817,13.8817,0,0,1,3.05,3.07A14.6155,14.6155,0,0,1,99.4888,77.8Z" style="fill:#d8b295"/><path d="M104.6988,97.3a34.6455,34.6455,0,0,0-4.5-14.75c.01-.14.01-.27.01-.41a13.4973,13.4973,0,0,0-.4-3.24,9.952,9.952,0,0,0-.32-1.1,14.6155,14.6155,0,0,0-2.07-4.05,13.8817,13.8817,0,0,0-3.05-3.07,11.0769,11.0769,0,0,0-1.63-.99c-.39-.19-.8-.38-1.24-.55-.35-.14-.72-.28-1.1-.41-.46-.15-.94-.3-1.44-.43a.01.01,0,0,0-.01-.01c-.27-.07-.55-.15-.84-.22-.64-.16-1.3-.3-2-.44-.54-.1-1.09-.2-1.66-.28a67.1032,67.1032,0,0,0-17.47-.24c-1.17.14-2.31.31-3.39.52-.69.14-1.36.28-2,.44-.69.17-1.36.36-1.99.57-.37.12-.74.25-1.09.38-.55.21-1.06.43-1.54.67a11.0908,11.0908,0,0,0-1.63.99,13.4685,13.4685,0,0,0-3.05,3.07,14.6822,14.6822,0,0,0-2.07,4.06c-.13.36-.23.73-.33,1.11a14.3231,14.3231,0,0,0-.38,2.78q-4.2447,6.27-4.38,15.54-.2253,13.38,8.64,21.62,8.82,8.175,21.65,8.17a33.69,33.69,0,0,0,11-1.76,30.0176,30.0176,0,0,0,10.69-6.4q7.77-7.08,7.77-18.24A31.4981,31.4981,0,0,0,104.6988,97.3Zm-8.43,17.91a24.9711,24.9711,0,0,1-12.7,9.61l-3.53.82-2.24.27c-.77.07-1.56.1-2.37.1-.64,0-1.28-.02-1.9-.07a27.9,27.9,0,0,1-5.41-.87,24.5181,24.5181,0,0,1-10.61-5.99,22.1208,22.1208,0,0,1-7.57-16.83v-.33c.01-.48.04-.93.07-1.38.51-2.4,1.24-4.72,2.69-4.92,1.73-.23,3.21-2.19,3.36-2.4a.0349.0349,0,0,1,.02.01.0774.0774,0,0,1,.03.01,9.2668,9.2668,0,0,0,7.86-.07,21.4312,21.4312,0,0,0,2.08-.94c.38-.19.76-.39,1.14-.59.49-.26.98-.53,1.45-.79.91-.5,1.8-.98,2.66-1.37l.01-.01c.02,0,.03-.01.05-.02.17-.08.35-.15.52-.22.33-.13.64-.24.95-.33.16-.05.32-.09.47-.13.2-.05.4-.08.59-.11.04-.01.09-.01.13-.02.08-.01.16-.01.24-.02h.02a3.1474,3.1474,0,0,1,.53-.01h.3a5.0714,5.0714,0,0,1,.66.04l.18.03a3.7413,3.7413,0,0,1,.46.09,10.8535,10.8535,0,0,1,1.99.71c.04.02.09.04.13.06a.4053.4053,0,0,1,.09.05c.22.09.44.2.66.31.67.34,1.36.72,2.06,1.1.12.06.23.13.35.19.26.14.53.29.8.43.38.21.78.42,1.17.61a21.2519,21.2519,0,0,0,2.07.94,9.2982,9.2982,0,0,0,8.38-.18h.01c.13.19,1.51,2.17,3.13,2.41l.15.03a1.9271,1.9271,0,0,1,1.07.93,14.1233,14.1233,0,0,1,1.2,4.53,22.6477,22.6477,0,0,1,.13,2.39A20.8421,20.8421,0,0,1,96.2688,115.21Z" style="fill:#5c5e60"/><path d="M104.6988,97.3a34.6455,34.6455,0,0,0-4.5-14.75c.01-.14.01-.27.01-.41a13.4973,13.4973,0,0,0-.4-3.24,9.952,9.952,0,0,0-.32-1.1,14.6155,14.6155,0,0,0-2.07-4.05,13.8817,13.8817,0,0,0-3.05-3.07,11.0769,11.0769,0,0,0-1.63-.99c-.39-.19-.8-.38-1.24-.55-.35-.14-.72-.28-1.1-.41-.46-.15-.94-.3-1.44-.43.51.35,1,.7,1.45,1.05.38.3.75.6,1.09.9a16.3249,16.3249,0,0,1,4.8,6.75c.13.37.24.72.33,1.08v.01a15.4386,15.4386,0,0,1-1.97,11.7,37.1425,37.1425,0,0,1,2.74,5.64,1.9271,1.9271,0,0,1,1.07.93,14.1233,14.1233,0,0,1,1.2,4.53,22.6477,22.6477,0,0,1,.13,2.39,20.8421,20.8421,0,0,1-3.53,11.93,30.7151,30.7151,0,0,1-9.85,10.06,30.0176,30.0176,0,0,0,10.69-6.4q7.77-7.08,7.77-18.24A31.4981,31.4981,0,0,0,104.6988,97.3Z" style="fill:#3c4149"/><path d="M76.977,66.6817a10.6582,10.6582,0,0,1,1.6152-1.53q.9273-.7171.8838.3447A8.624,8.624,0,0,1,77.72,69.9962q-.6885.8122-1.1426.6343T76.1665,69.39q.0425-1.0614.0839-1.4795A2.7667,2.7667,0,0,1,76.977,66.6817Z" style="fill:#5c5e60;fill-rule:evenodd"/><path d="M78.1751,66.9216a10.66,10.66,0,0,1,2.0716-.8107q1.1287-.3162.6895.6516a8.6234,8.6234,0,0,1-3.3178,3.51q-.9432.4941-1.2972.1585t.0852-1.3042q.4381-.9676.6337-1.34A2.7665,2.7665,0,0,1,78.1751,66.9216Z" style="fill:#5c5e60;fill-rule:evenodd"/><path d="M53.5912,72.7555a8.9553,8.9553,0,0,0-1.698-.7648q-.93-.3108-.6039.5159A7.211,7.211,0,0,0,53.9161,75.58q.7669.4527,1.0777.1872t-.0166-1.0939q-.3263-.8274-.4738-1.1463A2.31,2.31,0,0,0,53.5912,72.7555Z" style="fill:#5c5e60;fill-rule:evenodd"/><path d="M52.9635,73.8166a8.9577,8.9577,0,0,0-1.8605.0813q-.97.1411-.3069.7326a7.21,7.21,0,0,0,3.729,1.562q.8886.059,1.0465-.318t-.5071-.9693q-.6638-.5921-.9391-.81A2.3081,2.3081,0,0,0,52.9635,73.8166Z" style="fill:#5c5e60;fill-rule:evenodd"/><path d="M97.7882,74.3168a7.1936,7.1936,0,0,1,1.3634-.6142q.7467-.25.4849.4143a5.7894,5.7894,0,0,1-2.1092,2.4678q-.6159.3635-.8653.15t.0133-.8783q.2619-.6645.38-.92A1.8539,1.8539,0,0,1,97.7882,74.3168Z" style="fill:#3c4149;fill-rule:evenodd"/><path d="M65.6525,75.8653a3.1839,3.1839,0,0,0-2.6869,4.8932,3.2148,3.2148,0,0,0,2.6869,1.4432,3.18,3.18,0,0,0,2.6708-1.46,3.1292,3.1292,0,0,0,.4977-1.7085A3.1681,3.1681,0,0,0,65.6525,75.8653Z" style="fill:#001a2b"/><path d="M83.5711,76.5379a3.1839,3.1839,0,0,0-2.6869,4.8932,3.2148,3.2148,0,0,0,2.6869,1.4432,3.18,3.18,0,0,0,2.6708-1.46A3.13,3.13,0,0,0,86.74,79.706,3.168,3.168,0,0,0,83.5711,76.5379Z" style="fill:#001a2b"/><path d="M82.615,83.9838a12.7175,12.7175,0,0,1-5.5,1.9,3.0559,3.0559,0,0,0-2.1311,1.5429,3.0094,3.0094,0,0,0-2.0991-1.4951,12.72,12.72,0,0,1-5.5-1.9c-7.82-2.75-15.84.3-14.38,3.98a16.4039,16.4039,0,0,0,3.04,5.23h.01a9.2988,9.2988,0,0,0,8.38.18,21.3061,21.3061,0,0,0,2.07-.94c.39-.19.79-.4,1.17-.61.27-.14.54-.29.8-.43.12-.06.23-.13.35-.19.7-.38,1.39-.76,2.06-1.1.22-.11.44-.22.66-.31a.4048.4048,0,0,1,.09-.05c.04-.02.09-.04.13-.06a10.8412,10.8412,0,0,1,1.99-.71,3.7331,3.7331,0,0,1,.46-.09l.18-.03a5.0694,5.0694,0,0,1,.66-.04h.3c.1074-.0064.2219.0021.3349.0063l.095.0159a3.7336,3.7336,0,0,1,.46.09,10.857,10.857,0,0,1,1.99.71c.04.02.09.04.13.06a.4123.4123,0,0,1,.09.05c.22.09.44.2.66.31.67.34,1.36.72,2.06,1.1.12.06.23.13.35.19.26.14.53.29.8.43.38.21.78.42,1.17.61a21.2519,21.2519,0,0,0,2.07.94,9.2984,9.2984,0,0,0,8.38-.18h.01a16.4069,16.4069,0,0,0,3.04-5.23C98.4551,84.2838,90.4351,81.2338,82.615,83.9838Z" style="fill:#848687"/><path d="M79.1826,84.9043A11.1149,11.1149,0,0,0,77.4971,86.54a3.429,3.429,0,0,1-2.3278,1.09,3.6606,3.6606,0,0,1-2.4281-.7426,16.2241,16.2241,0,0,1-1.8824-1.6836q-.8415-.894.596-1.6355a8.2345,8.2345,0,0,1,3.5158-.6942,7.918,7.918,0,0,1,3.4695.6942Q79.9242,84.3114,79.1826,84.9043Z" style="fill:#fe8d7d;fill-rule:evenodd"/><path d="M79.1826,84.9043q.7435-.593-.7425-1.3365a7.918,7.918,0,0,0-3.4695-.6942,8.2345,8.2345,0,0,0-3.5158.6942q-1.4376.7435-.596,1.6355a16.2241,16.2241,0,0,0,1.8824,1.6836,3.6606,3.6606,0,0,0,2.4281.7426,3.429,3.429,0,0,0,2.3278-1.09A11.1149,11.1149,0,0,1,79.1826,84.9043Zm.4957.15a10.6372,10.6372,0,0,0-1.8824,1.8321,3.78,3.78,0,0,1-2.5764,1.19,4.0767,4.0767,0,0,1-2.7251-.8427A16.3048,16.3048,0,0,1,70.4135,85.4q-.94-.9894.644-1.8322a9.1009,9.1009,0,0,1,3.9131-.7925,8.5762,8.5762,0,0,1,3.8648.7925Q80.47,84.41,79.6783,85.0548Z" style="fill:#ce776e;fill-rule:evenodd"/><path d="M85.4547,85.6125a30.102,30.102,0,0,1,12.8889-3.7482" style="fill:none;stroke:#001a2b;stroke-linecap:round;stroke-miterlimit:10"/><path d="M89.69,90.7947a16.5789,16.5789,0,0,1,11.2259,4.5795" style="fill:none;stroke:#001a2b;stroke-linecap:round;stroke-miterlimit:10"/><path d="M63.7493,84.7568a46.9857,46.9857,0,0,0-12.9952-1.4326" style="fill:none;stroke:#001a2b;stroke-linecap:round;stroke-miterlimit:10"/><path d="M61.047,87.1241c-3.9659-.1868-8.1546-.3264-11.6569,1.5436" style="fill:none;stroke:#001a2b;stroke-linecap:round;stroke-miterlimit:10"/><path d="M60.8965,90.3231A22.4874,22.4874,0,0,0,53.95,91.9609a6.1483,6.1483,0,0,0-2.6478,1.7769" style="fill:none;stroke:#001a2b;stroke-linecap:round;stroke-miterlimit:10"/><path d="M87.58,87.7933a23.7107,23.7107,0,0,1,12.0981-1.0889" style="fill:none;stroke:#001a2b;stroke-linecap:round;stroke-miterlimit:10"/></svg>