<svg id="Camada_1" data-name="Camada 1" xmlns="http://www.w3.org/2000/svg" viewBox="0 0 150 150"><path d="M113.0789,118.89a28.2558,28.2558,0,0,0-2.96-7.39l-.35-.56a.6141.6141,0,0,0-.07-.18c-.11-.15-.22-.31-.33-.46l-.05-.08h-.01a37.0928,37.0928,0,0,0-7.56-8.42,32.7975,32.7975,0,0,1-2.46,8.87,25.2278,25.2278,0,0,1-10.37,12.2,25.9412,25.9412,0,0,1-14.15,3.16,29.2162,29.2162,0,0,1-13.5-3.52c-11.93-6.7-13.17-20.56-13.17-20.56-3.24,2.48-5.48,5.64-7.64,8.85a23.2336,23.2336,0,0,0-3.3,7.71,1.2633,1.2633,0,0,0-.06.21c-.32,1.02-1.5,5.53.48,8.81a6.54,6.54,0,0,0,2.39,2.3,6.0193,6.0193,0,0,0,.67.34,4.788,4.788,0,0,0,.65.25,5.7283,5.7283,0,0,0,1.21.29,5.9527,5.9527,0,0,0,1.11.04l.3-.03c.11-.01.22-.03.33-.05s.22-.05.33-.07a3.3749,3.3749,0,0,0,.48-.14,2.7385,2.7385,0,0,0,.4-.15c.23-.1.46-.21.67-.32a8.1839,8.1839,0,0,0,1.65-1.21,9.77,9.77,0,0,0,1.57-1.84l.43-.38,1.07-.94c.04.09.07.16.1.23,0,.01.01.01.01.02a2.0214,2.0214,0,0,1,.09.3c.11.61.24,1.21.38,1.8.03.15.06.29.1.45a40.2451,40.2451,0,0,0,3.96,10.06c.09.18.18.34.27.49v.01a3.3747,3.3747,0,0,1,.23.4c.25.44.52.88.79,1.31v.01c0,.01.01.02.02.04a.2958.2958,0,0,1,.03.04c.02.03.04.07.07.12a67.3021,67.3021,0,0,0,4.24,6.09,23.6726,23.6726,0,0,0,6.83.89,13.4112,13.4112,0,0,0,3.64-.57c.2-.48.36-.96.5-1.41.09-.24.16-.46.24-.67a.1854.1854,0,0,0,.02-.07c.21-.53.41-1.03.59-1.48l.01-.01a2.03,2.03,0,0,1,1.82-.79,2.2784,2.2784,0,0,1,.67.17,5.71,5.71,0,0,1,1.08.59c.09.06.17.12.26.18a4.4928,4.4928,0,0,1,.56,1.14c.06.17.12.34.19.5a5.7646,5.7646,0,0,0,.85,1.95,21.7164,21.7164,0,0,0,4.95.78,26.6286,26.6286,0,0,0,5.61-.28c5.25-5.05,8.85-16.71,9.12-17.62a.1087.1087,0,0,0,.01-.05.01.01,0,0,0,.01-.01c.43-1.1.85-2.21,1.27-3.33.11-.29.24-.57.37-.85.01.01.01.02.03.03a23.646,23.646,0,0,0,2.54,2.81v.01c.05.04.1.1.16.15.05.05.1.1.16.15a5.8988,5.8988,0,0,0,.49.41c.17.13.33.24.49.34a4.3863,4.3863,0,0,0,.51.29c.15.07.31.14.46.2a6.507,6.507,0,0,1-1.9-1.24c-.11-.1-.22-.21-.32-.3a7.1347,7.1347,0,0,1,.55-1.27c0-.01.01-.01.01-.02.09-.17.19-.35.31-.54.15.26.31.51.47.75a10.5115,10.5115,0,0,0,1.79,2.03,8.7838,8.7838,0,0,0,1.39,1.03,3.3174,3.3174,0,0,0,.46-.02q.1948-.015.33-.03h.03a.44.44,0,0,1,.1-.02.06.06,0,0,1,.04-.01h.02a.58.58,0,0,1,.1-.02c.01-.01.01-.01.02-.01h.03a.031.031,0,0,1,.02-.01s.1-.02.28-.06a.5567.5567,0,0,0,.12-.04.9306.9306,0,0,0,.13-.04c.06-.02.13-.04.2-.07.14-.05.29-.12.46-.19.09-.04.17-.08.26-.13.01,0,.01,0,.01-.01a2.6292,2.6292,0,0,0,.23-.13,6.7155,6.7155,0,0,0,1.72-1.47,26.3954,26.3954,0,0,0-2.06-7.59A35.8974,35.8974,0,0,1,113.0789,118.89Zm-47.7,30.94h-.01c-.04,0-.04,0,.02.01a.3405.3405,0,0,0,.14.03h.03C65.4988,149.86,65.4388,149.84,65.379,149.83Zm0,0h-.01c-.04,0-.04,0,.02.01a.3405.3405,0,0,0,.14.03h.03C65.4988,149.86,65.4388,149.84,65.379,149.83ZM48.159,101.9a.2655.2655,0,0,1-.06.05h.08A.1609.1609,0,0,1,48.159,101.9Z" style="fill:#683d33"/><path d="M91.14,129.26a10.3793,10.3793,0,0,1-10.35,10.36H69.09a10.3686,10.3686,0,0,1-9.88-7.3,9.9933,9.9933,0,0,1-.47-3.06,10.2783,10.2783,0,0,1,2.35-6.54c.06-.07.11-.14.18-.21a29.2162,29.2162,0,0,0,13.5,3.52,25.9425,25.9425,0,0,0,14.15-3.16c.12.16.24.32.35.48a10.1679,10.1679,0,0,1,1.87,5.91Z" style="fill:#d8b295"/><path d="M91.1412,129.26a10.3793,10.3793,0,0,1-10.35,10.36h-11.7a10.3686,10.3686,0,0,1-9.88-7.3,20.6162,20.6162,0,0,0,13.84,5.12c9.31-.13,14.09-1.25,17.85-10.41A10.2946,10.2946,0,0,1,91.1412,129.26Z" style="fill:#ba8d7f"/><path d="M47.7812,128.8a7.2741,7.2741,0,0,1-3.21,1.8c-.11.02-.22.05-.33.07s-.22.04-.33.05l-.3.03a5.9513,5.9513,0,0,1-1.11-.04,5.7292,5.7292,0,0,1-1.21-.29,8.4646,8.4646,0,0,1-1.28-.59,6.5391,6.5391,0,0,1-2.39-2.3c1.95.44,4.89.37,8.05-2.42a11.3512,11.3512,0,0,1,2.1,3.67C47.7812,128.79,47.7812,128.79,47.7812,128.8Z" style="fill:#ba8d7f"/><path d="M40.0112,129.83a8.4646,8.4646,0,0,0,1.28.59,6.317,6.317,0,0,1-1.32-.59,6.5391,6.5391,0,0,1-2.39-2.3c-1.98-3.28-.8-7.79-.48-8.81a27.8714,27.8714,0,0,1,8.57,6.39c-3.16,2.79-6.1,2.86-8.05,2.42A6.5391,6.5391,0,0,0,40.0112,129.83Z" style="fill:#d8b295"/><path d="M113.36,124.38a9.1436,9.1436,0,0,1-1.92,4.26l-.01.01a6.534,6.534,0,0,1-1.72,1.44c-.08.05-.15.09-.23.13,0,.01,0,.01-.01.01-.09.05-.17.09-.26.13-.17.07-.32.14-.46.19-.07.03-.14.05-.2.07a.9288.9288,0,0,1-.13.04.5638.5638,0,0,1-.12.04c-.18.04-.28.06-.28.06a.031.031,0,0,0-.02.01h-.03c-.01,0-.01,0-.02.01a.5755.5755,0,0,0-.1.02h-.02a.06.06,0,0,0-.04.01.44.44,0,0,0-.1.02h-.03q-.135.015-.33.03a3.3167,3.3167,0,0,1-.46.02h-.03c-.1,0-.2,0-.31-.01-.12-.01-.23-.01-.35-.03a1.1342,1.1342,0,0,1-.25-.03,3.7283,3.7283,0,0,1-.44-.08c-.11-.02-.22-.05-.34-.08-.2-.06-.41-.13-.61-.21h-.01a3.9973,3.9973,0,0,1-.42-.2,4.4028,4.4028,0,0,1-.51-.29c-.16-.1-.32-.21-.49-.34a5.9152,5.9152,0,0,1-.49-.41c-.06-.05-.11-.1-.16-.15-.06-.05-.11-.11-.16-.15v-.01c.02-.07.05-.15.08-.24l.12-.29c.09-.22.21-.48.36-.77.1-.16.2-.34.31-.52a10.5775,10.5775,0,0,1,.76-1.11,19.9489,19.9489,0,0,1,3.58-3.59c.56-.44,1.18-.89,1.86-1.34a35.9292,35.9292,0,0,1,3.71-2.14c.01-.01.02-.01.03-.02A13.6832,13.6832,0,0,1,113.36,124.38Z" style="fill:#d8b295"/><path d="M76.5289,143.64a5.71,5.71,0,0,0-1.08-.59,2.2784,2.2784,0,0,0-.67-.17,2.03,2.03,0,0,0-1.82.79l-.01.01c-.18.45-.38.95-.59,1.48a.1854.1854,0,0,1-.02.07c-.08.21-.15.43-.24.67-.14.45-.3.93-.5,1.41a13.4112,13.4112,0,0,1-3.64.57,13.4709,13.4709,0,0,0,2.16-3.38C71.2388,141.82,75.159,141.9,76.5289,143.64Z" style="fill:#4c2828"/><path d="M110.12,111.5l-.35-.56a.6141.6141,0,0,0-.07-.18c-.11-.15-.22-.31-.33-.46l-.05-.08h-.01a37.0946,37.0946,0,0,0-7.56-8.42,32.8,32.8,0,0,1-2.46,8.87,20.001,20.001,0,0,1,10.08,10.36,35.9292,35.9292,0,0,1,3.71-2.14A28.2479,28.2479,0,0,0,110.12,111.5Z" style="fill:#4c2828"/><path d="M104.5689,130.44c-.15-.06-.31-.13-.46-.2a4.3863,4.3863,0,0,1-.51-.29c-.16-.1-.32-.21-.49-.34a5.8988,5.8988,0,0,1-.49-.41c-.06-.05-.11-.1-.16-.15-.06-.05-.11-.11-.16-.15v-.01a23.646,23.646,0,0,1-2.54-2.81c-.02-.01-.02-.02-.03-.03-.13.28-.26.56-.37.85-.42,1.12-.84,2.23-1.27,3.33a.01.01,0,0,1-.01.01.1087.1087,0,0,1-.01.05c-.27.91-3.87,12.57-9.12,17.62a26.6286,26.6286,0,0,1-5.61.28c3.01-2.91,7.68-8.61,11.21-18.41a77.3812,77.3812,0,0,0,3.19-10.34,33.6286,33.6286,0,0,0,5.12,8.15.0788.0788,0,0,0,.04.04,7.1347,7.1347,0,0,0-.55,1.27c.1.09.21.2.32.3A6.507,6.507,0,0,0,104.5689,130.44Z" style="fill:#4c2828"/><path d="M50.34,118.91a22.0208,22.0208,0,0,1-4.67,6.2,11.3512,11.3512,0,0,1,2.1,3.67c.01.01.01.01.01.02a9.9579,9.9579,0,0,0,1.14-1.23c.18-.16.51-.45.85-.75a14.6218,14.6218,0,0,1,1.18-.95,2.0086,2.0086,0,0,1,.09.3c.11.61.24,1.21.38,1.8.03.15.06.29.1.45a40.2375,40.2375,0,0,0,3.96,10.06c-2.05-4.02-4.51-16.33-5.04-19.04C50.38,119.1,50.34,118.91,50.34,118.91Z" style="fill:#4c2828"/><path d="M61.129,146.99c.16.21.32.4.48.6a6.9713,6.9713,0,0,0,.88.91,5.7515,5.7515,0,0,0,2.91,1.5h.53c.16-.15.32-.3.49-.47a18.9957,18.9957,0,0,0,1.54-1.65A23.6726,23.6726,0,0,1,61.129,146.99Zm4.25,2.84h-.01c-.04,0-.04,0,.02.01a.3405.3405,0,0,0,.14.03h.03C65.4988,149.86,65.4388,149.84,65.379,149.83Z" style="fill:#d8b295"/><path d="M65.379,149.83c.06.01.12.03.18.04h-.03a.3405.3405,0,0,1-.14-.03c-.06-.01-.06-.01-.02-.01Z" style="fill:#353130"/><path d="M71.5989,147.31a3.8757,3.8757,0,0,1-2.79,2.69h-2.88c.16-.15.32-.3.49-.47a18.9957,18.9957,0,0,0,1.54-1.65A13.4112,13.4112,0,0,0,71.5989,147.31Z" style="fill:#ba8d7f"/><path d="M88.9488,147.91a8.3121,8.3121,0,0,1-3.24,2.09h-3.3a6.7024,6.7024,0,0,1-.83-.25c.48-.39,1.08-.9,1.76-1.56A26.6286,26.6286,0,0,0,88.9488,147.91Z" style="fill:#ba8d7f"/><path d="M83.3389,148.19c-.68.66-1.28,1.17-1.76,1.56a6.4,6.4,0,0,1-.84-.34c-.17-.08-.33-.17-.49-.26a3.0105,3.0105,0,0,1-.42-.27,5.2684,5.2684,0,0,1-1.44-1.47A21.7164,21.7164,0,0,0,83.3389,148.19Z" style="fill:#d8b295"/><path d="M113.36,124.38a9.1436,9.1436,0,0,1-1.92,4.26l-.01.01a6.534,6.534,0,0,1-1.72,1.44c-.08.05-.15.09-.23.13,0,.01,0,.01-.01.01-.09.05-.17.09-.26.13-.17.07-.32.14-.46.19-.07.03-.14.05-.2.07a.9288.9288,0,0,1-.13.04.5638.5638,0,0,1-.12.04c-.18.04-.28.06-.28.06a.031.031,0,0,0-.02.01h-.03c-.01,0-.01,0-.02.01a.5755.5755,0,0,0-.1.02h-.02a.06.06,0,0,0-.04.01.44.44,0,0,0-.1.02h-.03q-.135.015-.33.03a3.3167,3.3167,0,0,1-.46.02h-.03c-.1,0-.2,0-.31-.01-.12-.01-.23-.01-.35-.03a1.1342,1.1342,0,0,1-.25-.03,3.7283,3.7283,0,0,1-.44-.08c-.11-.02-.22-.05-.34-.08-.2-.06-.41-.13-.61-.21h-.01a3.9973,3.9973,0,0,1-.42-.2,4.4028,4.4028,0,0,1-.51-.29c-.16-.1-.32-.21-.49-.34a5.9152,5.9152,0,0,1-.49-.41c-.06-.05-.11-.1-.16-.15-.06-.05-.11-.11-.16-.15v-.01c.02-.07.05-.15.08-.24l.12-.29.36-.77s6.59,2.65,6.51-6.56a35.9292,35.9292,0,0,1,3.71-2.14c.01-.01.02-.01.03-.02A13.6832,13.6832,0,0,1,113.36,124.38Z" style="fill:#ba8d7f"/><path d="M93.9455,138.8767c.278-1.5355,2.3876-3.1054,3.9157-3.2381.9651-.0839,1.2849.8135,1.7238,1.508a7.1461,7.1461,0,0,0,2.0483,2.1393c3.8246,2.5933,8.4866.89,12.2233-.9108,1.7385-.8381.2188-3.4258-1.5142-2.59-2.0752,1-4.3869,2.0753-6.7542,1.8029a5.1059,5.1059,0,0,1-2.52-.9522,13.33,13.33,0,0,1-1.8658-2.4774c-1.5079-1.855-3.864-1.78-5.8609-.8056-1.8716.9131-3.8993,2.578-4.2883,4.7268-.3417,1.8876,2.5489,2.6974,2.8928.7975Z" style="fill:#4c2828"/><path d="M53.7,84.3676l-.0092.0033L48.888,88.5634a11.0711,11.0711,0,0,0,.4837-9.1411,5.1537,5.1537,0,0,0-2.4072-2.5294l-.0033-.0094a11.12,11.12,0,0,0-4.16-1.1309l-.0377.0134a10.39,10.39,0,0,0-5.0562,5.4184c-2.0142,4.8987-.0538,10.23,4.3833,11.931,4.4462,1.6977,9.67-.8933,11.6972-5.786a10.111,10.111,0,0,0,.7948-3.7324Z" style="fill:#683d33"/><path d="M53.6906,84.3709a8.1484,8.1484,0,0,1-.6229,2.6947c-1.6527,4.0058-5.9341,6.113-9.5676,4.731-3.6368-1.3913-5.2333-5.7589-3.59-9.7614a8.1088,8.1088,0,0,1,7.0511-5.1517l.0033.0094a5.1537,5.1537,0,0,1,2.4072,2.5294,11.0711,11.0711,0,0,1-.4837,9.1411Z" style="fill:#d8b295"/><path d="M53.7,84.3676l-.0092.0033L48.888,88.5634a11.0711,11.0711,0,0,0,.4837-9.1411,5.1537,5.1537,0,0,0-2.4072-2.5294,6.28,6.28,0,0,1,2.5133.4113A6.8881,6.8881,0,0,1,53.7,84.3676Z" style="fill:#af857d"/><path d="M54.5766,82.9836c.0073.199.0084.4109.0061.6134l-.8829.7706a6.8881,6.8881,0,0,0-4.222-7.0634,6.28,6.28,0,0,0-2.5133-.4113l-.0033-.0094a11.12,11.12,0,0,0-4.16-1.1309,8.0862,8.0862,0,0,1,11.7753,7.231Z" style="fill:#4c2828"/><path d="M108.7687,89.965a5.0892,5.0892,0,0,1-.4785.4848,5.03,5.03,0,0,1-.4089.36c-.0744.0544-.1413.1154-.2091.1623a3.0229,3.0229,0,0,1-.3739.244,5.24,5.24,0,0,1-.6966.4c-.1375.0656-.2825.1246-.4275.1836a.883.883,0,0,1-.1111.0356c-.1034.0422-.2145.0778-.3256.1133a.0525.0525,0,0,1-.0349.0094,16.8808,16.8808,0,0,1-.6314-4.6922c-.0092-3.84-2.259-7.8106-3.9261-10.2318a6.2171,6.2171,0,0,1,2.4354-.47c.0639.0029.1345-.0016.206.0079.0217.0057.0422-.0029.0639.0028q.2669.0147.5137.0517c.1786.0238.3508.0551.5229.0864a1.2881,1.2881,0,0,1,.18.052,2.93,2.93,0,0,1,.3828.11,8.312,8.312,0,0,1,3.3185,13.0914Z" style="fill:#d8b295"/><path d="M106.3894,93.7976a12.6087,12.6087,0,0,1-.6868-1.84.0525.0525,0,0,0,.0349-.0094c.1111-.0355.2222-.0711.3256-.1133a.883.883,0,0,0,.1111-.0356c.145-.059.29-.118.4275-.1836a5.24,5.24,0,0,0,.6966-.4,3.0229,3.0229,0,0,0,.3739-.244c.0678-.0469.1347-.1079.2091-.1623a5.03,5.03,0,0,0,.4089-.36,5.0892,5.0892,0,0,0,.4785-.4848A8.312,8.312,0,0,0,105.45,76.8736a2.93,2.93,0,0,0-.3828-.11,1.2881,1.2881,0,0,0-.18-.052c-.1721-.0313-.3443-.0626-.5229-.0864q-.247-.0372-.5137-.0517c-.0217-.0057-.0422.0029-.0639-.0028-.0715-.01-.1421-.005-.206-.0079a6.2171,6.2171,0,0,0-2.4354.47c-.2973-.434-.5773-.8127-.8109-1.1376a7.5392,7.5392,0,0,1,1.9871-.8239,7.3056,7.3056,0,0,1,2.0388-.2462c4.7516.0591,8.6555,4.4037,8.7237,9.6926C113.136,89.128,110.2731,92.9354,106.3894,93.7976Z" style="fill:#683d33"/><path d="M105.7026,91.9575a1.7057,1.7057,0,0,1-.3274.0851,2.8353,2.8353,0,0,1-.335.0786l-.0141.0009-.0141.0009a4.2949,4.2949,0,0,1-.5965.0885,4.8378,4.8378,0,0,1-.6361.0271,6.7476,6.7476,0,0,1-4.5755-1.927,14.6182,14.6182,0,0,0,1.1158-4.4093,13.8858,13.8858,0,0,0-.267-4.3192,11.0819,11.0819,0,0,0-.5721-1.8193c-.1677-.4-.3506-.8134-.5691-1.2314a6.4838,6.4838,0,0,1,2.2336-1.4989c1.6671,2.4212,3.9169,6.3917,3.9261,10.2318A16.8808,16.8808,0,0,0,105.7026,91.9575Z" style="fill:#af857d"/><path d="M101.1451,77.0335a6.4838,6.4838,0,0,0-2.2336,1.4989c-.1708-.3361-.3564-.6854-.5564-1.0338a8.4726,8.4726,0,0,1,1.9791-1.6027C100.5678,76.2208,100.8478,76.6,101.1451,77.0335Z" style="fill:#4c2828"/><path d="M106.393,93.793a7.5865,7.5865,0,0,1-1.7877.1873,7.5073,7.5073,0,0,1-1.0543-.0871,8.5035,8.5035,0,0,1-4.8286-2.5484,9.9379,9.9379,0,0,0,.4851-1.0378,6.748,6.748,0,0,0,4.5755,1.927,4.8378,4.8378,0,0,0,.6361-.0271,4.31,4.31,0,0,0,.5965-.0886l.0141-.0009.0141-.0009a2.8347,2.8347,0,0,0,.335-.0785.989.989,0,0,0,.3274-.0852A12.61,12.61,0,0,0,106.393,93.793Z" style="fill:#4c2828"/><path d="M99.8089,78.9a9.952,9.952,0,0,0-.32-1.1,14.6155,14.6155,0,0,0-2.07-4.05,13.8817,13.8817,0,0,0-3.05-3.07,11.0769,11.0769,0,0,0-1.63-.99c-.39-.19-.8-.38-1.24-.55-.35-.14-.72-.28-1.1-.41,0,.21,0,.41.01.62a10.0023,10.0023,0,0,0,2.6,6.12,10.4527,10.4527,0,0,0,3.62,2.61v.01A10.0707,10.0707,0,0,0,99.8089,78.9Z" style="fill:#683d33"/><path d="M99.4888,77.8a8.0767,8.0767,0,0,1-3.19-.8,8.5412,8.5412,0,0,1-2.69-2.02,8.2161,8.2161,0,0,1-2.11-4.73,5.1487,5.1487,0,0,1,0-1.11c.44.17.85.36,1.24.55a11.0769,11.0769,0,0,1,1.63.99,13.8817,13.8817,0,0,1,3.05,3.07A14.6155,14.6155,0,0,1,99.4888,77.8Z" style="fill:#d8b295"/><path d="M84.389,69.97l-5.68-.56-12.71-1.26c2.11-2.29,4.2-4.01,5.15-7.17.5,1.28.73,6.35,2.91,4.24,1.44-1.39,1.24-5.09.26-6.6.16.05.31.09.47.14C79.9988,60.42,85.4888,63.89,84.389,69.97Z" style="fill:#683d33"/><path d="M84.389,69.97l-5.68-.56c1.06-1.03,1.98-3.79-3.92-10.65C79.9988,60.42,85.4888,63.89,84.389,69.97Z" style="fill:#4c2828"/><path d="M104.6988,97.3a34.6455,34.6455,0,0,0-4.5-14.75c.01-.14.01-.27.01-.41a13.4973,13.4973,0,0,0-.4-3.24,9.952,9.952,0,0,0-.32-1.1,14.6155,14.6155,0,0,0-2.07-4.05,13.8817,13.8817,0,0,0-3.05-3.07,11.0769,11.0769,0,0,0-1.63-.99c-.39-.19-.8-.38-1.24-.55-.35-.14-.72-.28-1.1-.41-.46-.15-.94-.3-1.44-.43a.01.01,0,0,0-.01-.01c-.27-.07-.55-.15-.84-.22-.64-.16-1.3-.3-2-.44-.54-.1-1.09-.2-1.66-.28a67.1032,67.1032,0,0,0-17.47-.24c-1.17.14-2.31.31-3.39.52-.69.14-1.36.28-2,.44-.69.17-1.36.36-1.99.57-.37.12-.74.25-1.09.38-.55.21-1.06.43-1.54.67a11.0908,11.0908,0,0,0-1.63.99,13.4685,13.4685,0,0,0-3.05,3.07,14.6822,14.6822,0,0,0-2.07,4.06c-.13.36-.23.73-.33,1.11a14.3231,14.3231,0,0,0-.38,2.78q-4.2447,6.27-4.38,15.54-.2253,13.38,8.64,21.62,8.82,8.175,21.65,8.17a33.69,33.69,0,0,0,11-1.76,30.0176,30.0176,0,0,0,10.69-6.4q7.77-7.08,7.77-18.24A31.4981,31.4981,0,0,0,104.6988,97.3Zm-8.43,17.91a24.9711,24.9711,0,0,1-12.7,9.61l-3.53.82-2.24.27c-.77.07-1.56.1-2.37.1-.64,0-1.28-.02-1.9-.07a27.9,27.9,0,0,1-5.41-.87,24.5181,24.5181,0,0,1-10.61-5.99,22.1208,22.1208,0,0,1-7.57-16.83v-.33c.01-.48.04-.93.07-1.38.51-2.4,1.24-4.72,2.69-4.92,1.73-.23,3.21-2.19,3.36-2.4a.0349.0349,0,0,1,.02.01,9.2852,9.2852,0,0,0,7.89-.06,21.4312,21.4312,0,0,0,2.08-.94c1.84-.92,3.6-2.01,5.25-2.75a11.2108,11.2108,0,0,1,2-.71,5.2887,5.2887,0,0,1,1.51-.16h.3a5.5006,5.5006,0,0,1,1.3.16,10.8535,10.8535,0,0,1,1.99.71c1.65.74,3.42,1.83,5.26,2.75a21.2519,21.2519,0,0,0,2.07.94,9.2982,9.2982,0,0,0,8.38-.18h.01c.13.19,1.51,2.17,3.13,2.41l.15.03a1.9271,1.9271,0,0,1,1.07.93,14.1233,14.1233,0,0,1,1.2,4.53,22.6477,22.6477,0,0,1,.13,2.39A20.8421,20.8421,0,0,1,96.2688,115.21Z" style="fill:#683d33"/><path d="M92.129,90.67a9.4125,9.4125,0,0,0-2-1.3,9.0353,9.0353,0,0,0,4.09-9.69,9.7486,9.7486,0,0,0-18.99,1.33c-.05,0-.08.01-.12.01a9.7549,9.7549,0,0,0-19-1.34,9.0205,9.0205,0,0,0,4.09,9.69,9.4262,9.4262,0,0,0-4.12,3.86.0774.0774,0,0,1,.03.01,9.2668,9.2668,0,0,0,7.86-.07,21.4312,21.4312,0,0,0,2.08-.94c.88-.44,1.75-.92,2.59-1.38.91-.5,1.8-.98,2.66-1.37a11.2108,11.2108,0,0,1,2-.71,5.2887,5.2887,0,0,1,1.51-.16h.3a5.5006,5.5006,0,0,1,1.3.16,10.8535,10.8535,0,0,1,1.99.71c.94.42,1.93.96,2.94,1.52.76.41,1.53.84,2.32,1.23a21.2519,21.2519,0,0,0,2.07.94,9.2982,9.2982,0,0,0,8.38-.18A9.1978,9.1978,0,0,0,92.129,90.67Zm-27.12-4.69c-3.19,0-5.78-1.72-5.78-3.85a1.5645,1.5645,0,0,1,.02-.31l.03-.15c-.01-.02,0-.03.01-.04a.9484.9484,0,0,1,.05-.23.1421.1421,0,0,1,.02-.06.4983.4983,0,0,1,.06-.17,2.6565,2.6565,0,0,1,.27-.53,1.48,1.48,0,0,1,.19-.27,4.4559,4.4559,0,0,1,1.32-1.13,3.0485,3.0485,0,0,1,.4-.21,1.5106,1.5106,0,0,1,.18-.09,4.7,4.7,0,0,1,.52-.21,2.7911,2.7911,0,0,1,.31-.1,2.9767,2.9767,0,0,1,.32-.09,6.6519,6.6519,0,0,1,.91-.18,1.9371,1.9371,0,0,1,.24-.02,7.0318,7.0318,0,0,1,.93-.06c.13,0,.25,0,.37.01a2.6361,2.6361,0,0,1,.29.02,7.332,7.332,0,0,1,1.51.25c.08.02.16.05.23.07a5.6536,5.6536,0,0,1,2.4,1.35,2.5228,2.5228,0,0,1,.27.3,2.7149,2.7149,0,0,1,.41.63.5963.5963,0,0,1,.08.16,2.56,2.56,0,0,1,.23,1.06C70.7989,84.26,68.2088,85.98,65.0088,85.98Zm24.61-1.4a3.1681,3.1681,0,0,1-.37.27,3.1283,3.1283,0,0,1-.36.22,6.2727,6.2727,0,0,1-.74.35,6.7683,6.7683,0,0,1-.68.24,6.2263,6.2263,0,0,1-.62.15,2.2554,2.2554,0,0,1-.36.06,3.0327,3.0327,0,0,1-.42.06.8088.8088,0,0,1-.16.01,6.34,6.34,0,0,1-.76.04c-3.19,0-5.78-1.72-5.78-3.85a2.5564,2.5564,0,0,1,.23-1.06,1.505,1.505,0,0,1,.11-.22,3.002,3.002,0,0,1,.62-.83c.04-.04.08-.08.12-.12a.7107.7107,0,0,1,.13-.12,2.9735,2.9735,0,0,1,.28-.22q.1349-.105.3-.21a1.5741,1.5741,0,0,1,.22-.13c.07-.04.15-.08.22-.12a7.1585,7.1585,0,0,1,1.94-.67c.12-.02.25-.04.38-.06a8.4255,8.4255,0,0,1,3.73.29l.27.09c.09.03.18.07.27.11.13.05.26.11.38.17a4.65,4.65,0,0,1,1.88,1.55c.03.06.07.12.1.18a2.4012,2.4012,0,0,1,.32.8.7766.7766,0,0,1,.04.22c.01.12.02.23.02.35a2.03,2.03,0,0,1-.01.25,2.0088,2.0088,0,0,1-.09.48,1.3321,1.3321,0,0,1-.09.26,2.871,2.871,0,0,1-.32.6,1.9206,1.9206,0,0,1-.18.25c-.09.11-.19.21-.29.31A3.0829,3.0829,0,0,1,89.6189,84.58Z" style="fill:#d8b295"/><path d="M69.5874,89.4982a.5029.5029,0,0,1-.2359-.34.4764.4764,0,0,1,.0138-.21.551.551,0,0,1,.1235-.1893,1.3389,1.3389,0,0,1,.4052-.2237,2.41,2.41,0,0,1,.6716-.14,2.8355,2.8355,0,0,1,.5864.0238c.1469.0263.2426.0445.2426.0445s-.0812.0482-.2059.1238a2.84,2.84,0,0,0-.4122.3168,3.2255,3.2255,0,0,0-.4919.6347.2583.2583,0,0,1-.1289.0668.4728.4728,0,0,1-.1661.02A.8351.8351,0,0,1,69.5874,89.4982Z" style="fill:#7c4b27"/><path d="M80.4307,89.7056a.7451.7451,0,0,1-.4175.086.4749.4749,0,0,1-.1751-.0488.3089.3089,0,0,1-.1359-.0939,3.0951,3.0951,0,0,0-.507-.7183,2.4775,2.4775,0,0,0-.4475-.34c-.14-.077-.2306-.1271-.2306-.1271s.105-.0154.2673-.0411a2.5494,2.5494,0,0,1,.6466.0094,2.436,2.436,0,0,1,.7208.2223,1.5288,1.5288,0,0,1,.4135.2866.6251.6251,0,0,1,.1165.21.5362.5362,0,0,1,.0029.2208A.4933.4933,0,0,1,80.4307,89.7056Z" style="fill:#7c4b27"/><ellipse cx="65.0126" cy="82.1329" rx="5.7832" ry="3.8513" style="fill:#fff"/><ellipse cx="85.1516" cy="82.1329" rx="5.7832" ry="3.8513" style="fill:#fff"/><circle cx="65.0126" cy="82.1329" r="0.3651" style="fill:#001a2b;stroke:#001a2b;stroke-miterlimit:10"/><circle cx="85.5167" cy="82.1329" r="0.3651" style="fill:#001a2b;stroke:#001a2b;stroke-miterlimit:10"/><path d="M104.6988,97.3a34.6455,34.6455,0,0,0-4.5-14.75c.01-.14.01-.27.01-.41a13.4973,13.4973,0,0,0-.4-3.24,9.952,9.952,0,0,0-.32-1.1,14.6155,14.6155,0,0,0-2.07-4.05,13.8817,13.8817,0,0,0-3.05-3.07,11.0769,11.0769,0,0,0-1.63-.99c-.39-.19-.8-.38-1.24-.55-.35-.14-.72-.28-1.1-.41-.46-.15-.94-.3-1.44-.43.51.35,1,.7,1.45,1.05.38.3.75.6,1.09.9a16.3249,16.3249,0,0,1,4.8,6.75c.13.37.24.72.33,1.08v.01a15.4386,15.4386,0,0,1-1.97,11.7,37.1425,37.1425,0,0,1,2.74,5.64,1.9271,1.9271,0,0,1,1.07.93,14.1233,14.1233,0,0,1,1.2,4.53,22.6477,22.6477,0,0,1,.13,2.39,20.8421,20.8421,0,0,1-3.53,11.93,30.7151,30.7151,0,0,1-9.85,10.06,30.0176,30.0176,0,0,0,10.69-6.4q7.77-7.08,7.77-18.24A31.4981,31.4981,0,0,0,104.6988,97.3Z" style="fill:#4c2828"/><path d="M94.1089,92.99a9.2982,9.2982,0,0,1-8.38.18,21.2519,21.2519,0,0,1-2.07-.94c-.79-.39-1.56-.82-2.32-1.23,3.2.95,8.7,2.11,10.79-.33A9.1978,9.1978,0,0,1,94.1089,92.99Z" style="fill:#ba8e83"/><path d="M68.639,90.85c-.84.46-1.71.94-2.59,1.38a21.4312,21.4312,0,0,1-2.08.94,9.2668,9.2668,0,0,1-7.86.07,13.2025,13.2025,0,0,0,6.66-.01C65.2588,92.47,66.2789,91.3,68.639,90.85Z" style="fill:#ba8e83"/><path d="M100.6479,83.3444a10.6977,10.6977,0,0,1,2.0284-.9137q1.1111-.3714.7214.6163a8.6135,8.6135,0,0,1-3.138,3.6716q-.9164.5408-1.2874.2236t.02-1.3068q.39-.9885.566-1.3694A2.7589,2.7589,0,0,1,100.6479,83.3444Z" style="fill:#4c2828;fill-rule:evenodd"/><path d="M100.93,85.612a10.6966,10.6966,0,0,1,2.1794-.4468q1.1654-.1188.5687.76a8.6149,8.6149,0,0,1-3.8666,2.8943q-1.0125.3267-1.305-.0641t.3057-1.2707q.597-.8788.8525-1.2119A2.7579,2.7579,0,0,1,100.93,85.612Z" style="fill:#4c2828;fill-rule:evenodd"/><path d="M51.0768,82.593a10.7031,10.7031,0,0,1,1.4311,1.7033q.66.9681-.3969.8619a8.6146,8.6146,0,0,1-4.3868-2.0208q-.77-.7347-.5653-1.178t1.2628-.3365q1.0573.106,1.4717.1722A2.7579,2.7579,0,0,1,51.0768,82.593Z" style="fill:#683d33;fill-rule:evenodd"/><path d="M49.6366,85.8328a10.6614,10.6614,0,0,1-2.19-.39q-1.128-.3193-.2481-.916A8.62,8.62,0,0,1,51.86,83.2654q1.0607.07,1.1885.5415t-.7529,1.0679q-.8788.5969-1.2393.812A2.767,2.767,0,0,1,49.6366,85.8328Z" style="fill:#683d33;fill-rule:evenodd"/><path d="M86.648,68.059a10.6582,10.6582,0,0,1,1.6152-1.53q.9273-.7172.8838.3447a8.624,8.624,0,0,1-1.7558,4.5q-.6885.8123-1.1426.6343t-.4111-1.2407q.0424-1.0614.0839-1.48A2.7667,2.7667,0,0,1,86.648,68.059Z" style="fill:#683d33;fill-rule:evenodd"/></svg>