<svg id="Camada_1" data-name="Camada 1" xmlns="http://www.w3.org/2000/svg" viewBox="0 0 150 150"><path d="M48.159,101.9a.2655.2655,0,0,1-.06.05h.08A.1609.1609,0,0,1,48.159,101.9Z" style="fill:#62874d"/><path d="M113.11,118.87c-.01.01-.02.01-.03.02a35.95,35.95,0,0,0-3.71,2.14l-.0007.0005,0-.0005a35.8974,35.8974,0,0,1,3.71-2.14,28.2558,28.2558,0,0,0-2.96-7.39l-.35-.56a.6141.6141,0,0,0-.07-.18c-.11-.15-.22-.31-.33-.46l-.05-.08h-.01a37.0928,37.0928,0,0,0-7.56-8.42,32.7975,32.7975,0,0,1-2.46,8.87,25.2278,25.2278,0,0,1-10.37,12.2,25.9412,25.9412,0,0,1-14.15,3.16,29.2162,29.2162,0,0,1-13.5-3.52c-11.93-6.7-13.17-20.56-13.17-20.56-3.24,2.48-5.48,5.64-7.64,8.85a23.2336,23.2336,0,0,0-3.3,7.71,1.2633,1.2633,0,0,0-.06.21c-.32,1.02-1.5,5.53.48,8.81a6.54,6.54,0,0,0,2.39,2.3c.0566.0319.11.0532.165.0837a6.2769,6.2769,0,0,0,1.0337.46c.04.0131.0823.0354.1214.0466a5.7283,5.7283,0,0,0,1.21.29,5.9527,5.9527,0,0,0,1.11.04l.3-.03c.11-.01.22-.03.33-.05s.22-.05.33-.07a3.3749,3.3749,0,0,0,.48-.14,2.7385,2.7385,0,0,0,.4-.15c.23-.1.46-.21.67-.32a8.1839,8.1839,0,0,0,1.65-1.21,9.77,9.77,0,0,0,1.57-1.84l.43-.38,1.07-.94c.04.09.07.16.1.23,0,.01.01.01.01.02a2.0214,2.0214,0,0,1,.09.3c.11.61.24,1.21.38,1.8.03.15.06.29.1.45a40.2451,40.2451,0,0,0,3.96,10.06c.09.18.18.34.27.49v.01a3.3747,3.3747,0,0,1,.23.4c.25.44.52.88.79,1.31v.01c0,.01.01.02.02.04a.2958.2958,0,0,1,.03.04c.02.03.04.07.07.12a67.3021,67.3021,0,0,0,4.24,6.09c.16.21.32.4.48.6a6.9713,6.9713,0,0,0,.88.91,5.7515,5.7515,0,0,0,2.91,1.5h.53c.16-.15.32-.3.49-.47a18.9957,18.9957,0,0,0,1.54-1.65,13.4112,13.4112,0,0,0,3.64-.57c.2-.48.36-.96.5-1.41.09-.24.16-.46.24-.67a.1854.1854,0,0,0,.02-.07c.21-.53.41-1.03.59-1.48l.01-.01a2.03,2.03,0,0,1,1.82-.79,2.2784,2.2784,0,0,1,.67.17,5.71,5.71,0,0,1,1.08.59c.09.06.17.12.26.18a4.4928,4.4928,0,0,1,.56,1.14c.06.17.12.34.19.5a5.7646,5.7646,0,0,0,.85,1.95,5.2684,5.2684,0,0,0,1.44,1.47,3.0105,3.0105,0,0,0,.42.27c.16.09.32.18.49.26a6.4,6.4,0,0,0,.84.34c.48-.39,1.08-.9,1.76-1.56a26.6286,26.6286,0,0,0,5.61-.28c5.25-5.05,8.85-16.71,9.12-17.62a.1087.1087,0,0,0,.01-.05.01.01,0,0,0,.01-.01c.43-1.1.85-2.21,1.27-3.33.11-.29.24-.57.37-.85.01.01.01.02.03.03a23.646,23.646,0,0,0,2.54,2.81v.01c.05.04.1.1.16.15.05.05.1.1.16.15a5.8988,5.8988,0,0,0,.49.41c.17.13.33.24.49.34a4.3863,4.3863,0,0,0,.51.29l.012.0052a4.07,4.07,0,0,0,.4092.1948h.01c.2.08.41.15.61.21.12.03.23.06.34.08a3.7172,3.7172,0,0,0,.44.08,1.1342,1.1342,0,0,0,.25.03c.12.02.23.02.35.03.11.01.21.01.31.01h.03a3.3167,3.3167,0,0,0,.46-.02q.1951-.015.33-.03h.03a.4418.4418,0,0,1,.1-.02.0611.0611,0,0,1,.04-.01h.02a.5763.5763,0,0,1,.1-.02c.01-.01.01-.01.02-.01H108a.0313.0313,0,0,1,.02-.01s.1-.02.28-.06a.5648.5648,0,0,0,.12-.04.9338.9338,0,0,0,.13-.04c.06-.02.13-.04.2-.07.14-.05.29-.12.46-.19.09-.04.17-.08.26-.13.01,0,.01,0,.01-.01.08-.04.15-.08.23-.13a6.5356,6.5356,0,0,0,1.72-1.44l.01-.01a9.1426,9.1426,0,0,0,1.92-4.26A13.6778,13.6778,0,0,0,113.11,118.87Z" style="fill:#62874d"/><path d="M91.14,129.26a10.3793,10.3793,0,0,1-10.35,10.36H69.09a10.3686,10.3686,0,0,1-9.88-7.3,9.9933,9.9933,0,0,1-.47-3.06,10.2783,10.2783,0,0,1,2.35-6.54c.06-.07.11-.14.18-.21a29.2162,29.2162,0,0,0,13.5,3.52,25.9425,25.9425,0,0,0,14.15-3.16c.12.16.24.32.35.48a10.1679,10.1679,0,0,1,1.87,5.91Z" style="fill:#efe8e8"/><path d="M91.1412,129.26a10.3793,10.3793,0,0,1-10.35,10.36h-11.7a10.3686,10.3686,0,0,1-9.88-7.3,20.6162,20.6162,0,0,0,13.84,5.12c9.31-.13,14.09-1.25,17.85-10.41A10.2946,10.2946,0,0,1,91.1412,129.26Z" style="fill:#c4b1b1"/><path d="M65.379,149.83c.06.01.12.03.18.04h-.03a.3405.3405,0,0,1-.14-.03c-.06-.01-.06-.01-.02-.01Z" style="fill:#353130"/><path d="M70.1189,144.5a13.4709,13.4709,0,0,1-2.16,3.38,18.9957,18.9957,0,0,1-1.54,1.65c-.17.17-.33.32-.49.47h2.88a3.8757,3.8757,0,0,0,2.79-2.69c.2-.48.36-.96.5-1.41.09-.24.16-.46.24-.67a.1854.1854,0,0,0,.02-.07c.21-.53.41-1.03.59-1.48l.01-.01a2.03,2.03,0,0,1,1.82-.79,2.2784,2.2784,0,0,1,.67.17,5.71,5.71,0,0,1,1.08.59C75.159,141.9,71.2388,141.82,70.1189,144.5Z" style="fill:#346849"/><path d="M50.34,118.91a22.0265,22.0265,0,0,1-4.67,6.2l0,.0006c-3.16,2.7892-6.0994,2.8593-8.0494,2.4194a6.54,6.54,0,0,0,2.39,2.3,8.4556,8.4556,0,0,0,1.28.59,5.7248,5.7248,0,0,0,1.21.29,5.95,5.95,0,0,0,1.11.04l.3-.03c.11-.01.22-.03.33-.05s.22-.05.33-.07a7.2748,7.2748,0,0,0,3.21-1.8l-.0005-.0008A9.9746,9.9746,0,0,0,48.92,127.57c.18-.16.51-.45.85-.75a14.6071,14.6071,0,0,1,1.18-.95,1.972,1.972,0,0,1,.09.3c.11.61.24,1.21.38,1.8.03.15.06.29.1.45a40.23,40.23,0,0,0,3.96,10.06c-2.05-4.02-4.51-16.33-5.04-19.04C50.38,119.1,50.34,118.91,50.34,118.91Z" style="fill:#346849"/><path d="M113.11,118.87c-.01.01-.02.01-.03.02a28.244,28.244,0,0,0-2.96-7.39l-.35-.56a.6167.6167,0,0,0-.07-.18c-.11-.15-.22-.31-.33-.46l-.05-.08h-.01a37.0918,37.0918,0,0,0-7.56-8.42,32.8011,32.8011,0,0,1-2.46,8.87,20,20,0,0,1,10.08,10.36c.08,9.21-6.51,6.56-6.51,6.56l0,.0007-.0008-.0007a33.6286,33.6286,0,0,1-5.12-8.15,77.3812,77.3812,0,0,1-3.19,10.34c-3.53,9.8-8.2,15.5-11.21,18.41-.68.66-1.28,1.17-1.76,1.56a6.7024,6.7024,0,0,0,.83.25h3.3a8.3121,8.3121,0,0,0,3.24-2.09c5.25-5.05,8.85-16.71,9.12-17.62a.1087.1087,0,0,0,.01-.05.01.01,0,0,0,.01-.01c.43-1.1.85-2.21,1.27-3.33.11-.29.24-.57.37-.85.01.01.01.02.03.03a23.646,23.646,0,0,0,2.54,2.81v.01c.05.04.1.1.16.15.05.05.1.1.16.15a5.8988,5.8988,0,0,0,.49.41c.17.13.33.24.49.34a4.3863,4.3863,0,0,0,.51.29l.012.0052a4.07,4.07,0,0,0,.4092.1948h.01c.2.08.41.15.61.21.12.03.23.06.34.08a3.7172,3.7172,0,0,0,.44.08,1.1342,1.1342,0,0,0,.25.03c.12.02.23.02.35.03.11.01.21.01.31.01h.03a3.3167,3.3167,0,0,0,.46-.02q.1951-.015.33-.03h.03a.4418.4418,0,0,1,.1-.02.0611.0611,0,0,1,.04-.01h.02a.5763.5763,0,0,1,.1-.02c.01-.01.01-.01.02-.01H108a.0313.0313,0,0,1,.02-.01s.1-.02.28-.06a.5648.5648,0,0,0,.12-.04.9338.9338,0,0,0,.13-.04c.06-.02.13-.04.2-.07.14-.05.29-.12.46-.19.09-.04.17-.08.26-.13.01,0,.01,0,.01-.01.08-.04.15-.08.23-.13a6.5356,6.5356,0,0,0,1.72-1.44l.01-.01a9.1426,9.1426,0,0,0,1.92-4.26A13.6778,13.6778,0,0,0,113.11,118.87Z" style="fill:#346849"/><path d="M105.1877,109.9965a.86.86,0,0,1,1.2782.0157,1.3477,1.3477,0,0,1,.2662.5593,3.62,3.62,0,0,1,.1081.7425.8819.8819,0,0,1-.2023.7146.966.966,0,0,1-.4715.1845l-.4416.0874a.6377.6377,0,0,1-.2534.0154.5334.5334,0,0,1-.304-.2415,1.564,1.564,0,0,1-.2027-.4127,2.2184,2.2184,0,0,1-.0782-.4453,2.1012,2.1012,0,0,1,.0044-.3917,1.9767,1.9767,0,0,1,.073-.4218A1.04,1.04,0,0,1,105.1877,109.9965Z" style="fill:#316044"/><path d="M94.6526,132.3a.86.86,0,0,1,1.2782.0157,1.348,1.348,0,0,1,.2663.5593,3.6253,3.6253,0,0,1,.108.7424.8819.8819,0,0,1-.2023.7146.967.967,0,0,1-.4715.1846l-.4415.0873a.6365.6365,0,0,1-.2535.0154.5333.5333,0,0,1-.304-.2415,1.5649,1.5649,0,0,1-.2027-.4126,2.2208,2.2208,0,0,1-.0782-.4453,2.1108,2.1108,0,0,1,.0044-.3918,1.9717,1.9717,0,0,1,.0731-.4218A1.0379,1.0379,0,0,1,94.6526,132.3Z" style="fill:#316044"/><path d="M55.1031,121.7294a.6548.6548,0,0,1,.9733.012,1.0259,1.0259,0,0,1,.2028.4258,2.7672,2.7672,0,0,1,.0823.5654.6716.6716,0,0,1-.1541.5442.7358.7358,0,0,1-.3591.1405l-.3362.0665a.4829.4829,0,0,1-.1929.0117.4054.4054,0,0,1-.2315-.1838,1.19,1.19,0,0,1-.1544-.3143,1.6945,1.6945,0,0,1-.06-.3391,1.6072,1.6072,0,0,1,.0034-.2983,1.5016,1.5016,0,0,1,.0556-.3212A.7913.7913,0,0,1,55.1031,121.7294Z" style="fill:#5d7c49"/><path d="M104.6988,97.3a37.0248,37.0248,0,0,0-2.95-11.78,29.772,29.772,0,0,0-1.55-2.97,24.5653,24.5653,0,0,0-3.9-5.55v-.01c-.33-.37-.7-.74-1.08-1.12-.05-.05-.09-.1-.14-.15-.4-.39-.82-.78-1.27-1.17,0-.01-.01-.01-.01-.02a.031.031,0,0,1-.02-.01l-.01-.01c-.44-.38-.91-.77-1.4-1.14-.04-.03-.07-.06-.11-.09-.18-.14-.38-.28-.58-.42-.12-.09-.23-.17-.35-.26-.19-.13-.38-.26-.57-.38-.14-.1-.29-.2-.44-.29-.19-.12-.37-.24-.56-.35-.19-.12-.39-.24-.6-.35q-.36-.225-.75-.42c-.25-.14-.51-.28-.78-.41-.16-.08-.33-.16-.5-.24-.24-.11-.48-.23-.73-.34-.17-.07-.34-.15-.52-.22-.26-.11-.54-.22-.81-.32-.16-.07-.32-.13-.49-.19-.4-.14-.81-.28-1.23-.41-.05-.02-.11-.04-.16-.06-.45-.14-.91-.26-1.38-.38-.15-.04-.31-.08-.47-.12-.35-.08-.69-.16-1.05-.23-.18-.04-.36-.07-.54-.11-.36-.06-.73-.12-1.1-.18-.17-.03-.34-.05-.51-.08-.54-.07-1.1-.13-1.66-.18-.56-.06-1.13-.09-1.71-.11a26.4026,26.4026,0,0,0-4.41.21,25.5852,25.5852,0,0,0-6.79,1.86,30.0468,30.0468,0,0,0-8.3,5.39,31.4417,31.4417,0,0,0-5.35,6c-.12.18-.26.36-.38.53v.03a25.8057,25.8057,0,0,0-1.33,2.31,20.1034,20.1034,0,0,0-1.56,3.98c-.02.08-.03.15-.05.22a32.2165,32.2165,0,0,0-1.47,9.48q-.2253,13.38,8.64,21.62,8.82,8.175,21.65,8.17a33.69,33.69,0,0,0,11-1.76c.31-.11.62-.22.93-.34a27.377,27.377,0,0,0,2.77-1.22,30.0756,30.0756,0,0,0,6.99-4.84q7.77-7.08,7.77-18.24A31.4981,31.4981,0,0,0,104.6988,97.3Zm-8.43,17.91a20.594,20.594,0,0,1-1.53,2.02,23.9345,23.9345,0,0,1-1.97,2.08.6576.6576,0,0,1-.09.08,24.2305,24.2305,0,0,1-9.11,5.43l-3.53.82-2.24.27c-.77.07-1.56.1-2.37.1-.64,0-1.28-.02-1.9-.07a27.9,27.9,0,0,1-5.41-.87,24.5181,24.5181,0,0,1-10.61-5.99,22.1208,22.1208,0,0,1-7.57-16.83v-.33c.01-.48.04-.93.07-1.38a5.6084,5.6084,0,0,1,.1543-1.3068c.8709-1.4656,5.0606-5.5353,24.7058-5.14,22.3477.45,24.4424,4.998,24.6206,5.591.0511.2816.1033.5625.1395.8556.01.12.03.23.04.35a22.6477,22.6477,0,0,1,.13,2.39A20.8421,20.8421,0,0,1,96.2688,115.21Z" style="fill:#62874d"/><path d="M104.879,100.63q0,11.16-7.77,18.24a30.0756,30.0756,0,0,1-6.99,4.84,33.0227,33.0227,0,0,0,4.62-6.48,20.594,20.594,0,0,0,1.53-2.02,20.8421,20.8421,0,0,0,3.53-11.93,22.6477,22.6477,0,0,0-.13-2.39c-.01-.12-.03-.23-.04-.35a15.4452,15.4452,0,0,0-.46-2.29c0-.01-.01-.02-.01-.03-.01-.02-.01-.03-.02-.05a38.7473,38.7473,0,0,0-5.62-18.46,14.5791,14.5791,0,0,0,2.78-2.71,24.5653,24.5653,0,0,1,3.9,5.55,29.772,29.772,0,0,1,1.55,2.97,37.0248,37.0248,0,0,1,2.95,11.78A31.4981,31.4981,0,0,1,104.879,100.63Z" style="fill:#346849"/><path d="M70.4108,67.43c-4.691,2.0044-5.3685,3.3508-5.3685,3.3508a8.1784,8.1784,0,0,0-1.4316-1.5279A25.585,25.585,0,0,1,70.4108,67.43Z" style="fill:#346849"/><ellipse cx="59.4906" cy="74.1547" rx="6.4527" ry="6.1899" transform="translate(-26.5654 33.7515) rotate(-26.1116)" style="fill:#62874d"/><path d="M58.8,69.5618a3.1839,3.1839,0,0,0-2.687,4.8932A3.2148,3.2148,0,0,0,58.8,75.8982a3.18,3.18,0,0,0,2.6707-1.46,3.1293,3.1293,0,0,0,.4977-1.7086A3.168,3.168,0,0,0,58.8,69.5618Z" style="fill:#001a2b"/><path d="M96.2989,76.99a5.9207,5.9207,0,0,1-2.61,2.67,6.4848,6.4848,0,0,1-5.9.05,6.1906,6.1906,0,1,1,5.44-11.11,6.6012,6.6012,0,0,1,2.76,2.51A6.0834,6.0834,0,0,1,96.2989,76.99Z" style="fill:#62874d"/><path d="M91.2,69.5618a3.1839,3.1839,0,0,1,2.687,4.8932A3.2148,3.2148,0,0,1,91.2,75.8982a3.18,3.18,0,0,1-2.6707-1.46,3.1293,3.1293,0,0,1-.4977-1.7086A3.168,3.168,0,0,1,91.2,69.5618Z" style="fill:#001a2b"/><ellipse cx="58.7923" cy="79.8604" rx="4.8878" ry="2.3928" style="fill:#c9846f"/><circle cx="71.9978" cy="83.2268" r="0.9736" style="fill:#346849"/><circle cx="78.0022" cy="83.2268" r="0.9736" style="fill:#346849"/><path d="M96.2989,76.99a5.9207,5.9207,0,0,1-2.61,2.67l-.99-.72s3.45-2.38,3.29-7.83A6.0834,6.0834,0,0,1,96.2989,76.99Z" style="fill:#346849"/><ellipse cx="90.8539" cy="79.8604" rx="4.8878" ry="2.3928" style="fill:#c9846f"/><path d="M68.82,70.4031a.86.86,0,0,1,1.2782.0157,1.3482,1.3482,0,0,1,.2663.5592,3.6273,3.6273,0,0,1,.108.7425.8815.8815,0,0,1-.2023.7146.9667.9667,0,0,1-.4715.1846l-.4415.0873a.636.636,0,0,1-.2534.0154.5326.5326,0,0,1-.304-.2415,1.5621,1.5621,0,0,1-.2028-.4126,2.2351,2.2351,0,0,1-.0782-.4453,2.12,2.12,0,0,1,.0044-.3918,1.9717,1.9717,0,0,1,.0731-.4218A1.0379,1.0379,0,0,1,68.82,70.4031Z" style="fill:#5d7c49"/><path d="M47.3371,88.79a.9733.9733,0,0,1,1.4465.0178,1.5254,1.5254,0,0,1,.3013.6329,4.1,4.1,0,0,1,.1223.84.9978.9978,0,0,1-.229.8087,1.0925,1.0925,0,0,1-.5336.2089l-.5.0988a.72.72,0,0,1-.2868.0174.6033.6033,0,0,1-.3441-.2733,1.7712,1.7712,0,0,1-.2294-.4669,2.519,2.519,0,0,1-.0885-.504,2.3878,2.3878,0,0,1,.005-.4433,2.2256,2.2256,0,0,1,.0827-.4773A1.1749,1.1749,0,0,1,47.3371,88.79Z" style="fill:#5d7c49"/><path d="M99.8746,90.3978a.86.86,0,0,1,1.2783.0157,1.3478,1.3478,0,0,1,.2662.5593,3.6194,3.6194,0,0,1,.108.7425.8816.8816,0,0,1-.2023.7146.9656.9656,0,0,1-.4715.1845l-.4415.0873a.6341.6341,0,0,1-.2534.0154.5329.5329,0,0,1-.304-.2414,1.5609,1.5609,0,0,1-.2027-.4127,2.2256,2.2256,0,0,1-.0783-.4453,2.12,2.12,0,0,1,.0044-.3918,1.9708,1.9708,0,0,1,.0731-.4217A1.0383,1.0383,0,0,1,99.8746,90.3978Z" style="fill:#316044"/><path d="M63.1675,90.8137a.655.655,0,0,1,.9733.012,1.0267,1.0267,0,0,1,.2027.4259,2.7583,2.7583,0,0,1,.0823.5654.6713.6713,0,0,1-.154.5441.7369.7369,0,0,1-.3591.1406l-.3362.0664a.4853.4853,0,0,1-.193.0118.4063.4063,0,0,1-.2315-.1839,1.194,1.194,0,0,1-.1543-.3142,1.697,1.697,0,0,1-.06-.3391,1.6082,1.6082,0,0,1,.0033-.2984,1.5,1.5,0,0,1,.0557-.3211A.79.79,0,0,1,63.1675,90.8137Z" style="fill:#5d7c49"/><path d="M65.2569,149.6782c.1238.0243.2538-.0012.3767.0273a.19.19,0,0,1,.0763.033c.05.04.06.1112.0238.2011l-.1978-.001a.6233.6233,0,0,1-.17-.0166.21.21,0,0,1-.1331-.1009.0894.0894,0,0,1-.01-.0527c.0074-.0474.0623-.0686.1087-.0808" style="fill:#62874d"/></svg>