<svg id="Camada_1" data-name="Camada 1" xmlns="http://www.w3.org/2000/svg" viewBox="0 0 150 150"><path d="M107.3627,137.6611a.4949.4949,0,0,1-.31.38c-2.67,1.03-5.97,2.09-8.57.29a7.9182,7.9182,0,0,1-2.43-3.33c-.6-1.23-1.28-2.68-2.62-3.24a.53.53,0,0,1-.31-.63.3943.3943,0,0,1,.57-.33,5.4842,5.4842,0,0,1,2.61,2.49,18.1845,18.1845,0,0,0,2.04,3.6c2.23,2.43,5.84,1.19,8.44.19C107.1928,136.921,107.4428,137.3211,107.3627,137.6611Z" style="fill:#c4b1b1"/><path d="M111.9631,138.7875s-11.7078.7925-2.3776-4.1067l.7565-.442Z" style="fill:#cc5a80"/><path d="M65.3755,149.83h-.01c-.04,0-.04,0,.02.01a.3438.3438,0,0,0,.14.03h.03C65.4956,149.86,65.4355,149.84,65.3755,149.83Zm0,0h-.01c-.04,0-.04,0,.02.01a.3438.3438,0,0,0,.14.03h.03C65.4956,149.86,65.4355,149.84,65.3755,149.83Zm-17.22-47.93a.2711.2711,0,0,1-.06.05h.08A.1689.1689,0,0,1,48.1555,101.9Zm64.92,16.99a24.4379,24.4379,0,0,0-1.12-3.56c-.33-.83-.66-1.57-.96-2.16-.34-.71-.62-1.22-.77-1.48l-.11-.19-.35-.56c-.01-.04-.02-.07-.03-.1l-.42-.62h-.01c-.21-.29-.41-.58-.62-.87-.32-.43-.64-.87-.97-1.3l-.31-.41c-.15-.2-.3-.39-.46-.59-.26-.33-.53-.66-.8-.98v-.01c-.12-.14-.23-.27-.35-.4-.18-.21-.37-.42-.56-.62-.27-.3-.55-.6-.84-.89l-.13-.13a27.3626,27.3626,0,0,0-2.52-2.22,32.8091,32.8091,0,0,1-2.46,8.87,32.1175,32.1175,0,0,1-1.51,3.06,28.3673,28.3673,0,0,1-2.38,3.53,23.0139,23.0139,0,0,1-6.48,5.61,25.9421,25.9421,0,0,1-14.15,3.16,29.2159,29.2159,0,0,1-13.5-3.52,25.2306,25.2306,0,0,1-10.27-11.06,32.05,32.05,0,0,1-2.42-6.78,21.23,21.23,0,0,1-.48-2.72,22.5378,22.5378,0,0,0-2,1.73l-.95.97c-.13.13-.26.27-.38.41-.18.21-.36.41-.55.62.01,0,.01,0,0,.01l-.17.21c-.17.19-.33.39-.48.58l-.09.12-.64.82c-.06.09-.13.17-.19.26-.33.45-.66.9-.97,1.35-.13.18-.26.37-.38.55-.29.41-.56.81-.84,1.22a5.3928,5.3928,0,0,0-.33.5,14.1346,14.1346,0,0,0-.83,1.39,22.8534,22.8534,0,0,0-1,2.19v.01a24.0688,24.0688,0,0,0-1.14,3.62,1.2494,1.2494,0,0,0-.06.21c-.32,1.02-1.5,5.53.48,8.81a5.9073,5.9073,0,0,0,1,1.25,6.9173,6.9173,0,0,0,1.4,1.05,5.2724,5.2724,0,0,0,.67.34,5.63,5.63,0,0,0,.64.25h.01a5.7248,5.7248,0,0,0,1.21.29,5.95,5.95,0,0,0,1.11.04l.3-.03c.11-.01.22-.03.33-.05s.22-.05.33-.07a2.9087,2.9087,0,0,0,.42-.12,2.4628,2.4628,0,0,0,.38-.14.4875.4875,0,0,1,.07-.03c.23-.1.46-.21.67-.32a8.1806,8.1806,0,0,0,1.65-1.21h.01v-.01c.17-.16.32-.31.47-.46v-.01a9.8412,9.8412,0,0,0,1.09-1.36l.28-.25.15-.13,1.07-.94c.04.09.07.16.1.23,0,.01.01.01.01.02a1.9978,1.9978,0,0,1,.09.3c.11.61.24,1.21.38,1.8.03.15.06.29.1.45.02.1.05.21.08.31.06.25.12.49.19.73.04.13.08.27.12.4.03.11.06.21.09.32.12.4.23.79.36,1.18.05.15.1.29.15.44.06.17.11.33.17.49.08.21.15.42.23.63.11.29.22.59.34.88.01.03.02.05.03.08.03.09.07.16.1.24a.01.01,0,0,0,.01.01c.09.24.2.48.3.72.22.52.45,1.03.7,1.53.08.17.16.34.25.51.04.08.08.15.12.23.01.01.01.03.02.04.06.13.13.26.2.38a.5359.5359,0,0,0,.05.11c.15.28.3.56.45.83.01.01.01.03.02.04.08.16.17.31.25.45v.01a3.417,3.417,0,0,1,.23.4q.3.525.63,1.05c.05.09.11.17.16.26v.01c0,.01.01.02.02.04a.2882.2882,0,0,1,.03.04c.02.03.04.07.07.12,0,.01.01.02.02.03.21.34.72,1.16,1.41,2.18.16.25.34.52.53.79.25.36.52.74.8,1.13.13.18.26.36.4.55.35.47.71.95,1.08,1.41a23.6775,23.6775,0,0,0,6.83.89,13.4132,13.4132,0,0,0,3.64-.57c.05-.12.1-.25.14-.37.05-.12.09-.23.13-.35.09-.23.16-.47.23-.69.09-.24.16-.46.24-.67a.18.18,0,0,0,.02-.07c.13-.34.26-.66.39-.97.07-.18.13-.35.2-.51l.01-.01a2.03,2.03,0,0,1,1.82-.79,2.2769,2.2769,0,0,1,.67.17,5.7219,5.7219,0,0,1,1.08.59c.09.06.17.12.26.18a1.0544,1.0544,0,0,1,.07.11,4.3327,4.3327,0,0,1,.35.68,2.1305,2.1305,0,0,1,.14.35c.01.04.03.06.04.1v.01c.04.11.08.22.12.32a.4875.4875,0,0,0,.03.07,5.8133,5.8133,0,0,0,.24.78l.15.36a6.6712,6.6712,0,0,0,.46.81,21.7164,21.7164,0,0,0,4.95.78,26.63,26.63,0,0,0,5.61-.28l.01-.01a15.3782,15.3782,0,0,0,1.54-1.73,3.0118,3.0118,0,0,0,.22-.28,5.98,5.98,0,0,0,.42-.57c.14-.19.28-.39.41-.59.14-.2.27-.4.4-.61.14-.2.27-.41.39-.62.16-.26.32-.52.47-.79q.24-.405.45-.81c.14-.25.28-.51.42-.77.15-.29.29-.57.43-.85v-.01c.15-.3.29-.59.43-.88.12-.25.23-.49.34-.73.29-.63.56-1.25.81-1.85.06-.14.11-.27.17-.41.12-.29.23-.57.35-.84.16-.43.32-.84.48-1.24.14-.39.28-.76.4-1.1.1-.27.19-.52.27-.76.06-.19.13-.37.19-.55.15-.45.27-.82.36-1.1.02-.07.04-.14.06-.2.05-.15.08-.26.1-.32a.1069.1069,0,0,0,.01-.05.01.01,0,0,0,.01-.01c.13-.34.27-.69.39-1.03.3-.76.59-1.53.88-2.3.11-.29.24-.57.37-.85.01.01.01.02.03.03.21.28.49.63.86,1.05.35.41.79.88,1.33,1.42.11.11.23.22.35.34v.01c.05.04.1.1.16.15.05.05.1.1.16.15a5.9649,5.9649,0,0,0,.49.41c.17.13.33.24.49.34a4.4,4.4,0,0,0,.51.29c.15.07.31.14.46.2a6.5071,6.5071,0,0,1-1.9-1.24c-.11-.1-.22-.21-.32-.3a7.112,7.112,0,0,1,.55-1.27c0-.01.01-.01.01-.02.09-.17.19-.35.31-.54.15.26.31.51.47.75a10.5087,10.5087,0,0,0,1.79,2.03,8.7677,8.7677,0,0,0,1.39,1.03,3.3189,3.3189,0,0,0,.46-.02q.1949-.015.33-.03h.03a.4419.4419,0,0,1,.1-.02.06.06,0,0,1,.04-.01h.02a.5706.5706,0,0,1,.1-.02c.01-.01.01-.01.02-.01h.03a.031.031,0,0,1,.02-.01s.1-.02.28-.06a.5667.5667,0,0,0,.12-.04.93.93,0,0,0,.13-.04c.06-.02.13-.04.2-.07.14-.05.29-.12.46-.19.09-.04.17-.08.26-.13.01,0,.01,0,.01-.01.08-.04.15-.08.23-.13a6.7133,6.7133,0,0,0,1.72-1.47,26.389,26.389,0,0,0-2.06-7.59A35.9335,35.9335,0,0,1,113.0756,118.89Z" style="fill:#efe8e8"/><path d="M76.5256,143.64a5.7219,5.7219,0,0,0-1.08-.59,2.2769,2.2769,0,0,0-.67-.17,2.03,2.03,0,0,0-1.82.79l-.01.01c-.07.16-.13.33-.2.51-.13.31-.26.63-.39.97a.18.18,0,0,1-.02.07c-.08.21-.15.43-.24.67-.07.22-.14.46-.23.69-.04.12-.08.23-.13.35-.04.12-.09.25-.14.37a13.4132,13.4132,0,0,1-3.64.57c.35-.42.69-.86,1.01-1.31.25-.37.49-.75.7-1.14a9.8609,9.8609,0,0,0,.45-.93C71.2356,141.82,75.1555,141.9,76.5256,143.64Z" style="fill:#c4b1b1"/><path d="M109.3155,110.22h-.01c-.21-.29-.41-.58-.62-.87-.32-.43-.64-.87-.97-1.3l-.31-.41c-.15-.2-.3-.39-.46-.59-.26-.33-.53-.66-.8-.98v-.01c-.12-.14-.23-.27-.35-.4-.18-.21-.37-.42-.56-.62-.27-.3-.55-.6-.84-.89l-.13-.13a27.3494,27.3494,0,0,0-2.52-2.22,32.8,32.8,0,0,1-2.46,8.87c.15.07.32.14.5.23q.225.105.48.24c.26.13.54.28.84.46.1.06.2.12.31.19a3.2313,3.2313,0,0,1,.28.18c.15.08.3.18.45.28s.3.21.46.33a17.0252,17.0252,0,0,1,1.79,1.48c.22.18.43.39.64.6q.3.3.6.63c.22.23.43.48.64.74a16.2767,16.2767,0,0,1,1.03,1.34q.345.495.69,1.05c.07.11.14.22.21.34a22.91,22.91,0,0,1,1.16,2.27,35.9292,35.9292,0,0,1,3.71-2.14,24.438,24.438,0,0,0-1.12-3.56c-.33-.83-.66-1.57-.96-2.16-.34-.71-.62-1.22-.77-1.48l-.11-.19-.35-.56c-.01-.04-.02-.07-.03-.1Z" style="fill:#c4b1b1"/><path d="M104.5654,130.44c-.15-.06-.31-.13-.46-.2a4.4,4.4,0,0,1-.51-.29c-.16-.1-.32-.21-.49-.34a5.9649,5.9649,0,0,1-.49-.41c-.06-.05-.11-.1-.16-.15-.06-.05-.11-.11-.16-.15v-.01c-.12-.12-.24-.23-.35-.34-.54-.54-.98-1.01-1.33-1.42-.37-.42-.65-.77-.86-1.05-.02-.01-.02-.02-.03-.03-.13.28-.26.56-.37.85-.29.77-.58,1.54-.88,2.3-.12.34-.26.69-.39,1.03a.01.01,0,0,1-.01.01.1069.1069,0,0,1-.01.05c-.02.06-.05.17-.1.32-.02.06-.04.13-.06.2-.09.28-.21.65-.36,1.1-.06.18-.13.36-.19.55-.08.24-.17.49-.27.76-.12.34-.26.71-.4,1.1-.16.4-.32.81-.48,1.24-.12.27-.23.55-.35.84-.06.14-.11.27-.17.41-.25.6-.52,1.22-.81,1.85-.11.24-.22.48-.34.73-.14.29-.28.58-.43.88v.01c-.14.28-.28.56-.43.85-.14.26-.28.52-.42.77q-.21.405-.45.81c-.15.27-.31.53-.47.79-.12.21-.25.42-.39.62-.13.21-.26.41-.4.61-.13.2-.27.4-.41.59a5.98,5.98,0,0,1-.42.57,3.0118,3.0118,0,0,1-.22.28,15.3782,15.3782,0,0,1-1.54,1.73l-.01.01a26.63,26.63,0,0,1-5.61.28,37.3747,37.3747,0,0,0,3.59-4.06c.12-.16.24-.32.37-.49a47.2344,47.2344,0,0,0,4.14-6.69,58.2844,58.2844,0,0,0,2.5-5.54c.21-.53.41-1.07.61-1.63a77.3729,77.3729,0,0,0,3.19-10.34,35.6794,35.6794,0,0,0,3.76,6.49c.25.34.52.68.79,1.01.19.22.38.44.57.65,0,.01,0,.01.01.01.01.02.01.02.03.03a7.112,7.112,0,0,0-.55,1.27c.1.09.21.2.32.3A6.5071,6.5071,0,0,0,104.5654,130.44Z" style="fill:#c4b1b1"/><path d="M55.4756,138.48c-.15-.27-.3-.55-.45-.83a.5359.5359,0,0,1-.05-.11c-.07-.12-.14-.25-.2-.38-.01-.01-.01-.03-.02-.04-.04-.08-.08-.15-.12-.23-.09-.17-.17-.34-.25-.51-.25-.5-.48-1.01-.7-1.53-.1-.24-.21-.48-.3-.72a.01.01,0,0,1-.01-.01c-.03-.08-.07-.15-.1-.24-.01-.03-.02-.05-.03-.08-.12-.29-.23-.59-.34-.88-.08-.21-.15-.42-.23-.63-.06-.16-.11-.32-.17-.49-.05-.15-.1-.29-.15-.44-.13-.39-.24-.78-.36-1.18-.03-.11-.06-.21-.09-.32-.04-.13-.08-.27-.12-.4-.07-.24-.13-.48-.19-.73-.03-.1-.06-.21-.08-.31-.04-.16-.07-.3-.1-.45-.14-.59-.27-1.19-.38-1.8a1.9978,1.9978,0,0,0-.09-.3,14.643,14.643,0,0,0-1.18.95.1745.1745,0,0,1-.05.04c-.32.29-.63.56-.8.71-.18.22-.4.49-.67.77-.14.15-.29.3-.46.45l-.01.01c0-.01,0-.01-.01-.02a11.357,11.357,0,0,0-2.1-3.67h.01v-.01a14.3936,14.3936,0,0,0,1.12-1.1.8585.8585,0,0,0,.13-.14,24.4654,24.4654,0,0,0,3.41-4.95s.04.19.1.53c.29,1.46,1.14,5.72,2.18,9.97v.01c.07.26.13.52.2.77.06.24.12.47.18.71.15.59.31,1.18.47,1.76.14.52.29,1.04.44,1.53a1.8483,1.8483,0,0,0,.07.22c.21.72.43,1.39.65,2,.09.26.18.51.27.74.07.2.15.38.22.56h.01A7.974,7.974,0,0,0,55.4756,138.48Z" style="fill:#c4b1b1"/><path d="M61.1255,146.99c.16.21.32.4.48.6a6.9853,6.9853,0,0,0,.88.91,5.7515,5.7515,0,0,0,2.91,1.5h.53c.16-.15.32-.3.49-.47a19.0416,19.0416,0,0,0,1.54-1.65A23.6775,23.6775,0,0,1,61.1255,146.99Zm4.25,2.84h-.01c-.04,0-.04,0,.02.01a.3438.3438,0,0,0,.14.03h.03C65.4956,149.86,65.4355,149.84,65.3755,149.83Z" style="fill:#dd999f"/><path d="M65.379,149.83c.06.01.12.03.18.04h-.03a.3405.3405,0,0,1-.14-.03c-.06-.01-.06-.01-.02-.01Z" style="fill:#353130"/><path d="M71.5989,147.31a3.8757,3.8757,0,0,1-2.79,2.69h-2.88c.16-.15.32-.3.49-.47a18.9957,18.9957,0,0,0,1.54-1.65A13.4112,13.4112,0,0,0,71.5989,147.31Z" style="fill:#ce8091"/><path d="M88.9488,147.91a8.3121,8.3121,0,0,1-3.24,2.09h-3.3a6.7024,6.7024,0,0,1-.83-.25c.48-.39,1.08-.9,1.76-1.56A26.6286,26.6286,0,0,0,88.9488,147.91Z" style="fill:#ce8091"/><path d="M83.3389,148.19c-.68.66-1.28,1.17-1.76,1.56a6.4,6.4,0,0,1-.84-.34c-.17-.08-.33-.17-.49-.26a3.0105,3.0105,0,0,1-.42-.27,5.2684,5.2684,0,0,1-1.44-1.47A21.7164,21.7164,0,0,0,83.3389,148.19Z" style="fill:#dd999f"/><path d="M91.14,129.26a10.3793,10.3793,0,0,1-10.35,10.36H69.09a10.3686,10.3686,0,0,1-9.88-7.3,9.9933,9.9933,0,0,1-.47-3.06,10.2783,10.2783,0,0,1,2.35-6.54c.06-.07.11-.14.18-.21a29.2162,29.2162,0,0,0,13.5,3.52,25.9425,25.9425,0,0,0,14.15-3.16c.12.16.24.32.35.48a10.1679,10.1679,0,0,1,1.87,5.91Z" style="fill:#dd999f"/><path d="M91.1412,129.26a10.3793,10.3793,0,0,1-10.35,10.36h-11.7a10.3686,10.3686,0,0,1-9.88-7.3,20.6162,20.6162,0,0,0,13.84,5.12c9.31-.13,14.09-1.25,17.85-10.41A10.2946,10.2946,0,0,1,91.1412,129.26Z" style="fill:#ce8091"/><path d="M47.7812,128.8a7.2741,7.2741,0,0,1-3.21,1.8c-.11.02-.22.05-.33.07s-.22.04-.33.05l-.3.03a5.9513,5.9513,0,0,1-1.11-.04,5.7292,5.7292,0,0,1-1.21-.29,8.4646,8.4646,0,0,1-1.28-.59,6.5391,6.5391,0,0,1-2.39-2.3c1.95.44,4.89.37,8.05-2.42a11.3512,11.3512,0,0,1,2.1,3.67C47.7812,128.79,47.7812,128.79,47.7812,128.8Z" style="fill:#ce8091"/><path d="M40.0112,129.83a8.4646,8.4646,0,0,0,1.28.59,6.317,6.317,0,0,1-1.32-.59,6.5391,6.5391,0,0,1-2.39-2.3c-1.98-3.28-.8-7.79-.48-8.81a27.8714,27.8714,0,0,1,8.57,6.39c-3.16,2.79-6.1,2.86-8.05,2.42A6.5391,6.5391,0,0,0,40.0112,129.83Z" style="fill:#dd999f"/><path d="M113.36,124.38a9.1436,9.1436,0,0,1-1.92,4.26l-.01.01a6.534,6.534,0,0,1-1.72,1.44c-.08.05-.15.09-.23.13,0,.01,0,.01-.01.01-.09.05-.17.09-.26.13-.17.07-.32.14-.46.19-.07.03-.14.05-.2.07a.9288.9288,0,0,1-.13.04.5638.5638,0,0,1-.12.04c-.18.04-.28.06-.28.06a.031.031,0,0,0-.02.01h-.03c-.01,0-.01,0-.02.01a.5755.5755,0,0,0-.1.02h-.02a.06.06,0,0,0-.04.01.44.44,0,0,0-.1.02h-.03q-.135.015-.33.03a3.3167,3.3167,0,0,1-.46.02h-.03c-.1,0-.2,0-.31-.01-.12-.01-.23-.01-.35-.03a1.1342,1.1342,0,0,1-.25-.03,3.7283,3.7283,0,0,1-.44-.08c-.11-.02-.22-.05-.34-.08-.2-.06-.41-.13-.61-.21h-.01a3.9973,3.9973,0,0,1-.42-.2,4.4028,4.4028,0,0,1-.51-.29c-.16-.1-.32-.21-.49-.34a5.9152,5.9152,0,0,1-.49-.41c-.06-.05-.11-.1-.16-.15-.06-.05-.11-.11-.16-.15v-.01c.02-.07.05-.15.08-.24l.12-.29c.09-.22.21-.48.36-.77.1-.16.2-.34.31-.52a10.5775,10.5775,0,0,1,.76-1.11,19.9489,19.9489,0,0,1,3.58-3.59c.56-.44,1.18-.89,1.86-1.34a35.9292,35.9292,0,0,1,3.71-2.14c.01-.01.02-.01.03-.02A13.6832,13.6832,0,0,1,113.36,124.38Z" style="fill:#dd999f"/><path d="M113.36,124.38a9.1436,9.1436,0,0,1-1.92,4.26l-.01.01a6.534,6.534,0,0,1-1.72,1.44c-.08.05-.15.09-.23.13,0,.01,0,.01-.01.01-.09.05-.17.09-.26.13-.17.07-.32.14-.46.19-.07.03-.14.05-.2.07a.9288.9288,0,0,1-.13.04.5638.5638,0,0,1-.12.04c-.18.04-.28.06-.28.06a.031.031,0,0,0-.02.01h-.03c-.01,0-.01,0-.02.01a.5755.5755,0,0,0-.1.02h-.02a.06.06,0,0,0-.04.01.44.44,0,0,0-.1.02h-.03q-.135.015-.33.03a3.3167,3.3167,0,0,1-.46.02h-.03c-.1,0-.2,0-.31-.01-.12-.01-.23-.01-.35-.03a1.1342,1.1342,0,0,1-.25-.03,3.7283,3.7283,0,0,1-.44-.08c-.11-.02-.22-.05-.34-.08-.2-.06-.41-.13-.61-.21h-.01a3.9973,3.9973,0,0,1-.42-.2,4.4028,4.4028,0,0,1-.51-.29c-.16-.1-.32-.21-.49-.34a5.9152,5.9152,0,0,1-.49-.41c-.06-.05-.11-.1-.16-.15-.06-.05-.11-.11-.16-.15v-.01c.02-.07.05-.15.08-.24l.12-.29.36-.77s6.59,2.65,6.51-6.56a35.9292,35.9292,0,0,1,3.71-2.14c.01-.01.02-.01.03-.02A13.6832,13.6832,0,0,1,113.36,124.38Z" style="fill:#ce8091"/><path d="M68.5107,68.2369s-2.98-8.1536,5.3137-8.94c0,0,4.242.1859,5.6192-.5706l-.7148,2.3169a7.0214,7.0214,0,0,1,2.7591,3.3357s-1.6923-.3578-2.0443.0749,1.8517.22,1.9387,3.6767-1.9387,2.5921-1.9387,2.5921Z" style="fill:#cc5a80;fill-rule:evenodd"/><path d="M86.5626,71.933l1.4508,1.166c.3434-.1217.6853-.2516,1.0209-.3926C88.2184,72.4541,87.3,72.1666,86.5626,71.933ZM92.087,59.2966a19.268,19.268,0,0,1-4.6412,8.3313,14.5475,14.5475,0,0,1,1.5682-.1987A16.897,16.897,0,0,0,92.4568,60.8q4.7472.98,3.56,5.9359a9.9434,9.9434,0,0,1-1.2935,1.1667c1.1246-.2372,1.9844-1.3652,2.6427-2.8634Q97.3993,60.3987,92.087,59.2966Z" style="fill:#efe8e8;fill-rule:evenodd"/><path d="M92.4568,60.8a16.897,16.897,0,0,1-3.4428,6.6292c.1189-.01.2424-.0158.3627-.0173.1388-.1712.2744-.3377.4036-.5154a.47.47,0,0,0,.0721-.1048.0108.0108,0,0,0,.01-.0143c.0081-.0015.0081-.0015.0066-.01l.0032-.0047c.2422-.3317.4716-.6654.6914-1.0054.0837-.132.1627-.2672.2463-.399.1528-.2529.296-.5122.4346-.775.0825-.1607.1617-.3168.24-.4809.0825-.1608.1569-.32.2266-.4827.1225-.26.2306-.5291.3307-.7972.0715-.1754.1383-.3541.1969-.5312.0667-.1787.1287-.3607.1827-.5412.0771-.2346.1415-.4711.2058-.7076a5.0842,5.0842,0,0,1,1.8967,1.0586q1.557,1.4709.6717,4.3708a7.5,7.5,0,0,1-.5812.59c-.0455.0459-.0878.087-.1381.1295-.0748.068-.15.1358-.2257.1957a1.2039,1.2039,0,0,1-.1558.1244,1.7215,1.7215,0,0,1-.19.1432c-.099.0725-.1946.14-.2982.2091a2.2736,2.2736,0,0,0,1.1141.0433l.0033-.0048a9.9434,9.9434,0,0,0,1.2935-1.1667Q97.2022,61.7825,92.4568,60.8Z" style="fill:#ce8091;fill-rule:evenodd"/><path d="M94.72,67.9074A7.3036,7.3036,0,0,1,88.1461,69.12l-.5706-.14a17.9271,17.9271,0,0,0,1.4385-1.5511c.1189-.01.2424-.0158.3627-.0173-.0393.0572-.08.1063-.1242.16-.0732.0759-.1369.1583-.2054.2375-.1126.1331-.2252.2663-.3474.3928-.0651.0745-.13.149-.2.22-.1695.1852-.3484.3638-.5275.5426l.5828.071c.165.0151.33.03.4968.0327.16.0119.3269.0144.4842.01.162-.0008.3192-.0049.475-.0172.16-.0089.3116-.0244.4658-.0446A4.2527,4.2527,0,0,0,90.93,68.95a6.82,6.82,0,0,0,1.253-.3526,1.2318,1.2318,0,0,0,.1629-.0634c.0081-.0015.0161-.0028.0194-.0077.1629-.0634.3276-.14.4875-.2191.0113-.0062.0307-.014.0533-.0265.068-.0376.1439-.0765.2118-.1141a1.9543,1.9543,0,0,0,.2135-.1268c.0938-.0548.1829-.1129.2752-.1757A2.2736,2.2736,0,0,0,94.72,67.9074Z" style="fill:#af6d8e;fill-rule:evenodd"/><path d="M94.5232,62.1015q1.557,1.4709.6717,4.3708a7.5,7.5,0,0,1-.5812.59c-.0455.0459-.0878.087-.1381.1295-.0748.068-.15.1358-.2257.1957a1.2039,1.2039,0,0,1-.1558.1244,1.7215,1.7215,0,0,1-.19.1432c-.099.0725-.1946.14-.2982.2091a13.4357,13.4357,0,0,0-4.23-.4522c.1388-.1712.2744-.3377.4036-.5154a.47.47,0,0,0,.0721-.1048.0108.0108,0,0,0,.01-.0143c.0081-.0015.0081-.0015.0066-.01l.0032-.0047c.2517-.3252.4764-.6621.6914-1.0054.0885-.1287.1674-.2639.2463-.399.1528-.2529.296-.5122.4346-.775a5.3532,5.3532,0,0,0,.24-.4809c.0825-.1608.1569-.32.2266-.4827.1225-.26.2306-.5291.3307-.7972.0763-.1721.135-.3493.1969-.5312.0667-.1787.1287-.3607.1827-.5412.0771-.2346.1415-.4711.2058-.7076A5.0842,5.0842,0,0,1,94.5232,62.1015Z" style="fill:#dd999f;fill-rule:evenodd"/><path d="M97.3663,65.0392a10.622,10.622,0,0,1-.3215,2.5086,26.6454,26.6454,0,0,1-8.01,5.1586c-.8159-.2523-1.7341-.54-2.4717-.7734l-2.0375-1.64a23.6825,23.6825,0,0,0,2.9207-2.6655,14.5475,14.5475,0,0,1,1.5682-.1987A17.9271,17.9271,0,0,1,87.5755,68.98l.5706.14A7.3036,7.3036,0,0,0,94.72,67.9074l.0033-.0048C95.8482,67.6654,96.708,66.5374,97.3663,65.0392Z" style="fill:#c4b1b1;fill-rule:evenodd"/><path d="M93.6062,67.8641c-.0923.0628-.1814.1209-.2752.1757a1.9543,1.9543,0,0,1-.2135.1268c-.0679.0376-.1438.0765-.2118.1141-.0226.0125-.042.02-.0533.0265-.16.0794-.3246.1557-.4875.2191-.0033.0049-.0113.0062-.0194.0077a1.2318,1.2318,0,0,1-.1629.0634,6.82,6.82,0,0,1-1.253.3526c-.1527.0283-.3022.0518-.4532.0672-.1542.02-.3053.0357-.4658.0446-.1558.0123-.313.0164-.475.0172s-.3207-.0029-.4842-.01-.3318-.0176-.4968-.0327l-.5828-.071c.1791-.1788.358-.3574.5275-.5426.07-.0711.1353-.1456.2-.22.1222-.1265.2348-.26.3474-.3928.0685-.0792.1322-.1616.2054-.2375.0441-.054.0849-.1031.1242-.16A13.4357,13.4357,0,0,1,93.6062,67.8641Z" style="fill:#ce8091;fill-rule:evenodd"/><path d="M53.6325,66.96a2.0515,2.0515,0,0,1,.5974-.273.8829.8829,0,0,1,.8607.1949.8268.8268,0,0,1,.1234.856,2.2208,2.2208,0,0,1-.2046.4773.9908.9908,0,0,0-.1043-.09,1.191,1.191,0,0,0,.1321-.3158.7.7,0,0,0-.1135-.7267A.6613.6613,0,0,0,54.21,67.02a1.685,1.685,0,0,0-.346.1564Q53.7445,67.062,53.6325,66.96Z" style="fill:#c4b1b1;fill-rule:evenodd"/><path d="M65.1433,69.672c-.57-.5014-1.11-1.02-1.6089-1.5506a19.6521,19.6521,0,0,1-5.2459-9.9q-6.6858.9392-5.4671,7.923c.2674.2779.54.5528.8113.8149a2.0109,2.0109,0,0,1,.5992-.2711.876.876,0,0,1,.8576.1942.818.818,0,0,1,.1221.8569,2.2085,2.2085,0,0,1-.2.4769c.2883.2452.5815.4874.8818.7188a24.9958,24.9958,0,0,0,5.5917,3.3178ZM53.8981,65.3983q-.8756-5.0256,3.9268-5.7a17.2988,17.2988,0,0,0,4.3538,8.4664l-.5752.1086A7.5225,7.5225,0,0,1,53.8981,65.3983Z" style="fill:#efe8e8;fill-rule:evenodd"/><path d="M57.8249,59.6982q-4.7994.68-3.9268,5.7a7.5225,7.5225,0,0,0,7.7054,2.8749l.5752-.1086A17.2988,17.2988,0,0,1,57.8249,59.6982Zm3.3761,8.4655a7.4864,7.4864,0,0,1-6.4658-2.9768q-.702-2.9458.9455-4.32A5.0822,5.0822,0,0,1,57.64,59.93,17.2476,17.2476,0,0,0,61.7871,68.13Z" style="fill:#ce8091;fill-rule:evenodd"/><path d="M57.64,59.9284A17.2,17.2,0,0,0,61.7889,68.13l-.59.0319a7.4713,7.4713,0,0,1-6.4651-2.9772q-.6985-2.9462.9472-4.32A5.0985,5.0985,0,0,1,57.64,59.9284Z" style="fill:#dd999f;fill-rule:evenodd"/><path d="M61.4854,72.2525a24.9958,24.9958,0,0,1-5.5917-3.3178,16.4163,16.4163,0,0,0,7.6407-.8133c.4993.53,1.0392,1.0492,1.6089,1.5506Z" style="fill:#c4b1b1"/><path d="M104.8683,100.19c0-.31-.01-.62-.02-.93,0-.07-.01-.13-.01-.2-.01-.26-.03-.52-.05-.78s-.04-.52-.07-.79c-.01-.06-.01-.13-.02-.19-.03-.3-.06-.59-.09-.88v-.01c-.05-.42-.1-.82-.16-1.23-.08-.58-.17-1.15-.28-1.72-.19-1.02-.41-2.02-.68-2.98-.07-.31-.16-.61-.25-.91-.21-.72-.44-1.42-.7-2.1-.11-.31-.22-.61-.35-.9-.27-.68-.56-1.33-.89-1.97-.33-.71-.71-1.39-1.1-2.05a16.2607,16.2607,0,0,0-.86-1.53c-.16-.27-.35-.57-.58-.89-.18-.28-.39-.57-.61-.88-.5-.67-1.1-1.42-1.8-2.2l-.05-.05v-.01c-.08-.09-.16-.18-.25-.27-.34-.38-.72-.77-1.13-1.16-.27-.25-.55-.51-.84-.77-.28-.25-.56-.49-.86-.74-.36-.31-.74-.61-1.14-.91-.27-.2-.56-.41-.86-.62-.12-.08-.24-.17-.37-.25-.3-.2-.6-.4-.92-.59-.44-.28-.9-.54-1.38-.8-.36-.2-.74-.4-1.13-.59-.2-.09-.4-.19-.6-.28a4.2258,4.2258,0,0,0-.49-.21v-.01c-.31-.14-.64-.27-.97-.4-.25-.1-.5-.2-.76-.29-.44-.16-.9-.32-1.36-.46a.2337.2337,0,0,0-.08-.02c-.45-.14-.9-.27-1.36-.39a32.6057,32.6057,0,0,0-5.32-.89c-.56-.06-1.13-.09-1.71-.11a25.7728,25.7728,0,0,0-10.95,1.96c-.23.1-.46.2-.69.31a.3761.3761,0,0,0-.13.06h-.01c-.01,0-.01.01-.02.02a23.1781,23.1781,0,0,0-2.48,1.28c-.77.44-1.5.92-2.2,1.41a30.2558,30.2558,0,0,0-2.38,1.87c-.22.17-.43.36-.64.55-.08.06-.54.45-1.21,1.1-.36.35-.79.78-1.25,1.29q-.36.39-.75.84c-.23.27-.47.55-.71.85-.25.3-.49.62-.73.95a52.5825,52.5825,0,0,0-.08.1c-.21.28-.42.57-.62.87-.12.18-.26.36-.38.53v.03c-.4.62-.79,1.28-1.16,1.97-.33.63-.65,1.29-.93,1.97-.13.33-.26.66-.38,1q-.24.66-.42,1.35c-.02.08-.03.15-.05.22-.05.16-.11.33-.15.5-.14.43-.26.87-.36,1.31a25.8364,25.8364,0,0,0-.57,2.86c-.12.78-.21,1.57-.28,2.38l-.03.52c-.05.62-.07,1.26-.08,1.91-.01.51-.01,1.01.01,1.51v.01c.01.84.06,1.65.14,2.46a28.1621,28.1621,0,0,0,.49,3.37v.01c.06.3.12.59.2.89v.01a25.0774,25.0774,0,0,0,.86,2.91l.1.27a1.31,1.31,0,0,0,.1.25v.01a20.017,20.017,0,0,0,.97,2.23,22.3773,22.3773,0,0,0,1.74,2.99c.34.52.7,1.02,1.09,1.52.43.55.88,1.08,1.36,1.6.42.46.86.9,1.33,1.34.08.08.16.16.25.24.24.22.49.44.74.66a29.9557,29.9557,0,0,0,3.95,2.94,31.4612,31.4612,0,0,0,16.96,4.57,35.9607,35.9607,0,0,0,6.75-.63c.52-.1,1.03-.21,1.54-.33.67-.17,1.33-.35,1.98-.56v-.01c.25-.07.49-.15.73-.23a.0761.0761,0,0,0,.04-.02h.01c.15-.05.3-.11.45-.17.14-.04.29-.1.43-.15a29.8238,29.8238,0,0,0,8.63-5.07c.38-.32.76-.65,1.13-.99.19-.18.38-.35.56-.53.15-.15.3-.29.44-.44.27-.27.53-.54.77-.81a.9972.9972,0,0,0,.1-.11c.27-.3.52-.6.77-.91.2-.24.39-.49.57-.74l.09-.12c.09-.12.18-.25.27-.38.15-.21.3-.43.43-.64h.01c.01-.02.02-.03.03-.05.05-.08.1-.15.14-.23.1-.16.2-.32.29-.48.08-.12.15-.25.22-.37a.7467.7467,0,0,0,.07-.12c.18-.33.35-.65.51-.98a.2506.2506,0,0,0,.04-.07c.15-.3.3-.62.44-.94.01-.02.01-.03.02-.05v-.01a5.2917,5.2917,0,0,0,.21-.5c.09-.21.18-.43.25-.65a3.0056,3.0056,0,0,0,.11-.32,4.9991,4.9991,0,0,0,.22-.65q.06-.18.12-.36a.88.88,0,0,0,.05-.15c.11-.37.21-.74.3-1.12.12-.5.22-1.01.31-1.53.03-.15.06-.3.08-.45a.34.34,0,0,0,.01-.1c.06-.32.1-.64.14-.96l.07-.74.03-.36c.03-.35.06-.7.07-1.06a1.47,1.47,0,0,0,0-.21v-.01c.02-.36.03-.72.03-1.09C104.8783,100.49,104.8783,100.34,104.8683,100.19Zm-21.75-26.51a9.7559,9.7559,0,0,1,9.71,4.03c.01.02.03.04.03.06a6.7845,6.7845,0,0,1,.64,1.15,8.7629,8.7629,0,0,1,.56,1.61,1.01,1.01,0,0,1,.03.17,6.9881,6.9881,0,0,1,.15.9,8.9875,8.9875,0,0,1,.05.9,7.872,7.872,0,0,1-.31,2.32,8.4442,8.4442,0,0,1-.76,1.93c-.21-.37-.44-.75-.67-1.12-.38-.63-.79-1.25-1.21-1.89-.01-.01-.02-.03-.03-.04-.16-.25-.33-.49-.52-.74-.11-.17-.23-.34-.35-.51-.16-.24-.34-.48-.51-.72-.75-1.03-1.56-2.08-2.44-3.14-.23-.28-.46-.56-.7-.84-.02-.02-.03-.04-.05-.06-.95-1.11-1.96-2.23-3.04-3.38-.08-.08-.15-.16-.21-.23-.12-.13-.24-.26-.37-.39Zm13.15,41.53c-.26.39-.54.78-.83,1.16-.13.16-.25.32-.38.47a19.4324,19.4324,0,0,1-1.35,1.53c-.3.32-.62.63-.94.94a.6532.6532,0,0,1-.09.08c-.34.32-.68.62-1.03.91a23.635,23.635,0,0,1-2.95,2.13c-.5.32-1.01.61-1.53.88l-.42.21-.62.29a22.6827,22.6827,0,0,1-2.56,1.01l-.08.02-.61.14-2.84.66-2.24.27c-.12.01-.24.02-.37.03h-.01c-.56.04-1.13.06-1.72.07h-.27c-.64,0-1.28-.02-1.9-.07-.14-.01-.29-.02-.43-.04a24.4741,24.4741,0,0,1-2.45-.29c-.86-.14-1.7-.32-2.53-.54-.48-.13-.96-.28-1.44-.43q-.72-.255-1.44-.54c-.46-.19-.92-.4-1.37-.63a24.4,24.4,0,0,1-3.18-1.86,23.98,23.98,0,0,1-2.85-2.24c-.11-.09-.22-.19-.33-.29-.08-.07-.16-.15-.24-.23q-.7653-.72-1.44-1.47a25.246,25.246,0,0,1-1.65-1.99q-.33-.48-.66-.96a19.95,19.95,0,0,1-1.31-2.28q-.36-.705-.66-1.44v-.01a20.8894,20.8894,0,0,1-1.22-4.15c-.05-.23-.09-.47-.12-.71a23.3918,23.3918,0,0,1-.27-3.59v-.33c0-.11.01-.21.01-.31.01-.37.04-.72.06-1.07a4.898,4.898,0,0,1,.04-.68,8.4011,8.4011,0,0,1,.81-2.57,9.9958,9.9958,0,0,1,1.58-2.3,12.77,12.77,0,0,1,1.72-1.57,16.5248,16.5248,0,0,1,2.99-1.8c.04-.02.09-.04.13-.06.24-.11.49-.22.75-.34.26-.1.53-.21.81-.31a.0313.0313,0,0,1,.02-.01c.42-.16.87-.31,1.34-.46a40.0046,40.0046,0,0,1,9.27-1.66c.51-.04,1.04-.07,1.58-.09,1.12-.06,2.31-.08,3.55-.08h.21c.11,0,.22,0,.32.01a2.8052,2.8052,0,0,1,.29,0q1.5.015,2.88.09c.23.01.45.02.67.03h.01q.78.06,1.5.12c1.19.11,2.31.24,3.36.4.27.04.54.09.8.13.84.15,1.62.3,2.37.48.4.1.79.19,1.17.29.15.05.29.09.44.13q1.2451.375,2.31.78c.17.07.34.13.5.2,0,0,.04.02.12.05.11.05.22.1.33.14a.999.999,0,0,1,.15.07c.12.05.24.11.36.16q.1951.105.42.21c.04.02.09.04.13.06v.01a.9558.9558,0,0,0,.1.05c.22.12.46.25.71.4a15.896,15.896,0,0,1,2.25,1.54q.1047.09.21.18l.21.18.05.05c.11.1.22.2.31.3a7.0248,7.0248,0,0,1,.54.57c.08.08.14.16.21.23.19.23.37.47.53.69a1.7045,1.7045,0,0,1,.15.22c.04.07.08.13.11.19a4.5673,4.5673,0,0,1,.25.42,7.9843,7.9843,0,0,1,.59,1.23c0,.01.01.02.01.03.06.21.11.42.16.64.07.3.14.6.19.91q.03.195.06.39c.02.11.04.23.05.35s.03.23.04.35a1.7852,1.7852,0,0,1,.02.23,2.5487,2.5487,0,0,1,.03.39,5.1384,5.1384,0,0,1,.04.56c.03.34.04.7.04,1.06v.15c0,.24,0,.47-.01.71-.01.46-.04.91-.08,1.36a5.61,5.61,0,0,1-.06.59c-.03.28-.06.54-.11.82v.01a18.0118,18.0118,0,0,1-.34,1.78l-.07.3c-.09.33-.18.65-.28.97a16.6587,16.6587,0,0,1-.65,1.79,18.8445,18.8445,0,0,1-1.05,2.17c-.16.29-.33.57-.51.86C96.5184,114.83,96.3983,115.02,96.2684,115.21Z" style="fill:#efe8e8"/><path d="M104.8783,100.63c0,.44-.01.88-.03,1.31-.01.36-.04.71-.07,1.06-.02.35-.06.7-.1,1.05v.02c-.04.33-.08.66-.14.99a.34.34,0,0,1-.01.1,25.389,25.389,0,0,1-.69,3.1c-.05.17-.11.34-.17.51a4.9991,4.9991,0,0,1-.22.65,3.0056,3.0056,0,0,1-.11.32c-.07.22-.16.44-.25.65a5.2917,5.2917,0,0,1-.21.5v.01c-.14.34-.3.67-.46.99-.17.36-.36.71-.55,1.05a.7467.7467,0,0,1-.07.12c-.16.28-.33.57-.51.85-.04.08-.09.15-.14.23-.15.23-.31.46-.47.69-.09.13-.18.26-.27.38-.21.29-.43.58-.66.86-.25.31-.5.61-.77.91a.9972.9972,0,0,1-.1.11c-.24.27-.5.54-.77.81-.32.33-.65.65-1,.97a29.9746,29.9746,0,0,1-9.76,6.06,33.6244,33.6244,0,0,0,5.33-5.54.6532.6532,0,0,0,.09-.08,24.2671,24.2671,0,0,0,3.5-4.1,20.8441,20.8441,0,0,0,3.53-11.93,22.65,22.65,0,0,0-.13-2.39c-.01-.12-.03-.23-.04-.35a14.1533,14.1533,0,0,0-.3-1.65c-.05-.22-.1-.43-.16-.64,0-.01-.01-.02-.01-.03a7.9843,7.9843,0,0,0-.59-1.23,4.5673,4.5673,0,0,0-.25-.42c-.03-.06-.07-.12-.11-.19a1.7045,1.7045,0,0,0-.15-.22c-.16-.22-.34-.46-.53-.69-.07-.07-.13-.15-.21-.23a7.0248,7.0248,0,0,0-.54-.57c0-.01-.01-.03-.01-.04a40.7242,40.7242,0,0,0-3.24-7.32,80.2739,80.2739,0,0,0-9.83-13c-.08-.08-.15-.16-.21-.23-.12-.13-.24-.26-.37-.39v-.01c-.06-.06-.11-.11-.16-.16-1.93-2.01-4.08-4.07-6.48-6.18a32.6057,32.6057,0,0,1,5.32.89c.46.12.91.25,1.36.39a.2337.2337,0,0,1,.08.02c.46.14.92.3,1.36.46.26.09.51.19.76.29.33.13.66.26.97.4h.01c.16.07.32.15.48.22.2.09.4.19.6.28.39.19.77.39,1.13.59.48.26.94.52,1.38.8.32.19.62.39.92.59.13.08.25.17.37.25.3.21.59.42.86.62.4.3.78.6,1.14.91.3.25.58.49.86.74a27.1956,27.1956,0,0,1,2.22,2.2V77a24.5738,24.5738,0,0,1,3.9,5.55,33.4338,33.4338,0,0,1,4.25,12.63c.06.41.11.81.16,1.23.03.29.06.59.09.89.01.06.01.13.02.19.03.27.05.53.07.79s.04.52.05.78c0,.07.01.13.01.2C104.8683,99.72,104.8783,100.18,104.8783,100.63Z" style="fill:#c4b1b1"/><path d="M65.3611,68.7785a1.57,1.57,0,0,1-.2554-.7676,6.0544,6.0544,0,0,1-.0532-1.26q.0381-.6628.4765-.2495A4.8907,4.8907,0,0,1,66.8,68.926q.0917.5961-.1538.7246t-.6836-.2856Q65.5246,68.9519,65.3611,68.7785Z" style="fill:#efe8e8;fill-rule:evenodd"/><path d="M82.3733,68.6921a1.5655,1.5655,0,0,1,.5576-.5859,6.0574,6.0574,0,0,1,1.0879-.6392q.602-.2777.4433.3032a4.8979,4.8979,0,0,1-1.5429,2.2613q-.4834.36-.7119.2045c-.1534-.1044-.1758-.35-.0694-.7377S82.3225,68.8425,82.3733,68.6921Z" style="fill:#c4b1b1;fill-rule:evenodd"/><path d="M81.7971,68.6071a1.5578,1.5578,0,0,1,.083-.8051,6.0469,6.0469,0,0,1,.47-1.17q.3077-.5881.5371-.0313a4.8863,4.8863,0,0,1,.16,2.7329q-.1611.5815-.4385.5972c-.1836.0112-.3525-.1695-.5049-.5415S81.8489,68.757,81.7971,68.6071Z" style="fill:#c4b1b1;fill-rule:evenodd"/><path d="M90.8222,81.91a3.997,3.997,0,0,1-.39.54,1.5348,1.5348,0,0,1-.13.16,10.1232,10.1232,0,0,1-.93,1.01c-.47.46-.91.9-1.3,1.33a26.6428,26.6428,0,0,0-3.44,4.44c-.26-.04-.53-.09-.8-.13-1.05-.16-2.17-.29-3.36-.4q-.72-.06-1.5-.12h-.01c-.22-.01-.44-.02-.67-.03q-1.38-.075-2.88-.09a2.8052,2.8052,0,0,0-.29,0c.19-2.19.57-5.3.57-5.55,0-.3,5.7-3.13,7.83-4.11a7.6529,7.6529,0,0,1,.79-.34,24.0859,24.0859,0,0,1,2.8-.05c.12.01.24.01.37.02a9.7218,9.7218,0,0,1,2.08.33C90.9923,79.34,91.8822,80.2,90.8222,81.91Z" style="fill:#c4b1b1;fill-rule:evenodd"/><path d="M50.6622,79.91l-.13-.09a.1.1,0,0,1,.04-.05A1.0986,1.0986,0,0,0,50.6622,79.91Z" style="fill:#efe8e8"/><path d="M63.4222,70.03c-.08.06-.21-.01-.27-.1-.05-.1-.06-.21-.11-.31a.134.134,0,0,0-.05-.06.3769.3769,0,0,1,.13-.06Z" style="fill:#efe8e8"/><path d="M61.5757,79.97a14.4761,14.4761,0,0,0,6.6705,8.988c5.6339,3.356-2.1446-9.785-2.3214-9.785S61.5757,79.97,61.5757,79.97Z" style="fill:#c17a90;fill-rule:evenodd"/><path d="M88.1585,79.97a14.4765,14.4765,0,0,1-6.6706,8.988c-5.6339,3.356,2.1447-9.785,2.3214-9.785S88.1585,79.97,88.1585,79.97Z" style="fill:#a06485;fill-rule:evenodd"/><path d="M87.3922,80.23q-4.845,1.425-5.51,7.08-.6449,5.655-7.12,5.82c-3.34.09-5.47-.88-6.37-2.9a5.8206,5.8206,0,0,1-.49-2,8.279,8.279,0,0,0-5.3-7.25,4.7083,4.7083,0,0,1-.45-.22,5.89,5.89,0,0,0-.69-.4q-3.03-1.965,1.35-4.61a23.263,23.263,0,0,1,12.18-3.02,26.7038,26.7038,0,0,1,7.88,1.1,19.82,19.82,0,0,1,4.35,1.92Q92.2471,78.81,87.3922,80.23Z" style="fill:#e0bac0;fill-rule:evenodd"/><path d="M85.0822,79.28q-4.755,1.41-6.34,4.56-1.6051,3.165-7.05,5.59a7.1863,7.1863,0,0,1-3.3.8,5.8206,5.8206,0,0,1-.49-2,8.279,8.279,0,0,0-5.3-7.25,4.7083,4.7083,0,0,1-.45-.22,5.89,5.89,0,0,0-.69-.4q-3.03-1.965,1.35-4.61a23.263,23.263,0,0,1,12.18-3.02,26.7038,26.7038,0,0,1,7.88,1.1,20.8556,20.8556,0,0,1,2.05,1.06Q89.8423,77.89,85.0822,79.28Z" style="fill:#ead3d6;fill-rule:evenodd"/><path d="M55.5652,75.2289A4.7231,4.7231,0,0,1,60.75,73.0606" style="fill:none;stroke:#001a2b;stroke-linecap:round;stroke-miterlimit:10;fill-rule:evenodd"/><path d="M93.538,75.2289a4.7231,4.7231,0,0,0-5.1844-2.1683" style="fill:none;stroke:#001a2b;stroke-linecap:round;stroke-miterlimit:10;fill-rule:evenodd"/><path d="M78.7288,68.69s-.97,1.56-4.16,1.58a4.2467,4.2467,0,0,1-2.95-1,3.5729,3.5729,0,0,1-1.01-1.46s3.44-19.16,4.6-17.02a2.3594,2.3594,0,0,1,.18.41v.01C76.5989,54.47,78.7288,68.69,78.7288,68.69Z" style="fill:#dbad4f;fill-rule:evenodd"/><path d="M78.7288,68.69s-.97,1.56-4.16,1.58a4.2467,4.2467,0,0,1-2.95-1,3.6619,3.6619,0,0,0,3.15-2.04c1.33-2.14.93-11.29.62-16.02C76.5989,54.47,78.7288,68.69,78.7288,68.69Z" style="fill:#cc8258;fill-rule:evenodd"/><path d="M65.3439,149.7527a1.0441,1.0441,0,0,1,.2838.0324c.0112.0029.0232.0065.0369.04a.12.12,0,0,1-.0064.0725.1106.1106,0,0,1-.0878.0438.5545.5545,0,0,1-.2658-.0288.1426.1426,0,0,1-.0609-.038.06.06,0,0,1-.01-.0674.085.085,0,0,1,.0375-.0292.6079.6079,0,0,1,.1133-.0423" style="fill:#dd999f"/></svg>