<svg id="Camada_1" data-name="Camada 1" xmlns="http://www.w3.org/2000/svg" viewBox="0 0 150 150"><path d="M94.0718,137.3977a1.0006,1.0006,0,0,0,0-2,1.0006,1.0006,0,0,0,0,2Z" style="fill:#0f0d0d"/><path d="M107.3627,137.6611a.4949.4949,0,0,1-.31.38c-2.67,1.03-5.97,2.09-8.57.29a7.9182,7.9182,0,0,1-2.43-3.33c-.6-1.23-1.28-2.68-2.62-3.24a.53.53,0,0,1-.31-.63.3943.3943,0,0,1,.57-.33,5.4842,5.4842,0,0,1,2.61,2.49,18.1845,18.1845,0,0,0,2.04,3.6c2.23,2.43,5.84,1.19,8.44.19C107.1928,136.921,107.4428,137.3211,107.3627,137.6611Z" style="fill:#c4b1b1"/><path d="M113.0789,118.89a28.2558,28.2558,0,0,0-2.96-7.39l-.35-.56a.6141.6141,0,0,0-.07-.18c-.11-.15-.22-.31-.33-.46l-.05-.08h-.01a37.0928,37.0928,0,0,0-7.56-8.42,32.7975,32.7975,0,0,1-2.46,8.87,25.2278,25.2278,0,0,1-10.37,12.2,25.9412,25.9412,0,0,1-14.15,3.16,29.2162,29.2162,0,0,1-13.5-3.52c-11.93-6.7-13.17-20.56-13.17-20.56-3.24,2.48-5.48,5.64-7.64,8.85a23.2336,23.2336,0,0,0-3.3,7.71,1.2633,1.2633,0,0,0-.06.21c-.32,1.02-1.5,5.53.48,8.81a6.54,6.54,0,0,0,2.39,2.3,6.0193,6.0193,0,0,0,.67.34,4.788,4.788,0,0,0,.65.25,5.7283,5.7283,0,0,0,1.21.29,5.9527,5.9527,0,0,0,1.11.04l.3-.03c.11-.01.22-.03.33-.05s.22-.05.33-.07a3.3749,3.3749,0,0,0,.48-.14,2.7385,2.7385,0,0,0,.4-.15c.23-.1.46-.21.67-.32a8.1839,8.1839,0,0,0,1.65-1.21,9.77,9.77,0,0,0,1.57-1.84l.43-.38,1.07-.94c.04.09.07.16.1.23,0,.01.01.01.01.02a2.0214,2.0214,0,0,1,.09.3c.11.61.24,1.21.38,1.8.03.15.06.29.1.45a40.2451,40.2451,0,0,0,3.96,10.06c.09.18.18.34.27.49v.01a3.3747,3.3747,0,0,1,.23.4c.25.44.52.88.79,1.31v.01c0,.01.01.02.02.04a.2958.2958,0,0,1,.03.04c.02.03.04.07.07.12a67.3021,67.3021,0,0,0,4.24,6.09,23.6726,23.6726,0,0,0,6.83.89,13.4112,13.4112,0,0,0,3.64-.57c.2-.48.36-.96.5-1.41.09-.24.16-.46.24-.67a.1854.1854,0,0,0,.02-.07c.21-.53.41-1.03.59-1.48l.01-.01a2.03,2.03,0,0,1,1.82-.79,2.2784,2.2784,0,0,1,.67.17,5.71,5.71,0,0,1,1.08.59c.09.06.17.12.26.18a4.4928,4.4928,0,0,1,.56,1.14c.06.17.12.34.19.5a5.7646,5.7646,0,0,0,.85,1.95,21.7164,21.7164,0,0,0,4.95.78,26.6286,26.6286,0,0,0,5.61-.28c5.25-5.05,8.85-16.71,9.12-17.62a.1087.1087,0,0,0,.01-.05.01.01,0,0,0,.01-.01c.43-1.1.85-2.21,1.27-3.33.11-.29.24-.57.37-.85.01.01.01.02.03.03a23.646,23.646,0,0,0,2.54,2.81v.01c.05.04.1.1.16.15.05.05.1.1.16.15a5.8988,5.8988,0,0,0,.49.41c.17.13.33.24.49.34a4.3863,4.3863,0,0,0,.51.29c.15.07.31.14.46.2a6.507,6.507,0,0,1-1.9-1.24c-.11-.1-.22-.21-.32-.3a7.1347,7.1347,0,0,1,.55-1.27c0-.01.01-.01.01-.02.09-.17.19-.35.31-.54.15.26.31.51.47.75a10.5115,10.5115,0,0,0,1.79,2.03,8.7838,8.7838,0,0,0,1.39,1.03,3.3174,3.3174,0,0,0,.46-.02q.1948-.015.33-.03h.03a.44.44,0,0,1,.1-.02.06.06,0,0,1,.04-.01h.02a.58.58,0,0,1,.1-.02c.01-.01.01-.01.02-.01h.03a.031.031,0,0,1,.02-.01s.1-.02.28-.06a.5567.5567,0,0,0,.12-.04.9306.9306,0,0,0,.13-.04c.06-.02.13-.04.2-.07.14-.05.29-.12.46-.19.09-.04.17-.08.26-.13.01,0,.01,0,.01-.01a2.6292,2.6292,0,0,0,.23-.13,6.7155,6.7155,0,0,0,1.72-1.47,26.3954,26.3954,0,0,0-2.06-7.59A35.8974,35.8974,0,0,1,113.0789,118.89Zm-47.7,30.94h-.01c-.04,0-.04,0,.02.01a.3405.3405,0,0,0,.14.03h.03C65.4988,149.86,65.4388,149.84,65.379,149.83Zm0,0h-.01c-.04,0-.04,0,.02.01a.3405.3405,0,0,0,.14.03h.03C65.4988,149.86,65.4388,149.84,65.379,149.83ZM48.159,101.9a.2655.2655,0,0,1-.06.05h.08A.1609.1609,0,0,1,48.159,101.9Z" style="fill:#efe8e8"/><path d="M91.14,129.26a10.3793,10.3793,0,0,1-10.35,10.36H69.09a10.3686,10.3686,0,0,1-9.88-7.3,9.9933,9.9933,0,0,1-.47-3.06,10.2783,10.2783,0,0,1,2.35-6.54c.06-.07.11-.14.18-.21a29.2162,29.2162,0,0,0,13.5,3.52,25.9425,25.9425,0,0,0,14.15-3.16c.12.16.24.32.35.48a10.1679,10.1679,0,0,1,1.87,5.91Z" style="fill:#dd999f"/><path d="M91.1412,129.26a10.3793,10.3793,0,0,1-10.35,10.36h-11.7a10.3686,10.3686,0,0,1-9.88-7.3,20.6162,20.6162,0,0,0,13.84,5.12c9.31-.13,14.09-1.25,17.85-10.41A10.2946,10.2946,0,0,1,91.1412,129.26Z" style="fill:#ce8091"/><path d="M47.7812,128.8a7.2741,7.2741,0,0,1-3.21,1.8c-.11.02-.22.05-.33.07s-.22.04-.33.05l-.3.03a5.9513,5.9513,0,0,1-1.11-.04,5.7292,5.7292,0,0,1-1.21-.29,8.4646,8.4646,0,0,1-1.28-.59,6.5391,6.5391,0,0,1-2.39-2.3c1.95.44,4.89.37,8.05-2.42a11.3512,11.3512,0,0,1,2.1,3.67C47.7812,128.79,47.7812,128.79,47.7812,128.8Z" style="fill:#0f0d0d"/><path d="M40.0112,129.83a8.4646,8.4646,0,0,0,1.28.59,6.317,6.317,0,0,1-1.32-.59,6.5391,6.5391,0,0,1-2.39-2.3c-1.98-3.28-.8-7.79-.48-8.81a27.8714,27.8714,0,0,1,8.57,6.39c-3.16,2.79-6.1,2.86-8.05,2.42A6.5391,6.5391,0,0,0,40.0112,129.83Z" style="fill:#353130"/><path d="M113.36,124.38a9.1436,9.1436,0,0,1-1.92,4.26l-.01.01a6.534,6.534,0,0,1-1.72,1.44c-.08.05-.15.09-.23.13,0,.01,0,.01-.01.01-.09.05-.17.09-.26.13-.17.07-.32.14-.46.19-.07.03-.14.05-.2.07a.9288.9288,0,0,1-.13.04.5638.5638,0,0,1-.12.04c-.18.04-.28.06-.28.06a.031.031,0,0,0-.02.01h-.03c-.01,0-.01,0-.02.01a.5755.5755,0,0,0-.1.02h-.02a.06.06,0,0,0-.04.01.44.44,0,0,0-.1.02h-.03q-.135.015-.33.03a3.3167,3.3167,0,0,1-.46.02h-.03c-.1,0-.2,0-.31-.01-.12-.01-.23-.01-.35-.03a1.1342,1.1342,0,0,1-.25-.03,3.7283,3.7283,0,0,1-.44-.08c-.11-.02-.22-.05-.34-.08-.2-.06-.41-.13-.61-.21h-.01a3.9973,3.9973,0,0,1-.42-.2,4.4028,4.4028,0,0,1-.51-.29c-.16-.1-.32-.21-.49-.34a5.9152,5.9152,0,0,1-.49-.41c-.06-.05-.11-.1-.16-.15-.06-.05-.11-.11-.16-.15v-.01c.02-.07.05-.15.08-.24l.12-.29c.09-.22.21-.48.36-.77.1-.16.2-.34.31-.52a10.5775,10.5775,0,0,1,.76-1.11,19.9489,19.9489,0,0,1,3.58-3.59c.56-.44,1.18-.89,1.86-1.34a35.9292,35.9292,0,0,1,3.71-2.14c.01-.01.02-.01.03-.02A13.6832,13.6832,0,0,1,113.36,124.38Z" style="fill:#353130"/><path d="M76.5289,143.64a5.71,5.71,0,0,0-1.08-.59,2.2784,2.2784,0,0,0-.67-.17,2.03,2.03,0,0,0-1.82.79l-.01.01c-.18.45-.38.95-.59,1.48a.1854.1854,0,0,1-.02.07c-.08.21-.15.43-.24.67-.14.45-.3.93-.5,1.41a13.4112,13.4112,0,0,1-3.64.57,13.4709,13.4709,0,0,0,2.16-3.38C71.2388,141.82,75.159,141.9,76.5289,143.64Z" style="fill:#c4b1b1"/><path d="M110.12,111.5l-.35-.56a.6141.6141,0,0,0-.07-.18c-.11-.15-.22-.31-.33-.46l-.05-.08h-.01a37.0946,37.0946,0,0,0-7.56-8.42,32.8,32.8,0,0,1-2.46,8.87,20.001,20.001,0,0,1,10.08,10.36,35.9292,35.9292,0,0,1,3.71-2.14A28.2479,28.2479,0,0,0,110.12,111.5Z" style="fill:#c4b1b1"/><path d="M104.5689,130.44c-.15-.06-.31-.13-.46-.2a4.3863,4.3863,0,0,1-.51-.29c-.16-.1-.32-.21-.49-.34a5.8988,5.8988,0,0,1-.49-.41c-.06-.05-.11-.1-.16-.15-.06-.05-.11-.11-.16-.15v-.01a23.646,23.646,0,0,1-2.54-2.81c-.02-.01-.02-.02-.03-.03-.13.28-.26.56-.37.85-.42,1.12-.84,2.23-1.27,3.33a.01.01,0,0,1-.01.01.1087.1087,0,0,1-.01.05c-.27.91-3.87,12.57-9.12,17.62a26.6286,26.6286,0,0,1-5.61.28c3.01-2.91,7.68-8.61,11.21-18.41a77.3812,77.3812,0,0,0,3.19-10.34,33.6286,33.6286,0,0,0,5.12,8.15.0788.0788,0,0,0,.04.04,7.1347,7.1347,0,0,0-.55,1.27c.1.09.21.2.32.3A6.507,6.507,0,0,0,104.5689,130.44Z" style="fill:#c4b1b1"/><path d="M50.34,118.91a22.0208,22.0208,0,0,1-4.67,6.2,11.3512,11.3512,0,0,1,2.1,3.67c.01.01.01.01.01.02a9.9579,9.9579,0,0,0,1.14-1.23c.18-.16.51-.45.85-.75a14.6218,14.6218,0,0,1,1.18-.95,2.0086,2.0086,0,0,1,.09.3c.11.61.24,1.21.38,1.8.03.15.06.29.1.45a40.2375,40.2375,0,0,0,3.96,10.06c-2.05-4.02-4.51-16.33-5.04-19.04C50.38,119.1,50.34,118.91,50.34,118.91Z" style="fill:#c4b1b1"/><path d="M61.129,146.99c.16.21.32.4.48.6a6.9713,6.9713,0,0,0,.88.91,5.7515,5.7515,0,0,0,2.91,1.5h.53c.16-.15.32-.3.49-.47a18.9957,18.9957,0,0,0,1.54-1.65A23.6726,23.6726,0,0,1,61.129,146.99Zm4.25,2.84h-.01c-.04,0-.04,0,.02.01a.3405.3405,0,0,0,.14.03h.03C65.4988,149.86,65.4388,149.84,65.379,149.83Z" style="fill:#353130"/><path d="M65.379,149.83c.06.01.12.03.18.04h-.03a.3405.3405,0,0,1-.14-.03c-.06-.01-.06-.01-.02-.01Z" style="fill:#353130"/><path d="M71.5989,147.31a3.8757,3.8757,0,0,1-2.79,2.69h-2.88c.16-.15.32-.3.49-.47a18.9957,18.9957,0,0,0,1.54-1.65A13.4112,13.4112,0,0,0,71.5989,147.31Z" style="fill:#0f0d0d"/><path d="M88.9488,147.91a8.3121,8.3121,0,0,1-3.24,2.09h-3.3a6.7024,6.7024,0,0,1-.83-.25c.48-.39,1.08-.9,1.76-1.56A26.6286,26.6286,0,0,0,88.9488,147.91Z" style="fill:#0f0d0d"/><path d="M83.3389,148.19c-.68.66-1.28,1.17-1.76,1.56a6.4,6.4,0,0,1-.84-.34c-.17-.08-.33-.17-.49-.26a3.0105,3.0105,0,0,1-.42-.27,5.2684,5.2684,0,0,1-1.44-1.47A21.7164,21.7164,0,0,0,83.3389,148.19Z" style="fill:#353130"/><path d="M43.5074,113.03a4.5553,4.5553,0,0,1,.431.4638l-.2346-.3036a1.7684,1.7684,0,0,1,.2117.3528l-.1512-.3583a1.2356,1.2356,0,0,1,.0809.2952l-.0535-.3988a.8247.8247,0,0,1-.0012.177l.0536-.3988a.9372.9372,0,0,1-.0542.2021l.1512-.3583a.9728.9728,0,0,1-.12.2062l.2346-.3036a.8768.8768,0,0,1-.144.1416l.3035-.2346a.754.754,0,0,1-.12.07l.3583-.1513a.6165.6165,0,0,1-.13.0376l.3988-.0536a.5575.5575,0,0,1-.136,0l.3988.0536a.6322.6322,0,0,1-.1159-.0335l.3583.1512a.7875.7875,0,0,1-.1488-.0912l.3035.2346a1.5735,1.5735,0,0,1-.2169-.2285l.2345.3036a2.2915,2.2915,0,0,1-.294-.5035l.1512.3583a2.3884,2.3884,0,0,1-.1528-.5634l.0536.3988a2.3136,2.3136,0,0,1-.0016-.5832l-.0536.3988c.01-.0683.022-.1358.0373-.2031l-2.2035.8965a2.4763,2.4763,0,0,0,1.8427.29,2.8677,2.8677,0,0,0,.5862-.22,1.4449,1.4449,0,0,0,.7162-1.4946,1.1172,1.1172,0,0,0-.178-.5577,1.5139,1.5139,0,0,0-.8965-.6893l-.3988-.0536a1.4923,1.4923,0,0,0-.757.2048l-.0314.0134.3583-.1512a1.0782,1.0782,0,0,1-.23.0606l.3988-.0536a1.1125,1.1125,0,0,1-.2723-.002l.3987.0536a1.1156,1.1156,0,0,1-.23-.0628l.3583.1513a1.1338,1.1338,0,0,1-.1509-.0791,1.512,1.512,0,0,0-2.2035.8964,3.8409,3.8409,0,0,0-.1088.9449,5.4324,5.4324,0,0,0,.0731.6388,2.2582,2.2582,0,0,0,.1528.5634,5.14,5.14,0,0,0,.2641.59,3.2765,3.2765,0,0,0,.5665.745,2.15,2.15,0,0,0,1.4464.6278,1.6444,1.6444,0,0,0,.5968-.0907,2.18,2.18,0,0,0,.8166-.4782,2.32,2.32,0,0,0,.6377-1.02,2.2856,2.2856,0,0,0,.0266-1.25,2.9112,2.9112,0,0,0-.2425-.6136,1.7666,1.7666,0,0,0-.1729-.2771,6.2583,6.2583,0,0,0-.6761-.7813,1.5563,1.5563,0,0,0-1.0607-.4394,1.5261,1.5261,0,0,0-1.0606.4394,1.5091,1.5091,0,0,0-.4394,1.0606,1.5457,1.5457,0,0,0,.4394,1.0607Z" style="fill:#353130"/><path d="M45.7454,123.2614a1.0006,1.0006,0,0,0,0-2,1.0006,1.0006,0,0,0,0,2Z" style="fill:#353130"/><path d="M53.1189,121.7934a19.5641,19.5641,0,0,1,1.3184,1.5288l-.1564-.2024q.254.3293.4944.6686a4.663,4.663,0,0,1,.4474.6839l-.1008-.2389a.3165.3165,0,0,1,.0239.1028L55.11,124.07l-.0037.0527.0357-.2658-.01.0355.1008-.2388a.2105.2105,0,0,1-.0343.06l.1564-.2024a.2389.2389,0,0,1-.0508.0465l.2024-.1563a.327.327,0,0,1-.0638.0337l.2389-.1008a.7074.7074,0,0,1-.1121.0291l.2658-.0358a.88.88,0,0,1-.2007-.0009l.2658.0357a1.8714,1.8714,0,0,1-.4018-.1186l.2389.1008a2.1722,2.1722,0,0,1-.4346-.2549l.2024.1564a2.3943,2.3943,0,0,1-.4167-.4195l.1564.2024a2.5169,2.5169,0,0,1-.2976-.5142l.1008.2389a2.3835,2.3835,0,0,1-.1556-.57l.0358.2659a2.144,2.144,0,0,1-.003-.5038l-.0357.2659a2.0679,2.0679,0,0,1,.0724-.3308,1.01,1.01,0,0,0-.6984-1.23,1.021,1.021,0,0,0-1.23.6984,3.2365,3.2365,0,0,0,1.3625,3.5414,1.9154,1.9154,0,0,0,2.35.06,1.24,1.24,0,0,0,.3285-1.1464,1.8477,1.8477,0,0,0-.303-.6339q-.2807-.42-.5836-.824a21.3681,21.3681,0,0,0-1.6547-1.9674,1.01,1.01,0,0,0-1.4142,0,1.02,1.02,0,0,0,0,1.4142Z" style="fill:#353130"/><path d="M58.06,138.3939a7.0552,7.0552,0,0,1,.7356.7426c.0557.0655.1055.1413.1657.2024-.0163-.0165-.138-.1856-.0372-.0465l.0579.0792q.1626.2253.3071.4632.1273.21.24.4278.0524.1017.1016.2051.0281.0591.0549.1187c.03.0669.0721.2493.0024.0014.0408.1452.1108.2857.1585.4294.0586.1765.0949.3606.1535.5364.0373.1121.0049-.1251.0054-.1577.0023-.155-.0409.0817.0326-.1041a.7.7,0,0,1,.14-.2227c.1557-.1695.1863-.1279.1078-.0862.2537-.1348.2-.074.1239-.0561-.1436.0337.1367-.0218.1361-.0143,0,.0027-.1.0028-.092.0023-.16.01.2134.0483.1.0185-.0539-.0142-.11-.0284-.1647-.0407-.16-.0362.1207.0446.1055.049a.3648.3648,0,0,1-.0821-.0419c-.0643-.0354-.1264-.0755-.1871-.1166-.0293-.02-.0591-.0466-.09-.0635.0278.0154.174.1425.0728.0548a3.4953,3.4953,0,0,1-.3152-.3042c-.0581-.0647-.1789-.257-.0174-.01-.04-.0613-.0858-.1188-.1256-.18a3.3412,3.3412,0,0,1-.2138-.3846c-.0118-.025-.0226-.05-.0343-.0753-.0534-.1138.0788.2048.0376.086-.0271-.0782-.0566-.1552-.0807-.2346-.0484-.16-.0717-.3217-.1084-.4835.0025.0107.0275.266.0158.102-.0026-.0365-.0064-.073-.0086-.11-.0057-.0913-.0074-.1829-.0051-.2743.0018-.0732.0089-.1458.0132-.2189.01-.163-.0124.0912-.0154.1028.0112-.0434.015-.0907.0239-.1349a2.97,2.97,0,0,1,.149-.5,1.0054,1.0054,0,0,0-.1008-.7706,1,1,0,0,0-1.8278.2389,4.2119,4.2119,0,0,0,1.1994,4.565,2.8159,2.8159,0,0,0,1.2039.6691,1.5269,1.5269,0,0,0,1.8361-2.1852,8.4721,8.4721,0,0,0-.5337-1.3319,7.7631,7.7631,0,0,0-1.8259-2.3609,1,1,0,1,0-1.4142,1.4142Z" style="fill:#353130"/><path d="M67.9361,144.1371a1.0006,1.0006,0,0,0,0-2,1.0006,1.0006,0,0,0,0,2Z" style="fill:#353130"/><path d="M82.6106,144.3854q.8358-.4969,1.7079-.9285.4275-.2107.863-.4046.1044-.0465.2094-.092c.0952-.0414.1959-.0873.0417-.0189.1624-.072.3293-.1355.4945-.2008l-1.23-.6984c.0206.0562.0357.1119.0534.169.0583.1881-.0011-.2313,0-.0351,0,.0581,0,.117.0012.175.0036.1765.04-.18.0112-.062a1.4146,1.4146,0,0,0-.0892.3133q.09-.2054.0408-.1017-.0192.0408-.0409.08c-.029.0533-.0617.1031-.0935.1546-.0923.149.1109-.1215.0294-.0338-.041.0441-.0793.09-.1222.1327-.012.0118-.1123.0854-.1105.1011q.1818-.1358.0485-.0391l-.0553.0372c-.0561.0364-.2883.2092-.3508.1889.0443.0144.2041-.079.0217-.0163q-.0951.0325-.192.0588c-.1154.0313-.2511.0364-.362.0774q.2148-.0266.0983-.0128c-.0336.0041-.0672.0077-.1009.0106-.0562.0052-.1125.0091-.1688.0121-.1178.0063-.2363.0093-.3543.0057-.0522-.0015-.1041-.0068-.1562-.0092-.1965-.009.2483.051.055.0077-.0957-.0214-.1891-.044-.2835-.07-.205-.0571.1266.0717.0461.0249-.0361-.021-.0754-.0372-.1115-.0586q-.0321-.0188-.0625-.04-.0957-.0658.1059.0828a.7444.7444,0,0,0-.1-.1013l.1.1268a.7427.7427,0,0,1-.0469-.0823c.0554.0506.082.2409.0388.0535a1.0085,1.0085,0,0,0-1.23-.6984,1.022,1.022,0,0,0-.6984,1.23c.3719,1.6105,2.4775,1.7187,3.7629,1.37a3.33,3.33,0,0,0,1.9264-1.3486,2.5773,2.5773,0,0,0,.3191-2.2345,1.0116,1.0116,0,0,0-1.23-.6985,26.3525,26.3525,0,0,0-3.7942,1.8465,1,1,0,0,0,1.0094,1.7269Z" style="fill:#353130"/><path d="M93.9056,124.951c-.0128-.0542-.0232-.1083-.0316-.1633l.0357.2659a1.8137,1.8137,0,0,1,0-.4556l-.0357.2658a1.8967,1.8967,0,0,1,.121-.44l-.1008.2388a1.8624,1.8624,0,0,1,.2065-.3595l-.1564.2024a1.4593,1.4593,0,0,1,.2566-.2654l-.2024.1563a.9529.9529,0,0,1,.1412-.0815l-.2389.1008a.6678.6678,0,0,1,.15-.0413l-.2658.0358a.3352.3352,0,0,1,.0729,0l-.2658-.0358a.2641.2641,0,0,1,.0683.017l-.2389-.1008a.2322.2322,0,0,1,.0614.0359l-.2024-.1563a.2479.2479,0,0,1,.0509.0558l-.1563-.2024.0185.0326-.1008-.2389a.5133.5133,0,0,1,.0313.1093l-.0357-.2659a2.7989,2.7989,0,0,1-.0173.4718l-.0374.55c-.0228.336-.0325.676-.0769,1.01l.0357-.2659a1.5635,1.5635,0,0,1-.0949.3632l.1008-.2389a1.003,1.003,0,0,1-.1026.1755l.1563-.2024a.734.734,0,0,1-.1007.1033l.2024-.1564a.6556.6556,0,0,1-.1078.0627l.2389-.1008a.7146.7146,0,0,1-.1518.0417l.2658-.0358a.7064.7064,0,0,1-.1552,0l.2658.0357a.6223.6223,0,0,1-.1154-.03l.2389.1009a.49.49,0,0,1-.0985-.0576l.2024.1564a.4583.4583,0,0,1-.0577-.0613l.1564.2024a.31.31,0,0,1-.0287-.05l.1008.2388a.3132.3132,0,0,1-.02-.0566,1,1,0,0,0-1.9286.5317,1.4648,1.4648,0,0,0,2.1652.7747,1.7591,1.7591,0,0,0,.75-1.0388,4.8651,4.8651,0,0,0,.1258-1.0083l.0635-.9344a2.0425,2.0425,0,0,0-.143-1.1956,1.2906,1.2906,0,0,0-1.5145-.5746,2.0853,2.0853,0,0,0-1.0329.8214,2.698,2.698,0,0,0-.3969,2.1889,1.0089,1.0089,0,0,0,1.23.6985,1.0214,1.0214,0,0,0,.6984-1.23Z" style="fill:#353130"/><path d="M99.6425,117.2108l3.1459,1.5969c.4836.2454.9723.4829,1.4442.7493.1184.0668-.1308-.1173-.0369-.0239.0835.0831-.0611-.1072-.0733-.1372-.0843-.2076.0269-.2674.0244-.4988,0-.0385.1413-.1487-.0072-.0237.1656-.1394-.0228.0117-.0959.0533-.0165.0094-.1281.0632-.1282.0665l.1063-.0439q-.0673.0261-.1363.0475c-.046.0143-.2564.0339-.2819.0674.0127-.0167.2457-.0162.0483-.0084-.0491.0019-.0977.0062-.1469.0074-.0991.0022-.1973-.0038-.296-.01-.2068-.0135.0394-.005.0439.0069-.0026-.0068-.2069-.0429-.22-.0461-.0974-.0243-.1916-.0564-.2869-.0875-.0625-.02-.1584-.02.0307.0165a.6769.6769,0,0,1-.1345-.0647,2.995,2.995,0,0,1-.2629-.1531c-.0456-.03-.09-.061-.1343-.0919-.215-.1487.14.1322-.0524-.044a5.5541,5.5541,0,0,1-.4583-.4585c-.0389-.0449-.2222-.2892-.0989-.1162-.0795-.1116-.1593-.2225-.2339-.3375-.12-.1844-.231-.3742-.3361-.5673-.0584-.1073-.1071-.224-.1714-.3274l-.0184-.0366a.6184.6184,0,0,1-.1568.7647.3765.3765,0,0,1-.2467.1753l.06-.0169c-.3125.0555.05.0082.1472.0126.019.0009.1521.011.1521.0111q-.1906-.0289-.077-.01.0566.0088.1125.0206a3.0139,3.0139,0,0,1,.3315.0882c.0483.0158.0955.0354.1438.051.1135.0366-.1585-.0853.0065.0049.1121.0613.2251.1173.3327.1869a.6166.6166,0,0,1,.1262.0858q-.1355-.1089-.051-.04.0447.0357.0875.0737c.0963.0845.1793.179.27.2692.03.03.1353.1394-.0122-.0249a1.4944,1.4944,0,0,1,.13.1887l.1564-1.2118c-.1432.1551.1758-.0844-.011.0125l.1114-.05q-.1326.03-.0023.0062.1141-.0123.03-.0109-.1171-.0041.096.0137c-.1824-.0252.1557.0948-.0064-.0171a1.0057,1.0057,0,0,0-1.3682.3588,1.0253,1.0253,0,0,0,.3588,1.3682,1.7526,1.7526,0,0,0,2.2058-.2669,1.0217,1.0217,0,0,0,.1563-1.2118,4.0634,4.0634,0,0,0-3.5076-1.8963,1.7632,1.7632,0,0,0-1.11.4145,1.3465,1.3465,0,0,0-.1918,1.66,8.5164,8.5164,0,0,0,1.0666,1.6649,4.1492,4.1492,0,0,0,3.473,1.6323,2.9772,2.9772,0,0,0,1.9808-.8788,1.4858,1.4858,0,0,0,.358-1.3719,1.8093,1.8093,0,0,0-.8759-1.0292c-.7094-.4212-1.4839-.7579-2.22-1.1314l-2.28-1.1571a1,1,0,1,0-1.0094,1.7269Z" style="fill:#353130"/><path d="M103.2084,108.842l1.3488,1.7148-.1564-.2023a1.4536,1.4536,0,0,1,.1677.2688l-.1008-.2389a.7284.7284,0,0,1,.0511.18l-.0357-.2658a.3731.3731,0,0,1,0,.07l.0358-.2659a.4191.4191,0,0,1-.0267.1l.1008-.2389a.2946.2946,0,0,1-.0388.061l.1563-.2023a.2912.2912,0,0,1-.0483.0465l.2024-.1563a.5066.5066,0,0,1-.0875.0481l.2389-.1008a.71.71,0,0,1-.1342.031l.2659-.0358a1.254,1.254,0,0,1-.2669-.008l.2659.0357a1.5962,1.5962,0,0,1-.3634-.0993l.2389.1008a1.7729,1.7729,0,0,1-.3788-.2215l.2024.1563a1.9873,1.9873,0,0,1-.3351-.3372l.1563.2024a2.0674,2.0674,0,0,1-.2557-.4405l.1008.2389a1.926,1.926,0,0,1-.1241-.457l.0357.2659a1.7034,1.7034,0,0,1-.002-.4068l-.0357.2658a1.555,1.555,0,0,1,.0964-.3665,1.0033,1.0033,0,0,0-.1008-.7706,1,1,0,0,0-1.3682-.3587l-.2024.1564a.9986.9986,0,0,0-.2571.4412,2.4773,2.4773,0,0,0-.0152,1.643,2.8412,2.8412,0,0,0,.3632.7471,3.2517,3.2517,0,0,0,.7321.7472,2.3646,2.3646,0,0,0,1.7968.4274,1.3139,1.3139,0,0,0,1.0523-1.2482,1.9489,1.9489,0,0,0-.5427-1.2654q-.6579-.839-1.3182-1.6759a.9986.9986,0,0,0-.7071-.2929,1.0176,1.0176,0,0,0-.7071.2929,1.0064,1.0064,0,0,0-.2929.7071l.0358.2658a.9994.9994,0,0,0,.2571.4413Z" style="fill:#0f0d0d"/><path d="M113.36,124.38a9.1436,9.1436,0,0,1-1.92,4.26l-.01.01a6.534,6.534,0,0,1-1.72,1.44c-.08.05-.15.09-.23.13,0,.01,0,.01-.01.01-.09.05-.17.09-.26.13-.17.07-.32.14-.46.19-.07.03-.14.05-.2.07a.9288.9288,0,0,1-.13.04.5638.5638,0,0,1-.12.04c-.18.04-.28.06-.28.06a.031.031,0,0,0-.02.01h-.03c-.01,0-.01,0-.02.01a.5755.5755,0,0,0-.1.02h-.02a.06.06,0,0,0-.04.01.44.44,0,0,0-.1.02h-.03q-.135.015-.33.03a3.3167,3.3167,0,0,1-.46.02h-.03c-.1,0-.2,0-.31-.01-.12-.01-.23-.01-.35-.03a1.1342,1.1342,0,0,1-.25-.03,3.7283,3.7283,0,0,1-.44-.08c-.11-.02-.22-.05-.34-.08-.2-.06-.41-.13-.61-.21h-.01a3.9973,3.9973,0,0,1-.42-.2,4.4028,4.4028,0,0,1-.51-.29c-.16-.1-.32-.21-.49-.34a5.9152,5.9152,0,0,1-.49-.41c-.06-.05-.11-.1-.16-.15-.06-.05-.11-.11-.16-.15v-.01c.02-.07.05-.15.08-.24l.12-.29.36-.77s6.59,2.65,6.51-6.56a35.9292,35.9292,0,0,1,3.71-2.14c.01-.01.02-.01.03-.02A13.6832,13.6832,0,0,1,113.36,124.38Z" style="fill:#0f0d0d"/><path d="M111.9631,138.7875s-11.7078.7925-2.3776-4.1067l.7565-.442Z" style="fill:#0f0d0d"/><path d="M35.0069,98.5511a3.5479,3.5479,0,0,1,.1254-1.1289,1.527,1.527,0,0,1,1.0538-1.104,1.43,1.43,0,0,1,1.38.5772,3.84,3.84,0,0,1,.5264.7275,1.7622,1.7622,0,0,0-.2256.0752,2.0541,2.0541,0,0,0-.3511-.4765,1.2107,1.2107,0,0,0-1.1791-.4771q-.5523.1509-.7276,1.0039a2.9115,2.9115,0,0,0-.0752.6523Q35.2576,98.4756,35.0069,98.5511Z" style="fill:#c4b1b1;fill-rule:evenodd"/><path d="M49.2556,83.88c-1.25.4-2.5.74-3.73,1.01a33.9848,33.9848,0,0,1-19.35-1.01q-4.545,10.755,6.9,15.15c.65-.15,1.3-.31,1.93-.48a3.4764,3.4764,0,0,1,.13-1.13,1.5154,1.5154,0,0,1,1.05-1.1,1.4147,1.4147,0,0,1,1.38.58,3.8254,3.8254,0,0,1,.53.72c.62-.21,1.24-.43,1.85-.67a43.2325,43.2325,0,0,0,9.89-5.35Zm-16.33,12.89q-8.235-3.165-4.97-10.89a29.9152,29.9152,0,0,0,16.43,1.06l-.35.95Q41.2755,95.51,32.9255,96.77Z" style="fill:#efe8e8;fill-rule:evenodd"/><path d="M27.9555,85.88q-3.2549,7.725,4.97,10.89,8.3552-1.26,11.11-8.88l.35-.95A29.9152,29.9152,0,0,1,27.9555,85.88Zm15.56,2.51a12.9465,12.9465,0,0,1-10.16,6.95q-4.9947-1.575-5.57-5.24a8.7867,8.7867,0,0,1,.35-3.74,29.8279,29.8279,0,0,0,15.85,1.13Z" style="fill:#ce8091;fill-rule:evenodd"/><path d="M28.1328,86.3588a29.7451,29.7451,0,0,0,15.855,1.1289l-.4765.9033a12.92,12.92,0,0,1-10.16,6.9487q-4.9922-1.5805-5.5693-5.2431A8.8173,8.8173,0,0,1,28.1328,86.3588Z" style="fill:#dd999f;fill-rule:evenodd"/><path d="M49.8354,91.6a43.2325,43.2325,0,0,1-9.89,5.35,28.3921,28.3921,0,0,0,5.58-12.06c1.23-.27,2.48-.61,3.73-1.01Z" style="fill:#c4b1b1"/><path d="M91.8056,74.99q-6.54,1.395-18.9.15l1.27-5.71q20.655.45,20.04-8.23-.33-3.09,1.12-1.35a23.62,23.62,0,0,1,3.14,5.48Q101.3854,72.98,91.8056,74.99Z" style="fill:#bf9f82;fill-rule:evenodd"/><path d="M77.0957,74.99c-3.03.3-5.8.49-8.3.55q-12.6453.345-16.38-3.33-4.02-3.93,2.25-12.51,1.455-1.74,1.12,1.35-.39,5.535,7.84,7.34a37.7294,37.7294,0,0,0,5.64.77q2.955.195,6.56.12Z" style="fill:#bf9f82;fill-rule:evenodd"/><path d="M91.8056,74.99l-1.06-2.79s7.37-.5,7.73-6.87Q101.3854,72.98,91.8056,74.99Z" style="fill:#ad8273;fill-rule:evenodd"/><path d="M69.8955,74.99l-1.1.55q-12.6453.345-16.38-3.33a11.3093,11.3093,0,0,0,11.21-3.82,37.7294,37.7294,0,0,0,5.64.77A27.6749,27.6749,0,0,1,69.8955,74.99Z" style="fill:#ad8273"/><path d="M100.0356,88.39l-.24,3.21c.51.37,1.03.73,1.56,1.07C100.9155,91.26,100.4255,89.67,100.0356,88.39Zm23.42-4.51a33.32,33.32,0,0,1-16.42,1.55,25.12,25.12,0,0,1,1.82,2.04,29.2217,29.2217,0,0,0,12.82-1.59q3.2553,7.725-4.97,10.89a17.198,17.198,0,0,1-2.93-.7c1.44,1.37,3.89,1.49,6.67.96Q127.0905,92.53,123.4555,83.88Z" style="fill:#efe8e8;fill-rule:evenodd"/><path d="M121.6755,85.88a29.2217,29.2217,0,0,1-12.82,1.59c.13.16.26.33.38.5.38.03.75.06,1.13.07a.81.81,0,0,0,.22,0,.0187.0187,0,0,0,.03,0c.01.01.01.01.02,0h.01c.71.02,1.41.02,2.11,0,.27-.01.54-.03.81-.04.51-.03,1.02-.08,1.53-.14.31-.04.61-.08.92-.13.31-.04.61-.09.91-.15.49-.08.98-.19,1.46-.31.32-.07.64-.15.95-.24.32-.08.64-.17.95-.27.41-.12.81-.26,1.21-.4a8.7919,8.7919,0,0,1,.35,3.74q-.57,3.66-5.57,5.24a12.9861,12.9861,0,0,1-1.41-.25c-.11-.02-.21-.04-.32-.07-.17-.04-.34-.08-.5-.13a2.075,2.075,0,0,1-.33-.1,2.9611,2.9611,0,0,1-.39-.13c-.2-.07-.39-.14-.59-.22a3.93,3.93,0,0,0,1.03,1.63h.01a17.198,17.198,0,0,0,2.93.7Q124.9255,93.605,121.6755,85.88Z" style="fill:#ce8091;fill-rule:evenodd"/><path d="M113.7656,96.07a12.6305,12.6305,0,0,1-8.17-8.18l-.36-.95a30.9894,30.9894,0,0,0,3.62.53c.13.16.26.33.38.5-.12,0-.23-.01-.35-.02-.18-.03-.36-.04-.54-.06-.3-.03-.6-.06-.9-.11-.17-.02-.34-.04-.51-.07-.43-.06-.86-.14-1.29-.22l.47.9c.14.25.28.5.44.74a8.3728,8.3728,0,0,0,.46.7c.16.23.32.45.49.66.17.22.34.42.52.62a7.4086,7.4086,0,0,0,.54.58,11.7991,11.7991,0,0,0,1.73,1.44,2.178,2.178,0,0,0,.25.17c.01.01.02.02.03.02.25.17.52.33.79.48.02.01.05.03.09.05.12.06.25.13.37.19a3.3726,3.3726,0,0,0,.39.18c.17.08.34.15.52.22A3.93,3.93,0,0,0,113.7656,96.07Z" style="fill:#af6d8e;fill-rule:evenodd"/><path d="M121.8457,90.1q-.57,3.66-5.57,5.24a12.9861,12.9861,0,0,1-1.41-.25c-.11-.02-.21-.04-.32-.07-.17-.04-.34-.08-.5-.13a2.075,2.075,0,0,1-.33-.1,2.9611,2.9611,0,0,1-.39-.13c-.2-.07-.39-.14-.59-.22a23.2392,23.2392,0,0,0-3.5-6.47c.38.03.75.06,1.13.07a.81.81,0,0,0,.22,0,.0187.0187,0,0,0,.03,0c.01.01.01.01.02,0h.01c.71.04,1.41.03,2.11,0,.27,0,.54-.02.81-.04.51-.03,1.02-.08,1.53-.14a9.2679,9.2679,0,0,0,.92-.13c.31-.04.61-.09.91-.15.49-.08.98-.19,1.46-.31.32-.06.63-.15.95-.24.32-.08.64-.17.95-.27.41-.12.81-.26,1.21-.4A8.7919,8.7919,0,0,1,121.8457,90.1Z" style="fill:#dd999f;fill-rule:evenodd"/><path d="M104.6955,97.3a34.6469,34.6469,0,0,0-4.5-14.75,24.5653,24.5653,0,0,0-3.9-5.55v-.01a29.4592,29.4592,0,0,0-19.82-9.65c-.56-.06-1.13-.09-1.71-.11a25.7734,25.7734,0,0,0-10.95,1.96,30.1,30.1,0,0,0-8.55,5.5,25.2984,25.2984,0,0,0-2.46,2.39,30.7128,30.7128,0,0,0-2.89,3.61c-.12.18-.26.36-.38.53v.03a22.3648,22.3648,0,0,0-2.89,6.29c-.02.08-.03.15-.05.22a32.2064,32.2064,0,0,0-1.47,9.48q-.2249,13.38,8.64,21.62,8.82,8.175,21.65,8.17a33.6915,33.6915,0,0,0,11-1.76c.31-.11.62-.22.93-.34a29.9743,29.9743,0,0,0,9.76-6.06q7.77-7.08,7.77-18.24A31.5506,31.5506,0,0,0,104.6955,97.3Zm-21.58-23.62a9.5028,9.5028,0,0,1,10.94,6.85,8.713,8.713,0,0,1-.84,6.22,67.8131,67.8131,0,0,0-9.73-12.67c-.12-.13-.24-.26-.37-.39Zm13.15,41.53a24.2579,24.2579,0,0,1-3.5,4.1.6475.6475,0,0,1-.09.08,24.2274,24.2274,0,0,1-9.11,5.43l-3.53.82-2.24.27c-.77.07-1.56.1-2.37.1-.64,0-1.28-.02-1.9-.07a27.9067,27.9067,0,0,1-5.41-.87,24.5206,24.5206,0,0,1-10.61-5.99,22.1205,22.1205,0,0,1-7.57-16.83v-.33c.01-.48.04-.93.07-1.38,0,0-.27-5.45,7.27-8.98.49-.23,1.01-.45,1.56-.65a.0316.0316,0,0,1,.02-.01,37.7519,37.7519,0,0,1,10.61-2.12c.51-.04,1.04-.07,1.58-.09,1.12-.06,2.31-.08,3.55-.08h.21c.21,0,.41,0,.61.01,1.25.01,2.43.06,3.55.12h.01q.78.06,1.5.12a36.9921,36.9921,0,0,1,10.95,2.41s.04.02.12.05c.11.05.22.1.33.14a1.01,1.01,0,0,1,.15.07c.12.05.24.11.36.16q.1952.105.42.21c.04.02.09.04.13.06v.01a17.2244,17.2244,0,0,1,3.06,1.99q.1047.09.21.18l.21.18c.12.12.25.23.36.35a7.0561,7.0561,0,0,1,.54.57c.08.08.14.16.21.23.19.23.37.47.53.69a1.7231,1.7231,0,0,1,.15.22c.04.07.08.13.11.19a8.8721,8.8721,0,0,1,.84,1.65c0,.01.01.02.01.03a15.4585,15.4585,0,0,1,.46,2.29c.01.12.03.23.04.35a22.6484,22.6484,0,0,1,.13,2.39A20.8443,20.8443,0,0,1,96.2656,115.21Z" style="fill:#efe8e8"/><path d="M104.8755,100.63a28.8812,28.8812,0,0,1-.35,4.53,22.8793,22.8793,0,0,1-7.42,13.71,29.9743,29.9743,0,0,1-9.76,6.06,33.6365,33.6365,0,0,0,5.33-5.54.6475.6475,0,0,0,.09-.08,24.2579,24.2579,0,0,0,3.5-4.1,20.8443,20.8443,0,0,0,3.53-11.93,22.6484,22.6484,0,0,0-.13-2.39c-.01-.12-.03-.23-.04-.35a15.4585,15.4585,0,0,0-.46-2.29c0-.01-.01-.02-.01-.03a8.8721,8.8721,0,0,0-.84-1.65c-.03-.06-.07-.12-.11-.19a1.7231,1.7231,0,0,0-.15-.22c-.16-.22-.34-.46-.53-.69-.07-.07-.13-.15-.21-.23a7.0561,7.0561,0,0,0-.54-.57c0-.01-.01-.03-.01-.04a40.73,40.73,0,0,0-3.24-7.32,81.5636,81.5636,0,0,0-10.41-13.62v-.01c-.06-.06-.11-.11-.16-.16-1.93-2.01-4.08-4.07-6.48-6.18a29.4592,29.4592,0,0,1,19.82,9.65V77a24.5653,24.5653,0,0,1,3.9,5.55,34.6469,34.6469,0,0,1,4.5,14.75c.07.66.12,1.31.15,1.96C104.8654,99.72,104.8755,100.18,104.8755,100.63Z" style="fill:#c4b1b1"/><path d="M65.3611,68.7785a1.57,1.57,0,0,1-.2554-.7676,6.0544,6.0544,0,0,1-.0532-1.26q.0381-.6628.4765-.2495A4.8907,4.8907,0,0,1,66.8,68.926q.0917.5961-.1538.7246t-.6836-.2856Q65.5246,68.9519,65.3611,68.7785Z" style="fill:#efe8e8;fill-rule:evenodd"/><path d="M82.3733,68.6921a1.5655,1.5655,0,0,1,.5576-.5859,6.0574,6.0574,0,0,1,1.0879-.6392q.602-.2777.4433.3032a4.8979,4.8979,0,0,1-1.5429,2.2613q-.4834.36-.7119.2045c-.1534-.1044-.1758-.35-.0694-.7377S82.3225,68.8425,82.3733,68.6921Z" style="fill:#c4b1b1;fill-rule:evenodd"/><path d="M81.7971,68.6071a1.5578,1.5578,0,0,1,.083-.8051,6.0469,6.0469,0,0,1,.47-1.17q.3077-.5881.5371-.0313a4.8863,4.8863,0,0,1,.16,2.7329q-.1611.5815-.4385.5972c-.1836.0112-.3525-.1695-.5049-.5415S81.8489,68.757,81.7971,68.6071Z" style="fill:#c4b1b1;fill-rule:evenodd"/><path d="M89.6855,81.77a8.2281,8.2281,0,0,1-8.22,8.22h-12.93a8.2456,8.2456,0,0,1-8.22-8.22,8.263,8.263,0,0,1,8.22-8.23h12.93a9.508,9.508,0,0,1,1.31.1A8.2732,8.2732,0,0,1,89.6855,81.77Z" style="fill:#dd999f;fill-rule:evenodd"/><path d="M68.5756,70.51a1.6236,1.6236,0,0,1-.72,1.39,8.0672,8.0672,0,0,1-3.41,1.79,1.4138,1.4138,0,0,0-.64.27,1.988,1.988,0,0,0-.42.89,3.647,3.647,0,0,1-2.34,1.87,14.904,14.904,0,0,1-6.94.85,2.7651,2.7651,0,0,1-.9-.22,1.5634,1.5634,0,0,1-.4-.27,25.2984,25.2984,0,0,1,2.46-2.39,30.1,30.1,0,0,1,8.55-5.5c1.02.14,2.07.1,3.09.25C67.6054,69.54,68.4555,69.81,68.5756,70.51Z" style="fill:#353130"/><path d="M60.8855,71.63a1.9194,1.9194,0,0,0-1.62,2.95,1.9381,1.9381,0,0,0,1.62.87,1.917,1.917,0,0,0,1.61-.88,1.8869,1.8869,0,0,0,.3-1.03A1.91,1.91,0,0,0,60.8855,71.63Z" style="fill:#0f0d0d"/><path d="M88.71,71.63a1.9194,1.9194,0,0,0-1.62,2.95,1.938,1.938,0,0,0,1.62.87,1.9168,1.9168,0,0,0,1.61-.88,1.8861,1.8861,0,0,0,.3-1.03A1.91,1.91,0,0,0,88.71,71.63Z" style="fill:#0f0d0d"/><path d="M120.4455,97.03a18.3734,18.3734,0,0,1-3.89,2,46.0827,46.0827,0,0,1-15.2-6.36c-.44-1.41-.93-3-1.32-4.28l.34-4.51a40.9409,40.9409,0,0,0,6.66,1.55,25.12,25.12,0,0,1,1.82,2.04,30.9894,30.9894,0,0,1-3.62-.53l.36.95a12.6305,12.6305,0,0,0,8.17,8.18h.01C115.2155,97.44,117.6655,97.56,120.4455,97.03Z" style="fill:#c4b1b1;fill-rule:evenodd"/><path d="M112.7356,94.44c-.18-.07-.35-.14-.52-.22a3.3726,3.3726,0,0,1-.39-.18c-.12-.06-.25-.13-.37-.19-.04-.02-.07-.04-.09-.05-.27-.15-.54-.31-.79-.48-.01,0-.02-.01-.03-.02a2.178,2.178,0,0,1-.25-.17,11.7991,11.7991,0,0,1-1.73-1.44c-.19-.19-.37-.38-.54-.58-.18-.2-.35-.4-.52-.62-.17-.21-.33-.43-.49-.66s-.31-.46-.46-.7-.3-.49-.44-.74l-.47-.9c.43.08.86.16,1.29.22.17.03.34.05.51.07.3.05.6.08.9.11.18.02.36.03.54.06.12.01.23.02.35.02A23.2392,23.2392,0,0,1,112.7356,94.44Z" style="fill:#ce8091;fill-rule:evenodd"/><path d="M89.6855,81.77a8.2281,8.2281,0,0,1-8.22,8.22h-4.37s5.5-2.02,7.1-6.25c1.3-3.43-.64-8.36-1.42-10.1A8.2732,8.2732,0,0,1,89.6855,81.77Z" style="fill:#ce8091;fill-rule:evenodd"/><circle cx="84.1938" cy="80.8588" r="2.8767" style="fill:#aa7583"/><circle cx="65.634" cy="80.8588" r="2.8767" style="fill:#aa7583"/><path d="M48.9186,90.9674A2.7429,2.7429,0,0,0,51.6755,91a6.6129,6.6129,0,0,0,.9667-.8383C53.8213,89.06,55.36,88.31,56.2441,86.96a1.5868,1.5868,0,0,0,.3052-.8055,1.5465,1.5465,0,0,0-.6713-1.165,3.7164,3.7164,0,0,0-4.0448-.3445,6.8635,6.8635,0,0,0-2.22,2.39,31.9143,31.9143,0,0,0-1.698,2.873A2.169,2.169,0,0,0,48.9186,90.9674Z" style="fill:#353130"/><path d="M94.6518,80.8985a3.5147,3.5147,0,0,1,2.554.3905,4.8052,4.8052,0,0,1,1.7849,1.5173,3.2981,3.2981,0,0,1,.587,2.24,1.2229,1.2229,0,0,1-.253.6615,1.3009,1.3009,0,0,1-.5273.3275,2.73,2.73,0,0,1-1.8591.1,2.5988,2.5988,0,0,1-1.4466-1.4206,5.1613,5.1613,0,0,1-.3823-2.0344,2.6231,2.6231,0,0,1-.52.0469.9083.9083,0,0,1-.4654-.1355.958.958,0,0,1-.4321-.5139C93.58,81.5179,94.1847,81.0361,94.6518,80.8985Z" style="fill:#0f0d0d"/><path d="M34.4244,86.9164a.5931.5931,0,0,1-.46.1654,6.2594,6.2594,0,0,1-3.5726-.9429c-.1263-.0791-.2669-.2061-.224-.3489.0472-.157.2619-.17.4248-.151.7242.0837,1.4524.1988,2.18.25.5166.0364.9137-.0843,1.3658.2717C34.3382,86.3184,34.6259,86.656,34.4244,86.9164Z" style="fill:#353130"/><path d="M104.8755,100.63a28.8812,28.8812,0,0,1-.35,4.53c-.19-.02-.39-.04-.58-.06a.9.9,0,0,1-.64-.23c-.18-.22-.12-.55-.11-.85a5.313,5.313,0,0,0-.61-1.81,1.5893,1.5893,0,0,1,.18-1.79,2.268,2.268,0,0,1,.66-.33,5.4266,5.4266,0,0,0,1.14-.61,2.6912,2.6912,0,0,0,.28-.22C104.8654,99.72,104.8755,100.18,104.8755,100.63Z" style="fill:#0f0d0d"/></svg>