<svg id="Camada_1" data-name="Camada 1" xmlns="http://www.w3.org/2000/svg" viewBox="0 0 150 150"><path d="M48.159,101.9a.2655.2655,0,0,1-.06.05h.08A.1609.1609,0,0,1,48.159,101.9Zm17.22,47.93h-.01c-.04,0-.04,0,.02.01a.3405.3405,0,0,0,.14.03h.03C65.4988,149.86,65.4388,149.84,65.379,149.83Zm0,0h-.01c-.04,0-.04,0,.02.01a.3405.3405,0,0,0,.14.03h.03C65.4988,149.86,65.4388,149.84,65.379,149.83Zm47.7-30.94a28.2558,28.2558,0,0,0-2.96-7.39l-.35-.56a.6141.6141,0,0,0-.07-.18c-.11-.15-.22-.31-.33-.46l-.05-.08h-.01a37.0928,37.0928,0,0,0-7.56-8.42,32.7975,32.7975,0,0,1-2.46,8.87,26.1517,26.1517,0,0,1-7.85,10.5c-.3.24-.62.47-.94.69-.5.36-1.03.69-1.58,1.01a25.4844,25.4844,0,0,1-13.15,3.18c-.33,0-.66-.01-1-.02h-.05a29.2779,29.2779,0,0,1-13.45-3.52c-.34-.19-.67-.39-.99-.59-.43-.26-.83-.54-1.23-.83-9.87-7.05-10.95-19.14-10.95-19.14-3.24,2.48-5.48,5.64-7.64,8.85a23.2336,23.2336,0,0,0-3.3,7.71,1.2633,1.2633,0,0,0-.06.21c-.32,1.02-1.5,5.53.48,8.81a6.54,6.54,0,0,0,2.39,2.3,6.0193,6.0193,0,0,0,.67.34,4.788,4.788,0,0,0,.65.25,5.7283,5.7283,0,0,0,1.21.29,5.9527,5.9527,0,0,0,1.11.04l.3-.03c.11-.01.22-.03.33-.05s.22-.05.33-.07a3.3749,3.3749,0,0,0,.48-.14,2.7385,2.7385,0,0,0,.4-.15c.23-.1.46-.21.67-.32a8.1839,8.1839,0,0,0,1.65-1.21,9.77,9.77,0,0,0,1.57-1.84l.43-.38,1.07-.94c.04.09.07.16.1.23,0,.01.01.01.01.02a2.0214,2.0214,0,0,1,.09.3c.11.61.24,1.21.38,1.8.03.15.06.29.1.45a40.2451,40.2451,0,0,0,3.96,10.06c.09.18.18.34.27.49v.01a3.3747,3.3747,0,0,1,.23.4c.25.44.52.88.79,1.31v.01c0,.01.01.02.02.04a.2958.2958,0,0,1,.03.04c.02.03.04.07.07.12a67.3021,67.3021,0,0,0,4.24,6.09,23.6726,23.6726,0,0,0,6.83.89,13.4112,13.4112,0,0,0,3.64-.57c.2-.48.36-.96.5-1.41.09-.24.16-.46.24-.67a.1854.1854,0,0,0,.02-.07c.21-.53.41-1.03.59-1.48l.01-.01a2.03,2.03,0,0,1,1.82-.79,2.2784,2.2784,0,0,1,.67.17,5.71,5.71,0,0,1,1.08.59c.09.06.17.12.26.18a4.4928,4.4928,0,0,1,.56,1.14c.06.17.12.34.19.5a5.7646,5.7646,0,0,0,.85,1.95,21.7164,21.7164,0,0,0,4.95.78,26.6286,26.6286,0,0,0,5.61-.28c5.25-5.05,8.85-16.71,9.12-17.62a.1087.1087,0,0,0,.01-.05.01.01,0,0,0,.01-.01c.43-1.1.85-2.21,1.27-3.33.11-.29.24-.57.37-.85.01.01.01.02.03.03a23.646,23.646,0,0,0,2.54,2.81v.01c.05.04.1.1.16.15.05.05.1.1.16.15a5.8988,5.8988,0,0,0,.49.41c.17.13.33.24.49.34a4.3863,4.3863,0,0,0,.51.29c.15.07.31.14.46.2a6.507,6.507,0,0,1-1.9-1.24c-.11-.1-.22-.21-.32-.3a7.1347,7.1347,0,0,1,.55-1.27c0-.01.01-.01.01-.02.09-.17.19-.35.31-.54.15.26.31.51.47.75a10.5115,10.5115,0,0,0,1.79,2.03,8.7838,8.7838,0,0,0,1.39,1.03,3.3174,3.3174,0,0,0,.46-.02q.1948-.015.33-.03h.03a.44.44,0,0,1,.1-.02.06.06,0,0,1,.04-.01h.02a.58.58,0,0,1,.1-.02c.01-.01.01-.01.02-.01h.03a.031.031,0,0,1,.02-.01s.1-.02.28-.06a.5567.5567,0,0,0,.12-.04.9306.9306,0,0,0,.13-.04c.06-.02.13-.04.2-.07.14-.05.29-.12.46-.19.09-.04.17-.08.26-.13.01,0,.01,0,.01-.01a2.6292,2.6292,0,0,0,.23-.13,6.7155,6.7155,0,0,0,1.72-1.47,26.3954,26.3954,0,0,0-2.06-7.59A35.8974,35.8974,0,0,1,113.0789,118.89Z" style="fill:#353130"/><path d="M47.7812,128.8a7.2741,7.2741,0,0,1-3.21,1.8c-.11.02-.22.05-.33.07s-.22.04-.33.05l-.3.03a5.9513,5.9513,0,0,1-1.11-.04,5.7292,5.7292,0,0,1-1.21-.29,8.4646,8.4646,0,0,1-1.28-.59,6.5391,6.5391,0,0,1-2.39-2.3c1.95.44,4.89.37,8.05-2.42a11.3512,11.3512,0,0,1,2.1,3.67C47.7812,128.79,47.7812,128.79,47.7812,128.8Z"/><path d="M40.0112,129.83a8.4646,8.4646,0,0,0,1.28.59,6.317,6.317,0,0,1-1.32-.59,6.5391,6.5391,0,0,1-2.39-2.3c-1.98-3.28-.8-7.79-.48-8.81a27.8714,27.8714,0,0,1,8.57,6.39c-3.16,2.79-6.1,2.86-8.05,2.42A6.5391,6.5391,0,0,0,40.0112,129.83Z" style="fill:#0f0d0d"/><path d="M113.36,124.38a9.1436,9.1436,0,0,1-1.92,4.26l-.01.01a6.534,6.534,0,0,1-1.72,1.44c-.08.05-.15.09-.23.13,0,.01,0,.01-.01.01-.09.05-.17.09-.26.13-.17.07-.32.14-.46.19-.07.03-.14.05-.2.07a.9288.9288,0,0,1-.13.04.5638.5638,0,0,1-.12.04c-.18.04-.28.06-.28.06a.031.031,0,0,0-.02.01h-.03c-.01,0-.01,0-.02.01a.5755.5755,0,0,0-.1.02h-.02a.06.06,0,0,0-.04.01.44.44,0,0,0-.1.02h-.03q-.135.015-.33.03a3.3167,3.3167,0,0,1-.46.02h-.03c-.1,0-.2,0-.31-.01-.12-.01-.23-.01-.35-.03a1.1342,1.1342,0,0,1-.25-.03,3.7283,3.7283,0,0,1-.44-.08c-.11-.02-.22-.05-.34-.08-.2-.06-.41-.13-.61-.21h-.01a3.9973,3.9973,0,0,1-.42-.2,4.4028,4.4028,0,0,1-.51-.29c-.16-.1-.32-.21-.49-.34a5.9152,5.9152,0,0,1-.49-.41c-.06-.05-.11-.1-.16-.15-.06-.05-.11-.11-.16-.15v-.01c.02-.07.05-.15.08-.24l.12-.29c.09-.22.21-.48.36-.77.1-.16.2-.34.31-.52a10.5775,10.5775,0,0,1,.76-1.11,19.9489,19.9489,0,0,1,3.58-3.59c.56-.44,1.18-.89,1.86-1.34a35.9292,35.9292,0,0,1,3.71-2.14c.01-.01.02-.01.03-.02A13.6832,13.6832,0,0,1,113.36,124.38Z" style="fill:#0f0d0d"/><path d="M113.36,124.38a9.1436,9.1436,0,0,1-1.92,4.26l-.01.01a6.534,6.534,0,0,1-1.72,1.44c-.08.05-.15.09-.23.13,0,.01,0,.01-.01.01-.09.05-.17.09-.26.13-.17.07-.32.14-.46.19-.07.03-.14.05-.2.07a.9288.9288,0,0,1-.13.04.5638.5638,0,0,1-.12.04c-.18.04-.28.06-.28.06a.031.031,0,0,0-.02.01h-.03c-.01,0-.01,0-.02.01a.5755.5755,0,0,0-.1.02h-.02a.06.06,0,0,0-.04.01.44.44,0,0,0-.1.02h-.03q-.135.015-.33.03a3.3167,3.3167,0,0,1-.46.02h-.03c-.1,0-.2,0-.31-.01-.12-.01-.23-.01-.35-.03a1.1342,1.1342,0,0,1-.25-.03,3.7283,3.7283,0,0,1-.44-.08c-.11-.02-.22-.05-.34-.08-.2-.06-.41-.13-.61-.21h-.01a3.9973,3.9973,0,0,1-.42-.2,4.4028,4.4028,0,0,1-.51-.29c-.16-.1-.32-.21-.49-.34a5.9152,5.9152,0,0,1-.49-.41c-.06-.05-.11-.1-.16-.15-.06-.05-.11-.11-.16-.15v-.01c.02-.07.05-.15.08-.24l.12-.29.36-.77s6.59,2.65,6.51-6.56a35.9292,35.9292,0,0,1,3.71-2.14c.01-.01.02-.01.03-.02A13.6832,13.6832,0,0,1,113.36,124.38Z"/><path d="M76.5289,143.64a5.71,5.71,0,0,0-1.08-.59,2.2784,2.2784,0,0,0-.67-.17,2.03,2.03,0,0,0-1.82.79l-.01.01c-.18.45-.38.95-.59,1.48a.1854.1854,0,0,1-.02.07c-.08.21-.15.43-.24.67-.14.45-.3.93-.5,1.41a13.4112,13.4112,0,0,1-3.64.57,13.4709,13.4709,0,0,0,2.16-3.38C71.2388,141.82,75.159,141.9,76.5289,143.64Z" style="fill:#121419"/><path d="M110.12,111.5l-.35-.56a.6141.6141,0,0,0-.07-.18c-.11-.15-.22-.31-.33-.46l-.05-.08h-.01a37.0946,37.0946,0,0,0-7.56-8.42,32.8,32.8,0,0,1-2.46,8.87,20.001,20.001,0,0,1,10.08,10.36,35.9292,35.9292,0,0,1,3.71-2.14A28.2479,28.2479,0,0,0,110.12,111.5Z" style="fill:#121419"/><path d="M104.5689,130.44c-.15-.06-.31-.13-.46-.2a4.3863,4.3863,0,0,1-.51-.29c-.16-.1-.32-.21-.49-.34a5.8988,5.8988,0,0,1-.49-.41c-.06-.05-.11-.1-.16-.15-.06-.05-.11-.11-.16-.15v-.01a23.646,23.646,0,0,1-2.54-2.81c-.02-.01-.02-.02-.03-.03-.13.28-.26.56-.37.85-.42,1.12-.84,2.23-1.27,3.33a.01.01,0,0,1-.01.01.1087.1087,0,0,1-.01.05c-.27.91-3.87,12.57-9.12,17.62a26.6286,26.6286,0,0,1-5.61.28c3.01-2.91,7.68-8.61,11.21-18.41a77.3812,77.3812,0,0,0,3.19-10.34,33.6286,33.6286,0,0,0,5.12,8.15.0788.0788,0,0,0,.04.04,7.1347,7.1347,0,0,0-.55,1.27c.1.09.21.2.32.3A6.507,6.507,0,0,0,104.5689,130.44Z" style="fill:#121419"/><path d="M50.34,118.91a22.0208,22.0208,0,0,1-4.67,6.2,11.3512,11.3512,0,0,1,2.1,3.67c.01.01.01.01.01.02a9.9579,9.9579,0,0,0,1.14-1.23c.18-.16.51-.45.85-.75a14.6218,14.6218,0,0,1,1.18-.95,2.0086,2.0086,0,0,1,.09.3c.11.61.24,1.21.38,1.8.03.15.06.29.1.45a40.2375,40.2375,0,0,0,3.96,10.06c-2.05-4.02-4.51-16.33-5.04-19.04C50.38,119.1,50.34,118.91,50.34,118.91Z" style="fill:#121419"/><path d="M61.129,146.99c.16.21.32.4.48.6a6.9713,6.9713,0,0,0,.88.91,5.7515,5.7515,0,0,0,2.91,1.5h.53c.16-.15.32-.3.49-.47a18.9957,18.9957,0,0,0,1.54-1.65A23.6726,23.6726,0,0,1,61.129,146.99Zm4.25,2.84h-.01c-.04,0-.04,0,.02.01a.3405.3405,0,0,0,.14.03h.03C65.4988,149.86,65.4388,149.84,65.379,149.83Z" style="fill:#0f0d0d"/><path d="M65.379,149.83c.06.01.12.03.18.04h-.03a.3405.3405,0,0,1-.14-.03c-.06-.01-.06-.01-.02-.01Z" style="fill:#353130"/><path d="M71.5989,147.31a3.8757,3.8757,0,0,1-2.79,2.69h-2.88c.16-.15.32-.3.49-.47a18.9957,18.9957,0,0,0,1.54-1.65A13.4112,13.4112,0,0,0,71.5989,147.31Z"/><path d="M88.9488,147.91a8.3121,8.3121,0,0,1-3.24,2.09h-3.3a6.7024,6.7024,0,0,1-.83-.25c.48-.39,1.08-.9,1.76-1.56A26.6286,26.6286,0,0,0,88.9488,147.91Z"/><path d="M83.3389,148.19c-.68.66-1.28,1.17-1.76,1.56a6.4,6.4,0,0,1-.84-.34c-.17-.08-.33-.17-.49-.26a3.0105,3.0105,0,0,1-.42-.27,5.2684,5.2684,0,0,1-1.44-1.47A21.7164,21.7164,0,0,0,83.3389,148.19Z" style="fill:#0f0d0d"/><path d="M73.2188,133.98v.04a2.4369,2.4369,0,0,1-.01.27v.03a7.6534,7.6534,0,0,1-.28,1.8,1.0426,1.0426,0,0,1-.32.46,1.7723,1.7723,0,0,1-.56.31c-.07.03-.15.05-.23.08a21.42,21.42,0,0,1-5.16.22.1272.1272,0,0,1-.06-.01.3188.3188,0,0,1-.19-.03.6045.6045,0,0,1-.19-.06c-.05-.03-.09-.05-.14-.08a1.757,1.757,0,0,1-.62-.69c-.04-.07-.09-.15-.13-.23a9.6922,9.6922,0,0,1-.73-2.37.0139.0139,0,0,1,0-.02.8817.8817,0,0,1,.27-.67.6694.6694,0,0,1,.28-.14,5.8855,5.8855,0,0,1,1.87.2.09.09,0,0,1,.05.01c.09.02.19.05.29.07a13.44,13.44,0,0,0,3.53.19.5685.5685,0,0,0,.13-.01c.22-.01.46-.02.7-.04h.02c.07-.01.15-.01.23-.02C72.9888,133.14,73.1888,133.75,73.2188,133.98Z" style="fill:#727272"/><path d="M91.4388,122.36s-1.93,14.38-6.84,15.57a37.8926,37.8926,0,0,1-9.16.46,37.8068,37.8068,0,0,1-9.15-.46c-4.92-1.19-6.84-15.57-6.84-15.57l.83-.44c.32.2.65.4.99.59a29.2779,29.2779,0,0,0,13.45,3.52h.05c.34.01.67.02,1,.02a25.4844,25.4844,0,0,0,13.15-3.18c.55-.32,1.08-.65,1.58-1.01Z" style="fill:#53575e"/><path d="M74.7188,126.03a17.7188,17.7188,0,0,1-1.43,5.36c-1.35,2.45-7.77.67-11.66,0a2.7274,2.7274,0,0,1-1.91-2c-.85-2.25-.81-5.91-.67-8.3a21.5468,21.5468,0,0,0,2.22,1.42,29.1325,29.1325,0,0,0,13.3,3.51A.7554.7554,0,0,0,74.7188,126.03Z" style="fill:#848484"/><path d="M88.8589,131.39c-3.6.62-9.37,2.19-11.28.46a.7641.7641,0,0,1-.09-.09,1.5414,1.5414,0,0,1-.29-.37,17.5885,17.5885,0,0,1-1.43-5.34,25.4844,25.4844,0,0,0,13.15-3.18c.42-.24.83-.49,1.22-.76.43-.29.85-.59,1.26-.91.01-.01.03-.02.04-.03C91.6487,124.71,91.6189,130.9,88.8589,131.39Z" style="fill:#848484"/><path d="M88.8589,131.39c-3.6.62-9.37,2.19-11.28.46a.7641.7641,0,0,1-.09-.09,13.8983,13.8983,0,0,0,6.15-.04c4.22-.87,6.07-4.78,6.5-9.61.43-.29.85-.59,1.26-.91.01-.01.03-.02.04-.03C91.6487,124.71,91.6189,130.9,88.8589,131.39Z" style="fill:#616770"/><path d="M74.7188,126.03a17.7188,17.7188,0,0,1-1.43,5.36c-1.35,2.45-7.77.67-11.66,0a2.7274,2.7274,0,0,1-1.91-2,8.0616,8.0616,0,0,0,3.43,1.49c3,.55,7.86,2.2,11.42-4.86A.7554.7554,0,0,0,74.7188,126.03Z" style="fill:#616770"/><path d="M85.7588,133.7a.0139.0139,0,0,1,0,.02c-.33,1.7-.94,3.46-2.06,3.47-2.09,0-5.54.35-6.22-.93-.02-.04-.04-.09-.06-.14a7.02,7.02,0,0,1-.28-2.1c.01-.18.16-.89,1.25-.73.08.01.16.01.23.02h.02c.29.02.57.04.83.05a13.44,13.44,0,0,0,3.53-.19c.1-.02.2-.05.29-.07a.09.09,0,0,1,.05-.01,5.8845,5.8845,0,0,1,1.87-.2.67.67,0,0,1,.28.14.5219.5219,0,0,1,.1.11A.9994.9994,0,0,1,85.7588,133.7Z" style="fill:#848484"/><path d="M73.2188,133.98v.04a2.4369,2.4369,0,0,1-.01.27v.03a6.3689,6.3689,0,0,1-.27,1.8,1.0625,1.0625,0,0,1-.33.46,1.7723,1.7723,0,0,1-.56.31c-.07.03-.15.05-.23.08a21.42,21.42,0,0,1-5.16.22.1272.1272,0,0,1-.06-.01.3188.3188,0,0,1-.19-.03.6045.6045,0,0,1-.19-.06c-.05-.03-.09-.05-.14-.08a2.1069,2.1069,0,0,1-.62-.69c-.01-.01-.01-.02-.02-.04a1.17,1.17,0,0,1-.11-.19,9.6922,9.6922,0,0,1-.73-2.37.0139.0139,0,0,1,0-.02.8817.8817,0,0,1,.27-.67.6694.6694,0,0,1,.28-.14,5.8855,5.8855,0,0,1,1.87.2.09.09,0,0,1,.05.01c.09.02.19.05.29.07a13.44,13.44,0,0,0,3.53.19.5685.5685,0,0,0,.13-.01c.22-.01.46-.02.7-.04h.02c.07-.01.15-.01.23-.02.66-.1.97.12,1.12.35A.7675.7675,0,0,1,73.2188,133.98Z" style="fill:#848484"/><path d="M85.7588,133.7a.0139.0139,0,0,1,0,.02c-.33,1.7-.94,3.46-2.06,3.47-2.09,0-5.54.35-6.22-.93a10.525,10.525,0,0,0,2.21.38c.8-.03,4.51.14,5.9-3.5A.9994.9994,0,0,1,85.7588,133.7Z" style="fill:#616770"/><path d="M73.2188,133.98v.04a2.4369,2.4369,0,0,1-.01.27v.03a6.3689,6.3689,0,0,1-.27,1.8,1.0625,1.0625,0,0,1-.33.46,1.7723,1.7723,0,0,1-.56.31c-.07.03-.15.05-.23.08a21.42,21.42,0,0,1-5.16.22.1272.1272,0,0,1-.06-.01.3188.3188,0,0,1-.19-.03.6045.6045,0,0,1-.19-.06c-.05-.03-.09-.05-.14-.08a2.1069,2.1069,0,0,1-.62-.69c-.01-.01-.01-.02-.02-.04a7.5435,7.5435,0,0,0,3.62.34,5.67,5.67,0,0,0,4.03-2.98A.7675.7675,0,0,1,73.2188,133.98Z" style="fill:#616770"/><path d="M103.125,78.1855a1.0814,1.0814,0,0,1-.1647.1359,1.775,1.775,0,0,1-.1708.1342l-.0078.0043-.0079.0043a2.7143,2.7143,0,0,1-.3177.21,3.065,3.065,0,0,1-.3568.185,4.26,4.26,0,0,1-3.1317.1165,9.2261,9.2261,0,0,0-.5364-2.8205,8.7627,8.7627,0,0,0-1.3036-2.4,6.9888,6.9888,0,0,0-.8122-.8887c-.2025-.1842-.4173-.372-.6537-.553a4.0924,4.0924,0,0,1,.8788-1.4529c1.599.9413,3.9444,2.6139,4.9729,4.8089A10.6555,10.6555,0,0,0,103.125,78.1855Z" style="fill:#b5a5a3"/><path d="M96.5405,70.86a4.0924,4.0924,0,0,0-.8788,1.4529c-.1873-.1468-.3866-.2972-.5938-.4433a5.3461,5.3461,0,0,1,.7054-1.4444C95.9936,70.5486,96.2547,70.6907,96.5405,70.86Z" style="fill:#121419"/><path d="M80.7789,86.34c-.05,1.23-1.28,2.44-2.25,3.2-.04-.02-.09-.04-.13-.06a10.8535,10.8535,0,0,0-1.99-.71,5.5006,5.5006,0,0,0-1.3-.16h-.3a5.2887,5.2887,0,0,0-1.51.16,12.1988,12.1988,0,0,0-1.94.68c-.95-.76-2.09-1.93-2.14-3.11-.06-1.54,3.84-.77,5.78-.29C76.9488,85.57,80.8389,84.8,80.7789,86.34Z" style="fill:#494d54"/><path d="M104.3485,76.2283a5.481,5.481,0,0,1-.2827.72c-.0281.051-.05.1037-.0764.1486a1.92,1.92,0,0,1-.149.2393,3.3082,3.3082,0,0,1-.2921.4144c-.0612.0741-.1284.1465-.1957.219a.5532.5532,0,0,1-.0541.05c-.0479.0517-.102.1017-.1561.1516-.0018.0061-.01.01-.0174.0147a10.6555,10.6555,0,0,1-1.6116-2.5168c-1.0285-2.195-3.3739-3.8676-4.9729-4.8089a3.9254,3.9254,0,0,1,1.2682-.9181c.0374-.0153.0766-.0367.12-.05.0139-.0025.0234-.0129.0373-.0154q.1566-.0627.3077-.1073c.1086-.034.2155-.0619.3223-.09a.8278.8278,0,0,1,.1171-.0184,1.8619,1.8619,0,0,1,.2483-.0392,5.2467,5.2467,0,0,1,5.3871,6.6071Z" style="fill:#ccc2ba"/><path d="M104.0082,79.0555a7.97,7.97,0,0,1-.8832-.87c.0078-.0043.0156-.0086.0174-.0147.0541-.05.1082-.1.1561-.1516a.5532.5532,0,0,0,.0541-.05c.0673-.0725.1345-.1449.1957-.219a3.3082,3.3082,0,0,0,.2921-.4144,1.92,1.92,0,0,0,.149-.2393c.0263-.0449.0483-.0976.0764-.1486a5.481,5.481,0,0,0,.2827-.72,5.2467,5.2467,0,0,0-5.3871-6.6071,1.8619,1.8619,0,0,0-.2483.0392.8278.8278,0,0,0-.1171.0184c-.1068.028-.2137.0559-.3223.09q-.1512.0446-.3077.1073c-.0139.0025-.0234.0129-.0373.0154-.0434.0136-.0826.035-.12.05a3.9254,3.9254,0,0,0-1.2682.9181c-.2858-.1691-.5469-.3112-.7672-.4348a4.7577,4.7577,0,0,1,.9176-1.001,4.6125,4.6125,0,0,1,1.101-.6841c2.7348-1.2323,6.1264.2136,7.5746,3.2219A5.7439,5.7439,0,0,1,104.0082,79.0555Z" style="fill:#353130"/><path d="M104.0082,79.0555a4.7884,4.7884,0,0,1-.973.5835,4.7264,4.7264,0,0,1-.6265.231,5.3675,5.3675,0,0,1-3.4421-.1716,6.2987,6.2987,0,0,0,.001-.7231,4.26,4.26,0,0,0,3.1317-.1165,3.065,3.065,0,0,0,.3568-.185,2.7143,2.7143,0,0,0,.3177-.21l.0079-.0043.0078-.0043a1.775,1.775,0,0,0,.1708-.1342.6278.6278,0,0,0,.1647-.1359A7.97,7.97,0,0,0,104.0082,79.0555Z" style="fill:#121419"/><path d="M54.863,75.2241h-.0062l-3.7594,1.4834a7.0178,7.0178,0,0,0,2.2315-5.3567,3.2671,3.2671,0,0,0-.9-2.0223v-.0063a7.05,7.05,0,0,0-2.2441-1.5595h-.0254a6.5862,6.5862,0,0,0-4.1713,2.1617c-2.2441,2.4977-2.2061,6.0985.0824,8.0574,2.2948,1.9588,5.9653,1.5214,8.2158-.97a6.4075,6.4075,0,0,0,1.2679-2.06Z" style="fill:#353130"/><path d="M55.6808,74.5839c-.038.12-.0824.2472-.1268.3676l-.691.2726a4.3668,4.3668,0,0,0-1.0206-5.1159,3.981,3.981,0,0,0-1.4137-.78v-.0063a7.05,7.05,0,0,0-2.2441-1.5595,5.1262,5.1262,0,0,1,5.4962,6.8212Z" style="fill:#121419"/><path d="M54.8568,75.2241a5.1647,5.1647,0,0,1-.9448,1.4771,4.89,4.89,0,0,1-6.72.7924,4.5934,4.5934,0,0,1-.07-6.5929,5.14,5.14,0,0,1,5.3061-1.5785v.0063a3.2671,3.2671,0,0,1,.9,2.0223,7.0178,7.0178,0,0,1-2.2315,5.3567Z" style="fill:#ccc2ba"/><path d="M54.8543,75.217h-.0062L51.0888,76.7A7.0178,7.0178,0,0,0,53.32,71.3437a3.2676,3.2676,0,0,0-.9-2.0223,3.9818,3.9818,0,0,1,1.4137.78A4.3666,4.3666,0,0,1,54.8543,75.217Z" style="fill:#b5a5a3"/><path d="M99.8089,78.9a9.952,9.952,0,0,0-.32-1.1,14.6155,14.6155,0,0,0-2.07-4.05,13.8817,13.8817,0,0,0-3.05-3.07,11.0769,11.0769,0,0,0-1.63-.99c-.39-.19-.8-.38-1.24-.55-.35-.14-.72-.28-1.1-.41,0,.21,0,.41.01.62a10.0023,10.0023,0,0,0,2.6,6.12,10.4527,10.4527,0,0,0,3.62,2.61v.01A10.0707,10.0707,0,0,0,99.8089,78.9Z" style="fill:#683d33"/><path d="M99.4888,77.8a8.0767,8.0767,0,0,1-3.19-.8,8.5412,8.5412,0,0,1-2.69-2.02,8.2161,8.2161,0,0,1-2.11-4.73,5.1487,5.1487,0,0,1,0-1.11c.44.17.85.36,1.24.55a11.0769,11.0769,0,0,1,1.63.99,13.8817,13.8817,0,0,1,3.05,3.07A14.6155,14.6155,0,0,1,99.4888,77.8Z" style="fill:#d8b295"/><path d="M104.6988,97.3a34.6455,34.6455,0,0,0-4.5-14.75c.01-.14.01-.27.01-.41a13.4973,13.4973,0,0,0-.4-3.24,9.952,9.952,0,0,0-.32-1.1,14.6155,14.6155,0,0,0-2.07-4.05,13.8817,13.8817,0,0,0-3.05-3.07,11.0769,11.0769,0,0,0-1.63-.99c-.39-.19-.8-.38-1.24-.55-.35-.14-.72-.28-1.1-.41-.46-.15-.94-.3-1.44-.43a.01.01,0,0,0-.01-.01c-.27-.07-.55-.15-.84-.22-.64-.16-1.3-.3-2-.44-.54-.1-1.09-.2-1.66-.28a67.1032,67.1032,0,0,0-17.47-.24c-1.17.14-2.31.31-3.39.52-.69.14-1.36.28-2,.44-.69.17-1.36.36-1.99.57-.37.12-.74.25-1.09.38-.55.21-1.06.43-1.54.67a11.0908,11.0908,0,0,0-1.63.99,13.4685,13.4685,0,0,0-3.05,3.07,14.6822,14.6822,0,0,0-2.07,4.06c-.13.36-.23.73-.33,1.11a14.3231,14.3231,0,0,0-.38,2.78q-4.2447,6.27-4.38,15.54-.2253,13.38,8.64,21.62,8.82,8.175,21.65,8.17a33.69,33.69,0,0,0,11-1.76,30.0176,30.0176,0,0,0,10.69-6.4q7.77-7.08,7.77-18.24A31.4981,31.4981,0,0,0,104.6988,97.3Zm-50.09-20.67c.32-.38,5.13-6.83,5.13-6.83l10.43-.21s5.21,7.53,5.21,10.53v.03a3.839,3.839,0,0,0-.11.59.7065.7065,0,0,1-.16.28,9.4855,9.4855,0,0,0-7.46-8.07,9.594,9.594,0,0,0-11.34,6.03,5.4678,5.4678,0,0,0-1.05,3.52S54.2889,77.01,54.6089,76.63Zm41.66,38.58a24.9711,24.9711,0,0,1-12.7,9.61l-3.53.82-2.24.27c-.77.07-1.56.1-2.37.1-.64,0-1.28-.02-1.9-.07a27.9,27.9,0,0,1-5.41-.87,24.5181,24.5181,0,0,1-10.61-5.99,22.1208,22.1208,0,0,1-7.57-16.83v-.33c.01-.48.04-.93.07-1.38.51-2.4,1.24-4.72,2.69-4.92,1.73-.23,3.21-2.19,3.36-2.4a.0349.0349,0,0,1,.02.01.0774.0774,0,0,1,.03.01,9.2668,9.2668,0,0,0,7.86-.07,21.4312,21.4312,0,0,0,2.08-.94c.38-.19.76-.39,1.14-.59.49-.26.98-.53,1.45-.79.91-.5,1.8-.98,2.66-1.37l.01-.01c.02,0,.03-.01.05-.02.17-.08.35-.15.52-.22.33-.13.64-.24.95-.33.16-.05.32-.09.47-.13a6.8743,6.8743,0,0,1,.72-.13c.08-.01.16-.01.24-.02h.02a3.1474,3.1474,0,0,1,.53-.01h.3a5.0714,5.0714,0,0,1,.66.04l.18.03a3.7413,3.7413,0,0,1,.46.09,10.8535,10.8535,0,0,1,1.99.71c.04.02.09.04.13.06a.4053.4053,0,0,1,.09.05c.22.09.44.2.66.31.67.34,1.36.72,2.06,1.1.12.06.23.13.35.19.26.14.53.29.8.43.38.21.78.42,1.17.61a21.2519,21.2519,0,0,0,2.07.94,9.2982,9.2982,0,0,0,8.38-.18h.01c.13.19,1.51,2.17,3.13,2.41l.15.03a1.9271,1.9271,0,0,1,1.07.93,14.1233,14.1233,0,0,1,1.2,4.53,22.6477,22.6477,0,0,1,.13,2.39A20.8421,20.8421,0,0,1,96.2688,115.21Z" style="fill:#353130"/><path d="M92.129,90.67a9.4125,9.4125,0,0,0-2-1.3,9.0353,9.0353,0,0,0,4.09-9.69,9.7662,9.7662,0,0,0-18.84.44v.03a3.839,3.839,0,0,0-.11.59,2.5123,2.5123,0,0,0-.04.27c-.05,0-.08.01-.12.01a9.4855,9.4855,0,0,0-7.46-8.07,9.594,9.594,0,0,0-11.34,6.03c-.08.23-.14.46-.2.7a9.0205,9.0205,0,0,0,4.09,9.69,9.4262,9.4262,0,0,0-4.12,3.86.0774.0774,0,0,1,.03.01,9.2668,9.2668,0,0,0,7.86-.07,21.4312,21.4312,0,0,0,2.08-.94c.38-.19.76-.39,1.14-.59.49-.26.98-.53,1.45-.79.91-.5,1.8-.98,2.66-1.37l.01-.01c.02,0,.03-.01.05-.02.17-.08.35-.15.52-.22.32-.12.64-.24.95-.33.16-.05.32-.09.47-.13a6.8743,6.8743,0,0,1,.72-.13c.08-.01.16-.01.24-.02h.02a3.1474,3.1474,0,0,1,.53-.01h.3a5.0714,5.0714,0,0,1,.66.04l.18.03a3.7413,3.7413,0,0,1,.46.09,10.8535,10.8535,0,0,1,1.99.71c.04.02.09.04.13.06a.4053.4053,0,0,1,.09.05c.22.1.44.2.66.31.67.34,1.36.72,2.06,1.1.12.06.23.13.35.19.26.14.53.29.8.43.38.21.78.42,1.17.61a21.2519,21.2519,0,0,0,2.07.94,9.2982,9.2982,0,0,0,8.38-.18A9.1978,9.1978,0,0,0,92.129,90.67Zm-27.12-4.69c-3.19,0-5.78-1.72-5.78-3.85a1.5645,1.5645,0,0,1,.02-.31l.03-.15c-.01-.02,0-.03.01-.04a.9484.9484,0,0,1,.05-.23.1421.1421,0,0,1,.02-.06.4983.4983,0,0,1,.06-.17,2.6565,2.6565,0,0,1,.27-.53,1.48,1.48,0,0,1,.19-.27,4.4559,4.4559,0,0,1,1.32-1.13,3.0485,3.0485,0,0,1,.4-.21,1.5106,1.5106,0,0,1,.18-.09,4.7,4.7,0,0,1,.52-.21,2.7911,2.7911,0,0,1,.31-.1,2.9767,2.9767,0,0,1,.32-.09,6.6519,6.6519,0,0,1,.91-.18,1.9371,1.9371,0,0,1,.24-.02,7.0318,7.0318,0,0,1,.93-.06c.13,0,.25,0,.37.01a2.6361,2.6361,0,0,1,.29.02,7.332,7.332,0,0,1,1.51.25c.08.02.16.05.23.07a5.6536,5.6536,0,0,1,2.4,1.35,2.5228,2.5228,0,0,1,.27.3,2.7149,2.7149,0,0,1,.41.63.5963.5963,0,0,1,.08.16,2.56,2.56,0,0,1,.23,1.06C70.7989,84.26,68.2088,85.98,65.0088,85.98Zm24.61-1.4a3.1681,3.1681,0,0,1-.37.27,3.1283,3.1283,0,0,1-.36.22,6.2727,6.2727,0,0,1-.74.35,6.7683,6.7683,0,0,1-.68.24,6.2263,6.2263,0,0,1-.62.15,2.2554,2.2554,0,0,1-.36.06,3.0327,3.0327,0,0,1-.42.06.8088.8088,0,0,1-.16.01,6.34,6.34,0,0,1-.76.04c-3.19,0-5.78-1.72-5.78-3.85a2.5564,2.5564,0,0,1,.23-1.06,1.505,1.505,0,0,1,.11-.22,3.002,3.002,0,0,1,.62-.83c.04-.04.08-.08.12-.12a.7107.7107,0,0,1,.13-.12,2.9735,2.9735,0,0,1,.28-.22q.1349-.105.3-.21a1.5741,1.5741,0,0,1,.22-.13c.07-.04.15-.08.22-.12a7.1585,7.1585,0,0,1,1.94-.67c.12-.02.25-.04.38-.06a8.4255,8.4255,0,0,1,3.73.29l.27.09c.09.03.18.07.27.11.13.05.26.11.38.17a4.65,4.65,0,0,1,1.88,1.55c.03.06.07.12.1.18a2.4012,2.4012,0,0,1,.32.8.7766.7766,0,0,1,.04.22c.01.12.02.23.02.35a2.03,2.03,0,0,1-.01.25,2.0088,2.0088,0,0,1-.09.48,1.3321,1.3321,0,0,1-.09.26,2.871,2.871,0,0,1-.32.6,1.9206,1.9206,0,0,1-.18.25c-.09.11-.19.21-.29.31A3.0829,3.0829,0,0,1,89.6189,84.58Z" style="fill:#848484"/><ellipse cx="65.0126" cy="82.1329" rx="5.7832" ry="3.8513" style="fill:#fff"/><ellipse cx="85.1516" cy="82.1329" rx="5.7832" ry="3.8513" style="fill:#fff"/><circle cx="65.0126" cy="82.1329" r="0.3651" style="fill:#001a2b;stroke:#001a2b;stroke-miterlimit:10"/><circle cx="85.5167" cy="82.1329" r="0.3651" style="fill:#001a2b;stroke:#001a2b;stroke-miterlimit:10"/><path d="M104.6988,97.3a34.6455,34.6455,0,0,0-4.5-14.75c.01-.14.01-.27.01-.41a13.4973,13.4973,0,0,0-.4-3.24,9.952,9.952,0,0,0-.32-1.1,14.6155,14.6155,0,0,0-2.07-4.05,13.8817,13.8817,0,0,0-3.05-3.07,11.0769,11.0769,0,0,0-1.63-.99c-.39-.19-.8-.38-1.24-.55-.35-.14-.72-.28-1.1-.41-.46-.15-.94-.3-1.44-.43.51.35,1,.7,1.45,1.05.38.3.75.6,1.09.9a16.3249,16.3249,0,0,1,4.8,6.75c.13.37.24.72.33,1.08v.01a15.4386,15.4386,0,0,1-1.97,11.7,37.1425,37.1425,0,0,1,2.74,5.64,1.9271,1.9271,0,0,1,1.07.93,14.1233,14.1233,0,0,1,1.2,4.53,22.6477,22.6477,0,0,1,.13,2.39,20.8421,20.8421,0,0,1-3.53,11.93,30.7151,30.7151,0,0,1-9.85,10.06,30.0176,30.0176,0,0,0,10.69-6.4q7.77-7.08,7.77-18.24A31.4981,31.4981,0,0,0,104.6988,97.3Z" style="fill:#121419"/><path d="M94.1089,92.99a9.2982,9.2982,0,0,1-8.38.18,21.2519,21.2519,0,0,1-2.07-.94c-.79-.39-1.56-.82-2.32-1.23,3.2.95,8.7,2.11,10.79-.33A9.1978,9.1978,0,0,1,94.1089,92.99Z" style="fill:#616770"/><path d="M68.639,90.85c-.84.46-1.71.94-2.59,1.38a21.4312,21.4312,0,0,1-2.08.94,9.2668,9.2668,0,0,1-7.86.07,13.2025,13.2025,0,0,0,6.66-.01C65.2588,92.47,66.2789,91.3,68.639,90.85Z" style="fill:#616770"/><path d="M80.679,86.99a4.4038,4.4038,0,0,1-2.06,2.6.4053.4053,0,0,0-.09-.05c-.04-.02-.09-.04-.13-.06a10.8535,10.8535,0,0,0-1.99-.71,3.7413,3.7413,0,0,0-.46-.09l-.18-.03a5.0714,5.0714,0,0,0-.66-.04h-.3a3.39,3.39,0,0,0-.55.01c-.08.01-.16.01-.24.02a6.8743,6.8743,0,0,0-.72.13,12.1988,12.1988,0,0,0-1.94.68c-.02.01-.03.02-.05.02a4.3637,4.3637,0,0,1-1.98-2.56c-.75-2.81,2.68-2.41,2.68-2.41a6.2032,6.2032,0,0,1,3.05.92,6.2114,6.2114,0,0,1,2.93-.85S81.4187,84.17,80.679,86.99Z" style="fill:#494d54"/><path d="M74.2588,88.62c-.08.01-.16.01-.24.02-.05-.03-.11-.06-.17-.1a6.6074,6.6074,0,0,0-1.12-.48,7.56,7.56,0,0,0-1.85-.28.6137.6137,0,0,1-.28-.18,1.1408,1.1408,0,0,1-.23-.32,1.9419,1.9419,0,0,1-.2-.96,1.1508,1.1508,0,0,1,.43-.87,1.06,1.06,0,0,1,.44-.21,1.2063,1.2063,0,0,1,.53.03,3.1007,3.1007,0,0,1,.91.58,5.1442,5.1442,0,0,1,1.05,1.21,6.6769,6.6769,0,0,1,.62,1.22C74.1988,88.42,74.2288,88.53,74.2588,88.62Z"/><path d="M79.8689,86.32a1.94,1.94,0,0,1-.2.96,1.1386,1.1386,0,0,1-.23.32.566.566,0,0,1-.28.18,7.6194,7.6194,0,0,0-1.85.28,6.6074,6.6074,0,0,0-1.12.48c-.09.05-.17.1-.24.14l-.18-.03c.03-.09.07-.22.12-.37a6.6705,6.6705,0,0,1,.62-1.22,5.1488,5.1488,0,0,1,1.05-1.21,3.1007,3.1007,0,0,1,.91-.58,1.2065,1.2065,0,0,1,.53-.03,1.06,1.06,0,0,1,.44.21A1.15,1.15,0,0,1,79.8689,86.32Z"/><path d="M75.379,80.12v.03a3.839,3.839,0,0,0-.11.59.7065.7065,0,0,1-.16.28,9.4855,9.4855,0,0,0-7.46-8.07,9.594,9.594,0,0,0-11.34,6.03,5.4678,5.4678,0,0,0-1.05,3.52s-.97-5.49-.65-5.87,5.13-6.83,5.13-6.83l10.43-.21S75.379,77.12,75.379,80.12Z" style="fill:#353130"/><path d="M75.1089,81.02c-1.67,1.88-8.08-5.06-14.23-4.32a6.35,6.35,0,0,0-4.57,2.28,9.594,9.594,0,0,1,11.34-6.03A9.4855,9.4855,0,0,1,75.1089,81.02Z" style="fill:#494d54"/><path d="M75.2257,81.008c1.67,1.88,8.08-5.06,14.23-4.32a6.35,6.35,0,0,1,4.57,2.28,9.5941,9.5941,0,0,0-11.34-6.03A9.4857,9.4857,0,0,0,75.2257,81.008Z" style="fill:#494d54"/><path d="M76.977,66.6817a10.6582,10.6582,0,0,1,1.6152-1.53q.9273-.7171.8838.3447A8.624,8.624,0,0,1,77.72,69.9962q-.6885.8122-1.1426.6343T76.1665,69.39q.0425-1.0614.0839-1.4795A2.7667,2.7667,0,0,1,76.977,66.6817Z" style="fill:#353130;fill-rule:evenodd"/><path d="M78.1751,66.9216a10.66,10.66,0,0,1,2.0716-.8107q1.1287-.3162.6895.6516a8.6234,8.6234,0,0,1-3.3178,3.51q-.9432.4941-1.2972.1585t.0852-1.3042q.4381-.9676.6337-1.34A2.7665,2.7665,0,0,1,78.1751,66.9216Z" style="fill:#353130;fill-rule:evenodd"/><path d="M53.5912,72.7555a8.9553,8.9553,0,0,0-1.698-.7648q-.93-.3108-.6039.5159A7.211,7.211,0,0,0,53.9161,75.58q.7669.4527,1.0777.1872t-.0166-1.0939q-.3263-.8274-.4738-1.1463A2.31,2.31,0,0,0,53.5912,72.7555Z" style="fill:#353130;fill-rule:evenodd"/><path d="M52.9635,73.8166a8.9577,8.9577,0,0,0-1.8605.0813q-.97.1411-.3069.7326a7.21,7.21,0,0,0,3.729,1.562q.8886.059,1.0465-.318t-.5071-.9693q-.6638-.5921-.9391-.81A2.3081,2.3081,0,0,0,52.9635,73.8166Z" style="fill:#353130;fill-rule:evenodd"/><path d="M97.7882,74.3168a7.1936,7.1936,0,0,1,1.3634-.6142q.7467-.25.4849.4143a5.7894,5.7894,0,0,1-2.1092,2.4678q-.6159.3635-.8653.15t.0133-.8783q.2619-.6645.38-.92A1.8539,1.8539,0,0,1,97.7882,74.3168Z" style="fill:#121419;fill-rule:evenodd"/><path d="M65.5674,149.773a.5568.5568,0,0,1,.2844.0689c.0153.0094.0305.0208.02.0691a.3713.3713,0,0,1-.1151.0145c-.1018.001-.2039-.0062-.3053.0031a.2025.2025,0,0,1-.0749-.0015.1835.1835,0,0,1-.0837-.0688.0975.0975,0,0,1-.0307-.0656c.002-.0188.0224-.0177.0369-.0171.0565.0023.113,0,.1695-.0016C65.5011,149.7731,65.5343,149.7724,65.5674,149.773Z" style="fill:#0f0d0d"/></svg>