<svg id="Camada_1" data-name="Camada 1" xmlns="http://www.w3.org/2000/svg" viewBox="0 0 150 150"><path d="M107.3627,137.6611a.4949.4949,0,0,1-.31.38c-2.67,1.03-5.97,2.09-8.57.29a7.9182,7.9182,0,0,1-2.43-3.33c-.6-1.23-1.28-2.68-2.62-3.24a.53.53,0,0,1-.31-.63.3943.3943,0,0,1,.57-.33,5.4842,5.4842,0,0,1,2.61,2.49,18.1845,18.1845,0,0,0,2.04,3.6c2.23,2.43,5.84,1.19,8.44.19C107.1928,136.921,107.4428,137.3211,107.3627,137.6611Z" style="fill:#c4b1b1"/><path d="M111.9631,138.7875s-11.7078.7925-2.3776-4.1067l.7565-.442Z" style="fill:#0f0d0d"/><path d="M65.3755,149.83h-.01c-.04,0-.04,0,.02.01a.3438.3438,0,0,0,.14.03h.03C65.4956,149.86,65.4355,149.84,65.3755,149.83Zm0,0h-.01c-.04,0-.04,0,.02.01a.3438.3438,0,0,0,.14.03h.03C65.4956,149.86,65.4355,149.84,65.3755,149.83Zm-17.22-47.93a.2711.2711,0,0,1-.06.05h.08A.1689.1689,0,0,1,48.1555,101.9Zm64.92,16.99a24.4379,24.4379,0,0,0-1.12-3.56c-.33-.83-.66-1.57-.96-2.16-.34-.71-.62-1.22-.77-1.48l-.11-.19-.35-.56c-.01-.04-.02-.07-.03-.1l-.42-.62h-.01c-.21-.29-.41-.58-.62-.87-.32-.43-.64-.87-.97-1.3l-.31-.41c-.15-.2-.3-.39-.46-.59-.26-.33-.53-.66-.8-.98v-.01c-.12-.14-.23-.27-.35-.4-.18-.21-.37-.42-.56-.62-.27-.3-.55-.6-.84-.89l-.13-.13a27.3626,27.3626,0,0,0-2.52-2.22,32.8091,32.8091,0,0,1-2.46,8.87,32.1175,32.1175,0,0,1-1.51,3.06,28.3673,28.3673,0,0,1-2.38,3.53,23.0139,23.0139,0,0,1-6.48,5.61,25.9421,25.9421,0,0,1-14.15,3.16,29.2159,29.2159,0,0,1-13.5-3.52,25.2306,25.2306,0,0,1-10.27-11.06,32.05,32.05,0,0,1-2.42-6.78,21.23,21.23,0,0,1-.48-2.72,22.5378,22.5378,0,0,0-2,1.73l-.95.97c-.13.13-.26.27-.38.41-.18.21-.36.41-.55.62.01,0,.01,0,0,.01l-.17.21c-.17.19-.33.39-.48.58l-.09.12-.64.82c-.06.09-.13.17-.19.26-.33.45-.66.9-.97,1.35-.13.18-.26.37-.38.55-.29.41-.56.81-.84,1.22a5.3928,5.3928,0,0,0-.33.5,14.1346,14.1346,0,0,0-.83,1.39,22.8534,22.8534,0,0,0-1,2.19v.01a24.0688,24.0688,0,0,0-1.14,3.62,1.2494,1.2494,0,0,0-.06.21c-.32,1.02-1.5,5.53.48,8.81a5.9073,5.9073,0,0,0,1,1.25,6.9173,6.9173,0,0,0,1.4,1.05,5.2724,5.2724,0,0,0,.67.34,5.63,5.63,0,0,0,.64.25h.01a5.7248,5.7248,0,0,0,1.21.29,5.95,5.95,0,0,0,1.11.04l.3-.03c.11-.01.22-.03.33-.05s.22-.05.33-.07a2.9087,2.9087,0,0,0,.42-.12,2.4628,2.4628,0,0,0,.38-.14.4875.4875,0,0,1,.07-.03c.23-.1.46-.21.67-.32a8.1806,8.1806,0,0,0,1.65-1.21h.01v-.01c.17-.16.32-.31.47-.46v-.01a9.8412,9.8412,0,0,0,1.09-1.36l.28-.25.15-.13,1.07-.94c.04.09.07.16.1.23,0,.01.01.01.01.02a1.9978,1.9978,0,0,1,.09.3c.11.61.24,1.21.38,1.8.03.15.06.29.1.45.02.1.05.21.08.31.06.25.12.49.19.73.04.13.08.27.12.4.03.11.06.21.09.32.12.4.23.79.36,1.18.05.15.1.29.15.44.06.17.11.33.17.49.08.21.15.42.23.63.11.29.22.59.34.88.01.03.02.05.03.08.03.09.07.16.1.24a.01.01,0,0,0,.01.01c.09.24.2.48.3.72.22.52.45,1.03.7,1.53.08.17.16.34.25.51.04.08.08.15.12.23.01.01.01.03.02.04.06.13.13.26.2.38a.5359.5359,0,0,0,.05.11c.15.28.3.56.45.83.01.01.01.03.02.04.08.16.17.31.25.45v.01a3.417,3.417,0,0,1,.23.4q.3.525.63,1.05c.05.09.11.17.16.26v.01c0,.01.01.02.02.04a.2882.2882,0,0,1,.03.04c.02.03.04.07.07.12,0,.01.01.02.02.03.21.34.72,1.16,1.41,2.18.16.25.34.52.53.79.25.36.52.74.8,1.13.13.18.26.36.4.55.35.47.71.95,1.08,1.41a23.6775,23.6775,0,0,0,6.83.89,13.4132,13.4132,0,0,0,3.64-.57c.05-.12.1-.25.14-.37.05-.12.09-.23.13-.35.09-.23.16-.47.23-.69.09-.24.16-.46.24-.67a.18.18,0,0,0,.02-.07c.13-.34.26-.66.39-.97.07-.18.13-.35.2-.51l.01-.01a2.03,2.03,0,0,1,1.82-.79,2.2769,2.2769,0,0,1,.67.17,5.7219,5.7219,0,0,1,1.08.59c.09.06.17.12.26.18a1.0544,1.0544,0,0,1,.07.11,4.3327,4.3327,0,0,1,.35.68,2.1305,2.1305,0,0,1,.14.35c.01.04.03.06.04.1v.01c.04.11.08.22.12.32a.4875.4875,0,0,0,.03.07,5.8133,5.8133,0,0,0,.24.78l.15.36a6.6712,6.6712,0,0,0,.46.81,21.7164,21.7164,0,0,0,4.95.78,26.63,26.63,0,0,0,5.61-.28l.01-.01a15.3782,15.3782,0,0,0,1.54-1.73,3.0118,3.0118,0,0,0,.22-.28,5.98,5.98,0,0,0,.42-.57c.14-.19.28-.39.41-.59.14-.2.27-.4.4-.61.14-.2.27-.41.39-.62.16-.26.32-.52.47-.79q.24-.405.45-.81c.14-.25.28-.51.42-.77.15-.29.29-.57.43-.85v-.01c.15-.3.29-.59.43-.88.12-.25.23-.49.34-.73.29-.63.56-1.25.81-1.85.06-.14.11-.27.17-.41.12-.29.23-.57.35-.84.16-.43.32-.84.48-1.24.14-.39.28-.76.4-1.1.1-.27.19-.52.27-.76.06-.19.13-.37.19-.55.15-.45.27-.82.36-1.1.02-.07.04-.14.06-.2.05-.15.08-.26.1-.32a.1069.1069,0,0,0,.01-.05.01.01,0,0,0,.01-.01c.13-.34.27-.69.39-1.03.3-.76.59-1.53.88-2.3.11-.29.24-.57.37-.85.01.01.01.02.03.03.21.28.49.63.86,1.05.35.41.79.88,1.33,1.42.11.11.23.22.35.34v.01c.05.04.1.1.16.15.05.05.1.1.16.15a5.9649,5.9649,0,0,0,.49.41c.17.13.33.24.49.34a4.4,4.4,0,0,0,.51.29c.15.07.31.14.46.2a6.5071,6.5071,0,0,1-1.9-1.24c-.11-.1-.22-.21-.32-.3a7.112,7.112,0,0,1,.55-1.27c0-.01.01-.01.01-.02.09-.17.19-.35.31-.54.15.26.31.51.47.75a10.5087,10.5087,0,0,0,1.79,2.03,8.7677,8.7677,0,0,0,1.39,1.03,3.3189,3.3189,0,0,0,.46-.02q.1949-.015.33-.03h.03a.4419.4419,0,0,1,.1-.02.06.06,0,0,1,.04-.01h.02a.5706.5706,0,0,1,.1-.02c.01-.01.01-.01.02-.01h.03a.031.031,0,0,1,.02-.01s.1-.02.28-.06a.5667.5667,0,0,0,.12-.04.93.93,0,0,0,.13-.04c.06-.02.13-.04.2-.07.14-.05.29-.12.46-.19.09-.04.17-.08.26-.13.01,0,.01,0,.01-.01.08-.04.15-.08.23-.13a6.7133,6.7133,0,0,0,1.72-1.47,26.389,26.389,0,0,0-2.06-7.59A35.9335,35.9335,0,0,1,113.0756,118.89Z" style="fill:#efe8e8"/><path d="M47.7812,128.8a7.2741,7.2741,0,0,1-3.21,1.8c-.11.02-.22.05-.33.07s-.22.04-.33.05l-.3.03a5.9513,5.9513,0,0,1-1.11-.04,5.7292,5.7292,0,0,1-1.21-.29,8.4646,8.4646,0,0,1-1.28-.59,6.5391,6.5391,0,0,1-2.39-2.3c1.95.44,4.89.37,8.05-2.42a11.3512,11.3512,0,0,1,2.1,3.67C47.7812,128.79,47.7812,128.79,47.7812,128.8Z" style="fill:#0f0d0d"/><path d="M40.0112,129.83a8.4646,8.4646,0,0,0,1.28.59,6.317,6.317,0,0,1-1.32-.59,6.5391,6.5391,0,0,1-2.39-2.3c-1.98-3.28-.8-7.79-.48-8.81a27.8714,27.8714,0,0,1,8.57,6.39c-3.16,2.79-6.1,2.86-8.05,2.42A6.5391,6.5391,0,0,0,40.0112,129.83Z" style="fill:#353130"/><path d="M113.36,124.38a9.1436,9.1436,0,0,1-1.92,4.26l-.01.01a6.534,6.534,0,0,1-1.72,1.44c-.08.05-.15.09-.23.13,0,.01,0,.01-.01.01-.09.05-.17.09-.26.13-.17.07-.32.14-.46.19-.07.03-.14.05-.2.07a.9288.9288,0,0,1-.13.04.5638.5638,0,0,1-.12.04c-.18.04-.28.06-.28.06a.031.031,0,0,0-.02.01h-.03c-.01,0-.01,0-.02.01a.5755.5755,0,0,0-.1.02h-.02a.06.06,0,0,0-.04.01.44.44,0,0,0-.1.02h-.03q-.135.015-.33.03a3.3167,3.3167,0,0,1-.46.02h-.03c-.1,0-.2,0-.31-.01-.12-.01-.23-.01-.35-.03a1.1342,1.1342,0,0,1-.25-.03,3.7283,3.7283,0,0,1-.44-.08c-.11-.02-.22-.05-.34-.08-.2-.06-.41-.13-.61-.21h-.01a3.9973,3.9973,0,0,1-.42-.2,4.4028,4.4028,0,0,1-.51-.29c-.16-.1-.32-.21-.49-.34a5.9152,5.9152,0,0,1-.49-.41c-.06-.05-.11-.1-.16-.15-.06-.05-.11-.11-.16-.15v-.01c.02-.07.05-.15.08-.24l.12-.29c.09-.22.21-.48.36-.77.1-.16.2-.34.31-.52a10.5775,10.5775,0,0,1,.76-1.11,19.9489,19.9489,0,0,1,3.58-3.59c.56-.44,1.18-.89,1.86-1.34a35.9292,35.9292,0,0,1,3.71-2.14c.01-.01.02-.01.03-.02A13.6832,13.6832,0,0,1,113.36,124.38Z" style="fill:#353130"/><path d="M76.5256,143.64a5.7219,5.7219,0,0,0-1.08-.59,2.2769,2.2769,0,0,0-.67-.17,2.03,2.03,0,0,0-1.82.79l-.01.01c-.07.16-.13.33-.2.51-.13.31-.26.63-.39.97a.18.18,0,0,1-.02.07c-.08.21-.15.43-.24.67-.07.22-.14.46-.23.69-.04.12-.08.23-.13.35-.04.12-.09.25-.14.37a13.4132,13.4132,0,0,1-3.64.57c.35-.42.69-.86,1.01-1.31.25-.37.49-.75.7-1.14a9.8609,9.8609,0,0,0,.45-.93C71.2356,141.82,75.1555,141.9,76.5256,143.64Z" style="fill:#c4b1b1"/><path d="M109.3155,110.22h-.01c-.21-.29-.41-.58-.62-.87-.32-.43-.64-.87-.97-1.3l-.31-.41c-.15-.2-.3-.39-.46-.59-.26-.33-.53-.66-.8-.98v-.01c-.12-.14-.23-.27-.35-.4-.18-.21-.37-.42-.56-.62-.27-.3-.55-.6-.84-.89l-.13-.13a27.3494,27.3494,0,0,0-2.52-2.22,32.8,32.8,0,0,1-2.46,8.87c.15.07.32.14.5.23q.225.105.48.24c.26.13.54.28.84.46.1.06.2.12.31.19a3.2313,3.2313,0,0,1,.28.18c.15.08.3.18.45.28s.3.21.46.33a17.0252,17.0252,0,0,1,1.79,1.48c.22.18.43.39.64.6q.3.3.6.63c.22.23.43.48.64.74a16.2767,16.2767,0,0,1,1.03,1.34q.345.495.69,1.05c.07.11.14.22.21.34a22.91,22.91,0,0,1,1.16,2.27,35.9292,35.9292,0,0,1,3.71-2.14,24.438,24.438,0,0,0-1.12-3.56c-.33-.83-.66-1.57-.96-2.16-.34-.71-.62-1.22-.77-1.48l-.11-.19-.35-.56c-.01-.04-.02-.07-.03-.1Z" style="fill:#c4b1b1"/><path d="M104.5654,130.44c-.15-.06-.31-.13-.46-.2a4.4,4.4,0,0,1-.51-.29c-.16-.1-.32-.21-.49-.34a5.9649,5.9649,0,0,1-.49-.41c-.06-.05-.11-.1-.16-.15-.06-.05-.11-.11-.16-.15v-.01c-.12-.12-.24-.23-.35-.34-.54-.54-.98-1.01-1.33-1.42-.37-.42-.65-.77-.86-1.05-.02-.01-.02-.02-.03-.03-.13.28-.26.56-.37.85-.29.77-.58,1.54-.88,2.3-.12.34-.26.69-.39,1.03a.01.01,0,0,1-.01.01.1069.1069,0,0,1-.01.05c-.02.06-.05.17-.1.32-.02.06-.04.13-.06.2-.09.28-.21.65-.36,1.1-.06.18-.13.36-.19.55-.08.24-.17.49-.27.76-.12.34-.26.71-.4,1.1-.16.4-.32.81-.48,1.24-.12.27-.23.55-.35.84-.06.14-.11.27-.17.41-.25.6-.52,1.22-.81,1.85-.11.24-.22.48-.34.73-.14.29-.28.58-.43.88v.01c-.14.28-.28.56-.43.85-.14.26-.28.52-.42.77q-.21.405-.45.81c-.15.27-.31.53-.47.79-.12.21-.25.42-.39.62-.13.21-.26.41-.4.61-.13.2-.27.4-.41.59a5.98,5.98,0,0,1-.42.57,3.0118,3.0118,0,0,1-.22.28,15.3782,15.3782,0,0,1-1.54,1.73l-.01.01a26.63,26.63,0,0,1-5.61.28,37.3747,37.3747,0,0,0,3.59-4.06c.12-.16.24-.32.37-.49a47.2344,47.2344,0,0,0,4.14-6.69,58.2844,58.2844,0,0,0,2.5-5.54c.21-.53.41-1.07.61-1.63a77.3729,77.3729,0,0,0,3.19-10.34,35.6794,35.6794,0,0,0,3.76,6.49c.25.34.52.68.79,1.01.19.22.38.44.57.65,0,.01,0,.01.01.01.01.02.01.02.03.03a7.112,7.112,0,0,0-.55,1.27c.1.09.21.2.32.3A6.5071,6.5071,0,0,0,104.5654,130.44Z" style="fill:#c4b1b1"/><path d="M55.4756,138.48c-.15-.27-.3-.55-.45-.83a.5359.5359,0,0,1-.05-.11c-.07-.12-.14-.25-.2-.38-.01-.01-.01-.03-.02-.04-.04-.08-.08-.15-.12-.23-.09-.17-.17-.34-.25-.51-.25-.5-.48-1.01-.7-1.53-.1-.24-.21-.48-.3-.72a.01.01,0,0,1-.01-.01c-.03-.08-.07-.15-.1-.24-.01-.03-.02-.05-.03-.08-.12-.29-.23-.59-.34-.88-.08-.21-.15-.42-.23-.63-.06-.16-.11-.32-.17-.49-.05-.15-.1-.29-.15-.44-.13-.39-.24-.78-.36-1.18-.03-.11-.06-.21-.09-.32-.04-.13-.08-.27-.12-.4-.07-.24-.13-.48-.19-.73-.03-.1-.06-.21-.08-.31-.04-.16-.07-.3-.1-.45-.14-.59-.27-1.19-.38-1.8a1.9978,1.9978,0,0,0-.09-.3,14.643,14.643,0,0,0-1.18.95.1745.1745,0,0,1-.05.04c-.32.29-.63.56-.8.71-.18.22-.4.49-.67.77-.14.15-.29.3-.46.45l-.01.01c0-.01,0-.01-.01-.02a11.357,11.357,0,0,0-2.1-3.67h.01v-.01a14.3936,14.3936,0,0,0,1.12-1.1.8585.8585,0,0,0,.13-.14,24.4654,24.4654,0,0,0,3.41-4.95s.04.19.1.53c.29,1.46,1.14,5.72,2.18,9.97v.01c.07.26.13.52.2.77.06.24.12.47.18.71.15.59.31,1.18.47,1.76.14.52.29,1.04.44,1.53a1.8483,1.8483,0,0,0,.07.22c.21.72.43,1.39.65,2,.09.26.18.51.27.74.07.2.15.38.22.56h.01A7.974,7.974,0,0,0,55.4756,138.48Z" style="fill:#c4b1b1"/><path d="M61.1255,146.99c.16.21.32.4.48.6a6.9853,6.9853,0,0,0,.88.91,5.7515,5.7515,0,0,0,2.91,1.5h.53c.16-.15.32-.3.49-.47a19.0416,19.0416,0,0,0,1.54-1.65A23.6775,23.6775,0,0,1,61.1255,146.99Zm4.25,2.84h-.01c-.04,0-.04,0,.02.01a.3438.3438,0,0,0,.14.03h.03C65.4956,149.86,65.4355,149.84,65.3755,149.83Z" style="fill:#353130"/><path d="M65.379,149.83c.06.01.12.03.18.04h-.03a.3405.3405,0,0,1-.14-.03c-.06-.01-.06-.01-.02-.01Z" style="fill:#353130"/><path d="M71.5989,147.31a3.8757,3.8757,0,0,1-2.79,2.69h-2.88c.16-.15.32-.3.49-.47a18.9957,18.9957,0,0,0,1.54-1.65A13.4112,13.4112,0,0,0,71.5989,147.31Z" style="fill:#0f0d0d"/><path d="M88.9488,147.91a8.3121,8.3121,0,0,1-3.24,2.09h-3.3a6.7024,6.7024,0,0,1-.83-.25c.48-.39,1.08-.9,1.76-1.56A26.6286,26.6286,0,0,0,88.9488,147.91Z" style="fill:#0f0d0d"/><path d="M83.3389,148.19c-.68.66-1.28,1.17-1.76,1.56a6.4,6.4,0,0,1-.84-.34c-.17-.08-.33-.17-.49-.26a3.0105,3.0105,0,0,1-.42-.27,5.2684,5.2684,0,0,1-1.44-1.47A21.7164,21.7164,0,0,0,83.3389,148.19Z" style="fill:#353130"/><path d="M113.36,124.38a9.1436,9.1436,0,0,1-1.92,4.26l-.01.01a6.534,6.534,0,0,1-1.72,1.44c-.08.05-.15.09-.23.13,0,.01,0,.01-.01.01-.09.05-.17.09-.26.13-.17.07-.32.14-.46.19-.07.03-.14.05-.2.07a.9288.9288,0,0,1-.13.04.5638.5638,0,0,1-.12.04c-.18.04-.28.06-.28.06a.031.031,0,0,0-.02.01h-.03c-.01,0-.01,0-.02.01a.5755.5755,0,0,0-.1.02h-.02a.06.06,0,0,0-.04.01.44.44,0,0,0-.1.02h-.03q-.135.015-.33.03a3.3167,3.3167,0,0,1-.46.02h-.03c-.1,0-.2,0-.31-.01-.12-.01-.23-.01-.35-.03a1.1342,1.1342,0,0,1-.25-.03,3.7283,3.7283,0,0,1-.44-.08c-.11-.02-.22-.05-.34-.08-.2-.06-.41-.13-.61-.21h-.01a3.9973,3.9973,0,0,1-.42-.2,4.4028,4.4028,0,0,1-.51-.29c-.16-.1-.32-.21-.49-.34a5.9152,5.9152,0,0,1-.49-.41c-.06-.05-.11-.1-.16-.15-.06-.05-.11-.11-.16-.15v-.01c.02-.07.05-.15.08-.24l.12-.29.36-.77s6.59,2.65,6.51-6.56a35.9292,35.9292,0,0,1,3.71-2.14c.01-.01.02-.01.03-.02A13.6832,13.6832,0,0,1,113.36,124.38Z" style="fill:#0f0d0d"/><path d="M87.2956,143.64a8.9845,8.9845,0,0,1-1.37.16c.33.12.66.23,1,.33a12.9594,12.9594,0,0,0,2.39.47,1.5079,1.5079,0,0,0,.7-.05,2.2085,2.2085,0,0,0,.51-.35,4.6865,4.6865,0,0,1,1.81-.7c.16-.26.32-.52.47-.79q.24-.405.45-.81c.14-.25.28-.51.42-.77.15-.29.29-.57.43-.85a26.3253,26.3253,0,0,1-2.51,1.7A13.2026,13.2026,0,0,1,87.2956,143.64Z" style="fill:#2d2a29"/><path d="M59.3056,139.52a1.1337,1.1337,0,0,1,.67-.26c1.27-.2,2.55-.4,3.83-.6a5.0931,5.0931,0,0,1-1.29-.13q-.6453-.075-1.29-.18c-.86-.14-1.71-.31-2.56-.52a5.8009,5.8009,0,0,0-2.39-.53,2.7506,2.7506,0,0,1-1.1-.1c-.09-.02-.19-.03-.28-.05-.05-.01-.1-.02-.14-.03.01.01.01.03.02.04.06.13.13.26.2.38a.5359.5359,0,0,0,.05.11c.15.28.3.56.45.83.01.01.01.03.02.04.08.16.17.31.25.45v.01a3.417,3.417,0,0,1,.23.4q.3.525.63,1.05c.05.09.11.17.16.26v.01c0,.01.01.02.02.04a.2882.2882,0,0,1,.03.04c.02.03.04.07.07.12,0,.01.01.02.02.03l.72.15c.38.08.92.19,1.24-.12C59.2556,140.59,58.9355,139.92,59.3056,139.52Z" style="fill:#2d2a29"/><path d="M67.1154,141.58c1.34-.18,2.76.44,4.02-.04l-4.14-1.26a1.5317,1.5317,0,0,0-1.03-.08c-.25.1-.44.32-.68.44a3.7342,3.7342,0,0,1-1.5.12,3.4922,3.4922,0,0,0-2.44,1.71c-.14.2-.27.4-.4.61-.04.07-.12.29-.19.33-.09.05-.3-.04-.41-.07a6.0567,6.0567,0,0,0-1.45-.31,2.45,2.45,0,0,0-.58.08c.16.25.34.52.53.79.25.36.52.74.8,1.13.78.09,1.57.13,2.35.17,1.22.06,2.61.06,3.44-.84-.08-.42-.81-.51-.81-.94a.5942.5942,0,0,1,.12-.31A3.4267,3.4267,0,0,1,67.1154,141.58Z" style="fill:#2d2a29"/><path d="M89.8767,139.0505c-.1968.1166-.3928.2345-.59.35-3.5329,2.0771-7.9309,3.3637-11.7173,1.7956a16.8745,16.8745,0,0,0,4.72,1.3626,14.7966,14.7966,0,0,0,4.9511-.3023,15.429,15.429,0,0,0,4.5862-1.9729,6.9147,6.9147,0,0,1,1.1607-.6073,3.0086,3.0086,0,0,1,.624-.1674,1.2767,1.2767,0,0,0,.4167-.0668c.409-.22-.0051-.7808-.2077-.9967C92.6882,137.2408,91.0027,138.3837,89.8767,139.0505Z" style="fill:#2d2a29"/><path d="M54.4726,126.2231q.9982-.0987,2.001-.1467.482-.0233.9644-.0347a3.461,3.461,0,0,1,.965-.0111l-2.332-.7605a17.6671,17.6671,0,0,1-3.2446-1.3009,3.2588,3.2588,0,0,0-.9295-.4238.8919.8919,0,0,0-.9184.3028,1.287,1.287,0,0,0-.1272.7944c.0207.3782.0393.7565.0625,1.1346a1.1547,1.1547,0,0,0,.1631.6688c.3039.3735,1.0417.0788,1.43.0208Q53.4865,126.3206,54.4726,126.2231Z" style="fill:#2d2a29"/><path d="M54.7715,127.4048c-.2608.2784.0825.6934.2624.914a3.1423,3.1423,0,0,0,2.3943,1.2648c1.0264.04,2.0391-.0579,3.0669.0473a14.9722,14.9722,0,0,1,5.6728,1.7646c2.0191,1.11,4.0474,2.7538,6.3247,2.4037-2.6171-.9142-4.5712-3.06-6.7192-4.8124-.1816-.1481-.3655-.2935-.553-.4342a7.5149,7.5149,0,0,0-2.5373-1.3332,7.5068,7.5068,0,0,0-2.8218.0272,38.969,38.969,0,0,1-3.9766-.0589C55.573,127.1886,55.0117,127.1486,54.7715,127.4048Z" style="fill:#2d2a29"/><path d="M65.0437,133.2864a15.5469,15.5469,0,0,0-1.7381-.75c-.4907-.1744-.989-.3319-1.4944-.4586-.1882-.0472-.7478-.2593-.9379-.1465-.1922.114.1347.272.2534.3463a6.9164,6.9164,0,0,0,3.917,1.0089Z" style="fill:#2d2a29"/><path d="M67.0366,126.47c1.2334,2.6678,3.8945,4.3328,6.4148,5.8452a6.5639,6.5639,0,0,0,1.9053.8809,2.2193,2.2193,0,0,0,1.9816-.4248l-.95-.411a6.8614,6.8614,0,0,0,2.5611.1532,11.6656,11.6656,0,0,0,4.4233-1.9944,18.1246,18.1246,0,0,1-6.5649-.459c-1.146-.2886-4.1419-1.1446-4.4531-1.2337A16.4111,16.4111,0,0,1,67.0366,126.47Z" style="fill:#2d2a29"/><path d="M80.4655,145.12a10.5446,10.5446,0,0,1-1.57-.28,3.562,3.562,0,0,0-1.69-.23,2.1305,2.1305,0,0,1,.14.35c.01.04.03.06.04.1v.01c.04.11.08.22.12.32a.4875.4875,0,0,0,.03.07,5.8133,5.8133,0,0,0,.24.78l.15.36c.53-.03,1.06-.09,1.57-.12a3.75,3.75,0,0,0,1.56-.31,1.2836,1.2836,0,0,0,.76-1.29C81.8154,145.1,80.5957,145.13,80.4655,145.12Z" style="fill:#2d2a29"/><path d="M85.8855,147.15a7.625,7.625,0,0,0,3.07.75,15.3782,15.3782,0,0,0,1.54-1.73,11.7965,11.7965,0,0,1-2.79.83A12.2979,12.2979,0,0,1,85.8855,147.15Z" style="fill:#2d2a29"/><path d="M69.6655,145.43c-.11.02-.22.05-.33.07a6.5867,6.5867,0,0,1-1.88.1,1.8843,1.8843,0,0,0,1.03.8,4.5862,4.5862,0,0,0,.48.17,7.0673,7.0673,0,0,0,2.77.37c.05-.12.09-.23.13-.35.09-.23.16-.47.23-.69.09-.24.16-.46.24-.67a.18.18,0,0,0,.02-.07c.13-.34.26-.66.39-.97-.09.05-.17.1-.23.13A13.3725,13.3725,0,0,1,69.6655,145.43Z" style="fill:#2d2a29"/><path d="M92.144,127.893c-2.7932,1.082-5.7976,2.182-8.7153,1.5045.8266.3368,1.5742.8594,2.4255,1.1276a4.9712,4.9712,0,0,0,.8982.1836l-.7659.28c.4065-.0738.81-.1631,1.2146-.2453A12.78,12.78,0,0,0,89.05,130.68a15.4028,15.4028,0,0,0,4.2317-.8633A7.1675,7.1675,0,0,0,95.497,128.43a5.1439,5.1439,0,0,0,.9161-.4314c1.2753-.8006,1.8808-2.3108,2.4077-3.7214-1.7422.2432-2.9991,1.7346-4.51,2.6346A14.222,14.222,0,0,1,92.144,127.893Z" style="fill:#2d2a29"/><path d="M94.3154,130.42a21.0865,21.0865,0,0,1-3.33.94,15.0194,15.0194,0,0,1-4.07.23,6.4347,6.4347,0,0,0-3.06.13,8.2191,8.2191,0,0,0-2.03,1.66,6.7054,6.7054,0,0,1-6.05,1.43,9.6485,9.6485,0,0,0,6.21.29c1.04-.3,2.03-.78,3.08-1.03a30.8273,30.8273,0,0,1,5.27-.26,14.4827,14.4827,0,0,0,6.49-1.98,8.8419,8.8419,0,0,0,.97-.67l.97-2.71a3.661,3.661,0,0,0-.89.42A32.1572,32.1572,0,0,1,94.3154,130.42Z" style="fill:#2d2a29"/><path d="M53.4655,132.66c2.64,1.17,5.39,2.36,8.28,2.28a7.0318,7.0318,0,0,1-2.85-1.64,13.5092,13.5092,0,0,0-1.09-1.05,7.0318,7.0318,0,0,0-2.06-1c-.98-.35-1.96-.71-2.93-1.06-.31-.11-.61-.22-.91-.33.03.11.06.21.09.32.12.4.23.79.36,1.18.05.15.1.29.15.44.06.17.11.33.17.49.24.12.49.23.73.34Z" style="fill:#2d2a29"/><path d="M57.7556,136.02a4.7045,4.7045,0,0,1-1.08-.44c-.39-.16-.78-.32-1.16-.48-.52-.22-1.03-.45-1.54-.69-.16-.07-.32-.14-.48-.22-.04-.02-.07-.04-.11-.06.09.24.2.48.3.72.22.52.45,1.03.7,1.53a.9869.9869,0,0,0,.24.03A9.0415,9.0415,0,0,0,57.7556,136.02Z" style="fill:#2d2a29"/><path d="M83.3576,138.8078a10.8536,10.8536,0,0,0,3.4785-.4171,2.0526,2.0526,0,0,0,.9935-.6347.9344.9344,0,0,0,.0561-1.11,1.4511,1.4511,0,0,0-1.2248-.3459l-.4754.0157a3.7393,3.7393,0,0,0-1.5615-.3539,7.2538,7.2538,0,0,0-2.093.5483c-3.0633,1.0237-6.397.6185-9.6.2022C75.87,138.8063,79.75,138.8475,83.3576,138.8078Z" style="fill:#2d2a29"/><path d="M94.2656,134.81a15.4056,15.4056,0,0,1-1.99.44c-.12.03-.25.05-.37.07a21.9156,21.9156,0,0,1-2.68.27,10.5074,10.5074,0,0,0,2.6.57,11.9521,11.9521,0,0,0,4.29-.38v-.01l.68-1.75a2.1676,2.1676,0,0,0-.29.05C95.7556,134.28,95.0256,134.6,94.2656,134.81Z" style="fill:#2d2a29"/><path d="M63.7392,136.94a4.5712,4.5712,0,0,0,1.4.2649c2.5779.2929,4.9577,1.872,7.5483,1.732a36.3206,36.3206,0,0,1-2.8118-2.412,6.1583,6.1583,0,0,0-3.2746-1.6106,6.2078,6.2078,0,0,0-2.8455.5522c-.3188.1266-.7712.2255-.7331.6468A1.1994,1.1994,0,0,0,63.7392,136.94Z" style="fill:#2d2a29"/><path d="M53.1474,120.241a21.8706,21.8706,0,0,0,2.4888,1.2791q.7825.36,1.5786.69.4311.1783.8657.3478c.1607.0625.6368.15.7383.28a9.8543,9.8543,0,0,0-1.8078-1.7318c-1.2029-.92-2.5306-1.6649-3.7127-2.6133a9.3185,9.3185,0,0,1-1.5959-1.5969,10.9753,10.9753,0,0,0-1.5193-1.9607c.2934.92.605,1.8493.9443,2.7545A4.7906,4.7906,0,0,0,53.1474,120.241Z" style="fill:#2d2a29"/><path d="M81.2,129.2844c.06-.1146-.1153-.3965-.1223-.5018a1.0265,1.0265,0,0,1,.6782-.9441c1.0967-.43,2.1565.6967,3.271.4107a2.802,2.802,0,0,0,1.4824-1.4055l1.4106-2.25c-.0671.107-.561.2021-.6945.25l-.8338.3q-.7643.2752-1.5283.55c-1.0164.3661-2.0305.7934-3.0691,1.09-1.0588.3028-2.1374-.0412-3.2026.1381-.241.0406-.37.0711-.3277.3377C78.3523,127.8127,80.9087,129.8364,81.2,129.2844Z" style="fill:#2d2a29"/><path d="M89.4734,127.1424c.3173.1067.8381-.2293,1.114-.363a5.5182,5.5182,0,0,0,1.1711-.7474c.2293-.1945.4395-.412.6819-.59a10.8322,10.8322,0,0,1,1.0178-.5846,5.2677,5.2677,0,0,0,2.5786-4.6219,15.1784,15.1784,0,0,0-2.6657,1.4959,15.5353,15.5353,0,0,0-3.8033,3.801C89.3354,125.865,88.8061,126.918,89.4734,127.1424Z" style="fill:#2d2a29"/><path d="M43.2256,119.03a15.0789,15.0789,0,0,1-3.35-4.98,14.6061,14.6061,0,0,0-.58-1.36,22.8534,22.8534,0,0,0-1,2.19v.01l.03.03c.79.82,1.59,1.64,2.38,2.47a5.5064,5.5064,0,0,0,.85.75A13.9294,13.9294,0,0,1,43.2256,119.03Z" style="fill:#2d2a29"/><path d="M47.2358,121.7337c-.0984-.0659-.189-.3777-.2463-.4869q-.1267-.2416-.2605-.4795-.2677-.4755-.563-.9348c-.5357-.8335-.9622-1.5154-1.9995-1.6567-.1231-.0167-.6-.0952-.6634.0821-.0839.2362.7522.6242.8936.7361a8.1443,8.1443,0,0,1,1.0608,1.1576,8.7368,8.7368,0,0,0,1.219,1.1741Q46.9479,121.5407,47.2358,121.7337Z" style="fill:#2d2a29"/><path d="M43.2055,117.09c.19.01.37-.04.56-.03a1.359,1.359,0,0,1,.68.24,18.29,18.29,0,0,1,1.91,1.73c.13.11.4.16.42-.01a9.3687,9.3687,0,0,1-.8-.87,14.1688,14.1688,0,0,1-2.84-4.34c-.51-1.47-.53-3.1-1.26-4.46a2.1365,2.1365,0,0,0-.2-.32c-.13.18-.26.37-.38.55-.29.41-.56.81-.84,1.22a5.3928,5.3928,0,0,0-.33.5,26.7635,26.7635,0,0,0,1.85,4.74C42.2556,116.53,42.6455,117.07,43.2055,117.09Z" style="fill:#2d2a29"/><path d="M44.0114,113.2021a1.9145,1.9145,0,0,0,.2564,1.1446c.2571.3872.5749.742.8508,1.1167a16.8922,16.8922,0,0,0,1.148,1.4128,9.5288,9.5288,0,0,0,1.5136,1.3521,2.4126,2.4126,0,0,0,1.9034.5561A14.7363,14.7363,0,0,1,47.32,116.72a13.2333,13.2333,0,0,1-1.8882-2.2139,4.5081,4.5081,0,0,1-.7639-2.7607c-.0022.024-.1155.1034-.1375.1261a1.7222,1.7222,0,0,0-.144.1694,1.8253,1.8253,0,0,0-.2041.3517A2.1107,2.1107,0,0,0,44.0114,113.2021Z" style="fill:#2d2a29"/><path d="M48.5864,113.0574a1.2057,1.2057,0,0,0-.7031-.76c-.2476-.0807-.52-.0461-.7715-.1118-.7937-.2071-1.0445-1.2549-1.752-1.67a.1957.1957,0,0,0-.1274-.0365c-.1128.02-.1138.1809-.0852.2919l.4651,1.8061a3.3381,3.3381,0,0,0,.685,1.6123c.1646.1572.3555.2866.5276.4354.3.26.5935.5269.8916.7888q.5076.4464,1.0193.8883a1.7338,1.7338,0,0,0,.8355.4809,9.0128,9.0128,0,0,1-.7881-2.6754A4.86,4.86,0,0,0,48.5864,113.0574Z" style="fill:#2d2a29"/><path d="M43.1655,109.86c.13.47.35,1,.82,1.09a18.7829,18.7829,0,0,1,.16-3.09,4.3365,4.3365,0,0,0,.07-2.17c.01-.01.01-.01,0-.01l-1.57,2c.07.24.12.48.17.72C42.9155,108.89,43.0256,109.38,43.1655,109.86Z" style="fill:#2d2a29"/><path d="M45.3056,108.23a7.0393,7.0393,0,0,0,.55,1.3,3.0963,3.0963,0,0,0,1.25,1.5,4.547,4.547,0,0,0,.74.23,3.1852,3.1852,0,0,1,1.42.92c-.37-1.41-1.97-2.15-2.54-3.49a6.5957,6.5957,0,0,1-.21-2.77,5.3953,5.3953,0,0,0-.11-1.45,3.0026,3.0026,0,0,0-.31-.79l-.95.97a1.7223,1.7223,0,0,0-.01.2c-.02.69-.02,1.39.01,2.08A6.242,6.242,0,0,0,45.3056,108.23Z" style="fill:#2d2a29"/><path d="M49.0957,109.97a10.9914,10.9914,0,0,0,1.9,1.48,32.05,32.05,0,0,1-2.42-6.78,5.686,5.686,0,0,0-.39,3.87A4.1487,4.1487,0,0,0,49.0957,109.97Z" style="fill:#2d2a29"/><path d="M46.9255,123.86c-.12-.09-.24-.17-.37-.25a4.1264,4.1264,0,0,1,.24.39,7.3878,7.3878,0,0,1,.48.87,10.3237,10.3237,0,0,1,.82,2.44c.07.33.08.67.15.99-.01.01,0,.03,0,.04.27-.28.49-.55.67-.77.17-.15.48-.42.8-.71a.9441.9441,0,0,0-.1-.17A8.8731,8.8731,0,0,0,46.9255,123.86Z" style="fill:#2d2a29"/><path d="M49.7036,122.3458a2.4509,2.4509,0,0,0-.2908-.5027q-.2223-.3209-.45-.6378-.2012-.28-.4068-.5559c-.0971-.1308-.1914-.2907-.3647-.3252-.1572-.0314-.2271.0584-.2544.2006-.044.23-.0757.4635-.1135.6947a.766.766,0,0,0,.0022.38.8151.8151,0,0,0,.2458.3042,6.4366,6.4366,0,0,1,1.565,2.19c.0415.0956.1137.2111.2155.19.1082-.0229.1206-.17.1077-.28q-.063-.5358-.1316-1.071A2.4952,2.4952,0,0,0,49.7036,122.3458Z" style="fill:#2d2a29"/><path d="M45.312,122.9513l-.323-.2928a1.486,1.486,0,0,0-.7215-1.1733c-.4-.2762-.8645-.4449-1.2719-.7093a5.5886,5.5886,0,0,1-.6646-.5274A.9952.9952,0,0,0,41.947,120a.3312.3312,0,0,0-.3928.156c-.07.1725.0715.3525.2026.4848a8.7953,8.7953,0,0,0,2.0984,1.7207,3.3171,3.3171,0,0,1,.9243.5639c.2642.277.428.7012.8.7922a.4026.4026,0,0,0,.0232-.4256A1.1835,1.1835,0,0,0,45.312,122.9513Z" style="fill:#2d2a29"/><path d="M110.9956,113.17c-.19.39-.33.79-.49,1.18a14.8632,14.8632,0,0,1-2.51,4.07,12.0687,12.0687,0,0,1-.84.91,3.9213,3.9213,0,0,1,1.05-.57,6.0386,6.0386,0,0,0,.62-.32,5.505,5.505,0,0,0,.85-.75c.75-.79,1.52-1.58,2.28-2.36Z" style="fill:#2d2a29"/><path d="M104.0256,119.33a18.29,18.29,0,0,1,1.91-1.73,1.3593,1.3593,0,0,1,.68-.24c.19-.01.37.04.56.03a.5068.5068,0,0,0,.13-.02c.49-.09.84-.58,1.1-1.03a25.7855,25.7855,0,0,0,1.82-4.65l-.11-.19-.38-.66-.42-.62-.63-.87a2.9208,2.9208,0,0,0-.18.3c-.73,1.36-.75,2.99-1.26,4.46a8.66,8.66,0,0,1-.97,1.92,24.0517,24.0517,0,0,1-1.87,2.42,9.356,9.356,0,0,1-.8.87C103.6255,119.49,103.8955,119.44,104.0256,119.33Z" style="fill:#2d2a29"/><path d="M103.0639,117.0178a14.7164,14.7164,0,0,1-2.363,2.0649,2.4125,2.4125,0,0,0,1.9033-.556,9.5148,9.5148,0,0,0,1.5134-1.3521,16.8684,16.8684,0,0,0,1.148-1.4128c.2761-.3748.5937-.7295.8511-1.1168a1.9143,1.9143,0,0,0,.2563-1.1446,2.1079,2.1079,0,0,0-.1711-.81,1.8223,1.8223,0,0,0-.2044-.3518,1.7075,1.7075,0,0,0-.1438-.1693c-.0222-.0227-.1352-.1021-.1374-.1262a4.5091,4.5091,0,0,1-.7639,2.7607A13.2265,13.2265,0,0,1,103.0639,117.0178Z" style="fill:#2d2a29"/><path d="M106.3955,111.25c.47-.09.69-.62.82-1.09.14-.48.25-.97.35-1.46.05-.22.09-.43.15-.65l-1.55-2.06a.1445.1445,0,0,0-.02.07,4.4262,4.4262,0,0,0,.09,2.1A18.7829,18.7829,0,0,1,106.3955,111.25Z" style="fill:#2d2a29"/><path d="M102.5356,111.56a4.5435,4.5435,0,0,0,.74-.23,3.0958,3.0958,0,0,0,1.25-1.5,7.047,7.047,0,0,0,.55-1.3,6.2621,6.2621,0,0,0,.16-1.3c.03-.69.03-1.39.01-2.08a.4907.4907,0,0,0-.01-.11l-.97-1.02a3.0408,3.0408,0,0,0-.29.75,5.4035,5.4035,0,0,0-.11,1.45,6.5957,6.5957,0,0,1-.21,2.77c-.47,1.1-1.64,1.8-2.24,2.8a2.4983,2.4983,0,0,0-.3.69,3.5458,3.5458,0,0,1,.58-.51A2.9779,2.9779,0,0,1,102.5356,111.56Z" style="fill:#2d2a29"/><path d="M101.4956,125.93a8.8179,8.8179,0,0,0-.88,1.2c.35.41.79.88,1.33,1.42.03-.22.05-.45.1-.67a7.5638,7.5638,0,0,1,.24-.94,9.6981,9.6981,0,0,1,.58-1.5,7.3755,7.3755,0,0,1,.48-.87,4.1015,4.1015,0,0,1,.24-.39c-.13.08-.25.16-.37.25A8.7381,8.7381,0,0,0,101.4956,125.93Z" style="fill:#2d2a29"/><path d="M100.7485,124.3925a6.4353,6.4353,0,0,1,1.5649-2.19.8147.8147,0,0,0,.2459-.3043.7667.7667,0,0,0,.0022-.38c-.0379-.2313-.07-.4646-.1138-.6947-.0273-.1422-.0969-.232-.2541-.2007-.1736.0345-.2676.1944-.365.3252q-.2055.2765-.4068.556-.2277.3168-.45.6378a2.45,2.45,0,0,0-.2907.5027,2.4906,2.4906,0,0,0-.1243.5868q-.0684.5351-.1313,1.0709c-.013.11,0,.2572.1074.28C100.6347,124.6036,100.707,124.488,100.7485,124.3925Z" style="fill:#2d2a29"/><path d="M97.3154,117.34a.7355.7355,0,0,0,.21-.22,3.3211,3.3211,0,0,0,.68-1.58,7.3312,7.3312,0,0,0-.43-1.81,28.3673,28.3673,0,0,1-2.38,3.53c.52.06,1.04.11,1.56.13A.6238.6238,0,0,0,97.3154,117.34Z" style="fill:#2d2a29"/><path d="M100.6806,114.6428c-.02-.1878-.0622-.7208-.3608-.4691a2.716,2.716,0,0,0-.5806,1.0243,13.5892,13.5892,0,0,0-.4653,1.4235c-.2119.7259-.6082,1.382-.8582,2.0905a2.3869,2.3869,0,0,0,1.3868-.419,2.2261,2.2261,0,0,0,.6787-1.1935A6.5817,6.5817,0,0,0,100.6806,114.6428Z" style="fill:#2d2a29"/><path d="M101.51,117.16a4.5245,4.5245,0,0,0,1.0415-1.5814c.3293-.6065.79-1.1477,1.1621-1.727a4.0476,4.0476,0,0,0,.5412-1.16c.0262-.1.0257-.2409-.0739-.27a.2044.2044,0,0,0-.1682.0553c-.37.2716-.732.6661-1.1892.6212-.17-.0167-.365-.09-.4964.02a2.2716,2.2716,0,0,0-.3725.7792q-.1758.4181-.3355.8427a14.2525,14.2525,0,0,0-.4746,1.4557,2.0007,2.0007,0,0,0-.1157.9734C101.11,117.431,101.3579,117.2773,101.51,117.16Z" style="fill:#2d2a29"/><path d="M105.529,120.8067c-.2629-.0388-.4575.34-.5952.51-.2473.3055-.512.5965-.7642.8979-.1047.1251-.4831.4782-.4545.6671.0339.2237.4846-.0832.5615-.1476a6.1108,6.1108,0,0,0,.44-.4534,2.0106,2.0106,0,0,1,.2339-.2124c.0295-.022.2441-.1218.248-.14-.0417.19.1563.3641.35.3716a.929.929,0,0,0,.5332-.2079,7.7767,7.7767,0,0,0,2.32-2.4594l-2.5964,1.909C105.8442,121.2944,105.8725,120.8574,105.529,120.8067Z" style="fill:#2d2a29"/><path d="M105.019,119.6785c-.1.1006-1.1518.9043-.9067.9967.12.0452.3923-.1665.4809-.2309a6.3763,6.3763,0,0,0,.7356-.52c.0222.2371.3721.3128.5618.1689a.9385.9385,0,0,0,.2849-.6349,7.465,7.465,0,0,0,.0813-.9442C105.685,118.6114,105.4284,119.2679,105.019,119.6785Z" style="fill:#2d2a29"/><path d="M86.5626,71.933l1.4508,1.166c.3434-.1217.6853-.2516,1.0209-.3926C88.2184,72.4541,87.3,72.1666,86.5626,71.933ZM92.087,59.2966a19.268,19.268,0,0,1-4.6412,8.3313,14.5475,14.5475,0,0,1,1.5682-.1987A16.897,16.897,0,0,0,92.4568,60.8q4.7472.98,3.56,5.9359a9.9434,9.9434,0,0,1-1.2935,1.1667c1.1246-.2372,1.9844-1.3652,2.6427-2.8634Q97.3993,60.3987,92.087,59.2966Z" style="fill:#efe8e8;fill-rule:evenodd"/><path d="M92.4568,60.8a16.897,16.897,0,0,1-3.4428,6.6292c.1189-.01.2424-.0158.3627-.0173.1388-.1712.2744-.3377.4036-.5154a.47.47,0,0,0,.0721-.1048.0108.0108,0,0,0,.01-.0143c.0081-.0015.0081-.0015.0066-.01l.0032-.0047c.2422-.3317.4716-.6654.6914-1.0054.0837-.132.1627-.2672.2463-.399.1528-.2529.296-.5122.4346-.775.0825-.1607.1617-.3168.24-.4809.0825-.1608.1569-.32.2266-.4827.1225-.26.2306-.5291.3307-.7972.0715-.1754.1383-.3541.1969-.5312.0667-.1787.1287-.3607.1827-.5412.0771-.2346.1415-.4711.2058-.7076a5.0842,5.0842,0,0,1,1.8967,1.0586q1.557,1.4709.6717,4.3708a7.5,7.5,0,0,1-.5812.59c-.0455.0459-.0878.087-.1381.1295-.0748.068-.15.1358-.2257.1957a1.2039,1.2039,0,0,1-.1558.1244,1.7215,1.7215,0,0,1-.19.1432c-.099.0725-.1946.14-.2982.2091a2.2736,2.2736,0,0,0,1.1141.0433l.0033-.0048a9.9434,9.9434,0,0,0,1.2935-1.1667Q97.2022,61.7825,92.4568,60.8Z" style="fill:#ce8091;fill-rule:evenodd"/><path d="M94.72,67.9074A7.3036,7.3036,0,0,1,88.1461,69.12l-.5706-.14a17.9271,17.9271,0,0,0,1.4385-1.5511c.1189-.01.2424-.0158.3627-.0173-.0393.0572-.08.1063-.1242.16-.0732.0759-.1369.1583-.2054.2375-.1126.1331-.2252.2663-.3474.3928-.0651.0745-.13.149-.2.22-.1695.1852-.3484.3638-.5275.5426l.5828.071c.165.0151.33.03.4968.0327.16.0119.3269.0144.4842.01.162-.0008.3192-.0049.475-.0172.16-.0089.3116-.0244.4658-.0446A4.2527,4.2527,0,0,0,90.93,68.95a6.82,6.82,0,0,0,1.253-.3526,1.2318,1.2318,0,0,0,.1629-.0634c.0081-.0015.0161-.0028.0194-.0077.1629-.0634.3276-.14.4875-.2191.0113-.0062.0307-.014.0533-.0265.068-.0376.1439-.0765.2118-.1141a1.9543,1.9543,0,0,0,.2135-.1268c.0938-.0548.1829-.1129.2752-.1757A2.2736,2.2736,0,0,0,94.72,67.9074Z" style="fill:#af6d8e;fill-rule:evenodd"/><path d="M94.5232,62.1015q1.557,1.4709.6717,4.3708a7.5,7.5,0,0,1-.5812.59c-.0455.0459-.0878.087-.1381.1295-.0748.068-.15.1358-.2257.1957a1.2039,1.2039,0,0,1-.1558.1244,1.7215,1.7215,0,0,1-.19.1432c-.099.0725-.1946.14-.2982.2091a13.4357,13.4357,0,0,0-4.23-.4522c.1388-.1712.2744-.3377.4036-.5154a.47.47,0,0,0,.0721-.1048.0108.0108,0,0,0,.01-.0143c.0081-.0015.0081-.0015.0066-.01l.0032-.0047c.2517-.3252.4764-.6621.6914-1.0054.0885-.1287.1674-.2639.2463-.399.1528-.2529.296-.5122.4346-.775a5.3532,5.3532,0,0,0,.24-.4809c.0825-.1608.1569-.32.2266-.4827.1225-.26.2306-.5291.3307-.7972.0763-.1721.135-.3493.1969-.5312.0667-.1787.1287-.3607.1827-.5412.0771-.2346.1415-.4711.2058-.7076A5.0842,5.0842,0,0,1,94.5232,62.1015Z" style="fill:#dd999f;fill-rule:evenodd"/><path d="M97.3663,65.0392a10.622,10.622,0,0,1-.3215,2.5086,26.6454,26.6454,0,0,1-8.01,5.1586c-.8159-.2523-1.7341-.54-2.4717-.7734l-2.0375-1.64a23.6825,23.6825,0,0,0,2.9207-2.6655,14.5475,14.5475,0,0,1,1.5682-.1987A17.9271,17.9271,0,0,1,87.5755,68.98l.5706.14A7.3036,7.3036,0,0,0,94.72,67.9074l.0033-.0048C95.8482,67.6654,96.708,66.5374,97.3663,65.0392Z" style="fill:#c4b1b1;fill-rule:evenodd"/><path d="M93.6062,67.8641c-.0923.0628-.1814.1209-.2752.1757a1.9543,1.9543,0,0,1-.2135.1268c-.0679.0376-.1438.0765-.2118.1141-.0226.0125-.042.02-.0533.0265-.16.0794-.3246.1557-.4875.2191-.0033.0049-.0113.0062-.0194.0077a1.2318,1.2318,0,0,1-.1629.0634,6.82,6.82,0,0,1-1.253.3526c-.1527.0283-.3022.0518-.4532.0672-.1542.02-.3053.0357-.4658.0446-.1558.0123-.313.0164-.475.0172s-.3207-.0029-.4842-.01-.3318-.0176-.4968-.0327l-.5828-.071c.1791-.1788.358-.3574.5275-.5426.07-.0711.1353-.1456.2-.22.1222-.1265.2348-.26.3474-.3928.0685-.0792.1322-.1616.2054-.2375.0441-.054.0849-.1031.1242-.16A13.4357,13.4357,0,0,1,93.6062,67.8641Z" style="fill:#ce8091;fill-rule:evenodd"/><path d="M53.6325,66.96a2.0515,2.0515,0,0,1,.5974-.273.8829.8829,0,0,1,.8607.1949.8268.8268,0,0,1,.1234.856,2.2208,2.2208,0,0,1-.2046.4773.9908.9908,0,0,0-.1043-.09,1.191,1.191,0,0,0,.1321-.3158.7.7,0,0,0-.1135-.7267A.6613.6613,0,0,0,54.21,67.02a1.685,1.685,0,0,0-.346.1564Q53.7445,67.062,53.6325,66.96Z" style="fill:#c4b1b1;fill-rule:evenodd"/><path d="M65.1433,69.672c-.57-.5014-1.11-1.02-1.6089-1.5506a19.6521,19.6521,0,0,1-5.2459-9.9q-6.6858.9392-5.4671,7.923c.2674.2779.54.5528.8113.8149a2.0109,2.0109,0,0,1,.5992-.2711.876.876,0,0,1,.8576.1942.818.818,0,0,1,.1221.8569,2.2085,2.2085,0,0,1-.2.4769c.2883.2452.5815.4874.8818.7188a24.9958,24.9958,0,0,0,5.5917,3.3178ZM53.8981,65.3983q-.8756-5.0256,3.9268-5.7a17.2988,17.2988,0,0,0,4.3538,8.4664l-.5752.1086A7.5225,7.5225,0,0,1,53.8981,65.3983Z" style="fill:#efe8e8;fill-rule:evenodd"/><path d="M57.8249,59.6982q-4.7994.68-3.9268,5.7a7.5225,7.5225,0,0,0,7.7054,2.8749l.5752-.1086A17.2988,17.2988,0,0,1,57.8249,59.6982Zm3.3761,8.4655a7.4864,7.4864,0,0,1-6.4658-2.9768q-.702-2.9458.9455-4.32A5.0822,5.0822,0,0,1,57.64,59.93,17.2476,17.2476,0,0,0,61.7871,68.13Z" style="fill:#ce8091;fill-rule:evenodd"/><path d="M57.64,59.9284A17.2,17.2,0,0,0,61.7889,68.13l-.59.0319a7.4713,7.4713,0,0,1-6.4651-2.9772q-.6985-2.9462.9472-4.32A5.0985,5.0985,0,0,1,57.64,59.9284Z" style="fill:#dd999f;fill-rule:evenodd"/><path d="M61.4854,72.2525a24.9958,24.9958,0,0,1-5.5917-3.3178,16.4163,16.4163,0,0,0,7.6407-.8133c.4993.53,1.0392,1.0492,1.6089,1.5506Z" style="fill:#c4b1b1"/><path d="M104.8622,100.19c0-.31-.01-.62-.02-.93,0-.07-.01-.13-.01-.2-.01-.26-.03-.52-.05-.78s-.04-.52-.07-.79c-.01-.06-.01-.13-.02-.19-.03-.3-.06-.59-.09-.88v-.01c-.05-.42-.1-.82-.16-1.23-.08-.58-.17-1.15-.28-1.72-.19-1.02-.41-2.02-.68-2.98-.07-.31-.16-.61-.25-.91-.21-.72-.44-1.42-.7-2.1-.11-.31-.22-.61-.35-.9-.27-.68-.56-1.33-.89-1.97-.33-.71-.71-1.39-1.1-2.05a16.2706,16.2706,0,0,0-.86-1.53c-.16-.27-.35-.57-.58-.89-.18-.28-.39-.57-.61-.88-.5-.67-1.1-1.42-1.8-2.2l-.05-.05v-.01c-.08-.09-.16-.18-.25-.27-.34-.38-.72-.77-1.13-1.16-.27-.25-.55-.51-.84-.77-.28-.25-.56-.49-.86-.74-.36-.31-.74-.61-1.14-.91-.27-.2-.56-.41-.86-.62-.12-.08-.24-.17-.37-.25-.3-.2-.6-.4-.92-.59-.44-.28-.9-.54-1.38-.8-.36-.2-.74-.4-1.13-.59-.2-.09-.4-.19-.6-.28a4.2317,4.2317,0,0,0-.49-.21v-.01c-.31-.14-.64-.27-.97-.4-.25-.1-.5-.2-.76-.29-.44-.16-.9-.32-1.36-.46a.2331.2331,0,0,0-.08-.02c-.45-.14-.9-.27-1.36-.39a32.6057,32.6057,0,0,0-5.32-.89c-.56-.06-1.13-.09-1.71-.11a25.7728,25.7728,0,0,0-10.95,1.96c-.23.1-.46.2-.69.31a.3769.3769,0,0,0-.13.06h-.01c-.01,0-.01.01-.02.02a23.1781,23.1781,0,0,0-2.48,1.28c-.77.44-1.5.92-2.2,1.41a30.2558,30.2558,0,0,0-2.38,1.87c-.22.17-.43.36-.64.55-.08.06-.54.45-1.21,1.1-.36.35-.79.78-1.25,1.29q-.36.39-.75.84c-.23.27-.47.55-.71.85-.25.3-.49.62-.73.95a52.5825,52.5825,0,0,1-.08.1c-.21.28-.42.57-.62.87-.12.18-.26.36-.38.53v.03c-.4.62-.79,1.28-1.16,1.97-.33.63-.65,1.29-.93,1.97-.13.33-.26.66-.38,1q-.24.66-.42,1.35c-.02.08-.03.15-.05.22-.05.16-.11.33-.15.5-.14.43-.26.87-.36,1.31a25.8134,25.8134,0,0,0-.57,2.86c-.12.78-.21,1.57-.28,2.38l-.03.52c-.05.62-.07,1.26-.08,1.91-.01.51-.01,1.01.01,1.51v.01c.01.84.06,1.65.14,2.46a28.1621,28.1621,0,0,0,.49,3.37v.01c.06.3.12.59.2.89v.01a25.0581,25.0581,0,0,0,.86,2.91l.1.27a1.31,1.31,0,0,0,.1.25v.01a20.017,20.017,0,0,0,.97,2.23,22.3881,22.3881,0,0,0,1.74,2.99c.34.52.7,1.02,1.09,1.52.43.55.88,1.08,1.36,1.6.42.46.86.9,1.33,1.34.08.08.16.16.25.24.24.22.49.44.74.66a29.9623,29.9623,0,0,0,3.95,2.94,31.4612,31.4612,0,0,0,16.96,4.57,35.9607,35.9607,0,0,0,6.75-.63c.52-.1,1.03-.21,1.54-.33.67-.17,1.33-.35,1.98-.56v-.01c.25-.07.49-.15.73-.23a.0761.0761,0,0,0,.04-.02h.01c.15-.05.3-.11.45-.17.14-.04.29-.1.43-.15a29.8238,29.8238,0,0,0,8.63-5.07c.38-.32.76-.65,1.13-.99.19-.18.38-.35.56-.53.15-.15.3-.29.44-.44.27-.27.53-.54.77-.81a.9972.9972,0,0,0,.1-.11c.27-.3.52-.6.77-.91.2-.24.39-.49.57-.74l.09-.12c.09-.12.18-.25.27-.38.15-.21.3-.43.43-.64h.01c.01-.02.02-.03.03-.05.05-.08.1-.15.14-.23.1-.16.2-.32.29-.48.08-.12.15-.25.22-.37a.7393.7393,0,0,0,.07-.12c.18-.33.35-.65.51-.98a.2506.2506,0,0,0,.04-.07c.15-.3.3-.62.44-.94.01-.02.01-.03.02-.05v-.01a5.3193,5.3193,0,0,0,.21-.5c.09-.21.18-.43.25-.65a3.0279,3.0279,0,0,0,.11-.32,4.9991,4.9991,0,0,0,.22-.65q.06-.18.12-.36a.8805.8805,0,0,0,.05-.15c.11-.37.21-.74.3-1.12.12-.5.22-1.01.31-1.53.03-.15.06-.3.08-.45a.34.34,0,0,0,.01-.1c.06-.32.1-.64.14-.96l.07-.74.03-.36c.03-.35.06-.7.07-1.06a1.47,1.47,0,0,0,0-.21v-.01c.02-.36.03-.72.03-1.09C104.8722,100.49,104.8722,100.34,104.8622,100.19Zm-21.75-26.51a9.7562,9.7562,0,0,1,9.71,4.03c.01.02.03.04.03.06a6.7845,6.7845,0,0,1,.64,1.15,8.7629,8.7629,0,0,1,.56,1.61,1.0108,1.0108,0,0,1,.03.17,7.0051,7.0051,0,0,1,.15.9,8.9875,8.9875,0,0,1,.05.9,7.872,7.872,0,0,1-.31,2.32,8.4442,8.4442,0,0,1-.76,1.93c-.21-.37-.44-.75-.67-1.12-.38-.63-.79-1.25-1.21-1.89-.01-.01-.02-.03-.03-.04-.16-.25-.33-.49-.52-.74-.11-.17-.23-.34-.35-.51-.16-.24-.34-.48-.51-.72-.75-1.03-1.56-2.08-2.44-3.14-.23-.28-.46-.56-.7-.84-.02-.02-.03-.04-.05-.06-.95-1.11-1.96-2.23-3.04-3.38-.08-.08-.15-.16-.21-.23-.12-.13-.24-.26-.37-.39Zm13.15,41.53c-.26.39-.54.78-.83,1.16-.13.16-.25.32-.38.47a19.4121,19.4121,0,0,1-1.35,1.53c-.3.32-.62.63-.94.94a.6532.6532,0,0,1-.09.08c-.34.32-.68.62-1.03.91a23.635,23.635,0,0,1-2.95,2.13c-.5.32-1.01.61-1.53.88l-.42.21-.62.29a22.6827,22.6827,0,0,1-2.56,1.01l-.08.02-.61.14-2.84.66-2.24.27c-.12.01-.24.02-.37.03h-.01c-.56.04-1.13.06-1.72.07h-.27c-.64,0-1.28-.02-1.9-.07-.14-.01-.29-.02-.43-.04a24.4741,24.4741,0,0,1-2.45-.29c-.86-.14-1.7-.32-2.53-.54-.48-.13-.96-.28-1.44-.43q-.72-.255-1.44-.54c-.46-.19-.92-.4-1.37-.63a24.3918,24.3918,0,0,1-3.18-1.86,23.9639,23.9639,0,0,1-2.85-2.24c-.11-.09-.22-.19-.33-.29-.08-.07-.16-.15-.24-.23q-.7653-.72-1.44-1.47a25.2476,25.2476,0,0,1-1.65-1.99q-.33-.48-.66-.96a19.965,19.965,0,0,1-1.31-2.28q-.36-.705-.66-1.44v-.01a20.8825,20.8825,0,0,1-1.22-4.15c-.05-.23-.09-.47-.12-.71a23.3919,23.3919,0,0,1-.27-3.59v-.33c0-.11.01-.21.01-.31.01-.37.04-.72.06-1.07a4.898,4.898,0,0,1,.04-.68,8.404,8.404,0,0,1,.81-2.57,9.9934,9.9934,0,0,1,1.58-2.3,12.7626,12.7626,0,0,1,1.72-1.57,16.5248,16.5248,0,0,1,2.99-1.8c.04-.02.09-.04.13-.06.24-.11.49-.22.75-.34.26-.1.53-.21.81-.31a.031.031,0,0,1,.02-.01c.42-.16.87-.31,1.34-.46a40.0046,40.0046,0,0,1,9.27-1.66c.51-.04,1.04-.07,1.58-.09,1.12-.06,2.31-.08,3.55-.08h.21c.11,0,.22,0,.32.01a2.8052,2.8052,0,0,1,.29,0q1.5.015,2.88.09c.23.01.45.02.67.03h.01q.78.06,1.5.12c1.19.11,2.31.24,3.36.4.27.04.54.09.8.13.84.15,1.62.3,2.37.48.4.1.79.19,1.17.29.15.05.29.09.44.13q1.2451.375,2.31.78c.17.07.34.13.5.2,0,0,.04.02.12.05.11.05.22.1.33.14a.999.999,0,0,1,.15.07c.12.05.24.11.36.16q.1951.105.42.21c.04.02.09.04.13.06v.01a.9437.9437,0,0,0,.1.05c.22.12.46.25.71.4a15.896,15.896,0,0,1,2.25,1.54q.1047.09.21.18l.21.18.05.05c.11.1.22.2.31.3a7.0248,7.0248,0,0,1,.54.57c.08.08.14.16.21.23.19.23.37.47.53.69a1.7045,1.7045,0,0,1,.15.22c.04.07.08.13.11.19a4.5673,4.5673,0,0,1,.25.42,7.9843,7.9843,0,0,1,.59,1.23c0,.01.01.02.01.03.06.21.11.42.16.64.07.3.14.6.19.91q.03.195.06.39c.02.11.04.23.05.35s.03.23.04.35a1.7854,1.7854,0,0,1,.02.23,2.5613,2.5613,0,0,1,.03.39,5.1384,5.1384,0,0,1,.04.56c.03.34.04.7.04,1.06v.15c0,.24,0,.47-.01.71-.01.46-.04.91-.08,1.36a5.61,5.61,0,0,1-.06.59c-.03.28-.06.54-.11.82v.01a17.9828,17.9828,0,0,1-.34,1.78l-.07.3c-.09.33-.18.65-.28.97a16.6587,16.6587,0,0,1-.65,1.79,18.8445,18.8445,0,0,1-1.05,2.17c-.16.29-.33.57-.51.86C96.5123,114.83,96.3922,115.02,96.2623,115.21Z" style="fill:#efe8e8"/><path d="M104.8722,100.63c0,.44-.01.88-.03,1.31-.01.36-.04.71-.07,1.06-.02.35-.06.7-.1,1.05v.02c-.04.33-.08.66-.14.99a.34.34,0,0,1-.01.1,25.4076,25.4076,0,0,1-.69,3.1c-.05.17-.11.34-.17.51a4.9991,4.9991,0,0,1-.22.65,3.0279,3.0279,0,0,1-.11.32c-.07.22-.16.44-.25.65a5.3193,5.3193,0,0,1-.21.5v.01c-.14.34-.3.67-.46.99-.17.36-.36.71-.55,1.05a.7393.7393,0,0,1-.07.12c-.16.28-.33.57-.51.85-.04.08-.09.15-.14.23-.15.23-.31.46-.47.69-.09.13-.18.26-.27.38-.21.29-.43.58-.66.86-.25.31-.5.61-.77.91a.9972.9972,0,0,1-.1.11c-.24.27-.5.54-.77.81-.32.33-.65.65-1,.97a29.9746,29.9746,0,0,1-9.76,6.06,33.6244,33.6244,0,0,0,5.33-5.54.6532.6532,0,0,0,.09-.08,24.2671,24.2671,0,0,0,3.5-4.1,20.8441,20.8441,0,0,0,3.53-11.93,22.65,22.65,0,0,0-.13-2.39c-.01-.12-.03-.23-.04-.35a14.1744,14.1744,0,0,0-.3-1.65c-.05-.22-.1-.43-.16-.64,0-.01-.01-.02-.01-.03a7.9843,7.9843,0,0,0-.59-1.23,4.5673,4.5673,0,0,0-.25-.42c-.03-.06-.07-.12-.11-.19a1.7045,1.7045,0,0,0-.15-.22c-.16-.22-.34-.46-.53-.69-.07-.07-.13-.15-.21-.23a7.0248,7.0248,0,0,0-.54-.57c0-.01-.01-.03-.01-.04a40.7242,40.7242,0,0,0-3.24-7.32,80.2739,80.2739,0,0,0-9.83-13c-.08-.08-.15-.16-.21-.23-.12-.13-.24-.26-.37-.39v-.01c-.06-.06-.11-.11-.16-.16-1.93-2.01-4.08-4.07-6.48-6.18a32.6057,32.6057,0,0,1,5.32.89c.46.12.91.25,1.36.39a.2331.2331,0,0,1,.08.02c.46.14.92.3,1.36.46.26.09.51.19.76.29.33.13.66.26.97.4h.01c.16.07.32.15.48.22.2.09.4.19.6.28.39.19.77.39,1.13.59.48.26.94.52,1.38.8.32.19.62.39.92.59.13.08.25.17.37.25.3.21.59.42.86.62.4.3.78.6,1.14.91.3.25.58.49.86.74a27.21,27.21,0,0,1,2.22,2.2V77a24.5738,24.5738,0,0,1,3.9,5.55,33.4321,33.4321,0,0,1,4.25,12.63c.06.41.11.81.16,1.23.03.29.06.59.09.89.01.06.01.13.02.19.03.27.05.53.07.79s.04.52.05.78c0,.07.01.13.01.2C104.8622,99.72,104.8722,100.18,104.8722,100.63Z" style="fill:#c4b1b1"/><path d="M65.3611,68.7785a1.57,1.57,0,0,1-.2554-.7676,6.0544,6.0544,0,0,1-.0532-1.26q.0381-.6628.4765-.2495A4.8907,4.8907,0,0,1,66.8,68.926q.0917.5961-.1538.7246t-.6836-.2856Q65.5246,68.9519,65.3611,68.7785Z" style="fill:#efe8e8;fill-rule:evenodd"/><path d="M82.3733,68.6921a1.5655,1.5655,0,0,1,.5576-.5859,6.0574,6.0574,0,0,1,1.0879-.6392q.602-.2777.4433.3032a4.8979,4.8979,0,0,1-1.5429,2.2613q-.4834.36-.7119.2045c-.1534-.1044-.1758-.35-.0694-.7377S82.3225,68.8425,82.3733,68.6921Z" style="fill:#c4b1b1;fill-rule:evenodd"/><path d="M81.7971,68.6071a1.5578,1.5578,0,0,1,.083-.8051,6.0469,6.0469,0,0,1,.47-1.17q.3077-.5881.5371-.0313a4.8863,4.8863,0,0,1,.16,2.7329q-.1611.5815-.4385.5972c-.1836.0112-.3525-.1695-.5049-.5415S81.8489,68.757,81.7971,68.6071Z" style="fill:#c4b1b1;fill-rule:evenodd"/><path d="M70.2867,60.9158,71.553,62.402a33.4125,33.4125,0,0,1,.7-6.7459l.5636,1.3,1.9684-5.5029a55.226,55.226,0,0,0,2.3791,5.8924l.8435-.9287a12.0512,12.0512,0,0,1,.59,5.5067l1.2082-.62q.0689,1.3561.0756,2.7144a8.0832,8.0832,0,0,1-.5081,3.401,5.09,5.09,0,0,1-3.6428,2.7452,6.7889,6.7889,0,0,1-2.9208-.0908,2.4473,2.4473,0,0,1-1.6162-.8489,7.0525,7.0525,0,0,1-.5923-1.9339,16.8088,16.8088,0,0,1-.3148-6.3755Z" style="fill:#0f0d0d;fill-rule:evenodd"/><path d="M90.8222,81.91a3.997,3.997,0,0,1-.39.54,1.5348,1.5348,0,0,1-.13.16,10.1232,10.1232,0,0,1-.93,1.01c-.47.46-.91.9-1.3,1.33a26.6428,26.6428,0,0,0-3.44,4.44c-.26-.04-.53-.09-.8-.13-1.05-.16-2.17-.29-3.36-.4q-.72-.06-1.5-.12h-.01c-.22-.01-.44-.02-.67-.03q-1.38-.075-2.88-.09a2.8052,2.8052,0,0,0-.29,0c.19-2.19.57-5.3.57-5.55,0-.3,5.7-3.13,7.83-4.11a7.6529,7.6529,0,0,1,.79-.34,24.0859,24.0859,0,0,1,2.8-.05c.12.01.24.01.37.02a9.7218,9.7218,0,0,1,2.08.33C90.9923,79.34,91.8822,80.2,90.8222,81.91Z" style="fill:#c4b1b1;fill-rule:evenodd"/><path d="M93.2123,74.05c-.2,1.71-1.09,3.95-4.51,2.4,0,0-1.56-3.77,2.14-4.18A26.6352,26.6352,0,0,1,93.2123,74.05Z" style="fill:#9b8080"/><path d="M60.4022,76.45c-3.36,1.52-4.28-.61-4.5-2.31a30.2558,30.2558,0,0,1,2.38-1.87C61.9523,72.69,60.4022,76.45,60.4022,76.45Z" style="fill:#9b8080"/><path d="M90.68,72.6263a1.9195,1.9195,0,0,0-1.62,2.95,1.9382,1.9382,0,0,0,1.62.87,1.9171,1.9171,0,0,0,1.61-.88,1.8872,1.8872,0,0,0,.3-1.03A1.91,1.91,0,0,0,90.68,72.6263Z" style="fill:#0f0d0d"/><path d="M58.5425,72.6263a1.9195,1.9195,0,0,0-1.62,2.95,1.9382,1.9382,0,0,0,1.62.87,1.9171,1.9171,0,0,0,1.61-.88,1.8864,1.8864,0,0,0,.3-1.03A1.91,1.91,0,0,0,58.5425,72.6263Z" style="fill:#0f0d0d"/><path d="M57.3207,81.4209A6.68,6.68,0,0,1,58.74,83.0281c-1.1038-1.1257-2.8283-1.3719-4.11-2.29a12.08,12.08,0,0,0-1.4072-1.0406c-.5954-.3071-1.2982-.38-1.8641-.7387a2.9412,2.9412,0,0,1-.88-.9317,3.1681,3.1681,0,0,1-.45-2.6c.1252-.3821.4005-.89.8435-.9541a2.9542,2.9542,0,0,1,1.073.1852c.7011.2066.9981.8959,1.3528,1.4754.547.8934,1.1132,1.7762,1.73,2.6236A19.6652,19.6652,0,0,0,57.3207,81.4209Z" style="fill:none"/><path d="M50.6622,79.91l-.13-.09a.1.1,0,0,1,.04-.05A1.0986,1.0986,0,0,0,50.6622,79.91Z" style="fill:#efe8e8"/><path d="M63.4222,70.03c-.08.06-.21-.01-.27-.1-.05-.1-.06-.21-.11-.31a.134.134,0,0,0-.05-.06.3769.3769,0,0,1,.13-.06Z" style="fill:#efe8e8"/><path d="M64.4652,86.75l-1.1374-1.5062a14.9976,14.9976,0,0,0-1.0308-1.2665c-1.6313-1.73-4.084-2.6913-5.2439-4.7669a14.8,14.8,0,0,0,3.87,5.25,12.7517,12.7517,0,0,0,3.6438,2.7315C64.6635,87.0616,64.5634,86.88,64.4652,86.75Z" style="fill:#2d2a29"/><path d="M54.4623,80.21c1.06.9,2.52,1.43,3.16,2.67-.33-.63-.75-1.22-1.1-1.84-.36-.62-.69-1.26-1.01-1.91-.54-1.09-1.03-2.2-1.46-3.34-.36.35-.79.78-1.25,1.29q-.36.39-.75.84c.28.26.59.49.87.75C53.4523,79.16,53.9022,79.74,54.4623,80.21Z" style="fill:#2d2a29"/><path d="M60.6322,86.4969a3.8377,3.8377,0,0,0-1.57-1.3146L55.6549,83.25a22.9766,22.9766,0,0,1-2.2942-1.5355c-.4284-.3154-1.0815-.8594-1.66-.653a1.2021,1.2021,0,0,0-.626.7c-.1994.49.2093.7952.6114.9829a8.6171,8.6171,0,0,1,2.039,1.7426,14.0728,14.0728,0,0,0,3.2442,1.743c1.8911.9583,3.4658,2.5359,5.4841,3.1853-.2107-.7093-.9568-1.1166-1.3259-1.7578C60.9174,87.2922,60.8375,86.8644,60.6322,86.4969Z" style="fill:#2d2a29"/><path d="M52.1222,79.38a7.7687,7.7687,0,0,0-.78-.61c-.25.3-.49.62-.73.95.86.33,1.71.66,2.57.99A5.2716,5.2716,0,0,0,52.1222,79.38Z" style="fill:#2d2a29"/><path d="M53.4821,85.56c.01-.13-.14-.21-.27-.26-.81-.28-1.6-.6-2.38-.96-.64-.29-1.25-.67-1.9-.94a3.3356,3.3356,0,0,0-.56-.18c-.33.63-.65,1.29-.93,1.97a1.3337,1.3337,0,0,0,.8.28Z" style="fill:#2d2a29"/><path d="M53.3021,89.11a22.5324,22.5324,0,0,1,4.63,2.07c.03.01.06.03.09.04.26-.1.53-.21.81-.31a.031.031,0,0,1,.02-.01c.42-.16.87-.31,1.34-.46-1.06-.76-2.12-1.51-3.18-2.26-1.46-1.04-3.07-2.13-4.87-2.08-.76.03-1.5.26-2.26.34a7.6074,7.6074,0,0,1-2.13-.1c-.24-.04-.47-.1-.69-.15q-.24.66-.42,1.35c-.02.08-.03.15-.05.22-.05.16-.11.33-.15.5.25.08.5.15.76.21C49.2123,88.9,51.3021,88.62,53.3021,89.11Z" style="fill:#2d2a29"/><path d="M54.1522,93.42a16.5248,16.5248,0,0,1,2.99-1.8,8.6467,8.6467,0,0,0-4.75-1.45c-.34-.03-.8.03-.83.37a.6746.6746,0,0,0,.25.49l1.59,1.62C53.6422,92.89,53.8822,93.18,54.1522,93.42Z" style="fill:#2d2a29"/><path d="M46.0421,92.42c.55-.08,1.05-.33,1.58-.46a3.3945,3.3945,0,0,1,2.51.43c.51.33,1.04.81,1.62.67a9.51,9.51,0,0,1-1.15-2.27,2.6713,2.6713,0,0,0-1.81-1.66,3.3378,3.3378,0,0,0-1.09.1c-.54.12-1.08.22-1.62.34a25.8134,25.8134,0,0,0-.57,2.86A1.5663,1.5663,0,0,0,46.0421,92.42Z" style="fill:#2d2a29"/><path d="M46.2623,95.19c.35-.1.68-.25,1.02-.38a11.7551,11.7551,0,0,1,2.18-.53c.32-.06.65-.1.97-.15a4.4239,4.4239,0,0,0-2.24-.68,3.4262,3.4262,0,0,0-2.68,1.05,3.3216,3.3216,0,0,0-.28.31l-.03.52C45.4623,95.48,46.0922,95.25,46.2623,95.19Z" style="fill:#2d2a29"/><path d="M49.0922,96.28a8.5807,8.5807,0,0,1-3.13,1.37,4.3659,4.3659,0,0,0,2.92.25,17.2334,17.2334,0,0,0,1.97-.61,9.9934,9.9934,0,0,1,1.58-2.3.7121.7121,0,0,0-.85-.07A24.0466,24.0466,0,0,0,49.0922,96.28Z" style="fill:#2d2a29"/><path d="M48.2521,101.36c.55-.02,1.07.22,1.61.25h.08c.01-.37.04-.72.06-1.07a4.898,4.898,0,0,1,.04-.68c-.03-.01-.05-.02-.08-.03a23.0184,23.0184,0,0,0-2.58-.61c-.47-.09-.95-.16-1.42-.26a7.719,7.719,0,0,1-.83-.2c.01.84.06,1.65.14,2.46a2.5677,2.5677,0,0,0,1.47.47C47.2521,101.66,47.7321,101.39,48.2521,101.36Z" style="fill:#2d2a29"/><path d="M49.7521,106.63a5.2087,5.2087,0,0,0,.57-.08c-.05-.23-.09-.47-.12-.71-.66-.37-1.4-.62-2.07-.95-.71-.34-1.31-.79-2.11-.44-.08.04-.18.09-.26.14v.01c.06.3.12.59.2.89v.01c.08.05.14.09.2.13a5.64,5.64,0,0,0,2.34.94A5.27,5.27,0,0,0,49.7521,106.63Z" style="fill:#2d2a29"/><path d="M52.2023,112.15q-.36-.705-.66-1.44v-.01a20.8,20.8,0,0,1-4.72-2.29l.1.27.78.69a3.7206,3.7206,0,0,1-.68-.43,20.017,20.017,0,0,0,.97,2.23,14.3064,14.3064,0,0,0,3.11.89A5.7668,5.7668,0,0,0,52.2023,112.15Z" style="fill:#2d2a29"/><path d="M50.9623,114.11a1.7188,1.7188,0,0,0-1.23.05c.34.52.7,1.02,1.09,1.52.73-.03,1.48-.1,2.21-.18.38-.03.76-.07,1.14-.11q-.33-.48-.66-.96A9.1471,9.1471,0,0,1,50.9623,114.11Z" style="fill:#2d2a29"/><path d="M56.0123,119.49c-.5.02-1.01.02-1.51.03a29.9623,29.9623,0,0,0,3.95,2.94,4.33,4.33,0,0,0,2.23-.85,23.9639,23.9639,0,0,1-2.85-2.24C57.2321,119.43,56.6222,119.46,56.0123,119.49Z" style="fill:#2d2a29"/><path d="M64.3021,74.36c-.4-1.6-.85-3.2-1.34-4.78a23.1781,23.1781,0,0,0-2.48,1.28,1.6225,1.6225,0,0,0,.43.89C61.8522,72.83,63.4723,73.19,64.3021,74.36Z" style="fill:#2d2a29"/><path d="M60.9747,73.527q.4355,1.4709.8711,2.9418c.1148.3865.3037.7551.7639.7365a1.2569,1.2569,0,0,0,.9681-.69c.4653-.88-.5955-1.5207-1.1814-1.9663Q61.7,74.019,60.9747,73.527Z" style="fill:#2d2a29"/><path d="M85.9924,87.8513,87.13,86.3451a14.9914,14.9914,0,0,1,1.0307-1.2664c1.6314-1.73,4.084-2.6914,5.2439-4.767a14.7985,14.7985,0,0,1-3.87,5.25,12.753,12.753,0,0,1-3.6438,2.7315C85.7942,88.1625,85.8943,87.9812,85.9924,87.8513Z" style="fill:#2d2a29"/><path d="M96.3422,77.05c-.42,1.08-.89,2.14-1.4,3.18-.23.46-.46.92-.71,1.37l-.3.54c-.35.62-.77,1.21-1.1,1.84a4.1925,4.1925,0,0,1,1.45-1.48,20.7988,20.7988,0,0,0,1.71-1.19c.56-.47,1.01-1.05,1.54-1.54.2-.18.41-.35.61-.52Z" style="fill:#2d2a29"/><path d="M88.6122,90.29c1.74-.74,3.18-2.1,4.88-2.96a14.406,14.406,0,0,0,3.24-1.74,8.267,8.267,0,0,1,2.04-1.74c.4-.19.81-.5.61-.99a1.2074,1.2074,0,0,0-.63-.7c-.57-.2-1.23.34-1.66.66a23.3947,23.3947,0,0,1-2.29,1.53c-.28.16-.55.32-.83.47-.48.27-.95.54-1.43.81-.38.22-.77.43-1.15.65a3.82,3.82,0,0,0-1.57,1.32c-.2.37-.28.79-.49,1.16-.3.52-.86.89-1.16,1.4Z" style="fill:#2d2a29"/><path d="M99.3322,81.02c-.69.26-1.37.53-2.06.79a5.2671,5.2671,0,0,1,1.06-1.33,4.8956,4.8956,0,0,1,.42-.35C98.9821,80.45,99.1722,80.75,99.3322,81.02Z" style="fill:#2d2a29"/><path d="M102.1823,86.57l-5.21.09c-.01-.13.14-.21.27-.26.81-.28,1.6-.6,2.38-.96.56-.26,1.1-.58,1.67-.84C101.6222,85.24,101.9122,85.89,102.1823,86.57Z" style="fill:#2d2a29"/><path d="M103.2321,89.57c-2,.43-4.09.15-6.08.64a18.639,18.639,0,0,0-4.12,1.81.9437.9437,0,0,1-.1-.05v-.01c-.04-.02-.09-.04-.13-.06q-.2249-.105-.42-.21c-.12-.05-.24-.11-.36-.16a.999.999,0,0,0-.15-.07c-.11-.04-.22-.09-.33-.14-.08-.03-.12-.05-.12-.05-.16-.07-.33-.13-.5-.2.84-.6,1.68-1.2,2.52-1.79,1.46-1.04,3.07-2.13,4.87-2.08.76.03,1.5.26,2.26.34a7.5777,7.5777,0,0,0,1.96-.07C102.7921,88.15,103.0221,88.85,103.2321,89.57Z" style="fill:#2d2a29"/><path d="M98.8922,91.64a.6742.6742,0,0,1-.25.49l-1.59,1.62c-.19.19-.38.41-.59.62l-.05-.05-.21-.18q-.1051-.09-.21-.18a15.896,15.896,0,0,0-2.25-1.54,9.5488,9.5488,0,0,1,4.32-1.15C98.4022,91.24,98.8622,91.3,98.8922,91.64Z" style="fill:#2d2a29"/><path d="M104.1622,93.46c-.46-.1-.88-.29-1.33-.4a3.3944,3.3944,0,0,0-2.51.43c-.51.33-1.04.81-1.62.67a9.5024,9.5024,0,0,0,1.15-2.27,2.6713,2.6713,0,0,1,1.81-1.66,3.3386,3.3386,0,0,1,1.09.1c.24.05.49.1.73.15C103.7521,91.44,103.9723,92.44,104.1622,93.46Z" style="fill:#2d2a29"/><path d="M104.6022,96.41a2.7545,2.7545,0,0,1-.41-.12c-.35-.1-.68-.25-1.02-.38a11.75,11.75,0,0,0-2.18-.53c-.32-.06-.65-.1-.97-.15a4.424,4.424,0,0,1,2.24-.68,3.3362,3.3362,0,0,1,2.18.63C104.5021,95.59,104.5521,95.99,104.6022,96.41Z" style="fill:#2d2a29"/><path d="M104.8322,99.06c-.28,0-.53-.01-.67-.01a37.2253,37.2253,0,0,1-4.84-.16c-.05-.22-.1-.43-.16-.64,0-.01-.01-.02-.01-.03a7.9843,7.9843,0,0,0-.59-1.23,3.448,3.448,0,0,1,1.52-.52,4.0656,4.0656,0,0,1,.85.13c1.06.25,2.11.5,3.17.74.18.04.39.09.61.15.03.27.05.53.07.79S104.8222,98.8,104.8322,99.06Z" style="fill:#2d2a29"/><path d="M104.8722,100.63c0,.37-.01.73-.03,1.09v.01c-.02,0-.03.01-.05.01a14.6625,14.6625,0,0,0-2.35.58c-.31.14-.59.35-.91.5a4.1042,4.1042,0,0,1-1.74.31c0-.36-.01-.72-.04-1.06a4.23,4.23,0,0,0,.59-.23c.67-.36,1-1.11,1.63-1.51a3.265,3.265,0,0,1,2.09-.31,4.2553,4.2553,0,0,1,.8.17C104.8722,100.34,104.8722,100.49,104.8722,100.63Z" style="fill:#2d2a29"/><path d="M100.0521,101.32a2.2611,2.2611,0,0,1-.34.19,2.5613,2.5613,0,0,0-.03-.39,1.7854,1.7854,0,0,0-.02-.23c-.01-.12-.03-.23-.04-.35s-.03-.24-.05-.35q-.03-.195-.06-.39a.8779.8779,0,0,1,1.07.36C100.7623,100.58,100.4323,101.05,100.0521,101.32Z" style="fill:#2d2a29"/><path d="M104.7422,103.36a1.0155,1.0155,0,0,0-1.69-.38,1.6679,1.6679,0,0,1-.67.53,1.2948,1.2948,0,0,0-.67.45c.06-.12.92,0,1.04.02.35.04.69.15,1.03.21.28.05.69.1.89-.09Z" style="fill:#2d2a29"/><path d="M96.0421,76.72c-.25.62-.52,1.22-.8,1.82a.8129.8129,0,0,1-.21.31c-.36.33-.93-.03-1.41.04-.05.01-.09.02-.13.03-.67.21-1.04,1.2-1.74,1.13-.21-.19-.06-.54.1-.78.32-.49.65-.98.98-1.47.01-.01.01-.02.02-.03a9.8584,9.8584,0,0,1,1.15-1.49,4.89,4.89,0,0,1,.91-.72C95.3222,75.95,95.7023,76.34,96.0421,76.72Z" style="fill:#2d2a29"/><path d="M87.6222,71.88a3.6928,3.6928,0,0,0-.86.86c-.12.18-.3.4-.51.34a12.5867,12.5867,0,0,1-.14-2.94.5582.5582,0,0,1,.07-.26.2248.2248,0,0,1,.14-.08l.01-.01c.16.07.32.15.48.22.2.09.4.19.6.28.39.19.77.39,1.13.59C88.6622,71.41,88.0021,71.61,87.6222,71.88Z" style="fill:#2d2a29"/><path d="M67.1767,71.48a1.4854,1.4854,0,0,1,.7373.3171l1.7571,1.1764c.5592.3743-.8911.6435-1.0662.7014a5.2226,5.2226,0,0,1-1.4157.3542,1.5116,1.5116,0,0,1-1.0574-.265.9458.9458,0,0,1-.1439-1.064C66.1564,72.1785,66.53,71.4557,67.1767,71.48Z" style="fill:#2d2a29"/><path d="M61.5757,79.97a14.4761,14.4761,0,0,0,6.6705,8.988c5.6339,3.356-2.1446-9.785-2.3214-9.785S61.5757,79.97,61.5757,79.97Z" style="fill:#141414;fill-rule:evenodd"/><path d="M88.1585,79.97a14.4765,14.4765,0,0,1-6.6706,8.988c-5.6339,3.356,2.1447-9.785,2.3214-9.785S88.1585,79.97,88.1585,79.97Z" style="fill:#141414;fill-rule:evenodd"/><path d="M87.3922,80.23q-4.845,1.425-5.51,7.08-.6449,5.655-7.12,5.82c-3.34.09-5.47-.88-6.37-2.9a5.8206,5.8206,0,0,1-.49-2,8.279,8.279,0,0,0-5.3-7.25,4.7083,4.7083,0,0,1-.45-.22,5.89,5.89,0,0,0-.69-.4q-3.03-1.965,1.35-4.61a23.263,23.263,0,0,1,12.18-3.02,26.7038,26.7038,0,0,1,7.88,1.1,19.82,19.82,0,0,1,4.35,1.92Q92.2471,78.81,87.3922,80.23Z" style="fill:#3a3a3a;fill-rule:evenodd"/><path d="M85.0822,79.28q-4.755,1.41-6.34,4.56-1.6051,3.165-7.05,5.59a7.1863,7.1863,0,0,1-3.3.8,5.8206,5.8206,0,0,1-.49-2,8.279,8.279,0,0,0-5.3-7.25,4.7083,4.7083,0,0,1-.45-.22,5.89,5.89,0,0,0-.69-.4q-3.03-1.965,1.35-4.61a23.263,23.263,0,0,1,12.18-3.02,26.7038,26.7038,0,0,1,7.88,1.1,20.8556,20.8556,0,0,1,2.05,1.06Q89.8423,77.89,85.0822,79.28Z" style="fill:#484848;fill-rule:evenodd"/><path d="M104.4423,105.61c-.09.52-.19,1.03-.31,1.53-.29-.01-.58-.02-.87-.02-.59.01-1.19.02-1.78.02a4.3081,4.3081,0,0,1-1.56-.17,1.795,1.795,0,0,1-.39-.2v-.01c.05-.28.08-.54.11-.82.38.03.77.04,1.16.04a13.27,13.27,0,0,0,1.67-.13c.49-.07.97-.21,1.46-.27A1.2481,1.2481,0,0,1,104.4423,105.61Z" style="fill:#2d2a29;fill-rule:evenodd"/><path d="M101.8722,104.97c-.03.08-.13.11-.21.12-.61.08-1.21.17-1.81.25a.7087.7087,0,0,1-.15.01c.04-.45.07-.9.08-1.36a.9831.9831,0,0,0,.11.05c.28.11.55.22.83.33.31.12.63.25.95.37C101.7721,104.78,101.9022,104.86,101.8722,104.97Z" style="fill:#2d2a29;fill-rule:evenodd"/><path d="M99.1922,108.55a.6729.6729,0,0,1,.2-.01c1.36.05,2.72.03,4.08-.04a.7316.7316,0,0,0,.31-.09l-.12.36a4.97,4.97,0,0,1-.22.65,3.0053,3.0053,0,0,1-.11.32c-.07.22-.16.44-.25.65a5.3193,5.3193,0,0,1-.21.5v.01c-.01.02-.01.03-.02.05-.47-.08-1.01-.23-1.2-.66-.07-.17-.08-.35-.16-.51-.23-.46-.85-.5-1.36-.59a3.3472,3.3472,0,0,1-1.01-.34Z" style="fill:#2d2a29;fill-rule:evenodd"/><path d="M101.0922,111.16c-.67.14-1.33.26-2.01.35-.3.04-.59.08-.89.1a16.6587,16.6587,0,0,0,.65-1.79,1.2164,1.2164,0,0,1,.48.1,4.5311,4.5311,0,0,1,.86.59c.15.12.3.23.46.34C100.7123,110.9,101.0021,111.16,101.0922,111.16Z" style="fill:#2d2a29;fill-rule:evenodd"/><path d="M102.3722,111.96c-.16.33-.33.65-.51.98a.7393.7393,0,0,1-.07.12c-.07.12-.14.25-.22.37-.49-.04-.98-.08-1.47-.13a3.0213,3.0213,0,0,1-2.14-.78c.04.04.28.03.34.04.13.01.25.02.37.02.25.01.49.01.73,0a8.144,8.144,0,0,0,2.54-.51A1.5978,1.5978,0,0,1,102.3722,111.96Z" style="fill:#2d2a29;fill-rule:evenodd"/><path d="M101.1022,114.19c-.13.21-.28.43-.43.64-.09.13-.18.26-.27.38l-.09.12a10.0178,10.0178,0,0,1-3.68-.69c.18-.29.35-.57.51-.86a4.4892,4.4892,0,0,0,2.02.41c.31,0,.63,0,.94-.01.27-.01.55-.01.82,0A1.0881,1.0881,0,0,1,101.1022,114.19Z" style="fill:#2d2a29;fill-rule:evenodd"/><path d="M99.3322,116.54a3.3991,3.3991,0,0,1-.46.06,1.7843,1.7843,0,0,0-.49.17.3545.3545,0,0,0-.2.18c-.03.09.01.2-.03.29a.3772.3772,0,0,1-.2.17,2.6621,2.6621,0,0,1-2.9-.57c.13-.15.25-.31.38-.47a2.7344,2.7344,0,0,1,.57.11A11.2629,11.2629,0,0,0,99.3322,116.54Z" style="fill:#2d2a29;fill-rule:evenodd"/><path d="M94.7623,118.94a1.554,1.554,0,0,1-.67.72,2.82,2.82,0,0,1-2.25.72,1.1919,1.1919,0,0,1-.2-.08c.35-.29.69-.59,1.03-.91a.6532.6532,0,0,0,.09-.08c.32-.31.64-.62.94-.94a.38.38,0,0,1,.09.13l-.37.24h1.18a.1832.1832,0,0,1,.15.05A.1939.1939,0,0,1,94.7623,118.94Z" style="fill:#2d2a29;fill-rule:evenodd"/><path d="M97.6622,118.34c-.18.18-.37.35-.56.53-.37.34-.75.67-1.13.99a.5758.5758,0,0,1-.23-.56,1.0617,1.0617,0,0,1,.58-.92,1.7765,1.7765,0,0,1,.83-.08C97.3222,118.31,97.4923,118.33,97.6622,118.34Z" style="fill:#2d2a29;fill-rule:evenodd"/><path d="M54.2321,117.82a1.2084,1.2084,0,0,1-.3.41,3.1007,3.1007,0,0,1-.42.39c-.47-.44-.91-.88-1.33-1.34.14-.21.43-.23.66-.26a6.9494,6.9494,0,0,1,1.29-.01.1539.1539,0,0,1,.13.05.1566.1566,0,0,1,.03.12A1.388,1.388,0,0,1,54.2321,117.82Z" style="fill:#2d2a29;fill-rule:evenodd"/><path d="M57.2623,118.85a3.0742,3.0742,0,0,1-.68.05c-.46,0-1.01-.07-1.19-.49a.8039.8039,0,0,1,.13-.73,1.2252,1.2252,0,0,1,.3-.3Q56.4971,118.13,57.2623,118.85Z" style="fill:#2d2a29;fill-rule:evenodd"/><path d="M66.6722,124.64a.4276.4276,0,0,1-.15.18.7445.7445,0,0,1-.33.06,5.1105,5.1105,0,0,1-1.93-.6,1.0311,1.0311,0,0,1-.27-.17.7813.7813,0,0,1-.13-.64c.45.23.91.44,1.37.63Q65.9524,124.385,66.6722,124.64Z" style="fill:#2d2a29;fill-rule:evenodd"/><path d="M73.0922,125.9a.9877.9877,0,0,1-.17.58.5714.5714,0,0,1-.15.16.5016.5016,0,0,1-.24.06,1.7733,1.7733,0,0,1-1.2-.45,4.596,4.596,0,0,1-.69-.64A24.4741,24.4741,0,0,0,73.0922,125.9Z" style="fill:#2d2a29;fill-rule:evenodd"/><path d="M77.4122,125.94a5.4133,5.4133,0,0,0-.76.48,2.1649,2.1649,0,0,1-1.12.6.4015.4015,0,0,1-.35-.12c-.18-.21.05-.51.26-.69.08-.07.17-.14.25-.2C76.2821,126,76.8522,125.98,77.4122,125.94Z" style="fill:#2d2a29;fill-rule:evenodd"/><path d="M83.7023,126.07c-.51.12-1.02.23-1.54.33a1.9126,1.9126,0,0,1,.34-.91c.12-.18.25-.34.37-.51l.61-.14a.53.53,0,0,1,.1.14A1.4008,1.4008,0,0,1,83.7023,126.07Z" style="fill:#2d2a29;fill-rule:evenodd"/><path d="M86.1222,123.81a2.4108,2.4108,0,0,0-.27.53,2.9921,2.9921,0,0,0-.19.98.5537.5537,0,0,0,.02.18c.25-.07.49-.15.73-.23a.0758.0758,0,0,0,.04-.02h.01a2.894,2.894,0,0,0,.27-.71,1.7912,1.7912,0,0,0,.08-.94c-.02-.04-.04-.07-.07-.08Z" style="fill:#2d2a29;fill-rule:evenodd"/><path d="M88.6923,122.43a2.8825,2.8825,0,0,1-.49.89c-.43.59-.86,1.18-1.29,1.76a11.6182,11.6182,0,0,0,.25-1.77C87.6823,123.04,88.1923,122.75,88.6923,122.43Z" style="fill:#2d2a29;fill-rule:evenodd"/></svg>