<svg id="Camada_1" data-name="Camada 1" xmlns="http://www.w3.org/2000/svg" viewBox="0 0 150 150"><path d="M107.3627,137.6611a.4949.4949,0,0,1-.31.38c-2.67,1.03-5.97,2.09-8.57.29a7.9182,7.9182,0,0,1-2.43-3.33c-.6-1.23-1.28-2.68-2.62-3.24a.53.53,0,0,1-.31-.63.3943.3943,0,0,1,.57-.33,5.4842,5.4842,0,0,1,2.61,2.49,18.1845,18.1845,0,0,0,2.04,3.6c2.23,2.43,5.84,1.19,8.44.19C107.1928,136.921,107.4428,137.3211,107.3627,137.6611Z" style="fill:#c48a62"/><path d="M48.159,101.9a.2655.2655,0,0,1-.06.05h.08A.1609.1609,0,0,1,48.159,101.9Zm17.22,47.93h-.01c-.04,0-.04,0,.02.01a.3405.3405,0,0,0,.14.03h.03C65.4988,149.86,65.4388,149.84,65.379,149.83Zm0,0h-.01c-.04,0-.04,0,.02.01a.3405.3405,0,0,0,.14.03h.03C65.4988,149.86,65.4388,149.84,65.379,149.83Zm47.7-30.94a28.2558,28.2558,0,0,0-2.96-7.39l-.35-.56a.6141.6141,0,0,0-.07-.18c-.11-.15-.22-.31-.33-.46l-.05-.08h-.01a37.0928,37.0928,0,0,0-7.56-8.42,32.7975,32.7975,0,0,1-2.46,8.87,25.2278,25.2278,0,0,1-10.37,12.2,25.9412,25.9412,0,0,1-14.15,3.16,29.2162,29.2162,0,0,1-13.5-3.52c-11.93-6.7-13.17-20.56-13.17-20.56a27.5615,27.5615,0,0,0-5.13,5.29c-.55.73-1.08,1.48-1.6,2.23-.31.44-.61.89-.91,1.33a23.2336,23.2336,0,0,0-3.3,7.71,1.2633,1.2633,0,0,0-.06.21c-.32,1.02-1.5,5.53.48,8.81a6.54,6.54,0,0,0,2.39,2.3,6.0193,6.0193,0,0,0,.67.34,4.788,4.788,0,0,0,.65.25,5.7283,5.7283,0,0,0,1.21.29,5.9527,5.9527,0,0,0,1.11.04l.3-.03c.11-.01.22-.03.33-.05s.22-.05.33-.07a3.3749,3.3749,0,0,0,.48-.14,2.7385,2.7385,0,0,0,.4-.15c.23-.1.46-.21.67-.32a8.1839,8.1839,0,0,0,1.65-1.21,9.77,9.77,0,0,0,1.57-1.84l.43-.38,1.07-.94c.04.09.07.16.1.23,0,.01.01.01.01.02a2.0214,2.0214,0,0,1,.09.3c.11.61.24,1.21.38,1.8.03.15.06.29.1.45a40.2451,40.2451,0,0,0,3.96,10.06c.09.18.18.34.27.49v.01a3.3747,3.3747,0,0,1,.23.4c.25.44.52.88.79,1.31v.01c0,.01.01.02.02.04a.2958.2958,0,0,1,.03.04c.02.03.04.07.07.12a67.3021,67.3021,0,0,0,4.24,6.09,23.6726,23.6726,0,0,0,6.83.89,13.4112,13.4112,0,0,0,3.64-.57c.2-.48.36-.96.5-1.41.09-.24.16-.46.24-.67a.1854.1854,0,0,0,.02-.07c.21-.53.41-1.03.59-1.48l.01-.01a2.03,2.03,0,0,1,1.82-.79,2.2784,2.2784,0,0,1,.67.17,5.71,5.71,0,0,1,1.08.59c.09.06.17.12.26.18a4.4928,4.4928,0,0,1,.56,1.14c.06.17.12.34.19.5a5.7646,5.7646,0,0,0,.85,1.95,21.7164,21.7164,0,0,0,4.95.78,26.6286,26.6286,0,0,0,5.61-.28c5.25-5.05,8.85-16.71,9.12-17.62a.1087.1087,0,0,0,.01-.05.01.01,0,0,0,.01-.01c.43-1.1.85-2.21,1.27-3.33.11-.29.24-.57.37-.85.01.01.01.02.03.03a23.646,23.646,0,0,0,2.54,2.81v.01c.05.04.1.1.16.15.05.05.1.1.16.15a5.8988,5.8988,0,0,0,.49.41c.17.13.33.24.49.34a4.3863,4.3863,0,0,0,.51.29c.15.07.31.14.46.2a6.507,6.507,0,0,1-1.9-1.24c-.11-.1-.22-.21-.32-.3a7.1347,7.1347,0,0,1,.55-1.27c0-.01.01-.01.01-.02.09-.17.19-.35.31-.54.15.26.31.51.47.75a10.5115,10.5115,0,0,0,1.79,2.03,8.7838,8.7838,0,0,0,1.39,1.03,3.3174,3.3174,0,0,0,.46-.02q.1948-.015.33-.03h.03a.44.44,0,0,1,.1-.02.06.06,0,0,1,.04-.01h.02a.58.58,0,0,1,.1-.02c.01-.01.01-.01.02-.01h.03a.031.031,0,0,1,.02-.01s.1-.02.28-.06a.5567.5567,0,0,0,.12-.04.9306.9306,0,0,0,.13-.04c.06-.02.13-.04.2-.07.14-.05.29-.12.46-.19.09-.04.17-.08.26-.13.01,0,.01,0,.01-.01a2.6292,2.6292,0,0,0,.23-.13,6.7155,6.7155,0,0,0,1.72-1.47,26.3954,26.3954,0,0,0-2.06-7.59A35.8974,35.8974,0,0,1,113.0789,118.89Z" style="fill:#e5c085"/><path d="M47.7812,128.8a7.2741,7.2741,0,0,1-3.21,1.8c-.11.02-.22.05-.33.07s-.22.04-.33.05l-.3.03a5.9513,5.9513,0,0,1-1.11-.04,5.7292,5.7292,0,0,1-1.21-.29,8.4646,8.4646,0,0,1-1.28-.59,6.5391,6.5391,0,0,1-2.39-2.3c1.95.44,4.89.37,8.05-2.42a11.3512,11.3512,0,0,1,2.1,3.67C47.7812,128.79,47.7812,128.79,47.7812,128.8Z" style="fill:#4c2828"/><path d="M40.0112,129.83a8.4646,8.4646,0,0,0,1.28.59,6.317,6.317,0,0,1-1.32-.59,6.5391,6.5391,0,0,1-2.39-2.3c-1.98-3.28-.8-7.79-.48-8.81a27.8714,27.8714,0,0,1,8.57,6.39c-3.16,2.79-6.1,2.86-8.05,2.42A6.5391,6.5391,0,0,0,40.0112,129.83Z" style="fill:#683d33"/><path d="M113.36,124.38a9.1436,9.1436,0,0,1-1.92,4.26l-.01.01a6.534,6.534,0,0,1-1.72,1.44c-.08.05-.15.09-.23.13,0,.01,0,.01-.01.01-.09.05-.17.09-.26.13-.17.07-.32.14-.46.19-.07.03-.14.05-.2.07a.9288.9288,0,0,1-.13.04.5638.5638,0,0,1-.12.04c-.18.04-.28.06-.28.06a.031.031,0,0,0-.02.01h-.03c-.01,0-.01,0-.02.01a.5755.5755,0,0,0-.1.02h-.02a.06.06,0,0,0-.04.01.44.44,0,0,0-.1.02h-.03q-.135.015-.33.03a3.3167,3.3167,0,0,1-.46.02h-.03c-.1,0-.2,0-.31-.01-.12-.01-.23-.01-.35-.03a1.1342,1.1342,0,0,1-.25-.03,3.7283,3.7283,0,0,1-.44-.08c-.11-.02-.22-.05-.34-.08-.2-.06-.41-.13-.61-.21h-.01a3.9973,3.9973,0,0,1-.42-.2,4.4028,4.4028,0,0,1-.51-.29c-.16-.1-.32-.21-.49-.34a5.9152,5.9152,0,0,1-.49-.41c-.06-.05-.11-.1-.16-.15-.06-.05-.11-.11-.16-.15v-.01c.02-.07.05-.15.08-.24l.12-.29c.09-.22.21-.48.36-.77.1-.16.2-.34.31-.52a10.5775,10.5775,0,0,1,.76-1.11,19.9489,19.9489,0,0,1,3.58-3.59c.56-.44,1.18-.89,1.86-1.34a35.9292,35.9292,0,0,1,3.71-2.14c.01-.01.02-.01.03-.02A13.6832,13.6832,0,0,1,113.36,124.38Z" style="fill:#683d33"/><path d="M76.5289,143.64a5.71,5.71,0,0,0-1.08-.59,2.2784,2.2784,0,0,0-.67-.17,2.03,2.03,0,0,0-1.82.79l-.01.01c-.18.45-.38.95-.59,1.48a.1854.1854,0,0,1-.02.07c-.08.21-.15.43-.24.67-.14.45-.3.93-.5,1.41a13.4112,13.4112,0,0,1-3.64.57,13.4709,13.4709,0,0,0,2.16-3.38C71.2388,141.82,75.159,141.9,76.5289,143.64Z" style="fill:#c48a62"/><path d="M110.12,111.5l-.35-.56a.6141.6141,0,0,0-.07-.18c-.11-.15-.22-.31-.33-.46l-.05-.08h-.01a37.0946,37.0946,0,0,0-7.56-8.42,32.8,32.8,0,0,1-2.46,8.87,20.001,20.001,0,0,1,10.08,10.36,35.9292,35.9292,0,0,1,3.71-2.14A28.2479,28.2479,0,0,0,110.12,111.5Z" style="fill:#c48a62"/><path d="M104.5689,130.44c-.15-.06-.31-.13-.46-.2a4.3863,4.3863,0,0,1-.51-.29c-.16-.1-.32-.21-.49-.34a5.8988,5.8988,0,0,1-.49-.41c-.06-.05-.11-.1-.16-.15-.06-.05-.11-.11-.16-.15v-.01a23.646,23.646,0,0,1-2.54-2.81c-.02-.01-.02-.02-.03-.03-.13.28-.26.56-.37.85-.17.46-.35.92-.52,1.38l-.75,1.95a.01.01,0,0,1-.01.01.1087.1087,0,0,1-.01.05c-.05.18-.24.78-.54,1.67-.47,1.38-1.22,3.46-2.21,5.73a49.6024,49.6024,0,0,1-2.56,5.1,23.4422,23.4422,0,0,1-3.81,5.12,26.6286,26.6286,0,0,1-5.61.28c3.01-2.91,7.68-8.61,11.21-18.41a77.3812,77.3812,0,0,0,3.19-10.34,33.6286,33.6286,0,0,0,5.12,8.15.0788.0788,0,0,0,.04.04,7.1347,7.1347,0,0,0-.55,1.27c.1.09.21.2.32.3A6.507,6.507,0,0,0,104.5689,130.44Z" style="fill:#c48a62"/><path d="M50.34,118.91a22.0208,22.0208,0,0,1-4.67,6.2,11.3512,11.3512,0,0,1,2.1,3.67c.01.01.01.01.01.02a9.9579,9.9579,0,0,0,1.14-1.23c.18-.16.51-.45.85-.75a14.6218,14.6218,0,0,1,1.18-.95,2.0086,2.0086,0,0,1,.09.3c.11.61.24,1.21.38,1.8.03.15.06.29.1.45a40.2375,40.2375,0,0,0,3.96,10.06c-2.05-4.02-4.51-16.33-5.04-19.04C50.38,119.1,50.34,118.91,50.34,118.91Z" style="fill:#c48a62"/><path d="M65.379,149.83c.06.01.12.03.18.04h-.03a.3405.3405,0,0,1-.14-.03c-.06-.01-.06-.01-.02-.01Z" style="fill:#353130"/><path d="M71.5989,147.31a3.8757,3.8757,0,0,1-2.79,2.69h-2.88c.16-.15.32-.3.49-.47a18.9957,18.9957,0,0,0,1.54-1.65A13.4112,13.4112,0,0,0,71.5989,147.31Z" style="fill:#4c2828"/><path d="M88.9488,147.91a8.3121,8.3121,0,0,1-3.24,2.09h-3.3a6.7024,6.7024,0,0,1-.83-.25c.48-.39,1.08-.9,1.76-1.56A26.6286,26.6286,0,0,0,88.9488,147.91Z" style="fill:#4c2828"/><path d="M83.3389,148.19c-.68.66-1.28,1.17-1.76,1.56a6.4,6.4,0,0,1-.84-.34c-.17-.08-.33-.17-.49-.26a3.0105,3.0105,0,0,1-.42-.27,5.2684,5.2684,0,0,1-1.44-1.47A21.7164,21.7164,0,0,0,83.3389,148.19Z" style="fill:#683d33"/><path d="M113.36,124.38a9.1436,9.1436,0,0,1-1.92,4.26l-.01.01a6.534,6.534,0,0,1-1.72,1.44c-.08.05-.15.09-.23.13,0,.01,0,.01-.01.01-.09.05-.17.09-.26.13-.17.07-.32.14-.46.19-.07.03-.14.05-.2.07a.9288.9288,0,0,1-.13.04.5638.5638,0,0,1-.12.04c-.18.04-.28.06-.28.06a.031.031,0,0,0-.02.01h-.03c-.01,0-.01,0-.02.01a.5755.5755,0,0,0-.1.02h-.02a.06.06,0,0,0-.04.01.44.44,0,0,0-.1.02h-.03q-.135.015-.33.03a3.3167,3.3167,0,0,1-.46.02h-.03c-.1,0-.2,0-.31-.01-.12-.01-.23-.01-.35-.03a1.1342,1.1342,0,0,1-.25-.03,3.7283,3.7283,0,0,1-.44-.08c-.11-.02-.22-.05-.34-.08-.2-.06-.41-.13-.61-.21h-.01a3.9973,3.9973,0,0,1-.42-.2,4.4028,4.4028,0,0,1-.51-.29c-.16-.1-.32-.21-.49-.34a5.9152,5.9152,0,0,1-.49-.41c-.06-.05-.11-.1-.16-.15-.06-.05-.11-.11-.16-.15v-.01c.02-.07.05-.15.08-.24l.12-.29.36-.77s6.59,2.65,6.51-6.56a35.9292,35.9292,0,0,1,3.71-2.14c.01-.01.02-.01.03-.02A13.6832,13.6832,0,0,1,113.36,124.38Z" style="fill:#4c2828"/><path d="M61.129,146.99c.16.21.32.4.48.6a6.9713,6.9713,0,0,0,.88.91,5.7515,5.7515,0,0,0,2.91,1.5h.53c.16-.15.32-.3.49-.47a18.9957,18.9957,0,0,0,1.54-1.65A23.6726,23.6726,0,0,1,61.129,146.99Z" style="fill:#683d33"/><path d="M62.7283,123.8529c.4689.1342.8818.5245,1.3665.47.079-.0089.171-.0259.228.0295a.2344.2344,0,0,1,.047.172l.003,1.0126a.3063.3063,0,0,1-.033.1711.2988.2988,0,0,1-.1725.1023,5.7652,5.7652,0,0,1-2.0286.2468,1.15,1.15,0,0,1-.5862-.1523,1.4517,1.4517,0,0,1-.4006-1.3017c.0416-.3687.4071-.58.7246-.7032A1.3491,1.3491,0,0,1,62.7283,123.8529Z" style="fill:#d89d71"/><path d="M68.4389,125.4049a.4049.4049,0,0,1,.199.1226c.0958.1311.0071.3237-.1228.4211s-.2937.1417-.4233.24c-.3755.2831-.4062.84-.9673.8666a2.1992,2.1992,0,0,1-1.422-.5261,1.0348,1.0348,0,0,1-.4451-.9642c.1406-.5032.7833-.5033,1.2006-.5047A5.7521,5.7521,0,0,1,68.4389,125.4049Z" style="fill:#d89d71"/><path d="M71.231,126.8755l.3989.4262a.1758.1758,0,0,1,.0569.0959c.0093.0951-.12.1318-.2153.1336-.3729.0069-.7459.0145-1.1188.02-.1952.003-.6318.0825-.7575-.12-.0955-.1537.01-.3736.1013-.5026a1.1724,1.1724,0,0,1,.6622-.4163A.8557.8557,0,0,1,71.231,126.8755Z" style="fill:#d89d71"/><path d="M65.2731,142.7668a1.3232,1.3232,0,0,1,.9936-.5364c.3869-.0444.7781.0074,1.1675-.001a3.2354,3.2354,0,0,1,1.682.1357,1.503,1.503,0,0,1,.6208,1.57,3.7618,3.7618,0,0,1-.82,1.5825,3.3006,3.3006,0,0,1-1.4588,1.2263c0,.1644-1.5488.1281-1.6937.1286-.33.0012-.9344.1219-1.143-.2288-.1581-.2657-.0225-.66.0612-.9266a8.2478,8.2478,0,0,0,.4228-1.2813C65.1809,143.89,64.9615,143.2651,65.2731,142.7668Z" style="fill:#d89d71"/><path d="M68.2705,140.5913a2.967,2.967,0,0,0,.4417-2.0817.6157.6157,0,0,0-.1159-.3916.6232.6232,0,0,0-.3378-.1517l-4.067-.9073a2.0306,2.0306,0,0,0-1.2078-.02,1.0552,1.0552,0,0,0-.3583,1.6068c.3057.3345.7864.4248,1.1031.7438.3311.3335.25.8751.5791,1.1985a3.1031,3.1031,0,0,0,2.3605.7016A2.1673,2.1673,0,0,0,68.2705,140.5913Z" style="fill:#d89d71"/><path d="M47.59,121.0768a1.5409,1.5409,0,0,1-.0757,1.6521,1.4869,1.4869,0,0,1-1.1522.8406.2272.2272,0,0,1-.1343-.0285.2535.2535,0,0,1-.07-.0881,11.4928,11.4928,0,0,1-.614-1.24,1.0485,1.0485,0,0,1-.1153-.5016,1.0975,1.0975,0,0,1,.2-.46c.1944-.3067.504-.8.9158-.8191A1.6047,1.6047,0,0,1,47.59,121.0768Z" style="fill:#d89d71"/><path d="M38.6382,116.78q.5487-.8913,1.1771-1.73a1.2252,1.2252,0,0,1,.332-.3379,1.0144,1.0144,0,0,1,.6277-.0954,2.59,2.59,0,0,1,2.0841,1.5722,1.2515,1.2515,0,0,1,.0841.8224,1.6647,1.6647,0,0,1-.8478.8347l-1.4492.851a2.1339,2.1339,0,0,1-1.4991.4285c-.3849-.09-.9661-.4743-1.0029-.8926A2.4822,2.4822,0,0,1,38.6382,116.78Z" style="fill:#d89d71"/><path d="M64.0715,141.3093a1.6453,1.6453,0,0,1,.2529,1.5475,4.8557,4.8557,0,0,1-.8013,1.419.5519.5519,0,0,1-.5721.2979l-.7328.0063a2.0351,2.0351,0,0,1-.9034-.13.6968.6968,0,0,1-.4225-.7385,1.28,1.28,0,0,1,.2034-.376,2.5077,2.5077,0,0,0,.3951-1.513c-.0308-.5137-.4914-1.1555-.1142-1.6077.3944-.4729,1.6393-1.2625,1.8858-.2347.0736.3068.0052.5438.2314.8006C63.6667,140.9773,63.8973,141.1136,64.0715,141.3093Z" style="fill:#d89d71"/><path d="M60.2389,140.6344a7.4866,7.4866,0,0,0,.0973.8766.9236.9236,0,0,1-.2637.806c-.38.3042-.969.0148-1.2334-.3944s-.3527-.9142-.6261-1.3175c-.2121-.3129-.5238-.5464-.7476-.8511a.9454.9454,0,0,1-.1327-1.0541,1.187,1.187,0,0,1,.7766-.393,16.4571,16.4571,0,0,1,2.081-.298.8941.8941,0,0,1,.61.1024.67.67,0,0,1,.144.7735,4.935,4.935,0,0,1-.4413.72,2.1781,2.1781,0,0,0-.2633,1.5515" style="fill:#d89d71"/><path d="M58.8544,137.0456a1.8938,1.8938,0,0,0,.6375-1.3774,5.1561,5.1561,0,0,0-.2122-1.5424,41.8139,41.8139,0,0,0-1.32-4.2983,1.2974,1.2974,0,0,0-.3567-.599,1.2588,1.2588,0,0,0-.5029-.2034,2.2431,2.2431,0,0,0-2.1172.2782c-.6384.642-.3583,1.704-.423,2.6071-.0262.3651-.1166.7244-.1256,1.09a4.9479,4.9479,0,0,0,.5145,1.9772l.5287,1.2721a3.7663,3.7663,0,0,0,.555,1.15c.3782.4049,1.208.12,1.6859.0538A2.2716,2.2716,0,0,0,58.8544,137.0456Z" style="fill:#d89d71"/><path d="M56.3659,127.87a2.11,2.11,0,0,0,.659-1.165,4.9684,4.9684,0,0,0-.3137-3.3228,2.1333,2.1333,0,0,0-.5395-.7575,2.3619,2.3619,0,0,0-1.5418-.403,8.4957,8.4957,0,0,0-2.2164.3127.6467.6467,0,0,0-.5606.7246,9.15,9.15,0,0,0,.51,3.9182c.1469.407.3328,1.1752.8008,1.3326.3885.1307.8708-.143,1.2459-.221C55.08,128.1493,55.7805,128.3309,56.3659,127.87Z" style="fill:#d89d71"/><path d="M56.9652,122.4656l.7522,2.9025a.7544.7544,0,0,0,.258.4727c.3142.204.6979-.1353.8951-.4539a6.8828,6.8828,0,0,0,.9567-2.6283.3537.3537,0,0,0-.294-.4611,6.0236,6.0236,0,0,0-1.8065-.3914.8861.8861,0,0,0-.5643.102.3389.3389,0,0,0-.08.5014Z" style="fill:#d89d71"/><path d="M54.03,121.8675a.4479.4479,0,0,0,.2959-.0675.4067.4067,0,0,0,.1145-.2264,2.3019,2.3019,0,0,0-1.14-2.5031,4.5482,4.5482,0,0,1-.65-.3379c-.3615-.27-.5968-.7723-1.0462-.8151a.7826.7826,0,0,0-.729.4673,1.8507,1.8507,0,0,0-.1335.9016,3.5213,3.5213,0,0,0,.4349,1.6639,1.8778,1.8778,0,0,0,1.1966.917A12.3046,12.3046,0,0,0,54.03,121.8675Z" style="fill:#d89d71"/><path d="M49.8559,115.1348a2.9591,2.9591,0,0,0-.7294-1.2519,1.4944,1.4944,0,0,0-1.3429-.4093,1.8883,1.8883,0,0,0-1.047.8721,10.22,10.22,0,0,1-.7538,1.1725c-.3523.4068-.8468.7049-1.0749,1.1923a1.3521,1.3521,0,0,0,.1916,1.4169,5.0278,5.0278,0,0,0,1.6194.9725c.4264.2158.9168.5353,1.4094.342a4.0547,4.0547,0,0,0,1.1946-.999,2.5549,2.5549,0,0,0,.7313-1.4673A4.062,4.062,0,0,0,49.8559,115.1348Z" style="fill:#d89d71"/><path d="M44.8028,119.1424a1.0747,1.0747,0,0,1,.2094.9883c-.1029.2713-.3566.4656-.4529.7394-.14.3981.065.9162-.23,1.218a.7359.7359,0,0,1-.937-.0442c-.2724-.207-.4586-.5086-.72-.73-.5359-.4534-2.5091-.7626-2.0544-1.8463a1.6463,1.6463,0,0,1,.9753-.7141,4.3756,4.3756,0,0,1,1.6508-.393A2.0248,2.0248,0,0,1,44.8028,119.1424Z" style="fill:#d89d71"/><path d="M46.96,112.3571a2.5273,2.5273,0,0,0-.0738-1.9754,5.5089,5.5089,0,0,1-.5187-1.9535,2.1051,2.1051,0,0,0-.0425-.8973,1.0632,1.0632,0,0,0-.9318-.54,3.07,3.07,0,0,0-2.5519,1.48c-.5934.84-.951,1.8243-1.5029,2.6923a1.4576,1.4576,0,0,0-.3509.9715c.0969.5563.7887.7268,1.2688,1.0241.665.4118,1.0939,1.3215,1.9293,1.4382.7816.1092,1.3161-.85,1.84-1.2756A3.2461,3.2461,0,0,0,46.96,112.3571Z" style="fill:#d89d71"/><path d="M70.5094,140.2644a1.47,1.47,0,0,1,.809-1.3879,2.3509,2.3509,0,0,1,.5507-.1352l4.1725-.6734a.8373.8373,0,0,1,.4925.02.7854.7854,0,0,1,.3309.4113,6.0124,6.0124,0,0,1,.5443,2.2622.6689.6689,0,0,1-.0411.3162.6061.6061,0,0,1-.28.2519,3.7776,3.7776,0,0,1-.8981.3046,26.2733,26.2733,0,0,1-3.5284.6011,1.6481,1.6481,0,0,1-1.586-.4532A2.872,2.872,0,0,1,70.5094,140.2644Z" style="fill:#d89d71"/><path d="M79.6143,140.8375a1.83,1.83,0,0,1,.8359-1.3494,2.7929,2.7929,0,0,1,1.564-.422.5142.5142,0,0,1,.2934.0652.4942.4942,0,0,1,.1505.2053c.56,1.1888.092,2.5839-.379,3.8107a4.7184,4.7184,0,0,1-.7354,1.4126,1.5645,1.5645,0,0,1-1.5119.59,3.709,3.709,0,0,1-1.471-1.04,2.3507,2.3507,0,0,1-.8138-1.1686c-.08-.5333.4783-.7426.8961-.8591a2.21,2.21,0,0,0,.8783-.365C79.6058,141.4762,79.59,141.181,79.6143,140.8375Z" style="fill:#d89d71"/><path d="M84.5045,145.5626a2.0856,2.0856,0,0,0,.9649-.53,4.1452,4.1452,0,0,0,.5024-1.3824,15.394,15.394,0,0,1,1.1-1.7617,2.8909,2.8909,0,0,0,.3283-1.2636,1.1557,1.1557,0,0,0-.3-.9064,1.4281,1.4281,0,0,0-.7284-.2719,3.1262,3.1262,0,0,0-2.1221.1309,2.9523,2.9523,0,0,0-1.1032,2.2715,3.8943,3.8943,0,0,1-.8583,2.4151,3.9079,3.9079,0,0,0-.41.3826.9546.9546,0,0,0-.0683,1.06.9383.9383,0,0,0,1.059.4035C83.42,145.957,83.9616,145.7442,84.5045,145.5626Z" style="fill:#d89d71"/><path d="M88.88,137.8574a2.2721,2.2721,0,0,0,1.9392-.9715c.158-.2634.24-.5647.3728-.8419.2487-.52.6683-.9434.9223-1.4611a1.9158,1.9158,0,0,0-.3679-2.31,2.6075,2.6075,0,0,0-2.0319-.2893,5.6341,5.6341,0,0,0-2.8142,1.1492,2.8339,2.8339,0,0,0-1.0228,2.553,4.0445,4.0445,0,0,0,.5962,1.4106,1.1181,1.1181,0,0,0,.6822.4574A5.9208,5.9208,0,0,0,88.88,137.8574Z" style="fill:#d89d71"/><path d="M92.3567,130.4118a1.3664,1.3664,0,0,0,.4962-.288c.3521-.3695.192-.9688.2819-1.4712a4.1667,4.1667,0,0,1,.8164-1.454,1.4894,1.4894,0,0,0,.2175-1.5715c-.3373-.5186-1.0868-.5282-1.6962-.4218a9.8576,9.8576,0,0,0-2.8789.98,1.0805,1.0805,0,0,0-.4628.3748,1.1418,1.1418,0,0,0-.1036.5657,7.0914,7.0914,0,0,0,.2168,2.2427,2.5373,2.5373,0,0,0,1.2161,1.5226.8309.8309,0,0,0,.74-.0118C91.5881,130.7314,91.9713,130.5676,92.3567,130.4118Z" style="fill:#d89d71"/><path d="M95.237,124.1254a1.2817,1.2817,0,0,1-.3586.3581,1.4907,1.4907,0,0,1-.7213.1467l-2.4145.0806c-.0758-.5231.442-.92.8955-1.1911l1.1613-.6944a6.0594,6.0594,0,0,1,1.0658-.6145c.4927-.1664,1.1432.1695.9957.7491a2.8085,2.8085,0,0,1-.2646.5954C95.5293,123.6808,95.237,123.9989,95.237,124.1254Z" style="fill:#d89d71"/><path d="M91.14,129.26a10.3793,10.3793,0,0,1-10.35,10.36H69.09a10.3686,10.3686,0,0,1-9.88-7.3,9.9933,9.9933,0,0,1-.47-3.06,10.2783,10.2783,0,0,1,2.35-6.54c.06-.07.11-.14.18-.21a29.2162,29.2162,0,0,0,13.5,3.52,25.9425,25.9425,0,0,0,14.15-3.16c.12.16.24.32.35.48a10.1679,10.1679,0,0,1,1.87,5.91Z" style="fill:#efe8e8"/><path d="M91.1412,129.26a10.3793,10.3793,0,0,1-10.35,10.36h-11.7a10.3686,10.3686,0,0,1-9.88-7.3,20.6162,20.6162,0,0,0,13.84,5.12c9.31-.13,14.09-1.25,17.85-10.41A10.2946,10.2946,0,0,1,91.1412,129.26Z" style="fill:#c4b1b1"/><path d="M100.5809,117.1072a4.8827,4.8827,0,0,1,.405-.777.9661.9661,0,0,1,.7264-.4347.9226.9226,0,0,1,.7667.4992,2.7189,2.7189,0,0,1,.2694.9157l.6162,3.63a1.15,1.15,0,0,1,.0008.5657.8959.8959,0,0,1-.3755.4277,3.7114,3.7114,0,0,1-2.3705.3754,1.7141,1.7141,0,0,1-.861-.234,1.7745,1.7745,0,0,1-.4082-.4623l-.5361-.7729a1.9225,1.9225,0,0,1-.4754-1.214.77.77,0,0,1,.3506-.55,3.1731,3.1731,0,0,1,.539-.1685,1.1543,1.1543,0,0,0,.393-.3752c.173-.2122.3419-.4279.4987-.6524A5.72,5.72,0,0,0,100.5809,117.1072Z" style="fill:#d89d71"/><path d="M107.735,119.57a1.2513,1.2513,0,0,1,.2737.6447,1.225,1.225,0,0,1-.5512.8753,13.8641,13.8641,0,0,1-2.19,1.5121.4774.4774,0,0,1-.3542.0862.4456.4456,0,0,1-.2332-.2324c-.72-1.2823-.3206-2.9007-.6993-4.3218a4.6875,4.6875,0,0,1-.3595-1.4748.8633.8633,0,0,1,.6-.703.8285.8285,0,0,1,.7379-.07,2.57,2.57,0,0,1,.5442.6326q.5564.704,1.0875,1.4272Q107.1788,118.7471,107.735,119.57Z" style="fill:#d89d71"/><path d="M103.6331,123.0343a.9624.9624,0,0,1,.2731.6932,2.6906,2.6906,0,0,1,0,.852.9092.9092,0,0,1-.4906.6612,4.8486,4.8486,0,0,1-.65.1238,1.3928,1.3928,0,0,1-.3872.0939.8.8,0,0,1-.4151-.1829c-.4516-.3143-1.28-.8235-1.1194-1.4881.15-.6177.9339-.8171,1.4735-.8683C102.6924,122.8835,103.31,122.7873,103.6331,123.0343Z" style="fill:#d89d71"/><path d="M104.459,109.7325a2.6114,2.6114,0,0,1,1.7919-.9257.4483.4483,0,0,1,.6309.3048,37.4963,37.4963,0,0,1,1.3831,3.5953.9946.9946,0,0,1-.024.9433.8213.8213,0,0,1-.39.2259,2.936,2.936,0,0,1-1.9892-.1341,4.2553,4.2553,0,0,1-.8973-.5156,3.0818,3.0818,0,0,1-.7284-.6377c-.1338-.2035-.0032-.6118-.0057-.8515-.0035-.3327-.0366-.6648-.0284-.9976A1.9386,1.9386,0,0,1,104.459,109.7325Z" style="fill:#b27150"/><path d="M108.8205,114.8131a.6631.6631,0,0,0,.2977-.1512c.1394-.1432.1368-.3732.2412-.5436a.6741.6741,0,0,1,.9286-.11,1.9567,1.9567,0,0,1,.5955.8436l.4613.9913a3.9872,3.9872,0,0,1,.2031.4931,3.369,3.369,0,0,1,.0411,1.4761,1.3659,1.3659,0,0,1-.1626.5417,1.166,1.166,0,0,1-.815.4532,2.8054,2.8054,0,0,1-2.3589-.7059,5.5221,5.5221,0,0,1-.6423-.7677l-.7134-.9659a1.4208,1.4208,0,0,1-.317-.6255c-.0751-.5592.44-.5279.8137-.6427C107.8614,114.9556,108.35,114.9514,108.8205,114.8131Z" style="fill:#b27150"/><path d="M48.3784,123.8072a1.21,1.21,0,0,1,.9042-.1341,1.1,1.1,0,0,1,.4419.1152A.8792.8792,0,0,1,50,124.08a2.2042,2.2042,0,0,1,.3289.8892.7172.7172,0,0,1-.0155.3334.8543.8543,0,0,1-.15.24l-.9482,1.1983a.8734.8734,0,0,1-.3149.2856.7314.7314,0,0,1-.7981-.3343,4.0721,4.0721,0,0,0-.4825-.6307c-.2155-.1883-.4859-.2365-.5421-.5605a.4109.4109,0,0,1,.2212-.4152,2.5382,2.5382,0,0,0,.5554-.4818C48.0454,124.3573,48.131,124.0056,48.3784,123.8072Z" style="fill:#b27150"/><path d="M98.8389,128.28l-.75,1.95a.01.01,0,0,1-.01.01.1087.1087,0,0,1-.01.05c-.05.18-.24.78-.54,1.67-.26,0-.51-.01-.76-.02a.98.98,0,0,1-.84-.33.9548.9548,0,0,1-.11-.44,6.6244,6.6244,0,0,1,.13-1.83,1.5775,1.5775,0,0,1,2.67-1.21C98.6988,128.18,98.7688,128.23,98.8389,128.28Z" style="fill:#b27150"/><path d="M95.3189,137.69a49.6024,49.6024,0,0,1-2.56,5.1,4.579,4.579,0,0,1-1.95.01.935.935,0,0,1-.59-.34c-.18-.29-.01-.67.15-.97.5-.89,1-1.78,1.49-2.68a3.4344,3.4344,0,0,1,.84-1.11,2.3054,2.3054,0,0,1,1.9-.28A2.8192,2.8192,0,0,1,95.3189,137.69Z" style="fill:#b27150"/><path d="M87.555,144.6545a17.1159,17.1159,0,0,1,2.11-.8905.4163.4163,0,0,1,.2938-.0252c.13.0553.1681.2185.1852.3587a7.6588,7.6588,0,0,1,.0206,1.6669,2.1224,2.1224,0,0,1-.2687.9493,2.5,2.5,0,0,1-1.98.8225,1.1035,1.1035,0,0,1-.9637-.2181,1.0776,1.0776,0,0,1-.1866-.6524,3.8369,3.8369,0,0,1,.0982-1.4159,1.3818,1.3818,0,0,1,.961-.9656Z" style="fill:#b27150"/><path d="M111.9631,138.7875s-11.7078.7925-2.3776-4.1067l.7565-.442Z" style="fill:#4c2828"/><path d="M112.7356,94.44c-.18-.07-.35-.14-.52-.22a3.3726,3.3726,0,0,1-.39-.18c-.12-.06-.25-.13-.37-.19-.04-.02-.07-.04-.09-.05-.27-.15-.54-.31-.79-.48-.01,0-.02-.01-.03-.02a2.178,2.178,0,0,1-.25-.17,11.7991,11.7991,0,0,1-1.73-1.44c-.19-.19-.37-.38-.54-.58-.18-.2-.35-.4-.52-.62-.17-.21-.33-.43-.49-.66s-.31-.46-.46-.7-.3-.49-.44-.74l-.47-.9c.43.08.86.16,1.29.22.17.03.34.05.51.07.3.05.6.08.9.11.18.02.36.03.54.06.12.01.23.02.35.02A23.2392,23.2392,0,0,1,112.7356,94.44Z" style="fill:#c4b1b1;fill-rule:evenodd"/><path d="M87.8522,80.2827a3.5239,3.5239,0,0,0,4.8431-1.011l5.8571-8.8744L92.73,66.5607,86.838,75.5042A3.424,3.424,0,0,0,87.8522,80.2827Z" style="fill:#c48a62"/><path d="M92.73,66.5607l5.8223,3.8366,1.9232-2.9206a3.4324,3.4324,0,0,0-1.0227-4.7785,3.5114,3.5114,0,0,0-4.8344,1.0023Z" style="fill:#4c2828"/><path d="M62.1487,80.28a3.531,3.531,0,0,1-1.91.56,3.4949,3.4949,0,0,1-2.93-1.57l-5.86-8.87,4.18-2.76a66.2046,66.2046,0,0,1,3.11,10.03,44.9,44.9,0,0,0,4.22-2.48l.2.31A3.42,3.42,0,0,1,62.1487,80.28Z" style="fill:#e5c085"/><path d="M55.629,67.64l-4.18,2.76-1.92-2.92a3.43,3.43,0,0,1,1.02-4.78,3.4907,3.4907,0,0,1,1.97-.57A21.9663,21.9663,0,0,1,55.629,67.64Z" style="fill:#683d33"/><path d="M57.2688,66.56l-1.64,1.08a21.9663,21.9663,0,0,0-3.11-5.51,3.4862,3.4862,0,0,1,2.86,1.57Z" style="fill:#4c2828"/><path d="M62.9588,75.19a44.9,44.9,0,0,1-4.22,2.48,66.2046,66.2046,0,0,0-3.11-10.03l1.64-1.08Z" style="fill:#d89d71"/><path d="M35.0069,98.5511a3.5479,3.5479,0,0,1,.1254-1.1289,1.527,1.527,0,0,1,1.0538-1.104,1.43,1.43,0,0,1,1.38.5772,3.84,3.84,0,0,1,.5264.7275,1.7622,1.7622,0,0,0-.2256.0752,2.0541,2.0541,0,0,0-.3511-.4765,1.2107,1.2107,0,0,0-1.1791-.4771q-.5523.1509-.7276,1.0039a2.9115,2.9115,0,0,0-.0752.6523Q35.2576,98.4756,35.0069,98.5511Z" style="fill:#c4b1b1;fill-rule:evenodd"/><path d="M49.2556,83.88c-1.25.4-2.5.74-3.73,1.01a33.9848,33.9848,0,0,1-19.35-1.01q-4.545,10.755,6.9,15.15c.65-.15,1.3-.31,1.93-.48a3.4764,3.4764,0,0,1,.13-1.13,1.5154,1.5154,0,0,1,1.05-1.1,1.4147,1.4147,0,0,1,1.38.58,3.8254,3.8254,0,0,1,.53.72c.62-.21,1.24-.43,1.85-.67a43.2325,43.2325,0,0,0,9.89-5.35Zm-16.33,12.89q-8.235-3.165-4.97-10.89a29.9152,29.9152,0,0,0,16.43,1.06l-.35.95Q41.2755,95.51,32.9255,96.77Z" style="fill:#e5c085;fill-rule:evenodd"/><path d="M27.9555,85.88q-3.2549,7.725,4.97,10.89,8.3552-1.26,11.11-8.88l.35-.95A29.9152,29.9152,0,0,1,27.9555,85.88Zm15.56,2.51a12.9465,12.9465,0,0,1-10.16,6.95q-4.9947-1.575-5.57-5.24a8.7867,8.7867,0,0,1,.35-3.74,29.8279,29.8279,0,0,0,15.85,1.13Z" style="fill:#c4b1b1;fill-rule:evenodd"/><path d="M28.1328,86.3588a29.7451,29.7451,0,0,0,15.855,1.1289l-.4765.9033a12.92,12.92,0,0,1-10.16,6.9487q-4.9922-1.5805-5.5693-5.2431A8.8173,8.8173,0,0,1,28.1328,86.3588Z" style="fill:#efe8e8;fill-rule:evenodd"/><path d="M49.8354,91.6a43.2325,43.2325,0,0,1-9.89,5.35,28.3921,28.3921,0,0,0,5.58-12.06c1.23-.27,2.48-.61,3.73-1.01Z" style="fill:#c48a62"/><path d="M100.0356,88.39l-.24,3.21c.51.37,1.03.73,1.56,1.07C100.9155,91.26,100.4255,89.67,100.0356,88.39Zm23.42-4.51a33.32,33.32,0,0,1-16.42,1.55,25.12,25.12,0,0,1,1.82,2.04,29.2217,29.2217,0,0,0,12.82-1.59q3.2553,7.725-4.97,10.89a17.198,17.198,0,0,1-2.93-.7c1.44,1.37,3.89,1.49,6.67.96Q127.0905,92.53,123.4555,83.88Z" style="fill:#e5c085;fill-rule:evenodd"/><path d="M121.6755,85.88a29.2217,29.2217,0,0,1-12.82,1.59c.13.16.26.33.38.5.38.03.75.06,1.13.07a.81.81,0,0,0,.22,0,.0187.0187,0,0,0,.03,0c.01.01.01.01.02,0h.01c.71.02,1.41.02,2.11,0,.27-.01.54-.03.81-.04.51-.03,1.02-.08,1.53-.14.31-.04.61-.08.92-.13.31-.04.61-.09.91-.15.49-.08.98-.19,1.46-.31.32-.07.64-.15.95-.24.32-.08.64-.17.95-.27.41-.12.81-.26,1.21-.4a8.7919,8.7919,0,0,1,.35,3.74q-.57,3.66-5.57,5.24a12.9861,12.9861,0,0,1-1.41-.25c-.11-.02-.21-.04-.32-.07-.17-.04-.34-.08-.5-.13a2.075,2.075,0,0,1-.33-.1,2.9611,2.9611,0,0,1-.39-.13c-.2-.07-.39-.14-.59-.22a3.93,3.93,0,0,0,1.03,1.63h.01a17.198,17.198,0,0,0,2.93.7Q124.9255,93.605,121.6755,85.88Z" style="fill:#c4b1b1;fill-rule:evenodd"/><path d="M113.7656,96.07a12.6305,12.6305,0,0,1-8.17-8.18l-.36-.95a30.9894,30.9894,0,0,0,3.62.53c.13.16.26.33.38.5-.12,0-.23-.01-.35-.02-.18-.03-.36-.04-.54-.06-.3-.03-.6-.06-.9-.11-.17-.02-.34-.04-.51-.07-.43-.06-.86-.14-1.29-.22l.47.9c.14.25.28.5.44.74a8.3728,8.3728,0,0,0,.46.7c.16.23.32.45.49.66.17.22.34.42.52.62a7.4086,7.4086,0,0,0,.54.58,11.7991,11.7991,0,0,0,1.73,1.44,2.178,2.178,0,0,0,.25.17c.01.01.02.02.03.02.25.17.52.33.79.48.02.01.05.03.09.05.12.06.25.13.37.19a3.3726,3.3726,0,0,0,.39.18c.17.08.34.15.52.22A3.93,3.93,0,0,0,113.7656,96.07Z" style="fill:#9b787b;fill-rule:evenodd"/><path d="M121.8457,90.1q-.57,3.66-5.57,5.24a12.9861,12.9861,0,0,1-1.41-.25c-.11-.02-.21-.04-.32-.07-.17-.04-.34-.08-.5-.13a2.075,2.075,0,0,1-.33-.1,2.9611,2.9611,0,0,1-.39-.13c-.2-.07-.39-.14-.59-.22a23.2392,23.2392,0,0,0-3.5-6.47c.38.03.75.06,1.13.07a.81.81,0,0,0,.22,0,.0187.0187,0,0,0,.03,0c.01.01.01.01.02,0h.01c.71.04,1.41.03,2.11,0,.27,0,.54-.02.81-.04.51-.03,1.02-.08,1.53-.14a9.2679,9.2679,0,0,0,.92-.13c.31-.04.61-.09.91-.15.49-.08.98-.19,1.46-.31.32-.06.63-.15.95-.24.32-.08.64-.17.95-.27.41-.12.81-.26,1.21-.4A8.7919,8.7919,0,0,1,121.8457,90.1Z" style="fill:#efe8e8;fill-rule:evenodd"/><path d="M65.3611,68.7785a1.57,1.57,0,0,1-.2554-.7676,6.0544,6.0544,0,0,1-.0532-1.26q.0381-.6628.4765-.2495A4.8907,4.8907,0,0,1,66.8,68.926q.0917.5961-.1538.7246t-.6836-.2856Q65.5246,68.9519,65.3611,68.7785Z" style="fill:#e5c085;fill-rule:evenodd"/><path d="M82.3733,68.6921a1.5655,1.5655,0,0,1,.5576-.5859,6.0574,6.0574,0,0,1,1.0879-.6392q.602-.2777.4433.3032a4.8979,4.8979,0,0,1-1.5429,2.2613q-.4834.36-.7119.2045c-.1534-.1044-.1758-.35-.0694-.7377S82.3225,68.8425,82.3733,68.6921Z" style="fill:#c48a62;fill-rule:evenodd"/><path d="M81.7971,68.6071a1.5578,1.5578,0,0,1,.083-.8051,6.0469,6.0469,0,0,1,.47-1.17q.3077-.5881.5371-.0313a4.8863,4.8863,0,0,1,.16,2.7329q-.1611.5815-.4385.5972c-.1836.0112-.3525-.1695-.5049-.5415S81.8489,68.757,81.7971,68.6071Z" style="fill:#c48a62;fill-rule:evenodd"/><path d="M120.4455,97.03a18.3734,18.3734,0,0,1-3.89,2,46.0827,46.0827,0,0,1-15.2-6.36c-.44-1.41-.93-3-1.32-4.28l.34-4.51a40.9409,40.9409,0,0,0,6.66,1.55,25.12,25.12,0,0,1,1.82,2.04,30.9894,30.9894,0,0,1-3.62-.53l.36.95a12.6305,12.6305,0,0,0,8.17,8.18h.01C115.2155,97.44,117.6655,97.56,120.4455,97.03Z" style="fill:#c48a62;fill-rule:evenodd"/><path d="M104.8489,99.26c-.03-.65-.08-1.3-.15-1.96a34.6455,34.6455,0,0,0-4.5-14.75,24.5653,24.5653,0,0,0-3.9-5.55v-.01a29.4587,29.4587,0,0,0-19.82-9.65c-.56-.06-1.13-.09-1.71-.11a25.772,25.772,0,0,0-10.95,1.96,30.0988,30.0988,0,0,0-8.55,5.5,25.3691,25.3691,0,0,0-2.46,2.39c-.58.62-1.21,1.35-1.85,2.18-.35.45-.7.93-1.04,1.43-.12.18-.26.36-.38.53v.03c-.16.26-.33.52-.49.79-.14.22-.27.44-.4.67a22.2513,22.2513,0,0,0-1.44,3.12,13.7555,13.7555,0,0,0-.47,1.41c-.04.1-.06.2-.09.3-.02.08-.03.15-.05.22a28.9093,28.9093,0,0,0-1.09,4.71,34.6192,34.6192,0,0,0-.38,4.77c-.01.47-.01.94,0,1.4,0,.22.01.44.02.65,0,.17.01.35.02.52a30.3621,30.3621,0,0,0,.35,3.36,27.3223,27.3223,0,0,0,2.16,7.33v.01a24.8575,24.8575,0,0,0,2.47,4.26,26.725,26.725,0,0,0,3.62,4.09q8.82,8.175,21.65,8.17a33.69,33.69,0,0,0,11-1.76c.31-.11.62-.22.93-.34a29.9725,29.9725,0,0,0,9.76-6.06q.66-.6,1.26-1.23c.21-.22.41-.44.61-.66q.1951-.21.36-.42c.12-.14.24-.28.35-.42.23-.28.45-.57.66-.86.17-.22.33-.45.49-.68s.31-.46.45-.69q.2548-.405.48-.81.15-.27.3-.54a4.6346,4.6346,0,0,0,.28-.54c.1-.18.18-.37.27-.56.18-.37.35-.75.5-1.14.01,0,.01-.01,0-.02q.12-.27.21-.54c.13-.33.25-.68.35-1.02.09-.26.17-.53.24-.79q.2253-.795.39-1.62a3.3564,3.3564,0,0,0,.09-.46c.05-.24.09-.47.13-.71.05-.3.09-.6.12-.91q.06-.42.09-.84c.03-.21.05-.43.06-.65.02-.27.04-.55.05-.82.02-.43.03-.87.03-1.31C104.879,100.18,104.8689,99.72,104.8489,99.26Zm-21.73-25.58a9.8707,9.8707,0,0,1,3.68.07h.01a9.9,9.9,0,0,1,3.15,1.23,8.9636,8.9636,0,0,1,4.1,5.55,8.7135,8.7135,0,0,1-.84,6.22,57.2665,57.2665,0,0,0-3.54-5.35c0-.01,0-.01-.01-.02a75.3993,75.3993,0,0,0-5.97-7.07c-.21-.22-.39-.42-.56-.59v-.01l-.02-.02Zm13.15,41.53a24.24,24.24,0,0,1-3.5,4.1.6576.6576,0,0,1-.09.08,24.2305,24.2305,0,0,1-9.11,5.43l-3.53.82-2.24.27c-.77.07-1.56.1-2.37.1-.64,0-1.28-.02-1.9-.07a27.9,27.9,0,0,1-5.41-.87,24.5181,24.5181,0,0,1-10.61-5.99,23.1192,23.1192,0,0,1-6.54-9.94l-.1-.38-.01-.02c-.1-.31-.18-.62-.26-.94l-.01-.05a15.7606,15.7606,0,0,1-.32-1.55q-.1647-.945-.24-1.92c-.03-.37-.06-.74-.07-1.12-.01-.3-.02-.6-.02-.91v-.33c.01-.33.02-.65.05-.96v-.02c0-.13.01-.27.02-.4a5.6975,5.6975,0,0,1,.15-1.29,9.2687,9.2687,0,0,1,1.73-3.6,12.6917,12.6917,0,0,1,2.79-2.61c.23-.16.47-.31.72-.47.4-.24.82-.48,1.27-.71.07-.04.15-.07.22-.11.13-.06.26-.13.39-.19.02-.01.05-.02.07-.03.35-.16.71-.32,1.09-.46.13-.06.26-.11.4-.16a.031.031,0,0,1,.02-.01,1.7233,1.7233,0,0,1,.21-.07q.705-.27,1.5-.51c.51-.15,1.04-.3,1.6-.43.94-.24,1.94-.45,3.03-.62,1.31-.21,2.73-.38,4.27-.49.51-.04,1.04-.07,1.58-.09,1.12-.06,2.31-.08,3.55-.08h.21c.21,0,.41,0,.61.01,1.25.01,2.43.06,3.55.12h.01c.18.01.36.03.54.04.33.03.65.05.96.08,1.47.12,2.83.3,4.08.52h.01c.72.12,1.4.26,2.05.41.23.05.46.1.68.15.98.24,1.89.51,2.72.8.5.17.97.35,1.41.53,0,0,.04.02.12.05.01.01.03.01.04.02.1.04.19.08.29.12a1.0129,1.0129,0,0,1,.15.07c.12.05.24.11.36.16q.1947.105.42.21a.6125.6125,0,0,0,.12.05l.01.01v.01c.22.11.46.24.71.38a16.4606,16.4606,0,0,1,2.35,1.61q.1051.09.21.18l.21.18c.12.12.25.23.36.35a7.0775,7.0775,0,0,1,.54.57c.08.08.14.16.21.23.19.23.37.47.53.69a1.6827,1.6827,0,0,1,.15.22c.04.07.08.13.11.19a8.8967,8.8967,0,0,1,.84,1.65c0,.01.01.02.01.03a15.4452,15.4452,0,0,1,.46,2.29c.01.12.03.23.04.35a22.6477,22.6477,0,0,1,.13,2.39A20.8421,20.8421,0,0,1,96.2688,115.21Z" style="fill:#e5c085"/><path d="M104.879,100.63a28.8928,28.8928,0,0,1-.35,4.53,22.8806,22.8806,0,0,1-7.42,13.71,29.9725,29.9725,0,0,1-9.76,6.06,33.6368,33.6368,0,0,0,5.33-5.54.6576.6576,0,0,0,.09-.08l.04-.04a23.6186,23.6186,0,0,0,3.42-4.01.1756.1756,0,0,0,.04-.05c.23-.35.45-.7.67-1.05a19.9,19.9,0,0,0,1.48-3.09,18.2423,18.2423,0,0,0,.6-1.81,22.0893,22.0893,0,0,0,.77-5.07c0-.3.01-.61.01-.91,0-.6-.03-1.18-.07-1.74-.02-.22-.04-.44-.06-.65-.01-.12-.03-.23-.04-.35a15.4452,15.4452,0,0,0-.46-2.29c0-.01-.01-.02-.01-.03-.08-.2-.17-.42-.28-.64a8.0449,8.0449,0,0,0-.56-1.01c-.03-.06-.07-.12-.11-.19a1.6827,1.6827,0,0,0-.15-.22c-.16-.22-.34-.46-.53-.69-.07-.07-.13-.15-.21-.23a7.0775,7.0775,0,0,0-.54-.57c0-.01-.01-.03-.01-.04a40.7216,40.7216,0,0,0-3.24-7.32,81.5708,81.5708,0,0,0-10.41-13.62v-.01l-.16-.16c-1.93-2.01-4.08-4.07-6.48-6.18a29.4587,29.4587,0,0,1,19.82,9.65V77a24.5653,24.5653,0,0,1,3.9,5.55,34.6455,34.6455,0,0,1,4.5,14.75c.07.66.12,1.31.15,1.96C104.8689,99.72,104.879,100.18,104.879,100.63Z" style="fill:#c48a62"/><path d="M60.8855,71.63a1.9194,1.9194,0,0,0-1.62,2.95,1.9381,1.9381,0,0,0,1.62.87,1.917,1.917,0,0,0,1.61-.88,1.8869,1.8869,0,0,0,.3-1.03A1.91,1.91,0,0,0,60.8855,71.63Z" style="fill:#0f0d0d"/><path d="M88.71,71.63a1.9194,1.9194,0,0,0-1.62,2.95,1.938,1.938,0,0,0,1.62.87,1.9168,1.9168,0,0,0,1.61-.88,1.8861,1.8861,0,0,0,.3-1.03A1.91,1.91,0,0,0,88.71,71.63Z" style="fill:#0f0d0d"/><path d="M89.6851,81.77a8.2283,8.2283,0,0,1-8.22,8.22h-12.93a8.2457,8.2457,0,0,1-8.22-8.22,8.263,8.263,0,0,1,8.22-8.23h12.93a9.5078,9.5078,0,0,1,1.31.1A8.2732,8.2732,0,0,1,89.6851,81.77Z" style="fill:#c69254;fill-rule:evenodd"/><path d="M89.6851,81.77a8.2283,8.2283,0,0,1-8.22,8.22h-4.37s5.5-2.02,7.1-6.25c1.3-3.43-.64-8.36-1.42-10.1A8.2732,8.2732,0,0,1,89.6851,81.77Z" style="fill:#ba7a4f;fill-rule:evenodd"/><circle cx="84.1933" cy="80.8588" r="2.8767" style="fill:#93603e"/><circle cx="65.6336" cy="80.8588" r="2.8767" style="fill:#93603e"/><path d="M54.679,93.04a12.6917,12.6917,0,0,0-2.79,2.61c-.29-.11-.47-.43-.79-.48a3.1284,3.1284,0,0,0-.53-.01h-.64a1.3588,1.3588,0,0,1-.72-.12,1.4056,1.4056,0,0,1-.51-1.15c-.06-.51-.12-1.02-.17-1.54a1.5258,1.5258,0,0,1,.1-.97,1.5019,1.5019,0,0,1,.75-.52,3.0214,3.0214,0,0,1,1.09-.31,3.2758,3.2758,0,0,1,1.84.7c.42.26.84.52,1.26.79A3.0636,3.0636,0,0,1,54.679,93.04Z" style="fill:#d89d71"/><path d="M49.0088,89.84c-.2.39-.7.51-1.03.8a1.1356,1.1356,0,0,0-.41.84c-.01.13.06.23.06.35a.6808.6808,0,0,1-.19.43,1.1805,1.1805,0,0,1-.62.31,2.3242,2.3242,0,0,1-1.28-.09c-.01,0-.02-.01-.03-.01a28.9093,28.9093,0,0,1,1.09-4.71c.02-.07.03-.14.05-.22.03-.1.05-.2.09-.3h.17a2.3436,2.3436,0,0,1,2.18,1.98A1.0935,1.0935,0,0,1,49.0088,89.84Z" style="fill:#d89d71"/><path d="M46.0932,95.4094a1.7507,1.7507,0,0,1,1.1075.0894c.3488.1988.5513.6325.94.7325.2094.0538.4367-.0027.6438.0592.4.1194.5477.6013.61,1.0141a11.4089,11.4089,0,0,1,.0394,3.1261,1.9624,1.9624,0,0,1-.2034.7407.7516.7516,0,0,1-.6172.4046c-.491,0-.7465-.5815-1.1586-.8484-.3251-.2107-.75-.22-1.0739-.4328a1.89,1.89,0,0,1-.642-1.4135,10.0878,10.0878,0,0,1-.11-1.7691A10.5748,10.5748,0,0,0,45.7,95.953c-.0069-.1342-.0421-.2993.0539-.4107A.5338.5338,0,0,1,46.0932,95.4094Z" style="fill:#d89d71"/><path d="M50.8689,108.76a1.5425,1.5425,0,0,1-.37.03,1.8907,1.8907,0,0,1-.79-.09,1.9382,1.9382,0,0,1-.78-.75,15.0475,15.0475,0,0,1-2.41-4.27,2.464,2.464,0,0,1-.11-1.08,1.0236,1.0236,0,0,1,.2-.48c.12-.14.34-.03.49.01.26.06.51.13.77.19a2.1229,2.1229,0,0,1,1.17.57,1.1825,1.1825,0,0,0,.25.25c.2.1.44-.01.67.02.01.38.04.75.07,1.12q.075.975.24,1.92a15.7606,15.7606,0,0,0,.32,1.55l.01.05c.08.32.16.63.26.94Z" style="fill:#d89d71"/><path d="M52.6687,115.17a.938.938,0,0,1-.72.05q-.9-.195-1.8-.45a24.8575,24.8575,0,0,1-2.47-4.26v-.01l.15-.09a4.1475,4.1475,0,0,1,1.37-.44,1.22,1.22,0,0,1,.57,0,1.1492,1.1492,0,0,1,.51.39,17.6336,17.6336,0,0,1,1.9,2.49,4.5515,4.5515,0,0,1,.69,1.52A.7928.7928,0,0,1,52.6687,115.17Z" style="fill:#d89d71"/><path d="M94.0188,91.35a1.6846,1.6846,0,0,1-.37,1c-.25-.14-.49-.27-.71-.38v-.01l-.01-.01a.6125.6125,0,0,1-.12-.05q-.2248-.105-.42-.21c-.12-.05-.24-.11-.36-.16a1.0129,1.0129,0,0,0-.15-.07c-.1-.04-.19-.08-.29-.12-.01-.01-.03-.01-.04-.02-.08-.03-.12-.05-.12-.05-.44-.18-.91-.36-1.41-.53-.83-.29-1.74-.56-2.72-.8.13-.35.25-.71.38-1.06a3.04,3.04,0,0,1,.37-.77,2.9527,2.9527,0,0,1,1.53-.86,1.1178,1.1178,0,0,1,.57-.08,1.18,1.18,0,0,1,.5.25,10,10,0,0,1,3.11,3.1A1.9218,1.9218,0,0,1,94.0188,91.35Z" style="fill:#d89d71"/><path d="M96.7889,117.66a1.6582,1.6582,0,0,1-.18.94c-.22.34-.66.46-.98.71-.33.25-.53.62-.85.87a.868.868,0,0,1-1.01.14c-.24-.19-.42-.51-.65-.73-.11-.1-.21-.21-.31-.32a23.6186,23.6186,0,0,0,3.42-4.01c.12,0,.24.02.36.03A11.06,11.06,0,0,1,96.7889,117.66Z" style="fill:#b27150"/><path d="M101.7989,112.65a5.5887,5.5887,0,0,1-.98.57c-.53.3-.97.75-1.48,1.08a2.2237,2.2237,0,0,1-1.33.43,1.6446,1.6446,0,0,1-1.07-.57,19.9,19.9,0,0,0,1.48-3.09,1.7885,1.7885,0,0,1,.46.09,2.1314,2.1314,0,0,0,.47.15c.46.06.87-.28,1.29-.45a1.9894,1.9894,0,0,1,1.13-.12.4535.4535,0,0,1,.23.08.4871.4871,0,0,1,.14.21A1.43,1.43,0,0,1,101.7989,112.65Z" style="fill:#b27150"/><path d="M102.5789,105.2a3.2077,3.2077,0,0,1-.14.97,17.88,17.88,0,0,1-.74,2.17.9673.9673,0,0,1-.69.64c-.34.09-.69.16-1.04.23a3.039,3.039,0,0,1-.95.05,22.0893,22.0893,0,0,0,.77-5.07,1.3382,1.3382,0,0,1,.2-.01h1.24a1.6244,1.6244,0,0,1,.9.18A1.1085,1.1085,0,0,1,102.5789,105.2Z" style="fill:#b27150"/><path d="M103.9488,98.56a3.262,3.262,0,0,1-.72,1.61c-.73,1.05-2.1,2.58-3.41,1.46a.7641.7641,0,0,1-.09-.09c-.02-.22-.04-.44-.06-.65-.01-.12-.03-.23-.04-.35a15.4452,15.4452,0,0,0-.46-2.29c0-.01-.01-.02-.01-.03-.08-.2-.17-.42-.28-.64a1.0771,1.0771,0,0,0,.09-.25,4.4022,4.4022,0,0,0-.1-1.44,1.24,1.24,0,0,1,.46-1.27,1.4336,1.4336,0,0,1,.98-.04,16.8965,16.8965,0,0,1,2.11.59,1.6447,1.6447,0,0,1,.89.57,2.618,2.618,0,0,1,.25,1.05A9.0282,9.0282,0,0,1,103.9488,98.56Z" style="fill:#b27150"/><path d="M101.8221,91.4488a2.3959,2.3959,0,0,0-1.0487-1.895,3.9049,3.9049,0,0,0-2.1216-.6506,2.3111,2.3111,0,0,0-2.2448,1.0025,2.933,2.933,0,0,0,.1543,2.175,1.4382,1.4382,0,0,0,.7991,1.0137,3.5326,3.5326,0,0,0,1.3064.0606,7.04,7.04,0,0,0,2.0623-.0737A1.7661,1.7661,0,0,0,101.8221,91.4488Z" style="fill:#b27150"/><path d="M96.3469,88.3041a.7463.7463,0,0,1-.3637-.1106,5.6564,5.6564,0,0,1-1.93-2.142l-1.0224-1.6287c-.2866-.4566-.5422-1.1327-.1153-1.462a1.0568,1.0568,0,0,1,.5006-.1686,12.0661,12.0661,0,0,1,1.8585-.1316,3.706,3.706,0,0,1,1.5209.2587,2.8338,2.8338,0,0,1,1.3829,1.5642,6.5556,6.5556,0,0,1,.3783,2.096c.0291.5639-.1128,1.121-.7687,1.0752a.83.83,0,0,0-.6359.1416C96.9086,87.97,96.6719,88.2951,96.3469,88.3041Z" style="fill:#b27150"/><path d="M99.6747,85.4116l-.1439,1.9628a.6314.6314,0,0,0,.04.3456c.1078.2017.38.223.5942.3041.3368.1279.6149.4585.9739.4282a.7147.7147,0,0,0,.5723-.7207,2.0841,2.0841,0,0,0-.2958-.9528l-.4136-.8281a1.6215,1.6215,0,0,0-.6622-.8112c-.3219-.1519-.8081.0264-.8121.3824" style="fill:#b27150"/><path d="M60.5689,90.32q-.795.24-1.5.51a1.7233,1.7233,0,0,0-.21.07.031.031,0,0,0-.02.01c-.14.05-.27.1-.4.16-.38.14-.74.3-1.09.46-.02.01-.05.02-.07.03-.13.06-.26.13-.39.19-.07.04-.15.07-.22.11a8.0194,8.0194,0,0,1-1.64-1.4c-.48-.5-1.2-1.19-.33-1.7,1.62-.92,3.84.16,5.32.87a1.0422,1.0422,0,0,1,.48.37A.71.71,0,0,1,60.5689,90.32Z" style="fill:#d89d71"/><path d="M53.7566,88.3044c.323-.8317,1.7761-.7739,2.0082-1.6354a1.0477,1.0477,0,0,0-.624-1.128,3.0612,3.0612,0,0,0-1.37-.2053l-2.7136.0112c-.4191.0018-.9251.055-1.1076.4322a1.136,1.136,0,0,0-.0481.619l.2871,2.6449a.9431.9431,0,0,0,.16.5132.9528.9528,0,0,0,.7759.2218l1.4764-.0269a.8813.8813,0,0,0,.5851-.152c.338-.3022.045-.87.1645-1.3073" style="fill:#d89d71"/><path d="M54.8289,83.36c-.01.14,0,.52-.12.61-.12.08-.31-.04-.43-.07a6.6035,6.6035,0,0,0-1.54-.04,12.64,12.64,0,0,0-1.83.2,1.4434,1.4434,0,0,1-.92-.04,1.1711,1.1711,0,0,1-.42-.51,5.9931,5.9931,0,0,1-.52-1.47c.16-.27.33-.53.49-.79v-.03c.12-.17.26-.35.38-.53.34-.5.69-.98,1.04-1.43a6.3822,6.3822,0,0,1,2.09.06,1.9032,1.9032,0,0,1,1.1.53,1.7965,1.7965,0,0,1,.31.58A6.6276,6.6276,0,0,1,54.8289,83.36Z" style="fill:#d89d71"/><path d="M79.3489,68.29a.4875.4875,0,0,1-.03.07c-.01.01-.01.01-.01.02a.0367.0367,0,0,1-.01.03.01.01,0,0,1-.01.01,1.2285,1.2285,0,0,1-.2.35,4.3971,4.3971,0,0,1-1.93,1.29,7.2547,7.2547,0,0,1-2.31.37,5.129,5.129,0,0,1-1.51-.14,2.733,2.733,0,0,1-1.3-.66,4.2475,4.2475,0,0,1-.6-.73,2.9312,2.9312,0,0,1-.74-1.96,2.979,2.979,0,0,1-.08-.99.5539.5539,0,0,1,.11-.31c.08-.1.21-.14.31-.23a.9644.9644,0,0,0,.23-.69,5.9942,5.9942,0,0,1,.81-2.5,10.2647,10.2647,0,0,1,.6-.87q.5248-.72,1.05-1.44a1.4682,1.4682,0,0,1,.56-.52c.01,0,.01-.01.02-.01.47-.18.97.2,1.25.62a3.8962,3.8962,0,0,0,.88,1.22,4.0415,4.0415,0,0,1,.8.48c.33.35.27.91.47,1.34.23.49.76.77,1.03,1.23a2.7906,2.7906,0,0,1,.29,1.06c.11.78.22,1.57.32,2.35A1.146,1.146,0,0,1,79.3489,68.29Z" style="fill:#683d33"/><path d="M79.3489,68.29a.4875.4875,0,0,1-.03.07c-.01.01-.01.01-.01.02a.0367.0367,0,0,1-.01.03.01.01,0,0,1-.01.01,1.2285,1.2285,0,0,1-.2.35,4.3971,4.3971,0,0,1-1.93,1.29,7.2547,7.2547,0,0,1-2.31.37,5.129,5.129,0,0,1-1.51-.14,8.3654,8.3654,0,0,0,.82-.34,1.3581,1.3581,0,0,0,.22-.14,2.246,2.246,0,0,0,.53-.4,3.145,3.145,0,0,0,.63-.82c.15-.27.25-.65.02-.87-.18-.18-.52-.19-.61-.43-.06-.18.08-.37.24-.49a1.2084,1.2084,0,0,0,.41-.4.589.589,0,0,0-.04-.43,1.3948,1.3948,0,0,0-.21-.27,3.7142,3.7142,0,0,1-.58-.54.4878.4878,0,0,1,.1-.69,1.9374,1.9374,0,0,1,.42-.07c.41-.11.5-.69.29-1.05a4.3146,4.3146,0,0,0-.88-.88.7622.7622,0,0,1-.27-.44,1.0829,1.0829,0,0,1,.13-.55,2.123,2.123,0,0,0-.09-1.71,3.2951,3.2951,0,0,1-.18-.38c.01,0,.01-.01.02-.01.47-.18.97.2,1.25.62a3.8962,3.8962,0,0,0,.88,1.22,4.0415,4.0415,0,0,1,.8.48c.33.35.27.91.47,1.34.23.49.76.77,1.03,1.23a2.7906,2.7906,0,0,1,.29,1.06c.11.78.22,1.57.32,2.35A1.146,1.146,0,0,1,79.3489,68.29Z" style="fill:#4c2828;fill-rule:evenodd"/></svg>