<svg id="Camada_1" data-name="Camada 1" xmlns="http://www.w3.org/2000/svg" viewBox="0 0 150 150"><path d="M113.079,118.89a28.2558,28.2558,0,0,0-2.96-7.39l-.35-.56a.6141.6141,0,0,0-.07-.18c-.11-.15-.22-.31-.33-.46l-.05-.08h-.01a37.0928,37.0928,0,0,0-7.56-8.42,32.7957,32.7957,0,0,1-2.46,8.87,30.1539,30.1539,0,0,1-2.62,4.86,24.2573,24.2573,0,0,1-5.23,5.64c-.3.24-.62.47-.94.69-.5.36-1.03.69-1.58,1.01a21.3273,21.3273,0,0,1-1.91.98,26.48,26.48,0,0,1-11.24,2.2c-.33,0-.66-.01-1-.02h-.05a29.2779,29.2779,0,0,1-13.45-3.52c-.07-.04-.13-.07-.19-.11-.28-.16-.54-.32-.8-.48-.43-.26-.83-.54-1.23-.83a24.8335,24.8335,0,0,1-6.33-6.64,30.2521,30.2521,0,0,1-4.62-12.5c-3.24,2.48-5.48,5.64-7.64,8.85a23.2312,23.2312,0,0,0-3.3,7.71,1.2509,1.2509,0,0,0-.06.21c-.32,1.02-1.5,5.53.48,8.81a6.54,6.54,0,0,0,2.39,2.3,6.0268,6.0268,0,0,0,.67.34,4.7981,4.7981,0,0,0,.65.25,5.7306,5.7306,0,0,0,1.21.29,5.9524,5.9524,0,0,0,1.11.04l.3-.03c.11-.01.22-.03.33-.05s.22-.05.33-.07a3.8064,3.8064,0,0,0,.48-.14,2.7428,2.7428,0,0,0,.4-.15c-3.71.48-4.68-.8-4.24-2.79.94-4.39,8.67-12.25,8.67-12.25l.38,3.78.69,6.82a2.0086,2.0086,0,0,1,.09.3c.11.61.24,1.21.38,1.8.03.15.06.29.1.45a40.2413,40.2413,0,0,0,3.96,10.06c.09.18.18.34.27.49v.01a3.3747,3.3747,0,0,1,.23.4c.25.44.52.88.79,1.31v.01c0,.01.01.02.02.04a.2886.2886,0,0,1,.03.04c.02.03.04.07.07.12.24.39.89,1.44,1.77,2.72.71,1.04,1.57,2.24,2.47,3.37.16.21.32.4.48.6a6.9713,6.9713,0,0,0,.88.91,5.7515,5.7515,0,0,0,2.91,1.5h.53c.16-.15.32-.3.49-.47a18.9957,18.9957,0,0,0,1.54-1.65,13.4709,13.4709,0,0,0,2.16-3.38c1.12-2.68,5.04-2.6,6.41-.86.09.06.17.12.26.18a4.49,4.49,0,0,1,.56,1.14c.06.17.12.34.19.5a5.7686,5.7686,0,0,0,.85,1.95,21.7187,21.7187,0,0,0,4.95.78,26.6289,26.6289,0,0,0,5.61-.28q.495-.48.96-1.02c.16-.18.32-.37.47-.56.11-.13.21-.27.32-.41.09-.12.18-.24.27-.37.11-.14.21-.28.31-.43.12-.16.23-.33.35-.5.16-.24.31-.48.47-.72v-.01a49.07,49.07,0,0,0,3.37-6.56c.31-.71.59-1.41.85-2.06.13-.33.25-.64.37-.95.11-.3.22-.6.32-.88s.2-.55.29-.8c.04-.14.09-.27.13-.39.06-.16.11-.31.16-.45.04-.13.08-.25.11-.36a.76.76,0,0,0,.04-.11c.06-.18.12-.34.16-.48,0,0,.07-.19.17-.56a.1087.1087,0,0,0,.01-.05.01.01,0,0,0,.01-.01,42.71,42.71,0,0,0,1.37-7.42,49.2038,49.2038,0,0,0,.27-5.67l3.66,3.17.05.04v4.53l-.64,2.43a4.4071,4.4071,0,0,1-.86-.82c.25.33.53.66.81.97v.01l-.21.8-.04.09-.0952.23.0078.0028c.0139.0091.0227.021.0359.03l.0015-.0038a7.575,7.575,0,0,1,.45-.99c0-.01,0-.01.01-.01v-.01c.03-.05.06-.11.09-.16.06-.12.14-.25.22-.38.15.26.31.51.47.75a10.5154,10.5154,0,0,0,1.79,2.03,8.6725,8.6725,0,0,0,1.33.99c.02.01.04.03.06.04a3.3189,3.3189,0,0,0,.46-.02q.1949-.015.33-.03h.03a.4419.4419,0,0,1,.1-.02.0605.0605,0,0,1,.04-.01h.02a.5784.5784,0,0,1,.1-.02c.01-.01.01-.01.02-.01h.03a.031.031,0,0,1,.02-.01s.1-.02.28-.06a.5585.5585,0,0,0,.12-.04.9306.9306,0,0,0,.13-.04c.06-.02.13-.04.2-.07.14-.05.29-.12.46-.19.09-.04.17-.08.26-.13.01,0,.01,0,.01-.01.08-.04.15-.08.23-.13a6.7155,6.7155,0,0,0,1.72-1.47,26.3954,26.3954,0,0,0-2.06-7.59A35.8868,35.8868,0,0,1,113.079,118.89Z" style="fill:#c65858"/><path d="M71.5989,147.31a3.8757,3.8757,0,0,1-2.79,2.69h-2.88c.16-.15.32-.3.49-.47a18.9957,18.9957,0,0,0,1.54-1.65A13.4112,13.4112,0,0,0,71.5989,147.31Z" style="fill:#965f23"/><path d="M88.9488,147.91a8.3121,8.3121,0,0,1-3.24,2.09h-3.3a6.7024,6.7024,0,0,1-.83-.25c.48-.39,1.08-.9,1.76-1.56A26.6286,26.6286,0,0,0,88.9488,147.91Z" style="fill:#965f23"/><path d="M83.3389,148.19c-.68.66-1.28,1.17-1.76,1.56a6.4,6.4,0,0,1-.84-.34c-.17-.08-.33-.17-.49-.26a3.0105,3.0105,0,0,1-.42-.27,5.2684,5.2684,0,0,1-1.44-1.47A21.7164,21.7164,0,0,0,83.3389,148.19Z" style="fill:#ddac40"/><path d="M48.159,101.9a.2655.2655,0,0,1-.06.05h.08A.1609.1609,0,0,1,48.159,101.9Z" style="fill:#0f0d0d"/><path d="M45.4488,130.31a2.7385,2.7385,0,0,1-.4.15,3.8064,3.8064,0,0,1-.48.14c-.11.02-.22.05-.33.07s-.22.04-.33.05l-.3.03a5.9527,5.9527,0,0,1-1.11-.04,5.7283,5.7283,0,0,1-1.21-.29,8.47,8.47,0,0,1-1.28-.59,6.5411,6.5411,0,0,1-2.39-2.3,8.0181,8.0181,0,0,0,3.59-.01C40.7688,129.51,41.7388,130.79,45.4488,130.31Z" style="fill:#9b455b"/><path d="M45.4488,130.31c.23-.1.46-.21.67-.32a4.7917,4.7917,0,0,1-.6.3Z"/><path d="M47.7789,128.8a7.5,7.5,0,0,1-1.66,1.19,8.1839,8.1839,0,0,0,1.65-1.21C47.7789,128.79,47.7789,128.79,47.7789,128.8Z"/><path d="M40.0112,129.83a8.4646,8.4646,0,0,0,1.28.59,6.317,6.317,0,0,1-1.32-.59,6.5391,6.5391,0,0,1-2.39-2.3c-1.98-3.28-.8-7.79-.48-8.81a27.8714,27.8714,0,0,1,8.57,6.39c-3.16,2.79-6.1,2.86-8.05,2.42A6.5391,6.5391,0,0,0,40.0112,129.83Z" style="fill:#c65858"/><path d="M113.11,118.87c-.01.01-.02.01-.03.02a35.95,35.95,0,0,0-3.71,2.14c-.68.45-1.3.9-1.86,1.34a19.9432,19.9432,0,0,0-3.58,3.59,10.5469,10.5469,0,0,0-.76,1.11c-.11.18-.21.36-.31.52-.15.29-.27.55-.36.77l-.0852.2055a.4619.4619,0,0,1,.1973.1856c.0415.0724.0415.0775.0972.1165a1.5877,1.5877,0,0,0,.1958.1073,1.7088,1.7088,0,0,1,.501.3342c.111.119.176.2865.2927.3741a1.9894,1.9894,0,0,0,.5237.1889,6.6656,6.6656,0,0,1,1.2893.53,2.0369,2.0369,0,0,0,.5029.2465c.1951.0586.3921.1065.582.1817a.6788.6788,0,0,1,.0779.0445c.0549.0016.1121.0054.1655.0054h.03a3.3167,3.3167,0,0,0,.46-.02q.1951-.015.33-.03h.03a.4418.4418,0,0,1,.1-.02.0611.0611,0,0,1,.04-.01h.02a.5763.5763,0,0,1,.1-.02c.01-.01.01-.01.02-.01H108a.0313.0313,0,0,1,.02-.01s.1-.02.28-.06a.5648.5648,0,0,0,.12-.04.9338.9338,0,0,0,.13-.04c.06-.02.13-.04.2-.07.14-.05.29-.12.46-.19.09-.04.17-.08.26-.13.01,0,.01,0,.01-.01.08-.04.15-.08.23-.13a6.5356,6.5356,0,0,0,1.72-1.44l.01-.01a9.1426,9.1426,0,0,0,1.92-4.26A13.6778,13.6778,0,0,0,113.11,118.87Z" style="fill:#c65858"/><path d="M113.109,118.87c-.01.01-.0195.01-.0293.0194a28.2433,28.2433,0,0,0-2.96-7.3894l-.35-.56a.6141.6141,0,0,0-.07-.18c-.11-.15-.22-.31-.33-.46l-.05-.08h-.01a37.0889,37.0889,0,0,0-7.56-8.42,32.8011,32.8011,0,0,1-2.46,8.87A20.001,20.001,0,0,1,109.37,121.03l-.0008.0005a10.0564,10.0564,0,0,1-.82,4.59c1.84,2.55,2.21,4.87-2.02,5.25.11.01.21.01.31.01h.03a3.3189,3.3189,0,0,0,.46-.02q.1949-.015.33-.03h.03a.4419.4419,0,0,1,.1-.02.0605.0605,0,0,1,.04-.01h.02a.5784.5784,0,0,1,.1-.02c.01-.01.01-.01.02-.01h.03a.031.031,0,0,1,.02-.01s.1-.02.28-.06a.5585.5585,0,0,0,.12-.04.9306.9306,0,0,0,.13-.04c.06-.02.13-.04.2-.07.14-.05.29-.12.46-.19.09-.04.17-.08.26-.13.01,0,.01,0,.01-.01.08-.04.15-.08.23-.13a6.5361,6.5361,0,0,0,1.72-1.44l.01-.01a9.1437,9.1437,0,0,0,1.92-4.26A13.6868,13.6868,0,0,0,113.109,118.87Z" style="fill:#9b455b"/><path d="M99.4588,122.81a42.71,42.71,0,0,1-1.37,7.42.01.01,0,0,1-.01.01.1087.1087,0,0,1-.01.05c-.1.37-.17.56-.17.56-.05.14-.1.3-.16.48a.76.76,0,0,1-.04.11c-.03.11-.07.23-.11.36-.05.14-.1.29-.16.45-.04.12-.09.25-.13.39-.09.25-.19.52-.29.8s-.21.58-.32.88c-.12.31-.24.62-.37.95-.26.65-.54,1.35-.85,2.06a49.07,49.07,0,0,1-3.37,6.56c1.42-4.07,2.51-10.1,3.33-16.48v-.01a80.0162,80.0162,0,0,0,2.31-7.96A34.8187,34.8187,0,0,0,99.4588,122.81Z" style="fill:#9b455b"/><path d="M50.9388,125.85c0,.01.01.01.01.02a14.6218,14.6218,0,0,0-1.18.95c-.34.3-.67.59-.85.75a9.9621,9.9621,0,0,1-1.14,1.23c0-.01,0-.01-.01-.02a9.77,9.77,0,0,0,1.57-1.84l.43-.38,1.07-.94C50.879,125.71,50.909,125.78,50.9388,125.85Z"/><path d="M55.4788,138.48a40.2451,40.2451,0,0,1-3.96-10.06c-.04-.16-.07-.3-.1-.45-.14-.59-.27-1.19-.38-1.8a2.0214,2.0214,0,0,0-.09-.3l-.69-6.82c.03-.05.05-.09.08-.14,0,0,.04.19.1.53C50.9688,122.15,53.429,134.46,55.4788,138.48Z" style="fill:#9b455b"/><path d="M95.429,127.41c-.82,6.38-1.91,12.41-3.33,16.48v.01c-.16.24-.31.48-.47.72-.12.17-.23.34-.35.5-.1.15-.2.29-.31.43-.09.13-.18.25-.27.37-.11.14-.21.28-.32.41-.15.19-.31.38-.47.56q-.4652.54-.96,1.02a26.6286,26.6286,0,0,1-5.61.28c3.01-2.91,7.68-8.61,11.21-18.41C94.8589,129,95.159,128.2,95.429,127.41Z" style="fill:#9b455b"/><path d="M76.5289,143.64a5.71,5.71,0,0,0-1.08-.59,2.2784,2.2784,0,0,0-.67-.17,2.03,2.03,0,0,0-1.82.79l-.01.01c-.18.45-.38.95-.59,1.48a.1854.1854,0,0,1-.02.07c-.08.21-.15.43-.24.67-.14.45-.3.93-.5,1.41a13.4112,13.4112,0,0,1-3.64.57,13.4709,13.4709,0,0,0,2.16-3.38C71.2388,141.82,75.159,141.9,76.5289,143.64Z" style="fill:#9b455b"/><path d="M50.2588,119.05a21.9211,21.9211,0,0,1-4.59,6.06,10.0761,10.0761,0,0,1-4.46,2.41c.94-4.39,8.67-12.25,8.67-12.25Z" style="fill:#efe8e8"/><path d="M45.4488,130.31c.23-.1.46-.21.67-.32a4.7917,4.7917,0,0,1-.6.3Z" style="fill:#846431"/><path d="M50.2588,119.05a21.9211,21.9211,0,0,1-4.59,6.06,10.0761,10.0761,0,0,1-4.46,2.41c-.44,1.99.53,3.27,4.24,2.79.23-.1.46-.21.67-.32a7.5,7.5,0,0,0,1.66-1.19,9.9621,9.9621,0,0,0,1.14-1.23c.18-.16.51-.45.85-.75a14.6218,14.6218,0,0,1,1.18-.95Z" style="fill:#c4b1b1"/><path d="M103.4388,120.35l-.05-.04-3.66-3.17a49.1813,49.1813,0,0,1-.27,5.67c.19.32.39.66.61,1.01a27.0376,27.0376,0,0,0,1.87,2.67c.25.33.53.66.81.97v.01c.04.04.07.08.11.12a.01.01,0,0,0,.01.01c.01,0,.02.01.04.02a4.98,4.98,0,0,0,.78.2c.13.03.27.05.42.07.08.01.16.02.25.03h.02c.15.01.3.02.46.02a3.8758,3.8758,0,0,0,2.92-1.16,5.63,5.63,0,0,0,.42-.52,4.3229,4.3229,0,0,0,.37-.64A33.9889,33.9889,0,0,0,103.4388,120.35Z" style="fill:#efe8e8"/><path d="M108.5494,125.619a4.5257,4.5257,0,0,1-.79,1.16,3.8755,3.8755,0,0,1-2.92,1.16c-.16,0-.31-.01-.46-.02h-.02c-.09-.01-.17-.02-.25-.03-.15-.02-.29-.04-.42-.07a4.7829,4.7829,0,0,1-.69-.37c-.07-.04-.13-.09-.2-.14a4.4045,4.4045,0,0,1-.86-.82,27.0366,27.0366,0,0,1-1.87-2.67c-.22-.35-.42-.69-.61-1.01-.09.88-.2,1.69-.31,2.44a.171.171,0,0,0,.01-.05l.57.85c.01.01.01.02.03.03a23.6527,23.6527,0,0,0,2.54,2.81l.06.06c.09.09.27.26.51.47a2.0008,2.0008,0,0,1,.24.19c.08.05.15.1.23.16.18.13.37.25.57.37a1.2431,1.2431,0,0,0,.2.1,3.79,3.79,0,0,0,.98.39c.02.01.04.01.06.02.02,0,.03.01.05.01a.01.01,0,0,1,.01.01h.01l.27.06a3.7566,3.7566,0,0,0,.44.08,1.1377,1.1377,0,0,0,.25.03c.12.02.23.02.35.03.1-.01.19-.02.28-.03C110.7393,130.379,110.3494,128.1089,108.5494,125.619Z" style="fill:#c4b1b1"/><path d="M102.7989,127.31l-.05.15c-.28-.31-.56-.64-.81-.97A4.4039,4.4039,0,0,0,102.7989,127.31Z" style="fill:#aaacaf"/><path d="M67.9588,147.88a18.9957,18.9957,0,0,1-1.54,1.65c-.17.17-.33.32-.49.47h-.53a5.7515,5.7515,0,0,1-2.91-1.5,6.9713,6.9713,0,0,1-.88-.91c-.16-.2-.32-.39-.48-.6A23.6726,23.6726,0,0,0,67.9588,147.88Z" style="fill:#ddac40"/><path d="M97.394,121.6981l.3448-2.2581.7787-4.73s.794,1.4175,1.2113,2.43c0,0-.067,3.9885-.27,5.669s-1.01.9-1.01.9l-1.0548-1.6936Z" style="fill:#9b455b"/><path d="M91.14,129.26a10.3793,10.3793,0,0,1-10.35,10.36H69.09a10.3686,10.3686,0,0,1-9.88-7.3,9.9933,9.9933,0,0,1-.47-3.06,10.2783,10.2783,0,0,1,2.35-6.54c.06-.07.11-.14.18-.21a29.2162,29.2162,0,0,0,13.5,3.52,25.9425,25.9425,0,0,0,14.15-3.16c.12.16.24.32.35.48a10.1679,10.1679,0,0,1,1.87,5.91Z" style="fill:#efe8e8"/><path d="M91.1412,129.26a10.3793,10.3793,0,0,1-10.35,10.36h-11.7a10.3686,10.3686,0,0,1-9.88-7.3,20.6162,20.6162,0,0,0,13.84,5.12c9.31-.13,14.09-1.25,17.85-10.41A10.2946,10.2946,0,0,1,91.1412,129.26Z" style="fill:#c4b1b1"/><path d="M107.5558,107.5662a11.767,11.767,0,0,1,2.1926,1.0856q1.0912.6848-.02,1.0433a9.4727,9.4727,0,0,1-5.3107-.1029q-1.0992-.4011-1.0888-.9378t1.1242-.8956q1.1121-.359,1.5588-.4751A3.0331,3.0331,0,0,1,107.5558,107.5662Z" style="fill:#9b455b;fill-rule:evenodd"/><path d="M109.5928,110.13a10.696,10.696,0,0,1,1.5884,1.5576q.75.9-.3121.8961a8.6148,8.6148,0,0,1-4.5609-1.5892q-.8367-.657-.6761-1.118t1.2245-.4566q1.0626.0039,1.4815.03A2.7579,2.7579,0,0,1,109.5928,110.13Z" style="fill:#9b455b;fill-rule:evenodd"/><path d="M40.2348,110.646a10.7046,10.7046,0,0,0-1.6881,1.4491q-.8076.8485.2521.9148a8.6151,8.6151,0,0,0,4.6561-1.2838q.8784-.6.7487-1.0708t-1.1917-.5366q-1.06-.0665-1.48-.0684A2.7579,2.7579,0,0,0,40.2348,110.646Z" style="fill:#c65858;fill-rule:evenodd"/><path d="M49.9811,127.09a8.9239,8.9239,0,0,1-.855,1.6449q-.5351.8165-.79-.0308a7.1785,7.1785,0,0,1,.157-4.0216q.32-.8268.7267-.8109t.6617.865q.2553.8478.3367,1.1879A2.2978,2.2978,0,0,1,49.9811,127.09Z" style="fill:#c4b1b1;fill-rule:evenodd"/><path d="M97.49,133.2446a11.7726,11.7726,0,0,1-.2286,2.436q-.2487,1.2641-.9814.3548a9.4741,9.4741,0,0,1-1.8053-4.9955q-.019-1.17.4858-1.3524t1.2387.729q.7334.91,1.0017,1.2853A3.0331,3.0331,0,0,1,97.49,133.2446Z" style="fill:#9b455b;fill-rule:evenodd"/><path d="M56.291,140.21a10.7033,10.7033,0,0,0,.5507,2.1555q.4026,1.1.9318.1795a8.614,8.614,0,0,0,.9131-4.7427q-.1487-1.0536-.6281-1.1458t-1.0092.83q-.53.921-.7174,1.2964A2.758,2.758,0,0,0,56.291,140.21Z" style="fill:#c65858;fill-rule:evenodd"/><path d="M72.7788,65.7464a17.9857,17.9857,0,0,1,3.4091-1.5357q1.8672-.624,1.2124,1.0359a14.4759,14.4759,0,0,1-5.2739,6.1706q-1.54.9089-2.1636.3758t.0332-2.1962q.6551-1.6612.9513-2.3014A4.635,4.635,0,0,1,72.7788,65.7464Z" style="fill:#c65858;fill-rule:evenodd"/><path d="M78.8746,66.8047a17.979,17.979,0,0,1,3.73-.2526q1.9677.0653.7758,1.3933a14.4759,14.4759,0,0,1-7.0925,3.948q-1.76.3157-2.159-.4011t.7958-2.0472q1.1927-1.3293,1.6932-1.8262A4.6355,4.6355,0,0,1,78.8746,66.8047Z" style="fill:#c65858;fill-rule:evenodd"/><path d="M59.4727,70.8942a10.6979,10.6979,0,0,0-2.2247-.0014q-1.1655.117-.4051.858a8.6142,8.6142,0,0,0,4.3678,2.0616q1.0573.1173,1.2658-.3241t-.554-1.1837q-.7608-.7417-1.0779-1.0168A2.7582,2.7582,0,0,0,59.4727,70.8942Z" style="fill:#c65858;fill-rule:evenodd"/><path d="M104.6988,97.3a37.0248,37.0248,0,0,0-2.95-11.78,29.772,29.772,0,0,0-1.55-2.97,24.5653,24.5653,0,0,0-3.9-5.55v-.01c-.33-.37-.7-.74-1.08-1.12-.05-.05-.09-.1-.14-.15-.4-.39-.82-.78-1.27-1.17,0-.01-.01-.01-.01-.02a.031.031,0,0,1-.02-.01l-.01-.01c-.44-.38-.91-.77-1.4-1.14-.04-.03-.07-.06-.11-.09-.18-.14-.38-.28-.58-.42-.12-.09-.23-.17-.35-.26-.19-.13-.38-.26-.57-.38-.14-.1-.29-.2-.44-.29-.19-.12-.37-.24-.56-.35-.19-.12-.39-.24-.6-.35q-.36-.225-.75-.42c-.25-.14-.51-.28-.78-.41-.16-.08-.33-.16-.5-.24-.24-.11-.48-.23-.73-.34-.17-.07-.34-.15-.52-.22-.26-.11-.54-.22-.81-.32-.16-.07-.32-.13-.49-.19s-.34-.12-.51-.17c-.24-.09-.48-.16-.72-.24-.05-.02-.11-.04-.16-.06-.45-.14-.91-.26-1.38-.38-.15-.04-.31-.08-.47-.12-.35-.08-.69-.16-1.05-.23-.18-.04-.36-.07-.54-.11-.36-.06-.73-.12-1.1-.18-.17-.03-.34-.05-.51-.08-.54-.07-1.1-.13-1.66-.18-.56-.06-1.13-.09-1.71-.11a27.22,27.22,0,0,0-19.5,7.46,31.4417,31.4417,0,0,0-5.35,6c-.12.18-.26.36-.38.53v.03a25.8057,25.8057,0,0,0-1.33,2.31,20.1034,20.1034,0,0,0-1.56,3.98c-.02.08-.03.15-.05.22a32.2165,32.2165,0,0,0-1.47,9.48q-.2253,13.38,8.64,21.62,8.82,8.175,21.65,8.17a33.69,33.69,0,0,0,11-1.76c.02-.01.05-.02.07-.03.29-.1.57-.2.86-.31a29.9725,29.9725,0,0,0,9.76-6.06q7.77-7.08,7.77-18.24A31.4981,31.4981,0,0,0,104.6988,97.3Zm-8.43,17.91a24.24,24.24,0,0,1-3.5,4.1.6576.6576,0,0,1-.09.08,25.2238,25.2238,0,0,1-2.44,2.01,23.5538,23.5538,0,0,1-6.67,3.42l-3.53.82-2.24.27c-.77.07-1.56.1-2.37.1-.64,0-1.28-.02-1.9-.07a27.9,27.9,0,0,1-5.41-.87,24.5181,24.5181,0,0,1-10.61-5.99,22.1208,22.1208,0,0,1-7.57-16.83v-.33c.01-.48.04-.93.07-1.38,0,0-.16-3.19,3.14-6.27a1.2832,1.2832,0,0,0,.21.14l.21.12a.6415.6415,0,0,0,.14.08c.01.01.02.01.03.02a.2173.2173,0,0,0,.05.03c.1.05.21.11.31.16.11.06.21.11.32.16.05.02.1.04.14.06a.4943.4943,0,0,1,.07.03l.01.01h.02c.17.08.34.15.52.22.04.02.09.03.13.05a.1007.1007,0,0,1,.03.01l.07.03c.04.01.07.03.11.04a2.2281,2.2281,0,0,1,.24.08l.12.03a1.57,1.57,0,0,0,.2.07.2889.2889,0,0,1,.09.02.2365.2365,0,0,0,.08.02l.09.03a9.0528,9.0528,0,0,1-.83-.81c-.17-.18-.33-.36-.48-.55a10.2939,10.2939,0,0,1-.74-1,17.486,17.486,0,0,1,2.99-1.76c.49-.23,1.01-.45,1.56-.65a.031.031,0,0,1,.02-.01,37.7472,37.7472,0,0,1,10.61-2.12c.51-.04,1.04-.07,1.58-.09.36-.02.73-.03,1.11-.05,0,.14-.01.28-.01.42-.01.1-.02.2-.02.3a9.1263,9.1263,0,0,1-.28,1.59c-.06.24-.12.48-.2.71a6.447,6.447,0,0,1-1.95.52h-.1c-.13.01-.26.02-.36.03-.23.01-.37.01-.37.01v.01h-.01a.2668.2668,0,0,0,.05.13.9433.9433,0,0,0,.14.17,2.0984,2.0984,0,0,0,.21.21,2.3972,2.3972,0,0,0,.23.21l.03.03c.09-.04.17-.07.25-.11.4-.16.79-.32,1.17-.46.13-.05.26-.1.38-.14.04-.02.09-.03.13-.05a13.4665,13.4665,0,0,1,1.96-.54,8.1534,8.1534,0,0,1,1.36-.14h.06v.01h.55a7.0383,7.0383,0,0,1,1.28.13c.14.03.29.06.43.09l.48.12c.32.09.65.19.97.31a1.7105,1.7105,0,0,1,.21.07.4169.4169,0,0,1,.1.04l.27.09c.17.07.35.14.53.21.3.12.61.25.92.38.09.04.18.08.27.11.11-.09.22-.18.31-.26.1-.08.18-.16.25-.22a.9723.9723,0,0,1,.1-.1.99.99,0,0,0,.16-.25c.01-.02.02-.03.01-.04l.01-.01h-.18c-.02.01-.04,0-.07,0a.3767.3767,0,0,0-.11-.01h-.05c-.12-.01-.27-.02-.44-.03-.01,0-.02-.01-.03-.01a5.3884,5.3884,0,0,1-2.44-.81,1.4506,1.4506,0,0,0-.13-.09,2.3383,2.3383,0,0,1-.06-.25c-.06-.21-.1-.42-.14-.64a8.34,8.34,0,0,1-.13-.87c-.02-.15-.03-.29-.04-.44-.01-.13-.01-.25-.01-.38.38.01.75.03,1.12.05h.01q.78.06,1.5.12a36.9959,36.9959,0,0,1,10.95,2.41c.16.07.33.14.49.21.01,0,.01.01.02.01.35.15.68.31.99.47.03.14.06.25.06.25s.76.87.81.91c.04.04,1.02.45,1.57.68a10.0772,10.0772,0,0,1-1.73,1.9c.13-.03.25-.07.37-.1.07-.02.14-.05.21-.07.1-.03.2-.06.29-.09.23-.08.45-.16.66-.25a.0317.0317,0,0,1,.02-.01c.21-.09.42-.18.62-.28a.83.83,0,0,0,.13-.07c.06-.03.11-.06.17-.09.17-.08.33-.17.48-.25.07.06.13.12.19.18a7.0775,7.0775,0,0,1,.54.57c.08.08.14.16.21.23a9.7948,9.7948,0,0,1,1.63,2.75c0,.01.01.02.01.03a15.4452,15.4452,0,0,1,.46,2.29c.01.12.03.23.04.35a22.6477,22.6477,0,0,1,.13,2.39A20.8421,20.8421,0,0,1,96.2688,115.21Z" style="fill:#c65858"/><path d="M104.879,100.63q0,11.16-7.77,18.24a29.9725,29.9725,0,0,1-9.76,6.06c-.29.11-.57.21-.86.31a17.3763,17.3763,0,0,0,3.75-3.84,25.2238,25.2238,0,0,0,2.44-2.01.6576.6576,0,0,0,.09-.08,24.24,24.24,0,0,0,3.5-4.1,20.8421,20.8421,0,0,0,3.53-11.93,22.6477,22.6477,0,0,0-.13-2.39c-.01-.12-.03-.23-.04-.35a15.4452,15.4452,0,0,0-.46-2.29c0-.01-.01-.02-.01-.03a9.7948,9.7948,0,0,0-1.63-2.75c-.07-.07-.13-.15-.21-.23a7.0775,7.0775,0,0,0-.54-.57c-.06-.06-.12-.12-.19-.18-.15.08-.31.17-.48.25-.06.03-.11.06-.17.09-.98-13.45-7.14-21.58-11.87-25.91.17.05.34.11.51.17s.33.12.49.19c.27.1.55.21.81.32.18.07.35.15.52.22.25.11.49.23.73.34.17.08.34.16.5.24.27.13.53.27.78.41q.39.195.75.42c.21.11.41.23.6.35.19.11.37.23.56.35.15.09.3.19.44.29.19.12.38.25.57.38.12.09.23.17.35.26.2.14.4.28.58.42.04.03.07.06.11.09.49.37.96.76,1.4,1.14l.01.01a.031.031,0,0,0,.02.01c0,.01.01.01.01.02.45.39.87.78,1.27,1.17.05.05.09.1.14.15.38.38.75.75,1.08,1.12V77a24.5653,24.5653,0,0,1,3.9,5.55,29.772,29.772,0,0,1,1.55,2.97,37.0248,37.0248,0,0,1,2.95,11.78A31.4981,31.4981,0,0,1,104.879,100.63Z" style="fill:#9b455b"/><path d="M75.2688,95.03v.01l-.01,1.17a20.7481,20.7481,0,0,1-5.74-3.23c-.39-.34-.65-.6-.66-.75h.01a2.5694,2.5694,0,0,0,.9.64A23.6706,23.6706,0,0,0,75.2688,95.03Z" style="fill:#965f23"/><path d="M75.2647,89.5544v5.48a24.1537,24.1537,0,0,1-5.4953-2.16,2.5289,2.5289,0,0,1-.8979-.6417,7.1172,7.1172,0,0,0,.7309-.048c.0322-.0034.0649-.0068.0976-.0094a6.3781,6.3781,0,0,0,1.9527-.5161,2.929,2.929,0,0,0,.5044-.3C73.3291,90.5,74.2554,89.5777,75.2647,89.5544Z" style="fill:#965f23"/><path d="M80.7989,92.17a6.9477,6.9477,0,0,1-2.42-.57.2173.2173,0,0,1-.05-.03l-.12-.06a.7.7,0,0,0,0-.25c.01,0,.01,0,.02.01a1.4506,1.4506,0,0,1,.13.09A5.3884,5.3884,0,0,0,80.7989,92.17Z" style="fill:#7a3f1f"/><path d="M78.2088,91.26a.7.7,0,0,1,0,.25c-.07,2.05-2.94,3.53-2.94,3.53V89.55C76.2188,89.58,77.1089,90.42,78.2088,91.26Z" style="fill:#965f23"/><path d="M75.2734,90.32v4.7166l-.0087-.0025a24.1537,24.1537,0,0,1-5.4953-2.16,2.5289,2.5289,0,0,1-.8979-.6417l-.0022-.0136s.2959,0,.7331-.0344c.0322-.0034.0649-.0068.0976-.0094a8.85,8.85,0,0,0,1.8943-.3413,3.8793,3.8793,0,0,0,.58-.2369,7.8445,7.8445,0,0,1,3.09-1.2771Z" style="fill:#ddac40"/><path d="M78.2088,91.51c-.07,2.05-2.94,3.53-2.94,3.53V90.32A7.2287,7.2287,0,0,1,78.2088,91.51Z" style="fill:#ddac40"/><path d="M81.679,92.22l-.01.01s-.35,0-.84-.05C81.3289,92.22,81.679,92.22,81.679,92.22Z" style="fill:#ddac40"/><path d="M97.4688,88.49a11.2854,11.2854,0,0,1-3.83,7.21,12.0375,12.0375,0,0,1-3.03.39c-.15,0-.31,0-.46-.01a12.0752,12.0752,0,0,1-3.74-.75c-.72-.22-1.45-.49-2.17-.78-1.16-.46-2.3-.97-3.4-1.45a2.8244,2.8244,0,0,0,.82-.83c.01-.02.02-.03.01-.04l.01-.01s-.35,0-.85-.04c-.01,0-.02-.01-.03-.01a5.3884,5.3884,0,0,1-2.44-.81,1.4506,1.4506,0,0,0-.13-.09,10.8453,10.8453,0,0,1-.31-4.2c.69-5.74,5.62-10.06,11.02-9.67.35.03.69.07,1.02.13C94.7989,78.44,98.1089,83.13,97.4688,88.49Z" style="fill:#efe8e8"/><path d="M71.6487,91.66a6.447,6.447,0,0,1-1.95.52h-.1c-.43.04-.73.04-.73.04v.01h-.01c.01.15.27.41.66.75-.44.18-.89.38-1.35.58-.31.13-.61.27-.92.4h-.01c-.24.11-.46.2-.7.3l-.15.06c-.19.08-.38.16-.57.23-.71.29-1.44.56-2.17.78a12.0733,12.0733,0,0,1-4.19.76,12.2363,12.2363,0,0,1-3.12-.41,11.48,11.48,0,0,1-2.53-3.16,11.5971,11.5971,0,0,1-1.27-4.03c-.68-5.73,3.13-10.69,8.53-11.09a10.49,10.49,0,0,1,10.15,6.48,11.2261,11.2261,0,0,1,.87,3.19A10.5863,10.5863,0,0,1,71.6487,91.66Z" style="fill:#efe8e8"/><path d="M97.4688,88.49a11.2854,11.2854,0,0,1-3.83,7.21,12.0375,12.0375,0,0,1-3.03.39c-.15,0-.31,0-.46-.01a17.0036,17.0036,0,0,0,2.62-9.35,15.8409,15.8409,0,0,0-2.81-9.2C94.7989,78.44,98.1089,83.13,97.4688,88.49Z" style="fill:#c4b1b1"/><path d="M71.6487,91.66a6.447,6.447,0,0,1-1.95.52h-.1c-.43.04-.73.04-.73.04v.01h-.01c.01.15.27.41.66.75-.44.18-.89.38-1.35.58-.31.13-.61.27-.92.4h-.01c-.24.11-.46.2-.7.3l-.15.06a16.6992,16.6992,0,0,0,4.83-10.44,11.2261,11.2261,0,0,1,.87,3.19A10.5863,10.5863,0,0,1,71.6487,91.66Z" style="fill:#c4b1b1"/><path d="M81.659,92.27a2.8244,2.8244,0,0,1-.82.83,20.5019,20.5019,0,0,1-5.57,3.11h-.01l.01-1.17a2.6157,2.6157,0,0,0,.27-.06,15.2445,15.2445,0,0,0,1.61-.49c.12-.05.23-.09.36-.13.24-.1.48-.19.73-.3l.36-.15c.73-.31,1.43-.63,1.97-.92.01-.01.01-.01.02-.01.12-.07.24-.13.35-.2A2.6615,2.6615,0,0,0,81.659,92.27Z" style="fill:#7a3f1f"/><path d="M81.6687,92.23c.01.01,0,.02-.01.04a2.6615,2.6615,0,0,1-.72.51c-.11.07-.23.13-.35.2-.01,0-.01,0-.02.01-.54.29-1.24.61-1.97.92l-.36.15c-.25.11-.49.2-.73.3-.13.04-.24.08-.36.13a15.2445,15.2445,0,0,1-1.61.49,2.6157,2.6157,0,0,1-.27.06s2.87-1.48,2.94-3.53l.12.06a.2173.2173,0,0,0,.05.03,6.9477,6.9477,0,0,0,2.42.57c.01,0,.02.01.03.01C81.3189,92.23,81.6687,92.23,81.6687,92.23Z" style="fill:#ce923c"/><path d="M81.679,92.22l-.01.01s-.35,0-.84-.05C81.3289,92.22,81.679,92.22,81.679,92.22Z" style="fill:#ddac40"/><path d="M59.1272,88.22a4.7231,4.7231,0,0,1,5.1844-2.1683" style="fill:none;stroke:#001a2b;stroke-linecap:round;stroke-miterlimit:10;fill-rule:evenodd"/><path d="M90.2866,88.22a4.7231,4.7231,0,0,0-5.1844-2.1683" style="fill:none;stroke:#001a2b;stroke-linecap:round;stroke-miterlimit:10;fill-rule:evenodd"/><path d="M102.5479,87.3484a10.6968,10.6968,0,0,1,1.5884,1.5577q.75.9-.3121.896a8.6135,8.6135,0,0,1-4.5609-1.5891q-.8367-.657-.6761-1.1181t1.2246-.4565q1.0624.0039,1.4814.03A2.758,2.758,0,0,1,102.5479,87.3484Z" style="fill:#9b455b;fill-rule:evenodd"/></svg>