<svg id="Camada_1" data-name="Camada 1" xmlns="http://www.w3.org/2000/svg" viewBox="0 0 150 150"><defs><style>.cls-1{fill:#afdee2;}.cls-2{fill:#8aaa91;}.cls-3{fill:#faffeb;}.cls-4{fill:#99bca0;}.cls-5{fill:#92cacc;}.cls-6{fill:#ba8e83;}.cls-7{fill:#683d33;}.cls-8{fill:#0f0d0d;}.cls-9{fill:#84a389;}.cls-10{fill:#6a846f;}.cls-11{fill:#77635d;}.cls-12{fill:#6e8973;}.cls-13{fill:#6a826e;}.cls-14{fill:#708c75;}.cls-15{fill:#7e9981;}.cls-16{fill:#7f6a7b;}</style></defs><rect class="cls-1" x="0.02" width="150" height="150"/><path class="cls-2" d="M150,56.29v2.24a4.93,4.93,0,0,1-.78.06H0V56.71a7.68,7.68,0,0,1,3.88-.28,17.4,17.4,0,0,0,4.52.68c1.26-.09,2.21-.54,3.43-.71,2.68-.35,5.42.8,8.18.57,1.73-.14,3-.8,4.79-.93,2.39-.18,4.59.7,7,.67a19.35,19.35,0,0,0,5.45-1.2,33.93,33.93,0,0,1,8-1.26,4.9,4.9,0,0,1,1.51.1c.79.25.53.79,1,1.16a6,6,0,0,0,2.92.55c8.53.31,17.13.18,25.59-.36a6.62,6.62,0,0,0,1.83-.29,5.6,5.6,0,0,0,1-.63,5.73,5.73,0,0,1,4.18-.1,12.13,12.13,0,0,0,1.14.61,8.19,8.19,0,0,0,2.35.25c8.83.15,17.86.28,26.27-.87a17.22,17.22,0,0,1,3.93-.26c1.72.15,2.92.83,4.52,1.15,3.88.78,8.69-.69,12.62,0a11.5,11.5,0,0,0,3.41.45,5.17,5.17,0,0,0,1.69-.55,8,8,0,0,1,2.78-.76c1.11-.09,2.42.19,2.6.66.06.17,0,.35.14.51.4.38,1.69.28,2.66.22A10.45,10.45,0,0,1,150,56.29Z"/><path class="cls-3" d="M94.59,23.62a16.36,16.36,0,0,1,11.36-5s1.42-5,8.51-4.73c0,0,2.84-3.31,8.28-1.42,0,0,4.26-3.07,8,2.13,0,0,3.55-1.84,4.5,3a4.82,4.82,0,0,1,5.91,2.94s4.26.23,5.44,3.07Z"/><path class="cls-3" d="M5.86,36.73a16.33,16.33,0,0,1,11.35-5s1.42-5,8.52-4.73c0,0,2.84-3.31,8.28-1.42,0,0,4.25-3.07,8,2.13,0,0,3.55-1.85,4.49,3a4.84,4.84,0,0,1,5.92,2.94s4.25.23,5.44,3.07Z"/><path class="cls-2" d="M0,56.29v2.24a4.93,4.93,0,0,0,.78.06H150V56.71a7.68,7.68,0,0,0-3.88-.28,17.4,17.4,0,0,1-4.52.68c-1.26-.09-2.21-.54-3.43-.71-2.68-.35-5.42.8-8.18.57-1.73-.14-3-.8-4.79-.93-2.39-.18-4.59.7-7,.67a19.35,19.35,0,0,1-5.45-1.2,33.93,33.93,0,0,0-8-1.26,4.9,4.9,0,0,0-1.51.1c-.79.25-.53.79-1,1.16a6,6,0,0,1-2.92.55c-8.53.31-17.13.18-25.59-.36a6.62,6.62,0,0,1-1.83-.29,5.6,5.6,0,0,1-1-.63,5.73,5.73,0,0,0-4.18-.1,12.13,12.13,0,0,1-1.14.61,8.19,8.19,0,0,1-2.35.25c-8.83.15-17.86.28-26.27-.87A17.22,17.22,0,0,0,33,54.41c-1.72.15-2.92.83-4.52,1.15-3.88.78-8.69-.69-12.62,0a11.5,11.5,0,0,1-3.41.45,5.17,5.17,0,0,1-1.69-.55A8,8,0,0,0,8,54.74c-1.11-.09-2.42.19-2.6.66-.06.17,0,.35-.14.51-.4.38-1.69.28-2.66.22A10.45,10.45,0,0,0,0,56.29Z"/><rect class="cls-4" y="58.04" width="150" height="91.96"/><path class="cls-5" d="M150.18,80.77v69.3H.18V79.89c21.11-4.41,46.14-7,73-7C101.72,72.93,128.25,75.82,150.18,80.77Z"/><path class="cls-6" d="M93.8,92.52l-.1-.15h0Z"/><path class="cls-7" d="M93.8,92.52l-.1-.15h0Z"/><polygon class="cls-8" points="96.16 94.09 96 93.97 95.97 93.95 96.05 93.91 96.13 93.91 96.16 94.09"/><path class="cls-6" d="M93.8,92.52l-.1-.15h0Z"/><path class="cls-7" d="M93.8,92.52l-.1-.15h0Z"/><polygon class="cls-8" points="96.16 94.09 96 93.97 95.97 93.95 96.05 93.91 96.13 93.91 96.16 94.09"/><ellipse class="cls-9" cx="138.68" cy="73.61" rx="2.7" ry="0.59"/><path class="cls-10" d="M149.46,51a6.27,6.27,0,0,0-.78-3.09,5.19,5.19,0,0,0-.83-1.06,4.44,4.44,0,0,0,.29-1.59,4.2,4.2,0,0,0-.06-.72,4.41,4.41,0,0,0-4.36-3.7,4.91,4.91,0,0,0-.67.05c-.1-1.87-1.92-3.61-4.4-4.05a5.76,5.76,0,0,0-4.38.87,3.75,3.75,0,0,0-.76-.48,4.13,4.13,0,0,0-2.75-.26,6.34,6.34,0,0,0-3,1.76A8.21,8.21,0,0,0,126.2,41a8,8,0,0,0-.78,3,3,3,0,0,0-1.31,1.24,4.48,4.48,0,0,0-.55,2.43,6,6,0,0,0,1.78,4l-.11.09a2.4,2.4,0,0,0-.52.58.83.83,0,0,0-.09.16,4.46,4.46,0,0,0,.85,4.87,4.75,4.75,0,0,0,4,1.88.76.76,0,0,1,0,.11,5.07,5.07,0,0,0,1,1.69,8.67,8.67,0,0,0,11.76.36h.14a4.41,4.41,0,0,0,4.16-2.93,4.62,4.62,0,0,0,.26-1.49c0-.07,0-.15,0-.22a4.25,4.25,0,0,0-.13-.88A5.19,5.19,0,0,0,149.46,51Z"/><path class="cls-11" d="M141.56,55.63q-.74.6-1.44,1.23t-1.38,1.29c-.23.22-.45.45-.67.67s-.82.86-1.16,1.26l0-1.4-.1-5.09c0-1.06-.05-2.11-.07-3.16.08-.28.17-.55.26-.83l.12-.38.12-.39.12-.38.13-.39c.17-.51.36-1,.55-1.52s.38-1,.59-1.51h0c-.23.49-.45,1-.67,1.48s-.42,1-.62,1.51a15.51,15.51,0,0,0-.53,1.54,1.17,1.17,0,0,0-.05.2q-.07-3.16-.16-6.33s0-.08-.06-.08-.06,0-.07.08q-.14,5.09-.24,10.18l-.1,4.94v.32c0-.12-.08-.24-.11-.36a18.75,18.75,0,0,0-.8-2c-.28-.67-.58-1.34-.9-2s-.63-1.31-1-2h0s0,0,0,0c.3.66.58,1.33.86,2s.56,1.34.81,2l.19.51.18.51.18.51c.06.18.13.34.19.52s.17.49.26.73h0l.12.37L136,63.77c0,1.69-.08,3.39-.12,5.09l0,1.27c0,.42,0,.85,0,1.27,0,.68,0,1.37,0,2a.51.51,0,0,0,.26.43.49.49,0,0,0,.25.06h.24a.5.5,0,0,0,.5-.49c0-.68,0-1.37,0-2V70.13l0-1.27c0-1.7-.09-3.4-.11-5.09L136.92,61v-.37c.24-.3.5-.6.76-.89.42-.47.81-1,1.24-1.42s.86-.91,1.31-1.35.89-.88,1.35-1.31v0Z"/><ellipse class="cls-12" cx="13.69" cy="86.11" rx="2.68" ry="0.98"/><ellipse class="cls-13" cx="11" cy="107.54" rx="6.85" ry="2.5"/><ellipse class="cls-14" cx="43.78" cy="79.04" rx="1.34" ry="0.49"/><ellipse class="cls-12" cx="130.58" cy="91.42" rx="2.68" ry="0.98"/><ellipse class="cls-14" cx="109.91" cy="79.03" rx="1.34" ry="0.49"/><ellipse class="cls-9" cx="7.68" cy="63.52" rx="1.19" ry="0.26"/><path class="cls-15" d="M12.43,53.56a2.72,2.72,0,0,0-.35-1.36,1.92,1.92,0,0,0-.37-.47,1.82,1.82,0,0,0,.14-.7,1.55,1.55,0,0,0,0-.31A1.94,1.94,0,0,0,9.9,49.09l-.29,0a2.18,2.18,0,0,0-1.94-1.78,2.56,2.56,0,0,0-1.93.38,1.85,1.85,0,0,0-.33-.21,1.8,1.8,0,0,0-1.21-.11,2.83,2.83,0,0,0-1.31.77,3.63,3.63,0,0,0-.69,1,3.42,3.42,0,0,0-.35,1.32,1.31,1.31,0,0,0-.58.54A2.06,2.06,0,0,0,1,52.09a2.7,2.7,0,0,0,.18.85,2.6,2.6,0,0,0,.61.91l-.05,0a1,1,0,0,0-.23.26.16.16,0,0,0,0,.07,2,2,0,0,0,.37,2.14,2.1,2.1,0,0,0,1.78.83.43.43,0,0,1,0,.05,2.37,2.37,0,0,0,.45.74,3.56,3.56,0,0,0,2.56,1.09,3.59,3.59,0,0,0,2.61-.93h.06a1.93,1.93,0,0,0,1.94-1.94v-.1a1.32,1.32,0,0,0-.06-.39A2.27,2.27,0,0,0,12.43,53.56Z"/><path class="cls-16" d="M9,55.62a8.14,8.14,0,0,0-.63.54c-.21.18-.41.37-.61.57l-.3.29-.51.55V57l0-2.24,0-1.39c0-.12.07-.24.11-.36A1.54,1.54,0,0,0,7,52.8L7,52.63l0-.17.06-.17c.07-.23.15-.45.24-.67s.17-.45.26-.67h0c-.11.21-.2.43-.3.65l-.27.66a5,5,0,0,0-.24.68.24.24,0,0,1,0,.08c0-.92,0-1.85-.07-2.78a0,0,0,0,0,0,0s0,0,0,0c-.05,1.49-.08,3-.11,4.48l0,2.17V57c0-.05,0-.1,0-.16-.1-.31-.23-.6-.35-.89s-.26-.59-.4-.88-.28-.58-.43-.86h0c.13.29.26.58.38.88L6,56l.08.22.08.23.08.22a2.09,2.09,0,0,0,.08.23,3,3,0,0,1,.11.32h0l.06.16,0,1.79c0,.75,0,1.5,0,2.24V62c0,.19,0,.38,0,.56s0,.61,0,.91a.21.21,0,0,0,.11.18.2.2,0,0,0,.11,0h.11A.21.21,0,0,0,7,63.46v-2c0-.74,0-1.49-.05-2.24l0-1.21v-.16l.33-.4c.19-.2.36-.42.55-.62s.38-.4.57-.59l.6-.58H9Z"/></svg>