<svg id="Camada_1" data-name="Camada 1" xmlns="http://www.w3.org/2000/svg" viewBox="0 0 150 150"><defs><style>.cls-1{fill:#0f0d0d;}.cls-2,.cls-7{fill:#c4b1b1;}.cls-3,.cls-8{fill:#efe8e8;}.cls-10,.cls-4{fill:#dd999f;}.cls-5,.cls-9{fill:#ce8091;}.cls-6{fill:#353130;}.cls-10,.cls-11,.cls-12,.cls-14,.cls-7,.cls-8,.cls-9{fill-rule:evenodd;}.cls-11{fill:#bf9f82;}.cls-12,.cls-13{fill:#ad8273;}.cls-14{fill:#af6d8e;}.cls-15{fill:#aa7583;}</style></defs><path class="cls-1" d="M94.07,137.4a1,1,0,0,0,0-2,1,1,0,0,0,0,2Z"/><path class="cls-2" d="M107.36,137.66a.49.49,0,0,1-.31.38c-2.67,1-6,2.09-8.57.29A7.92,7.92,0,0,1,96.05,135c-.6-1.23-1.28-2.68-2.62-3.24a.53.53,0,0,1-.31-.63.39.39,0,0,1,.57-.33,5.48,5.48,0,0,1,2.61,2.49,18.18,18.18,0,0,0,2,3.6c2.23,2.43,5.84,1.19,8.44.19C107.19,136.92,107.44,137.32,107.36,137.66Z"/><path class="cls-3" d="M113.08,118.89a28.25,28.25,0,0,0-3-7.39l-.35-.56a.61.61,0,0,0-.07-.18l-.33-.46-.05-.08h0a37.09,37.09,0,0,0-7.56-8.42,32.8,32.8,0,0,1-2.46,8.87,25.23,25.23,0,0,1-10.37,12.2A25.94,25.94,0,0,1,74.77,126a29.22,29.22,0,0,1-13.5-3.52C49.34,115.81,48.1,102,48.1,102c-3.24,2.48-5.48,5.64-7.64,8.85a23.23,23.23,0,0,0-3.3,7.71,1.26,1.26,0,0,0-.06.21c-.32,1-1.5,5.53.48,8.81a6.54,6.54,0,0,0,2.39,2.3,6,6,0,0,0,.67.34,4.79,4.79,0,0,0,.65.25,5.73,5.73,0,0,0,1.21.29,6,6,0,0,0,1.11,0l.3,0,.33-.05.33-.07a3.36,3.36,0,0,0,.48-.14,2.74,2.74,0,0,0,.4-.15l.67-.32a8.18,8.18,0,0,0,1.65-1.21,9.77,9.77,0,0,0,1.57-1.84l.43-.38,1.07-.94.1.23s0,0,0,0a2,2,0,0,1,.09.3c.11.61.24,1.21.38,1.8,0,.15.06.29.1.45a40.24,40.24,0,0,0,4,10.06c.09.18.18.34.27.49h0a3.37,3.37,0,0,1,.23.4c.25.44.52.88.79,1.31h0s0,0,0,0l0,0,.07.12A67.35,67.35,0,0,0,61.13,147a23.68,23.68,0,0,0,6.83.89,13.41,13.41,0,0,0,3.64-.57c.2-.48.36-1,.5-1.41.09-.24.16-.46.24-.67a.19.19,0,0,0,0-.07l.59-1.48h0a2,2,0,0,1,1.82-.79,2.28,2.28,0,0,1,.67.17,5.71,5.71,0,0,1,1.08.59l.26.18a4.49,4.49,0,0,1,.56,1.14c.06.17.12.34.19.5a5.77,5.77,0,0,0,.85,1.95,21.72,21.72,0,0,0,5,.78,26.63,26.63,0,0,0,5.61-.28c5.25-5,8.85-16.71,9.12-17.62a.11.11,0,0,0,0,0,0,0,0,0,0,0,0c.43-1.1.85-2.21,1.27-3.33.11-.29.24-.57.37-.85,0,0,0,0,0,0a23.65,23.65,0,0,0,2.54,2.81h0l.16.15.16.15a5.92,5.92,0,0,0,.49.41c.17.13.33.24.49.34a4.4,4.4,0,0,0,.51.29l.46.2a6.5,6.5,0,0,1-1.9-1.24l-.32-.3a7.12,7.12,0,0,1,.55-1.27s0,0,0,0c.09-.17.19-.35.31-.54.15.26.31.51.47.75a10.51,10.51,0,0,0,1.79,2,8.77,8.77,0,0,0,1.39,1,3.32,3.32,0,0,0,.46,0l.33,0h0l.1,0h.06l.1,0H108l.28-.06.12,0,.13,0,.2-.07.46-.19.26-.13h0l.23-.13a6.71,6.71,0,0,0,1.72-1.47,26.39,26.39,0,0,0-2.06-7.59A35.93,35.93,0,0,1,113.08,118.89Zm-47.7,30.94h0s0,0,0,0l.14,0h0Zm0,0h0s0,0,0,0l.14,0h0ZM48.16,101.9l-.06,0h.08Z"/><path class="cls-4" d="M91.14,129.26a10.38,10.38,0,0,1-10.35,10.36H69.09a10.37,10.37,0,0,1-9.88-7.3,10,10,0,0,1-.47-3.06,10.28,10.28,0,0,1,2.35-6.54c.06-.07.11-.14.18-.21A29.22,29.22,0,0,0,74.77,126a25.94,25.94,0,0,0,14.15-3.16l.35.48a10.17,10.17,0,0,1,1.87,5.91Z"/><path class="cls-5" d="M91.14,129.26a10.38,10.38,0,0,1-10.35,10.36H69.09a10.37,10.37,0,0,1-9.88-7.3,20.62,20.62,0,0,0,13.84,5.12c9.31-.13,14.09-1.25,17.85-10.41A10.29,10.29,0,0,1,91.14,129.26Z"/><path class="cls-1" d="M47.78,128.8a7.27,7.27,0,0,1-3.21,1.8l-.33.07-.33.05-.3,0a6,6,0,0,1-1.11,0,5.73,5.73,0,0,1-1.21-.29,8.46,8.46,0,0,1-1.28-.59,6.54,6.54,0,0,1-2.39-2.3c2,.44,4.89.37,8.05-2.42a11.35,11.35,0,0,1,2.1,3.67S47.78,128.79,47.78,128.8Z"/><path class="cls-6" d="M40,129.83a8.46,8.46,0,0,0,1.28.59,6.32,6.32,0,0,1-1.32-.59,6.54,6.54,0,0,1-2.39-2.3c-2-3.28-.8-7.79-.48-8.81a27.87,27.87,0,0,1,8.57,6.39c-3.16,2.79-6.1,2.86-8.05,2.42A6.54,6.54,0,0,0,40,129.83Z"/><path class="cls-6" d="M113.36,124.38a9.14,9.14,0,0,1-1.92,4.26h0a6.53,6.53,0,0,1-1.72,1.44l-.23.13h0l-.26.13-.46.19-.2.07-.13,0-.12,0-.28.06H108l-.1,0h-.06l-.1,0h0l-.33,0a3.32,3.32,0,0,1-.46,0h-.34l-.35,0-.25,0a3.73,3.73,0,0,1-.44-.08l-.34-.08c-.2-.06-.41-.13-.61-.21h0a4,4,0,0,1-.42-.2,4.4,4.4,0,0,1-.51-.29c-.16-.1-.32-.21-.49-.34a5.92,5.92,0,0,1-.49-.41l-.16-.15-.16-.15h0c0-.07,0-.15.08-.24l.12-.29c.09-.22.21-.48.36-.77l.31-.52a10.58,10.58,0,0,1,.76-1.11,20,20,0,0,1,3.58-3.59c.56-.44,1.18-.89,1.86-1.34a35.93,35.93,0,0,1,3.71-2.14l0,0A13.68,13.68,0,0,1,113.36,124.38Z"/><path class="cls-2" d="M76.53,143.64a5.71,5.71,0,0,0-1.08-.59,2.28,2.28,0,0,0-.67-.17,2,2,0,0,0-1.82.79h0l-.59,1.48a.19.19,0,0,1,0,.07c-.08.21-.15.43-.24.67-.14.45-.3.93-.5,1.41a13.41,13.41,0,0,1-3.64.57,13.47,13.47,0,0,0,2.16-3.38C71.24,141.82,75.16,141.9,76.53,143.64Z"/><path class="cls-2" d="M110.12,111.5l-.35-.56a.61.61,0,0,0-.07-.18l-.33-.46-.05-.08h0a37.09,37.09,0,0,0-7.56-8.42,32.8,32.8,0,0,1-2.46,8.87A20,20,0,0,1,109.37,121a35.93,35.93,0,0,1,3.71-2.14A28.25,28.25,0,0,0,110.12,111.5Z"/><path class="cls-2" d="M104.57,130.44l-.46-.2a4.4,4.4,0,0,1-.51-.29c-.16-.1-.32-.21-.49-.34a5.92,5.92,0,0,1-.49-.41l-.16-.15-.16-.15h0a23.65,23.65,0,0,1-2.54-2.81s0,0,0,0c-.13.28-.26.56-.37.85-.42,1.12-.84,2.23-1.27,3.33a0,0,0,0,1,0,0,.11.11,0,0,1,0,0c-.27.91-3.87,12.57-9.12,17.62a26.63,26.63,0,0,1-5.61.28c3-2.91,7.68-8.61,11.21-18.41a77.37,77.37,0,0,0,3.19-10.34,33.63,33.63,0,0,0,5.12,8.15.08.08,0,0,0,0,0,7.12,7.12,0,0,0-.55,1.27l.32.3A6.5,6.5,0,0,0,104.57,130.44Z"/><path class="cls-2" d="M50.34,118.91a22,22,0,0,1-4.67,6.2,11.35,11.35,0,0,1,2.1,3.67s0,0,0,0a10,10,0,0,0,1.14-1.23l.85-.75a14.62,14.62,0,0,1,1.18-.95,2,2,0,0,1,.09.3c.11.61.24,1.21.38,1.8,0,.15.06.29.1.45a40.24,40.24,0,0,0,4,10.06c-2-4-4.51-16.33-5-19C50.38,119.1,50.34,118.91,50.34,118.91Z"/><path class="cls-6" d="M61.13,147l.48.6a7,7,0,0,0,.88.91A5.75,5.75,0,0,0,65.4,150h.53l.49-.47A19,19,0,0,0,68,147.88,23.68,23.68,0,0,1,61.13,147Zm4.25,2.84h0s0,0,0,0l.14,0h0Z"/><path class="cls-6" d="M65.38,149.83l.18,0h0l-.14,0c-.06,0-.06,0,0,0Z"/><path class="cls-1" d="M71.6,147.31A3.88,3.88,0,0,1,68.81,150H65.93l.49-.47A19,19,0,0,0,68,147.88,13.41,13.41,0,0,0,71.6,147.31Z"/><path class="cls-1" d="M89,147.91A8.31,8.31,0,0,1,85.71,150h-3.3a6.71,6.71,0,0,1-.83-.25c.48-.39,1.08-.9,1.76-1.56A26.63,26.63,0,0,0,89,147.91Z"/><path class="cls-6" d="M83.34,148.19c-.68.66-1.28,1.17-1.76,1.56a6.4,6.4,0,0,1-.84-.34c-.17-.08-.33-.17-.49-.26a3,3,0,0,1-.42-.27,5.27,5.27,0,0,1-1.44-1.47A21.72,21.72,0,0,0,83.34,148.19Z"/><path class="cls-6" d="M43.51,113a6.17,6.17,0,0,1,.43.46l-.24-.3a1.86,1.86,0,0,1,.22.35l-.16-.36a1.71,1.71,0,0,1,.09.3l-.06-.4a.54.54,0,0,1,0,.18l.05-.4a.73.73,0,0,1-.05.2l.15-.36a.88.88,0,0,1-.12.21l.24-.3-.15.14.31-.24-.12.07.35-.15-.13,0,.4,0h-.13l.4.06-.12,0,.36.16a.78.78,0,0,1-.15-.1l.3.24a1.51,1.51,0,0,1-.21-.23l.23.3a1.92,1.92,0,0,1-.29-.5l.15.36a1.86,1.86,0,0,1-.15-.56l0,.39a1.88,1.88,0,0,1,0-.58l-.06.4c0-.07,0-.14,0-.2l-2.2.89a2.54,2.54,0,0,0,1.2.36,2.73,2.73,0,0,0,.64-.07,2.63,2.63,0,0,0,.59-.22,1.18,1.18,0,0,0,.42-.38,1.26,1.26,0,0,0,.27-.51A1.73,1.73,0,0,0,45.9,111a1.5,1.5,0,0,0-.89-.69l-.4,0a1.57,1.57,0,0,0-.76.2l0,0,.36-.15-.23.06.4-.06a1.22,1.22,0,0,1-.27,0l.39.05a1,1,0,0,1-.23-.06l.36.15-.15-.08a1.52,1.52,0,0,0-2.2.9,3.77,3.77,0,0,0-.11.94c0,.22,0,.43.07.64a2.82,2.82,0,0,0,.07.31,1.34,1.34,0,0,0,.09.26,4.41,4.41,0,0,0,.26.59,2.93,2.93,0,0,0,.57.74,2.12,2.12,0,0,0,1.44.63,1.54,1.54,0,0,0,.6-.09,2.23,2.23,0,0,0,1.45-1.5,2.31,2.31,0,0,0,0-1.25,3.22,3.22,0,0,0-.24-.61,1.67,1.67,0,0,0-.18-.28,6.26,6.26,0,0,0-.67-.78,1.56,1.56,0,0,0-1.06-.44,1.5,1.5,0,0,0-1.06.44,1.46,1.46,0,0,0-.44,1.06,1.56,1.56,0,0,0,.44,1.06Z"/><path class="cls-6" d="M45.75,123.26a1,1,0,0,0,0-2,1,1,0,0,0,0,2Z"/><path class="cls-6" d="M53.12,121.79q.69.73,1.32,1.53l-.16-.2c.17.22.34.44.5.67a4.93,4.93,0,0,1,.44.68l-.1-.24a.45.45,0,0,1,0,.11l0-.27v.05l0-.26v0l.1-.24a.09.09,0,0,1,0,.06l.16-.2-.06,0,.21-.16-.07,0,.24-.11a.23.23,0,0,1-.11,0l.27,0a.74.74,0,0,1-.21,0l.27,0a1.42,1.42,0,0,1-.4-.12l.24.11a2.43,2.43,0,0,1-.44-.26l.21.16a2.78,2.78,0,0,1-.42-.42l.16.2a2.62,2.62,0,0,1-.3-.51l.1.23a2.19,2.19,0,0,1-.16-.57l0,.27a2.09,2.09,0,0,1,0-.5l0,.26c0-.11,0-.22.07-.33a1,1,0,0,0-.7-1.23,1,1,0,0,0-1.23.7,3.25,3.25,0,0,0,1.37,3.54,1.91,1.91,0,0,0,2.35.06,1.24,1.24,0,0,0,.32-1.15,1.92,1.92,0,0,0-.3-.63c-.19-.28-.38-.55-.58-.82a20.83,20.83,0,0,0-1.66-2,1,1,0,0,0-1.41,1.41Z"/><path class="cls-6" d="M58.06,138.39a7.49,7.49,0,0,1,.74.75c.05.06.1.14.16.2s-.14-.19,0-.05l.06.08c.11.15.21.31.31.46l.24.43.1.21.06.12c0,.06.07.25,0,0,0,.14.11.28.16.43s.09.36.15.53,0-.12,0-.15,0,.08,0-.11a.74.74,0,0,1,.14-.22c.15-.17.18-.13.11-.09.25-.13.2-.07.12,0l.14,0h-.1c-.16,0,.22.05.1,0l-.16,0c-.16,0,.12.05.1.05l-.08,0-.19-.12-.08-.06s.17.14.07.05a3,3,0,0,1-.32-.3c-.06-.06-.18-.26,0,0l-.13-.18a2.82,2.82,0,0,1-.21-.38l0-.08c0-.11.08.21,0,.09a2.25,2.25,0,0,1-.08-.24c-.05-.16-.07-.32-.11-.48,0,0,0,.26,0,.1a.41.41,0,0,1,0-.11,2.44,2.44,0,0,1,0-.27,1.5,1.5,0,0,1,0-.22c0-.17,0,.09,0,.1a.59.59,0,0,0,0-.13,3.65,3.65,0,0,1,.15-.5,1,1,0,0,0-1.93-.54,4.23,4.23,0,0,0,1.2,4.57,2.84,2.84,0,0,0,1.21.67,1.53,1.53,0,0,0,1.83-2.19,8.38,8.38,0,0,0-.53-1.33A7.66,7.66,0,0,0,59.47,137a1,1,0,0,0-1.41,1.41Z"/><path class="cls-6" d="M67.94,144.14a1,1,0,0,0,0-2,1,1,0,0,0,0,2Z"/><path class="cls-6" d="M82.61,144.39q.84-.51,1.71-.93l.86-.41.21-.09c.1,0,.2-.09,0,0l.5-.2L84.7,142l0,.17c.06.19,0-.23,0,0v.17c0,.18,0-.18,0-.06a2.12,2.12,0,0,0-.09.31c.06-.13.08-.17,0-.1a.3.3,0,0,1,0,.08l-.09.16c-.09.14.11-.13,0,0l-.12.13s-.12.09-.11.11.13-.11,0,0l0,0c-.06,0-.29.21-.35.19s.2-.08,0,0l-.19.06c-.12,0-.25,0-.36.07H82.8c-.19,0,.25.05.06,0l-.28-.07c-.21-.06.12.07,0,0l-.11-.06-.06,0c-.07,0,0,0,.1.09l-.1-.11.1.13s0-.05,0-.08.08.24,0,.05a1,1,0,0,0-1.93.53c.37,1.61,2.47,1.72,3.76,1.37a3.36,3.36,0,0,0,1.93-1.34,2.62,2.62,0,0,0,.32-2.24,1,1,0,0,0-1.23-.7,26.16,26.16,0,0,0-3.8,1.85,1,1,0,1,0,1,1.73Z"/><path class="cls-6" d="M93.91,125a.94.94,0,0,1,0-.16l0,.26a1.7,1.7,0,0,1,0-.45l0,.26a2.44,2.44,0,0,1,.13-.44l-.11.24a2.6,2.6,0,0,1,.21-.36l-.16.21a1.66,1.66,0,0,1,.26-.27l-.2.16a.67.67,0,0,1,.14-.09l-.24.11.15,0-.26,0h.07l-.27,0,.07,0-.24-.1s0,0,.06,0l-.2-.16s0,0,0,.06l-.15-.21v0l-.1-.24a.2.2,0,0,1,0,.11l0-.27a2.43,2.43,0,0,1,0,.47l0,.55c0,.34,0,.68-.07,1l0-.26a1.58,1.58,0,0,1-.09.36l.1-.24a1.62,1.62,0,0,1-.1.18l.15-.21a.52.52,0,0,1-.1.11l.2-.16a.21.21,0,0,1-.1.06l.24-.1a.42.42,0,0,1-.16,0l.27,0h-.16l.27,0a.27.27,0,0,1-.12,0l.24.11-.09-.06.2.15a.34.34,0,0,1-.06-.06l.16.2,0,0,.1.23a.08.08,0,0,1,0,0,1,1,0,1,0-1.93.53,1.46,1.46,0,0,0,2.17.77,1.78,1.78,0,0,0,.75-1,5,5,0,0,0,.12-1l.06-.94a2,2,0,0,0-.14-1.19,1.29,1.29,0,0,0-1.51-.58,2.16,2.16,0,0,0-1,.82,2.7,2.7,0,0,0-.39,2.19,1,1,0,0,0,1.23.7,1,1,0,0,0,.7-1.23Z"/><path class="cls-6" d="M99.64,117.21l3.15,1.6c.48.24,1,.48,1.44.75.12.06-.13-.12,0,0s-.07-.1-.08-.13c-.08-.21,0-.27,0-.5,0,0,.14-.15,0,0,.17-.14,0,0-.1.06l-.12.06.1,0-.13,0a1.24,1.24,0,0,0-.29.06s.25,0,.05,0h-.14a1.51,1.51,0,0,1-.3,0c-.21,0,0,0,0,0s-.2,0-.22,0l-.28-.08c-.07,0-.16,0,0,0,0,0-.11,0-.14-.06a2.26,2.26,0,0,1-.26-.16.6.6,0,0,1-.13-.09c-.22-.15.14.14-.06,0s-.31-.29-.46-.46l-.09-.12-.24-.33q-.18-.29-.33-.57c-.06-.11-.11-.22-.18-.33v0a.62.62,0,0,1-.16.76.42.42,0,0,1-.25.18l.06,0c-.31,0,0,0,.15,0h.07l.12,0,.33.09.14,0c.12,0-.16-.08,0,0s.22.11.33.18.11.06.13.09l0,0,.08.07c.1.09.18.18.27.27s.14.14,0,0a.91.91,0,0,1,.13.19l.16-1.22c-.15.16.17-.08,0,0l.11,0h0c.07,0,.08,0,0,0s0,0,.09,0c-.18,0,.16.09,0,0a1,1,0,0,0-1.37.36,1,1,0,0,0,.36,1.37,1.75,1.75,0,0,0,2.2-.27,1,1,0,0,0,.16-1.21,4.07,4.07,0,0,0-3.51-1.9,1.81,1.81,0,0,0-1.11.41,1.36,1.36,0,0,0-.19,1.67,8.55,8.55,0,0,0,1.07,1.66,4.12,4.12,0,0,0,3.47,1.63,3,3,0,0,0,2-.88,1.5,1.5,0,0,0,.36-1.37,1.82,1.82,0,0,0-.88-1c-.71-.42-1.48-.76-2.22-1.13l-2.28-1.16a1,1,0,0,0-1.37.36,1,1,0,0,0,.36,1.37Z"/><path class="cls-1" d="M103.21,108.84l1.35,1.72-.16-.21a2,2,0,0,1,.17.27l-.1-.24a1.21,1.21,0,0,1,0,.18l0-.26a.09.09,0,0,1,0,.07l0-.27a.29.29,0,0,1,0,.1l.1-.24a.09.09,0,0,1,0,.06l.16-.2a.12.12,0,0,1,0,.05l.2-.16-.08.05.24-.1-.14,0,.27,0h-.27l.27,0a1.56,1.56,0,0,1-.37-.1l.24.1a1.63,1.63,0,0,1-.38-.22l.21.16a1.82,1.82,0,0,1-.34-.34l.16.2a1.76,1.76,0,0,1-.26-.44l.1.24a1.76,1.76,0,0,1-.12-.45l0,.26a2.8,2.8,0,0,1,0-.41l0,.27a1.54,1.54,0,0,1,.09-.37,1,1,0,0,0-.1-.77,1.07,1.07,0,0,0-.6-.46,1.09,1.09,0,0,0-.77.1l-.2.16a1.1,1.1,0,0,0-.26.44,2.52,2.52,0,0,0,0,1.65,3,3,0,0,0,.36.74,3.25,3.25,0,0,0,.73.75,2.42,2.42,0,0,0,1.8.43,1.31,1.31,0,0,0,1-1.25,2,2,0,0,0-.54-1.27l-1.32-1.67a1,1,0,0,0-.7-.3,1,1,0,0,0-.71.3.94.94,0,0,0-.29.7l0,.27a.94.94,0,0,0,.26.44Z"/><path class="cls-1" d="M113.36,124.38a9.14,9.14,0,0,1-1.92,4.26h0a6.53,6.53,0,0,1-1.72,1.44l-.23.13h0l-.26.13-.46.19-.2.07-.13,0-.12,0-.28.06H108l-.1,0h-.06l-.1,0h0l-.33,0a3.32,3.32,0,0,1-.46,0h-.34l-.35,0-.25,0a3.73,3.73,0,0,1-.44-.08l-.34-.08c-.2-.06-.41-.13-.61-.21h0a4,4,0,0,1-.42-.2,4.4,4.4,0,0,1-.51-.29c-.16-.1-.32-.21-.49-.34a5.92,5.92,0,0,1-.49-.41l-.16-.15-.16-.15h0c0-.07,0-.15.08-.24l.12-.29.36-.77s6.59,2.65,6.51-6.56a35.93,35.93,0,0,1,3.71-2.14l0,0A13.68,13.68,0,0,1,113.36,124.38Z"/><path class="cls-1" d="M112,138.79s-11.7.79-2.37-4.11l.75-.44Z"/><path class="cls-7" d="M35,98.55a3.48,3.48,0,0,1,.12-1.13,1.54,1.54,0,0,1,1.06-1.1,1.43,1.43,0,0,1,1.38.58,3.78,3.78,0,0,1,.52.72,1.52,1.52,0,0,0-.22.08,2.2,2.2,0,0,0-.35-.48,1.22,1.22,0,0,0-1.18-.48c-.37.11-.61.44-.73,1a2.89,2.89,0,0,0-.08.65Z"/><path class="cls-8" d="M49.26,83.88c-1.25.4-2.5.74-3.73,1a34,34,0,0,1-19.35-1Q21.64,94.64,33.08,99c.65-.15,1.3-.31,1.93-.48a3.47,3.47,0,0,1,.13-1.13,1.52,1.52,0,0,1,1-1.1,1.41,1.41,0,0,1,1.38.58,3.82,3.82,0,0,1,.53.72c.62-.21,1.24-.43,1.85-.67a43.24,43.24,0,0,0,9.89-5.35ZM32.93,96.77Q24.7,93.6,28,85.88a29.92,29.92,0,0,0,16.43,1.06l-.35,1Q41.28,95.51,32.93,96.77Z"/><path class="cls-9" d="M28,85.88q-3.26,7.73,5,10.89Q41.29,95.51,44,87.89l.35-1A29.92,29.92,0,0,1,28,85.88Zm15.56,2.51a13,13,0,0,1-10.16,7q-5-1.57-5.57-5.24a8.79,8.79,0,0,1,.35-3.74A29.83,29.83,0,0,0,44,87.49Z"/><path class="cls-10" d="M28.13,86.36A29.86,29.86,0,0,0,44,87.49l-.48.9a12.93,12.93,0,0,1-10.16,7c-3.33-1-5.18-2.8-5.57-5.24A8.79,8.79,0,0,1,28.13,86.36Z"/><path class="cls-2" d="M49.84,91.6A43.24,43.24,0,0,1,40,97a28.39,28.39,0,0,0,5.58-12.06c1.23-.27,2.48-.61,3.73-1Z"/><path class="cls-11" d="M91.81,75q-6.54,1.4-18.9.15l1.27-5.71q20.66.45,20-8.23-.33-3.09,1.12-1.35a23.61,23.61,0,0,1,3.14,5.48Q101.39,73,91.81,75Z"/><path class="cls-11" d="M77.1,75c-3,.3-5.8.49-8.3.55q-12.64.34-16.38-3.33-4-3.93,2.25-12.51,1.45-1.74,1.12,1.35-.39,5.53,7.84,7.34a37.73,37.73,0,0,0,5.64.77q3,.2,6.56.12Z"/><path class="cls-12" d="M91.81,75,90.75,72.2s7.37-.5,7.73-6.87Q101.39,73,91.81,75Z"/><path class="cls-13" d="M69.9,75l-1.1.55q-12.64.34-16.38-3.33a11.31,11.31,0,0,0,11.21-3.82,37.73,37.73,0,0,0,5.64.77A27.67,27.67,0,0,1,69.9,75Z"/><path class="cls-8" d="M100,88.39,99.8,91.6c.51.37,1,.73,1.56,1.07C100.92,91.26,100.43,89.67,100,88.39Zm23.42-4.51A33.32,33.32,0,0,1,107,85.43a25.14,25.14,0,0,1,1.82,2,29.22,29.22,0,0,0,12.82-1.59q3.25,7.73-5,10.89a17.2,17.2,0,0,1-2.93-.7c1.44,1.37,3.89,1.49,6.67,1Q127.1,92.53,123.46,83.88Z"/><path class="cls-9" d="M121.68,85.88a29.22,29.22,0,0,1-12.82,1.59c.13.16.26.33.38.5.38,0,.75.06,1.13.07h.28c.71,0,1.41,0,2.11,0l.81,0c.51,0,1-.08,1.53-.14l.92-.13c.31,0,.61-.09.91-.15.49-.08,1-.19,1.46-.31.32-.07.64-.15,1-.24s.64-.17,1-.27.81-.26,1.21-.4a8.79,8.79,0,0,1,.35,3.74q-.57,3.66-5.57,5.24a13,13,0,0,1-1.41-.25l-.32-.07-.5-.13a2.07,2.07,0,0,1-.33-.1,3,3,0,0,1-.39-.13l-.59-.22a3.93,3.93,0,0,0,1,1.63h0a17.2,17.2,0,0,0,2.93.7Q124.93,93.6,121.68,85.88Z"/><path class="cls-14" d="M113.77,96.07a12.63,12.63,0,0,1-8.17-8.18l-.36-1a31,31,0,0,0,3.62.53c.13.16.26.33.38.5l-.35,0c-.18,0-.36,0-.54-.06s-.6-.06-.9-.11l-.51-.07c-.43-.06-.86-.14-1.29-.22l.47.9c.14.25.28.5.44.74s.3.48.46.7.32.45.49.66.34.42.52.62a7.41,7.41,0,0,0,.54.58,11.8,11.8,0,0,0,1.73,1.44,2.2,2.2,0,0,0,.25.17l0,0c.25.17.52.33.79.48l.09,0,.37.19a3.39,3.39,0,0,0,.39.18l.52.22A3.93,3.93,0,0,0,113.77,96.07Z"/><path class="cls-10" d="M121.85,90.1q-.57,3.66-5.57,5.24a13,13,0,0,1-1.41-.25l-.32-.07-.5-.13a2.07,2.07,0,0,1-.33-.1,3,3,0,0,1-.39-.13l-.59-.22a23.23,23.23,0,0,0-3.5-6.47c.38,0,.75.06,1.13.07h.28c.71,0,1.41,0,2.11,0,.27,0,.54,0,.81,0,.51,0,1-.08,1.53-.14a9.26,9.26,0,0,0,.92-.13c.31,0,.61-.09.91-.15.49-.08,1-.19,1.46-.31.32-.06.63-.15,1-.24s.64-.17,1-.27.81-.26,1.21-.4A8.79,8.79,0,0,1,121.85,90.1Z"/><path class="cls-3" d="M104.7,97.3a34.65,34.65,0,0,0-4.5-14.75A24.57,24.57,0,0,0,96.3,77h0a29.46,29.46,0,0,0-19.82-9.65c-.56-.06-1.13-.09-1.71-.11a25.77,25.77,0,0,0-10.95,2,30.1,30.1,0,0,0-8.55,5.5,25.34,25.34,0,0,0-2.46,2.39,30.72,30.72,0,0,0-2.89,3.61c-.12.18-.26.36-.38.53v0a22.36,22.36,0,0,0-2.89,6.29c0,.08,0,.15,0,.22a32.21,32.21,0,0,0-1.47,9.48q-.23,13.38,8.64,21.62T75.42,127a33.69,33.69,0,0,0,11-1.76l.93-.34a30,30,0,0,0,9.76-6.06q7.77-7.08,7.77-18.24A31.52,31.52,0,0,0,104.7,97.3ZM83.12,73.68a9.5,9.5,0,0,1,10.94,6.85,8.71,8.71,0,0,1-.84,6.22,67.81,67.81,0,0,0-9.73-12.67l-.37-.39Zm13.15,41.53a24.25,24.25,0,0,1-3.5,4.1l-.09.08a24.23,24.23,0,0,1-9.11,5.43l-3.53.82-2.24.27c-.77.07-1.56.1-2.37.1-.64,0-1.28,0-1.9-.07a27.9,27.9,0,0,1-5.41-.87,24.52,24.52,0,0,1-10.61-6,22.12,22.12,0,0,1-7.57-16.83v-.33c0-.48,0-.93.07-1.38,0,0-.27-5.45,7.27-9,.49-.23,1-.45,1.56-.65h0a37.75,37.75,0,0,1,10.61-2.12c.51,0,1-.07,1.58-.09,1.12-.06,2.31-.08,3.55-.08h.82c1.25,0,2.43.06,3.55.12h0l1.5.12a37,37,0,0,1,11,2.41l.12,0,.33.14.15.07.36.16.42.21.13.06h0A17.22,17.22,0,0,1,96,94l.21.18.21.18c.12.12.25.23.36.35a7.08,7.08,0,0,1,.54.57l.21.23c.19.23.37.47.53.69a1.7,1.7,0,0,1,.15.22l.11.19a8.88,8.88,0,0,1,.84,1.65s0,0,0,0a15.46,15.46,0,0,1,.46,2.29c0,.12,0,.23,0,.35a22.68,22.68,0,0,1,.13,2.39A20.84,20.84,0,0,1,96.27,115.21Z"/><path class="cls-2" d="M104.88,100.63a28.88,28.88,0,0,1-.35,4.53,22.88,22.88,0,0,1-7.42,13.71,30,30,0,0,1-9.76,6.06,33.62,33.62,0,0,0,5.33-5.54l.09-.08a24.25,24.25,0,0,0,3.5-4.1,20.84,20.84,0,0,0,3.53-11.93,22.68,22.68,0,0,0-.13-2.39c0-.12,0-.23,0-.35a15.46,15.46,0,0,0-.46-2.29s0,0,0,0a8.88,8.88,0,0,0-.84-1.65l-.11-.19a1.7,1.7,0,0,0-.15-.22c-.16-.22-.34-.46-.53-.69l-.21-.23a7.08,7.08,0,0,0-.54-.57s0,0,0,0a40.72,40.72,0,0,0-3.24-7.32A81.57,81.57,0,0,0,83.12,73.69h0L83,73.52c-1.93-2-4.08-4.07-6.48-6.18A29.46,29.46,0,0,1,96.3,77h0a24.57,24.57,0,0,1,3.9,5.55,34.65,34.65,0,0,1,4.5,14.75c.07.66.12,1.31.15,2C104.87,99.72,104.88,100.18,104.88,100.63Z"/><path class="cls-8" d="M65.36,68.78a1.57,1.57,0,0,1-.25-.77,6.5,6.5,0,0,1-.06-1.26c0-.44.19-.52.48-.25a4.43,4.43,0,0,1,.81,1.12,4.39,4.39,0,0,1,.46,1.31q.09.58-.15.72c-.17.09-.39,0-.69-.28Z"/><path class="cls-7" d="M82.37,68.69a1.58,1.58,0,0,1,.56-.58A5.79,5.79,0,0,1,84,67.47c.4-.19.55-.09.44.3A4.05,4.05,0,0,1,83.85,69a4.25,4.25,0,0,1-.93,1c-.32.24-.56.31-.71.21s-.18-.35-.07-.74S82.32,68.84,82.37,68.69Z"/><path class="cls-7" d="M81.8,68.61a1.46,1.46,0,0,1,.08-.81,5.73,5.73,0,0,1,.47-1.17q.3-.59.54,0A4.25,4.25,0,0,1,83.16,68a4.16,4.16,0,0,1-.11,1.37c-.11.39-.26.59-.44.6s-.35-.17-.51-.54S81.85,68.76,81.8,68.61Z"/><path class="cls-10" d="M89.69,81.77A8.23,8.23,0,0,1,81.47,90H68.54a8.25,8.25,0,0,1-8.22-8.22,8.26,8.26,0,0,1,8.22-8.23H81.47a9.51,9.51,0,0,1,1.31.1A8.27,8.27,0,0,1,89.69,81.77Z"/><path class="cls-6" d="M68.58,70.51a1.62,1.62,0,0,1-.72,1.39,8.07,8.07,0,0,1-3.41,1.79,1.41,1.41,0,0,0-.64.27,2,2,0,0,0-.42.89,3.65,3.65,0,0,1-2.34,1.87,14.9,14.9,0,0,1-6.94.85,2.76,2.76,0,0,1-.9-.22,1.56,1.56,0,0,1-.4-.27,25.34,25.34,0,0,1,2.46-2.39,30.1,30.1,0,0,1,8.55-5.5c1,.14,2.07.1,3.09.25C67.61,69.54,68.46,69.81,68.58,70.51Z"/><path class="cls-1" d="M60.89,71.63a1.92,1.92,0,0,0-1.62,3,1.94,1.94,0,0,0,1.62.87,1.92,1.92,0,0,0,1.61-.88,1.89,1.89,0,0,0,.3-1A1.91,1.91,0,0,0,60.89,71.63Z"/><path class="cls-1" d="M88.71,71.63a1.92,1.92,0,0,0-1.62,3,1.94,1.94,0,0,0,1.62.87,1.92,1.92,0,0,0,1.61-.88,1.89,1.89,0,0,0,.3-1A1.91,1.91,0,0,0,88.71,71.63Z"/><path class="cls-7" d="M120.45,97a18.37,18.37,0,0,1-3.89,2,46.08,46.08,0,0,1-15.2-6.36c-.44-1.41-.93-3-1.32-4.28l.34-4.51A40.94,40.94,0,0,0,107,85.43a25.14,25.14,0,0,1,1.82,2,31,31,0,0,1-3.62-.53l.36,1a12.63,12.63,0,0,0,8.17,8.18h0C115.22,97.44,117.67,97.56,120.45,97Z"/><path class="cls-9" d="M112.74,94.44l-.52-.22a3.39,3.39,0,0,1-.39-.18l-.37-.19-.09,0c-.27-.15-.54-.31-.79-.48l0,0a2.2,2.2,0,0,1-.25-.17,11.8,11.8,0,0,1-1.73-1.44c-.19-.19-.37-.38-.54-.58s-.35-.4-.52-.62-.33-.43-.49-.66-.31-.46-.46-.7-.3-.49-.44-.74l-.47-.9c.43.08.86.16,1.29.22l.51.07c.3,0,.6.08.9.11s.36,0,.54.06l.35,0A23.23,23.23,0,0,1,112.74,94.44Z"/><path class="cls-9" d="M89.69,81.77A8.23,8.23,0,0,1,81.47,90H77.1s5.5-2,7.1-6.25c1.3-3.43-.64-8.36-1.42-10.1A8.27,8.27,0,0,1,89.69,81.77Z"/><circle class="cls-15" cx="84.19" cy="80.86" r="2.88"/><circle class="cls-15" cx="65.63" cy="80.86" r="2.88"/><path class="cls-6" d="M48.92,91a2.75,2.75,0,0,0,2.76,0,7,7,0,0,0,1-.84c1.18-1.1,2.72-1.85,3.6-3.2a1.58,1.58,0,0,0,.31-.81A1.55,1.55,0,0,0,55.88,85a3.73,3.73,0,0,0-4.05-.35A6.89,6.89,0,0,0,49.61,87a31,31,0,0,0-1.69,2.88A2.18,2.18,0,0,0,48.92,91Z"/><path class="cls-1" d="M94.65,80.9a3.5,3.5,0,0,1,2.56.39A4.67,4.67,0,0,1,99,82.81a3.26,3.26,0,0,1,.59,2.24,1.23,1.23,0,0,1-.26.66,1.27,1.27,0,0,1-.52.32,2.71,2.71,0,0,1-1.86.1,2.56,2.56,0,0,1-1.45-1.42,5.2,5.2,0,0,1-.38-2,2.7,2.7,0,0,1-.52,0,1,1,0,0,1-.47-.14.94.94,0,0,1-.43-.51C93.58,81.52,94.18,81,94.65,80.9Z"/><path class="cls-6" d="M34.42,86.92a.6.6,0,0,1-.46.16,6.26,6.26,0,0,1-3.57-.94c-.12-.08-.27-.21-.22-.35s.26-.17.42-.15c.73.08,1.46.2,2.18.25.52,0,.92-.09,1.37.27C34.34,86.32,34.63,86.66,34.42,86.92Z"/><path class="cls-1" d="M104.88,100.63a28.88,28.88,0,0,1-.35,4.53l-.58-.06a.9.9,0,0,1-.64-.23c-.18-.22-.12-.55-.11-.85a5.31,5.31,0,0,0-.61-1.81,1.59,1.59,0,0,1,.18-1.79,2.27,2.27,0,0,1,.66-.33,5.43,5.43,0,0,0,1.14-.61,2.69,2.69,0,0,0,.28-.22C104.87,99.72,104.88,100.18,104.88,100.63Z"/></svg>