<svg id="Camada_1" data-name="Camada 1" xmlns="http://www.w3.org/2000/svg" viewBox="0 0 150 150"><defs><style>.cls-1{fill:#efc3b9;}.cls-2{fill:#f2dcc4;}.cls-3{fill:#fff5e1;}.cls-4{fill:#efd2af;}.cls-5{fill:#f7fff0;}.cls-6{fill:#fff;}.cls-7{fill:#ba8e83;}.cls-8{fill:#683d33;}.cls-9{opacity:0.32;}.cls-10{fill:#6d90c6;}.cls-11{fill:#ae8dd3;}.cls-12{fill:#8fc191;}.cls-13{fill:#ccc172;}.cls-14{fill:#cc8b75;}</style></defs><rect class="cls-1" width="150" height="150"/><rect class="cls-2" y="33.48" width="150" height="62.61"/><rect class="cls-3" x="-0.01" y="87.41" width="150" height="62.61"/><polygon class="cls-1" points="149.84 66.52 -0.1 61.97 -0.1 69.47 149.84 79.06 149.84 66.52"/><polygon class="cls-1" points="149.84 81.98 -0.1 73.17 -0.1 75.06 149.84 84.94 149.84 81.98"/><polygon class="cls-4" points="149.84 94.86 -0.1 90.31 -0.1 97.81 149.84 107.4 149.84 94.86"/><polygon class="cls-4" points="149.84 110.33 -0.1 101.52 -0.1 103.4 149.84 113.29 149.84 110.33"/><path class="cls-5" d="M45.67,23.62H0V19.56a16.92,16.92,0,0,1,5-.91s1.42-5,8.52-4.73c0,0,2.84-3.31,8.28-1.42,0,0,4.26-3.07,8,2.13,0,0,3.55-1.84,4.49,3a4.83,4.83,0,0,1,5.92,2.94S44.48,20.78,45.67,23.62Z"/><path class="cls-5" d="M150,96v10.5H115.17a16.29,16.29,0,0,1,11.36-5s1.42-5,8.51-4.73c0,0,2.84-3.31,8.28-1.42A5.36,5.36,0,0,1,150,96Z"/><path class="cls-5" d="M85.35,17.61a18.71,18.71,0,0,1,13-5.69S100,6.23,108.13,6.5c0,0,3.25-3.8,9.49-1.63,0,0,4.88-3.53,9.22,2.44,0,0,4.06-2.12,5.15,3.41a5.54,5.54,0,0,1,6.78,3.37s4.88.27,6.23,3.52Z"/><path class="cls-6" d="M32.13,139.33H0V127.42a5.46,5.46,0,0,1,4,.8c5.44-1.9,8.28,1.41,8.28,1.41,7.1-.23,8.52,4.74,8.52,4.74A16.29,16.29,0,0,1,32.13,139.33Z"/><path class="cls-7" d="M93.8,92.52l-.1-.15h0Z"/><path class="cls-8" d="M93.8,92.52l-.1-.15h0Z"/><g class="cls-9"><path class="cls-10" d="M132.9,32.21c-1.84-.17-3.66-.32-5.45-.46l-3-.22q-5.3-.36-10.34-.55-3.39-.14-6.67-.2-5.56-.11-10.8,0c-1.57,0-3.11.05-4.64.1l-2.13.07-4.16.19-2,.11-.29,0c-.94.05-1.86.11-2.77.18-2.57.17-5.08.39-7.51.64l-2.51.26-2.46.28-3,.38H65A192.2,192.2,0,0,0,28,41.4,122.8,122.8,0,0,0,0,54.77v6.69c5.73-4,15.22-9.53,29.21-14.3,22.55-7.69,61.52-14.91,120.79-7v-3h0v-3Q141.16,33,132.9,32.21ZM82.1,34.32a311,311,0,0,1,40.26.09A320.28,320.28,0,0,0,82.1,34.32Z"/><path class="cls-11" d="M27.84,35.41A122.3,122.3,0,0,0,0,48.67v6.77c5.73-4,15.22-9.53,29.21-14.3A189.78,189.78,0,0,1,65,33h.1l3-.38,2.46-.28,2.51-.26c2.43-.25,4.94-.47,7.51-.64.91-.07,1.83-.13,2.77-.18l.29,0,2-.11C87,31,88.41,31,89.82,30.92L92,30.85c1.53-.05,3.07-.08,4.64-.1q5.23-.09,10.8,0,3.28.06,6.67.2,5,.19,10.34.55l3,.22c1.79.14,3.61.29,5.45.46,5.51.51,11.21,1.14,17.12,1.93v-6C90.13,20.18,50.69,27.57,27.84,35.41Z"/><path class="cls-12" d="M28,47.38A122.48,122.48,0,0,0,0,60.75v6.68c5.73-4,15.22-9.53,29.21-14.3,11.42-3.89,27.05-7.67,47.42-9.43,1.4-.12,2.81-.23,4.25-.33,1.27-.09,2.56-.17,3.86-.24l4-.19q3.24-.13,6.62-.2c1.87,0,3.76-.05,5.69-.05q6.22,0,12.9.26c1.67.06,3.35.14,5.06.23s3.45.2,5.2.32h.2l3,.22q10.76.84,22.57,2.4v-3h0v-3C90.22,32.16,50.82,39.55,28,47.38Zm63.71-7.54q7.44-.24,15.6-.08Q99.17,39.61,91.71,39.84Z"/><path class="cls-13" d="M127.45,43.73l-3-.22h-.2c-1.75-.12-3.49-.23-5.2-.32s-3.39-.17-5.06-.23q-6.68-.27-12.9-.26c-1.93,0-3.82,0-5.69.05q-3.37.06-6.62.2l-4,.19c-1.3.07-2.59.15-3.86.24-1.44.1-2.85.21-4.25.33-20.91,1.77-37,5.67-48.66,9.68A122.42,122.42,0,0,0,0,66.74v6.65c5.73-4,15.22-9.53,29.21-14.3A182.55,182.55,0,0,1,58.51,51.9L61,51.51l2.31-.34q5.67-.81,11.93-1.38l2.66-.23c1.79-.15,3.62-.28,5.48-.38.89-.06,1.8-.11,2.71-.15l.3,0c1.78-.09,3.58-.16,5.42-.21q6.73-.21,14.07-.11h0c1.61,0,3.23.06,4.89.11,5.51.17,11.26.47,17.25.94,1.75.14,3.52.28,5.31.45l2.7.26q6.79.67,14,1.64v-6Q138.2,44.54,127.45,43.73Z"/><path class="cls-14" d="M136,50.45l-2.7-.26c-1.79-.17-3.56-.31-5.31-.45-6-.47-11.74-.77-17.25-.94-1.65,0-3.28-.08-4.89-.11h0c-4.89-.07-9.57,0-14.07.11-1.84.05-3.64.12-5.42.21l-.3,0-2.71.15c-1.86.11-3.69.24-5.48.38l-2.66.23q-6.26.57-11.93,1.38L61,51.51l-2.49.39a184.39,184.39,0,0,0-30.46,7.45A122,122,0,0,0,0,72.75V79.4c5.72-4,15.23-9.55,29.27-14.34,22.54-7.68,61.49-14.92,120.73-7v-6Q142.83,51.11,136,50.45Z"/></g></svg>