<svg id="Camada_1" data-name="Camada 1" xmlns="http://www.w3.org/2000/svg" viewBox="0 0 150 150"><defs><style>.cls-1{fill:#d6eae6;}.cls-2{fill:#b9ceab;}.cls-3{fill:#afbca0;}.cls-4{fill:#fff;}.cls-5{fill:#aa9f74;}.cls-6{opacity:0.57;}.cls-7{fill:#a59877;}.cls-8{fill:#cc977a;}.cls-9{fill:#b6c1a7;}.cls-10{fill:#acb294;}.cls-11{fill:#a5ad8e;}.cls-12{fill:#969b81;}.cls-13{opacity:0.65;}.cls-14{fill:#eadec5;}.cls-15{opacity:0.79;}.cls-16{fill:#aaa077;}.cls-17{fill:#c2d8b4;}.cls-18{fill:#ba8e83;}.cls-19{fill:#683d33;}.cls-20{fill:#0f0d0d;}</style></defs><rect class="cls-1" x="0.02" width="150" height="150"/><rect class="cls-2" x="0.02" y="81.48" width="150" height="68.52"/><path class="cls-3" d="M150,79.52V82a4,4,0,0,1-.78.07H0V80a6.79,6.79,0,0,1,3.88-.3,16.27,16.27,0,0,0,4.52.75c1.26-.1,2.21-.61,3.43-.79,2.68-.39,5.42.88,8.18.63,1.73-.15,3-.89,4.79-1,2.39-.2,4.59.78,7,.74a17.5,17.5,0,0,0,5.45-1.33,31,31,0,0,1,8-1.4,4.34,4.34,0,0,1,1.51.12c.79.28.53.87,1,1.28a5.64,5.64,0,0,0,2.92.62,234.69,234.69,0,0,0,25.59-.41,6.23,6.23,0,0,0,1.83-.32,6.39,6.39,0,0,0,1-.69,5.22,5.22,0,0,1,4.18-.12,10.4,10.4,0,0,0,1.14.68,7.51,7.51,0,0,0,2.35.28c8.83.16,17.86.31,26.27-1a15.23,15.23,0,0,1,3.93-.29c1.72.17,2.92.92,4.52,1.28,3.88.86,8.69-.77,12.62,0a10.11,10.11,0,0,0,3.41.5,4.57,4.57,0,0,0,1.69-.61A7.58,7.58,0,0,1,142,77.8c1.11-.1,2.42.2,2.6.73.06.19,0,.39.14.56.4.43,1.69.32,2.66.25A9.17,9.17,0,0,1,150,79.52Z"/><path class="cls-4" d="M94.59,23.62a16.36,16.36,0,0,1,11.36-5s1.42-5,8.51-4.73c0,0,2.84-3.31,8.28-1.42,0,0,4.26-3.07,8,2.13,0,0,3.55-1.84,4.5,3a4.82,4.82,0,0,1,5.91,2.94s4.26.23,5.44,3.07Z"/><path class="cls-4" d="M5.86,36.73a16.33,16.33,0,0,1,11.35-5s1.42-5,8.52-4.73c0,0,2.84-3.31,8.28-1.42,0,0,4.25-3.07,8,2.13,0,0,3.55-1.85,4.49,3a4.84,4.84,0,0,1,5.92,2.94s4.25.23,5.44,3.07Z"/><path class="cls-5" d="M34,149.26c.41-.35,4.39-3.22,4.25-3.52-.06-.11-4.4,2.49-4.81,2.74.27-.43,5.48-7.24,5.28-7.42-.15,0-5.74,6.5-6.05,6.86.12-.5,2.72-9.54,2.47-9.67s-3.23,9-3.41,9.45c0-.37-.23-10.57-.44-10.58s-.41,10.23-.45,10.58c-.19-.49-3-11.47-3.34-11.47-.12,0,2.29,11.22,2.4,11.69-.34-.39-4.8-7.44-5-7.31s4,7.46,4.27,7.87c-.43-.26-6.46-5.11-6.63-4.92,0,.13,5.7,5.38,6.07,5.7-.47-.12-5.83-1.84-5.92-1.65s3.19,1.49,4.8,2.2h7.72c1.56-.64,4.6-1.91,4.57-2.12S34.46,149.14,34,149.26Z"/><g class="cls-6"><path class="cls-7" d="M7.6,107.53c0-.08-2.85.79-3.1.85a18.33,18.33,0,0,0,2.3-1.91c-.11,0-2.39,1.35-2.61,1.49.15-.24,3-3.92,2.86-4s-3.11,3.52-3.28,3.72c.07-.28,1.48-5.17,1.34-5.24s-1.75,4.88-1.85,5.12c0-.2-.12-5.73-.23-5.73s-.23,5.54-.25,5.73c-.1-.27-1.64-6.21-1.81-6.21,0,.27,1.24,6.08,1.3,6.33-.14-.17-1.5-2.32-2.25-3.38v.37c.65,1.21,1.74,3.16,1.83,3.31-.12-.07-1-.75-1.83-1.41V107l1.53,1.4L0,107.92v.35l1.4.61c-.14,0-.79,0-1.4,0v.31c1.06.2,2.48.36,2.85.38a21.43,21.43,0,0,0,4.36-.7s-2.32.07-2.57.05A23.3,23.3,0,0,0,7.6,107.53Z"/></g><path class="cls-8" d="M14.45,91.65H11.7c0-.41.07-1.16.07-2.14h0c0-1.2,0-2.72,0-4.3,0-.15,0-.29,0-.43,0-.7,0-1.4-.05-2.09,0-1.64-.09-3.18-.13-4.32,0-.49,0-.92,0-1.23s0-.63,0-.65a.23.23,0,0,0,0,0,.77.77,0,0,0-.07-.26A1.3,1.3,0,0,1,11.3,76a3.24,3.24,0,0,0-1.09-.72c-.87-.45-1.74-.9-2.62-1.33-1.47-.71-5.38-2.61-5.87-2.86a2.16,2.16,0,0,1-.57-.42A2.7,2.7,0,0,1,.77,70c-.15-.34-.31-.68-.47-1L0,68.36V67.07l.79,1.4c.08.12.14.26.21.39l.11.19a4.54,4.54,0,0,0,.68,1.11l.14.1.1,0,4.79,2.27c1.43.67,2.85,1.35,4.3,2a2.44,2.44,0,0,1,1.55,1.62,49.2,49.2,0,0,1,.61,5.17v0l.12,1.23c.05.71.11,1.44.18,2.16,0,.14,0,.28,0,.43.1,1.14.2,2.23.31,3.2v0c0,.27.06.52.09.76s.08.73.14,1h0c0,.17,0,.33.07.47s0,0,0,0A6,6,0,0,0,14.45,91.65Z"/><path class="cls-8" d="M12.12,78.59l-.59-.23C9.7,77.7,4.19,75.79,0,74.3v-.76c4,1.35,9.39,3.13,11.46,3.59a3.91,3.91,0,0,0,.7.11A6.45,6.45,0,0,1,12.12,78.59Z"/><path class="cls-8" d="M16.06,79.78c2.85-2.07,13.32-7,13.87-7.73.29-.38,2.28-5.42,2.65-6.41-.63,1.18-2.52,5-2.92,5.74-.27.46-11.26,5.12-13.55,6.55A15.13,15.13,0,0,0,16.06,79.78Z"/><path class="cls-8" d="M1,69.11l1.81-.91a2.47,2.47,0,0,0,1.06-.8,3.47,3.47,0,0,0,0-2.27c-.11-.7-.22-1.4-.34-2.09.07,1,.15,2,.22,3a1.83,1.83,0,0,1-.14,1.11,1.32,1.32,0,0,1-.54.45c-.75.36-1.56.62-2.33.92C.84,68.7.93,68.9,1,69.11Z"/><path class="cls-8" d="M8.69,69.2l1.66-1.1,1.31-.87c.43-.29.91-.56,1.31-.89.87-.71.72-1.81.73-2.81,0-.69,0-1.38,0-2.07-.05.66-.1,1.32-.14,2-.07.91,0,2-.79,2.63a14.69,14.69,0,0,1-1.28.74l-1.36.78-1.8,1C8.45,68.82,8.57,69,8.69,69.2Z"/><path class="cls-8" d="M23.87,70l-2.05-1-1.7-.86c-.55-.28-1.15-.53-1.67-.86a1.48,1.48,0,0,1-.63-1.33c0-.62,0-1.25,0-1.87V61.68c0,.8-.09,1.59-.14,2.39,0,.62-.07,1.24-.11,1.86a1.82,1.82,0,0,0,.5,1.47,8.73,8.73,0,0,0,1.57,1l1.75,1,2.15,1.24C23.66,70.42,23.76,70.22,23.87,70Z"/><path class="cls-8" d="M6.47,66.87l1.12-.74a5,5,0,0,0,1.65-1.31,3.12,3.12,0,0,0,.12-1.69c0-.47-.07-1-.11-1.42,0,.45,0,.89,0,1.34a3.1,3.1,0,0,1-.2,1.68,4.9,4.9,0,0,1-1.65,1.13l-1.16.66Z"/><path class="cls-8" d="M14.24,69.37a1.72,1.72,0,0,0,.32-.65h.17a1.74,1.74,0,0,1-.27.85,12.84,12.84,0,0,1-2.79,1.58c-.06-.11-.11-.23-.16-.34A13.61,13.61,0,0,0,14.24,69.37Z"/><path class="cls-8" d="M12.23,66.85l1.28-.37a5,5,0,0,0,2-.75,3.05,3.05,0,0,0,.62-1.58l.33-1.39L16,64.05a3,3,0,0,1-.69,1.53,4.89,4.89,0,0,1-1.92.59c-.43.09-.55.07-1,.16C12.34,66.52,12.19,66.72,12.23,66.85Z"/><path class="cls-8" d="M19.86,68.27l1.49-.94a6.16,6.16,0,0,0,1.9-1.45,4,4,0,0,0,.53-1.95L24,62.09l-.24,1.48a4.78,4.78,0,0,1-.74,2.3,7.44,7.44,0,0,1-2,1.27l-1.38.78Z"/><path class="cls-8" d="M30.2,71.23,31.62,71a4.67,4.67,0,0,0,1.88-.48,6,6,0,0,0,1.82-2.67l-.78,1.2a3,3,0,0,1-1.15,1.16,4.31,4.31,0,0,1-1.82.26l-1.42,0C30.17,70.78,30.19,71,30.2,71.23Z"/><path class="cls-8" d="M14.69,90h0c0-.21,0-.42,0-.65V89c0-1.09,0-2.39,0-3.77V82.69c0-.27,0-.54,0-.81v-.06c0-4,0-7.78,0-8.11a1.8,1.8,0,0,0-.16-.77,3.18,3.18,0,0,0-1.35-1.27L12,71l-.36-.23h0L9,69l-.61-.4-.5-.33-.72-.47L7,67.62A2.31,2.31,0,0,1,6.84,67c0-.12,0-.24,0-.36a2.9,2.9,0,0,1-.06-.41h0l-.06-.39c0-.39-.11-.79-.16-1.17l-.15-1L6.3,63.2s0,0,0,0h0c0-.4-.11-.78-.17-1.17v0a.2.2,0,0,0,0-.05h0a.47.47,0,0,0-.15,0h0v0c0,.16,0,.33,0,.49s0,.42,0,.64c0,0,0,.1,0,.16a2.07,2.07,0,0,0,0,.35c0,.27,0,.54.05.81a1.36,1.36,0,0,0,0,.2h0a.31.31,0,0,0,0,.09c0,.6.08,1.2.12,1.8v0s0,.06,0,.09a2.78,2.78,0,0,0,.24,1.31,3.5,3.5,0,0,0,.79.69L12,72l1.17.87a1,1,0,0,1,.42.84h0c-.09,1.24-.16,4.33-.25,7.63v0l0,1.23c0,.73,0,1.45,0,2.16,0,.14,0,.29,0,.43,0,2.12-.11,4.06-.17,5.36h0a0,0,0,0,1,0,0h0c0,.43,0,.79,0,1.06h1.71Z"/><path class="cls-8" d="M16.67,74.55c-.12.54-1.11,14.76-.88,17.09H13.47c.57-2.17,1.76-16.39,1.94-17.08a5.82,5.82,0,0,1,.26-.93,1.89,1.89,0,0,1,1.16-1l8.57-3.15a2.09,2.09,0,0,0,1-.79c.38-.65,2.22-4.92,2.43-5.35a.76.76,0,0,1,.16.06s-1.18,3.67-1.68,5.08A3,3,0,0,1,26.11,70c-.48.29-7.67,3.18-8.43,3.49-.38.16-.81.25-.93.67C16.75,74.21,16.69,74.47,16.67,74.55Z"/><ellipse class="cls-9" cx="14.46" cy="62.51" rx="9.24" ry="1.41"/><path class="cls-9" d="M15.9,64c0,1.31,4.12,2.38,9.2,2.38s9.2-1.07,9.2-2.38-4.12-2.38-9.2-2.38S15.9,62.66,15.9,64Z"/><path class="cls-10" d="M12.34,61.51c0,1.32,3.59,2.39,8,2.39s8-1.07,8-2.39-3.59-2.38-8-2.38S12.34,60.2,12.34,61.51Z"/><path class="cls-10" d="M23.85,65.49c0,1,3,1.72,6.78,1.72s6.79-.77,6.79-1.72-3-1.72-6.79-1.72S23.85,64.54,23.85,65.49Z"/><path class="cls-9" d="M15.14,62.2a.71.71,0,0,1-.12.38,1.85,1.85,0,0,1-.59.54h0a4.93,4.93,0,0,1-.65.32l-.07,0h0l-.13.05h0a10.72,10.72,0,0,1-1.16.36,22.34,22.34,0,0,1-3,.56h0l-.17,0h0c-.82.09-1.71.16-2.64.21h0l-.37,0H5.82l-1.41,0H3.66c-1.29,0-2.53-.09-3.64-.22V59.9c.49,0,1-.1,1.55-.13h0c.57-.05,1.17-.07,1.78-.08h0l1,0A43.06,43.06,0,0,1,9,59.91a23.56,23.56,0,0,1,3.88.74,8,8,0,0,1,1.2.45h0C14.76,61.44,15.14,61.81,15.14,62.2Z"/><path class="cls-10" d="M6.23,64.05a.65.65,0,0,1-.12.36.73.73,0,0,1-.14.18l-.15.13A5.39,5.39,0,0,1,4,65.51H4l-.22.06h0A18.78,18.78,0,0,1,0,66v-4c2.62.1,4.78.6,5.71,1.26a1.37,1.37,0,0,1,.33.29A.74.74,0,0,1,6.23,64.05Z"/><path class="cls-10" d="M4.64,63.92c0,.54,2.19,1,4.89,1s4.9-.43,4.9-1-2.2-1-4.9-1S4.64,63.39,4.64,63.92Z"/><path class="cls-9" d="M1.56,59.82c0,.39,1.68.71,3.74.71S9,60.21,9,59.82s-1.68-.71-3.74-.71S1.56,59.43,1.56,59.82Z"/><path class="cls-10" d="M29.34,64.19c0,.58,1.49,1,3.33,1s3.33-.47,3.33-1-1.49-1-3.33-1S29.34,63.61,29.34,64.19Z"/><path class="cls-10" d="M13.43,59.73c0,.4,1.68.72,3.74.72s3.73-.32,3.73-.72S19.23,59,17.17,59,13.43,59.34,13.43,59.73Z"/><path class="cls-10" d="M21.55,66.34c0,.51,1.42.91,3.17.91s3.17-.4,3.17-.91-1.42-.91-3.17-.91S21.55,65.84,21.55,66.34Z"/><path class="cls-9" d="M10.92,68.34c0,.57,1.62,1,3.6,1s3.6-.46,3.6-1-1.61-1-3.6-1S10.92,67.77,10.92,68.34Z"/><path class="cls-10" d="M19.46,61.8c0,.43,2.32.79,5.17.79s5.18-.36,5.18-.79S27.49,61,24.63,61,19.46,61.36,19.46,61.8Z"/><path class="cls-11" d="M13.14,90.52v0a1.85,1.85,0,0,1,2-1.58,2,2,0,0,1,2,1.16,1.14,1.14,0,0,1,.83,1,1.21,1.21,0,0,1-1.35,1.06H13.7a1,1,0,0,1-1.06-.91A.85.85,0,0,1,13.14,90.52Z"/><path class="cls-3" d="M15.66,89.81a.76.76,0,1,0,.76-.71A.74.74,0,0,0,15.66,89.81Z"/><path class="cls-3" d="M13.31,90.53a.49.49,0,0,0,1,0,.49.49,0,0,0-1,0Z"/><path class="cls-3" d="M14.43,89.66a.37.37,0,1,0,.36-.34A.35.35,0,0,0,14.43,89.66Z"/><polygon class="cls-12" points="8.84 91.6 9.05 91.23 8.98 90.81 9.3 90.54 9.38 90.11 9.78 89.97 10 89.6 10.43 89.6 10.75 89.32 11.16 89.47 11.56 89.32 11.89 89.6 12.31 89.6 12.53 89.97 12.93 90.11 13.01 90.54 13.33 90.81 13.26 91.23 13.47 91.6 13.26 91.97 13.33 92.4 13.02 92.66 9.3 92.66 8.98 92.4 9.05 91.97 8.84 91.6"/><g class="cls-13"><path class="cls-11" d="M148.13,85.46v0a1.43,1.43,0,0,0-1.56-1.21,1.55,1.55,0,0,0-1.5.89.88.88,0,0,0-.63.79c0,.48.46.82,1,.82h2.21a.78.78,0,0,0,.82-.7A.64.64,0,0,0,148.13,85.46Z"/><path class="cls-3" d="M146.2,84.92a.58.58,0,0,1-1.16,0,.58.58,0,0,1,1.16,0Z"/><path class="cls-3" d="M148,85.47a.38.38,0,1,1-.38-.36A.37.37,0,0,1,148,85.47Z"/><path class="cls-3" d="M147.14,84.8a.27.27,0,0,1-.28.27.27.27,0,1,1,0-.53A.27.27,0,0,1,147.14,84.8Z"/></g><path class="cls-14" d="M150,98.86v15a85.22,85.22,0,0,1-12.69.91c-15.45,0-28-3.77-28-8.43s12.52-8.43,28-8.43A85.22,85.22,0,0,1,150,98.86Z"/><circle class="cls-14" cx="139.55" cy="106.39" r="0.23"/><path class="cls-10" d="M3.1,60.24c0,1.32,4.42,2.39,9.88,2.39s9.87-1.07,9.87-2.39S18.43,57.86,13,57.86,3.1,58.92,3.1,60.24Z"/><g class="cls-15"><path class="cls-16" d="M138.86,117.74c0-.1-3.48,1-3.78,1,.26-.23,2.89-2.12,2.8-2.31s-2.9,1.63-3.17,1.8c.17-.29,3.61-4.77,3.47-4.89s-3.77,4.28-4,4.52c.08-.33,1.79-6.28,1.62-6.37s-2.12,5.93-2.24,6.23c0-.25-.15-7-.29-7s-.27,6.74-.3,7c-.13-.32-2-7.57-2.2-7.57s1.51,7.41,1.58,7.71c-.22-.25-3.16-4.9-3.32-4.81s2.64,4.91,2.81,5.18c-.28-.17-4.25-3.37-4.36-3.25s3.76,3.56,4,3.76a40,40,0,0,0-3.89-1.08c0,.07,3.44,1.57,3.73,1.69-.32,0-3.15-.19-3.16-.09.54.4,4.24.83,4.93.87.35,0,4.3-.34,5.3-.86-.18,0-2.83.1-3.13.07A27.68,27.68,0,0,0,138.86,117.74Z"/></g><polygon class="cls-17" points="0 130.69 0 149.35 150.02 142.97 150.02 124.31 0 130.69"/><path class="cls-10" d="M31.77,68.79c0,.59,1.87,1.06,4.18,1.06s4.18-.47,4.18-1.06S38.26,67.74,36,67.74,31.77,68.21,31.77,68.79Z"/><path class="cls-18" d="M93.8,92.52l-.1-.15h0Z"/><path class="cls-19" d="M93.8,92.52l-.1-.15h0Z"/><polygon class="cls-20" points="96.16 94.09 96 93.97 95.97 93.95 96.05 93.91 96.13 93.91 96.16 94.09"/></svg>