<svg id="Camada_1" data-name="Camada 1" xmlns="http://www.w3.org/2000/svg" viewBox="0 0 150 150"><defs><style>.cls-1,.cls-12{fill:#683d33;}.cls-2{fill:#d8b295;}.cls-3{fill:#ba8d7f;}.cls-11,.cls-4{fill:#4c2828;}.cls-5{fill:#353130;}.cls-6{fill:#af857d;}.cls-7{fill:#7c4b27;}.cls-8{fill:#fff;}.cls-9{fill:#001a2b;stroke:#001a2b;stroke-miterlimit:10;}.cls-10{fill:#ba8e83;}.cls-11,.cls-12{fill-rule:evenodd;}</style></defs><path class="cls-1" d="M113.08,118.89a28.25,28.25,0,0,0-3-7.39l-.35-.56a.61.61,0,0,0-.07-.18l-.33-.46-.05-.08h0a37.09,37.09,0,0,0-7.56-8.42,32.8,32.8,0,0,1-2.46,8.87,25.23,25.23,0,0,1-10.37,12.2A25.94,25.94,0,0,1,74.77,126a29.22,29.22,0,0,1-13.5-3.52C49.34,115.81,48.1,102,48.1,102c-3.24,2.48-5.48,5.64-7.64,8.85a23.23,23.23,0,0,0-3.3,7.71,1.26,1.26,0,0,0-.06.21c-.32,1-1.5,5.53.48,8.81a6.54,6.54,0,0,0,2.39,2.3,6,6,0,0,0,.67.34,4.79,4.79,0,0,0,.65.25,5.73,5.73,0,0,0,1.21.29,6,6,0,0,0,1.11,0l.3,0,.33-.05.33-.07a3.36,3.36,0,0,0,.48-.14,2.74,2.74,0,0,0,.4-.15l.67-.32a8.18,8.18,0,0,0,1.65-1.21,9.77,9.77,0,0,0,1.57-1.84l.43-.38,1.07-.94.1.23s0,0,0,0a2,2,0,0,1,.09.3c.11.61.24,1.21.38,1.8,0,.15.06.29.1.45a40.24,40.24,0,0,0,4,10.06c.09.18.18.34.27.49h0a3.37,3.37,0,0,1,.23.4c.25.44.52.88.79,1.31h0s0,0,0,0l0,0,.07.12A67.35,67.35,0,0,0,61.13,147a23.68,23.68,0,0,0,6.83.89,13.41,13.41,0,0,0,3.64-.57c.2-.48.36-1,.5-1.41.09-.24.16-.46.24-.67a.19.19,0,0,0,0-.07l.59-1.48h0a2,2,0,0,1,1.82-.79,2.28,2.28,0,0,1,.67.17,5.71,5.71,0,0,1,1.08.59l.26.18a4.49,4.49,0,0,1,.56,1.14c.06.17.12.34.19.5a5.77,5.77,0,0,0,.85,1.95,21.72,21.72,0,0,0,5,.78,26.63,26.63,0,0,0,5.61-.28c5.25-5,8.85-16.71,9.12-17.62a.11.11,0,0,0,0,0,0,0,0,0,0,0,0c.43-1.1.85-2.21,1.27-3.33.11-.29.24-.57.37-.85,0,0,0,0,0,0a23.65,23.65,0,0,0,2.54,2.81h0l.16.15.16.15a5.92,5.92,0,0,0,.49.41c.17.13.33.24.49.34a4.4,4.4,0,0,0,.51.29l.46.2a6.5,6.5,0,0,1-1.9-1.24l-.32-.3a7.12,7.12,0,0,1,.55-1.27s0,0,0,0c.09-.17.19-.35.31-.54.15.26.31.51.47.75a10.51,10.51,0,0,0,1.79,2,8.77,8.77,0,0,0,1.39,1,3.32,3.32,0,0,0,.46,0l.33,0h0l.1,0h.06l.1,0H108l.28-.06.12,0,.13,0,.2-.07.46-.19.26-.13h0l.23-.13a6.71,6.71,0,0,0,1.72-1.47,26.39,26.39,0,0,0-2.06-7.59A35.93,35.93,0,0,1,113.08,118.89Zm-47.7,30.94h0s0,0,0,0l.14,0h0Zm0,0h0s0,0,0,0l.14,0h0ZM48.16,101.9l-.06,0h.08Z"/><path class="cls-2" d="M91.14,129.26a10.38,10.38,0,0,1-10.35,10.36H69.09a10.37,10.37,0,0,1-9.88-7.3,10,10,0,0,1-.47-3.06,10.28,10.28,0,0,1,2.35-6.54c.06-.07.11-.14.18-.21A29.22,29.22,0,0,0,74.77,126a25.94,25.94,0,0,0,14.15-3.16l.35.48a10.17,10.17,0,0,1,1.87,5.91Z"/><path class="cls-3" d="M91.14,129.26a10.38,10.38,0,0,1-10.35,10.36H69.09a10.37,10.37,0,0,1-9.88-7.3,20.62,20.62,0,0,0,13.84,5.12c9.31-.13,14.09-1.25,17.85-10.41A10.29,10.29,0,0,1,91.14,129.26Z"/><path class="cls-3" d="M47.78,128.8a7.27,7.27,0,0,1-3.21,1.8l-.33.07-.33.05-.3,0a6,6,0,0,1-1.11,0,5.73,5.73,0,0,1-1.21-.29,8.46,8.46,0,0,1-1.28-.59,6.54,6.54,0,0,1-2.39-2.3c2,.44,4.89.37,8.05-2.42a11.35,11.35,0,0,1,2.1,3.67S47.78,128.79,47.78,128.8Z"/><path class="cls-2" d="M40,129.83a8.46,8.46,0,0,0,1.28.59,6.32,6.32,0,0,1-1.32-.59,6.54,6.54,0,0,1-2.39-2.3c-2-3.28-.8-7.79-.48-8.81a27.87,27.87,0,0,1,8.57,6.39c-3.16,2.79-6.1,2.86-8.05,2.42A6.54,6.54,0,0,0,40,129.83Z"/><path class="cls-2" d="M113.36,124.38a9.14,9.14,0,0,1-1.92,4.26h0a6.53,6.53,0,0,1-1.72,1.44l-.23.13h0l-.26.13-.46.19-.2.07-.13,0-.12,0-.28.06H108l-.1,0h-.06l-.1,0h0l-.33,0a3.32,3.32,0,0,1-.46,0h-.34l-.35,0-.25,0a3.73,3.73,0,0,1-.44-.08l-.34-.08c-.2-.06-.41-.13-.61-.21h0a4,4,0,0,1-.42-.2,4.4,4.4,0,0,1-.51-.29c-.16-.1-.32-.21-.49-.34a5.92,5.92,0,0,1-.49-.41l-.16-.15-.16-.15h0c0-.07,0-.15.08-.24l.12-.29c.09-.22.21-.48.36-.77l.31-.52a10.58,10.58,0,0,1,.76-1.11,20,20,0,0,1,3.58-3.59c.56-.44,1.18-.89,1.86-1.34a35.93,35.93,0,0,1,3.71-2.14l0,0A13.68,13.68,0,0,1,113.36,124.38Z"/><path class="cls-4" d="M76.53,143.64a5.71,5.71,0,0,0-1.08-.59,2.28,2.28,0,0,0-.67-.17,2,2,0,0,0-1.82.79h0l-.59,1.48a.19.19,0,0,1,0,.07c-.08.21-.15.43-.24.67-.14.45-.3.93-.5,1.41a13.41,13.41,0,0,1-3.64.57,13.47,13.47,0,0,0,2.16-3.38C71.24,141.82,75.16,141.9,76.53,143.64Z"/><path class="cls-4" d="M110.12,111.5l-.35-.56a.61.61,0,0,0-.07-.18l-.33-.46-.05-.08h0a37.09,37.09,0,0,0-7.56-8.42,32.8,32.8,0,0,1-2.46,8.87A20,20,0,0,1,109.37,121a35.93,35.93,0,0,1,3.71-2.14A28.25,28.25,0,0,0,110.12,111.5Z"/><path class="cls-4" d="M104.57,130.44l-.46-.2a4.4,4.4,0,0,1-.51-.29c-.16-.1-.32-.21-.49-.34a5.92,5.92,0,0,1-.49-.41l-.16-.15-.16-.15h0a23.65,23.65,0,0,1-2.54-2.81s0,0,0,0c-.13.28-.26.56-.37.85-.42,1.12-.84,2.23-1.27,3.33a0,0,0,0,1,0,0,.11.11,0,0,1,0,0c-.27.91-3.87,12.57-9.12,17.62a26.63,26.63,0,0,1-5.61.28c3-2.91,7.68-8.61,11.21-18.41a77.37,77.37,0,0,0,3.19-10.34,33.63,33.63,0,0,0,5.12,8.15.08.08,0,0,0,0,0,7.12,7.12,0,0,0-.55,1.27l.32.3A6.5,6.5,0,0,0,104.57,130.44Z"/><path class="cls-4" d="M50.34,118.91a22,22,0,0,1-4.67,6.2,11.35,11.35,0,0,1,2.1,3.67s0,0,0,0a10,10,0,0,0,1.14-1.23l.85-.75a14.62,14.62,0,0,1,1.18-.95,2,2,0,0,1,.09.3c.11.61.24,1.21.38,1.8,0,.15.06.29.1.45a40.24,40.24,0,0,0,4,10.06c-2-4-4.51-16.33-5-19C50.38,119.1,50.34,118.91,50.34,118.91Z"/><path class="cls-2" d="M61.13,147l.48.6a7,7,0,0,0,.88.91A5.75,5.75,0,0,0,65.4,150h.53l.49-.47A19,19,0,0,0,68,147.88,23.68,23.68,0,0,1,61.13,147Zm4.25,2.84h0s0,0,0,0l.14,0h0Z"/><path class="cls-5" d="M65.38,149.83l.18,0h0l-.14,0c-.06,0-.06,0,0,0Z"/><path class="cls-3" d="M71.6,147.31A3.88,3.88,0,0,1,68.81,150H65.93l.49-.47A19,19,0,0,0,68,147.88,13.41,13.41,0,0,0,71.6,147.31Z"/><path class="cls-3" d="M89,147.91A8.31,8.31,0,0,1,85.71,150h-3.3a6.71,6.71,0,0,1-.83-.25c.48-.39,1.08-.9,1.76-1.56A26.63,26.63,0,0,0,89,147.91Z"/><path class="cls-2" d="M83.34,148.19c-.68.66-1.28,1.17-1.76,1.56a6.4,6.4,0,0,1-.84-.34c-.17-.08-.33-.17-.49-.26a3,3,0,0,1-.42-.27,5.27,5.27,0,0,1-1.44-1.47A21.72,21.72,0,0,0,83.34,148.19Z"/><path class="cls-3" d="M113.36,124.38a9.14,9.14,0,0,1-1.92,4.26h0a6.53,6.53,0,0,1-1.72,1.44l-.23.13h0l-.26.13-.46.19-.2.07-.13,0-.12,0-.28.06H108l-.1,0h-.06l-.1,0h0l-.33,0a3.32,3.32,0,0,1-.46,0h-.34l-.35,0-.25,0a3.73,3.73,0,0,1-.44-.08l-.34-.08c-.2-.06-.41-.13-.61-.21h0a4,4,0,0,1-.42-.2,4.4,4.4,0,0,1-.51-.29c-.16-.1-.32-.21-.49-.34a5.92,5.92,0,0,1-.49-.41l-.16-.15-.16-.15h0c0-.07,0-.15.08-.24l.12-.29.36-.77s6.59,2.65,6.51-6.56a35.93,35.93,0,0,1,3.71-2.14l0,0A13.68,13.68,0,0,1,113.36,124.38Z"/><path class="cls-4" d="M94,138.88c.27-1.54,2.38-3.11,3.91-3.24,1-.09,1.29.81,1.73,1.51a7.18,7.18,0,0,0,2,2.14c3.83,2.59,8.49.89,12.23-.91,1.74-.84.22-3.43-1.52-2.6-2.07,1-4.38,2.08-6.75,1.81a5.08,5.08,0,0,1-2.52-1,13.78,13.78,0,0,1-1.87-2.48c-1.51-1.86-3.86-1.78-5.86-.81s-3.9,2.58-4.29,4.73c-.34,1.89,2.55,2.7,2.9.8Z"/><path class="cls-1" d="M53.7,84.37h0l-4.8,4.19a11.1,11.1,0,0,0,.48-9.14A5.2,5.2,0,0,0,47,76.89h0a11.22,11.22,0,0,0-4.16-1.13l0,0a10.35,10.35,0,0,0-5,5.41c-2,4.9-.06,10.23,4.38,11.94s9.67-.9,11.7-5.79a10.28,10.28,0,0,0,.79-3.73Z"/><path class="cls-2" d="M53.69,84.37a8.07,8.07,0,0,1-.62,2.7c-1.66,4-5.94,6.11-9.57,4.73S38.27,86,39.91,82A8.12,8.12,0,0,1,47,76.88h0a5.2,5.2,0,0,1,2.41,2.53,11.1,11.1,0,0,1-.48,9.14Z"/><path class="cls-6" d="M53.7,84.37h0l-4.8,4.19a11.1,11.1,0,0,0,.48-9.14A5.2,5.2,0,0,0,47,76.89a6.45,6.45,0,0,1,2.52.41A6.89,6.89,0,0,1,53.7,84.37Z"/><path class="cls-4" d="M54.58,83v.62l-.88.77a6.89,6.89,0,0,0-4.22-7.07A6.45,6.45,0,0,0,47,76.89h0a11.22,11.22,0,0,0-4.16-1.13,8.42,8.42,0,0,1,6.6-.35A8.32,8.32,0,0,1,54.58,83Z"/><path class="cls-2" d="M108.77,90a5.44,5.44,0,0,1-.48.48c-.13.13-.27.24-.41.36l-.21.16-.37.25a7.94,7.94,0,0,1-.7.4l-.43.18a.23.23,0,0,1-.11,0,3,3,0,0,1-.32.12h0a16.83,16.83,0,0,1-.63-4.69c0-3.84-2.26-7.82-3.92-10.24a6.34,6.34,0,0,1,2.43-.47h.21s0,0,.06,0a4,4,0,0,1,.51.06l.53.08.18.05.38.11A8.33,8.33,0,0,1,108.77,90Z"/><path class="cls-1" d="M106.39,93.8A13.94,13.94,0,0,1,105.7,92h0a3,3,0,0,0,.32-.12.23.23,0,0,0,.11,0l.43-.18a7.94,7.94,0,0,0,.7-.4l.37-.25.21-.16c.14-.12.28-.23.41-.36a5.44,5.44,0,0,0,.48-.48,8.33,8.33,0,0,0-3.32-13.1l-.38-.11-.18-.05-.53-.08a4,4,0,0,0-.51-.06s0,0-.06,0h-.21a6.34,6.34,0,0,0-2.43.47c-.3-.43-.58-.81-.82-1.13a7.6,7.6,0,0,1,4-1.07c4.75,0,8.66,4.4,8.72,9.69C113.14,89.13,110.27,92.94,106.39,93.8Z"/><path class="cls-6" d="M105.7,92a1.67,1.67,0,0,1-.32.08,2.37,2.37,0,0,1-.34.08h0a4,4,0,0,1-.59.09,4.5,4.5,0,0,1-.64,0,6.76,6.76,0,0,1-4.58-1.93,14.68,14.68,0,0,0,1.12-4.41,13.74,13.74,0,0,0-.27-4.32,11,11,0,0,0-.57-1.82c-.17-.4-.35-.81-.57-1.23a6.49,6.49,0,0,1,2.24-1.5c1.66,2.42,3.91,6.4,3.92,10.24A16.83,16.83,0,0,0,105.7,92Z"/><path class="cls-4" d="M101.15,77a6.49,6.49,0,0,0-2.24,1.5c-.17-.33-.35-.68-.55-1a8.38,8.38,0,0,1,2-1.6C100.57,76.22,100.85,76.6,101.15,77Z"/><path class="cls-4" d="M106.39,93.79a7.53,7.53,0,0,1-1.78.19,6.23,6.23,0,0,1-1.06-.09,8.44,8.44,0,0,1-4.83-2.55,8.78,8.78,0,0,0,.49-1,6.74,6.74,0,0,0,4.57,1.92,4.52,4.52,0,0,0,.64,0q.3,0,.6-.09h0l.34-.08a1.15,1.15,0,0,0,.33-.09A12.21,12.21,0,0,0,106.39,93.79Z"/><path class="cls-1" d="M99.81,78.9a10,10,0,0,0-.32-1.1,14.62,14.62,0,0,0-2.07-4,13.88,13.88,0,0,0-3-3.07,11.08,11.08,0,0,0-1.63-1c-.39-.19-.8-.38-1.24-.55s-.72-.28-1.1-.41c0,.21,0,.41,0,.62A10,10,0,0,0,93,75.47a10.45,10.45,0,0,0,3.62,2.61h0A10.07,10.07,0,0,0,99.81,78.9Z"/><path class="cls-2" d="M99.49,77.8A8.08,8.08,0,0,1,96.3,77a8.54,8.54,0,0,1-2.69-2,8.22,8.22,0,0,1-2.11-4.73,5.15,5.15,0,0,1,0-1.11c.44.17.85.36,1.24.55a11.08,11.08,0,0,1,1.63,1,13.88,13.88,0,0,1,3,3.07A14.62,14.62,0,0,1,99.49,77.8Z"/><path class="cls-1" d="M84.39,70l-5.68-.56L66,68.15c2.11-2.29,4.2-4,5.15-7.17.5,1.28.73,6.35,2.91,4.24,1.44-1.39,1.24-5.09.26-6.6l.47.14C80,60.42,85.49,63.89,84.39,70Z"/><path class="cls-4" d="M84.39,70l-5.68-.56c1.06-1,2-3.79-3.92-10.65C80,60.42,85.49,63.89,84.39,70Z"/><path class="cls-1" d="M104.7,97.3a34.65,34.65,0,0,0-4.5-14.75c0-.14,0-.27,0-.41a13.5,13.5,0,0,0-.4-3.24,10,10,0,0,0-.32-1.1,14.62,14.62,0,0,0-2.07-4,13.88,13.88,0,0,0-3-3.07,11.08,11.08,0,0,0-1.63-1c-.39-.19-.8-.38-1.24-.55s-.72-.28-1.1-.41-.94-.3-1.44-.43h0l-.84-.22c-.64-.16-1.3-.3-2-.44-.54-.1-1.09-.2-1.66-.28A67.1,67.1,0,0,0,67,67.11c-1.17.14-2.31.31-3.39.52-.69.14-1.36.28-2,.44s-1.36.36-2,.57L58.51,69c-.55.21-1.06.43-1.54.67a11.08,11.08,0,0,0-1.63,1,13.47,13.47,0,0,0-3.05,3.07,14.68,14.68,0,0,0-2.07,4.06c-.13.36-.23.73-.33,1.11a14.32,14.32,0,0,0-.38,2.78Q45.27,88,45.13,97.24q-.23,13.38,8.64,21.62T75.42,127a33.69,33.69,0,0,0,11-1.76,30,30,0,0,0,10.69-6.4q7.77-7.08,7.77-18.24A31.52,31.52,0,0,0,104.7,97.3Zm-8.43,17.91a25,25,0,0,1-12.7,9.61l-3.53.82-2.24.27c-.77.07-1.56.1-2.37.1-.64,0-1.28,0-1.9-.07a27.9,27.9,0,0,1-5.41-.87,24.52,24.52,0,0,1-10.61-6,22.12,22.12,0,0,1-7.57-16.83v-.33c0-.48,0-.93.07-1.38.51-2.4,1.24-4.72,2.69-4.92,1.73-.23,3.21-2.19,3.36-2.4h0A9.29,9.29,0,0,0,64,93.17a21.42,21.42,0,0,0,2.08-.94c1.84-.92,3.6-2,5.25-2.75a11.21,11.21,0,0,1,2-.71,5.29,5.29,0,0,1,1.51-.16h.3a5.5,5.5,0,0,1,1.3.16,10.86,10.86,0,0,1,2,.71c1.65.74,3.42,1.83,5.26,2.75a21.26,21.26,0,0,0,2.07.94A9.3,9.3,0,0,0,94.11,93h0c.13.19,1.51,2.17,3.13,2.41l.15,0a1.93,1.93,0,0,1,1.07.93,14.13,14.13,0,0,1,1.2,4.53,22.68,22.68,0,0,1,.13,2.39A20.84,20.84,0,0,1,96.27,115.21Z"/><path class="cls-2" d="M92.13,90.67a9.4,9.4,0,0,0-2-1.3,9,9,0,0,0,4.09-9.69,9.75,9.75,0,0,0-19,1.33h-.12a9.75,9.75,0,0,0-19-1.34,9,9,0,0,0,4.09,9.69,9.43,9.43,0,0,0-4.12,3.86h0A9.27,9.27,0,0,0,64,93.17a21.42,21.42,0,0,0,2.08-.94c.88-.44,1.75-.92,2.59-1.38s1.8-1,2.66-1.37a11.21,11.21,0,0,1,2-.71,5.29,5.29,0,0,1,1.51-.16h.3a5.5,5.5,0,0,1,1.3.16,10.86,10.86,0,0,1,2,.71c.94.42,1.93,1,2.94,1.52.76.41,1.53.84,2.32,1.23a21.26,21.26,0,0,0,2.07.94A9.3,9.3,0,0,0,94.11,93,9.2,9.2,0,0,0,92.13,90.67ZM65,86c-3.19,0-5.78-1.72-5.78-3.85a1.56,1.56,0,0,1,0-.31l0-.15s0,0,0,0a1,1,0,0,1,.05-.23.14.14,0,0,1,0-.06.49.49,0,0,1,.06-.17,2.65,2.65,0,0,1,.27-.53,1.48,1.48,0,0,1,.19-.27,4.46,4.46,0,0,1,1.32-1.13,3,3,0,0,1,.4-.21,1.51,1.51,0,0,1,.18-.09,4.71,4.71,0,0,1,.52-.21l.31-.1a3,3,0,0,1,.32-.09,6.66,6.66,0,0,1,.91-.18l.24,0a7,7,0,0,1,.93-.06h.37l.29,0a7.33,7.33,0,0,1,1.51.25l.23.07A5.65,5.65,0,0,1,69.81,80a2.52,2.52,0,0,1,.27.3,2.72,2.72,0,0,1,.41.63.6.6,0,0,1,.08.16,2.56,2.56,0,0,1,.23,1.06C70.8,84.26,68.21,86,65,86Zm24.61-1.4a3.18,3.18,0,0,1-.37.27,3.13,3.13,0,0,1-.36.22,6.27,6.27,0,0,1-.74.35,6.8,6.8,0,0,1-.68.24,6.23,6.23,0,0,1-.62.15,2.25,2.25,0,0,1-.36.06,3,3,0,0,1-.42.06h-.16a6.34,6.34,0,0,1-.76,0c-3.19,0-5.78-1.72-5.78-3.85a2.56,2.56,0,0,1,.23-1.06,1.51,1.51,0,0,1,.11-.22,3,3,0,0,1,.62-.83l.12-.12a.71.71,0,0,1,.13-.12l.28-.22.3-.21.22-.13.22-.12a7.16,7.16,0,0,1,1.94-.67l.38-.06a8.43,8.43,0,0,1,3.73.29l.27.09.27.11.38.17a4.65,4.65,0,0,1,1.88,1.55l.1.18a2.4,2.4,0,0,1,.32.8.78.78,0,0,1,0,.22c0,.12,0,.23,0,.35a2.09,2.09,0,0,1,0,.25,2,2,0,0,1-.09.48,1.34,1.34,0,0,1-.09.26,2.89,2.89,0,0,1-.32.6,2,2,0,0,1-.18.25c-.09.11-.19.21-.29.31A3.08,3.08,0,0,1,89.62,84.58Z"/><path class="cls-7" d="M69.59,89.5a.49.49,0,0,1-.24-.34.38.38,0,0,1,0-.21.44.44,0,0,1,.12-.19,1.14,1.14,0,0,1,.4-.22,2.23,2.23,0,0,1,.68-.14,2.64,2.64,0,0,1,.58,0l.24,0-.2.13a2.6,2.6,0,0,0-.41.31,3.64,3.64,0,0,0-.5.64.35.35,0,0,1-.12.07l-.17,0A.94.94,0,0,1,69.59,89.5Z"/><path class="cls-7" d="M80.43,89.71a.79.79,0,0,1-.42.08.6.6,0,0,1-.31-.14,3.62,3.62,0,0,0-.5-.72,3,3,0,0,0-.45-.34l-.23-.13.26,0a2.39,2.39,0,0,1,.65,0,2.42,2.42,0,0,1,.72.22,1.59,1.59,0,0,1,.42.29.71.71,0,0,1,.11.21.41.41,0,0,1,0,.22A.47.47,0,0,1,80.43,89.71Z"/><ellipse class="cls-8" cx="65.01" cy="82.13" rx="5.78" ry="3.85"/><ellipse class="cls-8" cx="85.15" cy="82.13" rx="5.78" ry="3.85"/><circle class="cls-9" cx="65.01" cy="82.13" r="0.37"/><circle class="cls-9" cx="85.52" cy="82.13" r="0.37"/><path class="cls-4" d="M104.7,97.3a34.65,34.65,0,0,0-4.5-14.75c0-.14,0-.27,0-.41a13.5,13.5,0,0,0-.4-3.24,10,10,0,0,0-.32-1.1,14.62,14.62,0,0,0-2.07-4,13.88,13.88,0,0,0-3-3.07,11.08,11.08,0,0,0-1.63-1c-.39-.19-.8-.38-1.24-.55s-.72-.28-1.1-.41-.94-.3-1.44-.43c.51.35,1,.7,1.45,1s.75.6,1.09.9A16.32,16.32,0,0,1,96.3,77c.13.37.24.72.33,1.08h0a15.44,15.44,0,0,1-2,11.7,37.15,37.15,0,0,1,2.74,5.64,1.93,1.93,0,0,1,1.07.93,14.13,14.13,0,0,1,1.2,4.53,22.68,22.68,0,0,1,.13,2.39,20.84,20.84,0,0,1-3.53,11.93,30.72,30.72,0,0,1-9.85,10.06,30,30,0,0,0,10.69-6.4q7.77-7.08,7.77-18.24A31.52,31.52,0,0,0,104.7,97.3Z"/><path class="cls-10" d="M94.11,93a9.3,9.3,0,0,1-8.38.18,21.26,21.26,0,0,1-2.07-.94c-.79-.39-1.56-.82-2.32-1.23,3.2,1,8.7,2.11,10.79-.33A9.2,9.2,0,0,1,94.11,93Z"/><path class="cls-10" d="M68.64,90.85c-.84.46-1.71.94-2.59,1.38a21.42,21.42,0,0,1-2.08.94,9.27,9.27,0,0,1-7.86.07,13.2,13.2,0,0,0,6.66,0C65.26,92.47,66.28,91.3,68.64,90.85Z"/><path class="cls-11" d="M100.65,83.34a10.77,10.77,0,0,1,2-.91c.74-.25,1,0,.72.62a8.65,8.65,0,0,1-3.14,3.67c-.61.36-1,.43-1.29.22s-.24-.64,0-1.3.45-1.12.57-1.37A2.73,2.73,0,0,1,100.65,83.34Z"/><path class="cls-11" d="M100.93,85.61a10.52,10.52,0,0,1,2.18-.44q1.17-.12.57.75a8.6,8.6,0,0,1-3.87,2.9c-.67.22-1.11.2-1.3-.07s-.1-.68.3-1.27.68-1,.85-1.21A2.85,2.85,0,0,1,100.93,85.61Z"/><path class="cls-12" d="M51.08,82.59a10.62,10.62,0,0,1,1.43,1.71c.44.64.31.93-.4.86a8.7,8.7,0,0,1-4.39-2c-.51-.49-.7-.88-.56-1.18s.56-.41,1.26-.34,1.2.13,1.47.18A2.7,2.7,0,0,1,51.08,82.59Z"/><path class="cls-12" d="M49.64,85.83a9.72,9.72,0,0,1-2.19-.39c-.76-.21-.84-.51-.25-.91a7.4,7.4,0,0,1,2.24-1,7.51,7.51,0,0,1,2.42-.29c.71,0,1.1.22,1.19.54s-.17.67-.75,1.06l-1.24.82A2.79,2.79,0,0,1,49.64,85.83Z"/><path class="cls-12" d="M86.65,68.06a11.22,11.22,0,0,1,1.61-1.53c.62-.48.92-.36.89.34a7.59,7.59,0,0,1-.56,2.38,7.42,7.42,0,0,1-1.2,2.12c-.46.54-.84.76-1.14.64s-.44-.53-.41-1.24,0-1.2.08-1.48A2.77,2.77,0,0,1,86.65,68.06Z"/></svg>