<svg id="Camada_1" data-name="Camada 1" xmlns="http://www.w3.org/2000/svg" viewBox="0 0 150 150"><defs><style>.cls-1{fill:#62874d;}.cls-2{fill:#efe8e8;}.cls-3{fill:#c4b1b1;}.cls-4{fill:#353130;}.cls-5{fill:#346849;}.cls-6{fill:#316044;}.cls-7{fill:#5d7c49;}.cls-8{fill:#001a2b;}.cls-9{fill:#c9846f;}</style></defs><path class="cls-1" d="M48.16,101.9l-.06,0h.08Z"/><path class="cls-1" d="M113.11,118.87l0,0a35.93,35.93,0,0,0-3.71,2.14h0a35.93,35.93,0,0,1,3.71-2.14,28.25,28.25,0,0,0-3-7.39l-.35-.56a.61.61,0,0,0-.07-.18l-.33-.46-.05-.08h0a37.09,37.09,0,0,0-7.56-8.42,32.8,32.8,0,0,1-2.46,8.87,25.23,25.23,0,0,1-10.37,12.2A25.94,25.94,0,0,1,74.77,126a29.22,29.22,0,0,1-13.5-3.52C49.34,115.81,48.1,102,48.1,102c-3.24,2.48-5.48,5.64-7.64,8.85a23.23,23.23,0,0,0-3.3,7.71,1.26,1.26,0,0,0-.06.21c-.32,1-1.5,5.53.48,8.81a6.54,6.54,0,0,0,2.39,2.3l.16.08a5.52,5.52,0,0,0,1,.46l.12,0a5.73,5.73,0,0,0,1.21.29,6,6,0,0,0,1.11,0l.3,0,.33-.05.33-.07a3.36,3.36,0,0,0,.48-.14,2.74,2.74,0,0,0,.4-.15l.67-.32a8.18,8.18,0,0,0,1.65-1.21,9.77,9.77,0,0,0,1.57-1.84l.43-.38,1.07-.94.1.23s0,0,0,0a2,2,0,0,1,.09.3c.11.61.24,1.21.38,1.8,0,.15.06.29.1.45a40.24,40.24,0,0,0,4,10.06c.09.18.18.34.27.49h0a3.37,3.37,0,0,1,.23.4c.25.44.52.88.79,1.31h0s0,0,0,0l0,0,.07.12A67.35,67.35,0,0,0,61.13,147l.48.6a7,7,0,0,0,.88.91A5.75,5.75,0,0,0,65.4,150h.53l.49-.47A19,19,0,0,0,68,147.88a13.41,13.41,0,0,0,3.64-.57c.2-.48.36-1,.5-1.41.09-.24.16-.46.24-.67a.19.19,0,0,0,0-.07l.59-1.48h0a2,2,0,0,1,1.82-.79,2.28,2.28,0,0,1,.67.17,5.71,5.71,0,0,1,1.08.59l.26.18a4.49,4.49,0,0,1,.56,1.14c.06.17.12.34.19.5a5.77,5.77,0,0,0,.85,1.95,5.27,5.27,0,0,0,1.44,1.47,3,3,0,0,0,.42.27c.16.09.32.18.49.26a6.4,6.4,0,0,0,.84.34c.48-.39,1.08-.9,1.76-1.56a26.63,26.63,0,0,0,5.61-.28c5.25-5,8.85-16.71,9.12-17.62a.11.11,0,0,0,0,0,0,0,0,0,0,0,0c.43-1.1.85-2.21,1.27-3.33.11-.29.24-.57.37-.85,0,0,0,0,0,0a23.65,23.65,0,0,0,2.54,2.81h0l.16.15.16.15a5.92,5.92,0,0,0,.49.41c.17.13.33.24.49.34a4.4,4.4,0,0,0,.51.29h0l.41.19h0c.2.08.41.15.61.21l.34.08a3.73,3.73,0,0,0,.44.08l.25,0,.35,0h.34a3.32,3.32,0,0,0,.46,0l.33,0h0l.1,0h.06l.1,0H108l.28-.06.12,0,.13,0,.2-.07.46-.19.26-.13h0l.23-.13a6.53,6.53,0,0,0,1.72-1.44h0a9.14,9.14,0,0,0,1.92-4.26A13.68,13.68,0,0,0,113.11,118.87Z"/><path class="cls-2" d="M91.14,129.26a10.38,10.38,0,0,1-10.35,10.36H69.09a10.37,10.37,0,0,1-9.88-7.3,10,10,0,0,1-.47-3.06,10.28,10.28,0,0,1,2.35-6.54c.06-.07.11-.14.18-.21A29.22,29.22,0,0,0,74.77,126a25.94,25.94,0,0,0,14.15-3.16l.35.48a10.17,10.17,0,0,1,1.87,5.91Z"/><path class="cls-3" d="M91.14,129.26a10.38,10.38,0,0,1-10.35,10.36H69.09a10.37,10.37,0,0,1-9.88-7.3,20.62,20.62,0,0,0,13.84,5.12c9.31-.13,14.09-1.25,17.85-10.41A10.29,10.29,0,0,1,91.14,129.26Z"/><path class="cls-4" d="M65.38,149.83l.18,0h0l-.14,0c-.06,0-.06,0,0,0Z"/><path class="cls-5" d="M70.12,144.5A13.47,13.47,0,0,1,68,147.88a19,19,0,0,1-1.54,1.65l-.49.47h2.88a3.88,3.88,0,0,0,2.79-2.69c.2-.48.36-1,.5-1.41.09-.24.16-.46.24-.67a.19.19,0,0,0,0-.07l.59-1.48h0a2,2,0,0,1,1.82-.79,2.28,2.28,0,0,1,.67.17,5.71,5.71,0,0,1,1.08.59C75.16,141.9,71.24,141.82,70.12,144.5Z"/><path class="cls-5" d="M50.34,118.91a22,22,0,0,1-4.67,6.2h0c-3.16,2.79-6.1,2.86-8.05,2.42a6.54,6.54,0,0,0,2.39,2.3,8.46,8.46,0,0,0,1.28.59,5.73,5.73,0,0,0,1.21.29,6,6,0,0,0,1.11,0l.3,0,.33-.05.33-.07a7.27,7.27,0,0,0,3.21-1.8h0a10,10,0,0,0,1.14-1.23l.85-.75a14.62,14.62,0,0,1,1.18-.95,2,2,0,0,1,.09.3c.11.61.24,1.21.38,1.8,0,.15.06.29.1.45a40.24,40.24,0,0,0,4,10.06c-2-4-4.51-16.33-5-19C50.38,119.1,50.34,118.91,50.34,118.91Z"/><path class="cls-5" d="M113.11,118.87l0,0a28.25,28.25,0,0,0-3-7.39l-.35-.56a.61.61,0,0,0-.07-.18l-.33-.46-.05-.08h0a37.09,37.09,0,0,0-7.56-8.42,32.8,32.8,0,0,1-2.46,8.87A20,20,0,0,1,109.37,121c.08,9.21-6.51,6.56-6.51,6.56h0a33.63,33.63,0,0,1-5.12-8.15,77.37,77.37,0,0,1-3.19,10.34c-3.53,9.8-8.2,15.5-11.21,18.41-.68.66-1.28,1.17-1.76,1.56a6.71,6.71,0,0,0,.83.25h3.3A8.31,8.31,0,0,0,89,147.91c5.25-5,8.85-16.71,9.12-17.62a.11.11,0,0,0,0,0,0,0,0,0,0,0,0c.43-1.1.85-2.21,1.27-3.33.11-.29.24-.57.37-.85,0,0,0,0,0,0a23.65,23.65,0,0,0,2.54,2.81h0l.16.15.16.15a5.92,5.92,0,0,0,.49.41c.17.13.33.24.49.34a4.4,4.4,0,0,0,.51.29h0l.41.19h0c.2.08.41.15.61.21l.34.08a3.73,3.73,0,0,0,.44.08l.25,0,.35,0h.34a3.32,3.32,0,0,0,.46,0l.33,0h0l.1,0h.06l.1,0H108l.28-.06.12,0,.13,0,.2-.07.46-.19.26-.13h0l.23-.13a6.53,6.53,0,0,0,1.72-1.44h0a9.14,9.14,0,0,0,1.92-4.26A13.68,13.68,0,0,0,113.11,118.87Z"/><path class="cls-6" d="M105.19,110a.86.86,0,0,1,.64-.28.87.87,0,0,1,.64.29,1.44,1.44,0,0,1,.26.56,3.08,3.08,0,0,1,.11.74.9.9,0,0,1-.2.72,1,1,0,0,1-.47.18l-.45.09a.71.71,0,0,1-.25,0,.53.53,0,0,1-.3-.25,1.44,1.44,0,0,1-.21-.41,2.13,2.13,0,0,1-.07-.44,1.78,1.78,0,0,1,0-.4,2,2,0,0,1,.07-.42A1,1,0,0,1,105.19,110Z"/><path class="cls-6" d="M94.65,132.3a.85.85,0,0,1,1.28,0,1.35,1.35,0,0,1,.27.55,4.85,4.85,0,0,1,.11.75.89.89,0,0,1-.21.71.94.94,0,0,1-.47.19l-.44.08a.53.53,0,0,1-.25,0,.56.56,0,0,1-.31-.24,1.73,1.73,0,0,1-.2-.41,2.36,2.36,0,0,1-.08-.45,2.54,2.54,0,0,1,0-.39,1.94,1.94,0,0,1,.07-.42A1.09,1.09,0,0,1,94.65,132.3Z"/><path class="cls-7" d="M55.1,121.73a.71.71,0,0,1,.49-.21.64.64,0,0,1,.49.22,1.06,1.06,0,0,1,.2.43,2.61,2.61,0,0,1,.08.56.69.69,0,0,1-.15.55.88.88,0,0,1-.36.14l-.34.06a.41.41,0,0,1-.19,0,.48.48,0,0,1-.23-.19,1.14,1.14,0,0,1-.16-.31c0-.11,0-.23-.06-.34a1.51,1.51,0,0,1,0-.3,1.64,1.64,0,0,1,0-.32A.94.94,0,0,1,55.1,121.73Z"/><path class="cls-1" d="M104.7,97.3a37,37,0,0,0-3-11.78,29.79,29.79,0,0,0-1.55-3A24.57,24.57,0,0,0,96.3,77h0c-.33-.37-.7-.74-1.08-1.12l-.14-.15c-.4-.39-.82-.78-1.27-1.17,0,0,0,0,0,0h0c-.44-.38-.91-.77-1.4-1.14l-.11-.09-.58-.42-.35-.26-.57-.38-.44-.29-.56-.35c-.19-.12-.39-.24-.6-.35s-.49-.29-.75-.42-.51-.28-.78-.41l-.5-.24-.73-.34-.52-.22-.81-.32-.49-.19c-.4-.14-.81-.28-1.23-.41l-.16-.06c-.45-.14-.91-.26-1.38-.38l-.47-.12-1-.23-.54-.11-1.1-.18-.51-.08c-.54-.07-1.1-.13-1.66-.18s-1.13-.09-1.71-.11a26.4,26.4,0,0,0-4.41.21,25.58,25.58,0,0,0-6.79,1.86,30,30,0,0,0-8.3,5.39,31.43,31.43,0,0,0-5.35,6c-.12.18-.26.36-.38.53v0a25.78,25.78,0,0,0-1.33,2.31,20.08,20.08,0,0,0-1.56,4c0,.08,0,.15,0,.22a32.21,32.21,0,0,0-1.47,9.48q-.23,13.38,8.64,21.62T75.42,127a33.69,33.69,0,0,0,11-1.76l.93-.34a27.37,27.37,0,0,0,2.77-1.22,30.08,30.08,0,0,0,7-4.84q7.77-7.08,7.77-18.24A31.52,31.52,0,0,0,104.7,97.3Zm-8.43,17.91a20.63,20.63,0,0,1-1.53,2,24,24,0,0,1-2,2.08l-.09.08a24.23,24.23,0,0,1-9.11,5.43l-3.53.82-2.24.27c-.77.07-1.56.1-2.37.1-.64,0-1.28,0-1.9-.07a27.9,27.9,0,0,1-5.41-.87,24.52,24.52,0,0,1-10.61-6,22.12,22.12,0,0,1-7.57-16.83v-.33c0-.48,0-.93.07-1.38a5.87,5.87,0,0,1,.15-1.31c.87-1.46,5.06-5.53,24.71-5.14,22.35.45,24.44,5,24.62,5.59.05.29.1.57.14.86,0,.12,0,.23,0,.35a22.68,22.68,0,0,1,.13,2.39A20.84,20.84,0,0,1,96.27,115.21Z"/><path class="cls-5" d="M104.88,100.63q0,11.16-7.77,18.24a30.08,30.08,0,0,1-7,4.84,33,33,0,0,0,4.62-6.48,20.63,20.63,0,0,0,1.53-2,20.84,20.84,0,0,0,3.53-11.93,22.68,22.68,0,0,0-.13-2.39c0-.12,0-.23,0-.35a15.46,15.46,0,0,0-.46-2.29s0,0,0,0l0,0a38.74,38.74,0,0,0-5.62-18.46A14.58,14.58,0,0,0,96.3,77a24.57,24.57,0,0,1,3.9,5.55,29.79,29.79,0,0,1,1.55,3,37,37,0,0,1,3,11.78A31.52,31.52,0,0,1,104.88,100.63Z"/><path class="cls-5" d="M70.41,67.43c-4.69,2-5.37,3.35-5.37,3.35a8.23,8.23,0,0,0-1.43-1.53A25.74,25.74,0,0,1,70.41,67.43Z"/><ellipse class="cls-1" cx="59.49" cy="74.15" rx="6.45" ry="6.19" transform="translate(-26.57 33.75) rotate(-26.11)"/><path class="cls-8" d="M58.8,69.56a3.19,3.19,0,0,0-2.69,4.89A3.23,3.23,0,0,0,58.8,75.9a3.17,3.17,0,0,0,2.67-1.46,3.09,3.09,0,0,0,.5-1.71A3.17,3.17,0,0,0,58.8,69.56Z"/><path class="cls-1" d="M96.3,77a5.92,5.92,0,0,1-2.61,2.67,6.48,6.48,0,0,1-5.9,0A6.19,6.19,0,1,1,93.23,68.6,6.6,6.6,0,0,1,96,71.11,6.08,6.08,0,0,1,96.3,77Z"/><path class="cls-8" d="M91.2,69.56a3.19,3.19,0,0,1,2.69,4.89A3.23,3.23,0,0,1,91.2,75.9a3.17,3.17,0,0,1-2.67-1.46,3.09,3.09,0,0,1-.5-1.71A3.17,3.17,0,0,1,91.2,69.56Z"/><ellipse class="cls-9" cx="58.79" cy="79.86" rx="4.89" ry="2.39"/><circle class="cls-5" cx="72" cy="83.23" r="0.97"/><circle class="cls-5" cx="78" cy="83.23" r="0.97"/><path class="cls-5" d="M96.3,77a5.92,5.92,0,0,1-2.61,2.67l-1-.72s3.45-2.38,3.29-7.83A6.08,6.08,0,0,1,96.3,77Z"/><ellipse class="cls-9" cx="90.85" cy="79.86" rx="4.89" ry="2.39"/><path class="cls-7" d="M68.82,70.4a.85.85,0,0,1,.64-.27.87.87,0,0,1,.64.29,1.31,1.31,0,0,1,.26.56,3.08,3.08,0,0,1,.11.74.91.91,0,0,1-.2.72,1,1,0,0,1-.47.18l-.44.09a.76.76,0,0,1-.26,0,.54.54,0,0,1-.3-.24,1.42,1.42,0,0,1-.2-.41,2.36,2.36,0,0,1-.08-.45,1.7,1.7,0,0,1,0-.39,1.56,1.56,0,0,1,.08-.42A1,1,0,0,1,68.82,70.4Z"/><path class="cls-7" d="M47.34,88.79a1,1,0,0,1,1.44,0,1.32,1.32,0,0,1,.3.63,4,4,0,0,1,.13.84,1,1,0,0,1-.23.81,1.16,1.16,0,0,1-.54.21l-.5.1a.66.66,0,0,1-.28,0,.62.62,0,0,1-.35-.27,2.28,2.28,0,0,1-.23-.47,2.74,2.74,0,0,1-.08-.5,2.16,2.16,0,0,1,0-.44,2.53,2.53,0,0,1,.08-.48A1.31,1.31,0,0,1,47.34,88.79Z"/><path class="cls-6" d="M99.87,90.4a.9.9,0,0,1,.65-.28.85.85,0,0,1,.63.29,1.33,1.33,0,0,1,.27.56,3.88,3.88,0,0,1,.11.75.86.86,0,0,1-.21.71.93.93,0,0,1-.47.18l-.44.09a.71.71,0,0,1-.25,0,.61.61,0,0,1-.31-.24,2,2,0,0,1-.2-.42,2.14,2.14,0,0,1-.08-.44,2.54,2.54,0,0,1,0-.39,2,2,0,0,1,.07-.43A1.11,1.11,0,0,1,99.87,90.4Z"/><path class="cls-7" d="M63.17,90.81a.67.67,0,0,1,.49-.21.69.69,0,0,1,.48.23.91.91,0,0,1,.2.42,2.82,2.82,0,0,1,.09.57.65.65,0,0,1-.16.54.67.67,0,0,1-.36.14l-.33.07a.67.67,0,0,1-.2,0,.41.41,0,0,1-.23-.18,1.33,1.33,0,0,1-.15-.32,1.28,1.28,0,0,1-.06-.34,1.5,1.5,0,0,1,0-.3,2,2,0,0,1,.06-.32A.79.79,0,0,1,63.17,90.81Z"/></svg>