<svg id="Camada_1" data-name="Camada 1" xmlns="http://www.w3.org/2000/svg" viewBox="0 0 150 150"><defs><style>.cls-1,.cls-14{fill:#c48a62;}.cls-11,.cls-2{fill:#e5c085;}.cls-19,.cls-3{fill:#4c2828;}.cls-4{fill:#683d33;}.cls-5{fill:#353130;}.cls-6{fill:#d89d71;}.cls-12,.cls-7{fill:#efe8e8;}.cls-10,.cls-8{fill:#c4b1b1;}.cls-9{fill:#b27150;}.cls-10,.cls-11,.cls-12,.cls-13,.cls-14,.cls-16,.cls-17,.cls-19{fill-rule:evenodd;}.cls-13{fill:#9b787b;}.cls-15{fill:#0f0d0d;}.cls-16{fill:#c69254;}.cls-17{fill:#ba7a4f;}.cls-18{fill:#93603e;}</style></defs><path class="cls-1" d="M107.36,137.66a.49.49,0,0,1-.31.38c-2.67,1-6,2.09-8.57.29A7.92,7.92,0,0,1,96.05,135c-.6-1.23-1.28-2.68-2.62-3.24a.53.53,0,0,1-.31-.63.39.39,0,0,1,.57-.33,5.48,5.48,0,0,1,2.61,2.49,18.18,18.18,0,0,0,2,3.6c2.23,2.43,5.84,1.19,8.44.19C107.19,136.92,107.44,137.32,107.36,137.66Z"/><path class="cls-2" d="M48.16,101.9l-.06,0h.08Zm17.22,47.93h0s0,0,0,0l.14,0h0Zm0,0h0s0,0,0,0l.14,0h0Zm47.7-30.94a28.25,28.25,0,0,0-3-7.39l-.35-.56a.61.61,0,0,0-.07-.18l-.33-.46-.05-.08h0a37.09,37.09,0,0,0-7.56-8.42,32.8,32.8,0,0,1-2.46,8.87,25.23,25.23,0,0,1-10.37,12.2A25.94,25.94,0,0,1,74.77,126a29.22,29.22,0,0,1-13.5-3.52C49.34,115.81,48.1,102,48.1,102A27.56,27.56,0,0,0,43,107.24c-.55.73-1.08,1.48-1.6,2.23-.31.44-.61.89-.91,1.33a23.23,23.23,0,0,0-3.3,7.71,1.26,1.26,0,0,0-.06.21c-.32,1-1.5,5.53.48,8.81a6.54,6.54,0,0,0,2.39,2.3,6,6,0,0,0,.67.34,4.79,4.79,0,0,0,.65.25,5.73,5.73,0,0,0,1.21.29,6,6,0,0,0,1.11,0l.3,0,.33-.05.33-.07a3.36,3.36,0,0,0,.48-.14,2.74,2.74,0,0,0,.4-.15l.67-.32a8.18,8.18,0,0,0,1.65-1.21,9.77,9.77,0,0,0,1.57-1.84l.43-.38,1.07-.94.1.23s0,0,0,0a2,2,0,0,1,.09.3c.11.61.24,1.21.38,1.8,0,.15.06.29.1.45a40.24,40.24,0,0,0,4,10.06c.09.18.18.34.27.49h0a3.37,3.37,0,0,1,.23.4c.25.44.52.88.79,1.31h0s0,0,0,0l0,0,.07.12A67.35,67.35,0,0,0,61.13,147a23.68,23.68,0,0,0,6.83.89,13.41,13.41,0,0,0,3.64-.57c.2-.48.36-1,.5-1.41.09-.24.16-.46.24-.67a.19.19,0,0,0,0-.07l.59-1.48h0a2,2,0,0,1,1.82-.79,2.28,2.28,0,0,1,.67.17,5.71,5.71,0,0,1,1.08.59l.26.18a4.49,4.49,0,0,1,.56,1.14c.06.17.12.34.19.5a5.77,5.77,0,0,0,.85,1.95,21.72,21.72,0,0,0,5,.78,26.63,26.63,0,0,0,5.61-.28c5.25-5,8.85-16.71,9.12-17.62a.11.11,0,0,0,0,0,0,0,0,0,0,0,0c.43-1.1.85-2.21,1.27-3.33.11-.29.24-.57.37-.85,0,0,0,0,0,0a23.65,23.65,0,0,0,2.54,2.81h0l.16.15.16.15a5.92,5.92,0,0,0,.49.41c.17.13.33.24.49.34a4.4,4.4,0,0,0,.51.29l.46.2a6.5,6.5,0,0,1-1.9-1.24l-.32-.3a7.12,7.12,0,0,1,.55-1.27s0,0,0,0c.09-.17.19-.35.31-.54.15.26.31.51.47.75a10.51,10.51,0,0,0,1.79,2,8.77,8.77,0,0,0,1.39,1,3.32,3.32,0,0,0,.46,0l.33,0h0l.1,0h.06l.1,0H108l.28-.06.12,0,.13,0,.2-.07.46-.19.26-.13h0l.23-.13a6.71,6.71,0,0,0,1.72-1.47,26.39,26.39,0,0,0-2.06-7.59A35.93,35.93,0,0,1,113.08,118.89Z"/><path class="cls-3" d="M47.78,128.8a7.27,7.27,0,0,1-3.21,1.8l-.33.07-.33.05-.3,0a6,6,0,0,1-1.11,0,5.73,5.73,0,0,1-1.21-.29,8.46,8.46,0,0,1-1.28-.59,6.54,6.54,0,0,1-2.39-2.3c2,.44,4.89.37,8.05-2.42a11.35,11.35,0,0,1,2.1,3.67S47.78,128.79,47.78,128.8Z"/><path class="cls-4" d="M40,129.83a8.46,8.46,0,0,0,1.28.59,6.32,6.32,0,0,1-1.32-.59,6.54,6.54,0,0,1-2.39-2.3c-2-3.28-.8-7.79-.48-8.81a27.87,27.87,0,0,1,8.57,6.39c-3.16,2.79-6.1,2.86-8.05,2.42A6.54,6.54,0,0,0,40,129.83Z"/><path class="cls-4" d="M113.36,124.38a9.14,9.14,0,0,1-1.92,4.26h0a6.53,6.53,0,0,1-1.72,1.44l-.23.13h0l-.26.13-.46.19-.2.07-.13,0-.12,0-.28.06H108l-.1,0h-.06l-.1,0h0l-.33,0a3.32,3.32,0,0,1-.46,0h-.34l-.35,0-.25,0a3.73,3.73,0,0,1-.44-.08l-.34-.08c-.2-.06-.41-.13-.61-.21h0a4,4,0,0,1-.42-.2,4.4,4.4,0,0,1-.51-.29c-.16-.1-.32-.21-.49-.34a5.92,5.92,0,0,1-.49-.41l-.16-.15-.16-.15h0c0-.07,0-.15.08-.24l.12-.29c.09-.22.21-.48.36-.77l.31-.52a10.58,10.58,0,0,1,.76-1.11,20,20,0,0,1,3.58-3.59c.56-.44,1.18-.89,1.86-1.34a35.93,35.93,0,0,1,3.71-2.14l0,0A13.68,13.68,0,0,1,113.36,124.38Z"/><path class="cls-1" d="M76.53,143.64a5.71,5.71,0,0,0-1.08-.59,2.28,2.28,0,0,0-.67-.17,2,2,0,0,0-1.82.79h0l-.59,1.48a.19.19,0,0,1,0,.07c-.08.21-.15.43-.24.67-.14.45-.3.93-.5,1.41a13.41,13.41,0,0,1-3.64.57,13.47,13.47,0,0,0,2.16-3.38C71.24,141.82,75.16,141.9,76.53,143.64Z"/><path class="cls-1" d="M110.12,111.5l-.35-.56a.61.61,0,0,0-.07-.18l-.33-.46-.05-.08h0a37.09,37.09,0,0,0-7.56-8.42,32.8,32.8,0,0,1-2.46,8.87A20,20,0,0,1,109.37,121a35.93,35.93,0,0,1,3.71-2.14A28.25,28.25,0,0,0,110.12,111.5Z"/><path class="cls-1" d="M104.57,130.44l-.46-.2a4.4,4.4,0,0,1-.51-.29c-.16-.1-.32-.21-.49-.34a5.92,5.92,0,0,1-.49-.41l-.16-.15-.16-.15h0a23.65,23.65,0,0,1-2.54-2.81s0,0,0,0c-.13.28-.26.56-.37.85l-.52,1.38-.75,1.95a0,0,0,0,1,0,0,.11.11,0,0,1,0,0c0,.18-.24.78-.54,1.67-.47,1.38-1.22,3.46-2.21,5.73a49.6,49.6,0,0,1-2.56,5.1A23.45,23.45,0,0,1,89,147.91a26.63,26.63,0,0,1-5.61.28c3-2.91,7.68-8.61,11.21-18.41a77.37,77.37,0,0,0,3.19-10.34,33.63,33.63,0,0,0,5.12,8.15.08.08,0,0,0,0,0,7.12,7.12,0,0,0-.55,1.27l.32.3A6.5,6.5,0,0,0,104.57,130.44Z"/><path class="cls-1" d="M50.34,118.91a22,22,0,0,1-4.67,6.2,11.35,11.35,0,0,1,2.1,3.67s0,0,0,0a10,10,0,0,0,1.14-1.23l.85-.75a14.62,14.62,0,0,1,1.18-.95,2,2,0,0,1,.09.3c.11.61.24,1.21.38,1.8,0,.15.06.29.1.45a40.24,40.24,0,0,0,4,10.06c-2-4-4.51-16.33-5-19C50.38,119.1,50.34,118.91,50.34,118.91Z"/><path class="cls-5" d="M65.38,149.83l.18,0h0l-.14,0c-.06,0-.06,0,0,0Z"/><path class="cls-3" d="M71.6,147.31A3.88,3.88,0,0,1,68.81,150H65.93l.49-.47A19,19,0,0,0,68,147.88,13.41,13.41,0,0,0,71.6,147.31Z"/><path class="cls-3" d="M89,147.91A8.31,8.31,0,0,1,85.71,150h-3.3a6.71,6.71,0,0,1-.83-.25c.48-.39,1.08-.9,1.76-1.56A26.63,26.63,0,0,0,89,147.91Z"/><path class="cls-4" d="M83.34,148.19c-.68.66-1.28,1.17-1.76,1.56a6.4,6.4,0,0,1-.84-.34c-.17-.08-.33-.17-.49-.26a3,3,0,0,1-.42-.27,5.27,5.27,0,0,1-1.44-1.47A21.72,21.72,0,0,0,83.34,148.19Z"/><path class="cls-3" d="M113.36,124.38a9.14,9.14,0,0,1-1.92,4.26h0a6.53,6.53,0,0,1-1.72,1.44l-.23.13h0l-.26.13-.46.19-.2.07-.13,0-.12,0-.28.06H108l-.1,0h-.06l-.1,0h0l-.33,0a3.32,3.32,0,0,1-.46,0h-.34l-.35,0-.25,0a3.73,3.73,0,0,1-.44-.08l-.34-.08c-.2-.06-.41-.13-.61-.21h0a4,4,0,0,1-.42-.2,4.4,4.4,0,0,1-.51-.29c-.16-.1-.32-.21-.49-.34a5.92,5.92,0,0,1-.49-.41l-.16-.15-.16-.15h0c0-.07,0-.15.08-.24l.12-.29.36-.77s6.59,2.65,6.51-6.56a35.93,35.93,0,0,1,3.71-2.14l0,0A13.68,13.68,0,0,1,113.36,124.38Z"/><path class="cls-4" d="M61.13,147l.48.6a7,7,0,0,0,.88.91A5.75,5.75,0,0,0,65.4,150h.53l.49-.47A19,19,0,0,0,68,147.88,23.68,23.68,0,0,1,61.13,147Z"/><path class="cls-6" d="M62.73,123.85c.47.14.88.53,1.36.47.08,0,.18,0,.23,0a.22.22,0,0,1,.05.17v1a.32.32,0,0,1,0,.17.3.3,0,0,1-.17.1,5.84,5.84,0,0,1-2,.25,1.09,1.09,0,0,1-.59-.16,1.45,1.45,0,0,1-.4-1.3c0-.37.41-.58.73-.7A1.37,1.37,0,0,1,62.73,123.85Z"/><path class="cls-6" d="M68.44,125.4a.44.44,0,0,1,.2.13.33.33,0,0,1-.12.42c-.13.1-.3.14-.43.24-.37.28-.4.84-1,.86a2.2,2.2,0,0,1-1.42-.52,1,1,0,0,1-.44-1c.14-.5.78-.5,1.2-.5A5.81,5.81,0,0,1,68.44,125.4Z"/><path class="cls-6" d="M71.23,126.88l.4.42a.21.21,0,0,1,.06.1c0,.09-.12.13-.22.13l-1.12,0c-.19,0-.63.08-.75-.12s0-.37.1-.5a1.17,1.17,0,0,1,.66-.42A.85.85,0,0,1,71.23,126.88Z"/><path class="cls-6" d="M65.27,142.77a1.33,1.33,0,0,1,1-.54c.38,0,.77,0,1.16,0a3.2,3.2,0,0,1,1.69.14,1.5,1.5,0,0,1,.62,1.57,3.93,3.93,0,0,1-.82,1.58,3.31,3.31,0,0,1-1.46,1.22c0,.17-1.55.13-1.7.13-.33,0-.93.12-1.14-.23s0-.66.06-.92a8.75,8.75,0,0,0,.43-1.28C65.18,143.89,65,143.27,65.27,142.77Z"/><path class="cls-6" d="M68.27,140.59a3,3,0,0,0,.44-2.08.64.64,0,0,0-.11-.39.62.62,0,0,0-.34-.15l-4.07-.91A2,2,0,0,0,63,137a1.05,1.05,0,0,0-.35,1.61c.3.33.78.42,1.1.74s.25.87.58,1.2a3.13,3.13,0,0,0,2.36.7A2.19,2.19,0,0,0,68.27,140.59Z"/><path class="cls-6" d="M47.59,121.08a1.53,1.53,0,0,1-.08,1.65,1.46,1.46,0,0,1-1.15.84.21.21,0,0,1-.13,0,.22.22,0,0,1-.07-.09,11,11,0,0,1-.62-1.24,1.1,1.1,0,0,1-.11-.5,1,1,0,0,1,.2-.46c.19-.31.5-.8.91-.82A1.64,1.64,0,0,1,47.59,121.08Z"/><path class="cls-6" d="M38.64,116.78c.36-.59.76-1.17,1.18-1.73a1.07,1.07,0,0,1,.33-.34,1,1,0,0,1,.63-.09,2.58,2.58,0,0,1,2.08,1.57,1.23,1.23,0,0,1,.08.82,1.68,1.68,0,0,1-.84.84l-1.45.85a2.15,2.15,0,0,1-1.5.43c-.39-.09-1-.48-1-.9A2.49,2.49,0,0,1,38.64,116.78Z"/><path class="cls-6" d="M64.07,141.31a1.64,1.64,0,0,1,.25,1.55,4.89,4.89,0,0,1-.8,1.42.78.78,0,0,1-.24.24.74.74,0,0,1-.33,0h-.73a2.14,2.14,0,0,1-.91-.13.71.71,0,0,1-.42-.74,1.36,1.36,0,0,1,.21-.37,2.55,2.55,0,0,0,.39-1.52c0-.51-.49-1.15-.11-1.61S63,139,63.26,140c.08.31,0,.54.23.8S63.9,141.11,64.07,141.31Z"/><path class="cls-6" d="M60.24,140.63a6.4,6.4,0,0,0,.1.88,1,1,0,0,1-.27.81c-.38.3-1,0-1.23-.4s-.35-.91-.63-1.31-.52-.55-.74-.86a.94.94,0,0,1-.14-1.05,1.18,1.18,0,0,1,.78-.39,14.68,14.68,0,0,1,2.08-.3.91.91,0,0,1,.61.1.65.65,0,0,1,.14.77,4.08,4.08,0,0,1-.44.72,2.23,2.23,0,0,0-.26,1.56"/><path class="cls-6" d="M58.85,137.05a1.9,1.9,0,0,0,.64-1.38,5,5,0,0,0-.21-1.54,40.26,40.26,0,0,0-1.32-4.3,1,1,0,0,0-.86-.8,2.22,2.22,0,0,0-2.12.27c-.64.65-.36,1.71-.42,2.61,0,.37-.12.72-.13,1.09a5.15,5.15,0,0,0,.52,2l.53,1.27A3.7,3.7,0,0,0,56,137.4c.38.41,1.21.12,1.69,0A2.27,2.27,0,0,0,58.85,137.05Z"/><path class="cls-6" d="M56.37,127.87a2.1,2.1,0,0,0,.65-1.16,5,5,0,0,0-.31-3.33,2.16,2.16,0,0,0-.54-.76,2.42,2.42,0,0,0-1.54-.4,8.74,8.74,0,0,0-2.22.31.82.82,0,0,0-.36.18.83.83,0,0,0-.2.55,9.18,9.18,0,0,0,.51,3.92c.15.4.34,1.17.8,1.33s.87-.14,1.25-.22C55.08,128.15,55.78,128.33,56.37,127.87Z"/><path class="cls-6" d="M57,122.47l.75,2.9a.7.7,0,0,0,.26.47c.31.2.69-.13.89-.45a7.07,7.07,0,0,0,1-2.63.52.52,0,0,0,0-.25.46.46,0,0,0-.29-.21,5.86,5.86,0,0,0-1.8-.39.85.85,0,0,0-.57.1.34.34,0,0,0-.08.5Z"/><path class="cls-6" d="M54,121.87a.33.33,0,0,0,.41-.3,2.3,2.3,0,0,0-1.14-2.5,4,4,0,0,1-.65-.34c-.36-.27-.6-.77-1-.81a.77.77,0,0,0-.72.46,1.88,1.88,0,0,0-.14.91,3.55,3.55,0,0,0,.44,1.66,1.93,1.93,0,0,0,1.19.92A13.14,13.14,0,0,0,54,121.87Z"/><path class="cls-6" d="M49.86,115.13a3.15,3.15,0,0,0-.73-1.25,1.51,1.51,0,0,0-1.35-.41,1.91,1.91,0,0,0-1,.88,10.19,10.19,0,0,1-.76,1.17c-.35.4-.84.7-1.07,1.19a1.34,1.34,0,0,0,.19,1.42,5.1,5.1,0,0,0,1.62,1c.43.22.92.54,1.41.34a4.07,4.07,0,0,0,1.19-1,2.49,2.49,0,0,0,.73-1.46A4.15,4.15,0,0,0,49.86,115.13Z"/><path class="cls-6" d="M44.8,119.14a1.06,1.06,0,0,1,.21,1c-.1.27-.35.47-.45.74s.06.92-.23,1.22a.74.74,0,0,1-.94,0c-.27-.2-.46-.5-.72-.73-.53-.45-2.51-.76-2.05-1.84a1.65,1.65,0,0,1,1-.72,4.53,4.53,0,0,1,1.65-.39A2.05,2.05,0,0,1,44.8,119.14Z"/><path class="cls-6" d="M47,112.36a2.53,2.53,0,0,0-.07-2,5.44,5.44,0,0,1-.52-1.95,2.09,2.09,0,0,0,0-.9,1.08,1.08,0,0,0-.94-.54,3.09,3.09,0,0,0-2.55,1.48c-.59.84-1,1.83-1.5,2.69a1.48,1.48,0,0,0-.35,1c.09.55.79.72,1.27,1,.66.41,1.09,1.32,1.93,1.44s1.31-.85,1.84-1.28A3.27,3.27,0,0,0,47,112.36Z"/><path class="cls-6" d="M70.51,140.26a1.47,1.47,0,0,1,.81-1.38,2,2,0,0,1,.55-.14l4.17-.67a.63.63,0,0,1,.83.43,6.09,6.09,0,0,1,.54,2.26.85.85,0,0,1,0,.32.68.68,0,0,1-.28.25,3.53,3.53,0,0,1-.9.3,26.31,26.31,0,0,1-3.53.61,1.65,1.65,0,0,1-1.58-.46A2.84,2.84,0,0,1,70.51,140.26Z"/><path class="cls-6" d="M79.61,140.84a1.82,1.82,0,0,1,.84-1.35,2.7,2.7,0,0,1,1.56-.42.51.51,0,0,1,.3.06.54.54,0,0,1,.15.21c.56,1.19.09,2.58-.38,3.81a4.64,4.64,0,0,1-.74,1.41,1.56,1.56,0,0,1-1.51.59,3.7,3.7,0,0,1-1.47-1,2.33,2.33,0,0,1-.81-1.17c-.08-.53.48-.74.89-.86a2.13,2.13,0,0,0,.88-.36C79.61,141.48,79.59,141.18,79.61,140.84Z"/><path class="cls-6" d="M84.5,145.56a2,2,0,0,0,1-.53,4.13,4.13,0,0,0,.5-1.38,16.14,16.14,0,0,1,1.1-1.76,2.82,2.82,0,0,0,.33-1.26,1.14,1.14,0,0,0-.3-.91,1.36,1.36,0,0,0-.73-.27,3.07,3.07,0,0,0-2.12.13,2.92,2.92,0,0,0-1.1,2.27,3.93,3.93,0,0,1-.86,2.41,3,3,0,0,0-.41.39.93.93,0,0,0-.07,1.06.94.94,0,0,0,1.06.4C83.42,146,84,145.74,84.5,145.56Z"/><path class="cls-6" d="M88.88,137.86a2.29,2.29,0,0,0,1.94-1,9.1,9.1,0,0,0,.37-.85c.25-.52.67-.94.92-1.46a1.91,1.91,0,0,0-.36-2.31,2.66,2.66,0,0,0-2-.29,5.69,5.69,0,0,0-2.81,1.15,2.84,2.84,0,0,0-1,2.56,4.15,4.15,0,0,0,.59,1.41,1.13,1.13,0,0,0,.69.45A5.56,5.56,0,0,0,88.88,137.86Z"/><path class="cls-6" d="M92.36,130.41a1.28,1.28,0,0,0,.49-.29c.35-.37.19-1,.28-1.47A4.2,4.2,0,0,1,94,127.2a1.5,1.5,0,0,0,.22-1.57c-.34-.52-1.09-.53-1.7-.42a9.79,9.79,0,0,0-2.88,1,1.22,1.22,0,0,0-.46.38,1.1,1.1,0,0,0-.1.57,7,7,0,0,0,.21,2.24,2.57,2.57,0,0,0,1.22,1.52.84.84,0,0,0,.74,0Z"/><path class="cls-6" d="M95.24,124.13a1.33,1.33,0,0,1-.36.35,1.46,1.46,0,0,1-.72.15l-2.42.08c-.07-.52.44-.92.9-1.19l1.16-.69a5.73,5.73,0,0,1,1.07-.62c.49-.17,1.14.17,1,.75a2.87,2.87,0,0,1-.26.6C95.53,123.68,95.24,124,95.24,124.13Z"/><path class="cls-7" d="M91.14,129.26a10.38,10.38,0,0,1-10.35,10.36H69.09a10.37,10.37,0,0,1-9.88-7.3,10,10,0,0,1-.47-3.06,10.28,10.28,0,0,1,2.35-6.54c.06-.07.11-.14.18-.21A29.22,29.22,0,0,0,74.77,126a25.94,25.94,0,0,0,14.15-3.16l.35.48a10.17,10.17,0,0,1,1.87,5.91Z"/><path class="cls-8" d="M91.14,129.26a10.38,10.38,0,0,1-10.35,10.36H69.09a10.37,10.37,0,0,1-9.88-7.3,20.62,20.62,0,0,0,13.84,5.12c9.31-.13,14.09-1.25,17.85-10.41A10.29,10.29,0,0,1,91.14,129.26Z"/><path class="cls-6" d="M100.58,117.11a4.46,4.46,0,0,1,.41-.78.83.83,0,0,1,1.49.06,2.88,2.88,0,0,1,.27.92l.61,3.63a1.1,1.1,0,0,1,0,.57.91.91,0,0,1-.38.42,3.7,3.7,0,0,1-2.37.38,1.78,1.78,0,0,1-.86-.23,1.85,1.85,0,0,1-.41-.47l-.54-.77a2,2,0,0,1-.47-1.21.74.74,0,0,1,.35-.55,2.6,2.6,0,0,1,.54-.17,1.18,1.18,0,0,0,.39-.38c.17-.21.34-.43.5-.65A6,6,0,0,0,100.58,117.11Z"/><path class="cls-6" d="M107.73,119.57a1.26,1.26,0,0,1,.28.64,1.23,1.23,0,0,1-.55.88,14.21,14.21,0,0,1-2.19,1.51.53.53,0,0,1-.36.09.43.43,0,0,1-.23-.23c-.72-1.29-.32-2.9-.7-4.33a4.46,4.46,0,0,1-.36-1.47.86.86,0,0,1,.6-.7.81.81,0,0,1,.74-.07,2.34,2.34,0,0,1,.54.63c.37.47.74.94,1.09,1.43S107.36,119,107.73,119.57Z"/><path class="cls-6" d="M103.63,123a1,1,0,0,1,.28.7,2.69,2.69,0,0,1,0,.85.91.91,0,0,1-.49.66,3.71,3.71,0,0,1-.65.12,1.4,1.4,0,0,1-.39.1.93.93,0,0,1-.42-.18c-.45-.32-1.28-.83-1.12-1.49s.94-.82,1.48-.87A2.09,2.09,0,0,1,103.63,123Z"/><path class="cls-9" d="M104.46,109.73a2.59,2.59,0,0,1,1.79-.92.57.57,0,0,1,.43,0,.63.63,0,0,1,.2.28,36.54,36.54,0,0,1,1.38,3.6,1,1,0,0,1,0,.94.81.81,0,0,1-.39.23,3,3,0,0,1-2-.14,4.44,4.44,0,0,1-.9-.51,3.4,3.4,0,0,1-.72-.64c-.14-.2,0-.61,0-.85s0-.67,0-1A2,2,0,0,1,104.46,109.73Z"/><path class="cls-9" d="M108.82,114.81a.66.66,0,0,0,.3-.15c.14-.14.14-.37.24-.54a.67.67,0,0,1,.93-.11,1.87,1.87,0,0,1,.59.84l.46,1a3.11,3.11,0,0,1,.21.5,3.31,3.31,0,0,1,0,1.47,1.41,1.41,0,0,1-.16.54,1.2,1.2,0,0,1-.82.46,2.83,2.83,0,0,1-2.36-.71,5.94,5.94,0,0,1-.64-.77l-.71-1a1.4,1.4,0,0,1-.32-.63c-.08-.56.44-.53.81-.64S108.35,115,108.82,114.81Z"/><path class="cls-9" d="M48.38,123.81a1.21,1.21,0,0,1,.9-.14,1.11,1.11,0,0,1,.44.12.86.86,0,0,1,.28.29,2.18,2.18,0,0,1,.33.89.73.73,0,0,1,0,.33.75.75,0,0,1-.15.24l-.94,1.2a1,1,0,0,1-.32.29.74.74,0,0,1-.8-.34,4.19,4.19,0,0,0-.48-.63c-.22-.19-.49-.23-.54-.56a.4.4,0,0,1,.22-.41,2.33,2.33,0,0,0,.55-.49C48.05,124.36,48.13,124,48.38,123.81Z"/><path class="cls-9" d="M98.84,128.28l-.75,1.95a0,0,0,0,1,0,0,.11.11,0,0,1,0,0c0,.18-.24.78-.54,1.67l-.76,0a1,1,0,0,1-.84-.33,1,1,0,0,1-.11-.44,6.62,6.62,0,0,1,.13-1.83,1.58,1.58,0,0,1,2.67-1.21Z"/><path class="cls-9" d="M95.32,137.69a49.6,49.6,0,0,1-2.56,5.1,4.58,4.58,0,0,1-2,0,.93.93,0,0,1-.59-.34c-.18-.29,0-.67.15-1,.5-.89,1-1.78,1.49-2.68a3.43,3.43,0,0,1,.84-1.11,2.31,2.31,0,0,1,1.9-.28A2.82,2.82,0,0,1,95.32,137.69Z"/><path class="cls-9" d="M87.56,144.65a17.63,17.63,0,0,1,2.1-.89.45.45,0,0,1,.3,0c.13,0,.17.22.18.36a7.09,7.09,0,0,1,0,1.66,2.21,2.21,0,0,1-.26,1,2.5,2.5,0,0,1-2,.83,1.12,1.12,0,0,1-1-.22,1.05,1.05,0,0,1-.18-.65,4,4,0,0,1,.09-1.42,1.41,1.41,0,0,1,1-1Z"/><path class="cls-3" d="M112,138.79s-11.7.79-2.37-4.11l.75-.44Z"/><path class="cls-10" d="M112.74,94.44l-.52-.22a3.39,3.39,0,0,1-.39-.18l-.37-.19-.09,0c-.27-.15-.54-.31-.79-.48l0,0a2.2,2.2,0,0,1-.25-.17,11.8,11.8,0,0,1-1.73-1.44c-.19-.19-.37-.38-.54-.58s-.35-.4-.52-.62-.33-.43-.49-.66-.31-.46-.46-.7-.3-.49-.44-.74l-.47-.9c.43.08.86.16,1.29.22l.51.07c.3,0,.6.08.9.11s.36,0,.54.06l.35,0A23.23,23.23,0,0,1,112.74,94.44Z"/><path class="cls-1" d="M87.85,80.28a3.54,3.54,0,0,0,4.85-1l5.85-8.87-5.82-3.84L86.84,75.5A3.42,3.42,0,0,0,87.85,80.28Z"/><path class="cls-3" d="M92.73,66.56l5.82,3.84,1.93-2.92a3.44,3.44,0,0,0-1-4.78,3.5,3.5,0,0,0-4.83,1Z"/><path class="cls-2" d="M62.15,80.28a3.53,3.53,0,0,1-1.91.56,3.5,3.5,0,0,1-2.93-1.57L51.45,70.4l4.18-2.76a66.2,66.2,0,0,1,3.11,10A44.9,44.9,0,0,0,63,75.19l.2.31A3.42,3.42,0,0,1,62.15,80.28Z"/><path class="cls-4" d="M55.63,67.64,51.45,70.4l-1.92-2.92a3.43,3.43,0,0,1,1-4.78,3.49,3.49,0,0,1,2-.57A22,22,0,0,1,55.63,67.64Z"/><path class="cls-3" d="M57.27,66.56l-1.64,1.08a22,22,0,0,0-3.11-5.51,3.49,3.49,0,0,1,2.86,1.57Z"/><path class="cls-6" d="M63,75.19a44.9,44.9,0,0,1-4.22,2.48,66.2,66.2,0,0,0-3.11-10l1.64-1.08Z"/><path class="cls-10" d="M35,98.55a3.48,3.48,0,0,1,.12-1.13,1.54,1.54,0,0,1,1.06-1.1,1.43,1.43,0,0,1,1.38.58,3.78,3.78,0,0,1,.52.72,1.52,1.52,0,0,0-.22.08,2.2,2.2,0,0,0-.35-.48,1.22,1.22,0,0,0-1.18-.48c-.37.11-.61.44-.73,1a2.89,2.89,0,0,0-.08.65Z"/><path class="cls-11" d="M49.26,83.88c-1.25.4-2.5.74-3.73,1a34,34,0,0,1-19.35-1Q21.64,94.64,33.08,99c.65-.15,1.3-.31,1.93-.48a3.47,3.47,0,0,1,.13-1.13,1.52,1.52,0,0,1,1-1.1,1.41,1.41,0,0,1,1.38.58,3.82,3.82,0,0,1,.53.72c.62-.21,1.24-.43,1.85-.67a43.24,43.24,0,0,0,9.89-5.35ZM32.93,96.77Q24.7,93.6,28,85.88a29.92,29.92,0,0,0,16.43,1.06l-.35,1Q41.28,95.51,32.93,96.77Z"/><path class="cls-10" d="M28,85.88q-3.26,7.73,5,10.89Q41.29,95.51,44,87.89l.35-1A29.92,29.92,0,0,1,28,85.88Zm15.56,2.51a13,13,0,0,1-10.16,7q-5-1.57-5.57-5.24a8.79,8.79,0,0,1,.35-3.74A29.83,29.83,0,0,0,44,87.49Z"/><path class="cls-12" d="M28.13,86.36A29.86,29.86,0,0,0,44,87.49l-.48.9a12.93,12.93,0,0,1-10.16,7c-3.33-1-5.18-2.8-5.57-5.24A8.79,8.79,0,0,1,28.13,86.36Z"/><path class="cls-1" d="M49.84,91.6A43.24,43.24,0,0,1,40,97a28.39,28.39,0,0,0,5.58-12.06c1.23-.27,2.48-.61,3.73-1Z"/><path class="cls-11" d="M100,88.39,99.8,91.6c.51.37,1,.73,1.56,1.07C100.92,91.26,100.43,89.67,100,88.39Zm23.42-4.51A33.32,33.32,0,0,1,107,85.43a25.14,25.14,0,0,1,1.82,2,29.22,29.22,0,0,0,12.82-1.59q3.25,7.73-5,10.89a17.2,17.2,0,0,1-2.93-.7c1.44,1.37,3.89,1.49,6.67,1Q127.1,92.53,123.46,83.88Z"/><path class="cls-10" d="M121.68,85.88a29.22,29.22,0,0,1-12.82,1.59c.13.16.26.33.38.5.38,0,.75.06,1.13.07h.28c.71,0,1.41,0,2.11,0l.81,0c.51,0,1-.08,1.53-.14l.92-.13c.31,0,.61-.09.91-.15.49-.08,1-.19,1.46-.31.32-.07.64-.15,1-.24s.64-.17,1-.27.81-.26,1.21-.4a8.79,8.79,0,0,1,.35,3.74q-.57,3.66-5.57,5.24a13,13,0,0,1-1.41-.25l-.32-.07-.5-.13a2.07,2.07,0,0,1-.33-.1,3,3,0,0,1-.39-.13l-.59-.22a3.93,3.93,0,0,0,1,1.63h0a17.2,17.2,0,0,0,2.93.7Q124.93,93.6,121.68,85.88Z"/><path class="cls-13" d="M113.77,96.07a12.63,12.63,0,0,1-8.17-8.18l-.36-1a31,31,0,0,0,3.62.53c.13.16.26.33.38.5l-.35,0c-.18,0-.36,0-.54-.06s-.6-.06-.9-.11l-.51-.07c-.43-.06-.86-.14-1.29-.22l.47.9c.14.25.28.5.44.74s.3.48.46.7.32.45.49.66.34.42.52.62a7.41,7.41,0,0,0,.54.58,11.8,11.8,0,0,0,1.73,1.44,2.2,2.2,0,0,0,.25.17l0,0c.25.17.52.33.79.48l.09,0,.37.19a3.39,3.39,0,0,0,.39.18l.52.22A3.93,3.93,0,0,0,113.77,96.07Z"/><path class="cls-12" d="M121.85,90.1q-.57,3.66-5.57,5.24a13,13,0,0,1-1.41-.25l-.32-.07-.5-.13a2.07,2.07,0,0,1-.33-.1,3,3,0,0,1-.39-.13l-.59-.22a23.23,23.23,0,0,0-3.5-6.47c.38,0,.75.06,1.13.07h.28c.71,0,1.41,0,2.11,0,.27,0,.54,0,.81,0,.51,0,1-.08,1.53-.14a9.26,9.26,0,0,0,.92-.13c.31,0,.61-.09.91-.15.49-.08,1-.19,1.46-.31.32-.06.63-.15,1-.24s.64-.17,1-.27.81-.26,1.21-.4A8.79,8.79,0,0,1,121.85,90.1Z"/><path class="cls-11" d="M65.36,68.78a1.57,1.57,0,0,1-.25-.77,6.5,6.5,0,0,1-.06-1.26c0-.44.19-.52.48-.25a4.43,4.43,0,0,1,.81,1.12,4.39,4.39,0,0,1,.46,1.31q.09.58-.15.72c-.17.09-.39,0-.69-.28Z"/><path class="cls-14" d="M82.37,68.69a1.58,1.58,0,0,1,.56-.58A5.79,5.79,0,0,1,84,67.47c.4-.19.55-.09.44.3A4.05,4.05,0,0,1,83.85,69a4.25,4.25,0,0,1-.93,1c-.32.24-.56.31-.71.21s-.18-.35-.07-.74S82.32,68.84,82.37,68.69Z"/><path class="cls-14" d="M81.8,68.61a1.46,1.46,0,0,1,.08-.81,5.73,5.73,0,0,1,.47-1.17q.3-.59.54,0A4.25,4.25,0,0,1,83.16,68a4.16,4.16,0,0,1-.11,1.37c-.11.39-.26.59-.44.6s-.35-.17-.51-.54S81.85,68.76,81.8,68.61Z"/><path class="cls-14" d="M120.45,97a18.37,18.37,0,0,1-3.89,2,46.08,46.08,0,0,1-15.2-6.36c-.44-1.41-.93-3-1.32-4.28l.34-4.51A40.94,40.94,0,0,0,107,85.43a25.14,25.14,0,0,1,1.82,2,31,31,0,0,1-3.62-.53l.36,1a12.63,12.63,0,0,0,8.17,8.18h0C115.22,97.44,117.67,97.56,120.45,97Z"/><path class="cls-2" d="M104.85,99.26c0-.65-.08-1.3-.15-2a34.65,34.65,0,0,0-4.5-14.75A24.57,24.57,0,0,0,96.3,77h0a29.46,29.46,0,0,0-19.82-9.65c-.56-.06-1.13-.09-1.71-.11a25.77,25.77,0,0,0-10.95,2,30.1,30.1,0,0,0-8.55,5.5,25.34,25.34,0,0,0-2.46,2.39c-.58.62-1.21,1.35-1.85,2.18-.35.45-.7.93-1,1.43-.12.18-.26.36-.38.53v0c-.16.26-.33.52-.49.79s-.27.44-.4.67a22.22,22.22,0,0,0-1.44,3.12,13.71,13.71,0,0,0-.47,1.41c0,.1-.06.2-.09.3s0,.15,0,.22a28.91,28.91,0,0,0-1.09,4.71,34.65,34.65,0,0,0-.38,4.77c0,.47,0,.94,0,1.4,0,.22,0,.44,0,.65s0,.35,0,.52a30.31,30.31,0,0,0,.35,3.36,27.33,27.33,0,0,0,2.16,7.33h0a24.85,24.85,0,0,0,2.47,4.26,26.72,26.72,0,0,0,3.62,4.09Q62.59,127,75.42,127a33.69,33.69,0,0,0,11-1.76l.93-.34a30,30,0,0,0,9.76-6.06q.66-.6,1.26-1.23L99,117q.19-.21.36-.42l.35-.42c.23-.28.45-.57.66-.86s.33-.45.49-.68.31-.46.45-.69.33-.54.48-.81l.3-.54a4.63,4.63,0,0,0,.28-.54c.1-.18.18-.37.27-.56.18-.37.35-.75.5-1.14,0,0,0,0,0,0q.12-.27.21-.54c.13-.33.25-.68.35-1s.17-.53.24-.79q.22-.8.39-1.62a3.4,3.4,0,0,0,.09-.46c0-.24.09-.47.13-.71s.09-.6.12-.91.07-.56.09-.84.05-.43.06-.65,0-.55,0-.82c0-.43,0-.87,0-1.31S104.87,99.72,104.85,99.26ZM83.12,73.68a9.87,9.87,0,0,1,3.68.07h0A9.9,9.9,0,0,1,90,75a9,9,0,0,1,4.1,5.55,8.71,8.71,0,0,1-.84,6.22,57.25,57.25,0,0,0-3.54-5.35s0,0,0,0a75.42,75.42,0,0,0-6-7.07l-.56-.59h0l0,0Zm13.15,41.53a24.25,24.25,0,0,1-3.5,4.1l-.09.08a24.23,24.23,0,0,1-9.11,5.43l-3.53.82-2.24.27c-.77.07-1.56.1-2.37.1-.64,0-1.28,0-1.9-.07a27.9,27.9,0,0,1-5.41-.87,24.52,24.52,0,0,1-10.61-6A23.12,23.12,0,0,1,51,109.14l-.1-.38v0c-.1-.31-.18-.62-.26-.94v0a15.76,15.76,0,0,1-.32-1.55q-.17-.95-.24-1.92c0-.37-.06-.74-.07-1.12s0-.6,0-.91v-.33c0-.33,0-.65.05-1v0c0-.13,0-.27,0-.4a5.7,5.7,0,0,1,.15-1.29,9.27,9.27,0,0,1,1.73-3.6A12.7,12.7,0,0,1,54.68,93l.72-.47c.4-.24.82-.48,1.27-.71l.22-.11.39-.19.07,0c.35-.16.71-.32,1.09-.46l.4-.16h0l.21-.07q.7-.27,1.5-.51c.51-.15,1-.3,1.6-.43.94-.24,1.94-.45,3-.62,1.31-.21,2.73-.38,4.27-.49.51,0,1-.07,1.58-.09,1.12-.06,2.31-.08,3.55-.08h.82c1.25,0,2.43.06,3.55.12h0l.54,0,1,.08c1.47.12,2.83.3,4.08.52h0c.72.12,1.4.26,2.05.41l.68.15c1,.24,1.89.51,2.72.8.5.17,1,.35,1.41.53l.12,0,0,0,.29.12.15.07.36.16.42.21.12,0h0l.71.38A16.48,16.48,0,0,1,96,94l.21.18.21.18c.12.12.25.23.36.35a7.08,7.08,0,0,1,.54.57l.21.23c.19.23.37.47.53.69a1.7,1.7,0,0,1,.15.22l.11.19a8.88,8.88,0,0,1,.84,1.65s0,0,0,0a15.46,15.46,0,0,1,.46,2.29c0,.12,0,.23,0,.35a22.68,22.68,0,0,1,.13,2.39A20.84,20.84,0,0,1,96.27,115.21Z"/><path class="cls-1" d="M104.88,100.63a28.88,28.88,0,0,1-.35,4.53,22.88,22.88,0,0,1-7.42,13.71,30,30,0,0,1-9.76,6.06,33.62,33.62,0,0,0,5.33-5.54l.09-.08,0,0a23.63,23.63,0,0,0,3.42-4l0-.05c.23-.35.45-.7.67-1a19.91,19.91,0,0,0,1.48-3.09,18.27,18.27,0,0,0,.6-1.81,22.08,22.08,0,0,0,.77-5.07c0-.3,0-.61,0-.91,0-.6,0-1.18-.07-1.74l-.06-.65c0-.12,0-.23,0-.35a15.46,15.46,0,0,0-.46-2.29s0,0,0,0c-.08-.2-.17-.42-.28-.64a8,8,0,0,0-.56-1l-.11-.19a1.7,1.7,0,0,0-.15-.22c-.16-.22-.34-.46-.53-.69l-.21-.23a7.08,7.08,0,0,0-.54-.57s0,0,0,0a40.72,40.72,0,0,0-3.24-7.32A81.57,81.57,0,0,0,83.12,73.69h0L83,73.52c-1.93-2-4.08-4.07-6.48-6.18A29.46,29.46,0,0,1,96.3,77h0a24.57,24.57,0,0,1,3.9,5.55,34.65,34.65,0,0,1,4.5,14.75c.07.66.12,1.31.15,2C104.87,99.72,104.88,100.18,104.88,100.63Z"/><path class="cls-15" d="M60.89,71.63a1.92,1.92,0,0,0-1.62,3,1.94,1.94,0,0,0,1.62.87,1.92,1.92,0,0,0,1.61-.88,1.89,1.89,0,0,0,.3-1A1.91,1.91,0,0,0,60.89,71.63Z"/><path class="cls-15" d="M88.71,71.63a1.92,1.92,0,0,0-1.62,3,1.94,1.94,0,0,0,1.62.87,1.92,1.92,0,0,0,1.61-.88,1.89,1.89,0,0,0,.3-1A1.91,1.91,0,0,0,88.71,71.63Z"/><path class="cls-16" d="M89.69,81.77A8.23,8.23,0,0,1,81.47,90H68.54a8.25,8.25,0,0,1-8.23-8.22,8.28,8.28,0,0,1,8.23-8.23H81.47a9.51,9.51,0,0,1,1.31.1A8.27,8.27,0,0,1,89.69,81.77Z"/><path class="cls-17" d="M89.69,81.77A8.23,8.23,0,0,1,81.47,90H77.1s5.5-2,7.1-6.25c1.3-3.43-.64-8.36-1.42-10.1A8.27,8.27,0,0,1,89.69,81.77Z"/><circle class="cls-18" cx="84.19" cy="80.86" r="2.88"/><circle class="cls-18" cx="65.63" cy="80.86" r="2.88"/><path class="cls-6" d="M54.68,93a12.7,12.7,0,0,0-2.79,2.61c-.29-.11-.47-.43-.79-.48a3.13,3.13,0,0,0-.53,0h-.64a1.36,1.36,0,0,1-.72-.12,1.41,1.41,0,0,1-.51-1.15c-.06-.51-.12-1-.17-1.54a1.53,1.53,0,0,1,.1-1,1.5,1.5,0,0,1,.75-.52,3,3,0,0,1,1.09-.31,3.28,3.28,0,0,1,1.84.7l1.26.79A3.06,3.06,0,0,1,54.68,93Z"/><path class="cls-6" d="M49,89.84c-.2.39-.7.51-1,.8a1.14,1.14,0,0,0-.41.84c0,.13.06.23.06.35a.68.68,0,0,1-.19.43,1.18,1.18,0,0,1-.62.31,2.32,2.32,0,0,1-1.28-.09h0a28.91,28.91,0,0,1,1.09-4.71c0-.07,0-.14,0-.22s.05-.2.09-.3h.17a2.34,2.34,0,0,1,2.18,2A1.09,1.09,0,0,1,49,89.84Z"/><path class="cls-6" d="M46.09,95.41a1.74,1.74,0,0,1,1.11.09c.35.2.55.63.94.73.21.06.44,0,.64.06.4.12.55.6.61,1a11.32,11.32,0,0,1,0,3.13,1.85,1.85,0,0,1-.2.74.77.77,0,0,1-.62.41c-.49,0-.74-.59-1.15-.85s-.76-.22-1.08-.44a1.88,1.88,0,0,1-.64-1.41,10.46,10.46,0,0,1-.11-1.77A11.11,11.11,0,0,0,45.7,96a.58.58,0,0,1,0-.41A.62.62,0,0,1,46.09,95.41Z"/><path class="cls-6" d="M50.87,108.76a1.54,1.54,0,0,1-.37,0,1.89,1.89,0,0,1-.79-.09,1.94,1.94,0,0,1-.78-.75,15.05,15.05,0,0,1-2.41-4.27,2.47,2.47,0,0,1-.11-1.08,1,1,0,0,1,.2-.48c.12-.14.34,0,.49,0l.77.19a2.12,2.12,0,0,1,1.17.57,1.18,1.18,0,0,0,.25.25c.2.1.44,0,.67,0,0,.38,0,.75.07,1.12q.07,1,.24,1.92a15.76,15.76,0,0,0,.32,1.55v0c.08.32.16.63.26.94Z"/><path class="cls-6" d="M52.67,115.17a.94.94,0,0,1-.72,0q-.9-.19-1.8-.45a24.85,24.85,0,0,1-2.47-4.26h0l.15-.09A4.15,4.15,0,0,1,49.2,110a1.22,1.22,0,0,1,.57,0,1.15,1.15,0,0,1,.51.39,17.62,17.62,0,0,1,1.9,2.49,4.55,4.55,0,0,1,.69,1.52A.79.79,0,0,1,52.67,115.17Z"/><path class="cls-6" d="M94,91.35a1.69,1.69,0,0,1-.37,1L92.94,92h0l-.12,0-.42-.21L92,91.53l-.15-.07-.29-.12,0,0-.12,0c-.44-.18-.91-.36-1.41-.53-.83-.29-1.74-.56-2.72-.8.13-.35.25-.71.38-1.06a3,3,0,0,1,.37-.77,3,3,0,0,1,1.53-.86,1.12,1.12,0,0,1,.57-.08,1.18,1.18,0,0,1,.5.25,10,10,0,0,1,3.11,3.1A1.92,1.92,0,0,1,94,91.35Z"/><path class="cls-9" d="M96.79,117.66a1.66,1.66,0,0,1-.18.94c-.22.34-.66.46-1,.71s-.53.62-.85.87a.87.87,0,0,1-1,.14c-.24-.19-.42-.51-.65-.73s-.21-.21-.31-.32a23.63,23.63,0,0,0,3.42-4c.12,0,.24,0,.36,0A11.05,11.05,0,0,1,96.79,117.66Z"/><path class="cls-9" d="M101.8,112.65a5.58,5.58,0,0,1-1,.57c-.53.3-1,.75-1.48,1.08a2.22,2.22,0,0,1-1.33.43,1.64,1.64,0,0,1-1.07-.57,19.91,19.91,0,0,0,1.48-3.09,1.79,1.79,0,0,1,.46.09,2.14,2.14,0,0,0,.47.15c.46.06.87-.28,1.29-.45a2,2,0,0,1,1.13-.12.45.45,0,0,1,.23.08.49.49,0,0,1,.14.21A1.43,1.43,0,0,1,101.8,112.65Z"/><path class="cls-9" d="M102.58,105.2a3.21,3.21,0,0,1-.14,1,17.88,17.88,0,0,1-.74,2.17,1,1,0,0,1-.69.64c-.34.09-.69.16-1,.23a3,3,0,0,1-1,.05,22.08,22.08,0,0,0,.77-5.07h1.44a1.62,1.62,0,0,1,.9.18A1.11,1.11,0,0,1,102.58,105.2Z"/><path class="cls-9" d="M104,98.56a3.26,3.26,0,0,1-.72,1.61c-.73,1-2.1,2.58-3.41,1.46l-.09-.09-.06-.65c0-.12,0-.23,0-.35a15.46,15.46,0,0,0-.46-2.29s0,0,0,0c-.08-.2-.17-.42-.28-.64a1.06,1.06,0,0,0,.09-.25,4.4,4.4,0,0,0-.1-1.44,1.24,1.24,0,0,1,.46-1.27,1.43,1.43,0,0,1,1,0,16.9,16.9,0,0,1,2.11.59,1.64,1.64,0,0,1,.89.57,2.61,2.61,0,0,1,.25,1.05A9,9,0,0,1,104,98.56Z"/><path class="cls-9" d="M101.82,91.45a2.4,2.4,0,0,0-1-1.9,4,4,0,0,0-2.12-.65,2.3,2.3,0,0,0-2.24,1,2.88,2.88,0,0,0,.15,2.17,1.45,1.45,0,0,0,.8,1,3.6,3.6,0,0,0,1.31.07,7.08,7.08,0,0,0,2.06-.08A1.75,1.75,0,0,0,101.82,91.45Z"/><path class="cls-9" d="M96.35,88.3a.72.72,0,0,1-.37-.11,5.63,5.63,0,0,1-1.93-2.14l-1-1.63c-.29-.45-.54-1.13-.11-1.46a1.07,1.07,0,0,1,.5-.17,12.69,12.69,0,0,1,1.85-.13,3.63,3.63,0,0,1,1.53.26,2.9,2.9,0,0,1,1.38,1.56,6.83,6.83,0,0,1,.38,2.1c0,.56-.12,1.12-.77,1.07a.86.86,0,0,0-.64.15C96.91,88,96.67,88.3,96.35,88.3Z"/><path class="cls-9" d="M99.67,85.41l-.14,2a.68.68,0,0,0,0,.35c.11.2.38.22.59.3s.62.46,1,.43a.72.72,0,0,0,.57-.72,2.06,2.06,0,0,0-.29-1L101,86a1.62,1.62,0,0,0-.66-.81c-.32-.15-.81,0-.81.38"/><path class="cls-6" d="M60.57,90.32q-.8.24-1.5.51l-.21.07h0l-.4.16c-.38.14-.74.3-1.09.46l-.07,0-.39.19-.22.11A8,8,0,0,1,55,90.46c-.48-.5-1.2-1.19-.33-1.7,1.62-.92,3.84.16,5.32.87a1,1,0,0,1,.48.37A.71.71,0,0,1,60.57,90.32Z"/><path class="cls-6" d="M53.76,88.3c.32-.83,1.77-.77,2-1.63a1,1,0,0,0-.62-1.13,3,3,0,0,0-1.37-.2H51.06c-.42,0-.93.05-1.11.43a1.18,1.18,0,0,0-.05.62L50.19,89a.94.94,0,0,0,.16.52,1,1,0,0,0,.78.22l1.47,0a.86.86,0,0,0,.59-.15c.33-.3,0-.87.16-1.31"/><path class="cls-6" d="M54.83,83.36c0,.14,0,.52-.12.61s-.31,0-.43-.07a6.6,6.6,0,0,0-1.54,0,12.64,12.64,0,0,0-1.83.2A1.44,1.44,0,0,1,50,84a1.17,1.17,0,0,1-.42-.51A6,6,0,0,1,49.05,82c.16-.27.33-.53.49-.79v0c.12-.17.26-.35.38-.53.34-.5.69-1,1-1.43a6.38,6.38,0,0,1,2.09.06,1.9,1.9,0,0,1,1.1.53,1.8,1.8,0,0,1,.31.58A6.63,6.63,0,0,1,54.83,83.36Z"/><path class="cls-4" d="M79.35,68.29l0,.07v0a0,0,0,0,1,0,0,0,0,0,0,1,0,0,1.22,1.22,0,0,1-.2.35,4.4,4.4,0,0,1-1.93,1.29,7.25,7.25,0,0,1-2.31.37,5.13,5.13,0,0,1-1.51-.14,2.73,2.73,0,0,1-1.3-.66,4.24,4.24,0,0,1-.6-.73,2.93,2.93,0,0,1-.74-2,3,3,0,0,1-.08-1,.55.55,0,0,1,.11-.31c.08-.1.21-.14.31-.23a1,1,0,0,0,.23-.69,6,6,0,0,1,.81-2.5,10.33,10.33,0,0,1,.6-.87l1-1.44a1.47,1.47,0,0,1,.56-.52h0c.47-.18,1,.2,1.25.62a3.89,3.89,0,0,0,.88,1.22,4,4,0,0,1,.8.48c.33.35.27.91.47,1.34s.76.77,1,1.23A2.79,2.79,0,0,1,79,65.33c.11.78.22,1.57.32,2.35A1.15,1.15,0,0,1,79.35,68.29Z"/><path class="cls-19" d="M79.35,68.29l0,.07v0a0,0,0,0,1,0,0,0,0,0,0,1,0,0,1.22,1.22,0,0,1-.2.35,4.4,4.4,0,0,1-1.93,1.29,7.25,7.25,0,0,1-2.31.37,5.13,5.13,0,0,1-1.51-.14,8.33,8.33,0,0,0,.82-.34,1.35,1.35,0,0,0,.22-.14,2.24,2.24,0,0,0,.53-.4,3.15,3.15,0,0,0,.63-.82c.15-.27.25-.65,0-.87s-.52-.19-.61-.43.08-.37.24-.49a1.21,1.21,0,0,0,.41-.4.59.59,0,0,0,0-.43,1.39,1.39,0,0,0-.21-.27,3.71,3.71,0,0,1-.58-.54.49.49,0,0,1,.1-.69,1.94,1.94,0,0,1,.42-.07c.41-.11.5-.69.29-1.05a4.32,4.32,0,0,0-.88-.88.76.76,0,0,1-.27-.44,1.09,1.09,0,0,1,.13-.55,2.12,2.12,0,0,0-.09-1.71,3.26,3.26,0,0,1-.18-.38h0c.47-.18,1,.2,1.25.62a3.89,3.89,0,0,0,.88,1.22,4,4,0,0,1,.8.48c.33.35.27.91.47,1.34s.76.77,1,1.23A2.79,2.79,0,0,1,79,65.33c.11.78.22,1.57.32,2.35A1.15,1.15,0,0,1,79.35,68.29Z"/></svg>