<svg id="Camada_1" data-name="Camada 1" xmlns="http://www.w3.org/2000/svg" viewBox="0 0 150 150"><defs><style>.cls-1{fill:#defcea;}.cls-2{fill:#99c9b1;}.cls-3{fill:#9ac191;}.cls-4{fill:#88b27e;}.cls-5{fill:#6e9b74;}.cls-6{fill:#4e7159;}.cls-7{fill:#68876f;}.cls-8{fill:#6b8e72;}.cls-9{fill:none;}.cls-10{fill:#79aa87;}</style></defs><rect class="cls-1" width="150" height="150"/><path class="cls-2" d="M31.87,62.83,0,68.1V27C7.13,32,23.3,44.74,31.87,62.83Z"/><path class="cls-2" d="M37.62,57.75s23-29.84,70.28-14.43S113.79,83,113.79,83s-25.95,9.78-35.26,6.58S46.07,78,46.07,78Z"/><path class="cls-2" d="M150,2V94.06C135.24,82.2,96.3,49.15,96.3,49.15l22.19,4.43S131.85,16.37,150,2Z"/><rect class="cls-3" y="82.31" width="150" height="67.69"/><rect class="cls-4" y="128.45" width="150" height="21.55"/><path class="cls-5" d="M101.42,82.31a4.93,4.93,0,0,0-4.88-4.19,5.12,5.12,0,0,0-1,.09,7.33,7.33,0,0,0-8.46-3.73,7.64,7.64,0,0,0-13.54,1.23,6.29,6.29,0,0,0-1.9-.29,6.45,6.45,0,0,0-6.07,4.29,4,4,0,0,0-1.72-.39A4,4,0,0,0,60.63,81a2.78,2.78,0,0,0-1.53-.46,2.85,2.85,0,0,0-2.65,1.8Z"/><path class="cls-6" d="M101.42,84.71a4.94,4.94,0,0,0-4.88-4.2,5.13,5.13,0,0,0-1,.1,7.33,7.33,0,0,0-8.46-3.73A7.64,7.64,0,0,0,73.58,78.1a6.61,6.61,0,0,0-1.9-.28,6.45,6.45,0,0,0-6.07,4.28,4.09,4.09,0,0,0-1.72-.39,4,4,0,0,0-3.26,1.65,2.84,2.84,0,0,0-4.18,1.35Z"/><rect class="cls-3" y="81.99" width="149.46" height="18.26"/><path class="cls-7" d="M23.59,128.45H0v-8.89a3.71,3.71,0,0,1,.29.27A6.48,6.48,0,0,1,3.56,119c2.31,0,4.25,1.1,4.83,2.59a10.77,10.77,0,0,1,1.91-.17c3.81,0,7,1.93,7.63,4.47.23,0,.46,0,.7,0C21,125.83,23,126.94,23.59,128.45Z"/><path class="cls-6" d="M110.32,130a5.72,5.72,0,0,0-5.65-4.86,5.8,5.8,0,0,0-1.11.11A8.51,8.51,0,0,0,96,120.58a8.65,8.65,0,0,0-2.24.3,8.84,8.84,0,0,0-15.68,1.42,7.23,7.23,0,0,0-2.2-.33,7.45,7.45,0,0,0-7,5,4.67,4.67,0,0,0-5.77,1.46A3.28,3.28,0,0,0,58.25,130Z"/><path class="cls-8" d="M53.44,112.77H0V106.6a10.45,10.45,0,0,1,4-.79,10.34,10.34,0,0,1,5.33,1.45,9.08,9.08,0,0,1,3.46-2.36,3.9,3.9,0,0,1-.25-1.36c0-2.44,2.26-4.42,5-4.42a5.48,5.48,0,0,1,2.92.83,10.65,10.65,0,0,1,6.53-2.16,10.27,10.27,0,0,1,8.5,4.21,7.38,7.38,0,0,1,3.24-.74,6.59,6.59,0,0,1,6.54,4.55h0C49.77,105.81,53.36,108.91,53.44,112.77Z"/><path class="cls-6" d="M150,132.32V150H107.32A8.39,8.39,0,0,1,118,148.76,11.93,11.93,0,0,1,132.72,145a19.19,19.19,0,0,1,4.95-7.55A18.9,18.9,0,0,1,150,132.32Z"/><polyline class="cls-9" points="84.04 150 150 150 150 131.74"/><polyline class="cls-9" points="0 11.26 0 1.72 0 0 0.87 0 0.88 0"/><path class="cls-10" d="M147.24,29.16h-.12L144.81,29l-1.31,0c-.9,0-1.8,0-2.69.08a49.07,49.07,0,0,0-5.45.57c-1.59.25-3.15.58-4.69,1-1.2.31-2.36.66-3.53,1.06h0a47.45,47.45,0,0,0-4.59,1.8.4.4,0,0,0-.16.08h0c-.43.18-.85.38-1.27.59s-.72.35-1.09.54h0c-.79.4-1.57.82-2.34,1.28h0c-.6.35-1.2.71-1.79,1.1-.29.17-.57.35-.85.55s-.64.42-1,.65c-1.2.83-2.37,1.72-3.49,2.66-.55.45-1.08.92-1.61,1.41h0c-.34.3-.67.61-1,.93-.58.55-1.16,1.12-1.7,1.71q-1,1.06-2,2.19c-.57.66-1.12,1.34-1.64,2-.13.16-.26.33-.37.49a8.86,8.86,0,0,0-.53.72h0a4.84,4.84,0,0,0-.33.46,49.9,49.9,0,0,0-4.95,8.74L91.6,70.5l-7.73-9a19.45,19.45,0,0,0-1.54-1.6,19.2,19.2,0,0,0-2.68-2.1,19,19,0,0,0-3.89-2,19.85,19.85,0,0,0-3.81-1,8.46,8.46,0,0,0-.88-.11,18.42,18.42,0,0,0-2.35-.15,19.83,19.83,0,0,0-14.3,6l-4.06,4.14-2,2-5.25-6.86c-.71-.93-1.45-1.83-2.23-2.69A46,46,0,0,0,22.66,44.66l-.82-.3-.69-.23c-.84-.29-1.68-.55-2.54-.78A44.34,44.34,0,0,0,12.4,42.1c-.33-.05-.67-.09-1-.12l-.82-.08-.8-.07c-1.16-.09-2.33-.13-3.5-.13A45,45,0,0,0,0,42.13V84.24H150V29.43Q148.64,29.25,147.24,29.16Z"/><path class="cls-5" d="M150,63.39V93.05H0v-22L.3,71c.39-.13.79-.26,1.19-.37a16.43,16.43,0,0,1,.61-2.44,16.64,16.64,0,0,1,1.84-3.85,16.27,16.27,0,0,1,1.69-2.2A16.68,16.68,0,0,1,8.9,59.3a17,17,0,0,1,21,1.83,15.63,15.63,0,0,1,6.7-1.5,15.33,15.33,0,0,1,4.26.59,15.66,15.66,0,0,1,9.47,7.52,15.47,15.47,0,0,1,2,7.57v0a15.92,15.92,0,0,1,8.06,6.49A11.5,11.5,0,0,1,61,83h52.76a4.21,4.21,0,0,1-.25-1.23v0a4.38,4.38,0,0,1,.41-2.17l.21-.42v0a12.09,12.09,0,0,1,1-1.66,10.25,10.25,0,0,1,6.28-4.15,8.42,8.42,0,0,1,1.74-.18c.43-4.86,3.94-8.64,8.21-8.64a7.21,7.21,0,0,1,3.51.92,10.52,10.52,0,0,1,.91-1,11.51,11.51,0,0,1,3.74-2.51,10.35,10.35,0,0,1,6.35-.48A10.82,10.82,0,0,1,150,63.39Z"/><path class="cls-7" d="M150,101.09v11.43H126.17a5.12,5.12,0,0,1,5.06-4.34,5.36,5.36,0,0,1,1,.09,7.61,7.61,0,0,1,6.76-4.13,7.8,7.8,0,0,1,2,.27,7.9,7.9,0,0,1,6.68-3.68A7.52,7.52,0,0,1,150,101.09Z"/><path class="cls-7" d="M150,88.61v9.08H139.41a2,2,0,0,1-1.94-1.64,5.94,5.94,0,0,1-.05-.76c0-2.09,2.4-2.57,2.4-2.69,0-3.82,2.75-5.7,6.14-5.7A5.75,5.75,0,0,1,150,88.61Z"/><path class="cls-7" d="M12.24,96.5H0V88.43a7,7,0,0,1,2.87.63,7.32,7.32,0,0,1,3.24,2.81,4.74,4.74,0,0,1,.31.54,5,5,0,0,1,1-.09A4.91,4.91,0,0,1,12.24,96.5Z"/></svg>