<svg id="Camada_1" data-name="Camada 1" xmlns="http://www.w3.org/2000/svg" viewBox="0 0 150 150"><defs><style>.cls-1{fill:#d1e3e8;}.cls-2,.cls-3{fill:#a0c1a7;}.cls-2{opacity:0.5;}.cls-4{fill:#f7f0ed;}.cls-5{fill:#7e9e85;}.cls-6{fill:#77967c;}.cls-7{fill:#708e76;}.cls-8{fill:#7e997f;}.cls-9{fill:#709176;}.cls-10{fill:#799b7e;}.cls-11{fill:#67876b;}.cls-12{fill:#ba8e83;}.cls-13{fill:#683d33;}.cls-14{fill:#4e7159;}</style></defs><rect class="cls-1" x="0.02" width="150" height="150"/><path class="cls-2" d="M87.63,88.67s46.45.22,49.78.54c2.11.2,8.32-2,12.59-3.66v-3.7c-6.68-3.17-18.91-9-22.11-8.58C123.6,73.8,95.3,84,91.28,84S87.63,88.67,87.63,88.67Z"/><path class="cls-3" d="M62.37,85.56s-46.45.22-49.78.54c-2.11.2-8.32-2-12.59-3.66v-3.7c6.68-3.17,18.91-9,22.11-8.58,4.29.53,32.59,10.7,36.61,10.7S62.37,85.56,62.37,85.56Z"/><path class="cls-4" d="M94.59,23.62a16.36,16.36,0,0,1,11.36-5s1.42-5,8.51-4.73c0,0,2.84-3.31,8.28-1.42,0,0,4.26-3.07,8,2.13,0,0,3.55-1.84,4.5,3a4.82,4.82,0,0,1,5.91,2.94s4.26.23,5.44,3.07Z"/><path class="cls-4" d="M5.86,36.73a16.33,16.33,0,0,1,11.35-5s1.42-5,8.52-4.73c0,0,2.84-3.31,8.28-1.42,0,0,4.25-3.07,8,2.13,0,0,3.55-1.85,4.49,3a4.84,4.84,0,0,1,5.92,2.94s4.25.23,5.44,3.07Z"/><polygon class="cls-5" points="150.02 81.48 150.02 130.69 0 124.31 0 81.48 150.02 81.48"/><path class="cls-6" d="M150,80.68v2.48a4,4,0,0,1-.78.07H0V81.14a6.88,6.88,0,0,1,3.88-.3,16.27,16.27,0,0,0,4.52.75c1.26-.1,2.21-.6,3.43-.79,2.68-.39,5.42.88,8.18.63,1.73-.15,3-.89,4.79-1,2.39-.2,4.59.78,7,.74a17.5,17.5,0,0,0,5.45-1.33,31,31,0,0,1,8-1.4,4.34,4.34,0,0,1,1.51.12c.79.28.53.87,1,1.28a5.54,5.54,0,0,0,2.92.62A234.69,234.69,0,0,0,76.31,80a5.92,5.92,0,0,0,1.83-.32,6.39,6.39,0,0,0,1-.69,5.22,5.22,0,0,1,4.18-.12,10.4,10.4,0,0,0,1.14.68,7.51,7.51,0,0,0,2.35.28c8.83.16,17.86.31,26.27-1a15.69,15.69,0,0,1,3.93-.29c1.72.17,2.92.92,4.52,1.28,3.88.86,8.69-.77,12.62,0a10.11,10.11,0,0,0,3.41.5,4.57,4.57,0,0,0,1.69-.61A7.58,7.58,0,0,1,142,79c1.11-.1,2.42.21,2.6.73.06.19,0,.39.14.56.4.43,1.69.32,2.66.25A9.17,9.17,0,0,1,150,80.68Z"/><polygon class="cls-7" points="150.02 130.69 150.02 149.35 0 142.97 0 124.31 150.02 130.69"/><polygon class="cls-5" points="0 142.97 150.02 149.35 150.02 150 0 150 0 142.97"/><path class="cls-8" d="M11.87,146.36,9,149.87H.71L0,148.93v-1.61a5.42,5.42,0,0,1,1.56,1.53L0,144v-1.18a18.48,18.48,0,0,1,3,4.93l-.1-7.38c.85,1.51,1.53,5.36,1.93,7,.18-1.9.95-5.67,1.93-7l-.1,7.38a12.29,12.29,0,0,1,3.59-5.54l-2.12,6.6A6.37,6.37,0,0,1,11.87,146.36Z"/><path class="cls-9" d="M150,99.42v6.71h-5.85c-1.69,0-3.06-1-3.06-2.4a2.57,2.57,0,0,1,1.87-2.33.08.08,0,0,1,0,0,3.79,3.79,0,0,1,2.09-2.09,5.64,5.64,0,0,1,4.93.16Z"/><path class="cls-10" d="M146.29,100.78a1.7,1.7,0,1,1-1.7-1.6A1.65,1.65,0,0,1,146.29,100.78Z"/><path class="cls-10" d="M150,101.46v1.88a1,1,0,0,1-.63-.94A1.05,1.05,0,0,1,150,101.46Z"/><path class="cls-10" d="M149.08,100.45a.83.83,0,1,1-.83-.78A.81.81,0,0,1,149.08,100.45Z"/><path class="cls-9" d="M6.46,95.57a1.35,1.35,0,0,1-1.41,1.21H1.21A2.06,2.06,0,0,1,0,96.41V94.27A1.8,1.8,0,0,1,.51,94s0,0,0,0a2.26,2.26,0,0,1,1.23-1.22,3.29,3.29,0,0,1,1.35-.28,2.44,2.44,0,0,1,2.69,2.09v0A1.16,1.16,0,0,1,6.46,95.57Z"/><path class="cls-10" d="M2.45,93.64a1,1,0,0,1-1,.94.94.94,0,1,1,0-1.88A1,1,0,0,1,2.45,93.64Z"/><path class="cls-10" d="M5.57,94.59A.65.65,0,1,1,4.92,94,.63.63,0,0,1,5.57,94.59Z"/><path class="cls-10" d="M4.09,93.44A.49.49,0,1,1,3.6,93,.48.48,0,0,1,4.09,93.44Z"/><path class="cls-11" d="M23.59,128.45H0v-8.89a3.71,3.71,0,0,1,.29.27A6.48,6.48,0,0,1,3.56,119c2.31,0,4.25,1.1,4.83,2.59a10.77,10.77,0,0,1,1.91-.17c3.81,0,7,1.93,7.63,4.47.23,0,.46,0,.7,0C21,125.83,23,126.94,23.59,128.45Z"/><path class="cls-11" d="M53.44,112.77H0V106.6a10.45,10.45,0,0,1,4-.79,10.34,10.34,0,0,1,5.33,1.45,9.08,9.08,0,0,1,3.46-2.36,3.9,3.9,0,0,1-.25-1.36c0-2.44,2.26-4.42,5-4.42a5.48,5.48,0,0,1,2.92.83,10.65,10.65,0,0,1,6.53-2.16,10.27,10.27,0,0,1,8.5,4.21,7.38,7.38,0,0,1,3.24-.74,6.59,6.59,0,0,1,6.54,4.55h0C49.77,105.81,53.36,108.91,53.44,112.77Z"/><path class="cls-11" d="M150,101.09v11.43H126.17a5.12,5.12,0,0,1,5.06-4.34,5.36,5.36,0,0,1,1,.09,7.61,7.61,0,0,1,6.76-4.13,7.8,7.8,0,0,1,2,.27,7.9,7.9,0,0,1,6.68-3.68A7.52,7.52,0,0,1,150,101.09Z"/><path class="cls-9" d="M150,88.61v9.08H139.41a2,2,0,0,1-1.94-1.64,5.94,5.94,0,0,1-.05-.76c0-2.09,2.4-2.57,2.4-2.69,0-3.82,2.75-5.7,6.14-5.7A5.75,5.75,0,0,1,150,88.61Z"/><path class="cls-9" d="M12.24,96.5H0V88.43a7,7,0,0,1,2.87.63,7.32,7.32,0,0,1,3.24,2.81,4.74,4.74,0,0,1,.31.54,5,5,0,0,1,1-.09A4.91,4.91,0,0,1,12.24,96.5Z"/><path class="cls-12" d="M93.8,92.52l-.1-.15h0Z"/><path class="cls-13" d="M93.8,92.52l-.1-.15h0Z"/><path class="cls-8" d="M116.69,149H127l3.54-4.34a7.86,7.86,0,0,0-4.61,3.08l2.63-8.19a15.27,15.27,0,0,0-4.45,6.88l.12-9.16c-1.22,1.65-2.17,6.33-2.39,8.69-.5-2-1.34-6.82-2.4-8.69l.12,9.16a21.38,21.38,0,0,0-4.45-6.81l2.64,8.12a9.52,9.52,0,0,0-4.46-3.23Z"/><path class="cls-14" d="M150,132.32V150H107.32A8.39,8.39,0,0,1,118,148.76,11.93,11.93,0,0,1,132.72,145a19.19,19.19,0,0,1,4.95-7.55A18.9,18.9,0,0,1,150,132.32Z"/></svg>