<svg id="Camada_1" data-name="Camada 1" xmlns="http://www.w3.org/2000/svg" viewBox="0 0 150 150"><defs><style>.cls-1{fill:#d1e3e8;}.cls-2{fill:#f7f0ed;}.cls-3{fill:#968781;}.cls-4{fill:#d8d0bc;}.cls-5{fill:#9b897b;}.cls-6{fill:#6b5a56;}.cls-7{fill:#826e68;}.cls-8{fill:#63524d;}.cls-9{fill:#7f5434;}.cls-10{fill:#93653f;}.cls-11{fill:#aa7a4f;}.cls-12{opacity:0.2;}.cls-13{fill:#5d5d5d;}.cls-14{fill:#80beb9;}.cls-15{fill:#3a3a3a;}</style></defs><rect class="cls-1" x="36.69" y="17.61" width="77.12" height="57.92"/><path class="cls-2" d="M51.16,33.72H36.69V28a4.41,4.41,0,0,1,2.53.19s2.13-1.54,4,1.06c0,0,1.77-.92,2.25,1.49a2.4,2.4,0,0,1,2.95,1.47S50.57,32.3,51.16,33.72Z"/><path class="cls-2" d="M102.35,63.26h10.46V57.33s-2.35-1.22-3,2a3.19,3.19,0,0,0-3.9,1.93S103.12,61.39,102.35,63.26Z"/><rect class="cls-3" x="46.04" y="44.63" width="57.92" height="3.89" transform="translate(28.43 121.57) rotate(-90)"/><rect class="cls-3" x="36.69" y="74.07" width="76.62" height="1.46"/><path class="cls-4" d="M0,0V150H150V0ZM113.31,75.53H36.69V17.61h76.62Z"/><rect class="cls-5" y="107.26" width="150" height="42.74"/><rect class="cls-3" x="36.69" y="17.61" width="76.62" height="1.46"/><rect class="cls-3" x="8.47" y="45.84" width="57.92" height="1.46" transform="translate(-9.15 84) rotate(-90)"/><rect class="cls-3" x="83.62" y="45.84" width="57.92" height="1.46" transform="translate(66.01 159.15) rotate(-90)"/><rect class="cls-3" x="36.94" y="46.05" width="76.14" height="4.1"/><path class="cls-2" d="M82.29,44.41A8.13,8.13,0,0,1,88,41.93s.71-2.49,4.26-2.37a3.74,3.74,0,0,1,4.14-.71s2.13-1.54,4,1.06c0,0,1.77-.92,2.24,1.49a2.42,2.42,0,0,1,3,1.47s2.13.12,2.72,1.54Z"/><path class="cls-6" d="M117.51,9.25V116.83H150V9.25Z"/><rect class="cls-7" x="121.13" y="11.36" width="20.36" height="57.9"/><rect class="cls-7" x="121.13" y="71.96" width="28.87" height="18.85"/><rect class="cls-7" x="121.13" y="94.07" width="28.87" height="18.85"/><rect class="cls-7" x="142.68" y="11.36" width="7.32" height="57.9"/><circle class="cls-8" cx="138.55" cy="41.32" r="1.31"/><circle class="cls-8" cx="145.42" cy="41.32" r="1.31"/><circle class="cls-8" cx="142.17" cy="81.39" r="1.31"/><circle class="cls-8" cx="142.17" cy="103.52" r="1.31"/><rect class="cls-9" y="88.03" width="26.16" height="26.31"/><rect class="cls-10" y="90.16" width="0.89" height="26.54"/><rect class="cls-11" x="0.89" y="90.16" width="23.52" height="22.4"/><rect class="cls-10" x="24.41" y="90.16" width="1.76" height="26.54"/><rect class="cls-12" x="0.89" y="105.61" width="23.52" height="0.64"/><rect class="cls-12" x="0.89" y="97.4" width="23.52" height="0.64"/><rect class="cls-12" y="90.16" width="26.16" height="0.77"/><rect class="cls-10" x="0.89" y="112.56" width="23.52" height="1.78"/><path class="cls-10" d="M13.88,94.23c0,.54-.18,1-.39,1H11.81c-.22,0-.39-.43-.39-1h0c0-.54.17-1,.39-1h1.68c.21,0,.39.43.39,1Z"/><rect class="cls-11" y="88.02" width="27.96" height="2.14"/><rect class="cls-13" x="5.34" y="84.94" width="14.62" height="3.08"/><rect class="cls-13" x="11.88" y="60.42" width="1.54" height="24.51"/><polygon class="cls-14" points="20.15 60.74 5.15 60.74 7.66 43.6 17.15 43.6 20.15 60.74"/><rect class="cls-15" x="11.88" y="60.74" width="1.54" height="0.57"/><path class="cls-10" d="M13.88,101.82c0,.53-.18,1-.39,1H11.81c-.22,0-.39-.44-.39-1h0c0-.54.17-1,.39-1h1.68c.21,0,.39.43.39,1Z"/><path class="cls-10" d="M13.88,109.4c0,.54-.18,1-.39,1H11.81c-.22,0-.39-.43-.39-1h0c0-.53.17-1,.39-1h1.68c.21,0,.39.44.39,1Z"/></svg>