<svg id="Camada_1" data-name="Camada 1" xmlns="http://www.w3.org/2000/svg" viewBox="0 0 150 150"><defs><style>.cls-1,.cls-15{fill:#353130;}.cls-2{fill:#0f0d0d;}.cls-16,.cls-3{fill:#121419;}.cls-4{fill:#727272;}.cls-5{fill:#53575e;}.cls-6{fill:#848484;}.cls-7{fill:#616770;}.cls-8{fill:#b5a5a3;}.cls-9{fill:#494d54;}.cls-10{fill:#ccc2ba;}.cls-11{fill:#683d33;}.cls-12{fill:#d8b295;}.cls-13{fill:#fff;}.cls-14{fill:#001a2b;stroke:#001a2b;stroke-miterlimit:10;}.cls-15,.cls-16{fill-rule:evenodd;}</style></defs><path class="cls-1" d="M48.16,101.9l-.06,0h.08Zm17.22,47.93h0s0,0,0,0l.14,0h0Zm0,0h0s0,0,0,0l.14,0h0Zm47.7-30.94a28.25,28.25,0,0,0-3-7.39l-.35-.56a.61.61,0,0,0-.07-.18l-.33-.46-.05-.08h0a37.09,37.09,0,0,0-7.56-8.42,32.8,32.8,0,0,1-2.46,8.87,26.15,26.15,0,0,1-7.85,10.5c-.3.24-.62.47-.94.69-.5.36-1,.69-1.58,1a25.49,25.49,0,0,1-13.15,3.18l-1,0h0a29.28,29.28,0,0,1-13.45-3.52c-.34-.19-.67-.39-1-.59s-.83-.54-1.23-.83C49.18,114,48.1,102,48.1,102c-3.24,2.48-5.48,5.64-7.64,8.85a23.23,23.23,0,0,0-3.3,7.71,1.26,1.26,0,0,0-.06.21c-.32,1-1.5,5.53.48,8.81a6.54,6.54,0,0,0,2.39,2.3,6,6,0,0,0,.67.34,4.79,4.79,0,0,0,.65.25,5.73,5.73,0,0,0,1.21.29,6,6,0,0,0,1.11,0l.3,0,.33-.05.33-.07a3.36,3.36,0,0,0,.48-.14,2.74,2.74,0,0,0,.4-.15l.67-.32a8.18,8.18,0,0,0,1.65-1.21,9.77,9.77,0,0,0,1.57-1.84l.43-.38,1.07-.94.1.23s0,0,0,0a2,2,0,0,1,.09.3c.11.61.24,1.21.38,1.8,0,.15.06.29.1.45a40.24,40.24,0,0,0,4,10.06c.09.18.18.34.27.49h0a3.37,3.37,0,0,1,.23.4c.25.44.52.88.79,1.31h0s0,0,0,0l0,0,.07.12A67.35,67.35,0,0,0,61.13,147a23.68,23.68,0,0,0,6.83.89,13.41,13.41,0,0,0,3.64-.57c.2-.48.36-1,.5-1.41.09-.24.16-.46.24-.67a.19.19,0,0,0,0-.07l.59-1.48h0a2,2,0,0,1,1.82-.79,2.28,2.28,0,0,1,.67.17,5.71,5.71,0,0,1,1.08.59l.26.18a4.49,4.49,0,0,1,.56,1.14c.06.17.12.34.19.5a5.77,5.77,0,0,0,.85,1.95,21.72,21.72,0,0,0,5,.78,26.63,26.63,0,0,0,5.61-.28c5.25-5,8.85-16.71,9.12-17.62a.11.11,0,0,0,0,0,0,0,0,0,0,0,0c.43-1.1.85-2.21,1.27-3.33.11-.29.24-.57.37-.85,0,0,0,0,0,0a23.65,23.65,0,0,0,2.54,2.81h0l.16.15.16.15a5.92,5.92,0,0,0,.49.41c.17.13.33.24.49.34a4.4,4.4,0,0,0,.51.29l.46.2a6.5,6.5,0,0,1-1.9-1.24l-.32-.3a7.12,7.12,0,0,1,.55-1.27s0,0,0,0c.09-.17.19-.35.31-.54.15.26.31.51.47.75a10.51,10.51,0,0,0,1.79,2,8.77,8.77,0,0,0,1.39,1,3.32,3.32,0,0,0,.46,0l.33,0h0l.1,0h.06l.1,0H108l.28-.06.12,0,.13,0,.2-.07.46-.19.26-.13h0l.23-.13a6.71,6.71,0,0,0,1.72-1.47,26.39,26.39,0,0,0-2.06-7.59A35.93,35.93,0,0,1,113.08,118.89Z"/><path d="M47.78,128.8a7.27,7.27,0,0,1-3.21,1.8l-.33.07-.33.05-.3,0a6,6,0,0,1-1.11,0,5.73,5.73,0,0,1-1.21-.29,8.46,8.46,0,0,1-1.28-.59,6.54,6.54,0,0,1-2.39-2.3c2,.44,4.89.37,8.05-2.42a11.35,11.35,0,0,1,2.1,3.67S47.78,128.79,47.78,128.8Z"/><path class="cls-2" d="M40,129.83a8.46,8.46,0,0,0,1.28.59,6.32,6.32,0,0,1-1.32-.59,6.54,6.54,0,0,1-2.39-2.3c-2-3.28-.8-7.79-.48-8.81a27.87,27.87,0,0,1,8.57,6.39c-3.16,2.79-6.1,2.86-8.05,2.42A6.54,6.54,0,0,0,40,129.83Z"/><path class="cls-2" d="M113.36,124.38a9.14,9.14,0,0,1-1.92,4.26h0a6.53,6.53,0,0,1-1.72,1.44l-.23.13h0l-.26.13-.46.19-.2.07-.13,0-.12,0-.28.06H108l-.1,0h-.06l-.1,0h0l-.33,0a3.32,3.32,0,0,1-.46,0h-.34l-.35,0-.25,0a3.73,3.73,0,0,1-.44-.08l-.34-.08c-.2-.06-.41-.13-.61-.21h0a4,4,0,0,1-.42-.2,4.4,4.4,0,0,1-.51-.29c-.16-.1-.32-.21-.49-.34a5.92,5.92,0,0,1-.49-.41l-.16-.15-.16-.15h0c0-.07,0-.15.08-.24l.12-.29c.09-.22.21-.48.36-.77l.31-.52a10.58,10.58,0,0,1,.76-1.11,20,20,0,0,1,3.58-3.59c.56-.44,1.18-.89,1.86-1.34a35.93,35.93,0,0,1,3.71-2.14l0,0A13.68,13.68,0,0,1,113.36,124.38Z"/><path d="M113.36,124.38a9.14,9.14,0,0,1-1.92,4.26h0a6.53,6.53,0,0,1-1.72,1.44l-.23.13h0l-.26.13-.46.19-.2.07-.13,0-.12,0-.28.06H108l-.1,0h-.06l-.1,0h0l-.33,0a3.32,3.32,0,0,1-.46,0h-.34l-.35,0-.25,0a3.73,3.73,0,0,1-.44-.08l-.34-.08c-.2-.06-.41-.13-.61-.21h0a4,4,0,0,1-.42-.2,4.4,4.4,0,0,1-.51-.29c-.16-.1-.32-.21-.49-.34a5.92,5.92,0,0,1-.49-.41l-.16-.15-.16-.15h0c0-.07,0-.15.08-.24l.12-.29.36-.77s6.59,2.65,6.51-6.56a35.93,35.93,0,0,1,3.71-2.14l0,0A13.68,13.68,0,0,1,113.36,124.38Z"/><path class="cls-3" d="M76.53,143.64a5.71,5.71,0,0,0-1.08-.59,2.28,2.28,0,0,0-.67-.17,2,2,0,0,0-1.82.79h0l-.59,1.48a.19.19,0,0,1,0,.07c-.08.21-.15.43-.24.67-.14.45-.3.93-.5,1.41a13.41,13.41,0,0,1-3.64.57,13.47,13.47,0,0,0,2.16-3.38C71.24,141.82,75.16,141.9,76.53,143.64Z"/><path class="cls-3" d="M110.12,111.5l-.35-.56a.61.61,0,0,0-.07-.18l-.33-.46-.05-.08h0a37.09,37.09,0,0,0-7.56-8.42,32.8,32.8,0,0,1-2.46,8.87A20,20,0,0,1,109.37,121a35.93,35.93,0,0,1,3.71-2.14A28.25,28.25,0,0,0,110.12,111.5Z"/><path class="cls-3" d="M104.57,130.44l-.46-.2a4.4,4.4,0,0,1-.51-.29c-.16-.1-.32-.21-.49-.34a5.92,5.92,0,0,1-.49-.41l-.16-.15-.16-.15h0a23.65,23.65,0,0,1-2.54-2.81s0,0,0,0c-.13.28-.26.56-.37.85-.42,1.12-.84,2.23-1.27,3.33a0,0,0,0,1,0,0,.11.11,0,0,1,0,0c-.27.91-3.87,12.57-9.12,17.62a26.63,26.63,0,0,1-5.61.28c3-2.91,7.68-8.61,11.21-18.41a77.37,77.37,0,0,0,3.19-10.34,33.63,33.63,0,0,0,5.12,8.15.08.08,0,0,0,0,0,7.12,7.12,0,0,0-.55,1.27l.32.3A6.5,6.5,0,0,0,104.57,130.44Z"/><path class="cls-3" d="M50.34,118.91a22,22,0,0,1-4.67,6.2,11.35,11.35,0,0,1,2.1,3.67s0,0,0,0a10,10,0,0,0,1.14-1.23l.85-.75a14.62,14.62,0,0,1,1.18-.95,2,2,0,0,1,.09.3c.11.61.24,1.21.38,1.8,0,.15.06.29.1.45a40.24,40.24,0,0,0,4,10.06c-2-4-4.51-16.33-5-19C50.38,119.1,50.34,118.91,50.34,118.91Z"/><path class="cls-2" d="M61.13,147l.48.6a7,7,0,0,0,.88.91A5.75,5.75,0,0,0,65.4,150h.53l.49-.47A19,19,0,0,0,68,147.88,23.68,23.68,0,0,1,61.13,147Zm4.25,2.84h0s0,0,0,0l.14,0h0Z"/><path class="cls-1" d="M65.38,149.83l.18,0h0l-.14,0c-.06,0-.06,0,0,0Z"/><path d="M71.6,147.31A3.88,3.88,0,0,1,68.81,150H65.93l.49-.47A19,19,0,0,0,68,147.88,13.41,13.41,0,0,0,71.6,147.31Z"/><path d="M89,147.91A8.31,8.31,0,0,1,85.71,150h-3.3a6.71,6.71,0,0,1-.83-.25c.48-.39,1.08-.9,1.76-1.56A26.63,26.63,0,0,0,89,147.91Z"/><path class="cls-2" d="M83.34,148.19c-.68.66-1.28,1.17-1.76,1.56a6.4,6.4,0,0,1-.84-.34c-.17-.08-.33-.17-.49-.26a3,3,0,0,1-.42-.27,5.27,5.27,0,0,1-1.44-1.47A21.72,21.72,0,0,0,83.34,148.19Z"/><path class="cls-4" d="M73.22,134v0a2.44,2.44,0,0,1,0,.27v0a7.64,7.64,0,0,1-.28,1.8,1,1,0,0,1-.32.46,1.77,1.77,0,0,1-.56.31l-.23.08a21.42,21.42,0,0,1-5.16.22H66.6a.32.32,0,0,1-.19,0,.6.6,0,0,1-.19-.06l-.14-.08a1.76,1.76,0,0,1-.62-.69l-.13-.23a9.7,9.7,0,0,1-.73-2.37,0,0,0,0,1,0,0,.88.88,0,0,1,.27-.67.67.67,0,0,1,.28-.14,5.88,5.88,0,0,1,1.87.2h0l.29.07a13.44,13.44,0,0,0,3.53.19H71l.7,0h0l.23,0C73,133.14,73.19,133.75,73.22,134Z"/><path class="cls-5" d="M91.44,122.36s-1.93,14.38-6.84,15.57a37.89,37.89,0,0,1-9.16.46,37.81,37.81,0,0,1-9.15-.46c-4.92-1.19-6.84-15.57-6.84-15.57l.83-.44c.32.2.65.4,1,.59A29.28,29.28,0,0,0,74.72,126h0l1,0a25.49,25.49,0,0,0,13.15-3.18c.55-.32,1.08-.65,1.58-1Z"/><path class="cls-6" d="M74.72,126a17.72,17.72,0,0,1-1.43,5.36c-1.35,2.45-7.77.67-11.66,0a2.73,2.73,0,0,1-1.91-2c-.85-2.25-.81-5.91-.67-8.3a21.56,21.56,0,0,0,2.22,1.42A29.13,29.13,0,0,0,74.57,126Z"/><path class="cls-6" d="M88.86,131.39c-3.6.62-9.37,2.19-11.28.46a.76.76,0,0,1-.09-.09,1.53,1.53,0,0,1-.29-.37,17.59,17.59,0,0,1-1.43-5.34,25.49,25.49,0,0,0,13.15-3.18c.42-.24.83-.49,1.22-.76s.85-.59,1.26-.91l0,0C91.65,124.71,91.62,130.9,88.86,131.39Z"/><path class="cls-7" d="M88.86,131.39c-3.6.62-9.37,2.19-11.28.46a.76.76,0,0,1-.09-.09,13.9,13.9,0,0,0,6.15,0c4.22-.87,6.07-4.78,6.5-9.61.43-.29.85-.59,1.26-.91l0,0C91.65,124.71,91.62,130.9,88.86,131.39Z"/><path class="cls-7" d="M74.72,126a17.72,17.72,0,0,1-1.43,5.36c-1.35,2.45-7.77.67-11.66,0a2.73,2.73,0,0,1-1.91-2,8.06,8.06,0,0,0,3.43,1.49c3,.55,7.86,2.2,11.42-4.86Z"/><path class="cls-6" d="M85.76,133.7a0,0,0,0,1,0,0c-.33,1.7-.94,3.46-2.06,3.47-2.09,0-5.54.35-6.22-.93l-.06-.14a7,7,0,0,1-.28-2.1c0-.18.16-.89,1.25-.73l.23,0h0l.83.05a13.44,13.44,0,0,0,3.53-.19l.29-.07h0a5.88,5.88,0,0,1,1.87-.2.67.67,0,0,1,.28.14.52.52,0,0,1,.1.11A1,1,0,0,1,85.76,133.7Z"/><path class="cls-6" d="M73.22,134v0a2.44,2.44,0,0,1,0,.27v0a6.37,6.37,0,0,1-.27,1.8,1.06,1.06,0,0,1-.33.46,1.77,1.77,0,0,1-.56.31l-.23.08a21.42,21.42,0,0,1-5.16.22H66.6a.32.32,0,0,1-.19,0,.6.6,0,0,1-.19-.06l-.14-.08a2.1,2.1,0,0,1-.62-.69l0,0a1.18,1.18,0,0,1-.11-.19,9.7,9.7,0,0,1-.73-2.37,0,0,0,0,1,0,0,.88.88,0,0,1,.27-.67.67.67,0,0,1,.28-.14,5.88,5.88,0,0,1,1.87.2h0l.29.07a13.44,13.44,0,0,0,3.53.19H71l.7,0h0l.23,0c.66-.1,1,.12,1.12.35A.77.77,0,0,1,73.22,134Z"/><path class="cls-7" d="M85.76,133.7a0,0,0,0,1,0,0c-.33,1.7-.94,3.46-2.06,3.47-2.09,0-5.54.35-6.22-.93a10.52,10.52,0,0,0,2.21.38c.8,0,4.51.14,5.9-3.5A1,1,0,0,1,85.76,133.7Z"/><path class="cls-7" d="M73.22,134v0a2.44,2.44,0,0,1,0,.27v0a6.37,6.37,0,0,1-.27,1.8,1.06,1.06,0,0,1-.33.46,1.77,1.77,0,0,1-.56.31l-.23.08a21.42,21.42,0,0,1-5.16.22H66.6a.32.32,0,0,1-.19,0,.6.6,0,0,1-.19-.06l-.14-.08a2.1,2.1,0,0,1-.62-.69l0,0a7.54,7.54,0,0,0,3.62.34,5.67,5.67,0,0,0,4-3A.77.77,0,0,1,73.22,134Z"/><path class="cls-8" d="M103.12,78.19a.7.7,0,0,1-.16.13l-.17.14h0a2.11,2.11,0,0,1-.31.21l-.36.19A4.29,4.29,0,0,1,99,79a9.23,9.23,0,0,0-.54-2.83,9,9,0,0,0-1.3-2.4,7.61,7.61,0,0,0-.81-.88c-.21-.19-.42-.38-.66-.56a4.07,4.07,0,0,1,.88-1.45c1.6.94,3.94,2.61,5,4.81A11,11,0,0,0,103.12,78.19Z"/><path class="cls-3" d="M96.54,70.86a4.07,4.07,0,0,0-.88,1.45l-.59-.44a5.4,5.4,0,0,1,.7-1.45Z"/><path class="cls-9" d="M80.78,86.34c0,1.23-1.28,2.44-2.25,3.2l-.13-.06a10.86,10.86,0,0,0-2-.71,5.5,5.5,0,0,0-1.3-.16h-.3a5.29,5.29,0,0,0-1.51.16,12.2,12.2,0,0,0-1.94.68c-1-.76-2.09-1.93-2.14-3.11-.06-1.54,3.84-.77,5.78-.29C77,85.57,80.84,84.8,80.78,86.34Z"/><path class="cls-10" d="M104.35,76.23a2.37,2.37,0,0,1-.15.4,2.15,2.15,0,0,1-.13.32l-.08.15c0,.08-.09.16-.15.24a3.81,3.81,0,0,1-.29.41l-.2.22,0,0-.16.15s0,0,0,0a11,11,0,0,1-1.61-2.52c-1-2.2-3.37-3.87-5-4.81a4.06,4.06,0,0,1,1.27-.92l.12,0h0a1.82,1.82,0,0,1,.3-.11l.33-.09.11,0,.25,0a5.25,5.25,0,0,1,5.39,6.61Z"/><path class="cls-1" d="M104,79.06a10.42,10.42,0,0,1-.89-.87s0,0,0,0l.16-.15,0,0,.2-.22a3.81,3.81,0,0,0,.29-.41c.06-.08.1-.16.15-.24l.08-.15a2.15,2.15,0,0,0,.13-.32,2.37,2.37,0,0,0,.15-.4A5.25,5.25,0,0,0,99,69.62l-.25,0-.11,0-.33.09a1.82,1.82,0,0,0-.3.11h0l-.12,0a4.06,4.06,0,0,0-1.27.92l-.77-.44a5.13,5.13,0,0,1,.92-1,4.52,4.52,0,0,1,1.1-.68c2.74-1.23,6.13.21,7.58,3.22A5.77,5.77,0,0,1,104,79.06Z"/><path class="cls-3" d="M104,79.06a5.53,5.53,0,0,1-1,.58,5.33,5.33,0,0,1-.63.23A5.41,5.41,0,0,1,99,79.7c0-.25,0-.48,0-.72a4.29,4.29,0,0,0,3.13-.12l.36-.19a2.11,2.11,0,0,0,.31-.21h0l.17-.14a.7.7,0,0,0,.16-.13A10.42,10.42,0,0,0,104,79.06Z"/><path class="cls-1" d="M54.86,75.22h0L51.1,76.71a7,7,0,0,0,2.23-5.36,3.3,3.3,0,0,0-.9-2h0a7.06,7.06,0,0,0-2.25-1.56h0A6.62,6.62,0,0,0,46,69.92c-2.25,2.5-2.21,6.1.08,8.06s6,1.52,8.22-1A6.36,6.36,0,0,0,55.55,75Z"/><path class="cls-3" d="M55.68,74.58c0,.12-.08.25-.13.37l-.69.27a4.36,4.36,0,0,0-1-5.11,4,4,0,0,0-1.41-.78h0a7.06,7.06,0,0,0-2.25-1.56,5.35,5.35,0,0,1,4,1.19A5.28,5.28,0,0,1,55.68,74.58Z"/><path class="cls-10" d="M54.86,75.22a5.39,5.39,0,0,1-1,1.48,4.89,4.89,0,0,1-6.72.79,4.6,4.6,0,0,1-.07-6.59,5.15,5.15,0,0,1,5.31-1.58h0a3.3,3.3,0,0,1,.9,2,7,7,0,0,1-2.23,5.36Z"/><path class="cls-8" d="M54.85,75.22h0L51.09,76.7a7,7,0,0,0,2.23-5.36,3.24,3.24,0,0,0-.9-2,4,4,0,0,1,1.41.78A4.37,4.37,0,0,1,54.85,75.22Z"/><path class="cls-11" d="M99.81,78.9a10,10,0,0,0-.32-1.1,14.62,14.62,0,0,0-2.07-4,13.88,13.88,0,0,0-3-3.07,11.08,11.08,0,0,0-1.63-1c-.39-.19-.8-.38-1.24-.55s-.72-.28-1.1-.41c0,.21,0,.41,0,.62A10,10,0,0,0,93,75.47a10.45,10.45,0,0,0,3.62,2.61h0A10.07,10.07,0,0,0,99.81,78.9Z"/><path class="cls-12" d="M99.49,77.8A8.08,8.08,0,0,1,96.3,77a8.54,8.54,0,0,1-2.69-2,8.22,8.22,0,0,1-2.11-4.73,5.15,5.15,0,0,1,0-1.11c.44.17.85.36,1.24.55a11.08,11.08,0,0,1,1.63,1,13.88,13.88,0,0,1,3,3.07A14.62,14.62,0,0,1,99.49,77.8Z"/><path class="cls-1" d="M104.7,97.3a34.65,34.65,0,0,0-4.5-14.75c0-.14,0-.27,0-.41a13.5,13.5,0,0,0-.4-3.24,10,10,0,0,0-.32-1.1,14.62,14.62,0,0,0-2.07-4,13.88,13.88,0,0,0-3-3.07,11.08,11.08,0,0,0-1.63-1c-.39-.19-.8-.38-1.24-.55s-.72-.28-1.1-.41-.94-.3-1.44-.43h0l-.84-.22c-.64-.16-1.3-.3-2-.44-.54-.1-1.09-.2-1.66-.28A67.1,67.1,0,0,0,67,67.11c-1.17.14-2.31.31-3.39.52-.69.14-1.36.28-2,.44s-1.36.36-2,.57L58.51,69c-.55.21-1.06.43-1.54.67a11.08,11.08,0,0,0-1.63,1,13.47,13.47,0,0,0-3.05,3.07,14.68,14.68,0,0,0-2.07,4.06c-.13.36-.23.73-.33,1.11a14.32,14.32,0,0,0-.38,2.78Q45.27,88,45.13,97.24q-.23,13.38,8.64,21.62T75.42,127a33.69,33.69,0,0,0,11-1.76,30,30,0,0,0,10.69-6.4q7.77-7.08,7.77-18.24A31.52,31.52,0,0,0,104.7,97.3ZM54.61,76.63c.32-.38,5.13-6.83,5.13-6.83l10.43-.21s5.21,7.53,5.21,10.53v0a3.84,3.84,0,0,0-.11.59.71.71,0,0,1-.16.28A9.49,9.49,0,0,0,67.65,73a9.59,9.59,0,0,0-11.34,6,5.47,5.47,0,0,0-1.05,3.52S54.29,77,54.61,76.63Zm41.66,38.58a25,25,0,0,1-12.7,9.61l-3.53.82-2.24.27c-.77.07-1.56.1-2.37.1-.64,0-1.28,0-1.9-.07a27.9,27.9,0,0,1-5.41-.87,24.52,24.52,0,0,1-10.61-6,22.12,22.12,0,0,1-7.57-16.83v-.33c0-.48,0-.93.07-1.38.51-2.4,1.24-4.72,2.69-4.92,1.73-.23,3.21-2.19,3.36-2.4h0A9.27,9.27,0,0,0,64,93.17a21.42,21.42,0,0,0,2.08-.94l1.14-.59,1.45-.79c.91-.5,1.8-1,2.66-1.37h0l0,0,.52-.22c.33-.13.64-.24,1-.33l.47-.13a6.87,6.87,0,0,1,.72-.13l.24,0h0a3.15,3.15,0,0,1,.53,0h.3a5.07,5.07,0,0,1,.66,0l.18,0a3.73,3.73,0,0,1,.46.09,10.86,10.86,0,0,1,2,.71l.13.06.09,0c.22.09.44.2.66.31.67.34,1.36.72,2.06,1.1l.35.19.8.43c.38.21.78.42,1.17.61a21.26,21.26,0,0,0,2.07.94A9.3,9.3,0,0,0,94.11,93h0c.13.19,1.51,2.17,3.13,2.41l.15,0a1.93,1.93,0,0,1,1.07.93,14.13,14.13,0,0,1,1.2,4.53,22.68,22.68,0,0,1,.13,2.39A20.84,20.84,0,0,1,96.27,115.21Z"/><path class="cls-6" d="M92.13,90.67a9.4,9.4,0,0,0-2-1.3,9,9,0,0,0,4.09-9.69,9.77,9.77,0,0,0-18.84.44v0a3.84,3.84,0,0,0-.11.59,2.51,2.51,0,0,0,0,.27h-.12A9.49,9.49,0,0,0,67.65,73a9.59,9.59,0,0,0-11.34,6c-.08.23-.14.46-.2.7a9,9,0,0,0,4.09,9.69,9.43,9.43,0,0,0-4.12,3.86h0A9.27,9.27,0,0,0,64,93.17a21.42,21.42,0,0,0,2.08-.94l1.14-.59,1.45-.79c.91-.5,1.8-1,2.66-1.37h0l0,0,.52-.22c.32-.12.64-.24,1-.33l.47-.13a6.87,6.87,0,0,1,.72-.13l.24,0h0a3.15,3.15,0,0,1,.53,0h.3a5.07,5.07,0,0,1,.66,0l.18,0a3.73,3.73,0,0,1,.46.09,10.86,10.86,0,0,1,2,.71l.13.06.09,0,.66.31c.67.34,1.36.72,2.06,1.1l.35.19.8.43c.38.21.78.42,1.17.61a21.26,21.26,0,0,0,2.07.94A9.3,9.3,0,0,0,94.11,93,9.2,9.2,0,0,0,92.13,90.67ZM65,86c-3.19,0-5.78-1.72-5.78-3.85a1.56,1.56,0,0,1,0-.31l0-.15s0,0,0,0a1,1,0,0,1,.05-.23.14.14,0,0,1,0-.06.49.49,0,0,1,.06-.17,2.65,2.65,0,0,1,.27-.53,1.48,1.48,0,0,1,.19-.27,4.46,4.46,0,0,1,1.32-1.13,3,3,0,0,1,.4-.21,1.51,1.51,0,0,1,.18-.09,4.71,4.71,0,0,1,.52-.21l.31-.1a3,3,0,0,1,.32-.09,6.66,6.66,0,0,1,.91-.18l.24,0a7,7,0,0,1,.93-.06h.37l.29,0a7.33,7.33,0,0,1,1.51.25l.23.07A5.65,5.65,0,0,1,69.81,80a2.52,2.52,0,0,1,.27.3,2.72,2.72,0,0,1,.41.63.6.6,0,0,1,.08.16,2.56,2.56,0,0,1,.23,1.06C70.8,84.26,68.21,86,65,86Zm24.61-1.4a3.18,3.18,0,0,1-.37.27,3.13,3.13,0,0,1-.36.22,6.27,6.27,0,0,1-.74.35,6.8,6.8,0,0,1-.68.24,6.23,6.23,0,0,1-.62.15,2.25,2.25,0,0,1-.36.06,3,3,0,0,1-.42.06h-.16a6.34,6.34,0,0,1-.76,0c-3.19,0-5.78-1.72-5.78-3.85a2.56,2.56,0,0,1,.23-1.06,1.51,1.51,0,0,1,.11-.22,3,3,0,0,1,.62-.83l.12-.12a.71.71,0,0,1,.13-.12l.28-.22.3-.21.22-.13.22-.12a7.16,7.16,0,0,1,1.94-.67l.38-.06a8.43,8.43,0,0,1,3.73.29l.27.09.27.11.38.17a4.65,4.65,0,0,1,1.88,1.55l.1.18a2.4,2.4,0,0,1,.32.8.78.78,0,0,1,0,.22c0,.12,0,.23,0,.35a2.09,2.09,0,0,1,0,.25,2,2,0,0,1-.09.48,1.34,1.34,0,0,1-.09.26,2.89,2.89,0,0,1-.32.6,2,2,0,0,1-.18.25c-.09.11-.19.21-.29.31A3.08,3.08,0,0,1,89.62,84.58Z"/><ellipse class="cls-13" cx="65.01" cy="82.13" rx="5.78" ry="3.85"/><ellipse class="cls-13" cx="85.15" cy="82.13" rx="5.78" ry="3.85"/><circle class="cls-14" cx="65.01" cy="82.13" r="0.37"/><circle class="cls-14" cx="85.52" cy="82.13" r="0.37"/><path class="cls-3" d="M104.7,97.3a34.65,34.65,0,0,0-4.5-14.75c0-.14,0-.27,0-.41a13.5,13.5,0,0,0-.4-3.24,10,10,0,0,0-.32-1.1,14.62,14.62,0,0,0-2.07-4,13.88,13.88,0,0,0-3-3.07,11.08,11.08,0,0,0-1.63-1c-.39-.19-.8-.38-1.24-.55s-.72-.28-1.1-.41-.94-.3-1.44-.43c.51.35,1,.7,1.45,1s.75.6,1.09.9A16.32,16.32,0,0,1,96.3,77c.13.37.24.72.33,1.08h0a15.44,15.44,0,0,1-2,11.7,37.15,37.15,0,0,1,2.74,5.64,1.93,1.93,0,0,1,1.07.93,14.13,14.13,0,0,1,1.2,4.53,22.68,22.68,0,0,1,.13,2.39,20.84,20.84,0,0,1-3.53,11.93,30.72,30.72,0,0,1-9.85,10.06,30,30,0,0,0,10.69-6.4q7.77-7.08,7.77-18.24A31.52,31.52,0,0,0,104.7,97.3Z"/><path class="cls-7" d="M94.11,93a9.3,9.3,0,0,1-8.38.18,21.26,21.26,0,0,1-2.07-.94c-.79-.39-1.56-.82-2.32-1.23,3.2,1,8.7,2.11,10.79-.33A9.2,9.2,0,0,1,94.11,93Z"/><path class="cls-7" d="M68.64,90.85c-.84.46-1.71.94-2.59,1.38a21.42,21.42,0,0,1-2.08.94,9.27,9.27,0,0,1-7.86.07,13.2,13.2,0,0,0,6.66,0C65.26,92.47,66.28,91.3,68.64,90.85Z"/><path class="cls-9" d="M80.68,87a4.4,4.4,0,0,1-2.06,2.6l-.09,0-.13-.06a10.86,10.86,0,0,0-2-.71,3.73,3.73,0,0,0-.46-.09l-.18,0a5.07,5.07,0,0,0-.66,0h-.3a3.39,3.39,0,0,0-.55,0l-.24,0a6.87,6.87,0,0,0-.72.13,12.2,12.2,0,0,0-1.94.68l0,0a4.36,4.36,0,0,1-2-2.56C68.58,84.1,72,84.5,72,84.5a6.2,6.2,0,0,1,3,.92A6.21,6.21,0,0,1,78,84.57S81.42,84.17,80.68,87Z"/><path d="M74.26,88.62l-.24,0-.17-.1a6.6,6.6,0,0,0-1.12-.48,7.56,7.56,0,0,0-1.85-.28.61.61,0,0,1-.28-.18,1.14,1.14,0,0,1-.23-.32,1.94,1.94,0,0,1-.2-1,1.15,1.15,0,0,1,.43-.87,1.06,1.06,0,0,1,.44-.21,1.21,1.21,0,0,1,.53,0,3.1,3.1,0,0,1,.91.58,5.14,5.14,0,0,1,1,1.21,6.69,6.69,0,0,1,.62,1.22C74.2,88.42,74.23,88.53,74.26,88.62Z"/><path d="M79.87,86.32a1.94,1.94,0,0,1-.2,1,1.14,1.14,0,0,1-.23.32.57.57,0,0,1-.28.18,7.62,7.62,0,0,0-1.85.28,6.6,6.6,0,0,0-1.12.48l-.24.14-.18,0,.12-.37a6.69,6.69,0,0,1,.62-1.22,5.14,5.14,0,0,1,1-1.21,3.1,3.1,0,0,1,.91-.58,1.21,1.21,0,0,1,.53,0,1.06,1.06,0,0,1,.44.21A1.15,1.15,0,0,1,79.87,86.32Z"/><path class="cls-1" d="M75.38,80.12v0a3.84,3.84,0,0,0-.11.59.71.71,0,0,1-.16.28A9.49,9.49,0,0,0,67.65,73a9.59,9.59,0,0,0-11.34,6,5.47,5.47,0,0,0-1.05,3.52s-1-5.49-.65-5.87,5.13-6.83,5.13-6.83l10.43-.21S75.38,77.12,75.38,80.12Z"/><path class="cls-9" d="M75.11,81C73.44,82.9,67,76,60.88,76.7A6.35,6.35,0,0,0,56.31,79a9.59,9.59,0,0,1,11.34-6A9.49,9.49,0,0,1,75.11,81Z"/><path class="cls-9" d="M75.23,81c1.67,1.88,8.08-5.06,14.23-4.32A6.35,6.35,0,0,1,94,79a9.59,9.59,0,0,0-11.34-6A9.49,9.49,0,0,0,75.23,81Z"/><path class="cls-15" d="M77,66.68a11.22,11.22,0,0,1,1.61-1.53c.62-.48.91-.36.89.35a7.48,7.48,0,0,1-.56,2.37A7.35,7.35,0,0,1,77.72,70q-.69.81-1.14.63c-.31-.12-.44-.53-.41-1.24s0-1.2.08-1.48A2.77,2.77,0,0,1,77,66.68Z"/><path class="cls-15" d="M78.18,66.92a10.37,10.37,0,0,1,2.07-.81c.75-.21,1,0,.69.65a7.64,7.64,0,0,1-1.41,2,7.39,7.39,0,0,1-1.91,1.52c-.63.33-1.06.39-1.3.16s-.21-.66.09-1.3.5-1.09.63-1.34A2.75,2.75,0,0,1,78.18,66.92Z"/><path class="cls-15" d="M53.59,72.76a8.53,8.53,0,0,0-1.7-.77c-.62-.21-.82,0-.6.52a6.34,6.34,0,0,0,1.09,1.72,6,6,0,0,0,1.54,1.35c.51.3.87.36,1.07.19s.21-.54,0-1.1-.38-.93-.48-1.14A2.17,2.17,0,0,0,53.59,72.76Z"/><path class="cls-15" d="M53,73.82a8.43,8.43,0,0,0-1.86.08c-.64.09-.75.34-.3.73a6.14,6.14,0,0,0,1.75,1.05,6.3,6.3,0,0,0,2,.51c.59,0,.94-.06,1-.32s-.06-.57-.51-1-.75-.67-.93-.82A2.47,2.47,0,0,0,53,73.82Z"/><path class="cls-16" d="M97.79,74.32a6.78,6.78,0,0,1,1.36-.62c.5-.16.66,0,.49.42a5.18,5.18,0,0,1-.88,1.38,5,5,0,0,1-1.23,1.08c-.41.25-.7.3-.87.16s-.16-.44,0-.88.3-.75.38-.92A1.76,1.76,0,0,1,97.79,74.32Z"/></svg>