<svg id="Camada_1" data-name="Camada 1" xmlns="http://www.w3.org/2000/svg" viewBox="0 0 150 150"><defs><style>.cls-1{fill:#defcea;}.cls-2{fill:#afe0bd;}.cls-3{fill:#79aa87;}.cls-4{fill:#9ac191;}.cls-5{fill:#88b27e;}.cls-6{fill:#6e9b74;}.cls-7{fill:#6d675c;}.cls-8{fill:#567c60;}.cls-9{fill:#689676;}.cls-10{fill:#6b6661;}.cls-11{fill:#68876f;}.cls-12{fill:none;}.cls-13{fill:#4e7159;}.cls-14{fill:#687767;}</style></defs><rect class="cls-1" width="150" height="150"/><path class="cls-2" d="M45.63,55.2a5.22,5.22,0,0,0-2.85-2,1.29,1.29,0,0,0,0-.19,4.85,4.85,0,0,0-8.07-2.51A4.35,4.35,0,0,0,32.76,50a4.47,4.47,0,0,0-4.47,4.47h0a4.53,4.53,0,0,0,.08,8.56,1.85,1.85,0,0,0,0,.23,2.46,2.46,0,0,0,.18.94A2.7,2.7,0,0,0,30,65.79a5.26,5.26,0,0,0,1.18,3.56,6.56,6.56,0,0,0,.62.67,6.73,6.73,0,0,0,2.7,1.55l.22.07V86.12h3V74.8A4.58,4.58,0,0,0,40,73.27c.06-.07.11-.15.16-.22a3.91,3.91,0,0,0,.34-.59h1.62A.55.55,0,0,0,42.7,72a1.25,1.25,0,0,0,0-.21c0-.6-.69-.74-.69-.77a1.57,1.57,0,0,0-1.75-1.62,1.72,1.72,0,0,0-1.59,1.17.61.61,0,0,0,0,.12.59.59,0,0,1-.31.35,1.21,1.21,0,0,0-.6.44V68.05a6.77,6.77,0,0,0,3.81-2.35,5.48,5.48,0,0,0,1.13-2.53,5.16,5.16,0,0,0,3.89-5A5.1,5.1,0,0,0,45.63,55.2ZM32.51,63.31a1.47,1.47,0,0,1-2.94,0h.26a4.53,4.53,0,0,0,2.28-.62,4.83,4.83,0,0,0,.38.4A1.5,1.5,0,0,1,32.51,63.31Zm-.37,5.28a4,4,0,0,1-.93-2.6A2.58,2.58,0,0,0,32,65.8,2.71,2.71,0,0,0,33.64,64a5.23,5.23,0,0,0,1.08.48v5.89A5.36,5.36,0,0,1,32.14,68.59Zm5.66,3.87h1.8a3.42,3.42,0,0,1-1.87,1.12V72.44A.08.08,0,0,0,37.8,72.46Zm2.32-7a5.68,5.68,0,0,1-2.39,1.35V64.57a5.47,5.47,0,0,0,2.51-1.37,5.4,5.4,0,0,0,1.15.13,5,5,0,0,1-.22.65A4.68,4.68,0,0,1,40.12,65.45Z"/><path class="cls-2" d="M22.06,53.43a1,1,0,0,0-.21-.09,3.28,3.28,0,0,0-1.7-2.17,3.93,3.93,0,0,0-3-3.43,4.11,4.11,0,0,0-3.47-2,4,4,0,0,0-3.24,1.68,2.79,2.79,0,0,0-1.3-.33,3.11,3.11,0,0,0-3,3.24v0a2.81,2.81,0,0,0-2.27,1.3v4.54H6a2,2,0,0,0,1.43,1.24,3.86,3.86,0,0,0,1.33,2.44,5,5,0,0,0,3,1.21V72.69H14V61.12a5,5,0,0,0,3-1.24,3.9,3.9,0,0,0,1.31-2.45,2,2,0,0,0,1.4-1.22h1.68a1.05,1.05,0,0,0,.4-.07A1.52,1.52,0,0,0,22.06,53.43ZM7,56.21H8.69a1.15,1.15,0,0,1-.64.37A1.1,1.1,0,0,1,7,56.21Zm2.32,3a3,3,0,0,1-1-1.78,2,2,0,0,0,1.38-1.22H11.8v4A4.09,4.09,0,0,1,9.35,59.21Zm7.1,0a4.16,4.16,0,0,1-2.43,1v-4h2a2,2,0,0,0,1.39,1.22A3,3,0,0,1,16.45,59.21Zm1.28-2.64a1.14,1.14,0,0,1-.64-.36h1.64A1.12,1.12,0,0,1,17.73,56.57Z"/><path class="cls-2" d="M121.67,64.12a5.22,5.22,0,0,0-2.85-2,1.29,1.29,0,0,0,0-.19,4.85,4.85,0,0,0-8.07-2.51A4.35,4.35,0,0,0,108.8,59a4.47,4.47,0,0,0-4.47,4.47h0a4.53,4.53,0,0,0,.08,8.56,1.85,1.85,0,0,0,0,.23,2.46,2.46,0,0,0,.18.94A2.7,2.7,0,0,0,106,74.71a5.26,5.26,0,0,0,1.18,3.56,6.56,6.56,0,0,0,.62.67,6.73,6.73,0,0,0,2.7,1.55l.22.07V95.05h3V83.72a4.58,4.58,0,0,0,2.3-1.53,1.77,1.77,0,0,0,.16-.22,3.91,3.91,0,0,0,.34-.59h1.62a.55.55,0,0,0,.55-.47,1.25,1.25,0,0,0,0-.21c0-.6-.69-.74-.69-.77a1.57,1.57,0,0,0-1.75-1.62,1.72,1.72,0,0,0-1.59,1.17.61.61,0,0,0,0,.12.59.59,0,0,1-.31.35,1.21,1.21,0,0,0-.6.44V77a6.72,6.72,0,0,0,3.81-2.35,5.48,5.48,0,0,0,1.13-2.53,5.16,5.16,0,0,0,3.89-5A5.1,5.1,0,0,0,121.67,64.12Zm-13.12,8.11a1.47,1.47,0,0,1-2.94,0h.26a4.53,4.53,0,0,0,2.28-.62c.12.14.25.28.38.41A1.23,1.23,0,0,1,108.55,72.23Zm-.37,5.28a4,4,0,0,1-.93-2.6,2.58,2.58,0,0,0,.83-.19,2.71,2.71,0,0,0,1.6-1.81,5.23,5.23,0,0,0,1.08.48v5.9A5.45,5.45,0,0,1,108.18,77.51Zm5.66,3.87h1.8a3.42,3.42,0,0,1-1.87,1.12V81.36A.08.08,0,0,0,113.84,81.38Zm2.32-7a5.68,5.68,0,0,1-2.39,1.35V73.49a5.47,5.47,0,0,0,2.51-1.37,5.4,5.4,0,0,0,1.15.13,5,5,0,0,1-.22.65A4.68,4.68,0,0,1,116.16,74.37Z"/><path class="cls-3" d="M97.34,61.18a6.61,6.61,0,0,0-3.58-2.55,1.14,1.14,0,0,0-.05-.24,6.1,6.1,0,0,0-10.14-3.15,5.49,5.49,0,0,0-2.4-.54,5.6,5.6,0,0,0-4.62,2.43,5.51,5.51,0,0,0-1,3.19h0a5.68,5.68,0,0,0,.1,10.75,1.57,1.57,0,0,0,0,.29,3.06,3.06,0,0,0,.23,1.18,3.36,3.36,0,0,0,1.83,1.94A6.62,6.62,0,0,0,79.19,79a7.76,7.76,0,0,0,.78.84,8.32,8.32,0,0,0,3.39,2,2.14,2.14,0,0,0,.27.09V100h3.79V85.81a5.83,5.83,0,0,0,2.89-1.92l.2-.28a5,5,0,0,0,.42-.74h2a.69.69,0,0,0,.69-.59,1.86,1.86,0,0,0,0-.26c0-.76-.87-.93-.87-1a2,2,0,0,0-2.2-2,2.17,2.17,0,0,0-2,1.47.94.94,0,0,0-.06.15.71.71,0,0,1-.39.44,1.47,1.47,0,0,0-.75.56v-4.3a8.42,8.42,0,0,0,4.78-3,6.79,6.79,0,0,0,1.42-3.18,6.5,6.5,0,0,0,4.89-6.31A6.44,6.44,0,0,0,97.34,61.18ZM80.86,71.37a1.85,1.85,0,0,1-3.7,0h.33a5.74,5.74,0,0,0,2.87-.78c.15.18.31.35.47.51A1.05,1.05,0,0,1,80.86,71.37ZM80.39,78a5,5,0,0,1-1.16-3.27,3.09,3.09,0,0,0,1-.24,3.41,3.41,0,0,0,2-2.27,6.78,6.78,0,0,0,1.35.6v7.41A6.89,6.89,0,0,1,80.39,78Zm7.11,4.86h2.27a4.36,4.36,0,0,1-2.35,1.41V82.84A.08.08,0,0,0,87.5,82.87Zm2.92-8.81a7.1,7.1,0,0,1-3,1.7V73a7,7,0,0,0,3.15-1.72A6.85,6.85,0,0,0,92,71.4a7.92,7.92,0,0,1-.28.82A5.84,5.84,0,0,1,90.42,74.06Z"/><rect class="cls-4" y="82.31" width="150" height="67.69"/><rect class="cls-5" y="128.45" width="150" height="21.55"/><rect class="cls-4" y="81.96" width="150" height="18.33"/><path class="cls-6" d="M150,72.51V92.05H0V77.59l.3-.08c.39-.08.79-.17,1.19-.24a8.07,8.07,0,0,1,.61-1.61,10,10,0,0,1,1.84-2.53,12,12,0,0,1,1.69-1.45A16.59,16.59,0,0,1,8.9,69.82a22.31,22.31,0,0,1,5.66-1.58,24.78,24.78,0,0,1,3.7-.27,22.38,22.38,0,0,1,11.67,3,23.42,23.42,0,0,1,11-.59,16.15,16.15,0,0,1,9.47,4.95,7.65,7.65,0,0,1,2,5h0a16.37,16.37,0,0,1,8.06,4.28,9,9,0,0,1,.66.74h52.76a1.92,1.92,0,0,1-.25-.81h0a2.07,2.07,0,0,1,.41-1.43l.21-.28h0a8,8,0,0,1,1-1.09A11.61,11.61,0,0,1,121.47,79a14.26,14.26,0,0,1,1.74-.11c.43-3.21,3.94-5.7,8.21-5.7a10.22,10.22,0,0,1,3.51.61,9.88,9.88,0,0,1,.91-.64,12.81,12.81,0,0,1,3.74-1.65A15.14,15.14,0,0,1,143.5,71a16.15,16.15,0,0,1,2.43.19A13.86,13.86,0,0,1,150,72.51Z"/><path class="cls-7" d="M7.77,66H9.56a8.33,8.33,0,0,1-1.38,2.5A10,10,0,0,1,2.59,72v-2.8A8.11,8.11,0,0,0,7.77,66Z"/><path class="cls-8" d="M3,67.33H14.67a1.94,1.94,0,0,0,.7-3.75h0a3.6,3.6,0,0,0,.13-1.32,3.43,3.43,0,0,0-3.15-3.09,3.35,3.35,0,0,0-2,.46A4.26,4.26,0,0,0,2.56,62a4.37,4.37,0,0,0,.16,1.15H2.66A2.1,2.1,0,0,0,3,67.33Z"/><path class="cls-7" d="M12.58,43.23l.21,0,.09-.14A2.68,2.68,0,0,0,12.58,43.23Zm0,0,.21,0,.09-.14A2.68,2.68,0,0,0,12.58,43.23Zm0,0,.21,0,.09-.14A2.68,2.68,0,0,0,12.58,43.23Zm0,0,.21,0,.09-.14A2.68,2.68,0,0,0,12.58,43.23Zm0,0,.21,0,.09-.14A2.68,2.68,0,0,0,12.58,43.23Zm0,0,.21,0,.09-.14A2.68,2.68,0,0,0,12.58,43.23Zm0,0,.21,0,.09-.14A2.68,2.68,0,0,0,12.58,43.23Zm0,0,.21,0,.09-.14A2.68,2.68,0,0,0,12.58,43.23Zm0,0,.21,0,.09-.14A2.68,2.68,0,0,0,12.58,43.23Zm0,0,.21,0,.09-.14A2.68,2.68,0,0,0,12.58,43.23Zm0,0,.21,0,.09-.14A2.68,2.68,0,0,0,12.58,43.23Zm0,0,.21,0,.09-.14A2.68,2.68,0,0,0,12.58,43.23Zm0,0,.21,0,.09-.14A2.68,2.68,0,0,0,12.58,43.23Zm0,0,.21,0,.09-.14A2.68,2.68,0,0,0,12.58,43.23Zm0,0,.21,0,.09-.14A2.68,2.68,0,0,0,12.58,43.23Zm0,0,.21,0,.09-.14A2.68,2.68,0,0,0,12.58,43.23Zm0,0,.21,0,.09-.14A2.68,2.68,0,0,0,12.58,43.23Zm0,0,.21,0,.09-.14A2.68,2.68,0,0,0,12.58,43.23Zm0,0,.21,0,.09-.14A2.68,2.68,0,0,0,12.58,43.23Zm0,0,.21,0,.09-.14A2.68,2.68,0,0,0,12.58,43.23Zm0,0,.21,0,.09-.14A2.68,2.68,0,0,0,12.58,43.23Zm0,0,.21,0,.09-.14A2.68,2.68,0,0,0,12.58,43.23Zm0,0,.21,0,.09-.14A2.68,2.68,0,0,0,12.58,43.23Zm0,0,.21,0,.09-.14A2.68,2.68,0,0,0,12.58,43.23Zm0,0,.21,0,.09-.14A2.68,2.68,0,0,0,12.58,43.23Zm0,0,.21,0,.09-.14A2.68,2.68,0,0,0,12.58,43.23Zm0,0,.21,0,.09-.14A2.68,2.68,0,0,0,12.58,43.23Zm7.69-1.52a5.68,5.68,0,0,0-1.67-1.64l-.26-.16a5.76,5.76,0,0,0-6.14.26,4.64,4.64,0,0,0-.93.78,5.68,5.68,0,0,0-1.5,2.88s0,.06,0,.09a5,5,0,0,0-.08,1.28,5.5,5.5,0,0,0,.16,1.16c0,.1.05.19.08.28h0a5.82,5.82,0,0,0,4.15,3.94,8.8,8.8,0,0,1-3,5.19,11.12,11.12,0,0,1-3.41,2.05h0a12.54,12.54,0,0,1-3.48.81l-.25,0c-.23,0-.47,0-.71,0l0,1h0l0,1.64.67,0c.57,0,1.13-.1,1.69-.19a14.48,14.48,0,0,0,4.64-1.58,14.19,14.19,0,0,0,2.57-1.78,13,13,0,0,0,1.72-1.86,10.86,10.86,0,0,0,2.16-5.27,5.82,5.82,0,0,0,4.29-4c0-.1.06-.2.09-.3a1.89,1.89,0,0,0,0-.23l0-.14a1.1,1.1,0,0,0,0-.18A5.72,5.72,0,0,0,20.27,41.71Zm-2.13,4.95a3.16,3.16,0,0,1-3.24,1.42,3.2,3.2,0,0,1-2.12-1.42c-.06-.1-.11-.2-.16-.3a3.21,3.21,0,0,1-.28-2l.06-.29a3.32,3.32,0,0,1,.22-.55c.05-.1.11-.2.17-.3l.09-.14h0a3.18,3.18,0,0,1,5.66,1.07,2.91,2.91,0,0,1,.07,1.18,1.11,1.11,0,0,1,0,.17,3,3,0,0,1-.28.84A1.78,1.78,0,0,1,18.14,46.66Zm-5.56-3.43.21,0,.09-.14A2.68,2.68,0,0,0,12.58,43.23Zm0,0,.21,0,.09-.14A2.68,2.68,0,0,0,12.58,43.23Zm0,0,.21,0,.09-.14A2.68,2.68,0,0,0,12.58,43.23Zm0,0,.21,0,.09-.14A2.68,2.68,0,0,0,12.58,43.23Zm0,0,.21,0,.09-.14A2.68,2.68,0,0,0,12.58,43.23Zm0,0,.21,0,.09-.14A2.68,2.68,0,0,0,12.58,43.23Zm0,0,.21,0,.09-.14A2.68,2.68,0,0,0,12.58,43.23Zm0,0,.21,0,.09-.14A2.68,2.68,0,0,0,12.58,43.23Zm0,0,.21,0,.09-.14A2.68,2.68,0,0,0,12.58,43.23Zm0,0,.21,0,.09-.14A2.68,2.68,0,0,0,12.58,43.23Zm0,0,.21,0,.09-.14A2.68,2.68,0,0,0,12.58,43.23Zm0,0,.21,0,.09-.14A2.68,2.68,0,0,0,12.58,43.23Zm0,0,.21,0,.09-.14A2.68,2.68,0,0,0,12.58,43.23Zm0,0,.21,0,.09-.14A2.68,2.68,0,0,0,12.58,43.23Zm0,0,.21,0,.09-.14A2.68,2.68,0,0,0,12.58,43.23Zm0,0,.21,0,.09-.14A2.68,2.68,0,0,0,12.58,43.23Zm0,0,.21,0,.09-.14A2.68,2.68,0,0,0,12.58,43.23Zm0,0,.21,0,.09-.14A2.68,2.68,0,0,0,12.58,43.23Zm0,0,.21,0,.09-.14A2.68,2.68,0,0,0,12.58,43.23Zm0,0,.21,0,.09-.14A2.68,2.68,0,0,0,12.58,43.23Zm0,0,.21,0,.09-.14A2.68,2.68,0,0,0,12.58,43.23Zm0,0,.21,0,.09-.14A2.68,2.68,0,0,0,12.58,43.23Zm0,0,.21,0,.09-.14A2.68,2.68,0,0,0,12.58,43.23Zm0,0,.21,0,.09-.14A2.68,2.68,0,0,0,12.58,43.23Zm0,0,.21,0,.09-.14A2.68,2.68,0,0,0,12.58,43.23Zm0,0,.21,0,.09-.14A2.68,2.68,0,0,0,12.58,43.23Zm0,0,.21,0,.09-.14A2.68,2.68,0,0,0,12.58,43.23Z"/><path class="cls-9" d="M.3,63.6a2.26,2.26,0,0,1-.3.55V61.52a2,2,0,0,1,.3.56A2.27,2.27,0,0,1,.3,63.6Z"/><path class="cls-8" d="M28.42,45.3a1.73,1.73,0,0,1-1.63,1.06H0V20H.2a14.79,14.79,0,0,1,7.7,2.13c.31.18.61.38.9.58a12,12,0,0,1,1.32,1.06,11,11,0,0,1,1,.95,15.33,15.33,0,0,1,1.66,2.1,16.28,16.28,0,0,1,1,1.88,2.77,2.77,0,0,1,.41-.12,10.82,10.82,0,0,1,4.7-.39,9.93,9.93,0,0,1,1.21.23c.3.08.6.16.89.26a11,11,0,0,1,2.84,1.49,10.83,10.83,0,0,1,2.65,2.75c.1.14.19.29.28.44a10.9,10.9,0,0,1,1.51,4.37,11.67,11.67,0,0,1,.07,1.32c0,.34,0,.68-.05,1A10.28,10.28,0,0,1,28,42h0c-.1.34-.21.67-.34,1l0,0A1.72,1.72,0,0,1,28.42,45.3Z"/><rect class="cls-10" x="146" y="65.49" width="4" height="44.74"/><path class="cls-11" d="M150,104v8H138.55a2,2,0,0,1-1.94-1.64,5.94,5.94,0,0,1-.05-.76c0-2.09,2.4-2.57,2.4-2.69,0-3.82,2.75-5.7,6.14-5.7A6,6,0,0,1,150,104Z"/><polyline class="cls-12" points="84.04 150 150 150 150 131.74"/><polyline class="cls-12" points="0 11.26 0 1.72 0 0 0.87 0 0.88 0"/><path class="cls-13" d="M150,16.2V70.08a19.45,19.45,0,0,1-12.86-5.36,19.14,19.14,0,0,1-4,.44h0a17.33,17.33,0,0,1-4.47-.57,19.46,19.46,0,0,1-2.64-.88c-.33-.15-.6-.3-.91-.45h0c-.35-.17-.69-.36-1-.54a18.42,18.42,0,0,1-3.35-2.53,16.47,16.47,0,0,1-1.7-1.84,17.42,17.42,0,0,1-1.54-2.24,17.81,17.81,0,0,1-1.22-2.57s0-.08,0-.13-.1-.28-.14-.42a3.71,3.71,0,0,1-.16-.47c-.11-.33-.21-.67-.29-1,0,0,0-.06,0-.09s0-.13,0-.19c-.08-.35-.15-.69-.21-1s-.13-.85-.18-1.29c0,0,0-.06,0-.09s0,0,0-.07,0-.08,0-.12c0-.52-.07-1.05-.07-1.58a5.72,5.72,0,0,1,0-.59,0,0,0,0,1,0,0,16.5,16.5,0,0,1,.21-2.24c0-.11,0-.2,0-.31h0c.08-.45.18-.89.29-1.34s.21-.77.34-1.15h0A11,11,0,0,1,116.4,40a17.31,17.31,0,0,1,2-3.57c.31-.42.63-.83,1-1.22q.18-.22.39-.45a17.27,17.27,0,0,1,1.64-1.56A16.68,16.68,0,0,1,124.66,31a17.7,17.7,0,0,1,3.55-1.43c0-.13,0-.26.07-.39a16.71,16.71,0,0,1,1.22-3.78,17.22,17.22,0,0,1,5.49-6.7,16.92,16.92,0,0,1,10-3.24A16.68,16.68,0,0,1,150,16.2Z"/><rect class="cls-7" y="46.36" width="3.95" height="43.48"/><path class="cls-11" d="M13.34,96.69H0v-8a1.53,1.53,0,0,1,.3,0,4.92,4.92,0,0,1,.67,0,7.19,7.19,0,0,1,3,.63,7.3,7.3,0,0,1,3.25,2.82,4.74,4.74,0,0,1,.31.54,5,5,0,0,1,1-.09A4.93,4.93,0,0,1,13.34,96.69Z"/><path class="cls-14" d="M99.93,0V44.12c0,.18-.3.33-.66.33s-.66-.15-.66-.33V0Z"/><path class="cls-14" d="M33.28,0V31.25a.55.55,0,1,1-1.1,0V0Z"/><path class="cls-14" d="M67.39,0H66.08a10.37,10.37,0,0,1,.06,1.12V20.41c0,6.42-6.06,11.64-13.51,11.64S39.12,26.83,39.12,20.41V1.12A10.37,10.37,0,0,1,39.18,0H37.87a10.37,10.37,0,0,0-.06,1.12V20.41c0,7,6.65,12.77,14.82,12.77s14.82-5.73,14.82-12.77V1.12A10.37,10.37,0,0,0,67.39,0Z"/><rect class="cls-6" x="55.34" y="81.36" width="61.68" height="7.07"/></svg>