<svg id="Camada_1" data-name="Camada 1" xmlns="http://www.w3.org/2000/svg" viewBox="0 0 150 150"><defs><style>.cls-1,.cls-11{fill:#c65858;}.cls-2{fill:#965f23;}.cls-3{fill:#ddac40;}.cls-4{fill:#0f0d0d;}.cls-10,.cls-5{fill:#9b455b;}.cls-6{fill:#efe8e8;}.cls-7{fill:#846431;}.cls-12,.cls-8{fill:#c4b1b1;}.cls-9{fill:#aaacaf;}.cls-10,.cls-11,.cls-12,.cls-15{fill-rule:evenodd;}.cls-13{fill:#7a3f1f;}.cls-14{fill:#ce923c;}.cls-15{fill:none;stroke:#001a2b;stroke-linecap:round;stroke-miterlimit:10;}</style></defs><path class="cls-1" d="M113.08,118.89a28.25,28.25,0,0,0-3-7.39l-.35-.56a.61.61,0,0,0-.07-.18l-.33-.46-.05-.08h0a37.09,37.09,0,0,0-7.56-8.42,32.8,32.8,0,0,1-2.46,8.87,30.17,30.17,0,0,1-2.62,4.86,24.27,24.27,0,0,1-5.23,5.64c-.3.24-.62.47-.94.69-.5.36-1,.69-1.58,1a21.38,21.38,0,0,1-1.91,1,26.48,26.48,0,0,1-11.24,2.2l-1,0h0a29.28,29.28,0,0,1-13.45-3.52l-.19-.11-.8-.48c-.43-.26-.83-.54-1.23-.83a24.83,24.83,0,0,1-6.33-6.64A30.25,30.25,0,0,1,48.1,102c-3.24,2.48-5.48,5.64-7.64,8.85a23.23,23.23,0,0,0-3.3,7.71,1.26,1.26,0,0,0-.06.21c-.32,1-1.5,5.53.48,8.81a6.54,6.54,0,0,0,2.39,2.3,6,6,0,0,0,.67.34,4.79,4.79,0,0,0,.65.25,5.73,5.73,0,0,0,1.21.29,6,6,0,0,0,1.11,0l.3,0,.33-.05.33-.07a3.79,3.79,0,0,0,.48-.14,2.74,2.74,0,0,0,.4-.15c-3.71.48-4.68-.8-4.24-2.79.94-4.39,8.67-12.25,8.67-12.25l.38,3.78.69,6.82a2,2,0,0,1,.09.3c.11.61.24,1.21.38,1.8,0,.15.06.29.1.45a40.24,40.24,0,0,0,4,10.06c.09.18.18.34.27.49h0a3.37,3.37,0,0,1,.23.4c.25.44.52.88.79,1.31h0s0,0,0,0l0,0,.07.12c.24.39.89,1.44,1.77,2.72.71,1,1.57,2.24,2.47,3.37l.48.6a7,7,0,0,0,.88.91A5.75,5.75,0,0,0,65.4,150h.53l.49-.47A19,19,0,0,0,68,147.88a13.47,13.47,0,0,0,2.16-3.38c1.12-2.68,5-2.6,6.41-.86l.26.18a4.49,4.49,0,0,1,.56,1.14c.06.17.12.34.19.5a5.77,5.77,0,0,0,.85,1.95,21.72,21.72,0,0,0,5,.78,26.63,26.63,0,0,0,5.61-.28q.49-.48,1-1c.16-.18.32-.37.47-.56s.21-.27.32-.41l.27-.37c.11-.14.21-.28.31-.43s.23-.33.35-.5l.47-.72h0a49.09,49.09,0,0,0,3.37-6.56c.31-.71.59-1.41.85-2.06l.37-1,.32-.88.29-.8c0-.14.09-.27.13-.39l.16-.45c0-.13.08-.25.11-.36a.76.76,0,0,0,0-.11c.06-.18.12-.34.16-.48s.07-.19.17-.56a.11.11,0,0,0,0,0,0,0,0,0,0,0,0,42.7,42.7,0,0,0,1.37-7.42,49.23,49.23,0,0,0,.27-5.67l3.66,3.17,0,0v4.53l-.64,2.43a4.41,4.41,0,0,1-.86-.82c.25.33.53.66.81,1h0l-.21.8,0,.09-.1.23h0l0,0h0a7.58,7.58,0,0,1,.45-1h0l.09-.16c.06-.12.14-.25.22-.38.15.26.31.51.47.75a10.51,10.51,0,0,0,1.79,2,8.67,8.67,0,0,0,1.33,1l.06,0a3.32,3.32,0,0,0,.46,0l.33,0h0l.1,0h.06l.1,0H108l.28-.06.12,0,.13,0,.2-.07.46-.19.26-.13h0l.23-.13a6.71,6.71,0,0,0,1.72-1.47,26.39,26.39,0,0,0-2.06-7.59A35.93,35.93,0,0,1,113.08,118.89Z"/><path class="cls-2" d="M71.6,147.31A3.88,3.88,0,0,1,68.81,150H65.93l.49-.47A19,19,0,0,0,68,147.88,13.41,13.41,0,0,0,71.6,147.31Z"/><path class="cls-2" d="M89,147.91A8.31,8.31,0,0,1,85.71,150h-3.3a6.71,6.71,0,0,1-.83-.25c.48-.39,1.08-.9,1.76-1.56A26.63,26.63,0,0,0,89,147.91Z"/><path class="cls-3" d="M83.34,148.19c-.68.66-1.28,1.17-1.76,1.56a6.4,6.4,0,0,1-.84-.34c-.17-.08-.33-.17-.49-.26a3,3,0,0,1-.42-.27,5.27,5.27,0,0,1-1.44-1.47A21.72,21.72,0,0,0,83.34,148.19Z"/><path class="cls-4" d="M48.16,101.9l-.06,0h.08Z"/><path class="cls-5" d="M45.45,130.31a2.74,2.74,0,0,1-.4.15,3.79,3.79,0,0,1-.48.14l-.33.07-.33.05-.3,0a6,6,0,0,1-1.11,0,5.73,5.73,0,0,1-1.21-.29,8.46,8.46,0,0,1-1.28-.59,6.54,6.54,0,0,1-2.39-2.3,8,8,0,0,0,3.59,0C40.77,129.51,41.74,130.79,45.45,130.31Z"/><path d="M45.45,130.31l.67-.32a4.8,4.8,0,0,1-.6.3Z"/><path d="M47.78,128.8A7.5,7.5,0,0,1,46.12,130a8.18,8.18,0,0,0,1.65-1.21S47.78,128.79,47.78,128.8Z"/><path class="cls-1" d="M40,129.83a8.46,8.46,0,0,0,1.28.59,6.32,6.32,0,0,1-1.32-.59,6.54,6.54,0,0,1-2.39-2.3c-2-3.28-.8-7.79-.48-8.81a27.87,27.87,0,0,1,8.57,6.39c-3.16,2.79-6.1,2.86-8.05,2.42A6.54,6.54,0,0,0,40,129.83Z"/><path class="cls-1" d="M113.11,118.87l0,0a35.93,35.93,0,0,0-3.71,2.14c-.68.45-1.3.9-1.86,1.34a20,20,0,0,0-3.58,3.59,10.58,10.58,0,0,0-.76,1.11l-.31.52c-.15.29-.27.55-.36.77l-.09.21a.38.38,0,0,1,.2.18c0,.07,0,.08.1.12l.2.1a1.92,1.92,0,0,1,.5.34c.11.12.17.29.29.37a1.91,1.91,0,0,0,.52.19,6.36,6.36,0,0,1,1.29.53,2.13,2.13,0,0,0,.5.25,5.76,5.76,0,0,1,.59.18l.07,0h.2a3.32,3.32,0,0,0,.46,0l.33,0h0l.1,0h.06l.1,0H108l.28-.06.12,0,.13,0,.2-.07.46-.19.26-.13h0l.23-.13a6.53,6.53,0,0,0,1.72-1.44h0a9.14,9.14,0,0,0,1.92-4.26A13.68,13.68,0,0,0,113.11,118.87Z"/><path class="cls-5" d="M113.11,118.87l0,0a28.25,28.25,0,0,0-3-7.39l-.35-.56a.61.61,0,0,0-.07-.18l-.33-.46-.05-.08h0a37.09,37.09,0,0,0-7.56-8.42,32.8,32.8,0,0,1-2.46,8.87A20,20,0,0,1,109.37,121h0a10.06,10.06,0,0,1-.82,4.59c1.84,2.55,2.21,4.87-2,5.25h.34a3.32,3.32,0,0,0,.46,0l.33,0h0l.1,0h.06l.1,0H108l.28-.06.12,0,.13,0,.2-.07.46-.19.26-.13h0l.23-.13a6.53,6.53,0,0,0,1.72-1.44h0a9.14,9.14,0,0,0,1.92-4.26A13.68,13.68,0,0,0,113.11,118.87Z"/><path class="cls-5" d="M99.46,122.81a42.7,42.7,0,0,1-1.37,7.42,0,0,0,0,1,0,0,.11.11,0,0,1,0,0c-.1.37-.17.56-.17.56s-.1.3-.16.48a.76.76,0,0,1,0,.11c0,.11-.07.23-.11.36l-.16.45c0,.12-.09.25-.13.39l-.29.8-.32.88-.37,1c-.26.65-.54,1.35-.85,2.06a49.09,49.09,0,0,1-3.37,6.56c1.42-4.07,2.51-10.1,3.33-16.48h0a80.05,80.05,0,0,0,2.31-8A34.79,34.79,0,0,0,99.46,122.81Z"/><path d="M50.94,125.85s0,0,0,0a14.62,14.62,0,0,0-1.18.95l-.85.75a10,10,0,0,1-1.14,1.23s0,0,0,0a9.77,9.77,0,0,0,1.57-1.84l.43-.38,1.07-.94Z"/><path class="cls-5" d="M55.48,138.48a40.24,40.24,0,0,1-4-10.06c0-.16-.07-.3-.1-.45-.14-.59-.27-1.19-.38-1.8a2,2,0,0,0-.09-.3l-.69-6.82.08-.14s0,.19.1.53C51,122.15,53.43,134.46,55.48,138.48Z"/><path class="cls-5" d="M95.43,127.41c-.82,6.38-1.91,12.41-3.33,16.48h0l-.47.72c-.12.17-.23.34-.35.5s-.2.29-.31.43l-.27.37c-.11.14-.21.28-.32.41s-.31.38-.47.56q-.47.54-1,1a26.63,26.63,0,0,1-5.61.28c3-2.91,7.68-8.61,11.21-18.41C94.86,129,95.16,128.2,95.43,127.41Z"/><path class="cls-5" d="M76.53,143.64a5.71,5.71,0,0,0-1.08-.59,2.28,2.28,0,0,0-.67-.17,2,2,0,0,0-1.82.79h0l-.59,1.48a.19.19,0,0,1,0,.07c-.08.21-.15.43-.24.67-.14.45-.3.93-.5,1.41a13.41,13.41,0,0,1-3.64.57,13.47,13.47,0,0,0,2.16-3.38C71.24,141.82,75.16,141.9,76.53,143.64Z"/><path class="cls-6" d="M50.26,119.05a21.93,21.93,0,0,1-4.59,6.06,10.08,10.08,0,0,1-4.46,2.41c.94-4.39,8.67-12.25,8.67-12.25Z"/><path class="cls-7" d="M45.45,130.31l.67-.32a4.8,4.8,0,0,1-.6.3Z"/><path class="cls-8" d="M50.26,119.05a21.93,21.93,0,0,1-4.59,6.06,10.08,10.08,0,0,1-4.46,2.41c-.44,2,.53,3.27,4.24,2.79l.67-.32a7.5,7.5,0,0,0,1.66-1.19,10,10,0,0,0,1.14-1.23l.85-.75a14.62,14.62,0,0,1,1.18-.95Z"/><path class="cls-6" d="M103.44,120.35l0,0-3.66-3.17a49.23,49.23,0,0,1-.27,5.67c.19.32.39.66.61,1a27,27,0,0,0,1.87,2.67c.25.33.53.66.81,1h0l.11.12h0l0,0a5,5,0,0,0,.78.2l.42.07.25,0h0l.46,0a3.88,3.88,0,0,0,2.92-1.16,5.6,5.6,0,0,0,.42-.52,4.31,4.31,0,0,0,.37-.64A34,34,0,0,0,103.44,120.35Z"/><path class="cls-8" d="M108.55,125.62a4.54,4.54,0,0,1-.79,1.16,3.88,3.88,0,0,1-2.92,1.16l-.46,0h0l-.25,0-.42-.07a4.76,4.76,0,0,1-.69-.37l-.2-.14a4.41,4.41,0,0,1-.86-.82,27,27,0,0,1-1.87-2.67c-.22-.35-.42-.69-.61-1-.09.88-.2,1.69-.31,2.44a.18.18,0,0,0,0,0l.57.85s0,0,0,0a23.65,23.65,0,0,0,2.54,2.81l.06.06c.09.09.27.26.51.47a2,2,0,0,1,.24.19l.23.16c.18.13.37.25.57.37a1.24,1.24,0,0,0,.2.1,3.79,3.79,0,0,0,1,.39l.06,0h.07l.27.06a3.73,3.73,0,0,0,.44.08l.25,0,.35,0,.28,0C110.74,130.38,110.35,128.11,108.55,125.62Z"/><path class="cls-9" d="M102.8,127.31l0,.15c-.28-.31-.56-.64-.81-1A4.41,4.41,0,0,0,102.8,127.31Z"/><path class="cls-3" d="M68,147.88a19,19,0,0,1-1.54,1.65l-.49.47H65.4a5.75,5.75,0,0,1-2.91-1.5,7,7,0,0,1-.88-.91l-.48-.6A23.68,23.68,0,0,0,68,147.88Z"/><path class="cls-5" d="M97.39,121.7l.35-2.26.78-4.73s.79,1.42,1.21,2.43c0,0-.07,4-.27,5.67s-1,.9-1,.9L97.39,122Z"/><path class="cls-6" d="M91.14,129.26a10.38,10.38,0,0,1-10.35,10.36H69.09a10.37,10.37,0,0,1-9.88-7.3,10,10,0,0,1-.47-3.06,10.28,10.28,0,0,1,2.35-6.54c.06-.07.11-.14.18-.21A29.22,29.22,0,0,0,74.77,126a25.94,25.94,0,0,0,14.15-3.16l.35.48a10.17,10.17,0,0,1,1.87,5.91Z"/><path class="cls-8" d="M91.14,129.26a10.38,10.38,0,0,1-10.35,10.36H69.09a10.37,10.37,0,0,1-9.88-7.3,20.62,20.62,0,0,0,13.84,5.12c9.31-.13,14.09-1.25,17.85-10.41A10.29,10.29,0,0,1,91.14,129.26Z"/><path class="cls-10" d="M107.56,107.57a11.69,11.69,0,0,1,2.19,1.08c.73.46.72.81,0,1a8.47,8.47,0,0,1-2.66.32,8.12,8.12,0,0,1-2.65-.43c-.74-.27-1.1-.58-1.09-.94s.38-.65,1.12-.89,1.26-.4,1.56-.48A3.14,3.14,0,0,1,107.56,107.57Z"/><path class="cls-10" d="M109.59,110.13a10.61,10.61,0,0,1,1.59,1.56c.5.6.4.9-.31.89a7.41,7.41,0,0,1-2.4-.47,7.28,7.28,0,0,1-2.16-1.12c-.56-.43-.78-.81-.68-1.11s.52-.46,1.23-.46,1.2,0,1.48,0A2.71,2.71,0,0,1,109.59,110.13Z"/><path class="cls-11" d="M40.23,110.65a10.62,10.62,0,0,0-1.68,1.45c-.54.56-.46.87.25.91a7.58,7.58,0,0,0,2.42-.31,7.45,7.45,0,0,0,2.23-1c.59-.4.84-.76.75-1.07s-.48-.5-1.19-.54-1.2-.07-1.48-.07A2.82,2.82,0,0,0,40.23,110.65Z"/><path class="cls-12" d="M50,127.09a9.24,9.24,0,0,1-.85,1.65c-.36.54-.62.53-.79,0a6.21,6.21,0,0,1-.21-2,6.33,6.33,0,0,1,.36-2c.22-.55.46-.82.73-.81s.49.3.66.87.28,1,.34,1.18A2.41,2.41,0,0,1,50,127.09Z"/><path class="cls-10" d="M97.49,133.24a11.5,11.5,0,0,1-.23,2.44c-.16.84-.49,1-1,.36A8.22,8.22,0,0,1,95,133.67a8.48,8.48,0,0,1-.55-2.63c0-.78.15-1.23.49-1.35s.75.12,1.24.73.82,1,1,1.28A3,3,0,0,1,97.49,133.24Z"/><path class="cls-11" d="M56.29,140.21a10.71,10.71,0,0,0,.55,2.16c.27.73.58.79.93.17a7.28,7.28,0,0,0,.8-2.3,7.41,7.41,0,0,0,.12-2.44q-.15-1.05-.63-1.14c-.32-.07-.66.21-1,.83s-.59,1-.72,1.29A2.82,2.82,0,0,0,56.29,140.21Z"/><path class="cls-11" d="M72.78,65.75a17.73,17.73,0,0,1,3.41-1.54c1.24-.42,1.65-.07,1.21,1a12.49,12.49,0,0,1-2.2,3.46,12.66,12.66,0,0,1-3.07,2.71c-1,.6-1.75.73-2.17.37s-.4-1.08,0-2.19.75-1.88,1-2.3A4.47,4.47,0,0,1,72.78,65.75Z"/><path class="cls-11" d="M78.87,66.8a18.86,18.86,0,0,1,3.74-.25c1.31,0,1.57.51.77,1.4a14.37,14.37,0,0,1-7.09,3.94c-1.17.21-1.89.08-2.16-.4s0-1.16.8-2,1.35-1.5,1.69-1.83A4.7,4.7,0,0,1,78.87,66.8Z"/><path class="cls-11" d="M59.47,70.89a11.75,11.75,0,0,0-2.22,0c-.78.08-.91.37-.41.86a7.36,7.36,0,0,0,2,1.34,7.59,7.59,0,0,0,2.33.72c.71.08,1.13,0,1.27-.32s0-.69-.56-1.19-.86-.83-1.08-1A2.66,2.66,0,0,0,59.47,70.89Z"/><path class="cls-1" d="M104.7,97.3a37,37,0,0,0-3-11.78,29.79,29.79,0,0,0-1.55-3A24.57,24.57,0,0,0,96.3,77h0c-.33-.37-.7-.74-1.08-1.12l-.14-.15c-.4-.39-.82-.78-1.27-1.17,0,0,0,0,0,0h0c-.44-.38-.91-.77-1.4-1.14l-.11-.09-.58-.42-.35-.26-.57-.38-.44-.29-.56-.35c-.19-.12-.39-.24-.6-.35s-.49-.29-.75-.42-.51-.28-.78-.41l-.5-.24-.73-.34-.52-.22-.81-.32-.49-.19-.51-.17c-.24-.09-.48-.16-.72-.24l-.16-.06c-.45-.14-.91-.26-1.38-.38l-.47-.12-1-.23-.54-.11-1.1-.18-.51-.08c-.54-.07-1.1-.13-1.66-.18s-1.13-.09-1.71-.11a27.22,27.22,0,0,0-19.5,7.46,31.43,31.43,0,0,0-5.35,6c-.12.18-.26.36-.38.53v0a25.78,25.78,0,0,0-1.33,2.31,20.08,20.08,0,0,0-1.56,4c0,.08,0,.15,0,.22a32.21,32.21,0,0,0-1.47,9.48q-.23,13.38,8.64,21.62T75.42,127a33.69,33.69,0,0,0,11-1.76l.07,0,.86-.31a30,30,0,0,0,9.76-6.06q7.77-7.08,7.77-18.24A31.52,31.52,0,0,0,104.7,97.3Zm-8.43,17.91a24.25,24.25,0,0,1-3.5,4.1l-.09.08a25.23,25.23,0,0,1-2.44,2,23.56,23.56,0,0,1-6.67,3.42l-3.53.82-2.24.27c-.77.07-1.56.1-2.37.1-.64,0-1.28,0-1.9-.07a27.9,27.9,0,0,1-5.41-.87,24.52,24.52,0,0,1-10.61-6,22.12,22.12,0,0,1-7.57-16.83v-.33c0-.48,0-.93.07-1.38,0,0-.16-3.19,3.14-6.27a1.28,1.28,0,0,0,.21.14l.21.12.14.08,0,0,0,0,.31.16.32.16.14.06.07,0h0l.52.22.13,0h0l.07,0,.11,0,.24.08.12,0,.2.07.09,0,.08,0,.09,0a9.05,9.05,0,0,1-.83-.81c-.17-.18-.33-.36-.48-.55a10.33,10.33,0,0,1-.74-1,17.49,17.49,0,0,1,3-1.76c.49-.23,1-.45,1.56-.65h0a37.75,37.75,0,0,1,10.61-2.12c.51,0,1-.07,1.58-.09l1.11,0c0,.14,0,.28,0,.42s0,.2,0,.3A9.11,9.11,0,0,1,71.85,91c-.06.24-.12.48-.2.71a6.45,6.45,0,0,1-2,.52h-.1l-.36,0h-.38a.27.27,0,0,0,0,.13,1,1,0,0,0,.14.17,2.08,2.08,0,0,0,.21.21,2.4,2.4,0,0,0,.23.21l0,0,.25-.11,1.17-.46.38-.14.13,0a13.46,13.46,0,0,1,2-.54,8.15,8.15,0,0,1,1.36-.14h.61a7,7,0,0,1,1.28.13l.43.09.48.12c.32.09.65.19,1,.31l.21.07.1,0,.27.09.53.21.92.38.27.11.31-.26.25-.22a.94.94,0,0,1,.1-.1,1,1,0,0,0,.16-.25s0,0,0,0H81.5s0,0-.07,0h-.16l-.44,0h0a5.39,5.39,0,0,1-2.44-.81l-.13-.09a2.27,2.27,0,0,1-.06-.25c-.06-.21-.1-.42-.14-.64a8.29,8.29,0,0,1-.13-.87c0-.15,0-.29,0-.44s0-.25,0-.38l1.12,0h0l1.5.12a37,37,0,0,1,11,2.41l.49.21h0c.35.15.68.31,1,.47,0,.14.06.25.06.25s.76.87.81.91,1,.45,1.57.68a10.08,10.08,0,0,1-1.73,1.9l.37-.1.21-.07.29-.09c.23-.08.45-.16.66-.25h0l.62-.28.13-.07.17-.09.48-.25.19.18a7.08,7.08,0,0,1,.54.57l.21.23a9.79,9.79,0,0,1,1.63,2.75s0,0,0,0a15.46,15.46,0,0,1,.46,2.29c0,.12,0,.23,0,.35a22.68,22.68,0,0,1,.13,2.39A20.84,20.84,0,0,1,96.27,115.21Z"/><path class="cls-5" d="M104.88,100.63q0,11.16-7.77,18.24a30,30,0,0,1-9.76,6.06l-.86.31a17.38,17.38,0,0,0,3.75-3.84,25.23,25.23,0,0,0,2.44-2l.09-.08a24.25,24.25,0,0,0,3.5-4.1,20.84,20.84,0,0,0,3.53-11.93,22.68,22.68,0,0,0-.13-2.39c0-.12,0-.23,0-.35a15.46,15.46,0,0,0-.46-2.29s0,0,0,0a9.79,9.79,0,0,0-1.63-2.75l-.21-.23a7.08,7.08,0,0,0-.54-.57l-.19-.18-.48.25-.17.09C95,81.38,88.8,73.25,84.07,68.92l.51.17.49.19.81.32.52.22.73.34.5.24c.27.13.53.27.78.41s.51.27.75.42.41.23.6.35l.56.35.44.29.57.38.35.26.58.42.11.09c.49.37,1,.76,1.4,1.14h0s0,0,0,0c.45.39.87.78,1.27,1.17l.14.15c.38.38.75.75,1.08,1.12h0a24.57,24.57,0,0,1,3.9,5.55,29.79,29.79,0,0,1,1.55,3,37,37,0,0,1,3,11.78A31.52,31.52,0,0,1,104.88,100.63Z"/><path class="cls-2" d="M75.27,95h0v1.17A20.75,20.75,0,0,1,69.52,93c-.39-.34-.65-.6-.66-.75h0a2.57,2.57,0,0,0,.9.64A23.67,23.67,0,0,0,75.27,95Z"/><path class="cls-2" d="M75.26,89.55V95a23.78,23.78,0,0,1-5.49-2.16,2.57,2.57,0,0,1-.9-.64,5.5,5.5,0,0,0,.73,0h.1a6.45,6.45,0,0,0,2-.52,4.27,4.27,0,0,0,.51-.3C73.33,90.5,74.26,89.58,75.26,89.55Z"/><path class="cls-13" d="M80.8,92.17a7,7,0,0,1-2.42-.57l0,0-.12-.06a.7.7,0,0,0,0-.25h0l.13.09A5.39,5.39,0,0,0,80.8,92.17Z"/><path class="cls-2" d="M78.21,91.26a.7.7,0,0,1,0,.25c-.07,2-2.94,3.53-2.94,3.53V89.55C76.22,89.58,77.11,90.42,78.21,91.26Z"/><path class="cls-3" d="M75.27,90.32V95h0a23.78,23.78,0,0,1-5.49-2.16,2.57,2.57,0,0,1-.9-.64h0s.3,0,.73,0h.1a8.53,8.53,0,0,0,1.89-.35,3,3,0,0,0,.58-.23,7.86,7.86,0,0,1,3.09-1.28Z"/><path class="cls-3" d="M78.21,91.51c-.07,2-2.94,3.53-2.94,3.53V90.32A7.23,7.23,0,0,1,78.21,91.51Z"/><path class="cls-3" d="M81.68,92.22h0s-.35,0-.84,0C81.33,92.22,81.68,92.22,81.68,92.22Z"/><path class="cls-6" d="M97.47,88.49a11.29,11.29,0,0,1-3.83,7.21,12,12,0,0,1-3,.39h-.46a12.08,12.08,0,0,1-3.74-.75c-.72-.22-1.45-.49-2.17-.78-1.16-.46-2.3-1-3.4-1.45a2.82,2.82,0,0,0,.82-.83s0,0,0,0h0s-.35,0-.85,0h0a5.39,5.39,0,0,1-2.44-.81l-.13-.09a10.84,10.84,0,0,1-.31-4.2c.69-5.74,5.62-10.06,11-9.67.35,0,.69.07,1,.13C94.8,78.44,98.11,83.13,97.47,88.49Z"/><path class="cls-6" d="M71.65,91.66a6.45,6.45,0,0,1-2,.52h-.1c-.43,0-.73,0-.73,0h0c0,.15.27.41.66.75l-1.35.58-.92.4h0l-.7.3-.15.06-.57.23c-.71.29-1.44.56-2.17.78a12.07,12.07,0,0,1-4.19.76,12.24,12.24,0,0,1-3.12-.41,11.48,11.48,0,0,1-2.53-3.16,11.6,11.6,0,0,1-1.27-4c-.68-5.73,3.13-10.69,8.53-11.09a10.49,10.49,0,0,1,10.15,6.48,11.23,11.23,0,0,1,.87,3.19A10.59,10.59,0,0,1,71.65,91.66Z"/><path class="cls-8" d="M97.47,88.49a11.29,11.29,0,0,1-3.83,7.21,12,12,0,0,1-3,.39h-.46a17,17,0,0,0,2.62-9.35A15.84,15.84,0,0,0,90,77.53C94.8,78.44,98.11,83.13,97.47,88.49Z"/><path class="cls-8" d="M71.65,91.66a6.45,6.45,0,0,1-2,.52h-.1c-.43,0-.73,0-.73,0h0c0,.15.27.41.66.75l-1.35.58-.92.4h0l-.7.3-.15.06a16.7,16.7,0,0,0,4.83-10.44,11.23,11.23,0,0,1,.87,3.19A10.59,10.59,0,0,1,71.65,91.66Z"/><path class="cls-13" d="M81.66,92.27a2.82,2.82,0,0,1-.82.83,20.5,20.5,0,0,1-5.57,3.11h0V95a2.61,2.61,0,0,0,.27-.06,15.25,15.25,0,0,0,1.61-.49l.36-.13.73-.3.36-.15c.73-.31,1.43-.63,2-.92h0l.35-.2A2.66,2.66,0,0,0,81.66,92.27Z"/><path class="cls-14" d="M81.67,92.23s0,0,0,0a2.66,2.66,0,0,1-.72.51l-.35.2h0c-.54.29-1.24.61-2,.92l-.36.15-.73.3-.36.13a15.25,15.25,0,0,1-1.61.49,2.61,2.61,0,0,1-.27.06s2.87-1.48,2.94-3.53l.12.06,0,0a7,7,0,0,0,2.42.57h0C81.32,92.23,81.67,92.23,81.67,92.23Z"/><path class="cls-3" d="M81.68,92.22h0s-.35,0-.84,0C81.33,92.22,81.68,92.22,81.68,92.22Z"/><path class="cls-15" d="M59.13,88.22a4.72,4.72,0,0,1,5.18-2.17"/><path class="cls-15" d="M90.29,88.22a4.73,4.73,0,0,0-5.19-2.17"/><path class="cls-10" d="M102.55,87.35a10.61,10.61,0,0,1,1.59,1.56c.5.6.39.89-.32.89a7.35,7.35,0,0,1-2.39-.47,7.46,7.46,0,0,1-2.17-1.12c-.55-.44-.78-.81-.67-1.12s.51-.45,1.22-.45,1.2,0,1.48,0A2.68,2.68,0,0,1,102.55,87.35Z"/></svg>