<svg id="Camada_1" data-name="Camada 1" xmlns="http://www.w3.org/2000/svg" viewBox="0 0 150 150"><defs><style>.cls-1,.cls-10{fill:#c4b1b1;}.cls-11,.cls-2{fill:#0f0d0d;}.cls-3,.cls-6{fill:#efe8e8;}.cls-4{fill:#353130;}.cls-17,.cls-5{fill:#2d2a29;}.cls-10,.cls-11,.cls-14,.cls-15,.cls-16,.cls-17,.cls-6,.cls-7,.cls-8,.cls-9{fill-rule:evenodd;}.cls-7{fill:#ce8091;}.cls-8{fill:#af6d8e;}.cls-9{fill:#dd999f;}.cls-12{fill:#9b8080;}.cls-13{fill:none;}.cls-14{fill:#141414;}.cls-15{fill:#3a3a3a;}.cls-16{fill:#484848;}</style></defs><path class="cls-1" d="M107.36,137.66a.49.49,0,0,1-.31.38c-2.67,1-6,2.09-8.57.29A7.92,7.92,0,0,1,96.05,135c-.6-1.23-1.28-2.68-2.62-3.24a.53.53,0,0,1-.31-.63.39.39,0,0,1,.57-.33,5.48,5.48,0,0,1,2.61,2.49,18.18,18.18,0,0,0,2,3.6c2.23,2.43,5.84,1.19,8.44.19C107.19,136.92,107.44,137.32,107.36,137.66Z"/><path class="cls-2" d="M112,138.79s-11.7.79-2.37-4.11l.75-.44Z"/><path class="cls-3" d="M65.38,149.83h0s0,0,0,0l.14,0h0Zm0,0h0s0,0,0,0l.14,0h0ZM48.16,101.9l-.06,0h.08Zm64.92,17a24.44,24.44,0,0,0-1.12-3.56c-.33-.83-.66-1.57-1-2.16s-.62-1.22-.77-1.48l-.11-.19-.35-.56,0-.1-.42-.62h0l-.62-.87c-.32-.43-.64-.87-1-1.3l-.31-.41-.46-.59c-.26-.33-.53-.66-.8-1h0l-.35-.4c-.18-.21-.37-.42-.56-.62s-.55-.6-.84-.89l-.13-.13a27.35,27.35,0,0,0-2.52-2.22,32.8,32.8,0,0,1-2.46,8.87,32,32,0,0,1-1.51,3.06,28.39,28.39,0,0,1-2.38,3.53,23,23,0,0,1-6.48,5.61A25.94,25.94,0,0,1,74.77,126a29.22,29.22,0,0,1-13.5-3.52A25.23,25.23,0,0,1,51,111.45a32.06,32.06,0,0,1-2.42-6.78A21.27,21.27,0,0,1,48.1,102a22.59,22.59,0,0,0-2,1.73l-1,1c-.13.13-.26.27-.38.41l-.55.62s0,0,0,0l-.17.21c-.17.19-.33.39-.48.58l-.09.12-.64.82-.19.26c-.33.45-.66.9-1,1.35l-.38.55c-.29.41-.56.81-.84,1.22a5.39,5.39,0,0,0-.33.5,14.16,14.16,0,0,0-.83,1.39,22.93,22.93,0,0,0-1,2.19h0a24.06,24.06,0,0,0-1.14,3.62,1.26,1.26,0,0,0-.06.21c-.32,1-1.5,5.53.48,8.81a5.91,5.91,0,0,0,1,1.25,6.92,6.92,0,0,0,1.4,1.05,5.28,5.28,0,0,0,.67.34,5.64,5.64,0,0,0,.64.25h0a5.73,5.73,0,0,0,1.21.29,6,6,0,0,0,1.11,0l.3,0,.33-.05.33-.07a2.9,2.9,0,0,0,.42-.12,2.46,2.46,0,0,0,.38-.14l.07,0,.67-.32a8.18,8.18,0,0,0,1.65-1.21h0l.47-.46h0a9.84,9.84,0,0,0,1.09-1.36l.28-.25.15-.13,1.07-.94.1.23s0,0,0,0a2,2,0,0,1,.09.3c.11.61.24,1.21.38,1.8,0,.15.06.29.1.45s0,.21.08.31c.06.25.12.49.19.73l.12.4.09.32c.12.4.23.79.36,1.18l.15.44c.06.17.11.33.17.49l.23.63c.11.29.22.59.34.88l0,.08c0,.09.07.16.1.24h0c.09.24.2.48.3.72.22.52.45,1,.7,1.53.08.17.16.34.25.51l.12.23s0,0,0,0,.13.26.2.38a.54.54,0,0,0,.05.11l.45.83,0,0c.08.16.17.31.25.45h0a3.37,3.37,0,0,1,.23.4q.3.52.63,1.05l.16.26h0s0,0,0,0l0,0,.07.12,0,0c.21.34.72,1.16,1.41,2.18.16.25.34.52.53.79l.8,1.13.4.55c.35.47.71.95,1.08,1.41a23.68,23.68,0,0,0,6.83.89,13.41,13.41,0,0,0,3.64-.57c.05-.12.1-.25.14-.37s.09-.23.13-.35.16-.47.23-.69.16-.46.24-.67a.19.19,0,0,0,0-.07c.13-.34.26-.66.39-1s.13-.35.2-.51h0a2,2,0,0,1,1.82-.79,2.28,2.28,0,0,1,.67.17,5.71,5.71,0,0,1,1.08.59l.26.18.07.11a4.34,4.34,0,0,1,.35.68,2.13,2.13,0,0,1,.14.35s0,.06,0,.1h0l.12.32,0,.07a5.81,5.81,0,0,0,.24.78l.15.36a6.66,6.66,0,0,0,.46.81,21.72,21.72,0,0,0,5,.78,26.63,26.63,0,0,0,5.61-.28h0a15.39,15.39,0,0,0,1.54-1.73,3,3,0,0,0,.22-.28,6,6,0,0,0,.42-.57c.14-.19.28-.39.41-.59s.27-.4.4-.61.27-.41.39-.62.32-.52.47-.79.31-.54.45-.81l.42-.77.43-.85h0l.43-.88.34-.73c.29-.63.56-1.25.81-1.85l.17-.41c.12-.29.23-.57.35-.84.16-.43.32-.84.48-1.24l.4-1.1c.1-.27.19-.52.27-.76s.13-.37.19-.55l.36-1.1.06-.2c0-.15.08-.26.1-.32a.11.11,0,0,0,0,0,0,0,0,0,0,0,0c.13-.34.27-.69.39-1,.3-.76.59-1.53.88-2.3.11-.29.24-.57.37-.85,0,0,0,0,0,0,.21.28.49.63.86,1s.79.88,1.33,1.42l.35.34h0l.16.15.16.15a5.92,5.92,0,0,0,.49.41c.17.13.33.24.49.34a4.4,4.4,0,0,0,.51.29l.46.2a6.5,6.5,0,0,1-1.9-1.24l-.32-.3a7.12,7.12,0,0,1,.55-1.27s0,0,0,0c.09-.17.19-.35.31-.54.15.26.31.51.47.75a10.51,10.51,0,0,0,1.79,2,8.77,8.77,0,0,0,1.39,1,3.32,3.32,0,0,0,.46,0l.33,0h0l.1,0h.06l.1,0H108l.28-.06.12,0,.13,0,.2-.07.46-.19.26-.13h0l.23-.13a6.71,6.71,0,0,0,1.72-1.47,26.39,26.39,0,0,0-2.06-7.59A35.93,35.93,0,0,1,113.08,118.89Z"/><path class="cls-2" d="M47.78,128.8a7.27,7.27,0,0,1-3.21,1.8l-.33.07-.33.05-.3,0a6,6,0,0,1-1.11,0,5.73,5.73,0,0,1-1.21-.29,8.46,8.46,0,0,1-1.28-.59,6.54,6.54,0,0,1-2.39-2.3c2,.44,4.89.37,8.05-2.42a11.35,11.35,0,0,1,2.1,3.67S47.78,128.79,47.78,128.8Z"/><path class="cls-4" d="M40,129.83a8.46,8.46,0,0,0,1.28.59,6.32,6.32,0,0,1-1.32-.59,6.54,6.54,0,0,1-2.39-2.3c-2-3.28-.8-7.79-.48-8.81a27.87,27.87,0,0,1,8.57,6.39c-3.16,2.79-6.1,2.86-8.05,2.42A6.54,6.54,0,0,0,40,129.83Z"/><path class="cls-4" d="M113.36,124.38a9.14,9.14,0,0,1-1.92,4.26h0a6.53,6.53,0,0,1-1.72,1.44l-.23.13h0l-.26.13-.46.19-.2.07-.13,0-.12,0-.28.06H108l-.1,0h-.06l-.1,0h0l-.33,0a3.32,3.32,0,0,1-.46,0h-.34l-.35,0-.25,0a3.73,3.73,0,0,1-.44-.08l-.34-.08c-.2-.06-.41-.13-.61-.21h0a4,4,0,0,1-.42-.2,4.4,4.4,0,0,1-.51-.29c-.16-.1-.32-.21-.49-.34a5.92,5.92,0,0,1-.49-.41l-.16-.15-.16-.15h0c0-.07,0-.15.08-.24l.12-.29c.09-.22.21-.48.36-.77l.31-.52a10.58,10.58,0,0,1,.76-1.11,20,20,0,0,1,3.58-3.59c.56-.44,1.18-.89,1.86-1.34a35.93,35.93,0,0,1,3.71-2.14l0,0A13.68,13.68,0,0,1,113.36,124.38Z"/><path class="cls-1" d="M76.53,143.64a5.71,5.71,0,0,0-1.08-.59,2.28,2.28,0,0,0-.67-.17,2,2,0,0,0-1.82.79h0c-.07.16-.13.33-.2.51s-.26.63-.39,1a.19.19,0,0,1,0,.07c-.08.21-.15.43-.24.67s-.14.46-.23.69-.08.23-.13.35-.09.25-.14.37a13.41,13.41,0,0,1-3.64.57c.35-.42.69-.86,1-1.31s.49-.75.7-1.14a9.89,9.89,0,0,0,.45-.93C71.24,141.82,75.16,141.9,76.53,143.64Z"/><path class="cls-1" d="M109.32,110.22h0l-.62-.87c-.32-.43-.64-.87-1-1.3l-.31-.41-.46-.59c-.26-.33-.53-.66-.8-1h0l-.35-.4c-.18-.21-.37-.42-.56-.62s-.55-.6-.84-.89l-.13-.13a27.35,27.35,0,0,0-2.52-2.22,32.8,32.8,0,0,1-2.46,8.87l.5.23.48.24c.26.13.54.28.84.46l.31.19.28.18c.15.08.3.18.45.28l.46.33a17,17,0,0,1,1.79,1.48c.22.18.43.39.64.6s.4.41.6.63.43.48.64.74a16.28,16.28,0,0,1,1,1.34q.34.5.69,1l.21.34a22.91,22.91,0,0,1,1.16,2.27,35.93,35.93,0,0,1,3.71-2.14,24.44,24.44,0,0,0-1.12-3.56c-.33-.83-.66-1.57-1-2.16s-.62-1.22-.77-1.48l-.11-.19-.35-.56,0-.1Z"/><path class="cls-1" d="M104.57,130.44l-.46-.2a4.4,4.4,0,0,1-.51-.29c-.16-.1-.32-.21-.49-.34a5.92,5.92,0,0,1-.49-.41l-.16-.15-.16-.15h0l-.35-.34c-.54-.54-1-1-1.33-1.42s-.65-.77-.86-1c0,0,0,0,0,0-.13.28-.26.56-.37.85-.29.77-.58,1.54-.88,2.3-.12.34-.26.69-.39,1a0,0,0,0,1,0,0,.11.11,0,0,1,0,0c0,.06,0,.17-.1.32l-.06.2-.36,1.1c-.06.18-.13.36-.19.55s-.17.49-.27.76l-.4,1.1c-.16.4-.32.81-.48,1.24-.12.27-.23.55-.35.84l-.17.41c-.25.6-.52,1.22-.81,1.85l-.34.73-.43.88h0l-.43.85-.42.77q-.21.4-.45.81c-.15.27-.31.53-.47.79s-.25.42-.39.62-.26.41-.4.61-.27.4-.41.59a6,6,0,0,1-.42.57,3,3,0,0,1-.22.28A15.39,15.39,0,0,1,89,147.9h0a26.63,26.63,0,0,1-5.61.28,37.36,37.36,0,0,0,3.59-4.06l.37-.49A47.22,47.22,0,0,0,91.44,137a58.31,58.31,0,0,0,2.5-5.54c.21-.53.41-1.07.61-1.63a77.37,77.37,0,0,0,3.19-10.34,35.69,35.69,0,0,0,3.76,6.49c.25.34.52.68.79,1l.57.65h0s0,0,0,0a7.12,7.12,0,0,0-.55,1.27l.32.3A6.5,6.5,0,0,0,104.57,130.44Z"/><path class="cls-1" d="M55.48,138.48l-.45-.83a.54.54,0,0,1-.05-.11c-.07-.12-.14-.25-.2-.38s0,0,0,0l-.12-.23c-.09-.17-.17-.34-.25-.51-.25-.5-.48-1-.7-1.53-.1-.24-.21-.48-.3-.72h0c0-.08-.07-.15-.1-.24l0-.08c-.12-.29-.23-.59-.34-.88l-.23-.63c-.06-.16-.11-.32-.17-.49l-.15-.44c-.13-.39-.24-.78-.36-1.18l-.09-.32-.12-.4c-.07-.24-.13-.48-.19-.73,0-.1-.06-.21-.08-.31s-.07-.3-.1-.45c-.14-.59-.27-1.19-.38-1.8a2,2,0,0,0-.09-.3,14.62,14.62,0,0,0-1.18.95l-.05,0-.8.71c-.18.22-.4.49-.67.77s-.29.3-.46.45h0s0,0,0,0a11.35,11.35,0,0,0-2.1-3.67h0A14.39,14.39,0,0,0,46.8,124a.86.86,0,0,0,.13-.14,24.47,24.47,0,0,0,3.41-5s0,.19.1.53c.29,1.46,1.14,5.72,2.18,10h0c.07.26.13.52.2.77l.18.71c.15.59.31,1.18.47,1.76s.29,1,.44,1.53a1.87,1.87,0,0,0,.07.22c.21.72.43,1.39.65,2,.09.26.18.51.27.74s.15.38.22.56h0A8,8,0,0,0,55.48,138.48Z"/><path class="cls-4" d="M61.13,147l.48.6a7,7,0,0,0,.88.91A5.75,5.75,0,0,0,65.4,150h.53l.49-.47A19,19,0,0,0,68,147.88,23.68,23.68,0,0,1,61.13,147Zm4.25,2.84h0s0,0,0,0l.14,0h0Z"/><path class="cls-4" d="M65.38,149.83l.18,0h0l-.14,0c-.06,0-.06,0,0,0Z"/><path class="cls-2" d="M71.6,147.31A3.88,3.88,0,0,1,68.81,150H65.93l.49-.47A19,19,0,0,0,68,147.88,13.41,13.41,0,0,0,71.6,147.31Z"/><path class="cls-2" d="M89,147.91A8.31,8.31,0,0,1,85.71,150h-3.3a6.71,6.71,0,0,1-.83-.25c.48-.39,1.08-.9,1.76-1.56A26.63,26.63,0,0,0,89,147.91Z"/><path class="cls-4" d="M83.34,148.19c-.68.66-1.28,1.17-1.76,1.56a6.4,6.4,0,0,1-.84-.34c-.17-.08-.33-.17-.49-.26a3,3,0,0,1-.42-.27,5.27,5.27,0,0,1-1.44-1.47A21.72,21.72,0,0,0,83.34,148.19Z"/><path class="cls-2" d="M113.36,124.38a9.14,9.14,0,0,1-1.92,4.26h0a6.53,6.53,0,0,1-1.72,1.44l-.23.13h0l-.26.13-.46.19-.2.07-.13,0-.12,0-.28.06H108l-.1,0h-.06l-.1,0h0l-.33,0a3.32,3.32,0,0,1-.46,0h-.34l-.35,0-.25,0a3.73,3.73,0,0,1-.44-.08l-.34-.08c-.2-.06-.41-.13-.61-.21h0a4,4,0,0,1-.42-.2,4.4,4.4,0,0,1-.51-.29c-.16-.1-.32-.21-.49-.34a5.92,5.92,0,0,1-.49-.41l-.16-.15-.16-.15h0c0-.07,0-.15.08-.24l.12-.29.36-.77s6.59,2.65,6.51-6.56a35.93,35.93,0,0,1,3.71-2.14l0,0A13.68,13.68,0,0,1,113.36,124.38Z"/><path class="cls-5" d="M87.3,143.64a9,9,0,0,1-1.37.16c.33.12.66.23,1,.33a13,13,0,0,0,2.39.47,1.51,1.51,0,0,0,.7,0,2.2,2.2,0,0,0,.51-.35,4.69,4.69,0,0,1,1.81-.7c.16-.26.32-.52.47-.79s.31-.54.45-.81l.42-.77.43-.85A26.33,26.33,0,0,1,91.6,142,13.2,13.2,0,0,1,87.3,143.64Z"/><path class="cls-5" d="M59.31,139.52a1.13,1.13,0,0,1,.67-.26l3.83-.6a5.09,5.09,0,0,1-1.29-.13l-1.29-.18c-.86-.14-1.71-.31-2.56-.52a5.8,5.8,0,0,0-2.39-.53,2.75,2.75,0,0,1-1.1-.1l-.28,0-.14,0s0,0,0,0,.13.26.2.38a.54.54,0,0,0,.05.11l.45.83,0,0c.08.16.17.31.25.45h0a3.37,3.37,0,0,1,.23.4q.3.52.63,1.05l.16.26h0s0,0,0,0l0,0,.07.12,0,0,.72.15c.38.08.92.19,1.24-.12S58.94,139.92,59.31,139.52Z"/><path class="cls-5" d="M67.12,141.58c1.34-.18,2.76.44,4,0L67,140.28a1.53,1.53,0,0,0-1-.08c-.25.1-.44.32-.68.44a3.73,3.73,0,0,1-1.5.12,3.49,3.49,0,0,0-2.44,1.71c-.14.2-.27.4-.4.61s-.12.29-.19.33-.3,0-.41-.07A6.05,6.05,0,0,0,58.9,143a2.45,2.45,0,0,0-.58.08c.16.25.34.52.53.79l.8,1.13c.78.09,1.57.13,2.35.17,1.22.06,2.61.06,3.44-.84-.08-.42-.81-.51-.81-.94a.59.59,0,0,1,.12-.31A3.43,3.43,0,0,1,67.12,141.58Z"/><path class="cls-5" d="M89.88,139.05l-.59.35c-3.54,2.08-7.93,3.36-11.72,1.8a16.82,16.82,0,0,0,4.72,1.36,14.72,14.72,0,0,0,4.95-.3,15.46,15.46,0,0,0,4.59-2,7.07,7.07,0,0,1,1.16-.6,2.72,2.72,0,0,1,.62-.17,1.2,1.2,0,0,0,.42-.07c.41-.22,0-.78-.21-1C92.69,137.24,91,138.38,89.88,139.05Z"/><path class="cls-5" d="M54.47,126.22c.67-.06,1.34-.11,2-.14l1,0a3.86,3.86,0,0,1,1,0l-2.33-.76a17.54,17.54,0,0,1-3.24-1.3,3.1,3.1,0,0,0-.93-.42.88.88,0,0,0-.92.3,1.33,1.33,0,0,0-.13.79l.06,1.14a1.22,1.22,0,0,0,.17.67c.3.37,1,.07,1.43,0C53.16,126.37,53.82,126.29,54.47,126.22Z"/><path class="cls-5" d="M54.77,127.4c-.26.28.08.7.26.92a3.18,3.18,0,0,0,2.4,1.26c1,0,2-.05,3.07,0a14.79,14.79,0,0,1,5.67,1.77c2,1.11,4,2.75,6.32,2.4-2.61-.91-4.57-3.06-6.72-4.81-.18-.15-.36-.3-.55-.44a7.63,7.63,0,0,0-2.54-1.33,7.43,7.43,0,0,0-2.82,0c-1.32.14-2.65-.07-4-.06C55.57,127.19,55,127.15,54.77,127.4Z"/><path class="cls-5" d="M65,133.29a13.9,13.9,0,0,0-1.73-.75,13.62,13.62,0,0,0-1.5-.46c-.19-.05-.75-.26-.94-.15s.14.27.26.35a6.64,6.64,0,0,0,2.12.85A6.75,6.75,0,0,0,65,133.29Z"/><path class="cls-5" d="M67,126.47c1.23,2.67,3.89,4.33,6.41,5.85a6.76,6.76,0,0,0,1.91.88,2.23,2.23,0,0,0,2-.43l-1-.41a6.68,6.68,0,0,0,2.56.15,11.68,11.68,0,0,0,4.42-2,18,18,0,0,1-6.56-.46c-1.15-.29-4.14-1.14-4.46-1.23A16.29,16.29,0,0,1,67,126.47Z"/><path class="cls-5" d="M80.47,145.12a10.54,10.54,0,0,1-1.57-.28,3.56,3.56,0,0,0-1.69-.23,2.13,2.13,0,0,1,.14.35s0,.06,0,.1h0l.12.32,0,.07a5.81,5.81,0,0,0,.24.78l.15.36c.53,0,1.06-.09,1.57-.12a3.75,3.75,0,0,0,1.56-.31,1.28,1.28,0,0,0,.76-1.29C81.82,145.1,80.6,145.13,80.47,145.12Z"/><path class="cls-5" d="M85.89,147.15a7.62,7.62,0,0,0,3.07.75,15.39,15.39,0,0,0,1.54-1.73,11.79,11.79,0,0,1-2.79.83A12.3,12.3,0,0,1,85.89,147.15Z"/><path class="cls-5" d="M69.67,145.43l-.33.07a6.59,6.59,0,0,1-1.88.1,1.88,1.88,0,0,0,1,.8,4.59,4.59,0,0,0,.48.17,7.07,7.07,0,0,0,2.77.37c.05-.12.09-.23.13-.35s.16-.47.23-.69.16-.46.24-.67a.19.19,0,0,0,0-.07c.13-.34.26-.66.39-1l-.23.13A13.37,13.37,0,0,1,69.67,145.43Z"/><path class="cls-5" d="M92.14,127.89c-2.79,1.08-5.79,2.18-8.71,1.51.83.33,1.57.86,2.42,1.13a5.74,5.74,0,0,0,.9.18L86,131l1.21-.25a12.71,12.71,0,0,0,1.85-.06,15.52,15.52,0,0,0,4.23-.86,7.3,7.3,0,0,0,2.22-1.39,5,5,0,0,0,.91-.43c1.28-.8,1.88-2.31,2.41-3.72-1.74.24-3,1.73-4.51,2.63A13.23,13.23,0,0,1,92.14,127.89Z"/><path class="cls-5" d="M94.32,130.42a21.09,21.09,0,0,1-3.33.94,15,15,0,0,1-4.07.23,6.43,6.43,0,0,0-3.06.13,8.22,8.22,0,0,0-2,1.66,6.71,6.71,0,0,1-6,1.43,9.65,9.65,0,0,0,6.21.29c1-.3,2-.78,3.08-1a30.83,30.83,0,0,1,5.27-.26,14.48,14.48,0,0,0,6.49-2,8.83,8.83,0,0,0,1-.67l1-2.71a3.66,3.66,0,0,0-.89.42A32.18,32.18,0,0,1,94.32,130.42Z"/><path class="cls-5" d="M53.47,132.66c2.64,1.17,5.39,2.36,8.28,2.28a7,7,0,0,1-2.85-1.64,13.51,13.51,0,0,0-1.09-1.05,7,7,0,0,0-2.06-1l-2.93-1.06-.91-.33.09.32c.12.4.23.79.36,1.18l.15.44c.06.17.11.33.17.49l.73.34Z"/><path class="cls-5" d="M57.76,136a4.7,4.7,0,0,1-1.08-.44l-1.16-.48c-.52-.22-1-.45-1.54-.69l-.48-.22-.11-.06c.09.24.2.48.3.72.22.52.45,1,.7,1.53a1,1,0,0,0,.24,0A9,9,0,0,0,57.76,136Z"/><path class="cls-5" d="M83.36,138.81a11,11,0,0,0,3.48-.42,2.11,2.11,0,0,0,1-.63,1,1,0,0,0,.06-1.11,1.47,1.47,0,0,0-1.23-.35l-.47,0a3.75,3.75,0,0,0-1.57-.36,7.43,7.43,0,0,0-2.09.55c-3.06,1-6.4.62-9.6.2C75.87,138.81,79.75,138.85,83.36,138.81Z"/><path class="cls-5" d="M94.27,134.81a15.39,15.39,0,0,1-2,.44l-.37.07a21.92,21.92,0,0,1-2.68.27,10.51,10.51,0,0,0,2.6.57,12,12,0,0,0,4.29-.38h0L96.8,134l-.29,0C95.76,134.28,95,134.6,94.27,134.81Z"/><path class="cls-5" d="M63.74,136.94a4.4,4.4,0,0,0,1.4.26c2.58.3,5,1.88,7.55,1.74a35.84,35.84,0,0,1-2.81-2.42,6.28,6.28,0,0,0-3.28-1.61,6.2,6.2,0,0,0-2.84.56c-.32.12-.78.22-.74.64A1.2,1.2,0,0,0,63.74,136.94Z"/><path class="cls-5" d="M53.15,120.24a20.88,20.88,0,0,0,2.49,1.28c.52.24,1,.47,1.57.69l.87.35c.16.06.64.15.74.28A9.57,9.57,0,0,0,57,121.11c-1.2-.92-2.53-1.67-3.71-2.62a9.26,9.26,0,0,1-1.6-1.59,10.78,10.78,0,0,0-1.52-2c.3.92.61,1.85,1,2.76A4.74,4.74,0,0,0,53.15,120.24Z"/><path class="cls-5" d="M81.2,129.28c.06-.11-.12-.39-.12-.5a1,1,0,0,1,.68-.94c1.09-.43,2.15.7,3.27.41a2.78,2.78,0,0,0,1.48-1.41l1.41-2.25c-.07.11-.56.21-.69.25l-.84.3-1.53.55c-1,.37-2,.8-3.07,1.1s-2.13-.05-3.2.13c-.24,0-.37.07-.33.34C78.35,127.81,80.91,129.84,81.2,129.28Z"/><path class="cls-5" d="M89.47,127.14c.32.11.84-.23,1.12-.36a5.54,5.54,0,0,0,1.17-.75c.23-.19.44-.41.68-.59a10.29,10.29,0,0,1,1-.58A5.29,5.29,0,0,0,96,120.24a15.17,15.17,0,0,0-2.67,1.49,15.76,15.76,0,0,0-3.8,3.8C89.34,125.86,88.81,126.92,89.47,127.14Z"/><path class="cls-5" d="M43.23,119a15.08,15.08,0,0,1-3.35-5,14.61,14.61,0,0,0-.58-1.36,22.93,22.93,0,0,0-1,2.19h0l0,0c.79.82,1.59,1.64,2.38,2.47a5.5,5.5,0,0,0,.85.75A13.91,13.91,0,0,1,43.23,119Z"/><path class="cls-5" d="M47.24,121.73c-.1-.06-.19-.37-.25-.48l-.26-.48c-.18-.32-.37-.63-.56-.94-.54-.83-1-1.51-2-1.65-.13,0-.6-.1-.67.08s.76.62.9.73a8.34,8.34,0,0,1,1.06,1.16,8.53,8.53,0,0,0,1.22,1.18A5.66,5.66,0,0,0,47.24,121.73Z"/><path class="cls-5" d="M43.21,117.09c.19,0,.37,0,.56,0a1.36,1.36,0,0,1,.68.24A18.3,18.3,0,0,1,46.36,119c.13.11.4.16.42,0a9.37,9.37,0,0,1-.8-.87,14.17,14.17,0,0,1-2.84-4.34c-.51-1.47-.53-3.1-1.26-4.46a2.14,2.14,0,0,0-.2-.32l-.38.55c-.29.41-.56.81-.84,1.22a5.39,5.39,0,0,0-.33.5A26.77,26.77,0,0,0,42,116C42.26,116.53,42.65,117.07,43.21,117.09Z"/><path class="cls-5" d="M44,113.2a1.92,1.92,0,0,0,.26,1.15c.25.38.57.74.85,1.11a17.39,17.39,0,0,0,1.15,1.42,9.66,9.66,0,0,0,1.51,1.35,2.41,2.41,0,0,0,1.9.55,14.9,14.9,0,0,1-2.36-2.06,13.72,13.72,0,0,1-1.89-2.21,4.58,4.58,0,0,1-.76-2.77s-.12.11-.14.13a1.15,1.15,0,0,0-.14.17,2.5,2.5,0,0,0-.21.35A2.26,2.26,0,0,0,44,113.2Z"/><path class="cls-5" d="M48.59,113.06a1.22,1.22,0,0,0-.71-.76c-.24-.08-.52,0-.77-.11-.79-.21-1-1.26-1.75-1.67a.16.16,0,0,0-.13,0c-.11,0-.11.18-.08.29l.46,1.81a3.37,3.37,0,0,0,.69,1.61c.16.16.35.29.52.44s.6.52.9.78.67.6,1,.89a1.6,1.6,0,0,0,.83.48,8.93,8.93,0,0,1-.79-2.67A4.53,4.53,0,0,0,48.59,113.06Z"/><path class="cls-5" d="M43.17,109.86c.13.47.35,1,.82,1.09a18.77,18.77,0,0,1,.16-3.09,4.34,4.34,0,0,0,.07-2.17s0,0,0,0l-1.57,2c.07.24.12.48.17.72C42.92,108.89,43,109.38,43.17,109.86Z"/><path class="cls-5" d="M45.31,108.23a7,7,0,0,0,.55,1.3,3.09,3.09,0,0,0,1.25,1.5,4.54,4.54,0,0,0,.74.23,3.18,3.18,0,0,1,1.42.92c-.37-1.41-2-2.15-2.54-3.49a6.6,6.6,0,0,1-.21-2.77,5.4,5.4,0,0,0-.11-1.45,3,3,0,0,0-.31-.79l-1,1a1.72,1.72,0,0,0,0,.2c0,.69,0,1.39,0,2.08A6.25,6.25,0,0,0,45.31,108.23Z"/><path class="cls-5" d="M49.1,110a11,11,0,0,0,1.9,1.48,32.06,32.06,0,0,1-2.42-6.78,5.68,5.68,0,0,0-.39,3.87A4.15,4.15,0,0,0,49.1,110Z"/><path class="cls-5" d="M46.93,123.86l-.37-.25a4.11,4.11,0,0,1,.24.39,7.37,7.37,0,0,1,.48.87,10.31,10.31,0,0,1,.82,2.44c.07.33.08.67.15,1,0,0,0,0,0,0,.27-.28.49-.55.67-.77l.8-.71a1,1,0,0,0-.1-.17A8.88,8.88,0,0,0,46.93,123.86Z"/><path class="cls-5" d="M49.7,122.35a2.32,2.32,0,0,0-.29-.51l-.45-.63-.4-.56c-.1-.13-.2-.29-.37-.33s-.23.06-.25.2-.08.47-.12.7a.6.6,0,0,0,.25.68,6.44,6.44,0,0,1,1.57,2.19c0,.1.11.22.21.19s.12-.17.11-.28c0-.35-.09-.71-.13-1.07A2.22,2.22,0,0,0,49.7,122.35Z"/><path class="cls-5" d="M45.31,123l-.32-.29a1.48,1.48,0,0,0-.72-1.17c-.4-.28-.87-.45-1.27-.71a5.78,5.78,0,0,1-.67-.53A1,1,0,0,0,42,120a.33.33,0,0,0-.4.16c-.07.17.08.35.21.48a8.65,8.65,0,0,0,2.1,1.72,3.43,3.43,0,0,1,.92.56c.26.28.43.71.8.8a.39.39,0,0,0,0-.43A1.17,1.17,0,0,0,45.31,123Z"/><path class="cls-5" d="M111,113.17c-.19.39-.33.79-.49,1.18a14.86,14.86,0,0,1-2.51,4.07,12.07,12.07,0,0,1-.84.91,3.92,3.92,0,0,1,1-.57,6,6,0,0,0,.62-.32,5.5,5.5,0,0,0,.85-.75c.75-.79,1.52-1.58,2.28-2.36Z"/><path class="cls-5" d="M104,119.33a18.3,18.3,0,0,1,1.91-1.73,1.36,1.36,0,0,1,.68-.24c.19,0,.37,0,.56,0l.13,0c.49-.09.84-.58,1.1-1a25.79,25.79,0,0,0,1.82-4.65l-.11-.19-.38-.66-.42-.62-.63-.87a3,3,0,0,0-.18.3c-.73,1.36-.75,3-1.26,4.46a8.66,8.66,0,0,1-1,1.92,24,24,0,0,1-1.87,2.42,9.37,9.37,0,0,1-.8.87C103.63,119.49,103.9,119.44,104,119.33Z"/><path class="cls-5" d="M103.06,117a14.47,14.47,0,0,1-2.36,2.06,2.4,2.4,0,0,0,1.9-.55,9.36,9.36,0,0,0,1.52-1.36,15.7,15.7,0,0,0,1.15-1.41c.27-.37.59-.73.85-1.11a2.4,2.4,0,0,0,.08-2,1.75,1.75,0,0,0-.2-.35,1.22,1.22,0,0,0-.15-.17s-.13-.1-.13-.13a4.48,4.48,0,0,1-.77,2.76A12.48,12.48,0,0,1,103.06,117Z"/><path class="cls-5" d="M106.4,111.25c.47-.09.69-.62.82-1.09s.25-1,.35-1.46c.05-.22.09-.43.15-.65L106.17,106a.14.14,0,0,0,0,.07,4.43,4.43,0,0,0,.09,2.1A18.77,18.77,0,0,1,106.4,111.25Z"/><path class="cls-5" d="M102.54,111.56a4.54,4.54,0,0,0,.74-.23,3.09,3.09,0,0,0,1.25-1.5,7,7,0,0,0,.55-1.3,6.25,6.25,0,0,0,.16-1.3c0-.69,0-1.39,0-2.08a.49.49,0,0,0,0-.11l-1-1a3,3,0,0,0-.29.75,5.4,5.4,0,0,0-.11,1.45,6.6,6.6,0,0,1-.21,2.77c-.47,1.1-1.64,1.8-2.24,2.8a2.49,2.49,0,0,0-.3.69,3.53,3.53,0,0,1,.58-.51A3,3,0,0,1,102.54,111.56Z"/><path class="cls-5" d="M101.5,125.93a8.82,8.82,0,0,0-.88,1.2c.35.41.79.88,1.33,1.42,0-.22,0-.45.1-.67a7.62,7.62,0,0,1,.24-.94,9.7,9.7,0,0,1,.58-1.5,7.37,7.37,0,0,1,.48-.87,4.11,4.11,0,0,1,.24-.39l-.37.25A8.74,8.74,0,0,0,101.5,125.93Z"/><path class="cls-5" d="M100.75,124.39a6.55,6.55,0,0,1,1.56-2.19.89.89,0,0,0,.25-.3.81.81,0,0,0,0-.38c0-.23-.07-.47-.11-.7s-.1-.23-.26-.2-.26.2-.36.33l-.41.55-.45.64a2.5,2.5,0,0,0-.29.5,2.38,2.38,0,0,0-.12.59c0,.36-.09.71-.13,1.07,0,.11,0,.26.1.28S100.71,124.49,100.75,124.39Z"/><path class="cls-5" d="M97.32,117.34a.73.73,0,0,0,.21-.22,3.32,3.32,0,0,0,.68-1.58,7.33,7.33,0,0,0-.43-1.81,28.39,28.39,0,0,1-2.38,3.53c.52.06,1,.11,1.56.13A.62.62,0,0,0,97.32,117.34Z"/><path class="cls-5" d="M100.68,114.64c0-.19-.06-.72-.36-.47a2.83,2.83,0,0,0-.58,1,13.88,13.88,0,0,0-.47,1.42c-.21.73-.6,1.38-.85,2.09a2.34,2.34,0,0,0,1.38-.42,2.13,2.13,0,0,0,.68-1.19A6.6,6.6,0,0,0,100.68,114.64Z"/><path class="cls-5" d="M101.51,117.16a4.44,4.44,0,0,0,1-1.58c.33-.61.79-1.15,1.16-1.73a3.61,3.61,0,0,0,.54-1.16c0-.1,0-.24-.07-.27a.19.19,0,0,0-.17.06c-.37.27-.73.66-1.19.62-.17,0-.36-.09-.49,0s-.28.56-.38.78l-.33.84a14.66,14.66,0,0,0-.48,1.46,2,2,0,0,0-.11,1C101.11,117.43,101.36,117.28,101.51,117.16Z"/><path class="cls-5" d="M105.53,120.81c-.26,0-.46.34-.6.51s-.51.59-.76.89c-.11.13-.48.48-.45.67s.48-.08.56-.15a6.25,6.25,0,0,0,.44-.45,2.29,2.29,0,0,1,.23-.21,2.8,2.8,0,0,0,.25-.14c0,.19.15.36.35.37a.91.91,0,0,0,.53-.21,7.69,7.69,0,0,0,2.32-2.46l-2.6,1.91C105.84,121.29,105.87,120.86,105.53,120.81Z"/><path class="cls-5" d="M105,119.68c-.1.1-1.15.9-.91,1s.39-.17.48-.24a5.92,5.92,0,0,0,.74-.52c0,.24.37.32.56.17a1,1,0,0,0,.29-.63c0-.31.07-.63.08-.95C105.69,118.61,105.43,119.27,105,119.68Z"/><path class="cls-6" d="M86.56,71.93,88,73.1q.52-.18,1-.39ZM92.09,59.3a19.44,19.44,0,0,1-4.64,8.33,13.79,13.79,0,0,1,1.56-.2,16.88,16.88,0,0,0,3.45-6.63q4.74,1,3.56,5.94a9.93,9.93,0,0,1-1.3,1.16c1.13-.23,2-1.36,2.65-2.86C97.39,62,95.62,60,92.09,59.3Z"/><path class="cls-7" d="M92.46,60.8A16.88,16.88,0,0,1,89,67.43l.37,0,.4-.51a.41.41,0,0,0,.07-.11s0,0,0,0,0,0,0,0h0c.24-.33.47-.66.69-1,.09-.13.17-.27.25-.4s.3-.51.43-.78a4.3,4.3,0,0,0,.24-.48,5.24,5.24,0,0,0,.23-.48c.12-.26.23-.53.33-.8s.14-.35.2-.53.13-.36.18-.54.14-.47.21-.71a5.09,5.09,0,0,1,1.89,1.06c1,1,1.27,2.44.67,4.37a5.39,5.39,0,0,1-.58.59.8.8,0,0,1-.13.13l-.23.2-.16.12a1.57,1.57,0,0,1-.19.15l-.29.2a2.34,2.34,0,0,0,1.11,0h0A9.93,9.93,0,0,0,96,66.74Q97.21,61.78,92.46,60.8Z"/><path class="cls-8" d="M94.72,67.91a7.32,7.32,0,0,1-6.57,1.21L87.58,69A18.74,18.74,0,0,0,89,67.43l.37,0a1,1,0,0,1-.13.16l-.2.24c-.12.13-.23.27-.35.39l-.2.22c-.17.19-.35.37-.53.55l.58.07c.17,0,.33,0,.5,0h.49l.47,0,.47,0,.45-.07a6.61,6.61,0,0,0,1.25-.35l.17-.07h0l.49-.22.06,0,.21-.11.21-.13.28-.18A2.34,2.34,0,0,0,94.72,67.91Z"/><path class="cls-9" d="M94.52,62.1c1,1,1.27,2.44.67,4.37a5.39,5.39,0,0,1-.58.59.8.8,0,0,1-.13.13l-.23.2-.16.12a1.57,1.57,0,0,1-.19.15l-.29.2a13.64,13.64,0,0,0-4.23-.45l.4-.51a.41.41,0,0,0,.07-.11s0,0,0,0,0,0,0,0h0a11.12,11.12,0,0,0,.69-1c.09-.13.17-.27.25-.4s.3-.51.43-.78a3.58,3.58,0,0,0,.24-.48,5.24,5.24,0,0,0,.23-.48c.12-.26.23-.53.33-.8a4.81,4.81,0,0,0,.2-.53c.06-.18.13-.36.18-.54s.14-.47.21-.71A5.09,5.09,0,0,1,94.52,62.1Z"/><path class="cls-10" d="M97.37,65A10.7,10.7,0,0,1,97,67.55a26.66,26.66,0,0,1-8,5.16l-2.47-.78-2-1.64a24.18,24.18,0,0,0,2.92-2.66,13.79,13.79,0,0,1,1.56-.2A18.74,18.74,0,0,1,87.58,69l.57.14a7.32,7.32,0,0,0,6.57-1.21h0C95.85,67.67,96.71,66.54,97.37,65Z"/><path class="cls-7" d="M93.61,67.86l-.28.18-.21.13-.21.11-.06,0-.49.22h0l-.17.07a6.61,6.61,0,0,1-1.25.35l-.45.07-.47,0-.47,0h-.49l-.5,0L88,69c.18-.18.36-.36.53-.55l.2-.22c.12-.12.23-.26.35-.39l.2-.24a1,1,0,0,0,.13-.16A13.64,13.64,0,0,1,93.61,67.86Z"/><path class="cls-10" d="M53.63,67a2,2,0,0,1,.6-.27.87.87,0,0,1,.86.19.82.82,0,0,1,.12.86,2,2,0,0,1-.2.48l-.1-.09a1.44,1.44,0,0,0,.13-.32.69.69,0,0,0-.12-.73.66.66,0,0,0-.71-.06,1.58,1.58,0,0,0-.35.16Z"/><path class="cls-6" d="M65.14,69.67c-.57-.5-1.11-1-1.61-1.55a19.62,19.62,0,0,1-5.24-9.9q-6.69.95-5.47,7.92c.27.28.54.56.81.82a2,2,0,0,1,.6-.27.87.87,0,0,1,.86.19.83.83,0,0,1,.12.86,2,2,0,0,1-.2.48c.29.24.58.48.88.71a24.9,24.9,0,0,0,5.6,3.32ZM53.9,65.4c-.59-3.35.73-5.25,3.92-5.7a17.31,17.31,0,0,0,4.36,8.46l-.58.11A7.51,7.51,0,0,1,53.9,65.4Z"/><path class="cls-7" d="M57.82,59.7c-3.19.45-4.51,2.35-3.92,5.7a7.51,7.51,0,0,0,7.7,2.87l.58-.11A17.31,17.31,0,0,1,57.82,59.7Zm3.38,8.46a7.46,7.46,0,0,1-6.46-3q-.7-3,.94-4.32a5.12,5.12,0,0,1,2-.94,17.2,17.2,0,0,0,4.15,8.2Z"/><path class="cls-9" d="M57.64,59.93a17.2,17.2,0,0,0,4.15,8.2l-.59,0a7.46,7.46,0,0,1-6.47-3c-.46-2-.15-3.4,1-4.32A5.19,5.19,0,0,1,57.64,59.93Z"/><path class="cls-1" d="M61.49,72.25a24.9,24.9,0,0,1-5.6-3.32,16.25,16.25,0,0,0,7.64-.81c.5.53,1,1,1.61,1.55Z"/><path class="cls-3" d="M104.86,100.19c0-.31,0-.62,0-.93,0-.07,0-.13,0-.2,0-.26,0-.52,0-.78s0-.52-.07-.79c0-.06,0-.13,0-.19l-.09-.88h0c0-.42-.1-.82-.16-1.23-.08-.58-.17-1.15-.28-1.72-.19-1-.41-2-.68-3-.07-.31-.16-.61-.25-.91-.21-.72-.44-1.42-.7-2.1-.11-.31-.22-.61-.35-.9-.27-.68-.56-1.33-.89-2s-.71-1.39-1.1-2A16.25,16.25,0,0,0,99.33,81c-.16-.27-.35-.57-.58-.89s-.39-.57-.61-.88c-.5-.67-1.1-1.42-1.8-2.2l0,0h0L96,76.72c-.34-.38-.72-.77-1.13-1.16l-.84-.77-.86-.74c-.36-.31-.74-.61-1.14-.91l-.86-.62-.37-.25c-.3-.2-.6-.4-.92-.59s-.9-.54-1.38-.8-.74-.4-1.13-.59l-.6-.28a4.25,4.25,0,0,0-.49-.21h0c-.31-.14-.64-.27-1-.4l-.76-.29c-.44-.16-.9-.32-1.36-.46l-.08,0c-.45-.14-.9-.27-1.36-.39a32.61,32.61,0,0,0-5.32-.89c-.56-.06-1.13-.09-1.71-.11a25.77,25.77,0,0,0-11,2l-.69.31a.38.38,0,0,0-.13.06h0l0,0a23.18,23.18,0,0,0-2.48,1.28c-.77.44-1.5.92-2.2,1.41a30.22,30.22,0,0,0-2.38,1.87c-.22.17-.43.36-.64.55s-.54.45-1.21,1.1c-.36.35-.79.78-1.25,1.29l-.75.84c-.23.27-.47.55-.71.85s-.49.62-.73,1a.1.1,0,0,0,0,0,.1.1,0,0,0,0,0c-.21.28-.42.57-.62.87s-.26.36-.38.53v0c-.4.62-.79,1.28-1.16,2s-.65,1.29-.93,2c-.13.33-.26.66-.38,1s-.3.89-.42,1.35c0,.08,0,.15,0,.22s-.11.33-.15.5c-.14.43-.26.87-.36,1.31a25.84,25.84,0,0,0-.57,2.86c-.12.78-.21,1.57-.28,2.38l0,.52c-.05.62-.07,1.26-.08,1.91s0,1,0,1.51h0c0,.84.06,1.65.14,2.46a28.18,28.18,0,0,0,.49,3.37h0c.06.3.12.59.2.89h0a25.08,25.08,0,0,0,.86,2.91l.1.27a1.3,1.3,0,0,0,.1.25h0a20,20,0,0,0,1,2.23,22.38,22.38,0,0,0,1.74,3c.34.52.7,1,1.09,1.52s.88,1.08,1.36,1.6.86.9,1.33,1.34l.25.24.74.66a30,30,0,0,0,4,2.94,31.46,31.46,0,0,0,17,4.57,36,36,0,0,0,6.75-.63c.52-.1,1-.21,1.54-.33.67-.17,1.33-.35,2-.56h0l.73-.23,0,0h0l.45-.17.43-.15A29.82,29.82,0,0,0,96,119.86c.38-.32.76-.65,1.13-1l.56-.53.44-.44c.27-.27.53-.54.77-.81L99,117c.27-.3.52-.6.77-.91s.39-.49.57-.74l.09-.12.27-.38c.15-.21.3-.43.43-.64h0l0,0c0-.08.1-.15.14-.23s.2-.32.29-.48.15-.25.22-.37a.75.75,0,0,0,.07-.12c.18-.33.35-.65.51-1a.25.25,0,0,0,0-.07c.15-.3.3-.62.44-.94l0,0h0a5.32,5.32,0,0,0,.21-.5c.09-.21.18-.43.25-.65a3,3,0,0,0,.11-.32,5,5,0,0,0,.22-.65l.12-.36a.88.88,0,0,0,0-.15c.11-.37.21-.74.3-1.12s.22-1,.31-1.53c0-.15.06-.3.08-.45a.34.34,0,0,0,0-.1c.06-.32.1-.64.14-1l.07-.74,0-.36c0-.35.06-.7.07-1.06a1.47,1.47,0,0,0,0-.21h0c0-.36,0-.72,0-1.09C104.87,100.49,104.87,100.34,104.86,100.19ZM83.11,73.68a9.76,9.76,0,0,1,9.71,4s0,0,0,.06a6.77,6.77,0,0,1,.64,1.15,8.76,8.76,0,0,1,.56,1.61,1,1,0,0,1,0,.17,7,7,0,0,1,.15.9c0,.3,0,.6,0,.9A7.87,7.87,0,0,1,94,84.82a8.43,8.43,0,0,1-.76,1.93c-.21-.37-.44-.75-.67-1.12-.38-.63-.79-1.25-1.21-1.89l0,0c-.16-.25-.33-.49-.52-.74l-.35-.51c-.16-.24-.34-.48-.51-.72-.75-1-1.56-2.08-2.44-3.14l-.7-.84,0-.06c-1-1.11-2-2.23-3-3.38l-.21-.23-.37-.39Zm13.15,41.53c-.26.39-.54.78-.83,1.16-.13.16-.25.32-.38.47a19.44,19.44,0,0,1-1.35,1.53c-.3.32-.62.63-.94.94l-.09.08c-.34.32-.68.62-1,.91a23.64,23.64,0,0,1-3,2.13c-.5.32-1,.61-1.53.88l-.42.21-.62.29a22.69,22.69,0,0,1-2.56,1l-.08,0-.61.14-2.84.66-2.24.27-.37,0h0c-.56,0-1.13.06-1.72.07h-.27c-.64,0-1.28,0-1.9-.07l-.43,0a24.47,24.47,0,0,1-2.45-.29c-.86-.14-1.7-.32-2.53-.54-.48-.13-1-.28-1.44-.43s-1-.35-1.44-.54-.92-.4-1.37-.63a24.4,24.4,0,0,1-3.18-1.86,24,24,0,0,1-2.85-2.24l-.33-.29-.24-.23q-.76-.72-1.44-1.47a25.2,25.2,0,0,1-1.65-2l-.66-1a20,20,0,0,1-1.31-2.28q-.36-.7-.66-1.44h0a20.87,20.87,0,0,1-1.22-4.15c0-.23-.09-.47-.12-.71a23.42,23.42,0,0,1-.27-3.59v-.33c0-.11,0-.21,0-.31,0-.37,0-.72.06-1.07a4.86,4.86,0,0,1,0-.68,8.4,8.4,0,0,1,.81-2.57A10,10,0,0,1,52.43,95a12.76,12.76,0,0,1,1.72-1.57,16.52,16.52,0,0,1,3-1.8l.13-.06.75-.34.81-.31h0c.42-.16.87-.31,1.34-.46a40,40,0,0,1,9.27-1.66c.51,0,1-.07,1.58-.09,1.12-.06,2.31-.08,3.55-.08h.53a2.81,2.81,0,0,1,.29,0q1.5,0,2.88.09l.67,0h0l1.5.12c1.19.11,2.31.24,3.36.4l.8.13c.84.15,1.62.3,2.37.48l1.17.29.44.13q1.24.38,2.31.78l.5.2.12,0,.33.14.15.07.36.16.42.21.13.06h0l.1,0,.71.4A15.88,15.88,0,0,1,96,94l.21.18.21.18,0,.05c.11.1.22.2.31.3a7.08,7.08,0,0,1,.54.57l.21.23c.19.23.37.47.53.69a1.7,1.7,0,0,1,.15.22l.11.19a4.64,4.64,0,0,1,.25.42,8,8,0,0,1,.59,1.23s0,0,0,0c.06.21.11.42.16.64s.14.6.19.91l.06.39c0,.11,0,.23.05.35s0,.23,0,.35a1.79,1.79,0,0,1,0,.23,2.56,2.56,0,0,1,0,.39,5.09,5.09,0,0,1,0,.56c0,.34,0,.7,0,1.06v.15c0,.24,0,.47,0,.71,0,.46,0,.91-.08,1.36a5.61,5.61,0,0,1-.06.59c0,.28-.06.54-.11.82h0a18,18,0,0,1-.34,1.78l-.07.3c-.09.33-.18.65-.28,1a16.66,16.66,0,0,1-.65,1.79,18.81,18.81,0,0,1-1,2.17c-.16.29-.33.57-.51.86S96.39,115,96.26,115.21Z"/><path class="cls-1" d="M104.87,100.63c0,.44,0,.88,0,1.31s0,.71-.07,1.06-.06.7-.1,1v0c0,.33-.08.66-.14,1a.34.34,0,0,1,0,.1,25.43,25.43,0,0,1-.69,3.1c0,.17-.11.34-.17.51a5,5,0,0,1-.22.65,3,3,0,0,1-.11.32c-.07.22-.16.44-.25.65a5.32,5.32,0,0,1-.21.5h0c-.14.34-.3.67-.46,1s-.36.71-.55,1a.75.75,0,0,1-.07.12c-.16.28-.33.57-.51.85,0,.08-.09.15-.14.23l-.47.69-.27.38c-.21.29-.43.58-.66.86s-.5.61-.77.91l-.1.11c-.24.27-.5.54-.77.81s-.65.65-1,1a30,30,0,0,1-9.76,6.06,33.62,33.62,0,0,0,5.33-5.54l.09-.08a24.25,24.25,0,0,0,3.5-4.1,20.84,20.84,0,0,0,3.53-11.93,22.68,22.68,0,0,0-.13-2.39c0-.12,0-.23,0-.35a14.17,14.17,0,0,0-.3-1.65c0-.22-.1-.43-.16-.64,0,0,0,0,0,0A8,8,0,0,0,98.56,97a4.64,4.64,0,0,0-.25-.42l-.11-.19a1.7,1.7,0,0,0-.15-.22c-.16-.22-.34-.46-.53-.69l-.21-.23a7.08,7.08,0,0,0-.54-.57s0,0,0,0a40.72,40.72,0,0,0-3.24-7.32,80.26,80.26,0,0,0-9.83-13l-.21-.23-.37-.39h0L83,73.52c-1.93-2-4.08-4.07-6.48-6.18a32.61,32.61,0,0,1,5.32.89c.46.12.91.25,1.36.39l.08,0c.46.14.92.3,1.36.46l.76.29c.33.13.66.26,1,.4h0l.48.22.6.28c.39.19.77.39,1.13.59s.94.52,1.38.8.62.39.92.59l.37.25.86.62c.4.3.78.6,1.14.91l.86.74A27.23,27.23,0,0,1,96.29,77h0a24.57,24.57,0,0,1,3.9,5.55,33.43,33.43,0,0,1,4.25,12.63c.06.41.11.81.16,1.23l.09.89c0,.06,0,.13,0,.19,0,.27.05.53.07.79s0,.52,0,.78c0,.07,0,.13,0,.2C104.86,99.72,104.87,100.18,104.87,100.63Z"/><path class="cls-6" d="M65.36,68.78a1.57,1.57,0,0,1-.25-.77,6.5,6.5,0,0,1-.06-1.26c0-.44.19-.52.48-.25a4.43,4.43,0,0,1,.81,1.12,4.39,4.39,0,0,1,.46,1.31q.09.58-.15.72c-.17.09-.39,0-.69-.28Z"/><path class="cls-10" d="M82.37,68.69a1.58,1.58,0,0,1,.56-.58A5.79,5.79,0,0,1,84,67.47c.4-.19.55-.09.44.3A4.05,4.05,0,0,1,83.85,69a4.25,4.25,0,0,1-.93,1c-.32.24-.56.31-.71.21s-.18-.35-.07-.74S82.32,68.84,82.37,68.69Z"/><path class="cls-10" d="M81.8,68.61a1.46,1.46,0,0,1,.08-.81,5.73,5.73,0,0,1,.47-1.17q.3-.59.54,0A4.25,4.25,0,0,1,83.16,68a4.16,4.16,0,0,1-.11,1.37c-.11.39-.26.59-.44.6s-.35-.17-.51-.54S81.85,68.76,81.8,68.61Z"/><path class="cls-11" d="M70.29,60.92l1.26,1.48a33.89,33.89,0,0,1,.7-6.74l.57,1.3,2-5.51a54.61,54.61,0,0,0,2.37,5.9l.85-.93a12.09,12.09,0,0,1,.59,5.5l1.21-.62c0,.91.07,1.81.07,2.72a8,8,0,0,1-.51,3.4,5.06,5.06,0,0,1-3.64,2.74,6.69,6.69,0,0,1-2.92-.09,2.47,2.47,0,0,1-1.62-.84,7.26,7.26,0,0,1-.59-1.94,16.19,16.19,0,0,1-.45-2.94A16.37,16.37,0,0,1,70.29,60.92Z"/><path class="cls-10" d="M90.82,81.91a4,4,0,0,1-.39.54,1.53,1.53,0,0,1-.13.16,10.14,10.14,0,0,1-.93,1c-.47.46-.91.9-1.3,1.33a26.64,26.64,0,0,0-3.44,4.44l-.8-.13c-1-.16-2.17-.29-3.36-.4L79,88.74h0l-.67,0q-1.38-.08-2.88-.09a2.81,2.81,0,0,0-.29,0c.19-2.19.57-5.3.57-5.55s5.7-3.13,7.83-4.11a7.65,7.65,0,0,1,.79-.34,24.08,24.08,0,0,1,2.8-.05l.37,0a9.73,9.73,0,0,1,2.08.33C91,79.34,91.88,80.2,90.82,81.91Z"/><path class="cls-12" d="M93.21,74.05c-.2,1.71-1.09,4-4.51,2.4,0,0-1.56-3.77,2.14-4.18A26.62,26.62,0,0,1,93.21,74.05Z"/><path class="cls-12" d="M60.4,76.45C57,78,56.12,75.84,55.9,74.14a30.22,30.22,0,0,1,2.38-1.87C62,72.69,60.4,76.45,60.4,76.45Z"/><path class="cls-2" d="M90.68,72.63a1.92,1.92,0,0,0-1.62,3,1.94,1.94,0,0,0,1.62.87,1.92,1.92,0,0,0,1.61-.88,1.89,1.89,0,0,0,.3-1A1.91,1.91,0,0,0,90.68,72.63Z"/><path class="cls-2" d="M58.54,72.63a1.92,1.92,0,0,0-1.62,3,1.94,1.94,0,0,0,1.62.87,1.92,1.92,0,0,0,1.61-.88,1.89,1.89,0,0,0,.3-1A1.91,1.91,0,0,0,58.54,72.63Z"/><path class="cls-13" d="M57.32,81.42A6.58,6.58,0,0,1,58.74,83c-1.1-1.13-2.83-1.37-4.11-2.29a11.91,11.91,0,0,0-1.41-1c-.59-.31-1.29-.38-1.86-.74a3,3,0,0,1-.88-.93,3.13,3.13,0,0,1-.45-2.6c.12-.39.4-.89.84-1a3,3,0,0,1,1.07.19c.71.2,1,.89,1.36,1.47.54.9,1.11,1.78,1.73,2.63A20,20,0,0,0,57.32,81.42Z"/><path class="cls-3" d="M50.66,79.91l-.13-.09a.1.1,0,0,1,0,0A1.1,1.1,0,0,0,50.66,79.91Z"/><path class="cls-3" d="M63.42,70c-.08.06-.21,0-.27-.1s-.06-.21-.11-.31a.13.13,0,0,0,0-.06.38.38,0,0,1,.13-.06Z"/><path class="cls-5" d="M64.47,86.75l-1.14-1.51a15.7,15.7,0,0,0-1-1.26c-1.63-1.73-4.09-2.69-5.25-4.77a14.82,14.82,0,0,0,3.87,5.25,12.69,12.69,0,0,0,3.65,2.73C64.66,87.06,64.56,86.88,64.47,86.75Z"/><path class="cls-5" d="M54.46,80.21c1.06.9,2.52,1.43,3.16,2.67-.33-.63-.75-1.22-1.1-1.84s-.69-1.26-1-1.91c-.54-1.09-1-2.2-1.46-3.34-.36.35-.79.78-1.25,1.29l-.75.84c.28.26.59.49.87.75C53.45,79.16,53.9,79.74,54.46,80.21Z"/><path class="cls-5" d="M60.63,86.5a3.82,3.82,0,0,0-1.57-1.32l-3.41-1.93a21.82,21.82,0,0,1-2.29-1.54c-.43-.31-1.08-.85-1.66-.65a1.24,1.24,0,0,0-.63.7c-.19.49.21.8.62,1a8.93,8.93,0,0,1,2,1.75A14.19,14.19,0,0,0,57,86.23c1.89,1,3.47,2.54,5.48,3.18-.21-.7-1-1.11-1.32-1.75C60.92,87.29,60.84,86.86,60.63,86.5Z"/><path class="cls-5" d="M52.12,79.38a7.77,7.77,0,0,0-.78-.61c-.25.3-.49.62-.73,1l2.57,1A5.27,5.27,0,0,0,52.12,79.38Z"/><path class="cls-5" d="M53.48,85.56c0-.13-.14-.21-.27-.26-.81-.28-1.6-.6-2.38-1s-1.25-.67-1.9-.94a3.33,3.33,0,0,0-.56-.18c-.33.63-.65,1.29-.93,2a1.33,1.33,0,0,0,.8.28Z"/><path class="cls-5" d="M53.3,89.11a22.53,22.53,0,0,1,4.63,2.07l.09,0,.81-.31h0c.42-.16.87-.31,1.34-.46L57,88.18c-1.46-1-3.07-2.13-4.87-2.08-.76,0-1.5.26-2.26.34a7.61,7.61,0,0,1-2.13-.1c-.24,0-.47-.1-.69-.15q-.24.66-.42,1.35c0,.08,0,.15,0,.22s-.11.33-.15.5c.25.08.5.15.76.21C49.21,88.9,51.3,88.62,53.3,89.11Z"/><path class="cls-5" d="M54.15,93.42a16.52,16.52,0,0,1,3-1.8,8.65,8.65,0,0,0-4.75-1.45c-.34,0-.8,0-.83.37a.67.67,0,0,0,.25.49l1.59,1.62C53.64,92.89,53.88,93.18,54.15,93.42Z"/><path class="cls-5" d="M46,92.42c.55-.08,1.05-.33,1.58-.46a3.39,3.39,0,0,1,2.51.43c.51.33,1,.81,1.62.67a9.5,9.5,0,0,1-1.15-2.27,2.67,2.67,0,0,0-1.81-1.66,3.34,3.34,0,0,0-1.09.1l-1.62.34a25.84,25.84,0,0,0-.57,2.86A1.57,1.57,0,0,0,46,92.42Z"/><path class="cls-5" d="M46.26,95.19c.35-.1.68-.25,1-.38a11.75,11.75,0,0,1,2.18-.53c.32-.06.65-.1,1-.15a4.42,4.42,0,0,0-2.24-.68,3.43,3.43,0,0,0-2.68,1,3.31,3.31,0,0,0-.28.31l0,.52C45.46,95.48,46.09,95.25,46.26,95.19Z"/><path class="cls-5" d="M49.09,96.28A8.58,8.58,0,0,1,46,97.65a4.37,4.37,0,0,0,2.92.25,17.23,17.23,0,0,0,2-.61A10,10,0,0,1,52.43,95a.71.71,0,0,0-.85-.07A24,24,0,0,0,49.09,96.28Z"/><path class="cls-5" d="M48.25,101.36c.55,0,1.07.22,1.61.25h.08c0-.37,0-.72.06-1.07a4.86,4.86,0,0,1,0-.68l-.08,0a23,23,0,0,0-2.58-.61c-.47-.09-1-.16-1.42-.26a7.72,7.72,0,0,1-.83-.2c0,.84.06,1.65.14,2.46a2.57,2.57,0,0,0,1.47.47C47.25,101.66,47.73,101.39,48.25,101.36Z"/><path class="cls-5" d="M49.75,106.63a5.21,5.21,0,0,0,.57-.08c0-.23-.09-.47-.12-.71-.66-.37-1.4-.62-2.07-1s-1.31-.79-2.11-.44l-.26.14h0c.06.3.12.59.2.89h0l.2.13a5.64,5.64,0,0,0,2.34.94A5.27,5.27,0,0,0,49.75,106.63Z"/><path class="cls-5" d="M52.2,112.15q-.36-.7-.66-1.44h0a20.8,20.8,0,0,1-4.72-2.29l.1.27.78.69a3.71,3.71,0,0,1-.68-.43,20,20,0,0,0,1,2.23,14.31,14.31,0,0,0,3.11.89A5.77,5.77,0,0,0,52.2,112.15Z"/><path class="cls-5" d="M51,114.11a1.72,1.72,0,0,0-1.23,0c.34.52.7,1,1.09,1.52.73,0,1.48-.1,2.21-.18l1.14-.11-.66-1A9.15,9.15,0,0,1,51,114.11Z"/><path class="cls-5" d="M56,119.49c-.5,0-1,0-1.51,0a30,30,0,0,0,4,2.94,4.33,4.33,0,0,0,2.23-.85,24,24,0,0,1-2.85-2.24C57.23,119.43,56.62,119.46,56,119.49Z"/><path class="cls-5" d="M64.3,74.36c-.4-1.6-.85-3.2-1.34-4.78a23.18,23.18,0,0,0-2.48,1.28,1.62,1.62,0,0,0,.43.89C61.85,72.83,63.47,73.19,64.3,74.36Z"/><path class="cls-5" d="M61,73.53c.3,1,.59,2,.88,2.94.11.39.3.75.76.74a1.29,1.29,0,0,0,1-.69c.46-.88-.6-1.53-1.18-2S61.46,73.85,61,73.53Z"/><path class="cls-5" d="M86,87.85l1.14-1.5a14.26,14.26,0,0,1,1-1.27c1.63-1.73,4.08-2.69,5.24-4.77a14.58,14.58,0,0,1-3.87,5.25,12.65,12.65,0,0,1-3.64,2.73C85.79,88.16,85.89,88,86,87.85Z"/><path class="cls-5" d="M96.34,77.05c-.42,1.08-.89,2.14-1.4,3.18-.23.46-.46.92-.71,1.37l-.3.54c-.35.62-.77,1.21-1.1,1.84a4.19,4.19,0,0,1,1.45-1.48A20.8,20.8,0,0,0,96,81.31c.56-.47,1-1,1.54-1.54l.61-.52Z"/><path class="cls-5" d="M88.61,90.29c1.74-.74,3.18-2.1,4.88-3a14.41,14.41,0,0,0,3.24-1.74,8.27,8.27,0,0,1,2-1.74c.4-.19.81-.5.61-1a1.21,1.21,0,0,0-.63-.7c-.57-.2-1.23.34-1.66.66a23.39,23.39,0,0,1-2.29,1.53l-.83.47-1.43.81-1.15.65a3.82,3.82,0,0,0-1.57,1.32c-.2.37-.28.79-.49,1.16s-.86.89-1.16,1.4Z"/><path class="cls-5" d="M99.33,81l-2.06.79a5.27,5.27,0,0,1,1.06-1.33,4.87,4.87,0,0,1,.42-.35C99,80.45,99.17,80.75,99.33,81Z"/><path class="cls-5" d="M102.18,86.57,97,86.66c0-.13.14-.21.27-.26.81-.28,1.6-.6,2.38-1,.56-.26,1.1-.58,1.67-.84C101.62,85.24,101.91,85.89,102.18,86.57Z"/><path class="cls-5" d="M103.23,89.57c-2,.43-4.09.15-6.08.64A18.63,18.63,0,0,0,93,92l-.1,0h0l-.13-.06-.42-.21L92,91.53l-.15-.07-.33-.14-.12,0-.5-.2,2.52-1.79c1.46-1,3.07-2.13,4.87-2.08.76,0,1.5.26,2.26.34a7.58,7.58,0,0,0,2-.07C102.79,88.15,103,88.85,103.23,89.57Z"/><path class="cls-5" d="M98.89,91.64a.67.67,0,0,1-.25.49l-1.59,1.62c-.19.19-.38.41-.59.62l0-.05-.21-.18L96,94a15.88,15.88,0,0,0-2.25-1.54,9.55,9.55,0,0,1,4.32-1.15C98.4,91.24,98.86,91.3,98.89,91.64Z"/><path class="cls-5" d="M104.16,93.46c-.46-.1-.88-.29-1.33-.4a3.39,3.39,0,0,0-2.51.43c-.51.33-1,.81-1.62.67a9.5,9.5,0,0,0,1.15-2.27,2.67,2.67,0,0,1,1.81-1.66,3.34,3.34,0,0,1,1.09.1l.73.15C103.75,91.44,104,92.44,104.16,93.46Z"/><path class="cls-5" d="M104.6,96.41a2.76,2.76,0,0,1-.41-.12c-.35-.1-.68-.25-1-.38a11.75,11.75,0,0,0-2.18-.53c-.32-.06-.65-.1-1-.15a4.42,4.42,0,0,1,2.24-.68,3.34,3.34,0,0,1,2.18.63C104.5,95.59,104.55,96,104.6,96.41Z"/><path class="cls-5" d="M104.83,99.06h-.67a37.23,37.23,0,0,1-4.84-.16c0-.22-.1-.43-.16-.64,0,0,0,0,0,0A8,8,0,0,0,98.56,97a3.45,3.45,0,0,1,1.52-.52,4.06,4.06,0,0,1,.85.13l3.17.74.61.15c0,.27.05.53.07.79S104.82,98.8,104.83,99.06Z"/><path class="cls-5" d="M104.87,100.63c0,.37,0,.73,0,1.09h0a14.66,14.66,0,0,0-2.35.58c-.31.14-.59.35-.91.5a4.1,4.1,0,0,1-1.74.31c0-.36,0-.72,0-1.06a4.24,4.24,0,0,0,.59-.23c.67-.36,1-1.11,1.63-1.51a3.27,3.27,0,0,1,2.09-.31,4.25,4.25,0,0,1,.8.17C104.87,100.34,104.87,100.49,104.87,100.63Z"/><path class="cls-5" d="M100.05,101.32a2.27,2.27,0,0,1-.34.19,2.56,2.56,0,0,0,0-.39,1.79,1.79,0,0,0,0-.23c0-.12,0-.23,0-.35s0-.24-.05-.35l-.06-.39a.88.88,0,0,1,1.07.36C100.76,100.58,100.43,101.05,100.05,101.32Z"/><path class="cls-5" d="M104.74,103.36a1,1,0,0,0-1.69-.38,1.67,1.67,0,0,1-.67.53,1.29,1.29,0,0,0-.67.45c.06-.12.92,0,1,0,.35,0,.69.15,1,.21s.69.1.89-.09Z"/><path class="cls-5" d="M96,76.72c-.25.62-.52,1.22-.8,1.82a.81.81,0,0,1-.21.31c-.36.33-.93,0-1.41,0l-.13,0c-.67.21-1,1.2-1.74,1.13-.21-.19-.06-.54.1-.78l1-1.47,0,0A9.85,9.85,0,0,1,94,76.28a4.89,4.89,0,0,1,.91-.72C95.32,76,95.7,76.34,96,76.72Z"/><path class="cls-5" d="M87.62,71.88a3.7,3.7,0,0,0-.86.86c-.12.18-.3.4-.51.34a12.59,12.59,0,0,1-.14-2.94.56.56,0,0,1,.07-.26.23.23,0,0,1,.14-.08h0l.48.22.6.28c.39.19.77.39,1.13.59C88.66,71.41,88,71.61,87.62,71.88Z"/><path class="cls-5" d="M67.18,71.48a1.46,1.46,0,0,1,.73.32L69.67,73c.56.38-.89.65-1.07.7a5,5,0,0,1-1.41.36,1.47,1.47,0,0,1-1.06-.27A.94.94,0,0,1,66,72.7C66.16,72.18,66.53,71.46,67.18,71.48Z"/><path class="cls-14" d="M61.58,80a14.46,14.46,0,0,0,6.67,9c5.63,3.35-2.15-9.79-2.33-9.79S61.58,80,61.58,80Z"/><path class="cls-14" d="M88.16,80a14.5,14.5,0,0,1-6.67,9c-5.64,3.35,2.14-9.79,2.32-9.79S88.16,80,88.16,80Z"/><path class="cls-15" d="M87.39,80.23q-4.85,1.42-5.51,7.08t-7.12,5.82c-3.34.09-5.47-.88-6.37-2.9a5.82,5.82,0,0,1-.49-2A8.28,8.28,0,0,0,62.6,81a4.71,4.71,0,0,1-.45-.22,5.9,5.9,0,0,0-.69-.4q-3-2,1.35-4.61a23.26,23.26,0,0,1,12.18-3,26.7,26.7,0,0,1,7.88,1.1,19.82,19.82,0,0,1,4.35,1.92Q92.24,78.81,87.39,80.23Z"/><path class="cls-16" d="M85.08,79.28q-4.76,1.41-6.34,4.56t-7,5.59a7.19,7.19,0,0,1-3.3.8,5.82,5.82,0,0,1-.49-2A8.28,8.28,0,0,0,62.6,81a4.71,4.71,0,0,1-.45-.22,5.9,5.9,0,0,0-.69-.4q-3-2,1.35-4.61a23.26,23.26,0,0,1,12.18-3,26.7,26.7,0,0,1,7.88,1.1,20.87,20.87,0,0,1,2,1.06Q89.84,77.89,85.08,79.28Z"/><path class="cls-17" d="M104.44,105.61c-.09.52-.19,1-.31,1.53l-.87,0-1.78,0a4.31,4.31,0,0,1-1.56-.17,1.79,1.79,0,0,1-.39-.2h0c0-.28.08-.54.11-.82.38,0,.77,0,1.16,0a13.27,13.27,0,0,0,1.67-.13c.49-.07,1-.21,1.46-.27A1.25,1.25,0,0,1,104.44,105.61Z"/><path class="cls-17" d="M101.87,105c0,.08-.13.11-.21.12l-1.81.25H99.7c0-.45.07-.9.08-1.36l.11.05.83.33,1,.37C101.77,104.78,101.9,104.86,101.87,105Z"/><path class="cls-17" d="M99.19,108.55a.67.67,0,0,1,.2,0c1.36,0,2.72,0,4.08,0a.73.73,0,0,0,.31-.09l-.12.36a5,5,0,0,1-.22.65,3,3,0,0,1-.11.32c-.07.22-.16.44-.25.65a5.32,5.32,0,0,1-.21.5h0l0,0c-.47-.08-1-.23-1.2-.66-.07-.17-.08-.35-.16-.51-.23-.46-.85-.5-1.36-.59a3.35,3.35,0,0,1-1-.34Z"/><path class="cls-17" d="M101.09,111.16c-.67.14-1.33.26-2,.35-.3,0-.59.08-.89.1a16.66,16.66,0,0,0,.65-1.79,1.22,1.22,0,0,1,.48.1,4.53,4.53,0,0,1,.86.59l.46.34C100.71,110.9,101,111.16,101.09,111.16Z"/><path class="cls-17" d="M102.37,112c-.16.33-.33.65-.51,1a.75.75,0,0,1-.07.12c-.07.12-.14.25-.22.37l-1.47-.13a3,3,0,0,1-2.14-.78s.28,0,.34,0l.37,0c.25,0,.49,0,.73,0a8.14,8.14,0,0,0,2.54-.51A1.6,1.6,0,0,1,102.37,112Z"/><path class="cls-17" d="M101.1,114.19c-.13.21-.28.43-.43.64l-.27.38-.09.12a10,10,0,0,1-3.68-.69c.18-.29.35-.57.51-.86a4.49,4.49,0,0,0,2,.41h.94c.27,0,.55,0,.82,0Z"/><path class="cls-17" d="M99.33,116.54a3.4,3.4,0,0,1-.46.06,1.78,1.78,0,0,0-.49.17.35.35,0,0,0-.2.18c0,.09,0,.2,0,.29a.38.38,0,0,1-.2.17,2.66,2.66,0,0,1-2.9-.57c.13-.15.25-.31.38-.47a2.74,2.74,0,0,1,.57.11A11.26,11.26,0,0,0,99.33,116.54Z"/><path class="cls-17" d="M94.76,118.94a1.55,1.55,0,0,1-.67.72,2.82,2.82,0,0,1-2.25.72l-.2-.08c.35-.29.69-.59,1-.91l.09-.08c.32-.31.64-.62.94-.94a.38.38,0,0,1,.09.13l-.37.24H94.6a.18.18,0,0,1,.15.05A.19.19,0,0,1,94.76,118.94Z"/><path class="cls-17" d="M97.66,118.34l-.56.53c-.37.34-.75.67-1.13,1a.58.58,0,0,1-.23-.56,1.06,1.06,0,0,1,.58-.92,1.78,1.78,0,0,1,.83-.08Z"/><path class="cls-17" d="M54.23,117.82a1.21,1.21,0,0,1-.3.41,3.08,3.08,0,0,1-.42.39c-.47-.44-.91-.88-1.33-1.34.14-.21.43-.23.66-.26a7,7,0,0,1,1.29,0,.15.15,0,0,1,.13,0,.16.16,0,0,1,0,.12A1.39,1.39,0,0,1,54.23,117.82Z"/><path class="cls-17" d="M57.26,118.85a3.07,3.07,0,0,1-.68.05c-.46,0-1-.07-1.19-.49a.8.8,0,0,1,.13-.73,1.22,1.22,0,0,1,.3-.3Q56.5,118.13,57.26,118.85Z"/><path class="cls-17" d="M66.67,124.64a.43.43,0,0,1-.15.18.75.75,0,0,1-.33.06,5.11,5.11,0,0,1-1.93-.6,1,1,0,0,1-.27-.17.78.78,0,0,1-.13-.64c.45.23.91.44,1.37.63S66.19,124.47,66.67,124.64Z"/><path class="cls-17" d="M73.09,125.9a1,1,0,0,1-.17.58.57.57,0,0,1-.15.16.5.5,0,0,1-.24.06,1.77,1.77,0,0,1-1.2-.45,4.6,4.6,0,0,1-.69-.64A24.47,24.47,0,0,0,73.09,125.9Z"/><path class="cls-17" d="M77.41,125.94a5.41,5.41,0,0,0-.76.48,2.16,2.16,0,0,1-1.12.6.4.4,0,0,1-.35-.12c-.18-.21,0-.51.26-.69l.25-.2C76.28,126,76.85,126,77.41,125.94Z"/><path class="cls-17" d="M83.7,126.07c-.51.12-1,.23-1.54.33a1.91,1.91,0,0,1,.34-.91c.12-.18.25-.34.37-.51l.61-.14a.53.53,0,0,1,.1.14A1.4,1.4,0,0,1,83.7,126.07Z"/><path class="cls-17" d="M86.12,123.81a2.41,2.41,0,0,0-.27.53,3,3,0,0,0-.19,1,.55.55,0,0,0,0,.18l.73-.23,0,0h0a2.89,2.89,0,0,0,.27-.71,1.79,1.79,0,0,0,.08-.94s0-.07-.07-.08Z"/><path class="cls-17" d="M88.69,122.43a2.88,2.88,0,0,1-.49.89l-1.29,1.76a11.61,11.61,0,0,0,.25-1.77C87.68,123,88.19,122.75,88.69,122.43Z"/></svg>