<svg id="Camada_1" data-name="Camada 1" xmlns="http://www.w3.org/2000/svg" viewBox="0 0 150 150"><defs><style>.cls-1,.cls-12{fill:#3c4149;}.cls-11,.cls-2{fill:#5c5e60;}.cls-3{fill:#efe8e8;}.cls-4{fill:#c4b1b1;}.cls-5{fill:#353130;}.cls-6{fill:#484848;}.cls-11,.cls-12,.cls-6,.cls-7,.cls-8{fill-rule:evenodd;}.cls-7{fill:#ce776e;}.cls-8{fill:#fe8d7d;}.cls-9{fill:#683d33;}.cls-10{fill:#d8b295;}.cls-13{fill:#001a2b;}.cls-14{fill:#848687;}.cls-15{fill:none;stroke:#001a2b;stroke-linecap:round;stroke-miterlimit:10;}</style></defs><path class="cls-1" d="M94,138.88c.27-1.54,2.38-3.11,3.91-3.24,1-.09,1.29.81,1.73,1.51a7.18,7.18,0,0,0,2,2.14c3.83,2.59,8.49.89,12.23-.91,1.74-.84.22-3.43-1.52-2.6-2.07,1-4.38,2.08-6.75,1.81a5.08,5.08,0,0,1-2.52-1,13.78,13.78,0,0,1-1.87-2.48c-1.51-1.86-3.86-1.78-5.86-.81s-3.9,2.58-4.29,4.73c-.34,1.89,2.55,2.7,2.9.8Z"/><path class="cls-2" d="M113.08,118.89a28.25,28.25,0,0,0-3-7.39l-.35-.56a.61.61,0,0,0-.07-.18l-.33-.46-.05-.08h0a37.09,37.09,0,0,0-7.56-8.42,32.8,32.8,0,0,1-2.46,8.87,25.23,25.23,0,0,1-10.37,12.2A25.94,25.94,0,0,1,74.77,126a29.22,29.22,0,0,1-13.5-3.52C49.34,115.81,48.1,102,48.1,102c-3.24,2.48-5.48,5.64-7.64,8.85a23.23,23.23,0,0,0-3.3,7.71,1.26,1.26,0,0,0-.06.21c-.32,1-1.5,5.53.48,8.81a6.54,6.54,0,0,0,2.39,2.3,6,6,0,0,0,.67.34,4.79,4.79,0,0,0,.65.25,5.73,5.73,0,0,0,1.21.29,6,6,0,0,0,1.11,0l.3,0,.33-.05.33-.07a3.36,3.36,0,0,0,.48-.14,2.74,2.74,0,0,0,.4-.15l.67-.32a8.18,8.18,0,0,0,1.65-1.21,9.77,9.77,0,0,0,1.57-1.84l.43-.38,1.07-.94.1.23s0,0,0,0a2,2,0,0,1,.09.3c.11.61.24,1.21.38,1.8,0,.15.06.29.1.45a40.24,40.24,0,0,0,4,10.06c.09.18.18.34.27.49h0a3.37,3.37,0,0,1,.23.4c.25.44.52.88.79,1.31h0s0,0,0,0l0,0,.07.12A67.35,67.35,0,0,0,61.13,147a23.68,23.68,0,0,0,6.83.89,13.41,13.41,0,0,0,3.64-.57c.2-.48.36-1,.5-1.41.09-.24.16-.46.24-.67a.19.19,0,0,0,0-.07l.59-1.48h0a2,2,0,0,1,1.82-.79,2.28,2.28,0,0,1,.67.17,5.71,5.71,0,0,1,1.08.59l.26.18a4.49,4.49,0,0,1,.56,1.14c.06.17.12.34.19.5a5.77,5.77,0,0,0,.85,1.95,21.72,21.72,0,0,0,5,.78,26.63,26.63,0,0,0,5.61-.28c5.25-5,8.85-16.71,9.12-17.62a.11.11,0,0,0,0,0,0,0,0,0,0,0,0c.43-1.1.85-2.21,1.27-3.33.11-.29.24-.57.37-.85,0,0,0,0,0,0a23.65,23.65,0,0,0,2.54,2.81h0l.16.15.16.15a5.92,5.92,0,0,0,.49.41c.17.13.33.24.49.34a4.4,4.4,0,0,0,.51.29l.46.2a6.5,6.5,0,0,1-1.9-1.24l-.32-.3a7.12,7.12,0,0,1,.55-1.27s0,0,0,0c.09-.17.19-.35.31-.54.15.26.31.51.47.75a10.51,10.51,0,0,0,1.79,2,8.77,8.77,0,0,0,1.39,1,3.32,3.32,0,0,0,.46,0l.33,0h0l.1,0h.06l.1,0H108l.28-.06.12,0,.13,0,.2-.07.46-.19.26-.13h0l.23-.13a6.71,6.71,0,0,0,1.72-1.47,26.39,26.39,0,0,0-2.06-7.59A35.93,35.93,0,0,1,113.08,118.89Zm-47.7,30.94h0s0,0,0,0l.14,0h0Zm0,0h0s0,0,0,0l.14,0h0ZM48.16,101.9l-.06,0h.08Z"/><path class="cls-3" d="M91.14,129.26a10.38,10.38,0,0,1-10.35,10.36H69.09a10.37,10.37,0,0,1-9.88-7.3,10,10,0,0,1-.47-3.06,10.28,10.28,0,0,1,2.35-6.54c.06-.07.11-.14.18-.21A29.22,29.22,0,0,0,74.77,126a25.94,25.94,0,0,0,14.15-3.16l.35.48a10.17,10.17,0,0,1,1.87,5.91Z"/><path class="cls-4" d="M91.14,129.26a10.38,10.38,0,0,1-10.35,10.36H69.09a10.37,10.37,0,0,1-9.88-7.3,20.62,20.62,0,0,0,13.84,5.12c9.31-.13,14.09-1.25,17.85-10.41A10.29,10.29,0,0,1,91.14,129.26Z"/><path class="cls-4" d="M47.78,128.8a7.27,7.27,0,0,1-3.21,1.8l-.33.07-.33.05-.3,0a6,6,0,0,1-1.11,0,5.73,5.73,0,0,1-1.21-.29,8.46,8.46,0,0,1-1.28-.59,6.54,6.54,0,0,1-2.39-2.3c2,.44,4.89.37,8.05-2.42a11.35,11.35,0,0,1,2.1,3.67S47.78,128.79,47.78,128.8Z"/><path class="cls-3" d="M40,129.83a8.46,8.46,0,0,0,1.28.59,6.32,6.32,0,0,1-1.32-.59,6.54,6.54,0,0,1-2.39-2.3c-2-3.28-.8-7.79-.48-8.81a27.87,27.87,0,0,1,8.57,6.39c-3.16,2.79-6.1,2.86-8.05,2.42A6.54,6.54,0,0,0,40,129.83Z"/><path class="cls-3" d="M113.36,124.38a9.14,9.14,0,0,1-1.92,4.26h0a6.53,6.53,0,0,1-1.72,1.44l-.23.13h0l-.26.13-.46.19-.2.07-.13,0-.12,0-.28.06H108l-.1,0h-.06l-.1,0h0l-.33,0a3.32,3.32,0,0,1-.46,0h-.34l-.35,0-.25,0a3.73,3.73,0,0,1-.44-.08l-.34-.08c-.2-.06-.41-.13-.61-.21h0a4,4,0,0,1-.42-.2,4.4,4.4,0,0,1-.51-.29c-.16-.1-.32-.21-.49-.34a5.92,5.92,0,0,1-.49-.41l-.16-.15-.16-.15h0c0-.07,0-.15.08-.24l.12-.29c.09-.22.21-.48.36-.77l.31-.52a10.58,10.58,0,0,1,.76-1.11,20,20,0,0,1,3.58-3.59c.56-.44,1.18-.89,1.86-1.34a35.93,35.93,0,0,1,3.71-2.14l0,0A13.68,13.68,0,0,1,113.36,124.38Z"/><path class="cls-1" d="M76.53,143.64a5.71,5.71,0,0,0-1.08-.59,2.28,2.28,0,0,0-.67-.17,2,2,0,0,0-1.82.79h0l-.59,1.48a.19.19,0,0,1,0,.07c-.08.21-.15.43-.24.67-.14.45-.3.93-.5,1.41a13.41,13.41,0,0,1-3.64.57,13.47,13.47,0,0,0,2.16-3.38C71.24,141.82,75.16,141.9,76.53,143.64Z"/><path class="cls-1" d="M110.12,111.5l-.35-.56a.61.61,0,0,0-.07-.18l-.33-.46-.05-.08h0a37.09,37.09,0,0,0-7.56-8.42,32.8,32.8,0,0,1-2.46,8.87A20,20,0,0,1,109.37,121a35.93,35.93,0,0,1,3.71-2.14A28.25,28.25,0,0,0,110.12,111.5Z"/><path class="cls-1" d="M104.57,130.44l-.46-.2a4.4,4.4,0,0,1-.51-.29c-.16-.1-.32-.21-.49-.34a5.92,5.92,0,0,1-.49-.41l-.16-.15-.16-.15h0a23.65,23.65,0,0,1-2.54-2.81s0,0,0,0c-.13.28-.26.56-.37.85-.42,1.12-.84,2.23-1.27,3.33a0,0,0,0,1,0,0,.11.11,0,0,1,0,0c-.27.91-3.87,12.57-9.12,17.62a26.63,26.63,0,0,1-5.61.28c3-2.91,7.68-8.61,11.21-18.41a77.37,77.37,0,0,0,3.19-10.34,33.63,33.63,0,0,0,5.12,8.15.08.08,0,0,0,0,0,7.12,7.12,0,0,0-.55,1.27l.32.3A6.5,6.5,0,0,0,104.57,130.44Z"/><path class="cls-1" d="M50.34,118.91a22,22,0,0,1-4.67,6.2,11.35,11.35,0,0,1,2.1,3.67s0,0,0,0a10,10,0,0,0,1.14-1.23l.85-.75a14.62,14.62,0,0,1,1.18-.95,2,2,0,0,1,.09.3c.11.61.24,1.21.38,1.8,0,.15.06.29.1.45a40.24,40.24,0,0,0,4,10.06c-2-4-4.51-16.33-5-19C50.38,119.1,50.34,118.91,50.34,118.91Z"/><path class="cls-3" d="M61.13,147l.48.6a7,7,0,0,0,.88.91A5.75,5.75,0,0,0,65.4,150h.53l.49-.47A19,19,0,0,0,68,147.88,23.68,23.68,0,0,1,61.13,147Zm4.25,2.84h0s0,0,0,0l.14,0h0Z"/><path class="cls-5" d="M65.38,149.83l.18,0h0l-.14,0c-.06,0-.06,0,0,0Z"/><path class="cls-4" d="M71.6,147.31A3.88,3.88,0,0,1,68.81,150H65.93l.49-.47A19,19,0,0,0,68,147.88,13.41,13.41,0,0,0,71.6,147.31Z"/><path class="cls-4" d="M89,147.91A8.31,8.31,0,0,1,85.71,150h-3.3a6.71,6.71,0,0,1-.83-.25c.48-.39,1.08-.9,1.76-1.56A26.63,26.63,0,0,0,89,147.91Z"/><path class="cls-3" d="M83.34,148.19c-.68.66-1.28,1.17-1.76,1.56a6.4,6.4,0,0,1-.84-.34c-.17-.08-.33-.17-.49-.26a3,3,0,0,1-.42-.27,5.27,5.27,0,0,1-1.44-1.47A21.72,21.72,0,0,0,83.34,148.19Z"/><path class="cls-4" d="M113.36,124.38a9.14,9.14,0,0,1-1.92,4.26h0a6.53,6.53,0,0,1-1.72,1.44l-.23.13h0l-.26.13-.46.19-.2.07-.13,0-.12,0-.28.06H108l-.1,0h-.06l-.1,0h0l-.33,0a3.32,3.32,0,0,1-.46,0h-.34l-.35,0-.25,0a3.73,3.73,0,0,1-.44-.08l-.34-.08c-.2-.06-.41-.13-.61-.21h0a4,4,0,0,1-.42-.2,4.4,4.4,0,0,1-.51-.29c-.16-.1-.32-.21-.49-.34a5.92,5.92,0,0,1-.49-.41l-.16-.15-.16-.15h0c0-.07,0-.15.08-.24l.12-.29.36-.77s6.59,2.65,6.51-6.56a35.93,35.93,0,0,1,3.71-2.14l0,0A13.68,13.68,0,0,1,113.36,124.38Z"/><path class="cls-6" d="M45.87,65.25c.18-.73,1-1.19,2.36-1.38a16.78,16.78,0,0,1,4.71.23,27.4,27.4,0,0,1,5.2,1.38A12.36,12.36,0,0,1,62,67.56q1.88,1.69-3.64,7a49.21,49.21,0,0,1-4.26,3.63A14.2,14.2,0,0,1,51.39,80c-.64.22-1.31-.13-2-1l-.85-1.42c-.56-1.29-1.12-2.77-1.66-4.43C45.75,69.71,45.41,67.1,45.87,65.25Z"/><path class="cls-7" d="M48,67.79c.15-.6.79-1,1.93-1.12a13.52,13.52,0,0,1,3.85.19A22.68,22.68,0,0,1,58,68a10.18,10.18,0,0,1,3.14,1.7c1,.92,0,2.82-3,5.7a42.38,42.38,0,0,1-3.48,3,11.6,11.6,0,0,1-2.21,1.46C52,80,51.41,79.7,50.84,79l-.7-1.16c-.45-1-.91-2.26-1.35-3.62Q47.41,70.07,48,67.79Z"/><path class="cls-8" d="M49.18,68.93c.11-.46.61-.75,1.49-.86a10,10,0,0,1,3,.14,18.25,18.25,0,0,1,3.27.86,7.93,7.93,0,0,1,2.42,1.31c.79.71,0,2.17-2.29,4.39a33.28,33.28,0,0,1-2.67,2.28,8.6,8.6,0,0,1-1.71,1.12c-.4.14-.82-.07-1.26-.65l-.54-.89c-.35-.81-.69-1.74-1-2.79A9.51,9.51,0,0,1,49.18,68.93Z"/><path class="cls-6" d="M103.91,65.2c-.18-.74-1-1.2-2.38-1.38a16.58,16.58,0,0,0-4.74.22,28.92,28.92,0,0,0-5.25,1.39,12.28,12.28,0,0,0-3.87,2.1q-1.89,1.69,3.67,7a48,48,0,0,0,4.28,3.65A13.59,13.59,0,0,0,98.35,80c.64.23,1.32-.12,2-1l.86-1.43q.84-2,1.67-4.46C104,69.69,104.37,67.07,103.91,65.2Z"/><path class="cls-7" d="M101.82,67.59c-.15-.6-.79-1-1.94-1.12a13.19,13.19,0,0,0-3.86.18,23.7,23.7,0,0,0-4.27,1.13,10,10,0,0,0-3.15,1.71c-1,.92,0,2.83,3,5.72a40.76,40.76,0,0,0,3.49,3,10.81,10.81,0,0,0,2.23,1.46c.52.18,1.07-.1,1.64-.85l.7-1.16c.46-1.06.91-2.27,1.36-3.64Q102.38,69.88,101.82,67.59Z"/><path class="cls-8" d="M100.62,69c-.12-.47-.63-.77-1.53-.89a11,11,0,0,0-3,.15,18.43,18.43,0,0,0-3.36.89,8.08,8.08,0,0,0-2.48,1.34Q89,71.6,92.56,75a30.19,30.19,0,0,0,2.75,2.34,8.69,8.69,0,0,0,1.75,1.16c.41.14.84-.08,1.29-.67l.55-.92c.36-.83.72-1.78,1.07-2.86A9.66,9.66,0,0,0,100.62,69Z"/><path class="cls-9" d="M99.81,78.9a10,10,0,0,0-.32-1.1,14.62,14.62,0,0,0-2.07-4,13.88,13.88,0,0,0-3-3.07,11.08,11.08,0,0,0-1.63-1c-.39-.19-.8-.38-1.24-.55s-.72-.28-1.1-.41c0,.21,0,.41,0,.62A10,10,0,0,0,93,75.47a10.45,10.45,0,0,0,3.62,2.61h0A10.07,10.07,0,0,0,99.81,78.9Z"/><path class="cls-10" d="M99.49,77.8A8.08,8.08,0,0,1,96.3,77a8.54,8.54,0,0,1-2.69-2,8.22,8.22,0,0,1-2.11-4.73,5.15,5.15,0,0,1,0-1.11c.44.17.85.36,1.24.55a11.08,11.08,0,0,1,1.63,1,13.88,13.88,0,0,1,3,3.07A14.62,14.62,0,0,1,99.49,77.8Z"/><path class="cls-2" d="M104.7,97.3a34.65,34.65,0,0,0-4.5-14.75c0-.14,0-.27,0-.41a13.5,13.5,0,0,0-.4-3.24,10,10,0,0,0-.32-1.1,14.62,14.62,0,0,0-2.07-4,13.88,13.88,0,0,0-3-3.07,11.08,11.08,0,0,0-1.63-1c-.39-.19-.8-.38-1.24-.55s-.72-.28-1.1-.41-.94-.3-1.44-.43h0l-.84-.22c-.64-.16-1.3-.3-2-.44-.54-.1-1.09-.2-1.66-.28A67.1,67.1,0,0,0,67,67.11c-1.17.14-2.31.31-3.39.52-.69.14-1.36.28-2,.44s-1.36.36-2,.57L58.51,69c-.55.21-1.06.43-1.54.67a11.08,11.08,0,0,0-1.63,1,13.47,13.47,0,0,0-3.05,3.07,14.68,14.68,0,0,0-2.07,4.06c-.13.36-.23.73-.33,1.11a14.32,14.32,0,0,0-.38,2.78Q45.27,88,45.13,97.24q-.23,13.38,8.64,21.62T75.42,127a33.69,33.69,0,0,0,11-1.76,30,30,0,0,0,10.69-6.4q7.77-7.08,7.77-18.24A31.52,31.52,0,0,0,104.7,97.3Zm-8.43,17.91a25,25,0,0,1-12.7,9.61l-3.53.82-2.24.27c-.77.07-1.56.1-2.37.1-.64,0-1.28,0-1.9-.07a27.9,27.9,0,0,1-5.41-.87,24.52,24.52,0,0,1-10.61-6,22.12,22.12,0,0,1-7.57-16.83v-.33c0-.48,0-.93.07-1.38.51-2.4,1.24-4.72,2.69-4.92,1.73-.23,3.21-2.19,3.36-2.4h0A9.27,9.27,0,0,0,64,93.17a21.42,21.42,0,0,0,2.08-.94l1.14-.59,1.45-.79c.91-.5,1.8-1,2.66-1.37h0l0,0,.52-.22c.33-.13.64-.24,1-.33l.47-.13c.2,0,.4-.08.59-.11l.13,0,.24,0h0a3.15,3.15,0,0,1,.53,0h.3a5.07,5.07,0,0,1,.66,0l.18,0a3.73,3.73,0,0,1,.46.09,10.86,10.86,0,0,1,2,.71l.13.06.09,0c.22.09.44.2.66.31.67.34,1.36.72,2.06,1.1l.35.19.8.43c.38.21.78.42,1.17.61a21.26,21.26,0,0,0,2.07.94A9.3,9.3,0,0,0,94.11,93h0c.13.19,1.51,2.17,3.13,2.41l.15,0a1.93,1.93,0,0,1,1.07.93,14.13,14.13,0,0,1,1.2,4.53,22.68,22.68,0,0,1,.13,2.39A20.84,20.84,0,0,1,96.27,115.21Z"/><path class="cls-1" d="M104.7,97.3a34.65,34.65,0,0,0-4.5-14.75c0-.14,0-.27,0-.41a13.5,13.5,0,0,0-.4-3.24,10,10,0,0,0-.32-1.1,14.62,14.62,0,0,0-2.07-4,13.88,13.88,0,0,0-3-3.07,11.08,11.08,0,0,0-1.63-1c-.39-.19-.8-.38-1.24-.55s-.72-.28-1.1-.41-.94-.3-1.44-.43c.51.35,1,.7,1.45,1s.75.6,1.09.9A16.32,16.32,0,0,1,96.3,77c.13.37.24.72.33,1.08h0a15.44,15.44,0,0,1-2,11.7,37.15,37.15,0,0,1,2.74,5.64,1.93,1.93,0,0,1,1.07.93,14.13,14.13,0,0,1,1.2,4.53,22.68,22.68,0,0,1,.13,2.39,20.84,20.84,0,0,1-3.53,11.93,30.72,30.72,0,0,1-9.85,10.06,30,30,0,0,0,10.69-6.4q7.77-7.08,7.77-18.24A31.52,31.52,0,0,0,104.7,97.3Z"/><path class="cls-11" d="M77,66.68a11.22,11.22,0,0,1,1.61-1.53c.62-.48.91-.36.89.35a7.48,7.48,0,0,1-.56,2.37A7.35,7.35,0,0,1,77.72,70q-.69.81-1.14.63c-.31-.12-.44-.53-.41-1.24s0-1.2.08-1.48A2.77,2.77,0,0,1,77,66.68Z"/><path class="cls-11" d="M78.18,66.92a10.37,10.37,0,0,1,2.07-.81c.75-.21,1,0,.69.65a7.64,7.64,0,0,1-1.41,2,7.39,7.39,0,0,1-1.91,1.52c-.63.33-1.06.39-1.3.16s-.21-.66.09-1.3.5-1.09.63-1.34A2.75,2.75,0,0,1,78.18,66.92Z"/><path class="cls-11" d="M53.59,72.76a8.53,8.53,0,0,0-1.7-.77c-.62-.21-.82,0-.6.52a6.34,6.34,0,0,0,1.09,1.72,6,6,0,0,0,1.54,1.35c.51.3.87.36,1.07.19s.21-.54,0-1.1-.38-.93-.48-1.14A2.17,2.17,0,0,0,53.59,72.76Z"/><path class="cls-11" d="M53,73.82a8.43,8.43,0,0,0-1.86.08c-.64.09-.75.34-.3.73a6.14,6.14,0,0,0,1.75,1.05,6.3,6.3,0,0,0,2,.51c.59,0,.94-.06,1-.32s-.06-.57-.51-1-.75-.67-.93-.82A2.47,2.47,0,0,0,53,73.82Z"/><path class="cls-12" d="M97.79,74.32a6.78,6.78,0,0,1,1.36-.62c.5-.16.66,0,.49.42a5.18,5.18,0,0,1-.88,1.38,5,5,0,0,1-1.23,1.08c-.41.25-.7.3-.87.16s-.16-.44,0-.88.3-.75.38-.92A1.76,1.76,0,0,1,97.79,74.32Z"/><path class="cls-13" d="M65.65,75.87A3.18,3.18,0,0,0,63,80.76a3.19,3.19,0,0,0,5.35,0,3.09,3.09,0,0,0,.5-1.71A3.17,3.17,0,0,0,65.65,75.87Z"/><path class="cls-13" d="M83.57,76.54a3.17,3.17,0,0,0-3.18,3.17,3.12,3.12,0,0,0,3.18,3.16,3.17,3.17,0,0,0,2.67-1.46,3.06,3.06,0,0,0,.5-1.7A3.17,3.17,0,0,0,83.57,76.54Z"/><path class="cls-14" d="M82.61,84a12.68,12.68,0,0,1-5.5,1.9A3.07,3.07,0,0,0,75,87.43a3,3,0,0,0-2.1-1.5,12.76,12.76,0,0,1-5.5-1.9c-7.82-2.75-15.84.3-14.38,4a16.62,16.62,0,0,0,3,5.23h0a9.34,9.34,0,0,0,4.37,1.09,9.5,9.5,0,0,0,4-.91,22.23,22.23,0,0,0,2.06-.94c.4-.19.79-.4,1.17-.61l.81-.43.34-.19c.7-.38,1.39-.76,2.06-1.1.22-.11.44-.22.66-.31l.09,0,.14-.06a10.52,10.52,0,0,1,2-.71,3.73,3.73,0,0,1,.46-.09l.19,0a4.93,4.93,0,0,1,.65,0h.73a3.89,3.89,0,0,1,.47.09,10.77,10.77,0,0,1,2,.71l.13.06a.31.31,0,0,1,.1.05c.22.09.44.2.65.31.67.34,1.37.72,2.07,1.1l.34.19.8.43c.39.21.78.42,1.18.61a21.09,21.09,0,0,0,2.06.94A9.32,9.32,0,0,0,94,93.19h0A16.85,16.85,0,0,0,97,88C98.46,84.28,90.44,81.23,82.61,84Z"/><path class="cls-8" d="M79.18,84.9a11.06,11.06,0,0,0-1.68,1.64,3.48,3.48,0,0,1-2.33,1.09,3.7,3.7,0,0,1-2.43-.74,16.76,16.76,0,0,1-1.88-1.69c-.56-.59-.36-1.14.59-1.63a8.31,8.31,0,0,1,3.52-.7,8,8,0,0,1,3.47.7C79.43,84.06,79.68,84.51,79.18,84.9Z"/><path class="cls-7" d="M79.18,84.9c.5-.39.25-.84-.74-1.33a8,8,0,0,0-3.47-.7,8.31,8.31,0,0,0-3.52.7c-1,.49-1.15,1-.59,1.63a16.76,16.76,0,0,0,1.88,1.69,3.7,3.7,0,0,0,2.43.74,3.48,3.48,0,0,0,2.33-1.09A11.06,11.06,0,0,1,79.18,84.9Zm.5.15a10.33,10.33,0,0,0-1.88,1.84,3.85,3.85,0,0,1-2.58,1.19,4.07,4.07,0,0,1-2.73-.85,16.46,16.46,0,0,1-2.08-1.83c-.62-.66-.41-1.27.65-1.83A9.07,9.07,0,0,1,75,82.78a8.59,8.59,0,0,1,3.87.79C79.93,84.13,80.21,84.62,79.68,85.05Z"/><path class="cls-15" d="M85.45,85.61a30.17,30.17,0,0,1,12.89-3.75"/><path class="cls-15" d="M89.69,90.79a16.62,16.62,0,0,1,11.23,4.58"/><path class="cls-15" d="M63.75,84.76a47.09,47.09,0,0,0-13-1.44"/><path class="cls-15" d="M61.05,87.12c-4-.18-8.16-.32-11.66,1.55"/><path class="cls-15" d="M60.9,90.32A22.46,22.46,0,0,0,54,92a6.14,6.14,0,0,0-2.65,1.78"/><path class="cls-15" d="M87.58,87.79a23.84,23.84,0,0,1,12.1-1.09"/></svg>