<svg xmlns="http://www.w3.org/2000/svg" viewBox="0 0 150 150"><defs><style>.cls-1{isolation:isolate;}.cls-2{fill:#b7f7ed;}.cls-3{fill:#c9f4d3;}.cls-4{fill:#e6f9c5;}.cls-5{fill:#79e2f2;opacity:0.2;mix-blend-mode:multiply;}.cls-6{fill:#afdbc1;}.cls-7{fill:#fcffe1;}</style></defs><g class="cls-1"><g id="Camada_1" data-name="Camada 1"><rect class="cls-2" width="150" height="150"/><rect class="cls-3" y="33.48" width="150" height="62.61"/><rect class="cls-4" y="87.41" width="150" height="62.61"/><polygon class="cls-5" points="149.84 66.52 -0.1 61.97 -0.1 69.47 149.84 79.06 149.84 66.52"/><polygon class="cls-5" points="149.84 81.98 -0.1 73.17 -0.1 75.06 149.84 84.94 149.84 81.98"/><polygon class="cls-5" points="149.84 94.86 -0.1 90.31 -0.1 97.81 149.84 107.4 149.84 94.86"/><polygon class="cls-5" points="149.84 110.33 -0.1 101.52 -0.1 103.4 149.84 113.29 149.84 110.33"/><polygon class="cls-6" points="143.46 64 144.03 63.8 143.46 63.7 143.46 64"/><path class="cls-6" d="M145,57.94l-.87.81c-.44.42-.85.86-1.27,1.28s-.86.74-1.27,1.12-1.11,1-1.69,1.51a21.19,21.19,0,0,1-3.51-4,12.58,12.58,0,0,1-1.16-1.48c0-.08-.12-.17-.2-.13a.17.17,0,0,0,0,.14,3.12,3.12,0,0,0,.21.94A12.85,12.85,0,0,0,136.55,61a16.28,16.28,0,0,0,1.72,2.39l-.18,0a4.5,4.5,0,0,0-.7.25l-.94.39a2.5,2.5,0,0,1-1.53,0,9.5,9.5,0,0,1-1.49-.52l-.57,1.85a4.74,4.74,0,0,1,2.77-.48,8.78,8.78,0,0,1,1.2.47,5.16,5.16,0,0,0,4.06-.19c.43-.21.83-.49,1.24-.74a2.74,2.74,0,0,1,.7-.3l.42-.14.21-.06a.75.75,0,0,0,.18-.07l0,0a.55.55,0,0,1,0-.18.48.48,0,0,0-.09-.19.6.6,0,0,0-.53-.25,1.17,1.17,0,0,0-.26,0,1.7,1.7,0,0,0-.24.09l-.1,0a1.11,1.11,0,0,1-.48,0l-.23-.08s-.18-.07-.21,0a24.28,24.28,0,0,0,1.89-1.77,11.16,11.16,0,0,0,1.43-2,10.41,10.41,0,0,0,.86-2.09C145.53,57.39,145.18,57.81,145,57.94Z"/><polygon class="cls-6" points="76.73 47.7 77.3 47.49 76.73 47.39 76.73 47.7"/><path class="cls-6" d="M76.4,49.36c-.39-.42-.82-.81-1.24-1.21,0,0,.36,0,.42,0a1.75,1.75,0,0,0,.4,0,2.63,2.63,0,0,0,.55-.22l.22-.13.21-.13a.22.22,0,0,1,0-.18.68.68,0,0,0-.69-.32,2.74,2.74,0,0,1-.39.09,1.47,1.47,0,0,1-.61-.14A7.14,7.14,0,0,0,73,46.68a5.65,5.65,0,0,0-2.82.67,4.39,4.39,0,0,1-2.46.67c-.76-.09-1.44-.46-2.2-.58-.06,0-.14,0-.17,0a.13.13,0,0,0,0,.09c0,.34.14.86-.06,1.16.83.08,1.65-.19,2.48-.18a10.65,10.65,0,0,1,2.6.54,8.31,8.31,0,0,1-.75,1.74,5.68,5.68,0,0,1-1.8,2.4c.06,0,.35,0,.43,0a2.33,2.33,0,0,0,.53-.06,2.56,2.56,0,0,0,1-.43,10.87,10.87,0,0,0,1.48-1.62,11.21,11.21,0,0,0,.77-.91c.24-.32.42-.69.63-1l0-.06.22-.07a6.08,6.08,0,0,0,2.66,3.34c.87.52,1.75.9,1.88,2l.29-.38a3,3,0,0,0,.21-2.35A6,6,0,0,0,76.4,49.36Z"/><polygon class="cls-6" points="128.55 114.88 128.55 114.57 127.98 114.77 128.55 114.88"/><path class="cls-6" d="M138.3,115.58c-.62.07-1.26.51-1.85.5a4.09,4.09,0,0,1-1.72-.83.16.16,0,0,1,0-.08c0-.18.72-.92.83-1.14a4.67,4.67,0,0,0,.43-1.51,7.5,7.5,0,0,0-.15-3,2.61,2.61,0,0,1-.6,1.36,10.29,10.29,0,0,1-.87,1.21,8.29,8.29,0,0,1-2.26,1.95.36.36,0,0,1-.18.07c-.15,0-.28-.11-.37-.22a28.7,28.7,0,0,1-2.74-4.85,1.18,1.18,0,0,0-.06.62A8.73,8.73,0,0,0,129,111a8,8,0,0,0,1.46,3.32,3.73,3.73,0,0,1-.82-.06,2.77,2.77,0,0,0-.48-.11.87.87,0,0,0-.72.27.55.55,0,0,0-.12.19.33.33,0,0,1,0,.14h0s0,0,0,.06l0,0c.23.12.45.26.68.36l1.52.69a7.84,7.84,0,0,0,1.48.58,13.36,13.36,0,0,0,2.88.36c1.19,0,2.25-.29,3.41.19C138.38,117,138.28,115.58,138.3,115.58Z"/><polygon class="cls-6" points="31.07 68.88 31.64 68.68 31.07 68.57 31.07 68.88"/><path class="cls-6" d="M30.51,66.46a2.3,2.3,0,0,0-.58.18,2.34,2.34,0,0,0-.41.29c-.37.3-.77.58-1.15.89a3.65,3.65,0,0,0-1-1.76,3.18,3.18,0,0,0-1.49-.46l-5.4-.68a4.66,4.66,0,0,0,.83.83,10.69,10.69,0,0,0,2.13,1.54c.66.32,1.37.51,2,.83a4,4,0,0,1,.78.51,10.54,10.54,0,0,0-1.72.92.72.72,0,0,1-.19.11l-.18,0a6.51,6.51,0,0,0-2.74.33,8.76,8.76,0,0,1,1.05,1.06l.05,0s0,0,.08,0c.22-.14.47-.23.69-.38a1.76,1.76,0,0,1,.83-.29,10,10,0,0,1,2,.22A4.56,4.56,0,0,0,28.82,70,11.82,11.82,0,0,1,30,69.36a7.23,7.23,0,0,1,.7-.26,3.47,3.47,0,0,0,.45-.17l.11-.06.09-.05,0,0a.25.25,0,0,1,0-.15h0a.5.5,0,0,0,0-.13.7.7,0,0,0-.15-.2.48.48,0,0,0-.26-.12.89.89,0,0,0-.53.1c-.18.09-.31,0-.5,0l.72-.43.55-.3a14.11,14.11,0,0,1,2-.86,16.18,16.18,0,0,0,2-.72s.06,0,0-.07A13.57,13.57,0,0,0,30.51,66.46Z"/><path class="cls-7" d="M91.43,40.31a16.29,16.29,0,0,1,11.35-5s1.42-5,8.51-4.74c0,0,2.84-3.31,8.28-1.41,0,0,4.26-3.08,8.05,2.12,0,0,3.54-1.84,4.49,3A4.82,4.82,0,0,1,138,37.24s4.26.23,5.44,3.07Z"/><path class="cls-7" d="M4.26,28.23a13.06,13.06,0,0,1,9.49-4.9s1.19-4.89,7.12-4.66c0,0,2.37-3.26,6.92-1.4,0,0,3.56-3,6.72,2.1,0,0,3-1.82,3.76,2.94,0,0,3.36-1.31,4.94,2.89,0,0,3.56.23,4.55,3Z"/><path class="cls-7" d="M29.83,109.53H0V98.31a8.48,8.48,0,0,1,5.94.1s4.26-3.07,8,2.13c0,0,3.55-1.84,4.5,3a4.82,4.82,0,0,1,5.91,2.94S28.65,106.69,29.83,109.53Z"/><path class="cls-7" d="M150,90.13v10H133.36c1.18-2.84,5.44-3.08,5.44-3.08a4.82,4.82,0,0,1,5.91-2.93c.95-4.83,4.5-3,4.5-3A8.8,8.8,0,0,1,150,90.13Z"/></g></g></svg>