<svg id="Camada_1" data-name="Camada 1" xmlns="http://www.w3.org/2000/svg" viewBox="0 0 150 150"><defs><style>.cls-1,.cls-5,.cls-7{fill:#fff;}.cls-2{fill:#028fec;opacity:0.1;}.cls-3{fill:#a2d9fd;}.cls-4{fill:#bbe4f9;}.cls-5{opacity:0.29;}.cls-6{fill:#a4d3dd;}.cls-10,.cls-7{opacity:0.49;}.cls-8{fill:#f0fffe;}.cls-9{fill:#92c3d3;}.cls-10{fill:#cee2fd;}.cls-11{fill:#8ea5c1;}.cls-12{fill:#506a89;}.cls-13{fill:#91b2bf;}.cls-13,.cls-14,.cls-15,.cls-16,.cls-17,.cls-18,.cls-19{fill-rule:evenodd;}.cls-14{fill:#acd6e2;}.cls-15{fill:#9bc1ce;}.cls-16{fill:#a3c9d6;}.cls-17{fill:#e3fafb;}.cls-18{fill:#8aafc1;}.cls-19{fill:#728f9e;}.cls-20{fill:#8c8393;}.cls-21{fill:#9d95a3;}</style></defs><rect class="cls-1" x="0.02" width="150" height="150"/><polygon class="cls-2" points="79.51 61.23 56.76 74.48 26.71 50.5 -1.28 74.48 0.42 86.39 96.82 86.39 93.32 74.04 79.51 61.23"/><polygon class="cls-2" points="99.46 77.53 110.17 85.71 129.18 77.92 114.63 65.77 99.46 77.53"/><path class="cls-3" d="M150,84v1.4H52.39a64.92,64.92,0,0,1,11.32-6.47,79.26,79.26,0,0,1,26.06-6.44c2.55-.21,5.22-.33,8-.33C116.9,72.12,136.27,78.29,150,84Z"/><polygon class="cls-4" points="63.14 77.86 0.06 63.08 0.06 82.36 82.34 82.36 63.14 77.86"/><path class="cls-5" d="M44.42,82.36h14l4.76-4.5L.06,63.08v.23C4.3,65.68,26.45,77.82,39.78,81.19Z"/><polygon class="cls-6" points="21.57 81.01 21.92 81 21.47 80.25 21.19 79.77 21.19 79.76 21.56 79.76 21.23 79.09 21.06 78.74 21.32 78.74 20.96 78 20.68 77.44 20.03 78.75 20.31 78.75 20.31 78.75 19.8 79.77 20.19 79.77 20.18 79.77 19.44 81.02 19.79 81.02 19.04 82.43 22.32 82.43 21.79 81.41 21.57 81.01"/><polygon class="cls-6" points="13 81.75 13.22 81.75 12.94 81.26 12.76 80.96 12.76 80.95 12.99 80.95 12.79 80.52 12.68 80.3 12.84 80.3 12.61 79.83 12.43 79.47 12.01 80.3 12.19 80.3 12.19 80.3 11.87 80.96 12.12 80.96 12.11 80.96 11.64 81.76 11.86 81.76 11.5 82.43 13.36 82.43 13.14 82.01 13 81.75"/><polygon class="cls-6" points="15.3 81.38 15.13 81.05 15.41 81.05 15.05 80.43 14.82 80.04 14.81 80.03 15.12 80.03 14.85 79.48 14.71 79.2 14.92 79.19 14.63 78.59 14.4 78.14 13.87 79.2 14.1 79.2 14.1 79.2 13.68 80.04 14 80.04 14 80.04 13.38 81.06 13.67 81.06 13 82.33 13.27 82.33 13.2 82.43 15.61 82.43 15.53 82.31 15.79 82.31 15.3 81.38"/><polygon class="cls-6" points="17.1 81.71 17.38 81.71 17.02 81.09 17.02 81.09 16.79 80.71 16.78 80.7 17.09 80.69 16.82 80.15 16.68 79.86 16.89 79.86 16.59 79.26 16.37 78.8 15.83 79.87 16.06 79.87 16.06 79.87 15.65 80.71 15.96 80.7 15.96 80.71 15.35 81.73 15.64 81.72 15.26 82.43 17.47 82.43 17.27 82.05 17.1 81.71"/><polygon class="cls-6" points="18.32 81.3 18.16 80.99 18.39 80.98 18.06 80.31 17.81 79.8 17.22 80.99 17.47 80.99 17.47 80.99 17.01 81.93 17.36 81.93 17.36 81.93 17.06 82.43 18.58 82.43 18.54 82.36 18.28 81.93 18.28 81.93 18.27 81.92 18.62 81.92 18.32 81.3"/><polygon class="cls-6" points="15.37 81.61 15.17 81.2 14.69 82.15 14.9 82.15 14.9 82.15 14.76 82.43 15.59 82.43 15.57 82.4 15.45 82.14 15.63 82.14 15.37 81.61"/><polygon class="cls-6" points="11.44 82.25 11.17 81.8 11.16 81.79 11.52 81.79 11.21 81.15 11.05 80.82 11.29 80.82 10.95 80.12 10.68 79.59 10.06 80.83 10.33 80.83 10.33 80.83 9.85 81.8 10.21 81.8 10.21 81.8 9.84 82.43 11.54 82.43 11.44 82.25 11.44 82.25"/><polygon class="cls-6" points="9.16 80.91 8.8 80.31 8.79 80.3 9.27 80.3 8.85 79.45 8.64 79.01 8.96 79.01 8.5 78.09 8.15 77.38 7.33 79.02 7.69 79.02 7.69 79.02 7.05 80.31 7.54 80.31 7.53 80.31 6.59 81.89 7.03 81.89 6.74 82.43 9.58 82.43 9.55 82.38 9.28 81.87 9.72 81.87 9.16 80.91"/><polygon class="cls-6" points="6.61 81.5 6.29 80.96 6.28 80.95 6.71 80.94 6.33 80.18 6.14 79.78 6.43 79.78 6.02 78.95 5.7 78.31 4.96 79.79 5.28 79.79 5.28 79.79 4.7 80.96 5.14 80.95 5.14 80.96 4.29 82.38 4.69 82.38 4.66 82.43 6.76 82.43 6.72 82.36 7.12 82.36 6.61 81.5"/><polygon class="cls-6" points="2.6 81.61 2.6 81.61 2.59 81.6 2.97 81.6 2.64 80.92 2.47 80.57 2.73 80.57 2.36 79.82 2.08 79.26 1.42 80.58 1.7 80.57 1.7 80.58 1.19 81.61 1.58 81.61 1.58 81.61 1.09 82.43 3.08 82.43 2.88 82.09 2.6 81.61"/><polygon class="cls-6" points="44.09 81.04 44.44 81.03 43.99 80.28 43.71 79.8 43.7 79.79 44.08 79.79 43.75 79.12 43.58 78.77 43.84 78.77 43.47 78.03 43.2 77.47 42.55 78.78 42.83 78.78 42.83 78.78 42.32 79.8 42.7 79.8 42.7 79.8 41.95 81.05 42.31 81.05 41.56 82.46 44.84 82.46 44.3 81.44 44.09 81.04"/><polygon class="cls-6" points="35.52 81.78 35.74 81.78 35.46 81.29 35.28 80.99 35.27 80.98 35.51 80.98 35.3 80.55 35.19 80.33 35.36 80.33 35.13 79.86 34.95 79.5 34.53 80.33 34.71 80.33 34.71 80.33 34.39 80.99 34.63 80.99 34.63 80.99 34.15 81.79 34.38 81.79 34.02 82.46 35.88 82.46 35.66 82.04 35.52 81.78"/><polygon class="cls-6" points="37.82 81.41 37.65 81.08 37.93 81.08 37.57 80.46 37.34 80.07 37.33 80.06 37.64 80.06 37.37 79.51 37.23 79.23 37.44 79.23 37.14 78.63 36.92 78.17 36.38 79.23 36.61 79.23 36.61 79.23 36.2 80.07 36.52 80.07 36.51 80.07 35.9 81.09 36.19 81.09 35.52 82.36 35.78 82.36 35.72 82.46 38.12 82.46 38.05 82.34 38.31 82.34 37.82 81.41"/><polygon class="cls-6" points="39.62 81.75 39.9 81.74 39.53 81.13 39.53 81.13 39.3 80.74 39.3 80.73 39.6 80.73 39.34 80.18 39.2 79.89 39.41 79.89 39.11 79.29 38.88 78.83 38.35 79.9 38.58 79.9 38.58 79.9 38.17 80.74 38.48 80.73 38.48 80.74 37.87 81.76 38.16 81.76 37.78 82.46 39.99 82.46 39.79 82.08 39.62 81.75"/><polygon class="cls-6" points="40.83 81.33 40.68 81.02 40.91 81.02 40.58 80.35 40.33 79.83 39.73 81.03 39.99 81.02 39.99 81.03 39.53 81.96 39.88 81.96 39.88 81.96 39.58 82.46 41.1 82.46 41.05 82.39 40.8 81.96 40.8 81.96 40.79 81.95 41.13 81.95 40.83 81.33"/><polygon class="cls-6" points="37.89 81.64 37.69 81.23 37.21 82.18 37.42 82.18 37.42 82.18 37.27 82.46 38.11 82.46 38.09 82.43 37.97 82.17 38.15 82.17 37.89 81.64"/><polygon class="cls-6" points="33.95 82.28 33.69 81.83 33.68 81.82 34.04 81.82 33.73 81.18 33.56 80.85 33.81 80.85 33.46 80.15 33.2 79.62 32.58 80.86 32.85 80.86 32.85 80.86 32.37 81.83 32.73 81.83 32.73 81.83 32.35 82.46 34.06 82.46 33.95 82.28 33.95 82.28"/><polygon class="cls-6" points="31.67 80.94 31.32 80.34 31.31 80.33 31.79 80.33 31.37 79.48 31.16 79.04 31.48 79.04 31.02 78.12 30.67 77.41 29.85 79.05 30.21 79.05 30.2 79.05 29.57 80.34 30.05 80.34 30.05 80.34 29.11 81.92 29.55 81.92 29.26 82.46 32.09 82.46 32.07 82.41 31.8 81.9 32.24 81.9 31.67 80.94"/><polygon class="cls-6" points="29.12 81.53 28.8 80.99 28.8 80.98 29.22 80.97 28.85 80.21 28.66 79.82 28.95 79.81 28.54 78.98 28.22 78.34 27.48 79.83 27.8 79.82 27.8 79.83 27.22 80.99 27.66 80.99 27.66 80.99 26.81 82.41 27.21 82.41 27.18 82.46 29.27 82.46 29.24 82.39 29.63 82.39 29.12 81.53"/><polygon class="cls-6" points="25.12 81.64 25.12 81.64 25.11 81.63 25.49 81.63 25.16 80.95 24.98 80.6 25.24 80.6 24.88 79.86 24.6 79.29 23.94 80.61 24.22 80.61 24.22 80.61 23.71 81.64 24.1 81.64 24.1 81.64 23.61 82.46 25.6 82.46 25.4 82.12 25.12 81.64"/><polygon class="cls-6" points="66.66 81.07 67.01 81.07 66.56 80.31 66.28 79.83 66.28 79.82 66.65 79.82 66.32 79.15 66.15 78.8 66.41 78.8 66.04 78.06 65.77 77.5 65.11 78.81 65.4 78.81 65.39 78.81 64.89 79.83 65.28 79.83 65.27 79.83 64.53 81.08 64.88 81.08 64.13 82.5 67.41 82.5 66.87 81.47 66.66 81.07"/><polygon class="cls-6" points="58.09 81.81 58.31 81.81 58.03 81.33 57.85 81.02 57.84 81.01 58.08 81.01 57.87 80.58 57.76 80.36 57.93 80.36 57.7 79.89 57.52 79.53 57.1 80.37 57.28 80.36 57.28 80.37 56.96 81.02 57.2 81.02 57.2 81.02 56.72 81.82 56.95 81.82 56.59 82.5 58.45 82.5 58.23 82.07 58.09 81.81"/><polygon class="cls-6" points="60.39 81.44 60.22 81.11 60.5 81.11 60.14 80.49 59.91 80.1 59.9 80.09 60.21 80.09 59.94 79.54 59.8 79.26 60.01 79.26 59.71 78.66 59.49 78.2 58.95 79.27 59.19 79.26 59.18 79.27 58.77 80.1 59.09 80.1 59.08 80.1 58.47 81.12 58.76 81.12 58.09 82.39 58.35 82.39 58.29 82.5 60.69 82.5 60.62 82.37 60.88 82.37 60.39 81.44"/><polygon class="cls-6" points="62.19 81.78 62.47 81.77 62.1 81.16 62.1 81.16 61.87 80.77 61.87 80.76 62.18 80.76 61.91 80.21 61.77 79.92 61.98 79.92 61.68 79.32 61.45 78.86 60.92 79.93 61.15 79.93 61.15 79.93 60.74 80.77 61.05 80.77 61.05 80.77 60.44 81.79 60.73 81.79 60.35 82.5 62.56 82.5 62.36 82.11 62.19 81.78"/><polygon class="cls-6" points="63.41 81.36 63.25 81.05 63.48 81.05 63.15 80.38 62.9 79.86 62.3 81.06 62.56 81.05 62.56 81.06 62.1 81.99 62.45 81.99 62.45 81.99 62.15 82.5 63.67 82.5 63.63 82.42 63.37 81.99 63.37 81.99 63.36 81.98 63.7 81.98 63.41 81.36"/><polygon class="cls-6" points="60.46 81.67 60.26 81.26 59.78 82.21 59.99 82.21 59.99 82.21 59.85 82.5 60.68 82.5 60.66 82.46 60.54 82.21 60.72 82.2 60.46 81.67"/><polygon class="cls-6" points="56.52 82.31 56.26 81.86 56.25 81.85 56.61 81.85 56.3 81.21 56.14 80.88 56.38 80.88 56.03 80.18 55.77 79.65 55.15 80.89 55.42 80.89 55.42 80.89 54.94 81.86 55.3 81.86 55.3 81.86 54.92 82.5 56.63 82.5 56.52 82.31 56.52 82.31"/><polygon class="cls-6" points="54.24 80.97 53.89 80.38 53.88 80.36 54.35 80.36 53.94 79.51 53.73 79.08 54.05 79.07 53.59 78.15 53.24 77.44 52.42 79.08 52.78 79.08 52.77 79.08 52.14 80.38 52.62 80.37 52.62 80.38 51.68 81.95 52.12 81.95 51.83 82.5 54.66 82.5 54.64 82.44 54.37 81.93 54.81 81.93 54.24 80.97"/><polygon class="cls-6" points="51.7 81.56 51.38 81.02 51.37 81.01 51.79 81.01 51.42 80.24 51.23 79.85 51.52 79.84 51.11 79.01 50.79 78.37 50.05 79.86 50.37 79.85 50.37 79.86 49.79 81.02 50.23 81.02 50.23 81.02 49.38 82.44 49.78 82.44 49.75 82.5 51.84 82.5 51.81 82.42 52.2 82.42 51.7 81.56"/><polygon class="cls-6" points="47.69 81.67 47.69 81.67 47.68 81.66 48.06 81.66 47.73 80.98 47.56 80.63 47.81 80.63 47.45 79.89 47.17 79.32 46.51 80.64 46.79 80.64 46.79 80.64 46.28 81.67 46.67 81.67 46.67 81.67 46.18 82.5 48.17 82.5 47.97 82.15 47.69 81.67"/><path class="cls-7" d="M150,84v1.4H90.44c-21.15-2.92-26.73-6.47-26.73-6.47a79.26,79.26,0,0,1,26.06-6.44c2.55-.21,5.22-.33,8-.33C116.9,72.12,136.27,78.29,150,84Z"/><polygon class="cls-6" points="117.4 80.6 117.75 80.6 117.3 79.84 117.02 79.37 117.01 79.36 117.39 79.35 117.06 78.68 116.89 78.33 117.14 78.33 116.78 77.6 116.5 77.04 115.85 78.34 116.13 78.34 116.13 78.34 115.63 79.37 116.01 79.36 116.01 79.37 115.26 80.62 115.61 80.61 114.86 82.03 118.14 82.03 117.61 81.01 117.4 80.6"/><polygon class="cls-6" points="108.83 81.34 109.05 81.34 108.76 80.86 108.58 80.55 108.58 80.55 108.82 80.55 108.61 80.11 108.5 79.89 108.66 79.89 108.43 79.42 108.25 79.06 107.84 79.9 108.02 79.9 108.02 79.9 107.69 80.55 107.94 80.55 107.94 80.55 107.46 81.35 107.69 81.35 107.33 82.03 109.19 82.03 108.96 81.6 108.83 81.34"/><polygon class="cls-6" points="111.13 80.97 110.95 80.64 111.24 80.64 110.87 80.02 110.64 79.63 110.64 79.63 110.94 79.62 110.68 79.07 110.54 78.79 110.75 78.79 110.45 78.19 110.22 77.73 109.69 78.8 109.92 78.8 109.92 78.8 109.51 79.63 109.82 79.63 109.82 79.63 109.21 80.66 109.5 80.65 108.83 81.92 109.09 81.92 109.03 82.03 111.43 82.03 111.36 81.9 111.61 81.9 111.13 80.97"/><polygon class="cls-6" points="112.92 81.31 113.21 81.31 112.84 80.69 112.84 80.69 112.61 80.3 112.61 80.29 112.91 80.29 112.64 79.74 112.5 79.46 112.71 79.45 112.42 78.86 112.19 78.4 111.66 79.46 111.89 79.46 111.89 79.46 111.47 80.3 111.79 80.3 111.79 80.3 111.18 81.32 111.46 81.32 111.09 82.03 113.3 82.03 113.09 81.64 112.92 81.31"/><polygon class="cls-6" points="114.14 80.9 113.99 80.58 114.22 80.58 113.89 79.91 113.64 79.4 113.04 80.59 113.3 80.59 113.3 80.59 112.83 81.52 113.19 81.52 113.19 81.52 112.88 82.03 114.4 82.03 114.36 81.96 114.1 81.52 114.1 81.52 114.1 81.51 114.44 81.51 114.14 80.9"/><polygon class="cls-6" points="111.19 81.2 110.99 80.8 110.52 81.74 110.72 81.74 110.72 81.74 110.58 82.03 111.41 82.03 111.39 81.99 111.27 81.74 111.46 81.74 111.19 81.2"/><polygon class="cls-6" points="107.26 81.84 107 81.39 106.99 81.38 107.34 81.38 107.03 80.74 106.87 80.41 107.11 80.41 106.77 79.72 106.51 79.18 105.89 80.42 106.16 80.42 106.15 80.42 105.67 81.39 106.04 81.39 106.04 81.39 105.66 82.03 107.37 82.03 107.26 81.84 107.26 81.84"/><polygon class="cls-6" points="104.98 80.51 104.63 79.91 104.62 79.89 105.09 79.89 104.68 79.05 104.46 78.61 104.78 78.61 104.33 77.68 103.98 76.97 103.16 78.62 103.51 78.61 103.51 78.62 102.87 79.91 103.36 79.9 103.36 79.91 102.42 81.48 102.86 81.48 102.57 82.03 105.4 82.03 105.37 81.97 105.11 81.46 105.55 81.46 104.98 80.51"/><polygon class="cls-6" points="102.43 81.09 102.11 80.55 102.1 80.54 102.53 80.54 102.16 79.77 101.96 79.38 102.25 79.38 101.84 78.54 101.53 77.91 100.79 79.39 101.11 79.39 101.11 79.39 100.53 80.55 100.97 80.55 100.97 80.55 100.11 81.97 100.52 81.97 100.49 82.03 102.58 82.03 102.54 81.96 102.94 81.95 102.43 81.09"/><polygon class="cls-6" points="98.42 81.2 98.42 81.2 98.42 81.19 98.8 81.19 98.46 80.51 98.29 80.16 98.55 80.16 98.18 79.42 97.9 78.85 97.25 80.17 97.53 80.17 97.53 80.17 97.02 81.2 97.41 81.2 97.4 81.2 96.91 82.03 98.91 82.03 98.71 81.69 98.42 81.2"/><polygon class="cls-6" points="139.2 80.63 139.55 80.63 139.1 79.87 138.82 79.4 138.81 79.39 139.19 79.38 138.86 78.71 138.69 78.36 138.94 78.36 138.58 77.63 138.3 77.07 137.65 78.37 137.93 78.37 137.93 78.37 137.43 79.4 137.81 79.39 137.81 79.4 137.06 80.65 137.41 80.65 136.66 82.06 139.95 82.06 139.41 81.04 139.2 80.63"/><polygon class="cls-6" points="130.63 81.37 130.85 81.37 130.56 80.89 130.38 80.58 130.38 80.58 130.62 80.58 130.41 80.15 130.3 79.92 130.46 79.92 130.23 79.45 130.06 79.09 129.64 79.93 129.82 79.93 129.82 79.93 129.49 80.58 129.74 80.58 129.74 80.58 129.26 81.38 129.49 81.38 129.13 82.06 130.99 82.06 130.76 81.63 130.63 81.37"/><polygon class="cls-6" points="132.93 81 132.75 80.67 133.04 80.67 132.67 80.05 132.44 79.67 132.44 79.66 132.75 79.65 132.48 79.11 132.34 78.82 132.55 78.82 132.25 78.22 132.03 77.76 131.49 78.83 131.72 78.83 131.72 78.83 131.31 79.67 131.62 79.66 131.62 79.67 131.01 80.69 131.3 80.68 130.63 81.95 130.89 81.95 130.83 82.06 133.23 82.06 133.16 81.93 133.41 81.93 132.93 81"/><polygon class="cls-6" points="134.72 81.34 135.01 81.34 134.64 80.72 134.64 80.72 134.41 80.33 134.41 80.32 134.71 80.32 134.44 79.77 134.31 79.49 134.51 79.49 134.22 78.89 133.99 78.43 133.46 79.49 133.69 79.49 133.69 79.49 133.27 80.33 133.59 80.33 133.59 80.33 132.98 81.35 133.26 81.35 132.89 82.06 135.1 82.06 134.9 81.67 134.72 81.34"/><polygon class="cls-6" points="135.94 80.93 135.79 80.61 136.02 80.61 135.69 79.94 135.44 79.43 134.84 80.62 135.1 80.62 135.1 80.62 134.63 81.55 134.99 81.55 134.99 81.55 134.68 82.06 136.2 82.06 136.16 81.99 135.91 81.55 135.91 81.55 135.9 81.54 136.24 81.54 135.94 80.93"/><polygon class="cls-6" points="133 81.23 132.79 80.83 132.32 81.78 132.52 81.77 132.52 81.78 132.38 82.06 133.21 82.06 133.2 82.02 133.07 81.77 133.26 81.77 133 81.23"/><polygon class="cls-6" points="129.06 81.88 128.8 81.42 128.79 81.42 129.15 81.41 128.83 80.78 128.67 80.44 128.91 80.44 128.57 79.75 128.31 79.21 127.69 80.45 127.96 80.45 127.95 80.45 127.47 81.42 127.84 81.42 127.84 81.42 127.46 82.06 129.17 82.06 129.06 81.88 129.06 81.88"/><polygon class="cls-6" points="126.78 80.54 126.43 79.94 126.42 79.93 126.89 79.92 126.48 79.08 126.27 78.64 126.59 78.64 126.13 77.71 125.78 77 124.96 78.65 125.31 78.65 125.31 78.65 124.67 79.94 125.16 79.94 125.16 79.94 124.22 81.52 124.66 81.51 124.37 82.06 127.2 82.06 127.17 82 126.91 81.49 127.35 81.49 126.78 80.54"/><polygon class="cls-6" points="124.23 81.12 123.91 80.58 123.91 80.57 124.33 80.57 123.96 79.81 123.77 79.41 124.05 79.41 123.64 78.57 123.33 77.94 122.59 79.42 122.91 79.42 122.91 79.42 122.33 80.58 122.77 80.58 122.77 80.58 121.92 82.01 122.32 82 122.29 82.06 124.38 82.06 124.34 81.99 124.74 81.98 124.23 81.12"/><polygon class="cls-6" points="120.22 81.24 120.22 81.24 120.22 81.23 120.6 81.22 120.26 80.54 120.09 80.19 120.35 80.19 119.98 79.45 119.7 78.88 119.05 80.2 119.33 80.2 119.33 80.2 118.82 81.24 119.21 81.23 119.2 81.24 118.71 82.06 120.71 82.06 120.51 81.72 120.22 81.24"/><polygon class="cls-6" points="150 79.3 150.02 79.34 150.02 82.15 149.15 82.15 149.53 81.51 149.16 81.51 149.65 80.54 149.38 80.54 150 79.3"/><polygon class="cls-6" points="148.48 80.63 148.12 80.03 148.11 80.01 148.59 80.01 148.17 79.16 147.96 78.73 148.28 78.72 147.82 77.8 147.47 77.09 146.65 78.74 147.01 78.73 147.01 78.74 146.37 80.03 146.85 80.02 146.85 80.03 145.91 81.6 146.35 81.6 146.06 82.15 148.9 82.15 148.87 82.09 148.6 81.58 149.04 81.58 148.48 80.63"/><polygon class="cls-6" points="145.93 81.21 145.61 80.67 145.6 80.66 146.03 80.66 145.65 79.89 145.46 79.5 145.75 79.5 145.34 78.66 145.02 78.03 144.28 79.51 144.6 79.51 144.6 79.51 144.02 80.67 144.46 80.67 144.46 80.67 143.61 82.09 144.01 82.09 143.98 82.15 146.08 82.15 146.04 82.08 146.44 82.07 145.93 81.21"/><polygon class="cls-6" points="141.92 81.33 141.92 81.33 141.91 81.31 142.29 81.31 141.96 80.63 141.79 80.28 142.04 80.28 141.68 79.54 141.4 78.97 140.74 80.29 141.02 80.29 141.02 80.29 140.51 81.33 140.9 81.32 140.9 81.33 140.41 82.15 142.4 82.15 142.2 81.81 141.92 81.33"/><rect class="cls-8" x="0.02" y="82.24" width="150" height="67.76"/><polygon class="cls-9" points="20.57 81.77 20.92 81.77 20.47 80.89 20.19 80.34 20.19 80.33 20.56 80.32 20.23 79.54 20.06 79.14 20.32 79.14 19.96 78.29 19.68 77.64 19.03 79.15 19.31 79.15 19.31 79.15 18.8 80.34 19.19 80.34 19.18 80.34 18.44 81.79 18.79 81.79 18.04 83.42 21.32 83.42 20.79 82.24 20.57 81.77"/><polygon class="cls-9" points="12 82.63 12.22 82.63 11.94 82.07 11.76 81.72 11.76 81.71 11.99 81.7 11.79 81.21 11.68 80.95 11.84 80.95 11.61 80.41 11.43 79.99 11.01 80.96 11.19 80.95 11.19 80.96 10.87 81.72 11.12 81.71 11.11 81.72 10.64 82.64 10.86 82.64 10.5 83.42 12.36 83.42 12.14 82.93 12 82.63"/><polygon class="cls-9" points="14.3 82.2 14.13 81.82 14.41 81.81 14.05 81.1 13.82 80.65 13.81 80.64 14.12 80.64 13.85 80 13.71 79.67 13.92 79.67 13.63 78.97 13.4 78.44 12.87 79.68 13.1 79.68 13.1 79.68 12.68 80.65 13 80.65 13 80.65 12.38 81.83 12.67 81.83 12 83.3 12.27 83.3 12.2 83.42 14.61 83.42 14.53 83.28 14.79 83.28 14.3 82.2"/><polygon class="cls-9" points="16.1 82.59 16.38 82.59 16.02 81.87 16.02 81.87 15.79 81.42 15.78 81.41 16.09 81.41 15.82 80.77 15.68 80.44 15.89 80.44 15.59 79.75 15.37 79.22 14.83 80.45 15.06 80.45 15.06 80.45 14.65 81.42 14.96 81.42 14.96 81.42 14.35 82.61 14.64 82.6 14.26 83.42 16.47 83.42 16.27 82.97 16.1 82.59"/><polygon class="cls-9" points="17.32 82.11 17.16 81.75 17.39 81.75 17.06 80.97 16.81 80.38 16.22 81.75 16.47 81.75 16.47 81.75 16.01 82.84 16.36 82.83 16.36 82.84 16.06 83.42 17.58 83.42 17.54 83.34 17.28 82.84 17.28 82.84 17.27 82.83 17.62 82.82 17.32 82.11"/><polygon class="cls-9" points="14.37 82.47 14.17 82 13.69 83.09 13.9 83.09 13.9 83.09 13.76 83.42 14.59 83.42 14.57 83.38 14.45 83.09 14.63 83.09 14.37 82.47"/><polygon class="cls-9" points="10.44 83.21 10.17 82.69 10.16 82.68 10.52 82.67 10.21 81.94 10.05 81.55 10.29 81.55 9.95 80.75 9.68 80.13 9.06 81.56 9.33 81.56 9.33 81.56 8.85 82.69 9.21 82.69 9.21 82.69 8.84 83.42 10.54 83.42 10.44 83.21 10.44 83.21"/><polygon class="cls-9" points="8.16 81.66 7.8 80.97 7.79 80.95 8.27 80.95 7.85 79.97 7.64 79.46 7.96 79.46 7.5 78.39 7.16 77.57 6.33 79.47 6.69 79.47 6.69 79.47 6.05 80.97 6.54 80.96 6.53 80.97 5.59 82.79 6.03 82.79 5.74 83.42 8.58 83.42 8.55 83.36 8.28 82.77 8.72 82.77 8.16 81.66"/><polygon class="cls-9" points="5.61 82.34 5.29 81.72 5.28 81.7 5.71 81.7 5.33 80.81 5.14 80.36 5.43 80.35 5.02 79.39 4.7 78.65 3.96 80.36 4.28 80.36 4.28 80.36 3.7 81.72 4.14 81.71 4.14 81.72 3.29 83.36 3.69 83.36 3.66 83.42 5.76 83.42 5.72 83.34 6.12 83.34 5.61 82.34"/><polygon class="cls-9" points="1.6 82.47 1.6 82.47 1.59 82.46 1.97 82.45 1.64 81.67 1.47 81.26 1.73 81.26 1.36 80.4 1.08 79.74 0.42 81.27 0.7 81.27 0.7 81.27 0.19 82.47 0.58 82.47 0.58 82.47 0.09 83.42 2.08 83.42 1.88 83.03 1.6 82.47"/><polygon class="cls-9" points="43.09 81.81 43.44 81.8 42.99 80.93 42.71 80.38 42.7 80.36 43.08 80.36 42.75 79.58 42.58 79.18 42.84 79.18 42.47 78.33 42.2 77.67 41.55 79.19 41.83 79.19 41.83 79.19 41.32 80.38 41.7 80.37 41.7 80.38 40.95 81.83 41.31 81.82 40.56 83.46 43.84 83.46 43.3 82.28 43.09 81.81"/><polygon class="cls-9" points="34.52 82.67 34.74 82.66 34.46 82.1 34.28 81.75 34.27 81.74 34.51 81.74 34.3 81.24 34.19 80.99 34.36 80.98 34.13 80.44 33.95 80.03 33.53 80.99 33.71 80.99 33.71 80.99 33.39 81.75 33.63 81.75 33.63 81.75 33.15 82.68 33.38 82.68 33.02 83.46 34.88 83.46 34.66 82.97 34.52 82.67"/><polygon class="cls-9" points="36.82 82.24 36.65 81.85 36.93 81.85 36.57 81.14 36.34 80.69 36.33 80.67 36.64 80.67 36.37 80.04 36.23 79.71 36.44 79.71 36.14 79.01 35.92 78.48 35.38 79.72 35.61 79.71 35.61 79.72 35.2 80.69 35.52 80.68 35.51 80.69 34.9 81.87 35.19 81.87 34.52 83.34 34.78 83.33 34.72 83.46 37.12 83.46 37.05 83.31 37.31 83.31 36.82 82.24"/><polygon class="cls-9" points="38.62 82.63 38.9 82.62 38.53 81.91 38.53 81.91 38.3 81.46 38.3 81.45 38.6 81.44 38.34 80.81 38.2 80.48 38.41 80.48 38.11 79.78 37.88 79.25 37.35 80.49 37.58 80.49 37.58 80.49 37.17 81.46 37.48 81.45 37.48 81.46 36.87 82.64 37.16 82.64 36.78 83.46 38.99 83.46 38.79 83.01 38.62 82.63"/><polygon class="cls-9" points="39.83 82.15 39.68 81.78 39.91 81.78 39.58 81 39.33 80.41 38.73 81.79 38.99 81.79 38.99 81.79 38.53 82.88 38.88 82.87 38.88 82.88 38.58 83.46 40.1 83.46 40.05 83.38 39.8 82.88 39.8 82.88 39.79 82.86 40.13 82.86 39.83 82.15"/><polygon class="cls-9" points="36.89 82.5 36.69 82.03 36.21 83.13 36.42 83.13 36.42 83.13 36.27 83.46 37.11 83.46 37.09 83.42 36.97 83.12 37.15 83.12 36.89 82.5"/><polygon class="cls-9" points="32.95 83.25 32.69 82.73 32.68 82.71 33.04 82.71 32.73 81.97 32.56 81.59 32.81 81.59 32.46 80.78 32.2 80.16 31.58 81.6 31.85 81.6 31.85 81.6 31.37 82.73 31.73 82.72 31.73 82.73 31.35 83.46 33.06 83.46 32.95 83.25 32.95 83.25"/><polygon class="cls-9" points="30.67 81.7 30.32 81 30.31 80.99 30.79 80.98 30.37 80 30.16 79.5 30.48 79.49 30.02 78.42 29.67 77.6 28.85 79.51 29.21 79.5 29.2 79.51 28.57 81 29.05 81 29.05 81 28.11 82.83 28.55 82.83 28.26 83.46 31.09 83.46 31.07 83.4 30.8 82.81 31.24 82.8 30.67 81.7"/><polygon class="cls-9" points="28.12 82.38 27.8 81.75 27.8 81.74 28.22 81.73 27.85 80.85 27.66 80.39 27.95 80.39 27.54 79.42 27.22 78.68 26.48 80.4 26.8 80.4 26.8 80.4 26.22 81.75 26.66 81.75 26.66 81.75 25.81 83.4 26.21 83.39 26.18 83.46 28.27 83.46 28.24 83.38 28.63 83.37 28.12 82.38"/><polygon class="cls-9" points="24.12 82.51 24.12 82.51 24.11 82.49 24.49 82.49 24.16 81.7 23.98 81.3 24.24 81.3 23.88 80.44 23.6 79.78 22.94 81.31 23.22 81.3 23.22 81.31 22.71 82.51 23.1 82.5 23.1 82.51 22.61 83.46 24.6 83.46 24.4 83.06 24.12 82.51"/><polygon class="cls-9" points="65.66 81.84 66.01 81.84 65.56 80.96 65.28 80.41 65.28 80.4 65.65 80.39 65.32 79.62 65.15 79.21 65.41 79.21 65.04 78.36 64.77 77.71 64.11 79.22 64.4 79.22 64.39 79.22 63.89 80.41 64.28 80.41 64.27 80.41 63.52 81.86 63.88 81.86 63.13 83.5 66.41 83.5 65.87 82.31 65.66 81.84"/><polygon class="cls-9" points="57.09 82.7 57.31 82.7 57.03 82.14 56.85 81.79 56.84 81.78 57.08 81.78 56.87 81.28 56.76 81.02 56.93 81.02 56.7 80.48 56.52 80.06 56.1 81.03 56.28 81.03 56.28 81.03 55.96 81.79 56.2 81.78 56.2 81.79 55.72 82.71 55.95 82.71 55.59 83.5 57.45 83.5 57.23 83 57.09 82.7"/><polygon class="cls-9" points="59.39 82.27 59.22 81.89 59.5 81.89 59.14 81.17 58.91 80.72 58.9 80.71 59.21 80.71 58.94 80.07 58.8 79.74 59.01 79.74 58.71 79.05 58.49 78.52 57.95 79.75 58.19 79.75 58.18 79.75 57.77 80.72 58.09 80.72 58.08 80.72 57.47 81.91 57.76 81.9 57.09 83.37 57.35 83.37 57.29 83.5 59.69 83.5 59.62 83.35 59.88 83.35 59.39 82.27"/><polygon class="cls-9" points="61.19 82.66 61.47 82.66 61.1 81.94 61.1 81.94 60.87 81.49 60.87 81.48 61.18 81.48 60.91 80.84 60.77 80.52 60.98 80.51 60.68 79.82 60.45 79.29 59.92 80.52 60.15 80.52 60.15 80.52 59.74 81.49 60.05 81.49 60.05 81.49 59.44 82.68 59.73 82.67 59.35 83.5 61.56 83.5 61.36 83.05 61.19 82.66"/><polygon class="cls-9" points="62.41 82.19 62.25 81.82 62.48 81.82 62.15 81.04 61.9 80.45 61.3 81.83 61.56 81.83 61.56 81.83 61.1 82.91 61.45 82.91 61.45 82.91 61.15 83.5 62.67 83.5 62.63 83.41 62.37 82.91 62.37 82.91 62.36 82.9 62.7 82.9 62.41 82.19"/><polygon class="cls-9" points="59.46 82.54 59.26 82.07 58.78 83.17 58.99 83.17 58.99 83.17 58.85 83.5 59.68 83.5 59.66 83.45 59.54 83.16 59.72 83.16 59.46 82.54"/><polygon class="cls-9" points="55.52 83.28 55.26 82.76 55.25 82.75 55.61 82.75 55.3 82.01 55.14 81.63 55.38 81.62 55.03 80.82 54.77 80.2 54.15 81.64 54.42 81.63 54.42 81.64 53.94 82.76 54.3 82.76 54.3 82.76 53.92 83.5 55.63 83.5 55.52 83.28 55.52 83.28"/><polygon class="cls-9" points="53.24 81.73 52.89 81.04 52.88 81.02 53.35 81.02 52.94 80.04 52.73 79.53 53.05 79.53 52.59 78.46 52.24 77.64 51.42 79.54 51.78 79.54 51.77 79.54 51.14 81.04 51.62 81.03 51.62 81.04 50.68 82.86 51.12 82.86 50.83 83.5 53.66 83.5 53.64 83.43 53.37 82.84 53.81 82.84 53.24 81.73"/><polygon class="cls-9" points="50.7 82.41 50.38 81.79 50.37 81.77 50.79 81.77 50.42 80.88 50.23 80.43 50.52 80.42 50.11 79.46 49.79 78.72 49.05 80.44 49.37 80.43 49.37 80.44 48.79 81.79 49.23 81.78 49.23 81.79 48.38 83.44 48.78 83.43 48.75 83.5 50.84 83.5 50.81 83.41 51.2 83.41 50.7 82.41"/><polygon class="cls-9" points="46.69 82.54 46.69 82.54 46.68 82.53 47.06 82.53 46.73 81.74 46.56 81.33 46.81 81.33 46.45 80.47 46.17 79.81 45.51 81.34 45.79 81.34 45.79 81.34 45.28 82.54 45.67 82.54 45.67 82.54 45.18 83.5 47.17 83.5 46.97 83.1 46.69 82.54"/><polygon class="cls-9" points="116.4 81.3 116.75 81.3 116.3 80.42 116.02 79.87 116.01 79.86 116.39 79.85 116.06 79.07 115.89 78.67 116.14 78.67 115.78 77.82 115.5 77.17 114.85 78.68 115.13 78.68 115.13 78.68 114.63 79.87 115.01 79.86 115.01 79.87 114.26 81.32 114.61 81.32 113.86 82.95 117.14 82.95 116.61 81.77 116.4 81.3"/><polygon class="cls-9" points="107.83 82.16 108.05 82.16 107.76 81.6 107.58 81.25 107.58 81.24 107.82 81.23 107.61 80.74 107.5 80.48 107.66 80.48 107.43 79.93 107.25 79.52 106.84 80.48 107.02 80.48 107.02 80.48 106.69 81.25 106.94 81.24 106.94 81.25 106.46 82.17 106.69 82.17 106.33 82.95 108.19 82.95 107.96 82.46 107.83 82.16"/><polygon class="cls-9" points="110.13 81.73 109.95 81.35 110.24 81.34 109.87 80.63 109.64 80.18 109.64 80.17 109.94 80.17 109.68 79.53 109.54 79.2 109.75 79.2 109.45 78.5 109.22 77.97 108.69 79.21 108.92 79.21 108.92 79.21 108.51 80.18 108.82 80.18 108.82 80.18 108.21 81.36 108.5 81.36 107.83 82.83 108.09 82.83 108.03 82.95 110.43 82.95 110.36 82.81 110.61 82.81 110.13 81.73"/><polygon class="cls-9" points="111.92 82.12 112.21 82.12 111.84 81.4 111.84 81.4 111.61 80.95 111.61 80.94 111.91 80.94 111.64 80.3 111.5 79.97 111.71 79.97 111.42 79.28 111.19 78.75 110.66 79.98 110.89 79.98 110.89 79.98 110.47 80.95 110.79 80.95 110.79 80.95 110.18 82.14 110.46 82.13 110.09 82.95 112.3 82.95 112.09 82.5 111.92 82.12"/><polygon class="cls-9" points="113.14 81.64 112.99 81.28 113.22 81.27 112.89 80.5 112.64 79.91 112.04 81.28 112.3 81.28 112.3 81.28 111.83 82.37 112.19 82.36 112.19 82.37 111.88 82.95 113.4 82.95 113.36 82.87 113.1 82.37 113.1 82.37 113.1 82.36 113.44 82.35 113.14 81.64"/><polygon class="cls-9" points="110.19 82 109.99 81.53 109.52 82.63 109.72 82.62 109.72 82.63 109.58 82.95 110.41 82.95 110.39 82.91 110.27 82.62 110.46 82.62 110.19 82"/><polygon class="cls-9" points="106.26 82.74 106 82.22 105.99 82.21 106.34 82.2 106.03 81.47 105.87 81.08 106.11 81.08 105.77 80.27 105.51 79.66 104.89 81.09 105.16 81.09 105.15 81.09 104.67 82.22 105.04 82.22 105.04 82.22 104.66 82.95 106.37 82.95 106.26 82.74 106.26 82.74"/><polygon class="cls-9" points="103.98 81.19 103.63 80.5 103.62 80.48 104.09 80.48 103.68 79.5 103.46 78.99 103.78 78.99 103.33 77.92 102.98 77.1 102.16 79 102.51 79 102.51 79 101.87 80.5 102.36 80.49 102.36 80.5 101.42 82.32 101.86 82.32 101.57 82.95 104.4 82.95 104.37 82.89 104.11 82.3 104.55 82.3 103.98 81.19"/><polygon class="cls-9" points="101.43 81.87 101.11 81.24 101.1 81.23 101.53 81.23 101.16 80.34 100.96 79.88 101.25 79.88 100.84 78.92 100.53 78.18 99.79 79.89 100.11 79.89 100.11 79.89 99.53 81.24 99.97 81.24 99.97 81.24 99.11 82.89 99.52 82.89 99.49 82.95 101.58 82.95 101.54 82.87 101.94 82.87 101.43 81.87"/><polygon class="cls-9" points="97.42 82 97.42 82 97.42 81.99 97.8 81.98 97.46 81.2 97.29 80.79 97.55 80.79 97.18 79.93 96.9 79.27 96.25 80.8 96.53 80.8 96.53 80.8 96.02 82 96.41 82 96.4 82 95.91 82.95 97.91 82.95 97.71 82.56 97.42 82"/><polygon class="cls-9" points="138.2 81.34 138.55 81.33 138.1 80.46 137.82 79.91 137.81 79.89 138.19 79.89 137.86 79.11 137.69 78.71 137.94 78.71 137.58 77.86 137.3 77.2 136.65 78.72 136.93 78.72 136.93 78.72 136.43 79.91 136.81 79.9 136.81 79.91 136.06 81.36 136.41 81.35 135.66 82.99 138.95 82.99 138.41 81.81 138.2 81.34"/><polygon class="cls-9" points="129.63 82.2 129.85 82.19 129.56 81.63 129.38 81.28 129.38 81.27 129.62 81.27 129.41 80.77 129.3 80.52 129.46 80.51 129.23 79.97 129.06 79.55 128.64 80.52 128.82 80.52 128.82 80.52 128.49 81.28 128.74 81.28 128.74 81.28 128.26 82.21 128.49 82.21 128.13 82.99 129.99 82.99 129.76 82.5 129.63 82.2"/><polygon class="cls-9" points="131.93 81.77 131.75 81.38 132.04 81.38 131.67 80.67 131.44 80.22 131.44 80.2 131.75 80.2 131.48 79.57 131.34 79.24 131.55 79.24 131.25 78.54 131.03 78.01 130.49 79.25 130.72 79.24 130.72 79.25 130.31 80.22 130.62 80.21 130.62 80.22 130.01 81.4 130.3 81.4 129.63 82.87 129.89 82.86 129.83 82.99 132.23 82.99 132.16 82.84 132.41 82.84 131.93 81.77"/><polygon class="cls-9" points="133.72 82.16 134.01 82.15 133.64 81.44 133.64 81.44 133.41 80.99 133.41 80.98 133.71 80.97 133.44 80.34 133.31 80.01 133.51 80.01 133.22 79.31 132.99 78.78 132.46 80.02 132.69 80.02 132.69 80.02 132.27 80.99 132.59 80.98 132.59 80.99 131.98 82.17 132.26 82.17 131.89 82.99 134.1 82.99 133.9 82.54 133.72 82.16"/><polygon class="cls-9" points="134.94 81.68 134.79 81.31 135.02 81.31 134.69 80.53 134.44 79.94 133.84 81.32 134.1 81.32 134.1 81.32 133.63 82.4 133.99 82.4 133.99 82.4 133.68 82.99 135.2 82.99 135.16 82.91 134.91 82.4 134.91 82.4 134.9 82.39 135.24 82.39 134.94 81.68"/><polygon class="cls-9" points="132 82.03 131.79 81.56 131.32 82.66 131.52 82.66 131.52 82.66 131.38 82.99 132.21 82.99 132.2 82.95 132.07 82.65 132.26 82.65 132 82.03"/><polygon class="cls-9" points="128.06 82.78 127.8 82.25 127.79 82.24 128.15 82.24 127.83 81.5 127.67 81.12 127.92 81.12 127.57 80.31 127.31 79.69 126.69 81.13 126.96 81.13 126.95 81.13 126.47 82.25 126.84 82.25 126.84 82.25 126.46 82.99 128.17 82.99 128.06 82.78 128.06 82.78"/><polygon class="cls-9" points="125.78 81.23 125.43 80.53 125.42 80.52 125.89 80.51 125.48 79.53 125.27 79.03 125.59 79.02 125.13 77.95 124.78 77.13 123.96 79.04 124.31 79.03 124.31 79.04 123.67 80.53 124.16 80.53 124.16 80.53 123.22 82.36 123.66 82.36 123.37 82.99 126.2 82.99 126.17 82.93 125.91 82.33 126.35 82.33 125.78 81.23"/><polygon class="cls-9" points="123.23 81.91 122.91 81.28 122.91 81.27 123.33 81.26 122.96 80.38 122.77 79.92 123.05 79.92 122.64 78.95 122.33 78.21 121.59 79.93 121.91 79.93 121.91 79.93 121.33 81.28 121.77 81.28 121.77 81.28 120.92 82.93 121.32 82.92 121.29 82.99 123.38 82.99 123.34 82.91 123.74 82.9 123.23 81.91"/><polygon class="cls-9" points="119.22 82.04 119.22 82.04 119.22 82.02 119.6 82.02 119.26 81.23 119.09 80.83 119.35 80.83 118.98 79.97 118.7 79.31 118.05 80.84 118.33 80.83 118.33 80.84 117.82 82.04 118.21 82.03 118.2 82.04 117.71 82.99 119.71 82.99 119.51 82.59 119.22 82.04"/><polygon class="cls-9" points="149.84 83.05 150.02 82.66 150.02 83.09 149.82 83.09 149.84 83.05"/><polygon class="cls-9" points="149.95 82.31 150.02 82.17 150.02 82.31 149.95 82.31"/><polygon class="cls-9" points="149.76 82.88 149.49 82.36 149.48 82.35 149.84 82.34 149.53 81.6 149.37 81.22 149.61 81.22 149.26 80.41 149 79.8 148.38 81.23 148.65 81.23 148.65 81.23 148.17 82.36 148.53 82.36 148.53 82.36 148.16 83.09 149.86 83.09 149.76 82.88 149.76 82.88"/><polygon class="cls-9" points="147.48 81.33 147.12 80.64 147.11 80.62 147.59 80.62 147.17 79.64 146.96 79.13 147.28 79.13 146.82 78.05 146.47 77.23 145.65 79.14 146.01 79.14 146.01 79.14 145.37 80.64 145.85 80.63 145.85 80.64 144.91 82.46 145.35 82.46 145.06 83.09 147.9 83.09 147.87 83.03 147.6 82.44 148.04 82.43 147.48 81.33"/><polygon class="cls-9" points="144.93 82.01 144.61 81.38 144.6 81.37 145.03 81.36 144.65 80.48 144.46 80.02 144.75 80.02 144.34 79.05 144.02 78.31 143.28 80.03 143.6 80.03 143.6 80.03 143.02 81.38 143.46 81.38 143.46 81.38 142.61 83.03 143.01 83.03 142.98 83.09 145.08 83.09 145.04 83.01 145.44 83.01 144.93 82.01"/><polygon class="cls-9" points="140.92 82.14 140.92 82.14 140.91 82.13 141.29 82.12 140.96 81.34 140.79 80.93 141.04 80.93 140.68 80.07 140.4 79.41 139.74 80.94 140.02 80.94 140.02 80.94 139.51 82.14 139.9 82.14 139.9 82.14 139.41 83.09 141.4 83.09 141.2 82.7 140.92 82.14"/><polygon class="cls-10" points="0.02 91.16 150.02 92.08 150.02 115.51 0.02 107.45 0.02 91.16"/><path class="cls-11" d="M22.66,120.48a.53.53,0,0,1-.14.33c-.67.81-3.77,1.43-7.5,1.43s-6.82-.62-7.49-1.43a.53.53,0,0,1-.14-.33c0-1,3.41-1.76,7.63-1.76S22.66,119.51,22.66,120.48Z"/><path class="cls-12" d="M22.52,120.81c-.67.81-3.77,1.43-7.5,1.43s-6.82-.62-7.49-1.43c.68-.81,3.77-1.42,7.49-1.42S21.84,120,22.52,120.81Z"/><path class="cls-13" d="M146.13,92h3.27v-.4h-1.13V88.93h1l-.06-.4h-3.12v-2.7h2.43l-.15-.4h-.14v-.3a8.36,8.36,0,0,0-.39-.86v1.16H144V83.72l-.38.51v1.2h-1c-.12.13-.24.27-.37.4h3.53v2.7h-3.88V86.21c-.13.12-.27.26-.39.39v1.93h-2.25l-.54.4h.65v2.69h-3.88v-.74l-.4.2v.54h-1.21c-.32.14-.66.28-1,.4h.07v2.76h.4V92h3.88v2.76h.4V92h3.88v2.76h.39V92h3.88v2.76h.39ZM129,93.13l-.4.09v1.56h.4V93.13Zm-4.28.62-.4,0v1h.4v-1ZM145,82.34l-.27.39H147l-.28-.39h-.57v-.71c-.12-.16-.26-.32-.39-.47v1.18Zm2.91,6.59H144v2.69h3.89Zm-4.27,0h-3.89v2.69h3.89Z"/><path class="cls-14" d="M149.4,94.78H121.08V90.64a14.2,14.2,0,0,1,14.16-14.16h0A14.2,14.2,0,0,1,149.4,90.64Z"/><path class="cls-15" d="M149.4,94.78H121.08v-.91c14.22.22,21.28-7,24.64-12.73a14.1,14.1,0,0,1,3.68,9.5Z"/><path class="cls-16" d="M146.13,92h3.27v-.4h-1.13V88.93h1l-.06-.4h-3.12v-2.7h2.43l-.15-.4h-.14v-.3a8.36,8.36,0,0,0-.39-.86v1.16H144v-2.7h3l-.28-.39h-.57v-.71c-.12-.16-.26-.32-.39-.47v1.18h-3.88v-2.7h2.27l-.52-.41h-3.89v-2l-.39-.13v2.16h-3.88V76.48h-.4v2.76h-3.88V77.08l-.4.13v2h-3.88c-.19.13-.36.28-.54.41h2.28v2.7h-3.88V81.16a5.85,5.85,0,0,0-.4.47v.71h-.57a4.73,4.73,0,0,1-.28.39h3v2.7h-3.88V84.27a8.42,8.42,0,0,0-.4.86v.3h-.14c0,.13-.09.27-.14.4h2.42v2.7h-3.11l-.06.4h1v2.69h-1.13V92h3.27v2.76h.4V92h3.88v2.76h.4V92h3.88v2.76h.4V92h3.88v2.76h.4V92h3.88v2.76h.39V92h3.88v2.76h.39Zm1.75-3.09H144v2.69h3.89Zm-4.27,0h-3.89v2.69h3.89Zm-4.28,0h-3.88v2.69h3.88Zm-4.28,0h-3.88v2.69h3.88Zm-4.28,0h-3.88v2.69h3.88Zm-4.28,0h-3.88v2.69h3.88Zm19.25-3.1h-3.88v2.7h3.88Zm-4.27,0h-3.88v2.7h3.88Zm-4.28,0h-3.88v2.7h3.88Zm-4.28,0H129v2.7h3.88Zm-4.28,0h-3.88v2.7h3.88Zm15-3.1h-3.89v2.7h3.89Zm-4.28,0h-3.88v2.7h3.88Zm-4.28,0h-3.88v2.7h3.88Zm-4.28,0h-3.88v2.7h3.88Zm10.7-3.09h-3.88v2.7h3.88Zm-4.28,0h-3.88v2.7h3.88Zm-4.28,0H129v2.7h3.88Z"/><path class="cls-17" d="M140.74,94.78h-11V89.64a5.51,5.51,0,0,1,5.49-5.5h0a5.51,5.51,0,0,1,5.5,5.5Z"/><path class="cls-18" d="M139.25,94.78h-8V89.64a4,4,0,0,1,4-4h0a4,4,0,0,1,4,4Z"/><path class="cls-19" d="M137.38,94.78h-6V90.9a3,3,0,0,1,3-3h0a3,3,0,0,1,3,3Z"/><polygon class="cls-20" points="114.64 84.83 116.27 85.98 117.58 86.91 117.64 84.14 117.64 84.14 116.74 83.2 115.71 82.13 116.8 83.14 117.65 83.94 117.71 80.94 117.2 80.34 116.67 79.73 117.26 80.29 117.72 80.72 117.76 78.61 117.54 78.27 117.34 77.95 117.58 78.24 117.76 78.49 117.79 77.3 117.83 79.26 118.08 79.03 118.39 78.76 118.15 79.08 117.84 79.44 117.9 82.32 118.47 81.63 119.19 80.78 118.54 81.68 117.9 82.56 117.94 84.14 117.95 84.84 119.03 83.81 120.31 82.58 119.11 83.88 117.96 85.11 118.02 87.71 119.4 86.46 121.08 84.95 119.51 86.57 118.02 88.1 118.08 90.98 117.79 90.98 117.49 90.98 117.58 87.21 116.18 86.08 114.64 84.83"/><polygon class="cls-21" points="0.62 84.69 1.77 85.5 2.7 86.16 2.74 84.2 2.74 84.2 2.1 83.53 1.37 82.78 2.14 83.5 2.74 84.06 2.79 81.94 2.43 81.52 2.06 81.08 2.47 81.48 2.79 81.78 2.83 80.29 2.67 80.05 2.53 79.83 2.7 80.03 2.83 80.21 2.85 79.37 2.88 80.75 3.06 80.59 3.27 80.39 3.1 80.63 2.88 80.88 2.92 82.91 3.33 82.43 3.84 81.83 3.38 82.46 2.93 83.08 2.95 84.2 2.96 84.7 3.72 83.96 4.63 83.1 3.78 84.01 2.96 84.89 3 86.72 3.98 85.84 5.17 84.77 4.06 85.92 3.01 87 3.06 89.04 2.85 89.04 2.64 89.04 2.69 86.37 1.71 85.57 0.62 84.69"/></svg>