<svg id="Camada_1" data-name="Camada 1" xmlns="http://www.w3.org/2000/svg" viewBox="0 0 150 150"><defs><style>.cls-1{fill:#f7eae2;}.cls-2{fill:#c8ccb0;}.cls-3{fill:#afbca0;}.cls-4{fill:#f3fffb;}.cls-5{fill:#b5987c;}.cls-6{opacity:0.57;}.cls-7{fill:#cc977a;}.cls-8{fill:#b6c1a7;}.cls-9{fill:#acb294;}.cls-10{fill:#a5ad8e;}.cls-11{fill:#969b81;}.cls-12{opacity:0.65;}.cls-13{fill:#eadec5;}.cls-14{opacity:0.79;}</style></defs><rect class="cls-1" x="0.02" width="150" height="150"/><rect class="cls-2" x="0.02" y="81.48" width="150" height="68.52"/><path class="cls-3" d="M150,79.52V82a4,4,0,0,1-.78.07H0V80a6.79,6.79,0,0,1,3.88-.3,16.27,16.27,0,0,0,4.52.75c1.26-.1,2.21-.61,3.43-.79,2.68-.39,5.42.88,8.18.63,1.73-.15,3-.89,4.79-1,2.39-.2,4.59.78,7,.74a17.5,17.5,0,0,0,5.45-1.33,31,31,0,0,1,8-1.4,4.34,4.34,0,0,1,1.51.12c.79.28.53.87,1,1.28a5.64,5.64,0,0,0,2.92.62,234.69,234.69,0,0,0,25.59-.41,6.23,6.23,0,0,0,1.83-.32,6.39,6.39,0,0,0,1-.69,5.22,5.22,0,0,1,4.18-.12,10.4,10.4,0,0,0,1.14.68,7.51,7.51,0,0,0,2.35.28c8.83.16,17.86.31,26.27-1a15.23,15.23,0,0,1,3.93-.29c1.72.17,2.92.92,4.52,1.28,3.88.86,8.69-.77,12.62,0a10.11,10.11,0,0,0,3.41.5,4.57,4.57,0,0,0,1.69-.61A7.58,7.58,0,0,1,142,77.8c1.11-.1,2.42.2,2.6.73.06.19,0,.39.14.56.4.43,1.69.32,2.66.25A9.17,9.17,0,0,1,150,79.52Z"/><path class="cls-4" d="M94.59,23.62a16.36,16.36,0,0,1,11.36-5s1.42-5,8.51-4.73c0,0,2.84-3.31,8.28-1.42,0,0,4.26-3.07,8,2.13,0,0,3.55-1.84,4.5,3a4.82,4.82,0,0,1,5.91,2.94s4.26.23,5.44,3.07Z"/><path class="cls-4" d="M5.86,36.73a16.33,16.33,0,0,1,11.35-5s1.42-5,8.52-4.73c0,0,2.84-3.31,8.28-1.42,0,0,4.25-3.07,8,2.13,0,0,3.55-1.85,4.49,3a4.84,4.84,0,0,1,5.92,2.94s4.25.23,5.44,3.07Z"/><path class="cls-5" d="M19.58,149.2c.59-.5,6.35-4.66,6.15-5.09-.09-.16-6.37,3.61-7,4,.38-.63,7.93-10.48,7.64-10.74-.22,0-8.31,9.4-8.76,9.93.18-.73,3.94-13.82,3.57-14-.15,0-4.67,13-4.93,13.68-.06-.54-.33-15.3-.64-15.32-.14,0-.59,14.81-.65,15.32-.28-.71-4.38-16.61-4.84-16.61-.17,0,3.32,16.25,3.48,16.93-.49-.57-6.94-10.78-7.3-10.58-.18.1,5.82,10.8,6.18,11.39-.62-.38-9.35-7.4-9.59-7.13,0,.19,8.25,7.8,8.78,8.25-.68-.17-8.44-2.66-8.56-2.38,0,.11,4.62,2.16,6.94,3.18H21.27c2.26-.92,6.66-2.76,6.61-3.07S20.26,149,19.58,149.2Z"/><g class="cls-6"><path class="cls-5" d="M7.6,107.53c0-.08-2.85.79-3.1.85a18.33,18.33,0,0,0,2.3-1.91c-.11,0-2.39,1.35-2.61,1.49.15-.24,3-3.92,2.86-4s-3.11,3.52-3.28,3.72c.07-.28,1.48-5.17,1.34-5.24s-1.75,4.88-1.85,5.12c0-.2-.12-5.73-.23-5.73s-.23,5.54-.25,5.73c-.1-.27-1.64-6.21-1.81-6.21,0,.27,1.24,6.08,1.3,6.33-.14-.17-1.5-2.32-2.25-3.38v.37c.65,1.21,1.74,3.16,1.83,3.31-.12-.07-1-.75-1.83-1.41V107l1.53,1.4L0,107.92v.35l1.4.61c-.14,0-.79,0-1.4,0v.31c1.06.2,2.48.36,2.85.38a21.43,21.43,0,0,0,4.36-.7s-2.32.07-2.57.05A23.3,23.3,0,0,0,7.6,107.53Z"/></g><path class="cls-7" d="M150,56v1.41c-.36.82-.73,1.65-1.1,2.47l-.64,1.39a3.65,3.65,0,0,1-.52.9,2.78,2.78,0,0,1-.78.58c-.67.34-6,2.94-8,3.92-1.21.59-2.4,1.2-3.59,1.82a4.57,4.57,0,0,0-1.49,1,2.4,2.4,0,0,1-.11.23,1.4,1.4,0,0,0-.1.35v.06s0,.35,0,.89-.05,1-.07,1.69c0,1.55-.12,3.67-.18,5.91,0,.94-.05,1.91-.07,2.86,0,.2,0,.39,0,.59,0,2.17-.07,4.25-.06,5.89h0c0,1.34,0,2.38.1,2.93h-3.77a8.13,8.13,0,0,0,.28-1.27s0,0,0,0c0-.2.07-.41.1-.64h0c.07-.43.13-.91.19-1.43,0-.34.08-.69.12-1.07h0c.15-1.33.29-2.83.43-4.39,0-.2,0-.39.05-.59.09-1,.17-2,.25-3,0-.57.1-1.14.16-1.69v0a64.63,64.63,0,0,1,.84-7.08,3.3,3.3,0,0,1,2.12-2.22c2-.85,3.93-1.78,5.88-2.7l6.56-3.11.14-.07.2-.14a6.67,6.67,0,0,0,.93-1.51c0-.09.09-.18.14-.27s.19-.36.3-.53c.43-.8.89-1.59,1.34-2.38Z"/><path class="cls-7" d="M133.61,71c2.95-.66,10.91-3.29,16.41-5.16v1c-5.77,2.06-13.86,4.86-16.48,5.81l-.81.31a8.86,8.86,0,0,1-.08-1.85A6,6,0,0,0,133.61,71Z"/><path class="cls-7" d="M127.35,74.66c-3.9-2.84-18.25-9.59-19-10.59-.39-.53-3.11-7.42-3.62-8.79.87,1.62,3.45,6.92,4,7.87.36.62,15.42,7,18.55,9A19.75,19.75,0,0,1,127.35,74.66Z"/><path class="cls-7" d="M147.93,60l-2.48-1.25a3.29,3.29,0,0,1-1.45-1.1c-.54-.95-.14-2.1,0-3.1s.31-1.91.47-2.87l-.3,4.08a2.52,2.52,0,0,0,.19,1.51,1.7,1.7,0,0,0,.74.62c1,.49,2.14.84,3.19,1.26C148.19,59.47,148.06,59.75,147.93,60Z"/><path class="cls-7" d="M137.43,60.16l-2.27-1.51-1.78-1.19c-.6-.4-1.25-.76-1.81-1.22-1.19-1-1-2.47-1-3.84,0-.95,0-1.89,0-2.84.07.9.13,1.81.2,2.72.09,1.24-.06,2.77,1.08,3.59.54.39,1.17.69,1.74,1s1.25.71,1.87,1.07l2.47,1.41C137.76,59.64,137.6,59.9,137.43,60.16Z"/><path class="cls-7" d="M116.65,61.29l2.81-1.42,2.32-1.18a24.83,24.83,0,0,0,2.3-1.17,2,2,0,0,0,.85-1.82V53.14c0-1.09,0-2.18,0-3.27.07,1.08.13,2.17.2,3.26l.15,2.56a2.47,2.47,0,0,1-.69,2A10.69,10.69,0,0,1,122.42,59L120,60.41l-2.94,1.7Z"/><path class="cls-7" d="M140.47,57l-1.53-1a6.81,6.81,0,0,1-2.25-1.79,4.25,4.25,0,0,1-.17-2.32l.15-2c0,.62,0,1.23,0,1.84a4.13,4.13,0,0,0,.27,2.29,6.51,6.51,0,0,0,2.26,1.55l1.59.92Z"/><path class="cls-7" d="M129.83,60.39a2.37,2.37,0,0,1-.43-.89h-.23a2.37,2.37,0,0,0,.37,1.17c.55.7,3.31,1.91,3.82,2.17l.22-.48A17.86,17.86,0,0,1,129.83,60.39Z"/><path class="cls-7" d="M132.6,56.94l-1.77-.5a6.82,6.82,0,0,1-2.69-1,4.18,4.18,0,0,1-.85-2.16l-.45-1.9c.18.58.36,1.17.53,1.75a4.21,4.21,0,0,0,.95,2.11,6.57,6.57,0,0,0,2.62.8c.6.13.76.09,1.35.22C132.45,56.49,132.64,56.76,132.6,56.94Z"/><path class="cls-7" d="M122.14,58.89l-2-1.29a8.66,8.66,0,0,1-2.61-2,5.46,5.46,0,0,1-.72-2.66c-.1-.84-.19-1.68-.29-2.52.11.67.22,1.34.34,2a6.5,6.5,0,0,0,1,3.14,10.24,10.24,0,0,0,2.72,1.76l1.89,1.06Z"/><path class="cls-7" d="M108,62.94,106,62.68a6.43,6.43,0,0,1-2.59-.65c-1.28-.79-1.82-2.37-2.48-3.66L102,60a4,4,0,0,0,1.58,1.59,6,6,0,0,0,2.48.36l2,0C108,62.32,108,62.63,108,62.94Z"/><path class="cls-7" d="M141.18,50.19a1.14,1.14,0,0,0-.21,0h0a.12.12,0,0,0,0,.07v.06c-.08.54-.16,1.07-.23,1.61a0,0,0,0,0,0,0l-.09.64c-.07.47-.13.93-.2,1.4s-.15,1.07-.22,1.6c0,.18,0,.36-.08.54s-.05.38-.08.57,0,.34-.07.5a2.69,2.69,0,0,1-.2.8l-.27.24-1,.64-.69.45-.84.55-3.64,2.39-.5.33-1.45.95a4.4,4.4,0,0,0-1.86,1.74,2.67,2.67,0,0,0-.22,1c0,.46,0,5.61,0,11.11h0c0,.39,0,.79,0,1.18,0,1,0,1.91,0,2.85,0,.2,0,.39,0,.59,0,1.89,0,3.67,0,5.16v.5c0,.32,0,.62,0,.91,0,1,0,1.79,0,2.26h2.35c0-.37-.05-.86-.07-1.45h0v0h0c-.08-1.78-.16-4.44-.24-7.34,0-.19,0-.39,0-.59,0-1,0-2-.07-3,0-.57,0-1.13,0-1.69v0c-.12-4.53-.22-8.76-.34-10.46h0a1.34,1.34,0,0,1,.57-1.16L133,64l6.37-4.6a4.48,4.48,0,0,0,1.09-.94,3.91,3.91,0,0,0,.33-1.79s0-.08,0-.12v0c.06-.83.12-1.65.17-2.47a.53.53,0,0,0,0-.12h0c0-.1,0-.19,0-.28,0-.37.06-.74.08-1.11a3.87,3.87,0,0,0,0-.48,1.8,1.8,0,0,0,0-.22l.06-.88c0-.22,0-.45,0-.67v-.05Z"/><path class="cls-7" d="M126.51,67.49c.16.74,1.51,20.21,1.2,23.41h3.18c-.77-3-2.41-22.46-2.65-23.4a9.21,9.21,0,0,0-.36-1.27,2.57,2.57,0,0,0-1.59-1.4l-11.73-4.32a2.81,2.81,0,0,1-1.4-1.07c-.52-.89-3-6.74-3.34-7.33l-.21.08c0,.06,1.62,5,2.3,7a4,4,0,0,0,1.67,2.14c.66.41,10.51,4.37,11.55,4.79.51.21,1.11.33,1.27.92C126.41,67,126.49,67.38,126.51,67.49Z"/><ellipse class="cls-8" cx="129.54" cy="51.01" rx="12.66" ry="1.94"/><path class="cls-8" d="M127.56,53c0,1.8-5.64,3.26-12.6,3.26s-12.6-1.46-12.6-3.26S108,49.75,115,49.75,127.56,51.21,127.56,53Z"/><path class="cls-9" d="M132.44,49.63c0,1.81-4.92,3.27-11,3.27s-11-1.46-11-3.27,4.92-3.26,11-3.26S132.44,47.83,132.44,49.63Z"/><path class="cls-9" d="M116.67,55.08c0,1.3-4.15,2.35-9.28,2.35s-9.29-1-9.29-2.35,4.16-2.35,9.29-2.35S116.67,53.78,116.67,55.08Z"/><path class="cls-9" d="M105.82,59.6c0,.8-2.56,1.45-5.72,1.45s-5.71-.65-5.71-1.45,2.56-1.44,5.71-1.44S105.82,58.81,105.82,59.6Z"/><path class="cls-8" d="M147.18,47.24c1,.06,1.95.15,2.84.26v6.16a51.38,51.38,0,0,1-5.7.38h-1c-.65,0-1.3,0-1.93,0h-.43l-.51,0h0c-1.28-.06-2.49-.16-3.62-.29l-.25,0a32.86,32.86,0,0,1-4.16-.77,13.47,13.47,0,0,1-1.58-.5l-.19-.07-.11,0a6.55,6.55,0,0,1-.88-.44h0a2.52,2.52,0,0,1-.82-.74.93.93,0,0,1-.16-.51c0-.54.52-1,1.44-1.51h0a10.72,10.72,0,0,1,1.64-.62,31,31,0,0,1,5.32-1,57.75,57.75,0,0,1,6.28-.33l1.43,0C145.57,47.15,146.39,47.18,147.18,47.24Z"/><path class="cls-9" d="M150,50.35v5.5a27.48,27.48,0,0,1-5.78-.66h0l-.31-.09A7.33,7.33,0,0,1,141.36,54l-.2-.18a1.41,1.41,0,0,1-.2-.24,1,1,0,0,1-.16-.5,1,1,0,0,1,.24-.61,2.14,2.14,0,0,1,.44-.39C142.84,51.13,146.12,50.42,150,50.35Z"/><path class="cls-9" d="M143,52.94c0,.73-3,1.32-6.71,1.32s-6.7-.59-6.7-1.32,3-1.33,6.7-1.33S143,52.21,143,52.94Z"/><path class="cls-8" d="M147.2,47.32c0,.53-2.29,1-5.12,1s-5.12-.44-5.12-1,2.3-1,5.12-1S147.2,46.78,147.2,47.32Z"/><path class="cls-9" d="M109.16,53.3c0,.8-2,1.44-4.56,1.44S100,54.1,100,53.3s2-1.44,4.56-1.44S109.16,52.5,109.16,53.3Z"/><path class="cls-9" d="M130.94,47.2c0,.54-2.29,1-5.11,1s-5.12-.43-5.12-1,2.29-1,5.12-1S130.94,46.66,130.94,47.2Z"/><path class="cls-10" d="M150,60.55v.86c-.21-.13-.33-.28-.33-.43S149.81,60.68,150,60.55Z"/><path class="cls-9" d="M119.83,56.25c0,.69-1.94,1.25-4.34,1.25s-4.34-.56-4.34-1.25S113.09,55,115.49,55,119.83,55.56,119.83,56.25Z"/><path class="cls-8" d="M134.38,59c0,.79-2.21,1.42-4.93,1.42s-4.93-.63-4.93-1.42,2.21-1.41,4.93-1.41S134.38,58.2,134.38,59Z"/><path class="cls-9" d="M122.68,50c0,.6-3.17,1.09-7.08,1.09s-7.08-.49-7.08-1.09,3.17-1.08,7.08-1.08S122.68,49.42,122.68,50Z"/><path class="cls-10" d="M131.34,89.36v0c0-1.2-1.24-2.17-2.78-2.17a2.78,2.78,0,0,0-2.69,1.59,1.56,1.56,0,0,0-1.13,1.41,1.67,1.67,0,0,0,1.86,1.47h4A1.39,1.39,0,0,0,132,90.39,1.17,1.17,0,0,0,131.34,89.36Z"/><path class="cls-3" d="M127.89,88.39a1,1,0,1,1-1-1A1,1,0,0,1,127.89,88.39Z"/><path class="cls-3" d="M131.11,89.37a.67.67,0,1,1-.67-.63A.66.66,0,0,1,131.11,89.37Z"/><path class="cls-3" d="M129.58,88.19a.5.5,0,0,1-1,0,.5.5,0,0,1,1,0Z"/><polygon class="cls-11" points="137.23 90.84 136.94 90.34 137.04 89.76 136.59 89.38 136.49 88.8 135.94 88.6 135.65 88.1 135.06 88.09 134.61 87.72 134.06 87.92 133.51 87.72 133.06 88.09 132.47 88.1 132.18 88.6 131.63 88.8 131.53 89.38 131.08 89.76 131.18 90.34 130.89 90.84 131.18 91.35 131.08 91.93 131.51 92.3 136.61 92.3 137.04 91.93 136.94 91.35 137.23 90.84"/><g class="cls-12"><path class="cls-10" d="M148.13,85.46v0a1.43,1.43,0,0,0-1.56-1.21,1.55,1.55,0,0,0-1.5.89.88.88,0,0,0-.63.79c0,.48.46.82,1,.82h2.21a.78.78,0,0,0,.82-.7A.64.64,0,0,0,148.13,85.46Z"/><path class="cls-3" d="M146.2,84.92a.58.58,0,0,1-1.16,0,.58.58,0,0,1,1.16,0Z"/><path class="cls-3" d="M148,85.47a.38.38,0,1,1-.38-.36A.37.37,0,0,1,148,85.47Z"/><path class="cls-3" d="M147.14,84.8a.27.27,0,0,1-.28.27.27.27,0,1,1,0-.53A.27.27,0,0,1,147.14,84.8Z"/></g><path class="cls-13" d="M23.19,91.05c0,3-10.22,5.47-23.17,5.68V85.36C13,85.57,23.19,88,23.19,91.05Z"/><path class="cls-13" d="M150,98.86v15a85.22,85.22,0,0,1-12.69.91c-15.45,0-28-3.77-28-8.43s12.52-8.43,28-8.43A85.22,85.22,0,0,1,150,98.86Z"/><circle class="cls-13" cx="139.55" cy="106.39" r="0.23"/><path class="cls-9" d="M145.09,47.89c0,1.81-6.05,3.27-13.52,3.27S118,49.7,118,47.89s6.06-3.26,13.53-3.26S145.09,46.09,145.09,47.89Z"/><g class="cls-14"><path class="cls-5" d="M141.39,122.73c0-.14-5.15,1.42-5.6,1.53.39-.34,4.28-3.14,4.15-3.43-.06-.11-4.3,2.43-4.7,2.68.26-.43,5.35-7.07,5.15-7.25-.15,0-5.6,6.34-5.91,6.7.12-.49,2.66-9.32,2.41-9.45-.1,0-3.15,8.8-3.33,9.24,0-.37-.22-10.33-.43-10.35s-.4,10-.44,10.35c-.19-.48-3-11.22-3.26-11.22-.12,0,2.24,11,2.34,11.43-.32-.38-4.68-7.27-4.92-7.14s3.92,7.29,4.17,7.69c-.42-.26-6.31-5-6.47-4.82,0,.13,5.57,5.27,5.92,5.57-.45-.11-5.69-1.79-5.77-1.6s5.1,2.33,5.53,2.51c-.47,0-4.67-.28-4.69-.13.81.58,6.29,1.23,7.31,1.28.53,0,6.38-.5,7.86-1.27-.26,0-4.19.14-4.64.1C136.54,125,141.39,123,141.39,122.73Z"/></g></svg>