<svg id="Gooloos" xmlns="http://www.w3.org/2000/svg" width="150" height="150" viewBox="0 0 150 150"><path d="M107.75,107.32s-1.96,5.39-3.84,10.7c-.47,1.34-.94,2.68-1.37,3.92-.24.71-.48,1.39-.69,2.02a40.2689,40.2689,0,0,0-1.3,4.24l-1.92-2.19-.03-.03c-.01.15-.03.35-.05.58v.05c-.15,2.12-.47,7.14-.34,10.75-.63.13-1.27.25-1.9.36a113.174,113.174,0,0,1-11.55,1.45c-3.23.24-6.35.34-9.29.34h-.74a118.51,118.51,0,0,1-21.04-1.79c-.63-.11-1.27-.23-1.9-.36.13-3.61-.19-8.63-.34-10.75v-.05c-.02-.23-.04-.43-.05-.58l-.03.03-1.92,2.19c-.03-.45-.88-3.04-1.99-6.26-2.13-6.17-5.21-14.62-5.21-14.62l5.87-4.03c.92,5.77,2.89,9.94,5.37,12.95v.01l.01.01c.01.01.02.03.04.05a19.7181,19.7181,0,0,0,3.77,3.48c.13.09.27.19.42.29a23.5545,23.5545,0,0,0,5.78,2.66c.23.07.46.14.7.2a27.1777,27.1777,0,0,0,5.33.82q.405.015.9.03c1.15.05,2.56.11,4.29.21v-.01a1.8325,1.8325,0,0,0,.54,0V124c1.73-.1,3.14-.16,4.29-.21q.495-.015.9-.03a27.1777,27.1777,0,0,0,5.33-.82c.24-.06.47-.13.7-.2a23.5545,23.5545,0,0,0,5.78-2.66c.15-.1.29-.2.42-.29a19.7181,19.7181,0,0,0,3.77-3.48c.02-.02.03-.04.04-.05l.01-.01v-.01a21.2994,21.2994,0,0,0,2-2.89,29.3924,29.3924,0,0,0,3.37-10.06Z" style="fill:#cc9a50"/><path d="M53.69,137.72c-.63-.11-1.27-.23-1.9-.36.13-3.61-.19-8.63-.34-10.75v-.05c-.02-.23-.04-.43-.05-.58l-.03.03-1.92,2.19c-.03-.45-.88-3.04-1.99-6.26a61.1376,61.1376,0,0,0,6.52-3.62A52.4178,52.4178,0,0,0,53.69,137.72Z" style="fill:#8e4a4a"/><path d="M101.85,123.96a40.2689,40.2689,0,0,0-1.3,4.24l-1.92-2.19-.03-.03c-.01.15-.03.35-.05.58v.05c-.15,2.12-.47,7.14-.34,10.75-.63.13-1.27.25-1.9.36a113.174,113.174,0,0,1-11.55,1.45c2.63-1.15,10.29-5.56,12.79-18.79Z" style="fill:#8e4a4a"/><path d="M107.75,107.32s-1.96,5.39-3.84,10.7l-5.4-4.67a29.3924,29.3924,0,0,0,3.37-10.06Z" style="fill:#8e4a4a"/></svg>