<svg id="Camada_1" data-name="Camada 1" xmlns="http://www.w3.org/2000/svg" viewBox="0 0 150 150"><defs><style>.cls-1{fill:#fff;}.cls-2,.cls-4{fill:#001a2b;}.cls-2{stroke:#001a2b;stroke-miterlimit:10;}.cls-3{fill:#fd7780;}</style></defs><path class="cls-1" d="M96.32,101.2a9.08,9.08,0,0,0-1.24-1.07l-.39-.26h0a9.11,9.11,0,0,0-1.43-.72,8.92,8.92,0,0,0-3.24-.6,8.1,8.1,0,1,0,8.52,8.08A7.8,7.8,0,0,0,96.32,101.2Z"/><path class="cls-1" d="M60,98.54a8.1,8.1,0,1,0,8.51,8.08A8.31,8.31,0,0,0,60,98.54Z"/><ellipse class="cls-2" cx="60.88" cy="106.62" rx="6.27" ry="5.96"/><ellipse class="cls-2" cx="89.05" cy="106.62" rx="6.27" ry="5.96"/><path class="cls-1" d="M86.55,101.55a1.88,1.88,0,0,1,1.57,2.2,2,2,0,0,1-2.32,1.49,1.88,1.88,0,0,1-1.57-2.2A2,2,0,0,1,86.55,101.55Z"/><path class="cls-1" d="M58.38,101.55a1.88,1.88,0,0,1,1.57,2.2,2,2,0,0,1-2.32,1.49,1.88,1.88,0,0,1-1.57-2.2A2,2,0,0,1,58.38,101.55Z"/><ellipse class="cls-3" cx="60.68" cy="115.37" rx="4.89" ry="2.39"/><path class="cls-4" d="M95.07,98.19a5.58,5.58,0,0,1-.38,1.68h0a9.11,9.11,0,0,0-1.43-.72A3,3,0,0,0,95.07,98.19Z"/><path class="cls-4" d="M97.11,99.68l-.79,1.52a9.08,9.08,0,0,0-1.24-1.07A3,3,0,0,0,97.11,99.68Z"/><path class="cls-4" d="M54.94,98.19a5.58,5.58,0,0,0,.38,1.68h0a9.11,9.11,0,0,1,1.43-.72A3,3,0,0,1,54.94,98.19Z"/><path class="cls-4" d="M52.9,99.68l.79,1.52a9.08,9.08,0,0,1,1.24-1.07A3,3,0,0,1,52.9,99.68Z"/><ellipse class="cls-3" cx="89.31" cy="115.37" rx="4.89" ry="2.39"/></svg>