<svg id="Camada_1" data-name="Camada 1" xmlns="http://www.w3.org/2000/svg" width="150" height="150" viewBox="0 0 150 150"><ellipse cx="90.0032" cy="107.069" rx="8.5144" ry="0.5311" style="fill:#001a2b;stroke:#001a2b;stroke-miterlimit:10"/><ellipse cx="59.9969" cy="107.069" rx="8.5144" ry="0.5311" style="fill:#001a2b;stroke:#001a2b;stroke-miterlimit:10"/><ellipse cx="60.8815" cy="107.069" rx="6.2746" ry="0.3914" style="fill:#001a2b;stroke:#001a2b;stroke-miterlimit:10"/><ellipse cx="89.0513" cy="107.069" rx="6.2746" ry="0.3914" style="fill:#001a2b;stroke:#001a2b;stroke-miterlimit:10"/><path d="M58.3828,106.7355c1.0748.0129,1.7779.0778,1.57.1448a14.2844,14.2844,0,0,1-2.3216.098c-1.0748-.013-1.7779-.0778-1.5705-.1448A14.2738,14.2738,0,0,1,58.3828,106.7355Z" style="fill:#001a2b;stroke:#001a2b;stroke-miterlimit:10"/><path d="M86.5521,106.7355c1.0748.0129,1.7779.0778,1.5705.1448a14.2837,14.2837,0,0,1-2.3215.098c-1.0748-.013-1.778-.0778-1.5706-.1448A14.2738,14.2738,0,0,1,86.5521,106.7355Z" style="fill:#001a2b;stroke:#001a2b;stroke-miterlimit:10"/><path d="M96.4111,104.6068a5.5855,5.5855,0,0,1,.3136,1.6937l-.0224-.0013a9.105,9.105,0,0,0-1.5979-.0975A2.99,2.99,0,0,0,96.4111,104.6068Z" style="fill:#001a2b"/><path d="M98.8735,105.1712l-.1264,1.7084a9.0727,9.0727,0,0,0-1.5615-.494A3.0154,3.0154,0,0,0,98.8735,105.1712Z" style="fill:#001a2b"/><path d="M53.6177,104.55a5.5865,5.5865,0,0,0-.3193,1.6927l.0224-.0013a9.11,9.11,0,0,1,1.5983-.0921A2.9892,2.9892,0,0,1,53.6177,104.55Z" style="fill:#001a2b"/><path d="M51.1534,105.1061l.1206,1.7088a9.0776,9.0776,0,0,1,1.5632-.4887A3.0159,3.0159,0,0,1,51.1534,105.1061Z" style="fill:#001a2b"/></svg>