<svg id="Camada_1" data-name="Camada 1" xmlns="http://www.w3.org/2000/svg" width="150" height="150" viewBox="0 0 150 150"><path d="M96.3179,101.2a9.0762,9.0762,0,0,0-1.24-1.07c-.13-.09-.26-.18-.39-.26l-.02-.01a9.1077,9.1077,0,0,0-1.43-.72,8.9246,8.9246,0,0,0-3.24-.6,8.0961,8.0961,0,1,0,8.52,8.08A7.7988,7.7988,0,0,0,96.3179,101.2Z" style="fill:#fff"/><path d="M59.9965,98.5378a8.097,8.097,0,1,0,8.5142,8.0863A8.3086,8.3086,0,0,0,59.9965,98.5378Z" style="fill:#fff"/><ellipse cx="60.8811" cy="106.6242" rx="6.2746" ry="5.959" style="fill:#001a2b;stroke:#001a2b;stroke-miterlimit:10"/><ellipse cx="89.0508" cy="106.6242" rx="6.2746" ry="5.959" style="fill:#001a2b;stroke:#001a2b;stroke-miterlimit:10"/><path d="M86.5516,101.5461a1.89,1.89,0,0,1,1.5706,2.2048,1.9793,1.9793,0,0,1-2.3216,1.4917,1.89,1.89,0,0,1-1.5706-2.2049A1.9792,1.9792,0,0,1,86.5516,101.5461Z" style="fill:#fff"/><path d="M58.3823,101.5461a1.89,1.89,0,0,1,1.5706,2.2048,1.9793,1.9793,0,0,1-2.3216,1.4917,1.89,1.89,0,0,1-1.5706-2.2049A1.9792,1.9792,0,0,1,58.3823,101.5461Z" style="fill:#fff"/><ellipse cx="60.6785" cy="115.3683" rx="4.8878" ry="2.3928" style="fill:#fd7780"/><path d="M95.0679,98.19a5.5884,5.5884,0,0,1-.38,1.68l-.02-.01a9.1077,9.1077,0,0,0-1.43-.72A2.9894,2.9894,0,0,0,95.0679,98.19Z" style="fill:#001a2b"/><path d="M97.1079,99.68l-.79,1.52a9.0762,9.0762,0,0,0-1.24-1.07A3.0152,3.0152,0,0,0,97.1079,99.68Z" style="fill:#001a2b"/><path d="M54.9372,98.1877a5.5854,5.5854,0,0,0,.38,1.68l.02-.01a9.0986,9.0986,0,0,1,1.43-.72A2.99,2.99,0,0,1,54.9372,98.1877Z" style="fill:#001a2b"/><path d="M52.8971,99.6777l.79,1.52a9.0737,9.0737,0,0,1,1.24-1.07A3.0153,3.0153,0,0,1,52.8971,99.6777Z" style="fill:#001a2b"/><ellipse cx="89.3062" cy="115.3683" rx="4.8878" ry="2.3928" style="fill:#fd7780"/></svg>