<svg id="Camada_1" data-name="Camada 1" xmlns="http://www.w3.org/2000/svg" width="150" height="150" viewBox="0 0 150 150"><ellipse cx="90.0032" cy="106.6242" rx="8.5144" ry="8.0862" style="fill:#fff"/><ellipse cx="59.9969" cy="106.6242" rx="8.5144" ry="8.0862" style="fill:#fff"/><ellipse cx="60.8815" cy="106.6242" rx="6.2746" ry="5.959" style="fill:#001a2b;stroke:#001a2b;stroke-miterlimit:10"/><ellipse cx="89.0513" cy="106.6242" rx="6.2746" ry="5.959" style="fill:#001a2b;stroke:#001a2b;stroke-miterlimit:10"/><path d="M58.3828,101.5461a1.89,1.89,0,0,1,1.57,2.2048,1.9792,1.9792,0,0,1-2.3216,1.4917,1.89,1.89,0,0,1-1.5705-2.2049A1.9792,1.9792,0,0,1,58.3828,101.5461Z" style="fill:#fff"/><path d="M86.5521,101.5461a1.89,1.89,0,0,1,1.5705,2.2048,1.9792,1.9792,0,0,1-2.3215,1.4917,1.89,1.89,0,0,1-1.5706-2.2049A1.9792,1.9792,0,0,1,86.5521,101.5461Z" style="fill:#fff"/></svg>