<svg id="Camada_1" data-name="Camada 1" xmlns="http://www.w3.org/2000/svg" viewBox="0 0 150 150"><defs><style>.cls-1{fill:#fff;}.cls-2{fill:#001a2b;stroke:#001a2b;stroke-miterlimit:10;}</style></defs><ellipse class="cls-1" cx="90" cy="106.62" rx="8.51" ry="8.09"/><ellipse class="cls-1" cx="60" cy="106.62" rx="8.51" ry="8.09"/><ellipse class="cls-2" cx="60.88" cy="106.62" rx="6.27" ry="5.96"/><ellipse class="cls-2" cx="89.05" cy="106.62" rx="6.27" ry="5.96"/><path class="cls-1" d="M58.38,101.55a1.88,1.88,0,0,1,1.57,2.2,2,2,0,0,1-2.32,1.49,1.88,1.88,0,0,1-1.57-2.2A2,2,0,0,1,58.38,101.55Z"/><path class="cls-1" d="M86.55,101.55a1.88,1.88,0,0,1,1.57,2.2,2,2,0,0,1-2.32,1.49,1.88,1.88,0,0,1-1.57-2.2A2,2,0,0,1,86.55,101.55Z"/></svg>