<svg id="Camada_1" data-name="Camada 1" xmlns="http://www.w3.org/2000/svg" width="150" height="150" viewBox="0 0 150 150"><ellipse cx="90.0032" cy="107.069" rx="8.5144" ry="0.5311" style="fill:#001a2b;stroke:#001a2b;stroke-miterlimit:10"/><ellipse cx="59.9969" cy="107.069" rx="8.5144" ry="0.5311" style="fill:#001a2b;stroke:#001a2b;stroke-miterlimit:10"/><ellipse cx="60.8815" cy="107.069" rx="6.2746" ry="0.3914" style="fill:#001a2b;stroke:#001a2b;stroke-miterlimit:10"/><ellipse cx="89.0513" cy="107.069" rx="6.2746" ry="0.3914" style="fill:#001a2b;stroke:#001a2b;stroke-miterlimit:10"/><path d="M58.3828,106.7355c1.0748.0129,1.7779.0778,1.57.1448a14.2844,14.2844,0,0,1-2.3216.098c-1.0748-.013-1.7779-.0778-1.5705-.1448A14.2738,14.2738,0,0,1,58.3828,106.7355Z" style="fill:#001a2b;stroke:#001a2b;stroke-miterlimit:10"/><path d="M86.5521,106.7355c1.0748.0129,1.7779.0778,1.5705.1448a14.2837,14.2837,0,0,1-2.3215.098c-1.0748-.013-1.778-.0778-1.5706-.1448A14.2738,14.2738,0,0,1,86.5521,106.7355Z" style="fill:#001a2b;stroke:#001a2b;stroke-miterlimit:10"/></svg>