<svg id="Camada_1" data-name="Camada 1" xmlns="http://www.w3.org/2000/svg" viewBox="0 0 150 150"><defs><style>.cls-1{fill:#001a2b;stroke:#001a2b;stroke-miterlimit:10;}</style></defs><ellipse class="cls-1" cx="90" cy="107.07" rx="8.51" ry="0.53"/><ellipse class="cls-1" cx="60" cy="107.07" rx="8.51" ry="0.53"/><ellipse class="cls-1" cx="60.88" cy="107.07" rx="6.27" ry="0.39"/><ellipse class="cls-1" cx="89.05" cy="107.07" rx="6.27" ry="0.39"/><path class="cls-1" d="M58.38,106.74c1.08,0,1.78.07,1.57.14a14.06,14.06,0,0,1-2.32.1c-1.07,0-1.78-.08-1.57-.15A14.67,14.67,0,0,1,58.38,106.74Z"/><path class="cls-1" d="M86.55,106.74c1.08,0,1.78.07,1.57.14a14.06,14.06,0,0,1-2.32.1c-1.07,0-1.78-.08-1.57-.15A14.67,14.67,0,0,1,86.55,106.74Z"/></svg>